<svg xmlns="http://www.w3.org/2000/svg" width="656.74" height="401.325" viewBox="0 0 656.74 401.325">
  <g id="about-i" transform="translate(-248 -6061.584)">
    <rect id="Rectangle_2573" data-name="Rectangle 2573" width="656.74" height="368" rx="62" transform="translate(248 6094.908)" fill="#f9f8ff"/>
    <g id="Group_3945" data-name="Group 3945" transform="translate(-10.143 2914.723)">
      <g id="_508_team_work_flatline" data-name="#508_team_work_flatline" transform="translate(398.384 3146.861)">
        <ellipse id="Ellipse_694" data-name="Ellipse 694" cx="65.811" cy="8.841" rx="65.811" ry="8.841" transform="translate(57.19 383.644)" fill="#e6e7e8"/>
        <ellipse id="Ellipse_695" data-name="Ellipse 695" cx="65.811" cy="8.841" rx="65.811" ry="8.841" transform="translate(343.009 383.644)" fill="#e6e7e8"/>
        <path id="Path_2516" data-name="Path 2516" d="M140.47,249.66s11.441,35,13.467,34.34,42.75-24.244,41.405-28.279-29.624,4.375-29.624,4.375l-6.366-18.847" transform="translate(-21.181 112.895)" fill="#fff"/>
        <path id="Path_2517" data-name="Path 2517" d="M154.328,285.3a1.129,1.129,0,0,1-.538-.126c-2.528-1.273-10.436-24.782-13.718-34.824a.9.9,0,0,1,.574-1.148.915.915,0,0,1,1.13.592c4.878,14.919,10.849,31.363,12.678,33.6,5.541-2.367,40.222-23.563,40.455-27.077-.484-1.435-12.786.359-28.494,5.039a.932.932,0,0,1-1.112-.574l-6.384-18.847a.915.915,0,0,1,.556-1.148.932.932,0,0,1,1.148.574l6.115,17.932c25.517-7.514,29.409-5,29.893-3.586.359,1.058,1.094,3.246-19.725,16.444-10.257,6.473-21,12.552-22.146,12.965a1.131,1.131,0,0,1-.43.179Z" transform="translate(-21.537 112.497)" fill="#231f20"/>
        <path id="Path_2518" data-name="Path 2518" d="M125.927,213.28s-23.563.341-24.226,2.349S93.954,255.08,100.356,252s16.82-24.244,16.82-24.244l11.781-1.793Z" transform="translate(-55.109 90.709)" fill="#fff"/>
        <path id="Path_2519" data-name="Path 2519" d="M100.05,253.45a2.027,2.027,0,0,1-1.327-.5c-4.393-3.909,2.08-35.864,2.51-37.209.215-.646.879-2.618,25.1-2.959a.986.986,0,0,1,.9.681l3.031,12.642a.95.95,0,0,1-.126.7.879.879,0,0,1-.61.395L118.2,228.991c-1.542,3.1-10.867,21.321-17.035,24.244A2.581,2.581,0,0,1,100.05,253.45Zm2.851-36.994c-.95,3.282-6.043,32.439-2.977,35.147,0,0,.126.126.43,0,5.021-2.367,13.539-17.932,16.408-23.814a.843.843,0,0,1,.663-.484l10.759-1.793-2.636-10.974C115.4,214.753,104.408,215.488,102.9,216.456ZM102.9,216.456Z" transform="translate(-55.503 90.313)" fill="#231f20"/>
        <path id="Path_2520" data-name="Path 2520" d="M188.21,70.41l10.078-5.774s2.833-9.074,5.684-11.261,6.778.789,6.778.789,10.419-8.7,12.929-8.41-.807,4.734-3.371,6.976l-5.38,4.716s4.716,9.612,1.99,13.4-24.675,15.475-24.675,15.475Z" transform="translate(16.686 -42.18)" fill="#fff"/>
        <path id="Path_2521" data-name="Path 2521" d="M192.6,87.56a1.4,1.4,0,0,1-.377,0,.95.95,0,0,1-.5-.61l-3.981-15.888a.879.879,0,0,1,.412-.986l9.773-5.577c.61-1.793,3.12-9.253,5.828-11.4s5.936-.448,7.28.377c2.977-2.457,10.562-8.446,13.072-8.177a1.793,1.793,0,0,1,1.614,1.219c.681,2.17-3.1,6.115-4.465,7.334l-4.877,4.268c1.094,2.367,4.25,10.042,1.614,13.7s-22.72,14.525-24.979,15.726A.825.825,0,0,1,192.6,87.56Zm-2.959-16.336,3.586,14.113c6.653-3.586,21.321-11.853,23.312-14.668s-.825-9.934-2.062-12.552a.914.914,0,0,1,.215-1.076l5.38-4.7c2.421-2.134,4.124-4.824,3.945-5.38-1.381-.126-7.478,4.2-12.337,8.249a.9.9,0,0,1-1.112,0s-3.461-2.564-5.684-.807-4.573,8.392-5.38,10.759a.986.986,0,0,1-.412.52Z" transform="translate(16.293 -42.546)" fill="#231f20"/>
        <path id="Path_2522" data-name="Path 2522" d="M120.14,119.877c7.89,4.411,121.687-62.027,121.687-62.027l16.946,17.538L143.559,158.844Z" transform="translate(-37.307 -32.579)" fill="#9e8bff"/>
        <path id="Path_2523" data-name="Path 2523" d="M185.979,91.82s-67.694,0-85.142,13.9C87.909,116.01,85.47,187.775,85.47,187.775L214.724,177.7S222.148,102.041,185.979,91.82Z" transform="translate(-64.808 -5.634)" fill="#9e8bff"/>
        <path id="Path_2524" data-name="Path 2524" d="M147.365,131.49a.825.825,0,0,1-.825-.825v-35.2a.825.825,0,1,1,1.65,0v35.2A.825.825,0,0,1,147.365,131.49Z" transform="translate(-16.367 -3.397)" fill="#231f20"/>
        <path id="Path_2525" data-name="Path 2525" d="M253.543,199.486c-1.112-.879-41.244-4.985-43.736-4.214s-12.552,33.945-12.355,36.779c.323,5.667,22.487-17.035,22.487-17.035l33.6,6.742" transform="translate(24.014 76.35)" fill="#fff"/>
        <path id="Path_2526" data-name="Path 2526" d="M198.565,234.157a1.31,1.31,0,0,1-.538,0,1.668,1.668,0,0,1-1.076-1.632c-.126-2.116,9.522-36.6,13-37.657,2.618-.807,43.037,3.156,44.543,4.375a.9.9,0,0,1-1.022,1.47c-2.815-1.058-40.742-4.716-43.037-4.124-2.152,1.65-11.907,33.085-11.728,35.864,1.793.556,12.3-8.769,20.945-17.609a.879.879,0,0,1,.825-.251l33.587,6.689a.914.914,0,0,1,.717,1.058.9.9,0,0,1-1.058.7l-33.12-6.6C214.972,222.088,202.671,234.157,198.565,234.157Z" transform="translate(23.618 76.019)" fill="#231f20"/>
        <path id="Path_2527" data-name="Path 2527" d="M311.64,246.181c0,1.166,10.921,36.2,14.113,36.761s48.166-13.628,44.454-16.139-24.065-.663-24.065-.663L335.292,237" transform="translate(114.592 109.524)" fill="#fff"/>
        <path id="Path_2528" data-name="Path 2528" d="M326.168,284.273h-.179c-4.232-.753-14.83-37.245-14.848-37.657a.9.9,0,0,1,1.793-.143c.5,3.174,10.759,34.591,13.467,35.99,1.2.161,10.616-2.367,22.254-6.222,12.552-4.178,19.456-7.173,21.016-8.518-3.353-1.417-15.386-.968-23.043-.287a.879.879,0,0,1-.914-.574l-10.759-29.1a.9.9,0,1,1,1.668-.628l10.6,28.458c4-.323,20.389-1.524,23.975.879a1.273,1.273,0,0,1,.5,1.6C369.851,272.492,329.988,284.273,326.168,284.273Z" transform="translate(114.194 109.09)" fill="#231f20"/>
        <path id="Path_2529" data-name="Path 2529" d="M341.258,151.383s-17.717,132.895-35.864,128.842-90.754-19.492-90.754-19.492l6.563-28.691s51.662,5.487,58.548,5.989S281.8,145.34,281.8,145.34Z" transform="translate(37.651 36.819)" fill="#231f20"/>
        <path id="Path_2530" data-name="Path 2530" d="M306.6,281.61a4.951,4.951,0,0,1-1.022-.108c-17.932-3.981-90.019-19.349-90.736-19.492a.933.933,0,0,1-.574-.395.914.914,0,0,1-.126-.681l6.563-28.691a.932.932,0,0,1,.968-.7c.52,0,51.734,5.505,58.53,5.989,3.586-1.793,3.353-48.04,1.094-91.758a.825.825,0,0,1,.269-.681.9.9,0,0,1,.717-.251l59.481,6.061a.89.89,0,0,1,.807,1c-.628,4.77-15.744,116.738-32.744,128.609A5.7,5.7,0,0,1,306.6,281.61Zm-90.5-21.16c8.374,1.793,73,15.547,89.876,19.313a3.587,3.587,0,0,0,2.833-.735c15.565-10.885,30.359-115.5,31.865-126.457l-57.544-5.846c.646,12.714,4.106,86.379-1.668,92.027a1.794,1.794,0,0,1-1.4.556c-6.348-.466-51.232-5.218-57.777-5.918Z" transform="translate(37.238 36.42)" fill="#231f20"/>
        <path id="Path_2531" data-name="Path 2531" d="M276.25,159.129l62.332,176.326,35.039-18.793L319.915,148.71Z" transform="translate(86.52 39.492)" fill="#231f20"/>
        <path id="Path_2532" data-name="Path 2532" d="M338.977,336.728a.862.862,0,0,1-.323,0,.9.9,0,0,1-.538-.538L275.8,159.864a.95.95,0,0,1,0-.735,1,1,0,0,1,.592-.448l43.647-10.419a.879.879,0,0,1,1.058.61l53.8,167.952a.9.9,0,0,1-.43,1.058l-35.057,18.793a.824.824,0,0,1-.43.054ZM277.829,160.151l61.633,174.407,33.479-17.932L319.718,150.145Z" transform="translate(86.107 39.115)" fill="#231f20"/>
        <path id="Path_2533" data-name="Path 2533" d="M354.744,133.774l21.823-7.173c-1-1.47-12.014-35.29-25.1-41.728-11.423-7.567-32.529-6.133-56.414-4.465a73.611,73.611,0,0,0-22.4,4.662c-26.9,10.759-30.771,46.175-30.771,46.175l24.836,8.661s-4.017,48.184-7.8,73.378c0,0,30.269,11.477,97.927.269C356.86,213.428,354.87,140.893,354.744,133.774Z" transform="translate(59.258 -15.74)" fill="#9e8bff"/>
        <path id="Path_2534" data-name="Path 2534" d="M302.352,87.41l-24.226,55.285-5.935-53.33Z" transform="translate(83.3 -9.132)" fill="#231f20"/>
        <path id="Path_2535" data-name="Path 2535" d="M278.515,143.988h-.126a.9.9,0,0,1-.753-.789L271.7,89.851a.969.969,0,0,1,.2-.663.9.9,0,0,1,.628-.323l30.2-1.955a.933.933,0,0,1,.789.377.9.9,0,0,1,.09.879l-24.19,55.285a.915.915,0,0,1-.9.538Zm-4.931-53.33,5.38,49.1,22.379-50.891Z" transform="translate(82.91 -9.529)" fill="#231f20"/>
        <path id="Path_2536" data-name="Path 2536" d="M327.116,52.121a23.312,23.312,0,0,0-24.692-6.778c-7.675,2.475-14.668,6.76-22.361,9.217S263.3,57.34,256.93,52.39A12.983,12.983,0,0,0,271.9,64.943c-.287,1.793-2.726,2.062-4.465,1.686s-3.963-.807-5.039.628a3.587,3.587,0,0,0-.233,3.192c1.309,4.322,5.254,7.173,8.966,9.791,5.38,3.712,10.759,4.483,16.246,7.047,5.81,2.744,10.15,6.545,16.82,7.478a24.208,24.208,0,0,0,17.215-4.232c3.138-2.224,9.522-5.254,8.267-10.024-.61-2.259,3.371-6.563,3.586-9.881a24.245,24.245,0,0,0-6.151-18.506Z" transform="translate(71.196 -43.402)" fill="#fff"/>
        <path id="Path_2537" data-name="Path 2537" d="M307.662,96.2a22.017,22.017,0,0,1-3.264-.233,32.743,32.743,0,0,1-12.032-4.842c-1.6-.932-3.264-1.793-5.057-2.726a56.2,56.2,0,0,0-6.061-2.349,40.168,40.168,0,0,1-10.311-4.77c-4.142-2.869-7.962-5.81-9.307-10.257a4.429,4.429,0,0,1,.377-4,4.25,4.25,0,0,1,4.232-1.309,14.7,14.7,0,0,1-4.842-2.69,13.234,13.234,0,0,1-4.967-10.383.879.879,0,0,1,.5-.789.914.914,0,0,1,.932.108c7.549,5.864,18.129,3.371,22.326,2.026a97.4,97.4,0,0,0,11.136-4.411,99.648,99.648,0,0,1,11.226-4.626,24.172,24.172,0,0,1,25.625,7.011h0a25.1,25.1,0,0,1,6.384,19.134,15.027,15.027,0,0,1-2.116,5.38c-.843,1.542-1.793,3.3-1.56,4.142,1.219,4.626-3.479,7.657-6.9,9.863-.61.395-1.2.771-1.7,1.13A25.553,25.553,0,0,1,307.662,96.2ZM265.2,67.5a1.99,1.99,0,0,0-1.686.628,2.959,2.959,0,0,0-.09,2.4c1.166,3.891,4.734,6.617,8.607,9.307a37.927,37.927,0,0,0,9.881,4.537,64.835,64.835,0,0,1,6.24,2.439,56.587,56.587,0,0,1,5.182,2.779,30.9,30.9,0,0,0,11.387,4.626,23.563,23.563,0,0,0,16.569-4.071c.52-.377,1.13-.771,1.793-1.184,3.138-2.026,7.029-4.537,6.133-7.89-.395-1.542.574-3.353,1.793-5.38a14.435,14.435,0,0,0,1.757-4.806,23.311,23.311,0,0,0-5.918-17.735h0a22.415,22.415,0,0,0-23.742-6.509A95.67,95.67,0,0,0,292.079,51.2a105.034,105.034,0,0,1-11.333,4.662c-8.643,2.762-16.695,2.277-22.415-1.255a11.8,11.8,0,0,0,4.214,7.173,11.423,11.423,0,0,0,9.576,2.69.9.9,0,0,1,.789.233.825.825,0,0,1,.269.789A2.654,2.654,0,0,1,272,67.289a5.918,5.918,0,0,1-4.357.574A13,13,0,0,0,265.2,67.5Z" transform="translate(70.799 -43.757)" fill="#231f20"/>
        <path id="Path_2538" data-name="Path 2538" d="M279.347,97.061l-4.34,17.035s4.824,11.118,16.336,8.966S305.152,112.3,305.169,112.3l1.937-18.345,1.2-11.279a12.852,12.852,0,0,0,.412-3.551c-.717-2.564-3.927-3.963-4.86-6.617a21.949,21.949,0,0,1,.7-16.282c-4.806,3.873-10.329,7.818-16.5,7.406a29.466,29.466,0,0,0,3.353-4.232l-12.068,4.3a29.553,29.553,0,0,1-4.806,1.148c-1.793.341-1.094-.789-2.457,1.4-3.371,5.38-3.838,14.668-3.156,20.855C269.9,95.9,279.347,97.061,279.347,97.061Z" transform="translate(80.5 -33.864)" fill="#fff"/>
        <path id="Path_2539" data-name="Path 2539" d="M288.761,124.665c-9.845,0-14.166-9.63-14.2-9.719a.842.842,0,0,1,0-.592l4.106-16.139c-2.564-.628-9.361-2.995-10.2-10.759-.7-6.294-.233-15.691,3.3-21.429l.09-.161c.843-1.345,1.112-1.793,2.116-1.632a1.793,1.793,0,0,0,.843,0,28.947,28.947,0,0,0,4.662-1.112L291.541,58.8a.9.9,0,0,1,1,.3.914.914,0,0,1,0,1.04,32.085,32.085,0,0,1-2.1,2.833c5.129-.466,9.827-3.909,13.879-7.173a.9.9,0,0,1,1.112,0,.861.861,0,0,1,.269,1.076,21.142,21.142,0,0,0-.664,15.637,8.463,8.463,0,0,0,2.26,3.048,8.967,8.967,0,0,1,2.636,3.73,6.939,6.939,0,0,1-.2,2.869,5.543,5.543,0,0,1-.161.932l-3.138,29.624s-2.331,9.271-14.525,11.638A16.42,16.42,0,0,1,288.761,124.665ZM276.316,114.5c.825,1.668,5.38,10.006,15.224,8.105,10.849-2.1,13.108-10.114,13.126-10.2l3.12-29.48a7.636,7.636,0,0,1,.179-1.094,6.421,6.421,0,0,0,.233-2.044,7.334,7.334,0,0,0-2.188-2.941,10.15,10.15,0,0,1-2.672-3.586,23.024,23.024,0,0,1-.377-13.951c-4.268,3.21-9.163,6.025-14.615,5.667a.879.879,0,0,1-.771-.574.915.915,0,0,1,.179-.95c.556-.574,1.094-1.166,1.6-1.793l-9.343,3.335a27.9,27.9,0,0,1-4.806,1.166,4.466,4.466,0,0,1-1.4,0l-.484.771-.09.143c-3.084,5.021-3.748,13.808-3.048,20.3.879,8.051,9.289,9.271,9.647,9.307a.914.914,0,0,1,.628.394.861.861,0,0,1,.125.717Z" transform="translate(80.124 -34.354)" fill="#231f20"/>
        <path id="Path_2540" data-name="Path 2540" d="M273.34,89.077a12.284,12.284,0,0,0,11.118-2.8c5.236-4.609,5.039-8.679,5.039-8.679a18.972,18.972,0,0,1-13.861,2.511Z" transform="translate(84.212 -16.913)" fill="#231f20"/>
        <path id="Path_2541" data-name="Path 2541" d="M276.67,90.761a11.352,11.352,0,0,1-3.138-.395.9.9,0,0,1-.61-1.076l2.277-8.966a.9.9,0,0,1,1.094-.646,18.291,18.291,0,0,0,13.144-2.439.879.879,0,0,1,1.381.7c0,.179.161,4.555-5.38,9.4a13.144,13.144,0,0,1-8.769,3.425Zm-1.793-1.919a11.477,11.477,0,0,0,9.432-2.8,13.987,13.987,0,0,0,4.429-6.312,19.2,19.2,0,0,1-12.014,1.919Z" transform="translate(83.859 -17.324)" fill="#231f20"/>
        <path id="Path_2542" data-name="Path 2542" d="M281.053,64.06s-6.671,8.392-5.38,10.06,5.38.95,5.38.95" transform="translate(85.931 -27.653)" fill="#fff"/>
        <path id="Path_2543" data-name="Path 2543" d="M279.519,76.51a5.38,5.38,0,0,1-4.178-1.417c-1.417-1.793,2.152-7.173,5.38-11.172a.879.879,0,0,1,1.255-.143.9.9,0,0,1,.143,1.255c-3.1,3.909-5.613,8.123-5.38,8.966.681.879,3.3.771,4.429.574a.915.915,0,0,1,1.04.735.9.9,0,0,1-.735,1.04,14.629,14.629,0,0,1-1.955.161Z" transform="translate(85.546 -28.035)" fill="#231f20"/>
        <ellipse id="Ellipse_696" data-name="Ellipse 696" cx="1.47" cy="2.08" rx="1.47" ry="2.08" transform="translate(372.706 34.288) rotate(-0.24)" fill="#231f20"/>
        <ellipse id="Ellipse_697" data-name="Ellipse 697" cx="2.08" cy="1.47" rx="2.08" ry="1.47" transform="translate(358.267 36.88) rotate(-73.11)" fill="#231f20"/>
        <path id="Path_2544" data-name="Path 2544" d="M283.529,77.136a22.7,22.7,0,0,1-12.355-4.322.9.9,0,1,1,1.094-1.417c.412.323,10.2,7.747,18.667,1.47a.9.9,0,1,1,1.058,1.435A13.933,13.933,0,0,1,283.529,77.136Z" transform="translate(82.182 -22.009)" fill="#231f20"/>
        <path id="Path_2545" data-name="Path 2545" d="M288.557,69.045A7.173,7.173,0,0,1,293.722,67a5,5,0,0,1,4.411,3.12,6.348,6.348,0,0,1-1.65,5.936,11.764,11.764,0,0,1-8.643,4.017" transform="translate(95.714 -25.322)" fill="#fff"/>
        <path id="Path_2546" data-name="Path 2546" d="M288.237,81.356a.9.9,0,0,1-.9-.9.879.879,0,0,1,.879-.9,10.759,10.759,0,0,0,7.98-3.712,5.469,5.469,0,0,0,1.47-5.057,4.071,4.071,0,0,0-3.586-2.51,6.169,6.169,0,0,0-4.5,1.793.914.914,0,0,1-1.273,0,.9.9,0,0,1,0-1.273,8.016,8.016,0,0,1,5.846-2.242,5.918,5.918,0,0,1,5.182,3.712,7.173,7.173,0,0,1-1.793,6.832,12.66,12.66,0,0,1-9.325,4.322Z" transform="translate(95.317 -25.672)" fill="#231f20"/>
        <path id="Path_2547" data-name="Path 2547" d="M194.337,169.854s20.353,83.564,6.922,89.374S111.4,276.209,111.4,276.209l-3.461-24.1s58.8-12.875,62.009-15.8-19.725-73.934-20.263-74.508S194.337,169.854,194.337,169.854Z" transform="translate(-46.985 49.855)" fill="#231f20"/>
        <path id="Path_2548" data-name="Path 2548" d="M111.8,277.449a.915.915,0,0,1-.52-.179.9.9,0,0,1-.359-.592l-3.479-24.1a.9.9,0,0,1,.7-1c22.648-4.949,59.391-13.575,61.6-15.583,1.793-3.891-18.434-69.236-20.407-73.378a.879.879,0,0,1,0-.915c.412-.789.52-1,45.6,7.621a.879.879,0,0,1,.7.663c2.116,8.625,20.156,84.46,6.42,90.414-13.4,5.81-86.953,16.587-90.073,17.035Zm-2.457-24.3,3.228,22.343c8.572-1.273,76.337-11.4,88.728-16.784,2.905-1.255,6.886-8.876,1.058-45.888-3.066-19.385-7.531-38.411-8.356-41.889-15.153-2.887-36.9-6.958-42.535-7.8,3.909,10.185,20.281,63.533,20.084,72.266a2.475,2.475,0,0,1-.61,1.883C167.768,240.222,118.257,251.2,109.345,253.151Z" transform="translate(-47.385 49.512)" fill="#231f20"/>
        <path id="Path_2549" data-name="Path 2549" d="M103.77,170.716l63.641,150.325,27.418-5.29L153.173,157.07Z" transform="translate(-50.292 46.123)" fill="#231f20"/>
        <path id="Path_2550" data-name="Path 2550" d="M167.805,322.34a.915.915,0,0,1-.825-.538L103.339,171.46a.915.915,0,0,1,.592-1.219l49.385-13.628a.878.878,0,0,1,.7,0,.932.932,0,0,1,.412.538l41.6,158.807a.807.807,0,0,1-.108.7.878.878,0,0,1-.592.412l-27.346,5.272Zm-62.4-150.63,62.942,148.711,25.768-4.967-41.244-156.87Z" transform="translate(-50.686 45.702)" fill="#231f20"/>
        <path id="Path_2551" data-name="Path 2551" d="M133.941,56.884a26.181,26.181,0,0,0-31.13.717A22.738,22.738,0,0,0,94.6,80.321a20.209,20.209,0,0,0,18.6,14.722c8.231.412,16.892-6.635,21.267-13.09C139.751,74.153,143.3,63.34,133.941,56.884Z" transform="translate(-57.976 -37.136)" fill="#fff"/>
        <path id="Path_2552" data-name="Path 2552" d="M114.286,96.347h-.753A21.034,21.034,0,0,1,94.112,81a23.8,23.8,0,0,1,8.536-23.652,27.006,27.006,0,0,1,32.278-.735h0c11.4,7.8,4.232,20.945.646,26.181C131.142,89.443,122.642,96.347,114.286,96.347Zm4.788-43.037a24.6,24.6,0,0,0-15.314,5.38,21.985,21.985,0,0,0-7.908,21.805,19.2,19.2,0,0,0,17.771,14.041c7.531.341,16.031-6.1,20.5-12.7,3.282-4.86,9.827-16.874-.287-23.814a26.055,26.055,0,0,0-14.758-4.644Z" transform="translate(-58.369 -37.525)" fill="#231f20"/>
        <path id="Path_2553" data-name="Path 2553" d="M110.558,64.925a23.115,23.115,0,0,0-7.531,21.267,9.2,9.2,0,0,0,2.833,5.649c3.174,2.582,7.98,1.076,11.387-1.184A43.521,43.521,0,0,0,130.5,75.827c2.385-4.16,5.989-13.539-.466-15.852S115.292,60.836,110.558,64.925Z" transform="translate(-51.145 -31.513)" fill="#231f20"/>
        <path id="Path_2554" data-name="Path 2554" d="M110.31,94.472a7.173,7.173,0,0,1-4.626-1.542,9.809,9.809,0,0,1-3.138-6.2,23.957,23.957,0,0,1,7.818-22.11c4.931-4.25,13.754-7.478,20.371-5.111a5.989,5.989,0,0,1,3.766,3.586c1.793,5.093-2.331,12.66-2.833,13.5a44.149,44.149,0,0,1-13.521,15.135,14.955,14.955,0,0,1-7.836,2.744ZM125.84,60.527A23.635,23.635,0,0,0,111.494,66a22.182,22.182,0,0,0-7.173,20.425,8.249,8.249,0,0,0,2.51,5.111c2.815,2.277,7.173.843,10.347-1.237a42.356,42.356,0,0,0,12.965-14.525c1.6-2.8,3.981-8.464,2.69-11.979a4.124,4.124,0,0,0-2.69-2.564,12.552,12.552,0,0,0-4.3-.7Zm-14.884,4.788Z" transform="translate(-51.543 -31.902)" fill="#231f20"/>
        <path id="Path_2555" data-name="Path 2555" d="M142.54,116.055a51.431,51.431,0,0,1-4.465,3.855,21.2,21.2,0,0,1-20.478.52C102.444,112.63,102.8,94.913,105.94,80.5c1.273-5.864,5.559-18.093,13.467-11.979-2.313-1.793,7.173-7.729,8.625-8.285,10.078-4.106,20.783,1.793,26.683,9.988A78.991,78.991,0,0,1,163.538,85.3c2.331,5.882-.215,13.951-3.586,18.954a25.84,25.84,0,0,1-10.437,8.966c-1.955.915-4.465,1.148-6.276,2.277Z" transform="translate(-49.952 -31.752)" fill="#fff"/>
        <path id="Path_2556" data-name="Path 2556" d="M127.932,124.071a22.541,22.541,0,0,1-10.329-2.493c-12.552-6.456-16.641-20.209-12.14-40.9.61-2.8,2.995-12.086,8.285-14.023a6.061,6.061,0,0,1,5.057.5c1.452-3.084,8.769-7.173,9.289-7.388,10.885-4.429,22.021,2.224,27.759,10.293a78.126,78.126,0,0,1,8.966,15.26c2.457,6.169-.143,14.579-3.586,19.725a26.575,26.575,0,0,1-10.759,9.289,17.935,17.935,0,0,1-2.9.986,13.915,13.915,0,0,0-3.264,1.237c-.233.161-.466.323-.681.5h0a18.917,18.917,0,0,0-1.793,1.524A17.5,17.5,0,0,1,139,120.969,21,21,0,0,1,127.932,124.071ZM115.685,68.105a3.766,3.766,0,0,0-1.327.233c-3.586,1.291-6.043,7.657-7.173,12.714-4.3,19.725-.538,32.905,11.19,38.931a20.317,20.317,0,0,0,19.6-.466,17.462,17.462,0,0,0,2.546-2.134,23.206,23.206,0,0,1,1.793-1.668,8.961,8.961,0,0,1,.843-.592,13.449,13.449,0,0,1,3.73-1.452,16.8,16.8,0,0,0,2.636-.9,24.889,24.889,0,0,0,10.078-8.661c3.192-4.824,5.631-12.552,3.425-18.129a76.643,76.643,0,0,0-8.572-14.812c-5.38-7.514-15.655-13.736-25.625-9.665-1.793.717-8.518,5.38-8.428,6.725h0a.882.882,0,0,1-1.076,1.4,6.025,6.025,0,0,0-3.64-1.453Zm27.257,48.309Z" transform="translate(-50.354 -32.183)" fill="#231f20"/>
        <path id="Path_2557" data-name="Path 2557" d="M147.393,71.987s5.936,12.929,4.5,23.312a14.92,14.92,0,0,1-10.419,12.552l1.56,17.932s.9,9.181-10.49,8.751a19.42,19.42,0,0,1-16.139-9.827L112.3,91.819s12.122-8.446,9.97-20.209C122.27,71.61,138.068,77.689,147.393,71.987Z" transform="translate(-43.526 -21.664)" fill="#fff"/>
        <path id="Path_2558" data-name="Path 2558" d="M133.65,135.845h-.807a20.174,20.174,0,0,1-16.856-10.311,1.791,1.791,0,0,1,0-.287l-4.142-32.923a.843.843,0,0,1,.377-.843c.108,0,11.6-8.267,9.594-19.313a.968.968,0,0,1,.3-.861.95.95,0,0,1,.9-.143c.161,0,15.511,5.792,24.334.448a.914.914,0,0,1,.717,0,.879.879,0,0,1,.556.484c.251.538,6.043,13.288,4.591,23.778a16.031,16.031,0,0,1-10.365,13.09l1.506,17.251a9.36,9.36,0,0,1-2.331,6.778A10.9,10.9,0,0,1,133.65,135.845Zm-16-10.992a18.38,18.38,0,0,0,15.26,9.2,9.63,9.63,0,0,0,7.693-2.367,7.5,7.5,0,0,0,1.793-5.38l-1.56-17.932a.915.915,0,0,1,.681-.95,13.9,13.9,0,0,0,9.737-11.835c1.184-8.446-2.762-18.829-4.035-21.9-8.034,4.124-19.6.986-23.6-.3.932,10.257-7.962,17.663-10.114,19.295Z" transform="translate(-43.896 -22.061)" fill="#231f20"/>
        <path id="Path_2559" data-name="Path 2559" d="M121.79,84.186s-6.653-11.979-12.212-3.586,4.3,16.139,9.791,14.991" transform="translate(-46.991 -16.9)" fill="#fff"/>
        <path id="Path_2560" data-name="Path 2560" d="M118.532,97.04a12.194,12.194,0,0,1-9.289-5.38,9.594,9.594,0,0,1,0-11.172,6.258,6.258,0,0,1,5.38-3.389c4.537.179,8.231,6.742,8.392,7.029a.9.9,0,0,1-1.578.861c-.915-1.65-3.963-5.989-6.886-6.1a4.609,4.609,0,0,0-3.784,2.582,7.783,7.783,0,0,0,0,9.163c2.134,3.084,6.079,5.093,8.84,4.483A.918.918,0,0,1,120,96.915,6.224,6.224,0,0,1,118.532,97.04Z" transform="translate(-47.374 -17.31)" fill="#231f20"/>
        <path id="Path_2561" data-name="Path 2561" d="M130.093,91.146a15.1,15.1,0,0,1-2.493-.215.909.909,0,1,1,.3-1.793,9.593,9.593,0,0,0,5-.341c0-1.04-2.672-4.9-5.882-8.464a.879.879,0,0,1,0-1.255.9.9,0,0,1,1.273,0c1.56,1.793,6.635,7.585,6.294,9.988a1.506,1.506,0,0,1-.7,1.13,7.5,7.5,0,0,1-3.8.95Z" transform="translate(-32.054 -15.952)" fill="#231f20"/>
        <path id="Path_2562" data-name="Path 2562" d="M130.985,91.825a11.747,11.747,0,0,1-1.793-.126,13.162,13.162,0,0,1-8.231-4.626.9.9,0,0,1,.341-1.219.915.915,0,0,1,1.219.341,11.763,11.763,0,0,0,7.173,3.766c3.586.412,6.958-1.022,10.239-4.214a.9.9,0,1,1,1.255,1.273,14.812,14.812,0,0,1-10.2,4.806Z" transform="translate(-36.747 -10.696)" fill="#231f20"/>
        <path id="Path_2563" data-name="Path 2563" d="M135.257,91.82s-9.486,2.044-15.117,1.112c0,0,7.173,13.628,16.354,12.75Z" transform="translate(-37.307 -5.634)" fill="#231f20"/>
        <path id="Path_2564" data-name="Path 2564" d="M136.059,107.012c-9.145,0-16.013-12.7-16.3-13.252a.915.915,0,0,1,0-.95.932.932,0,0,1,.879-.359c5.38.879,14.686-1.094,14.776-1.112a.9.9,0,0,1,.735.161.879.879,0,0,1,.359.628l1.237,13.862a.9.9,0,0,1-.807.986ZM122.234,94.459c2.062,3.264,7.424,10.759,13.7,10.759l-1.076-11.925a57.669,57.669,0,0,1-12.624,1.13Z" transform="translate(-37.715 -6.032)" fill="#231f20"/>
        <ellipse id="Ellipse_698" data-name="Ellipse 698" cx="1.417" cy="2.475" rx="1.417" ry="2.475" transform="translate(87.449 60.221) rotate(-8.11)" fill="#231f20"/>
        <ellipse id="Ellipse_699" data-name="Ellipse 699" cx="1.417" cy="2.475" rx="1.417" ry="2.475" transform="translate(100.383 58.362) rotate(-8.11)" fill="#231f20"/>
        <path id="Path_2565" data-name="Path 2565" d="M477.831,143.65,331.075,66.865A8.41,8.41,0,0,0,318.9,75.831l5.72,32.278L78.77,151.684a5.2,5.2,0,0,0-4.214,6.043L96.667,282.3a5.2,5.2,0,0,0,6.025,4.214l245.867-43.629,5.72,32.278a8.41,8.41,0,0,0,14.489,4.178l111.394-122.6a8.428,8.428,0,0,0-2.331-13.09Z" transform="translate(-73.53 -26.19)" fill="#fff"/>
        <path id="Path_2566" data-name="Path 2566" d="M102.195,287.89a6.115,6.115,0,0,1-3.479-1.112,6.026,6.026,0,0,1-2.51-3.927L74.042,158.259a6.1,6.1,0,0,1,4.949-7.065L324,107.709l-5.559-31.4A9.307,9.307,0,0,1,331.9,66.465l146.774,76.8h0a9.289,9.289,0,0,1,2.564,14.489l-111.322,122.6a9.307,9.307,0,0,1-16.031-4.644l-5.577-31.4L103.271,287.783A5.47,5.47,0,0,1,102.195,287.89ZM327.565,67.164a7.531,7.531,0,0,0-4.411,1.47A7.388,7.388,0,0,0,320.2,76l5.738,32.278a.915.915,0,0,1-.735,1.04L79.421,152.951a4.393,4.393,0,0,0-2.779,1.793,4.3,4.3,0,0,0-.807,3.174l22.11,124.574a4.322,4.322,0,0,0,5,3.5L348.8,242.361a.914.914,0,0,1,1.04.717l5.72,32.278a7.5,7.5,0,0,0,12.947,3.73L479.9,156.484a7.513,7.513,0,0,0-2.08-11.692L331.062,68.043A7.442,7.442,0,0,0,327.565,67.164Z" transform="translate(-73.948 -26.579)" fill="#231f20"/>
        <path id="Path_2567" data-name="Path 2567" d="M220.194,84.477c-1.973-.663-3.981-1.255-5.989-1.793a6.509,6.509,0,0,0-3.873-.143c-1.793.7-2.708,2.833-3.353,4.716-.95,2.887-1.937,5.971-1.112,8.966,1.2,4.268,5.756,6.617,10.024,7.783a14.991,14.991,0,0,0,6.473.574C235.042,102.284,228.622,87.311,220.194,84.477Z" transform="translate(30.447 -13.175)" fill="#fff"/>
        <path id="Path_2568" data-name="Path 2568" d="M220.986,105.985a19.08,19.08,0,0,1-4.931-.771c-3.353-.9-9.2-3.192-10.652-8.392-.932-3.3.215-6.689,1.13-9.432.7-2.1,1.65-4.429,3.873-5.272a7.173,7.173,0,0,1,4.411.126c2.044.5,4.089,1.112,6.061,1.793,5.577,1.793,10.275,8.661,9.863,14.238-.161,2.331-1.417,6.4-7.818,7.567A11.925,11.925,0,0,1,220.986,105.985Zm-8.858-22.361a3.21,3.21,0,0,0-1.112.179c-1.506.556-2.242,2.439-2.815,4.16-1.04,3.066-1.793,5.81-1.112,8.374,1.219,4.34,6.42,6.348,9.4,7.173a14.346,14.346,0,0,0,6.079.574c3.927-.7,6.115-2.762,6.348-5.936.359-4.752-3.855-10.759-8.643-12.409h0c-1.937-.646-3.927-1.219-5.918-1.793a8.841,8.841,0,0,0-2.224-.323Z" transform="translate(30.049 -13.558)" fill="#231f20"/>
        <path id="Path_2569" data-name="Path 2569" d="M96.3,130.16a3.3,3.3,0,0,0,1.381-.3c4.573-1.99,3.927-10.436,4.322-14.561.215-2.313.161-5.111-1.793-6.312-4.411-2.672-10.544-1.506-14.543,1.435s-4.878,8.5-4.429,13.27c.161,1.9.3,6.115,2.026,7.3,2.3,1.614,5-2.833,4.949-4.806v1.6a6.294,6.294,0,0,0,.3,2.17,2.259,2.259,0,0,0,1.524,1.488c1.148.233,2.188-.771,2.654-1.793a29.78,29.78,0,0,1,1.184-3.282,2.385,2.385,0,0,0,.412,3.21,2.9,2.9,0,0,0,2.008.592Z" transform="translate(-68.25 6.792)" fill="#fff"/>
        <path id="Path_2570" data-name="Path 2570" d="M90.8,132.772a2.741,2.741,0,0,1-.538,0,3.12,3.12,0,0,1-2.188-2.044v-.2a6.06,6.06,0,0,1-1.793,1.793,2.779,2.779,0,0,1-3.192-.2c-1.883-1.309-2.17-4.913-2.349-7.3v-.646c-.412-4.5,0-10.6,4.806-14.077,3.891-2.887,10.419-4.573,15.529-1.488,2.493,1.506,2.475,4.806,2.259,7.173,0,.753-.108,1.632-.161,2.582-.179,4.591-.448,10.867-4.7,12.732a4.357,4.357,0,0,1-1.793.377h0a4,4,0,0,1-2.618-.843l-.215-.3A3.712,3.712,0,0,1,90.8,132.772Zm-1.327-6.2v1.578a5.882,5.882,0,0,0,.251,1.9,1.363,1.363,0,0,0,.879.914c.61.126,1.309-.574,1.632-1.327a9.919,9.919,0,0,0,.43-1.291l.269-.9a2.958,2.958,0,0,1,.628-1.309.9.9,0,0,1,1.452,1.022,4.555,4.555,0,0,0-.323.735.681.681,0,0,0,0,.269,1.6,1.6,0,0,0,.538,1.076,1.973,1.973,0,0,0,1.417.43h0a2.905,2.905,0,0,0,1.04-.215c3.228-1.417,3.461-7.047,3.586-11.172a15.4,15.4,0,0,1,.143-2.672c.287-2.977-.161-4.7-1.381-5.38-4.214-2.546-10.006-1.237-13.557,1.381-4.035,2.995-4.447,8.428-4.089,12.552v.663c.143,1.668.412,5.147,1.6,5.971a.986.986,0,0,0,1.13,0,5.917,5.917,0,0,0,2.421-4.071h0a.9.9,0,0,1,.861-.915.933.933,0,0,1,.932.879Z" transform="translate(-68.653 6.385)" fill="#231f20"/>
        <path id="Path_2571" data-name="Path 2571" d="M366.852,105.91s11.01,52.918-2.026,56.361c-17.7,4.77-91.221-13.27-91.221-13.27s-19.187,4.716-22.541-.341,0-12.122,1.686-12.552,16.139-1.435,16.139-1.435-11.763-8.661-8.069-9.325,16.838,3.694,16.838,3.694,72.015,5.38,71.352,1.65-4-17.753-4-17.753" transform="translate(65.405 5.543)" fill="#fff"/>
        <path id="Path_2572" data-name="Path 2572" d="M357,164.329c-24.836,0-78.381-12.929-82.954-14.041-2.833.681-19.725,4.5-23.312-.753a11.459,11.459,0,0,1-.592-10.454c.287-.717,1.381-3.084,2.851-3.389s9.7-.932,13.9-1.273c-3.5-2.708-7.657-6.4-7.173-8.3a1.578,1.578,0,0,1,1.417-1.183c3.73-.681,15.368,3.1,17.161,3.694,25.248,1.793,65.829,4.089,70.222,2.3-.789-4.16-3.855-17.179-3.891-17.322a.92.92,0,1,1,1.793-.412c.143.574,3.335,14.13,4,17.807a1.148,1.148,0,0,1-.3,1.022c-2.9,3.246-55.84-.412-72-1.614h-.215c-3.586-1.2-13.377-4.16-16.318-3.694.448,1.219,4.124,4.609,8.374,7.747a.915.915,0,0,1,.341.968.932.932,0,0,1-.807.646c-4,.3-14.7,1.166-16.049,1.417a5.936,5.936,0,0,0-1.793,3.013,9.378,9.378,0,0,0,.681,8.069c2.206,3.3,14.346,1.793,21.519,0a.879.879,0,0,1,.43,0c.735.179,73.4,17.932,90.772,13.288,10.024-2.654,4.393-40.831,1.381-55.32a.914.914,0,1,1,1.793-.359c1.148,5.505,10.759,53.8-2.672,57.383a34.466,34.466,0,0,1-8.554.771Z" transform="translate(65.032 5.17)" fill="#231f20"/>
        <line id="Line_140" data-name="Line 140" x1="8.123" y1="34.376" transform="translate(402.364 84.196)" fill="#231f20"/>
        <path id="Path_2573" data-name="Path 2573" d="M306.846,126.38a.9.9,0,0,1-.861-.7L297.862,91.3a.879.879,0,0,1,.664-1.076.914.914,0,0,1,1.076.664l8.123,34.376a.9.9,0,0,1-.663,1.076Z" transform="translate(103.642 -6.912)" fill="#231f20"/>
        <path id="Path_2574" data-name="Path 2574" d="M198.875,66.426a.843.843,0,0,1-.681-.359.825.825,0,0,1,.215-1.148,4.106,4.106,0,0,0,1.793-3.963,14.238,14.238,0,0,1-1.184-3.586.825.825,0,0,1,1.506-.574,9.612,9.612,0,0,1,1.273,3.586,2.547,2.547,0,0,0,.986,1.112.807.807,0,0,0,.861-.126c1.632-.968,0-6.725-1.542-10.293A.807.807,0,0,1,202.516,50a.843.843,0,0,1,1.094.412c.753,1.7,4.34,10.293.879,12.355a2.367,2.367,0,0,1-2.367.215,1.793,1.793,0,0,1-.412-.233,5.631,5.631,0,0,1-2.4,3.461A.9.9,0,0,1,198.875,66.426Z" transform="translate(24.491 -38.86)" fill="#231f20"/>
        <path id="Path_2575" data-name="Path 2575" d="M154.443,244.465a.807.807,0,0,1-.789-.61l-16-59.768a.86.86,0,0,1,1.65-.484l16,59.768a.825.825,0,0,1-.574,1Z" transform="translate(-23.445 66.679)" fill="#fff"/>
      </g>
      <path id="Path_2576" data-name="Path 2576" d="M6.182,34.585l2.743-7.856h12.69l2.743,7.856h6.275L18.361.6H12.272L0,34.585ZM14.55,10.738a23.746,23.746,0,0,0,.744-2.6,18.361,18.361,0,0,0,.7,2.6l3.9,10.97h-9.2ZM37.374,34.585l.372-3.579c1.348,2.65,4.277,4.184,7.716,4.184,6.6,0,10.924-4.881,10.924-11.947,0-7.252-4-12.365-10.552-12.365a9.1,9.1,0,0,0-8.042,4.091V0H32.121V34.585Zm.465-11.575c0-4.137,2.557-7.019,6.461-7.019,4,0,6.368,2.929,6.368,7.019S48.3,29.983,44.3,29.983C40.4,29.983,37.838,27.147,37.838,23.01Zm19.756.046c0,7.159,5.16,12.086,12.272,12.086s12.272-4.927,12.272-12.086S76.978,10.97,69.866,10.97,57.594,15.9,57.594,23.056Zm5.671,0c0-4.184,2.7-7.019,6.6-7.019s6.6,2.836,6.6,7.019-2.7,7.019-6.6,7.019S63.266,27.24,63.266,23.056ZM99.709,11.621v12.04c0,4.37-1.72,6.461-5.3,6.461-3.161,0-4.881-1.766-4.881-6.136V11.621H83.858V25.985c0,5.625,3.114,9.2,8.414,9.2a8.983,8.983,0,0,0,7.438-3.672l.418,3.068h5.253V11.621Zm17.385,22.963V16.363h4.463V11.621h-4.463V4.463h-5.671v7.159h-4.416v4.741h4.416V34.585ZM134.34,22.173c0,8,5.206,12.969,13.434,12.969,8.274,0,13.481-5.02,13.481-12.969V.6H155.3V21.8c0,4.834-2.7,7.577-7.531,7.577s-7.484-2.7-7.484-7.577V.6h-5.95Zm29.332,5.439c0,4.509,3.626,7.577,9.343,7.577,5.671,0,9.622-2.882,9.622-7.531,0-3.533-1.952-5.3-5.811-6.182L172.69,20.5c-1.952-.465-2.975-1.3-2.975-2.6,0-1.72,1.3-2.743,3.533-2.743,2.185,0,3.486,1.255,3.533,3.207h5.392c-.046-4.463-3.533-7.438-8.693-7.438-5.3,0-9.111,2.7-9.111,7.205,0,3.672,2,5.625,6.136,6.554l4.137.976c2.045.465,2.65,1.3,2.65,2.464,0,1.673-1.441,2.743-4.091,2.743-2.6,0-4.091-1.255-4.137-3.254Z" transform="translate(466.839 3310.849) rotate(-9)" fill="#242a39"/>
    </g>
  </g>
</svg>
