<svg xmlns="http://www.w3.org/2000/svg" width="40.754" height="43.715" viewBox="0 0 40.754 43.715">
  <g id="bankinfo-mob" transform="translate(-402.67 -1144.117)">
    <g id="Group_3803" data-name="Group 3803" transform="translate(435.44 1144.839)">
      <line id="Line_109" data-name="Line 109" y1="2.597" x2="3.117" transform="translate(1.032 1.066) rotate(-20)" fill="none" stroke="#242a39" stroke-linecap="round" stroke-width="0.8"/>
      <line id="Line_110" data-name="Line 110" y1="2.208" x2="0.779" transform="translate(0 0.889) rotate(-20)" fill="none" stroke="#242a39" stroke-linecap="round" stroke-width="0.8"/>
      <path id="Path_1299" data-name="Path 1299" d="M0,.779,2.781,0" transform="translate(2.899 3.634) rotate(-20)" fill="none" stroke="#242a39" stroke-linecap="round" stroke-width="0.8"/>
    </g>
    <g id="_529959560" transform="translate(402.657 1146.418) rotate(-3)">
      <path id="Path_509" data-name="Path 509" d="M14.424,39.633l8.829-.535c.024,0,.065,0,.086,0a1.18,1.18,0,0,1,.177.053c-.035-.083-.148-.263-.257-.481,2.436-.065,4.7-.762,7.057-.762a12.63,12.63,0,0,0,3.555-.083,9.951,9.951,0,0,1,3.346-.632l.266.741a.773.773,0,0,0,.774-.617,2.929,2.929,0,0,0,.015-1.252c-.106-.709-.5-.821-.685-1.249-.115-.263.062-.283-.44-.626l-.366.18a6.318,6.318,0,0,1-2.436.233c.059-.65.151-.62.481-.966-.074-2.578-.552-4.89-.673-7.488a39.852,39.852,0,0,1-.089-5.876c.053-.458.316-1.273.133-1.662-.461.387-.325.369-.387,1.169-.118-.159-.086-.027-.183-.307A11.663,11.663,0,0,1,33.4,16a12.563,12.563,0,0,0,2.776-.4c.62.068,1.887.856,2.472.431a2.779,2.779,0,0,1-1.057-.366c.015-.239.186-.233.443-.472-.691-.393-.525-.564-.974-1.134-.3-.387-.133-.419-.546-.8a15.938,15.938,0,0,0-2.123-1.47c-.747-.517-1.211-1.031-2.032-1.589L30.8,9.089a1.665,1.665,0,0,0-.623-.337l1.264,1.3L29.224,8.519c.032-.03.071-.142.08-.1s.08-.044.112-.074.059.018.068.053c.065.236.487.322.694.357a.653.653,0,0,0-.177-.2c-.012-.009-.266-.18-.319-.21A7.976,7.976,0,0,1,27.94,7.255c-.874-.865-.464-1.2-1.831-2.031-.957-.588-3.688-3.124-4.417-3.083.165.765.842.632,1.178,1.284-.375-.062-.239-.044-.508-.2-.352-.2.015-.089-.473-.21,0,.983.78,1.5,1.438,2.031-.629.4-1.249.588-1.81.945a6.31,6.31,0,0,1-1.772,1.036l.732-.78c.322-.334,1.252-.921.963-1.432l-.431.369c-.033.027-.139.089-.168.115-.446.384-.171.629-.809,1.19-.352.307-.594.407-.907.709a3.076,3.076,0,0,0-.78.833c.614.289.647-.05,1.028-.319.425-.3.676-.455,1.1-.777a8.136,8.136,0,0,1,2.032-1.2l.236-.08c.033-.012.08-.03.124-.041-.024.032-.056.044-.068.1l-1.311,1.3c-.292.251-.283.024-.31.461.942.154,1.081-.467,1.908-.756l-.263-.549c.408-.281.626-.384.641-1.057a3.985,3.985,0,0,1,.785.354c.192,1.057.074.9,1.03,1.63a7.427,7.427,0,0,0,1.961,1.134c-.5-.537-1.355-.936-1.908-1.438-.446-.407-.387-.1-.525-.726.525.18.912.546,1.509.794l1.181.957c.195.354.278.387.446.679a5.116,5.116,0,0,0-.7-.266c.091.1-.018.021.2.2.015.012.2.145.23.165l1.775.9c-.39-.195-.535-.517-.886-.7l.189-.183c.021-.021.041.035.05.074l.948.65a16.2,16.2,0,0,0,3.03,2.3l1.107.638a10.17,10.17,0,0,1,2.469,2.909l-.93-.142c-.006-.009-.133-.3-.136-.3a7.964,7.964,0,0,0-1.541-2.17c-.41-.36-.452-.478-1.122-.431a2.944,2.944,0,0,0-.363.921,1.878,1.878,0,0,1-.464,1.081c-1.025-.5-.5-2.5-1.6-2.938a3.285,3.285,0,0,0-.345,1.438l-.148,1.234c-.112.357-.038.154-.177.369l-.284-.682a18.391,18.391,0,0,1-.024-2.135c-.018-.375-.05-.543-.36-.688-.216.4-.127.372-.124,1.092,0,.8-.024,2.519-.5,2.855-.015.012-.059.024-.074.032-.328.148-.378-.381-.413-.6a9.645,9.645,0,0,1,.006-2.474,3.12,3.12,0,0,1,.5,1.32,2.851,2.851,0,0,0-.183-1.3c-.162-.632-.021-.67-.617-.839a6.857,6.857,0,0,0,.136,4.016l.278.466c-.741.52-5.557.585-6.715.759a2.8,2.8,0,0,1-2.194-.186l-.316.2A11.157,11.157,0,0,1,15.874,16c-.027-.006-.059-.094-.068-.071l-.174-.26c-.157-.159-.053-.092-.3-.151a1.518,1.518,0,0,0-.109.227l-.157.322a42.618,42.618,0,0,0-5.324-.115c-.505.05-1.973.41-2.286.4l-1.019.121a4.767,4.767,0,0,1-1.471.071l5.241-6.018c-.428.2-.4.3-.661.611L7.76,12.948c-.018.021-.189.207-.192.21A12.6,12.6,0,0,0,6,14.929a3.732,3.732,0,0,1-.655.818l-.7.818-2.548-.133c.189-1.09,1.391-1.553,2.064-2.271l.39-.535a10.2,10.2,0,0,1,1.019-.862l.4.393c.673-2,2.029-1.787,2.669-2.8a3.443,3.443,0,0,1,.52-.836l2.288-1.86c.661-.514,1.078-1.187,1.71-1.651.8-.591-.954.387,1.432-1.627l1.742-1.509c.765-.357.691.207.7.213L13.911,5.33c-.322.254-.16.024-.437.36a12.179,12.179,0,0,0,1.9-1.314,11.408,11.408,0,0,1,2-1.264c-.189.629-.124.286-.6.667a7.2,7.2,0,0,0-.6.564,12.17,12.17,0,0,0,2.457-1.928c.387-.328.363-.59.995-.629-.124.428-.529.679-.951.954l-.918.889c.788-.464,1.518-1.659,2.551-1.571-.1.517.189.118-.316.526-.227.186-.221.157-.446.354-.316.281-.605.434-.909.685-.517.428-1.146,1.081-1.754,1.6-.337.284-.7.49-.915.688l-1.308,1.1c-.145.121-.269.272-.4.4L8.46,13.246c-.313.4-.4.546-.718.892-.136.154-.222.286-.357.443-.348.4-.275-.006-.3.54.531-.083,1.187-1.143,1.476-1.627l.974-1.033c.656-.676.6-.316,1.1-1.163.75-1.246,4.308-4.335,5.69-5.554l2.41-2c.319-.245.626-.416.954-.655,1.754-1.267.7-.31,2.191-.068-.257-.3-.706-.455-.933-.812l.458-.345c.339-.3.124.068.275-.517-.954.112-.369.756-1.385.715a1.467,1.467,0,0,1,.177-.469l.186-.2.065-.062c.012-.015.044-.041.065-.065l-.753.343c-.3-.446-.118-.319-.292-.694-.446.083-.3.192-.529.171-.31-.03-.342-.31-.443-.54l.661-.475L18.9,0a2.818,2.818,0,0,1-.747.1c-.434.72-1.075,1.033-1.6,1.848a13.117,13.117,0,0,1-2.206,2.209c-.156.139-.059.03-.219.18L11.965,6.192c-1.116.768.165.275-.641.989V6.744A2.765,2.765,0,0,0,10.258,7.8c.4-.272.446-.529.921-.629a1.5,1.5,0,0,1-.443.6l-.54.4c-.021.018-.053.041-.074.059L8.959,9.2c-.036-.035-.109-.127-.115-.089s-.133-.065.091-.2l.532-.4c.278-.242.523-.331.629-.667l-.629.54a21.023,21.023,0,0,0-2.956,2.474c.709-.393,1.465-1.485,2.268-1.68-.316.753-1.825,1.775-2.4,2.531a1.24,1.24,0,0,1-.679-.393l-.647.638.39.159c-.387.127-.18.077-.538.272l-.15-.272a15.812,15.812,0,0,1-1.76,1.429,2.129,2.129,0,0,1,.059.224c0,.024,0,.071,0,.1l-.041.2c-.074.227-.021.065-.139.266L.9,16.53c-.307.363-.706.534-.9.924.673.546,1.335-.517,2.229-.065.3-.407-.245-.136.422-.319a6.059,6.059,0,0,1,.966-.05l.3,2.037c.041.638-.095,1.659-.074,2.407.083,2.953.074,10.911.685,12.966a1.875,1.875,0,0,0,.186.469c.225.419.086-.068.227.475a2.643,2.643,0,0,1-1.379.284c-.021-.027-.053-.106-.062-.083l-.2-.3c-.638.3.05.289-1.025.452A2.829,2.829,0,0,0,1.1,36.11c.275.558.216-.31.337.635l0,.213c-.115,1.532-.218,3.461.747,4.27a4.028,4.028,0,0,1-.257-1.305l.162-.139c.009-.006.218-.139.248-.162.148-.1.263-.227.378-.289.729-.4.8.192,1.116.183.54-.233.36-.3.8-.514.723.159.186.534.856.307.446-.151.121-.369,1.016-.458l.21.2c.526.487.744-.425,3.136-.393,1.107.015,2.091-.165,3.3-.044s5.2-.027,6.729-.032c.384,0,3.171.089,3.328.174L15,39.5A.812.812,0,0,0,14.424,39.633Zm14.162-2.646c-.165.948-.142.54-1.031.847l.109-.239C27.978,36.931,27.942,36.969,28.586,36.987Zm-21.3-.942c-.824.632-.059.576-1.051,1.482-.027.024-.071.056-.092.077s-.062.053-.094.08l.741-1.648C7.057,35.806,7.113,35.95,7.282,36.045ZM6.245,38.327c.334-.8.4-1.131,1.013-1.435a2.575,2.575,0,0,1-.289.936C6.691,38.522,7.022,38.416,6.245,38.327Zm20.764-.384c-4.84.493-5.359.2-9.8.3-1.754.038-3.278-.263-4.946-.151-1.521.1-3.351.281-4.881.269a3.173,3.173,0,0,1,.251-1.2l.434-.783c.012-.021.029-.065.047-.095,3.5-.221,14.451.608,18.863.688A1.648,1.648,0,0,0,27.009,37.944Zm-23.77.664.8-1.547c.292-.4.115-.21.517-.381a4.4,4.4,0,0,1-.407,1.137C3.827,38.528,4,38.443,3.239,38.608Zm1.494-.13a7.19,7.19,0,0,1,1.208-2,2.994,2.994,0,0,1-.378,1.152C5.271,38.3,5.407,38.41,4.733,38.478Zm.992-2.427c-.118.357-.03.2-.292.39C5.312,36.08,5.221,36.057,5.726,36.051Zm-2.3.567.469.18a.71.71,0,0,1,.095.047c-.422.638-.821,1.7-1.651,1.89a5.75,5.75,0,0,1,.909-2.285c.154-.39.263-.4.744-.4.162,0-.038-.05.257.018.212.05.133.03.26.115C4.249,36.695,4.163,36.55,3.422,36.618Zm24.9.094a2.678,2.678,0,0,1,.93-1.346c.018.027.455-.142-.124.818C28.867,36.615,28.958,36.718,28.317,36.712Zm8.294,0c-2.911.281-.452.93-7.14.821.109-.425.059-.369.369-.632.271-.227.248-.038.461-.464l.313-.623a1.114,1.114,0,0,1,.694-.458c-.095.874-1.143,1.893-.074,1.984l.659-2,5.091-.526C37.09,36.116,36.6,35.6,36.612,36.712Zm-7.243-.006a1.975,1.975,0,0,1,.34-.853c.277-.546.136-.461.895-.5A3.5,3.5,0,0,1,29.369,36.706ZM16.282,35.75c1.848-.03,3.809-.325,5.513-.192,2.058.162,3.924-.2,5.976-.183-.062.555-.351.812-.526,1.335l-7.093-.354c-2.274-.124-4.11-.032-6.319-.254l-.812-.139a.461.461,0,0,1-.1-.044A11.313,11.313,0,0,0,16,35.694l-3.464-.03c.939-.475,4.128-.316,5.144-.325C17.244,35.643,16.716,35.5,16.282,35.75ZM4.361,26.637a.586.586,0,0,1,.159.313s.083.434.083.446l.307,6.534c-.3-.36-.233-.266-.31-.688A37.392,37.392,0,0,1,4.361,26.637Zm.546,1.485c.095.154.027-.009.127.3.351,1.1.207,4.376.272,5.489.038.647-.1.346.269.65L4.822,22.2c-.487-1.406-.413-.121-.443-2.61-.038-3.006-.511-2.362,2.327-2.315a39.936,39.936,0,0,0-.027,4.45,54.7,54.7,0,0,0,.4,7.2l.635,6.7c-1.11.056-.573-.112-1.2-.39a1.126,1.126,0,0,1-.936.286c-.529-.833-.443-2.365-.52-3.5C4.975,30.836,4.893,29.245,4.908,28.123Zm24.606-.092a13.556,13.556,0,0,1-.13-2.968c.641.307.148.537.357,2.22C29.838,28.081,29.617,27.945,29.513,28.031Zm-13.7-11.566,2.932.106c.189,3.1.561,6.018.667,9.18.024.723.269,1.273.345,2.008.195,1.9-.215,1.71.464,4.5.407,1.668,0,1.772.469,1.993.254-.455-.251-4.872-.109-6.721a32.373,32.373,0,0,0-.514-6.52,4.721,4.721,0,0,1-.348-2.094,20.4,20.4,0,0,1-.222-2.271c1.3-.074,8.888-.85,9.219-.735.59.475-.05,5.17-.151,5.873-.038.275.009.614-.035,1.081-.163,1.63.372.05.44,2.076.053,1.695-.038,3.387.041,5.088.038.847.109,1.506.127,2.4.015.868-.083,1.379.292,1.618l.366.118a2.345,2.345,0,0,0-.369.558c-.475.024-.915-.1-1.217-.083-.278.015-.856.124-1.367.13-4.264.047-9.989-.464-13.586.289a30.1,30.1,0,0,1-5.3.605l-.021-1.822a18.94,18.94,0,0,0-.115-2.35c.3-.1-.106-.3.142.065l.115.328L7.6,24.8c-.1-2.492-.068-5.238-.354-7.553a8.417,8.417,0,0,0,1.872-.269c1.332-.257,1.084-.366,1.8-.5a20.686,20.686,0,0,1,4.317,0l.142,7.131c.024.853.088.452.2.963a8.344,8.344,0,0,1-.062,2.259,9.424,9.424,0,0,0,.092,1.054,7.083,7.083,0,0,0-.092,1.028l.328,4.474c.032.617-.136.815.292,1.054l.13-.963c.561.443.021.591.593.617-1.078-2.622-.714-7.406-.856-11.032-.044-1.1-.348-1.878-.059-2.7.08-.219.109.13.1-.422Zm-14.073.186c-.168.375.3.275-.593.3.071-.151-.006-.245.236-.36C1.919,16.332,1.651,16.607,1.736,16.651Zm27.627-.945,3.431.254a69,69,0,0,0,.21,8.2c.21.54.26-.018.269,1.039a45.093,45.093,0,0,0,.791,9.378l-3.886.124C30.11,32.682,29.67,17.5,29.363,15.706Zm-1-.348c.121-.434.275-.78.4-1.184.331.224.351.5.617.726,1.1-.28.381-2.147.93-3.053.617.974.171,2.548,1.707,2.6.475-.543.469-1.284.785-1.984.853.224,3.812,3.024,1.255,3.033-.98.006-.4-.027-.933-.289-.555.183-.1.307-1.042.233C31.7,15.414,28.61,14.985,28.359,15.358Zm6.768-2.722a3.746,3.746,0,0,1,1.346.8c-.094,1.468.331.334.641,1.119.127.319.047.334.012.611-.579-.145-1.2-1.019-1.476-1.592h.413C35.5,12.877,35.72,13.515,35.127,12.635ZM25.778,5.407c.428.535.933.659,1.217,1.376-.8-.2-1.225-.744-1.946-.942ZM23.05,3.912a1.623,1.623,0,0,1,.827.455c.024.018.313.213.316.213l.434.266c.006.006.018.038.024.044l.218.67A2.88,2.88,0,0,1,23.8,4.84ZM18.815,1.4a3.537,3.537,0,0,1-.8.809c-.021.018-.053.041-.074.056-.407.319-.257.375-1.078.4.189-1.084.431-.219.537-1.172C17.422,1.279,18.024-.145,18.815,1.4Z" transform="translate(0 0.244)" fill="#2b2b2b" fill-rule="evenodd"/>
      <path id="Path_510" data-name="Path 510" d="M1.381,13.261c.015-.355.233-.015.089,0C1.466,13.264,1.361,13.7,1.381,13.261Zm.009.6c.322-.6-.08-.227.534-.6a17.5,17.5,0,0,1-.779-6.018c0-.4,0-.806,0-1.21.006-.68.056-.735-.159-1.058L.853,7.11A16.582,16.582,0,0,1,.507,3.664,26.164,26.164,0,0,1,.475,0C-.234.5.041,2.731.112,3.49.286,5.344.788,13.142,1.39,13.866Z" transform="translate(17.157 19.951)" fill="#2b2b2b" fill-rule="evenodd"/>
      <path id="Path_511" data-name="Path 511" d="M1.979,5.017,1.839,5.2c-.011.018-.05.062-.062.086l-.121.363c.779.18,2.409-1.5,3.484-2.1.549-.3.325,0,.446-.4-.62.2-1.565,1.187-3.006,1.822.2-.449.071-.357.552-.744L6.78,1.317C7.19.995,8,.608,8.062.047c-.47,0-.054-.142-.741.472L5.54,2.09c-.561.334-.035.05-.493.162C5.575.912,6.753,1.11,6.889,0,6.5.077,5.658.877,5.253,1.119l.384.133c-.7.416-.5,1.19-.856,1.411-.795.484-.328.26-1.01.859l.667-.939c.027-.027.1-.112.124-.139.183-.227.056-.038.154-.257L3.367,3.523a2.769,2.769,0,0,0-.361.313,6.139,6.139,0,0,0-.617.573L0,6.756c.13-.145.222-.251.408-.44A6.987,6.987,0,0,1,1.979,5.017Z" transform="translate(13.37 3.805)" fill="#2b2b2b" fill-rule="evenodd"/>
      <path id="Path_512" data-name="Path 512" d="M1.07,9.792c.014-.03.032-.11.035-.092L.491,2.162C.485,1.607.9-.035.278,0-.318.036.222,4.43.27,4.985A15.164,15.164,0,0,0,1.07,9.792Z" transform="translate(30.171 16.738)" fill="#2b2b2b" fill-rule="evenodd"/>
      <path id="Path_513" data-name="Path 513" d="M.494,4.084C.922,3.745.608,1.418.508.759.42.189.55.1,0,0,.366.966.281,3.607.494,4.084Z" transform="translate(18.856 28.945)" fill="#2b2b2b" fill-rule="evenodd"/>
      <path id="Path_514" data-name="Path 514" d="M0,.157C.765.6,4.963.174,6.142.083A15.644,15.644,0,0,0,3.354.043C2.359.02,1.137.151,0,.157Z" transform="translate(4.494 40.172)" fill="#2b2b2b" fill-rule="evenodd"/>
      <path id="Path_515" data-name="Path 515" d="M.1,3.3A7.678,7.678,0,0,0,.344,0,7.411,7.411,0,0,0,.1,3.3Z" transform="translate(31.844 26.937)" fill="#2b2b2b" fill-rule="evenodd"/>
      <path id="Path_516" data-name="Path 516" d="M0,3.363c.371.254.534-.165,1.263-1.03L3.484,0A18.052,18.052,0,0,0,1.721,1.579L.443,2.974C.289,3.136.156,3.207,0,3.363Z" transform="translate(9.65 10.818)" fill="#2b2b2b" fill-rule="evenodd"/>
      <path id="Path_517" data-name="Path 517" d="M0,1.242A4.47,4.47,0,0,0,1.81,0C1.3-.043.277.772,0,1.242Z" transform="translate(21.06 0)" fill="#2b2b2b" fill-rule="evenodd"/>
      <path id="Path_518" data-name="Path 518" d="M0,.218A5.7,5.7,0,0,0,1.869.07a3.174,3.174,0,0,0-1.323,0Z" transform="translate(10.89 39.963)" fill="#2b2b2b" fill-rule="evenodd"/>
    </g>
  </g>
</svg>
