<svg xmlns="http://www.w3.org/2000/svg" xmlns:xlink="http://www.w3.org/1999/xlink" width="66.485" height="61.968" viewBox="0 0 66.485 61.968"><defs><linearGradient id="a" x1="0.2" y1="0.152" x2="0.603" y2="1" gradientUnits="objectBoundingBox"><stop offset="0" stop-color="#9e8bff"/><stop offset="1" stop-color="#5775ff"/></linearGradient></defs><g transform="translate(-384.133 -1144.215)"><g transform="translate(384.133 1159.183)"><path d="M26.147,18.586c16.406-8.5,31.64-1.5,31.64,14.458a28.9,28.9,0,0,1-28.9,28.9c-15.959,0-28.211-18.058-28.9-28.9S9.74,27.086,26.147,18.586Z" transform="translate(0.039 -14.942)" opacity="0.1" fill="url(#a)"/></g><g transform="translate(440.88 1144.937)"><line y1="3.168" x2="3.802" transform="translate(1.259 1.3) rotate(-20)" fill="none" stroke="#242a39" stroke-linecap="round" stroke-width="0.8"/><line y1="2.693" x2="0.95" transform="translate(0 1.084) rotate(-20)" fill="none" stroke="#242a39" stroke-linecap="round" stroke-width="0.8"/><path d="M0,.95,3.393,0" transform="translate(3.536 4.432) rotate(-20)" fill="none" stroke="#242a39" stroke-linecap="round" stroke-width="0.8"/></g><g transform="translate(400.892 1146.863) rotate(-3)"><path d="M17.595,48.343l10.769-.652c.029,0,.079,0,.1,0a1.439,1.439,0,0,1,.216.065c-.043-.1-.18-.321-.313-.587,2.972-.079,5.731-.929,8.608-.929,1.581,0,2.7.31,4.336-.1a12.138,12.138,0,0,1,4.081-.771l.324.9a.943.943,0,0,0,.944-.753,3.572,3.572,0,0,0,.018-1.527c-.13-.864-.605-1-.836-1.524-.14-.32.076-.346-.537-.764l-.447.22c-.62.407-2.186.252-2.972.285.072-.792.184-.756.587-1.178-.09-3.144-.674-5.964-.821-9.134a48.612,48.612,0,0,1-.108-7.167c.065-.558.385-1.552.162-2.028-.562.472-.4.45-.472,1.426-.144-.194-.1-.032-.223-.375a14.227,14.227,0,0,1-.274-4.239,15.323,15.323,0,0,0,3.386-.483c.756.083,2.3,1.044,3.015.526a3.389,3.389,0,0,1-1.29-.447c.018-.292.227-.284.54-.576-.843-.479-.641-.688-1.188-1.383-.371-.472-.162-.511-.666-.972a19.441,19.441,0,0,0-2.59-1.794c-.911-.63-1.477-1.257-2.478-1.938l-1.9-1.358a2.031,2.031,0,0,0-.76-.411l1.542,1.585-2.7-1.869c.04-.036.087-.173.1-.126s.1-.054.137-.09.072.022.083.065c.079.288.594.393.846.436a.8.8,0,0,0-.216-.245c-.014-.011-.324-.22-.389-.256A9.729,9.729,0,0,1,34.08,8.849c-1.066-1.055-.566-1.459-2.233-2.478-1.167-.717-4.5-3.811-5.388-3.76.2.933,1.026.771,1.437,1.567-.457-.076-.292-.054-.619-.241-.429-.249.018-.108-.576-.256,0,1.2.951,1.833,1.754,2.478-.767.483-1.524.717-2.208,1.153a7.7,7.7,0,0,1-2.161,1.264l.893-.951c.393-.407,1.527-1.124,1.174-1.747l-.526.45c-.04.032-.169.108-.205.14-.544.468-.209.767-.987,1.452-.429.375-.724.5-1.106.864A3.752,3.752,0,0,0,22.378,9.8c.749.353.789-.061,1.254-.389.519-.367.825-.555,1.336-.947a9.924,9.924,0,0,1,2.478-1.469l.288-.1c.04-.014.1-.036.151-.05-.029.04-.068.054-.083.126L26.2,8.561c-.357.306-.346.029-.378.562,1.149.187,1.318-.569,2.327-.922l-.321-.67c.5-.342.764-.468.782-1.289a4.861,4.861,0,0,1,.958.432c.234,1.289.09,1.1,1.257,1.988a9.059,9.059,0,0,0,2.392,1.383c-.605-.656-1.653-1.142-2.327-1.754-.544-.5-.472-.126-.641-.886.641.22,1.113.666,1.841.969l1.441,1.167c.238.432.339.472.544.828a6.24,6.24,0,0,0-.857-.324c.112.122-.022.025.241.241.018.014.245.176.281.2l2.165,1.1c-.475-.238-.652-.63-1.08-.854l.23-.223c.025-.025.05.043.061.09l1.156.792a19.763,19.763,0,0,0,3.7,2.806l1.351.778c.929.429,2.5,2.709,3.011,3.548L43.2,18.351c-.007-.011-.162-.36-.166-.367a9.714,9.714,0,0,0-1.88-2.647c-.5-.439-.551-.583-1.369-.526a3.592,3.592,0,0,0-.443,1.124,2.29,2.29,0,0,1-.565,1.318c-1.25-.609-.609-3.047-1.956-3.584a4.007,4.007,0,0,0-.421,1.754l-.18,1.506c-.137.436-.047.187-.216.45l-.346-.832a22.432,22.432,0,0,1-.029-2.6c-.021-.457-.061-.663-.439-.839-.263.49-.155.454-.151,1.333,0,.972-.029,3.072-.612,3.483-.018.014-.072.029-.09.04-.4.18-.461-.465-.5-.731a11.764,11.764,0,0,1,.007-3.018,3.806,3.806,0,0,1,.616,1.61,3.478,3.478,0,0,0-.223-1.585c-.2-.771-.025-.818-.753-1.023a8.364,8.364,0,0,0,.166,4.9l.339.569c-.9.634-6.778.713-8.19.926a3.421,3.421,0,0,1-2.676-.227l-.385.241a13.609,13.609,0,0,1-3.364-.108c-.032-.007-.072-.115-.083-.086l-.213-.317c-.191-.195-.065-.112-.36-.184a1.852,1.852,0,0,0-.133.277l-.191.393a51.984,51.984,0,0,0-6.494-.14c-.616.061-2.406.5-2.788.49l-1.243.148a5.814,5.814,0,0,1-1.794.086l6.393-7.34c-.522.241-.483.36-.807.746L9.465,15.794c-.021.025-.23.252-.234.256A15.369,15.369,0,0,0,7.315,18.21a4.552,4.552,0,0,1-.8,1l-.857,1L2.55,20.044c.231-1.329,1.7-1.895,2.518-2.77l.475-.652A12.439,12.439,0,0,1,6.786,15.57l.486.479c.821-2.446,2.474-2.179,3.256-3.414a4.2,4.2,0,0,1,.634-1.019l2.791-2.269c.807-.627,1.315-1.448,2.085-2.013.98-.72-1.163.472,1.747-1.985l2.125-1.84c.933-.436.843.252.85.259L16.968,6.5c-.393.31-.195.029-.533.439a14.855,14.855,0,0,0,2.316-1.6A13.915,13.915,0,0,1,21.189,3.8c-.23.767-.151.349-.731.814a8.785,8.785,0,0,0-.735.688,14.845,14.845,0,0,0,3-2.352c.472-.4.443-.72,1.214-.767-.151.522-.645.828-1.16,1.163l-1.12,1.084c.962-.565,1.851-2.024,3.112-1.916-.126.63.231.144-.385.641-.277.227-.27.191-.544.432-.385.342-.738.529-1.109.836-.63.522-1.4,1.318-2.139,1.949-.411.346-.85.6-1.117.839l-1.6,1.34c-.177.148-.328.331-.49.486l-7.067,7.124c-.382.49-.494.666-.875,1.088-.166.187-.27.349-.436.54-.425.483-.335-.007-.36.659.648-.1,1.448-1.394,1.8-1.984L11.637,15.2c.8-.825.728-.385,1.347-1.419.915-1.52,5.255-5.287,6.941-6.775l2.939-2.442c.389-.3.763-.508,1.163-.8,2.14-1.545.854-.378,2.672-.083-.313-.367-.861-.555-1.138-.991l.558-.421c.414-.371.151.083.335-.63-1.163.137-.45.922-1.689.872a1.789,1.789,0,0,1,.216-.573l.227-.245.079-.076c.014-.018.054-.05.079-.079l-.918.418c-.364-.544-.144-.389-.357-.846-.544.1-.367.234-.645.209-.378-.036-.418-.378-.54-.659l.807-.58L23.051,0a3.438,3.438,0,0,1-.911.122c-.529.879-1.311,1.261-1.949,2.255A16,16,0,0,1,17.5,5.071c-.191.169-.072.036-.267.22l-2.64,2.262c-1.361.936.2.335-.782,1.207V8.226a3.373,3.373,0,0,0-1.3,1.293c.49-.331.544-.645,1.124-.767a1.834,1.834,0,0,1-.54.728l-.659.49c-.025.022-.065.05-.09.072l-1.419,1.178c-.043-.043-.133-.155-.141-.108s-.162-.079.112-.245l.648-.493c.339-.3.637-.4.767-.814l-.767.659c-.908.8-2.982,2.082-3.605,3.018.864-.479,1.786-1.812,2.766-2.049-.385.918-2.226,2.165-2.928,3.087a1.513,1.513,0,0,1-.828-.479l-.789.778.475.195c-.472.155-.22.094-.656.331L5.8,14.767A19.287,19.287,0,0,1,3.652,16.51a2.6,2.6,0,0,1,.072.274c0,.029,0,.086,0,.119l-.05.241c-.09.277-.025.079-.169.324L1.1,20.163c-.375.443-.861.652-1.1,1.127.821.666,1.628-.63,2.719-.079.371-.5-.3-.166.515-.389a7.391,7.391,0,0,1,1.178-.061l.371,2.485c.05.778-.115,2.024-.09,2.935.1,3.6.09,13.309.836,15.815a2.287,2.287,0,0,0,.227.573c.274.511.1-.083.277.58a3.224,3.224,0,0,1-1.682.346c-.025-.032-.065-.13-.076-.1l-.249-.364c-.778.371.061.353-1.25.551a3.451,3.451,0,0,0-1.433.465c.335.681.263-.378.411.774l0,.259c-.14,1.869-.266,4.221.911,5.208A4.913,4.913,0,0,1,2.356,48.7l.2-.169c.011-.007.266-.169.3-.2.18-.122.321-.277.461-.353.89-.483.98.234,1.361.223.659-.284.439-.36.979-.627.882.195.227.652,1.045.375.544-.184.148-.45,1.239-.558l.256.245c.641.594.908-.519,3.825-.479,1.351.018,2.55-.2,4.027-.054s6.339-.032,8.208-.04c.468,0,3.868.108,4.059.213L18.3,48.184A.991.991,0,0,0,17.595,48.343Zm17.274-3.227c-.2,1.156-.173.659-1.257,1.034l.133-.292C34.127,45.047,34.083,45.094,34.869,45.116ZM8.882,43.967c-1,.771-.072.7-1.282,1.808-.032.029-.086.068-.112.094s-.076.065-.115.1l.9-2.01C8.608,43.675,8.677,43.851,8.882,43.967ZM7.618,46.751c.407-.972.486-1.38,1.235-1.75A3.141,3.141,0,0,1,8.5,46.142C8.162,46.988,8.565,46.859,7.618,46.751Zm25.327-.468c-5.9.6-6.537.249-11.954.371-2.139.047-4-.321-6.033-.184-1.855.122-4.088.342-5.954.328a3.871,3.871,0,0,1,.306-1.462l.53-.955c.014-.025.036-.079.057-.115,4.272-.27,17.627.742,23.008.839A2.01,2.01,0,0,0,32.945,46.283Zm-28.994.81.973-1.887c.356-.493.14-.256.63-.465a5.368,5.368,0,0,1-.5,1.387C4.668,47,4.884,46.891,3.951,47.093Zm1.823-.159a8.77,8.77,0,0,1,1.473-2.446,3.651,3.651,0,0,1-.461,1.4C6.429,46.718,6.595,46.852,5.774,46.934Zm1.21-2.961c-.144.436-.036.245-.357.475C6.48,44.01,6.368,43.981,6.984,43.974Zm-2.809.692.573.22a.866.866,0,0,1,.115.058c-.515.778-1,2.075-2.014,2.305A7.014,7.014,0,0,1,3.958,44.46c.187-.475.321-.49.908-.493.2,0-.047-.061.313.022.259.061.162.036.317.141C5.183,44.759,5.078,44.583,4.175,44.665Zm30.366.115a3.267,3.267,0,0,1,1.135-1.642c.022.032.555-.173-.151,1C35.211,44.662,35.322,44.788,34.541,44.781Zm10.117,0c-3.551.342-.551,1.135-8.709,1,.133-.519.072-.45.45-.771.331-.277.3-.047.562-.565l.382-.76a1.358,1.358,0,0,1,.846-.558c-.115,1.066-1.394,2.309-.09,2.42l.8-2.438,6.209-.641C45.242,44.053,44.64,43.43,44.658,44.781Zm-8.835-.007a2.409,2.409,0,0,1,.414-1.041c.338-.666.166-.562,1.091-.616A4.266,4.266,0,0,1,35.823,44.773ZM19.86,43.606c2.255-.036,4.646-.4,6.724-.234,2.51.2,4.787-.245,7.29-.223-.076.677-.429.99-.641,1.628l-8.651-.432c-2.773-.151-5.014-.04-7.708-.31l-.991-.169a.562.562,0,0,1-.119-.054,13.8,13.8,0,0,0,3.746-.274L15.286,43.5c1.145-.58,5.035-.385,6.274-.4C21.034,43.477,20.39,43.3,19.86,43.606ZM5.32,32.491a.714.714,0,0,1,.194.382s.1.529.1.544l.375,7.971c-.371-.439-.285-.324-.378-.839A45.61,45.61,0,0,1,5.32,32.491ZM5.986,34.3c.115.187.032-.011.155.367.429,1.336.252,5.338.331,6.7.047.789-.119.421.328.792L5.882,27.082c-.594-1.714-.5-.148-.54-3.184-.047-3.667-.623-2.881,2.838-2.824A48.713,48.713,0,0,0,8.147,26.5,66.726,66.726,0,0,0,8.63,35.29L9.4,43.459c-1.354.068-.7-.137-1.462-.475a1.373,1.373,0,0,1-1.142.349c-.645-1.016-.54-2.885-.634-4.272C6.069,37.613,5.968,35.672,5.986,34.3ZM36,34.191a16.536,16.536,0,0,1-.159-3.62c.781.375.18.655.436,2.708C36.4,34.253,36.126,34.087,36,34.191ZM19.284,20.083l3.577.13c.231,3.778.684,7.34.814,11.2.029.882.328,1.552.421,2.449.238,2.312-.263,2.086.566,5.489.5,2.035,0,2.161.573,2.431.31-.555-.306-5.943-.133-8.2.094-1.221-.205-7.049-.627-7.953a5.758,5.758,0,0,1-.425-2.554,24.885,24.885,0,0,1-.27-2.77c1.585-.09,10.841-1.037,11.245-.9.72.58-.061,6.307-.184,7.164-.047.335.011.749-.043,1.318-.2,1.988.454.061.536,2.532.065,2.067-.047,4.131.051,6.206.047,1.034.133,1.837.155,2.932.018,1.059-.1,1.682.356,1.974l.447.144a2.86,2.86,0,0,0-.45.681c-.58.029-1.117-.119-1.484-.1-.339.018-1.044.151-1.668.158-5.2.058-12.185-.565-16.572.353a36.715,36.715,0,0,1-6.469.738l-.025-2.222a23.1,23.1,0,0,0-.141-2.867c.364-.119-.13-.371.173.079l.141.4-.58-8.648c-.126-3.04-.083-6.39-.432-9.213a10.267,10.267,0,0,0,2.283-.328c1.625-.313,1.322-.447,2.2-.609,1.952-.367,3.31,0,5.266,0l.173,8.7c.029,1.041.108.551.249,1.174a10.178,10.178,0,0,1-.076,2.755,11.5,11.5,0,0,0,.112,1.286,8.64,8.64,0,0,0-.112,1.253l.4,5.457c.04.753-.166.994.356,1.286l.158-1.174c.684.54.025.72.724.753-1.315-3.2-.871-9.033-1.044-13.456-.054-1.344-.425-2.291-.072-3.3.1-.267.133.159.126-.515ZM2.118,20.31c-.205.457.36.335-.724.364.086-.184-.007-.3.288-.439C2.341,19.921,2.014,20.256,2.118,20.31Zm33.7-1.153,4.185.31a84.161,84.161,0,0,0,.256,10c.256.659.317-.022.328,1.268a55,55,0,0,0,.965,11.439l-4.74.151C36.727,39.864,36.191,21.351,35.816,19.158Zm-1.225-.425c.148-.529.335-.951.493-1.444.4.274.429.612.753.886,1.336-.342.465-2.619,1.135-3.724.753,1.189.209,3.108,2.082,3.177.58-.663.573-1.567.958-2.42,1.041.274,4.65,3.688,1.531,3.7-1.2.007-.486-.032-1.138-.353-.677.223-.122.375-1.271.284C38.661,18.8,34.9,18.279,34.591,18.733Zm8.255-3.321a4.57,4.57,0,0,1,1.642.976c-.115,1.79.4.407.782,1.365.155.389.058.407.014.746-.706-.177-1.466-1.243-1.8-1.941h.5C43.3,15.707,43.571,16.485,42.847,15.412Zm-11.4-8.817c.522.652,1.138.8,1.484,1.678-.973-.245-1.495-.908-2.374-1.149ZM28.115,4.772a1.979,1.979,0,0,1,1.009.555c.029.022.382.259.385.259l.529.324c.007.007.022.047.029.054l.266.818a3.512,3.512,0,0,1-1.3-.879ZM22.951,1.711a4.315,4.315,0,0,1-.98.987c-.025.022-.065.05-.09.068-.5.389-.313.457-1.314.486.23-1.322.526-.267.655-1.43C21.25,1.56,21.985-.177,22.951,1.711Z" transform="translate(0 0.297)" fill="#2b2b2b" fill-rule="evenodd"/><path d="M1.685,16.176c.019-.433.285-.018.108,0C1.789,16.179,1.66,16.712,1.685,16.176Zm.011.738c.393-.73-.1-.277.652-.738-.8-1.819-.961-5.075-.951-7.341,0-.493,0-.983,0-1.476.007-.829.069-.9-.194-1.29l-.166,2.6c-.35-.58-.356-3.508-.421-4.2A31.914,31.914,0,0,1,.58,0C-.285.616.05,3.332.137,4.257.349,6.52.961,16.031,1.7,16.914Z" transform="translate(20.927 24.336)" fill="#2b2b2b" fill-rule="evenodd"/><path d="M2.414,6.119l-.17.223c-.014.022-.061.076-.075.1l-.147.443c.951.22,2.938-1.833,4.25-2.557.67-.371.4,0,.544-.493-.756.245-1.909,1.448-3.667,2.222.245-.547.086-.436.673-.908L8.27,1.606c.5-.393,1.491-.865,1.564-1.549-.573,0-.065-.173-.9.576L6.757,2.55c-.685.407-.043.061-.6.2C6.8,1.113,8.237,1.354,8.4,0c-.479.094-1.5,1.07-2,1.365l.468.162c-.85.508-.6,1.452-1.044,1.722-.969.591-.4.317-1.232,1.048l.814-1.145c.033-.033.126-.137.151-.169.223-.277.068-.047.188-.313L4.106,4.3a3.377,3.377,0,0,0-.44.382,7.488,7.488,0,0,0-.752.7L0,8.241c.159-.176.271-.306.5-.536A8.522,8.522,0,0,1,2.414,6.119Z" transform="translate(16.309 4.641)" fill="#2b2b2b" fill-rule="evenodd"/><path d="M1.306,11.945c.018-.037.039-.134.043-.112L.6,2.637C.592,1.96,1.1-.042.34,0-.388.044.271,5.4.329,6.081.514,8.278.566,10.306,1.306,11.945Z" transform="translate(36.801 20.416)" fill="#2b2b2b" fill-rule="evenodd"/><path d="M.6,4.981C1.125,4.568.742,1.729.62.926.512.23.67.127,0,0,.447,1.178.342,4.4.6,4.981Z" transform="translate(23.001 35.307)" fill="#2b2b2b" fill-rule="evenodd"/><path d="M0,.192C.933.735,6.054.213,7.492.1,7.229-.111,5.23.084,4.092.054,2.878.025,1.387.185,0,.192Z" transform="translate(5.482 49)" fill="#2b2b2b" fill-rule="evenodd"/><path d="M.12,4.022C.325,3.743.778.573.419,0A9.04,9.04,0,0,0,.12,4.022Z" transform="translate(38.843 32.857)" fill="#2b2b2b" fill-rule="evenodd"/><path d="M0,4.1c.453.31.652-.2,1.541-1.257L4.25,0A22.019,22.019,0,0,0,2.1,1.927L.541,3.627C.353,3.825.191,3.912,0,4.1Z" transform="translate(11.771 13.195)" fill="#2b2b2b" fill-rule="evenodd"/><path d="M0,1.515A5.452,5.452,0,0,0,2.208,0C1.585-.052.339.942,0,1.515Z" transform="translate(25.688)" fill="#2b2b2b" fill-rule="evenodd"/><path d="M0,.266A6.949,6.949,0,0,0,2.28.086,3.872,3.872,0,0,0,.666.09Z" transform="translate(13.283 48.745)" fill="#2b2b2b" fill-rule="evenodd"/></g></g></svg>