<svg xmlns="http://www.w3.org/2000/svg" xmlns:xlink="http://www.w3.org/1999/xlink" width="72.695" height="74.254" viewBox="0 0 72.695 74.254">
  <defs>
    <linearGradient id="linear-gradient" x1="0.237" y1="0.051" x2="0.726" y2="0.935" gradientUnits="objectBoundingBox">
      <stop offset="0" stop-color="#9e8bff"/>
      <stop offset="1" stop-color="#5775ff"/>
    </linearGradient>
  </defs>
  <g id="business-loan-web" transform="translate(-830.537 -882.167)">
    <g id="Group_3576" data-name="Group 3576" transform="translate(838.071 882)">
      <g id="_2058107944" transform="translate(4.857 12.922) rotate(-13)">
        <path id="Path_734" data-name="Path 734" d="M12.737,3.477c4.757-.005,10.917.053,14.876,1.273.2,1.056.31,3.157-.309,4.129L12.061,9.1c.293-1.307.6-.678.657-2.449C12.768,5.563,12.747,4.554,12.737,3.477Zm31.095,10c-.04,2.751.012,1.1-.328,2.76l-.792.64A14.292,14.292,0,0,1,43.832,13.473Zm-1.48,1.771c-.128,2.884-.307,2.065-.649,2.394-.493-.593-.583-.254-.226-1.259C41.881,15.253,42.188,15.352,42.352,15.245ZM30.646,9.078c-.105-1.32.15-3.024.029-4.126A7.3,7.3,0,0,0,29.465,1.58C28.1.274,23.788.524,21.323.333c-2.2-.185-6.655-.614-8.645-.059-1,.281-1.7-.148-2.4,2.246-.238.823.185,2.965.09,3.884l-.223,2.258c-2.082.309-5.713-.321-8.05-.633C1.152,7.907.345,7.45,0,8.323c.554.386,13.637,1.566,14.365,1.566l12.048-.038c3.388-.007,3.182.193,3.212.212l.255.214c.029.029.066.1.1.138,1.808-.747,2.836.112,6.246.143a18.712,18.712,0,0,1,3.51-.126,19.215,19.215,0,0,0,3.731.086,7.157,7.157,0,0,1-1.585,2.87c-.4.5-.533.676-.9,1.118a11.153,11.153,0,0,0-.981,1.235c-1.345,2.177.2.21-1.8,2.446-1.928,2.172-4.262,4.825-6.894,6.051-1.182.552-5.152,2.367-4.233,4.012,1.225-.464.338-1.713,4.63-3.41a14.99,14.99,0,0,0,3.515-2.5c.65-.578.478-.674,1.273-1.052-.21.743-.423,2.651-.661,3.236a22.221,22.221,0,0,0-1.147,2.953c-.778-1.171.119-1.454.321-2.432.226-1.147-.045-.671-.128-.8L33.7,28.1c.423-.166.371-.235.459-.859.649.859.138.219.5.956.737-1.188.121-.949,1.27-2.458a1.853,1.853,0,0,0,.423-.894c.19-.773.157-1.559.314-2.367.135-.719.193-.392.328-1.011l.026-.74c.019-.559,1.273-1.568,1.7-2A16.789,16.789,0,0,0,40.378,16.8c.424.452.19.01.419.724.005.041.071.621.091.7-.455.26-.892-.376-1.182.521-.079.262-.06,1.947-.086,2.4-.059,1.035-.49,3.231-.048,4.133A10.1,10.1,0,0,0,40.033,22l.335-2.767c.147-.309.147-.21.321-.366,1.178.843.055,2.753.664,4.426.24-.216.124.1.288-.319a20.065,20.065,0,0,0,.207-2.265c.376-2.037.172-1.761.668-2.075.016.8.033,1.689.016,2.489-.007,1.1-.307,1.806.193,2.47a36.312,36.312,0,0,0,.462-4.155l.445-1.3a45.929,45.929,0,0,1-.4,6.982c.09,1.1.466-.718.3,2.755-.076,1.633-.688,7.074-.524,8.373.083.745.364.361.348,1.587,0,1.092-.171.609-.188,1.58-.005.673.128,1.287.062,2.011a11.786,11.786,0,0,0-.205,2.317,1.191,1.191,0,0,0,0,.157c.043.483-.085.067.128.381,1.357-1.432.573-6.167.871-8.9.212-1.935-.252-1.364-.259-2.663-.021-1.628.452-3.988.471-6.022.04-2.353.174-4.2.236-6.467.038-2.01-.371-4.587-.2-6.218a28.354,28.354,0,0,0,.241-3.179c-.019-.994.126-.806-.516-1.009a43.853,43.853,0,0,0-7.088-.212A35.51,35.51,0,0,1,30.646,9.078Z" transform="translate(6.233 0)" fill="#242a39" fill-rule="evenodd"/>
        <path id="Path_735" data-name="Path 735" d="M29.18,23.667c-.167,2.185-.5,1.646-2.448,2.054-1.815.386-4.371.8-3.807-1.464.366-1.5,1.521-.55,2.244-.388A30.094,30.094,0,0,0,29.18,23.667ZM2.08,4.645c.492-.278-.6-.436.145-.045l.228.157c.029.016.1.085.157.124.028-.931.076-.657.476-1.016.069,1.5-.383,4.261.336,5.22.536-.966-.236-.535.452-2.4a8.731,8.731,0,0,0,.186-3.044A3.3,3.3,0,0,1,6.132,5.392c-.726.654-.89.43-.85,1.709.047,1.321-.1,1.535,1.064,1.514l.124-3.1c.8.4,5.656,5.34,6.782,6.261a15.881,15.881,0,0,1,1.732,1.387c2.123,2.108,1.868,2.384,2.975,3.5L19.5,18.011c.041.031.107.085.15.116s.109.081.15.122c-.059,1.142-.481,2.463-.085,3.295,1.652-.567.478-5.275,2-6.023l9.7,1.052c.842.366.305,3.793.321,4.588.014,1.169.214.383.226,1.525l-6.706.221c-1.947.193-5.166-1.254-5.918-.852.128,1.138,1.784,1.183,2.848,1.242a6.935,6.935,0,0,1-.317,1.361,5.049,5.049,0,0,0-.109,1.616c2.046,1.556,6.934,1.076,7.584.066a6.351,6.351,0,0,0,.638-2.729,8.037,8.037,0,0,1,1.356-.093c1.138.1.052-.024.94.371a21.389,21.389,0,0,0,.424-7.483c-.321-2.235-1.047-1-1.218-.962-1.106.238-10.565-1.637-11.139-.4a3.63,3.63,0,0,0-.162.724l-.488,1.149a20.235,20.235,0,0,1-2.049-1.965c-2.544-3.481-3.12-2.839-5.2-5.051-.661-.712-4.107-3.353-4.267-3.976-.223-.819.733-.542-1.7-2.08A10.854,10.854,0,0,0,4.447,2.527c-1.228-.65-.966-.852-1.09-1.83C2.8,1.061,3.177,1,2.751.964,2.084.923,2.506.64,2.506.619,3.236.162,4.594.369,5.446.395c.966.031,1.842.128,2.891.193l5.98.457C14.044.945,2.015-.568,1.242.233.932,1,1.259.9,1.384,1.777c.179,1.206-.112,1.178-.233,1.859C1.03,4.4.892,4.552.818,5.314.513,8.378.464,18.08.342,18.738c-.58,3.027-.267,7.985-.172,11.095C.211,31.274,0,33.416.149,34.657c1.316-1.092.574-5.133.864-7.215a73.986,73.986,0,0,0,.328-7.85c.029-1.318.124-2.587.193-3.809a18.551,18.551,0,0,0-.193-3.8c0-.452.21-.185.276-1.523A40.429,40.429,0,0,1,2.08,4.645Z" transform="translate(0 8.887)" fill="#242a39" fill-rule="evenodd"/>
        <path id="Path_736" data-name="Path 736" d="M46.474,1.952C46.265.993,45.391.818,43.814.822a54.206,54.206,0,0,0-7.16.433c-1.256.095-2.71.016-4.005.066-2.632.1-4.963-.292-7.36-.233l-7.717.167C17.418.672,10.658,1.012,8.186.77,6.537.617,5.021.68,3.424.479,1.433.239-.685-.674.212.913a5.162,5.162,0,0,1,2.4.014,8.015,8.015,0,0,1,1.4.179c1.237.376,0,.2.992.514.876-.376,8.3.105,9.816.2,2.827.167,10.249-.131,10.881-.059,9.161,1.064,14.513-.331,18.563-.043C45.011,1.774,46.127,2.2,46.474,1.952Z" transform="translate(1.321 42.605)" fill="#242a39" fill-rule="evenodd"/>
        <path id="Path_737" data-name="Path 737" d="M7.574,3.654c-.241-.376-.043-.117-.3-.352-.033-.024-.1-.083-.128-.109l-.281-.212c-.01-.647.029-1.18.05-1.8.059-1.223.259-1-.669-1.1-.379.788-.074,2.367-.136,3.407l-2.56.066c-.007-.816-.017-1.6.041-2.336C3.659.444,4.005-.071,3.031.008a12.147,12.147,0,0,0,.026,2.906c.033,1.168-.894.7-2.2.731C1,2.571.84,3.637,1.113,2.737c.019-.072.114-.417.114-.476.021-.486.05-.1-.114-.4-1.145.5-.19.6-1.113,1.818l.117.378c.183.628-.1.093.233.573.066-.221.074-.235.2-.642.873.021,2.137.162,2.749.136a26.748,26.748,0,0,1,2.684,0,1.628,1.628,0,0,1-.066.985c-.043.159-.059.1-.091.285-.109.405-.091.022-.043.281.124.038-.143.414.393-.066.654-.585.041-.7.821-1.416C7.745,3.5,7.108,4.733,7.574,3.654Z" transform="translate(39.997 37.317)" fill="#242a39" fill-rule="evenodd"/>
        <path id="Path_738" data-name="Path 738" d="M.752,0C-.309.31.274,2.229.241,3.479.215,4.6-.309,6.439.274,7.35A12.121,12.121,0,0,0,.752,3.907C.843,2.689,1.506.959.752,0Z" transform="translate(2.606 31.485)" fill="#242a39" fill-rule="evenodd"/>
        <path id="Path_739" data-name="Path 739" d="M.579,0C-.114.426,0,2.191.018,3.1a12.386,12.386,0,0,0,.295,2.71A1.032,1.032,0,0,0,.6,6.2C.871,5.558.943.573.579,0Z" transform="translate(3.957 33.187)" fill="#242a39" fill-rule="evenodd"/>
        <path id="Path_740" data-name="Path 740" d="M1.081,3.69l.229-2.681c-.081-.029-.15.009-.167-.043C1.011.5,1.081.985.9.894.289.561.764.6.238,0A3.867,3.867,0,0,0,.716,3.553C1.138,3.905.741,3.755,1.081,3.69Z" transform="translate(8.181 17.663)" fill="#242a39" fill-rule="evenodd"/>
        <path id="Path_741" data-name="Path 741" d="M0,.387c.324.276-.147.1.426.233L5.261.87c-.1-1.38-1-.726-2.173-.642C2.132.3.74.058,0,.387Z" transform="translate(26.667 11.373)" fill="#242a39" fill-rule="evenodd"/>
        <path id="Path_742" data-name="Path 742" d="M4.809.282C4.274-.091,4.583,0,3.709.037A11.959,11.959,0,0,0,0,.715,16.549,16.549,0,0,0,4.809.282Z" transform="translate(23.136 14.163)" fill="#242a39" fill-rule="evenodd"/>
        <path id="Path_743" data-name="Path 743" d="M1.393.774C1.226.052,1.329.214.646,0-1,.89.979,1.4,1.393.774Z" transform="translate(21.965 25.139)" fill="#242a39" fill-rule="evenodd"/>
        <path id="Path_744" data-name="Path 744" d="M1.007.169C.09-.3-.264.255.21,1.2,1.023,1.083.785,1.145,1.007.169Z" transform="translate(22.84 26.822)" fill="#242a39" fill-rule="evenodd"/>
        <path id="Path_745" data-name="Path 745" d="M1.025.564C.723-.295,1.119.014,0,.278.224.858.2,1.13,1.025.564Z" transform="translate(24.855 25.007)" fill="#242a39" fill-rule="evenodd"/>
        <path id="Path_746" data-name="Path 746" d="M1.23.214C.493-.043.379-.179,0,.461.631.854.912.713,1.23.214Z" transform="translate(22.033 11.74)" fill="#242a39" fill-rule="evenodd"/>
        <path id="Path_747" data-name="Path 747" d="M.875.219C.576.054,1.225-.1.464.085.154.162.124.309,0,.444.069.48-.174.78.448.664,1.616.437.55.587.875.219Z" transform="translate(26.419 25.81)" fill="#242a39" fill-rule="evenodd"/>
      </g>
      <g id="Group_3577" data-name="Group 3577" transform="translate(55.19 2.482) rotate(-20)">
        <line id="Line_86" data-name="Line 86" y1="4.126" x2="4.952" transform="translate(1.444 0.825)" fill="none" stroke="#242a39" stroke-linecap="round" stroke-width="1"/>
        <line id="Line_87" data-name="Line 87" y1="3.507" x2="1.238" transform="translate(0 0)" fill="none" stroke="#242a39" stroke-linecap="round" stroke-width="1"/>
        <path id="Path_417" data-name="Path 417" d="M0,1.238,4.419,0" transform="translate(2.837 5.674)" fill="none" stroke="#242a39" stroke-linecap="round" stroke-width="1"/>
      </g>
      <path id="Path_2666" data-name="Path 2666" d="M29.27,19.021C47.633,9.507,64.684,17.341,64.684,35.2A32.344,32.344,0,0,1,32.34,67.547C14.477,67.547.764,47.335,0,35.2S10.907,28.534,29.27,19.021Z" transform="translate(-7.494 6.874)" opacity="0.1" fill="url(#linear-gradient)"/>
    </g>
  </g>
</svg>
