<svg xmlns="http://www.w3.org/2000/svg" xmlns:xlink="http://www.w3.org/1999/xlink" width="87.037" height="73.45" viewBox="0 0 87.037 73.45">
  <defs>
    <linearGradient id="linear-gradient" x1="0.237" y1="0.051" x2="0.726" y2="0.935" gradientUnits="objectBoundingBox">
      <stop offset="0" stop-color="#9e8bff"/>
      <stop offset="1" stop-color="#5775ff"/>
    </linearGradient>
  </defs>
  <g id="car-loan-web" transform="translate(-1218.658 -884.276)">
    <g id="Group_3578" data-name="Group 3578" transform="translate(1220.693 884)">
      <g id="Group_3577" data-name="Group 3577" transform="translate(48.228 2.734) rotate(-20)">
        <line id="Line_86" data-name="Line 86" y1="4.546" x2="5.455" transform="translate(1.591 0.909)" fill="none" stroke="#242a39" stroke-linecap="round" stroke-width="1"/>
        <line id="Line_87" data-name="Line 87" y1="3.864" x2="1.364" transform="translate(0 0)" fill="none" stroke="#242a39" stroke-linecap="round" stroke-width="1"/>
        <path id="Path_417" data-name="Path 417" d="M0,1.364,4.869,0" transform="translate(3.125 6.251)" fill="none" stroke="#242a39" stroke-linecap="round" stroke-width="1"/>
      </g>
      <path id="Path_40" data-name="Path 40" d="M1.579,22.818A7.243,7.243,0,0,0,.326,25.387q-.055.308-.218.925v.308a3.17,3.17,0,0,0,0,1.644v.308a8.974,8.974,0,0,0,1.416,3.134,1.573,1.573,0,0,1,.327.257h.272a.29.29,0,0,0,.163-.36,1.134,1.134,0,0,0-.163-.462q-.163-.821-.49-2.415a4.129,4.129,0,0,0-.109-.719V27.8a4.086,4.086,0,0,1,0-1.336V26.26q.109-.565.436-1.644A9.516,9.516,0,0,1,3.43,22.3a1.374,1.374,0,0,1,.79-.411,10.677,10.677,0,0,1,1.062-.154h.49a9.133,9.133,0,0,1,1.253-.051h.544q.217,0,.681-.051a3.854,3.854,0,0,1,1.062.051H9.8a9.276,9.276,0,0,1,1.2.051h.49a1.619,1.619,0,0,1,.327.051h.708l1.416.154h.327q.435,0,.98.052l.055.051a3.467,3.467,0,0,0-1.525,1.9,3.581,3.581,0,0,0-.109,1.13,1.613,1.613,0,0,0,.054.617V25.9a8.852,8.852,0,0,0,.163,1.438v.308q.108.514.327,1.593a3.482,3.482,0,0,0,.054.54,5.908,5.908,0,0,0,.272.95v.36a1.044,1.044,0,0,0,.872.771q.707.154,1.416.257h.381q.6.052,1.8.205h.6l.545.051a14.132,14.132,0,0,1,1.47.1h.436a3.216,3.216,0,0,0,.6.051h.436a3.046,3.046,0,0,0,.653.052h.436a16.913,16.913,0,0,1,1.906.154h.545a2.309,2.309,0,0,0,.817.051h.708a.482.482,0,0,0,.327-.154,1.8,1.8,0,0,0,.163-1.644v-.154l-.055-.36a3.222,3.222,0,0,1-.109-.411v-.154q-.055-.719-.272-2V27.7q-.055-.256-.163-.822v-.308q-.055-.257-.109-.771v-.205q-.055-.359-.109-1.027v-.257a10.324,10.324,0,0,0-.109-1.233l-.054-.565V22.1a2.462,2.462,0,0,1,.653-1.438,5.282,5.282,0,0,1,.49-.514h.273a5.832,5.832,0,0,0,.925-.1h.6a14.186,14.186,0,0,0,1.743-.154h1.144q.707,0,.98-.026l.871-.077h1.252a6.6,6.6,0,0,1,1.144-.051h1.144a6.978,6.978,0,0,1,1.307.051,3.715,3.715,0,0,1,.871,0H41.6a9.838,9.838,0,0,1,1.253.052l.762.051a4.9,4.9,0,0,1,.6.051h.327a11.61,11.61,0,0,1,1.579.154h.381q.272.052.708.1l.272.051q.653.052,1.906.257a39.181,39.181,0,0,1,3.867,1.233,5.515,5.515,0,0,1,2.069,1.952,14.672,14.672,0,0,1,1.035,2.98q.053.617.218,1.747v.257a3.973,3.973,0,0,1,.054.822,15.211,15.211,0,0,1-.054,1.849V31.6c0,.205-.019.531-.055.976a1.132,1.132,0,0,1-.109.411v.052q-.436.052-1.252.205h-.327l-.98.154h-.163q-.98.154-2.777.514l-.981.154a2.266,2.266,0,0,0-1.47.925q-.327-.05-.6-.616-.218-.873-.654-2.569-1.253-3.545-3.921-4.521a4.734,4.734,0,0,0-3.158-.051q-.436.1-1.252.36a4.871,4.871,0,0,0-2.614,2.671,4.585,4.585,0,0,0-.272.874,5.327,5.327,0,0,0,0,2.826v.205a5.245,5.245,0,0,1,.163.719v.051c-.146,0-.354.009-.626.026s-.645.06-1.116.128H34.09a3.8,3.8,0,0,1-.762.052h-.382a25.476,25.476,0,0,0-2.668.051h-.272a3.231,3.231,0,0,1-.816,0h-.436a10.724,10.724,0,0,1-1.525-.051h-1.2a6.472,6.472,0,0,0-.654-.1H25.05a12.943,12.943,0,0,1-1.688-.154h-.218q-.816-.1-2.4-.36a2.4,2.4,0,0,1-.545-.1q-.653-.1-1.879-.385t-3.676-1h-.218a22.7,22.7,0,0,1-2.5-.976,2.13,2.13,0,0,1-.653-.462q-.11-.359-.218-.9t-.436-1.567a1.546,1.546,0,0,0-.163-.616q-.381-.617-2.832-1.233H7.351c-.182-.034-.435-.068-.762-.1H6.371q-.327-.051-.98-.1H5.01a3.161,3.161,0,0,0-1.253.051,4.827,4.827,0,0,0-.6.052q-.708.206-.844.462a1.3,1.3,0,0,0-.136.617v.36a2.177,2.177,0,0,0,0,1.182v.308a1.419,1.419,0,0,0,.054.36v.205q.109.462.327,1.284a8.877,8.877,0,0,0,2.995,3.8,8.847,8.847,0,0,0,1.906.668c.181,0,.453.018.817.051a3.041,3.041,0,0,0,1.362,0h.435a6.684,6.684,0,0,1,.763-.1,7.794,7.794,0,0,0,3.322-2.055,1.7,1.7,0,0,1,.218-.154l.272.1q1.361.258,4.085.874h.218q.762.1,2.233.36h.163q.6.052,1.743.257h.327a7.075,7.075,0,0,1,1.034.1h.327a4.33,4.33,0,0,0,.763.051h.436a8.871,8.871,0,0,0,1.307.051H30.06a7.8,7.8,0,0,1,1.2-.051,19.792,19.792,0,0,0,2.015-.051h.763a7.908,7.908,0,0,0,1.089-.052h.653l.654-.051a4.349,4.349,0,0,0,1.361-.616q.163-.1.49-.36l.163.411a9.543,9.543,0,0,0,1.525,3.134,6.968,6.968,0,0,0,1.144,1.13A10.087,10.087,0,0,0,43.4,40.645c.253.069.654.172,1.2.308h.272a8.771,8.771,0,0,0,1.416.154H46.4a4.263,4.263,0,0,0,.926,0h.436a2.916,2.916,0,0,0,.544-.051L48.575,41q.327-.05.871-.154h.218A24.545,24.545,0,0,0,52.5,39.669a7.115,7.115,0,0,0,2.56-2.98.849.849,0,0,1,.163-.411q.272-.05.9-.1t1.988-.205a3.353,3.353,0,0,0,.762-.1h.109a4.275,4.275,0,0,0,.109.873l.054.1a7.906,7.906,0,0,0,1.144-.205q1.144-.257,3.485-.719a3.429,3.429,0,0,0,.49-.051,1.243,1.243,0,0,1,.327.154A10.017,10.017,0,0,0,67.363,37.1h.272a4.726,4.726,0,0,0,2.288-.051,7.7,7.7,0,0,0,.871-.205,6.742,6.742,0,0,0,4.466-3.9.647.647,0,0,1,.027-.154c.018-.068.136-.136.354-.205q1.851-.771,1.852-1.387a.9.9,0,0,0-.762-.925,2.115,2.115,0,0,1,.163-.514q.272-1.027.762-2.98v-.617a3.2,3.2,0,0,0,0-1.439v-.411a18.14,18.14,0,0,0-.49-2.055,6.928,6.928,0,0,0-2.451-3.7,7.368,7.368,0,0,0-1.47-.514,4.1,4.1,0,0,0-.435-.1,7.893,7.893,0,0,0-3.1,0h-.163c-.291.069-.6.137-.926.205q-.11,0-.327-.308a4.993,4.993,0,0,0-1.144-1.13,6.835,6.835,0,0,0-1.906-.976,1.673,1.673,0,0,1-.381-.051q-1.253-.308-3.649-.925l-.272-.051q-1.471-.154-4.465-.617h-.218a2.387,2.387,0,0,1-.545-.1h-.326a12.926,12.926,0,0,1-1.688-.154h-.272a3.591,3.591,0,0,1-.544-.052h-.544a11.594,11.594,0,0,1-1.58-.154h-.708l-.762-.051q-.273,0-.817-.051h-.436A6.759,6.759,0,0,0,47,13.467H46.56a5.188,5.188,0,0,0-.926-.051H44.11a5.574,5.574,0,0,1-.98.051h-.381c-.218,0-.509.018-.871.052H41.55q-.708.052-2.124.257h-.272a13.845,13.845,0,0,0-1.416.257,3.567,3.567,0,0,0-.49.051h-.163q.217-.2.545-.565a3.488,3.488,0,0,0,.435-.565,1.117,1.117,0,0,1,.109-.411v-.719a1.434,1.434,0,0,0,.381-.026.612.612,0,0,0,.163-.18c0-.034-.037-.085-.109-.154a6.31,6.31,0,0,1-.925.052.923.923,0,0,1-.218-.052c.253-.1.58-.239.98-.411A3.535,3.535,0,0,0,39.7,9.923a6.012,6.012,0,0,0,.653.36,8.723,8.723,0,0,0,1.961.565,3.143,3.143,0,0,0,1.252-.051,3.325,3.325,0,0,0,.817-.154,7.315,7.315,0,0,0,1.906-.873A5.628,5.628,0,0,0,48.3,6.583V6.429a3.438,3.438,0,0,0,0-1.49V4.682q-.11-.411-.381-1.233A5.62,5.62,0,0,0,43.837.367a4.369,4.369,0,0,0-2.287.1A5.607,5.607,0,0,0,37.63,3.912a1.61,1.61,0,0,1-.109.514c-.109.069-.255.154-.436.257a2.229,2.229,0,0,0-.817,1.9v.411a2.283,2.283,0,0,0-.055.565v.308a1.263,1.263,0,0,0-.054.411v.257a11.058,11.058,0,0,1-.272,1.233,5.651,5.651,0,0,1-.653.668,18.879,18.879,0,0,1-1.906,1.49,2.778,2.778,0,0,1-.708.36.516.516,0,0,1-.327,0l-.055-.051.273-.205a3.229,3.229,0,0,1,.871-.668v-.205q-.218-.256-.762-.77-.273-.2-.763-.565V9.768q.217-.1.708-.36a.608.608,0,0,1,.218-.1l.272.051c.362.069.6.018.708-.154q.109-.1-.218-1.13a1.212,1.212,0,0,1,.218-1.182q.6-.154,1.743-.411a3.047,3.047,0,0,0,.545-.36c.036-.171-.136-.462-.517-.873a4.019,4.019,0,0,0-1.225-.925H34.2a2.511,2.511,0,0,0-.98-.36,1.544,1.544,0,0,1-.327-.051,7.657,7.657,0,0,0-.871-1.233,1.063,1.063,0,0,1-.381-.257V2.371a.453.453,0,0,0,.136-.026,4.111,4.111,0,0,1,.409-.077H32.4q.38-.1,1.143-.257a2.587,2.587,0,0,0,.817-.205V1.7a.166.166,0,0,0-.109-.154.557.557,0,0,0-.381.051q-1.035.154-3.05.514H30.5q-.327.052-.871.1h-.109c-.182.034-.436.069-.762.1h-.6V2.268q1.143-.256,3.376-.822l.218-.052q.707-.1,2.015-.36a.938.938,0,0,0,.381-.308A4.184,4.184,0,0,0,33,.264,7.66,7.66,0,0,0,30.5.007c-.182,0-.435.018-.762.051a13.886,13.886,0,0,0-1.416.257h-.163q-4.194,1.13-5.173,3.339a1.127,1.127,0,0,0-.163.668,5.905,5.905,0,0,0,.708,1.644,11.741,11.741,0,0,1,.844,1.49,5.58,5.58,0,0,0,.245.616c0,.069-.109.18-.327.334a3.286,3.286,0,0,0-.654.642,11.361,11.361,0,0,0-1.307,2.261A4.81,4.81,0,0,0,22,13.262a1.172,1.172,0,0,0,.054.514c0,.069-.128.154-.381.257a8.566,8.566,0,0,0-1.362.771l-.163.154h-.926q-1.09,0-1.253.026l-.49.077h-.49q-.545,0-1.579.1h-.272a7.1,7.1,0,0,0-1.035.1l-.327.052a3.166,3.166,0,0,0-.654.1h-.272q-.654.1-1.906.411-1.852.617-1.852,1.387a1.359,1.359,0,0,0,.218.874v.051q-.327.052-.98.205a30.324,30.324,0,0,0-3.7,1.541,8.4,8.4,0,0,0-1.252,1.027q-.163.258-.327.565l-.109.205L2.45,22A4.812,4.812,0,0,0,1.579,22.818Zm5.827,5.7.272-.257a2.216,2.216,0,0,1,1.035.411l.163.411a2.7,2.7,0,0,1-.109,2.466q-.326.566-.708.617c-.073.034-.19,0-.354-.1a1.43,1.43,0,0,1-.463-.617,4.8,4.8,0,0,1-.381-1.233,2.668,2.668,0,0,1,.109-.565A4.813,4.813,0,0,1,7.406,28.52Zm4.139,5.7a3.477,3.477,0,0,1-1.8,1.182,4.423,4.423,0,0,1-3.267-.36,4.661,4.661,0,0,1-1.525-1.233,3.739,3.739,0,0,1-.871-1.284,10.144,10.144,0,0,1-.708-4.418,2,2,0,0,1,1.252-.257,6.661,6.661,0,0,1,1.307.1l.327.052a6.093,6.093,0,0,0,.708.1,4.456,4.456,0,0,0-.272.462,6.019,6.019,0,0,0-.218.565,3.974,3.974,0,0,0-.054,1.747A2.4,2.4,0,0,0,7.3,32.476a1.15,1.15,0,0,0,1.307.1,2.189,2.189,0,0,0,.98-1.85h.054a4.393,4.393,0,0,0,.272,1.284,3.367,3.367,0,0,0,1.362,1.028l.925.462A8.039,8.039,0,0,0,11.544,34.223Zm17.1-16.491h-.163a1.6,1.6,0,0,0-.327.051h-.327a3.567,3.567,0,0,1-.653.051c-.544,0-.8.018-.762.051-.073-.034-.073-.154,0-.36a4.425,4.425,0,0,1,.327-.976l.435-.874A2.376,2.376,0,0,1,28.753,14.5a2.436,2.436,0,0,1,.708-.206,2.462,2.462,0,0,0,.436-.051,7.927,7.927,0,0,1,1.416.1,1.343,1.343,0,0,1,.544.154v.051a.712.712,0,0,1-.381,0,3.652,3.652,0,0,0-.436.051h-.98q-.327.052-1.062.231t-.735.283a.2.2,0,0,0,.054.154,1.107,1.107,0,0,0,.545-.051,3.8,3.8,0,0,1,.49-.1l.272-.052a3.391,3.391,0,0,1,1.089-.1l.436.052a2.867,2.867,0,0,1,.654.257v.052c0,.069-.291.12-.872.154h-.272a4.748,4.748,0,0,0-.545.051H29.9a11.844,11.844,0,0,0-1.362.257,1,1,0,0,0-.6.257q-.055.052.054.154a1.2,1.2,0,0,0,.572-.051,11.278,11.278,0,0,1,1.225-.205h.163a2.588,2.588,0,0,1,1.634.257v.1a1.754,1.754,0,0,1-.708.051,2.523,2.523,0,0,0-.381-.051,7.669,7.669,0,0,0-2.4.514v.1a2.719,2.719,0,0,0,.654.18q.6.129,1.525.385l-.871.205C29.261,17.68,29.006,17.7,28.644,17.732Zm-2.124.514V18.3q0,.154-.436.462-.709-.051-.49-.719a2.882,2.882,0,0,1,.327-.411h.054v.36A.967.967,0,0,0,26.52,18.245ZM29.3,12.7a1.347,1.347,0,0,1-.054.617,1.267,1.267,0,0,1-.054.616,2.52,2.52,0,0,0-.6.206h-.109q0-1.9-.436-2.312a.918.918,0,0,0-.272-.257v-.051l.381-.1a2.42,2.42,0,0,1,1.089-.257q-.055,1.183-.109.976Q29.187,12.286,29.3,12.7Zm-1.253,1.336c0,.205.018.291.054.257l-.109.1a4.451,4.451,0,0,0-.517-.411,2.98,2.98,0,0,1-.626-.616q-.6-.821-.872-1.284-.382-.667-.327-.873a3.813,3.813,0,0,1,.816.411,3.515,3.515,0,0,1,1.2,1.027A2.769,2.769,0,0,1,28.045,14.033Zm-1.035.1a2.915,2.915,0,0,1,.545.411l-.49.462-.6,1.13a2.433,2.433,0,0,0-.98-.771,4.072,4.072,0,0,1-.762-.257,4.019,4.019,0,0,1-.708-.411q0-.1.572-.205t1.606-.257A4.083,4.083,0,0,0,27.01,14.135Zm3.05-2.518a1.338,1.338,0,0,1-.163-.565,2.047,2.047,0,0,1,1.143.36,1.174,1.174,0,0,1,.273.205q-.437,1.131-.926,2.261-.273-.05-.327,0a.227.227,0,0,1-.163-.051v-.462a2.861,2.861,0,0,1-.055-.462v-.154a1.563,1.563,0,0,0,.109-.308A1.624,1.624,0,0,0,30.06,11.618Zm5.391,2a3.662,3.662,0,0,0-2.56.257,2.256,2.256,0,0,0-.763.308,2.9,2.9,0,0,1-.381-.154,2.707,2.707,0,0,1,.681-.385,8.571,8.571,0,0,1,1.77-.591,1.562,1.562,0,0,0,.327-.051,2.8,2.8,0,0,1,1.688.514q.217.257.49.565a.142.142,0,0,0,.055.1H36.7a2.388,2.388,0,0,1-.49-.257A2.527,2.527,0,0,0,35.451,13.621Zm.653.668-.327.1q-1.09.258-3.158.925l-.327.154a.638.638,0,0,0-.327-.565,1.193,1.193,0,0,0,.327-.411A6.167,6.167,0,0,0,33,14.238a6.678,6.678,0,0,1,.98-.308l.327-.051a2.464,2.464,0,0,1,.708,0A5.852,5.852,0,0,1,36.1,14.289Zm-6.426,2.466c0,.069-.037.1-.109.1a.284.284,0,0,1-.327,0v-.051a1.679,1.679,0,0,0,.381-.051ZM45.144,30.729l.218.36q.326.771.98,2.363l.054.154q.109.258.273.668a3.412,3.412,0,0,1-.218.668q-.49,1.028-1.2,1.13c-.073.034-.2-.017-.381-.154a1.963,1.963,0,0,1-.817-.925,6.388,6.388,0,0,1-.327-.976v-.257a1.966,1.966,0,0,1,0-.925,10.251,10.251,0,0,1,.762-1.8q.217-.1.6-.308ZM51.3,36.894a4.442,4.442,0,0,1-2.723,2.928,6.392,6.392,0,0,1-.763.205l-.272.051a2.8,2.8,0,0,1-1.307,0h-.272a12.259,12.259,0,0,1-2.069-.411,6.5,6.5,0,0,1-3.54-2.877,12.674,12.674,0,0,1-.871-2.312,5.91,5.91,0,0,0-.109-.925l.055-.257a1.991,1.991,0,0,1,0-1.13v-.257a5.045,5.045,0,0,1,.054-.617l.054-.308q.054-.308.218-.976l.054-.36a3.043,3.043,0,0,1,1.307-1.644,1.724,1.724,0,0,1,1.307,0,4.863,4.863,0,0,1,2.287,1.952.887.887,0,0,1,.109.257l-.218.1a3.346,3.346,0,0,0-1.416,2.261,3.494,3.494,0,0,0,0,1.233,3.327,3.327,0,0,0,.109.719,3.544,3.544,0,0,0,.817,1.541,1.4,1.4,0,0,0,1.634.411,2.162,2.162,0,0,0,.98-.822,3.075,3.075,0,0,1,.327-.565,2,2,0,0,0,.762.668l.49.154q.108.154.3.385a1.6,1.6,0,0,0,.844.385h.327a1.532,1.532,0,0,0,.653-.051h.49a2.7,2.7,0,0,1,.49-.052A1.368,1.368,0,0,1,51.3,36.894ZM65.511,35.3c-.182.034-.435.069-.762.1l-.272.051q-.98.1-2.886.514a2.4,2.4,0,0,0-.435.077q-.327.077-.926.231a2.241,2.241,0,0,0-.708.154h-.054c0-.1-.01-.265-.027-.488s-.046-.573-.082-1.053a1.171,1.171,0,0,1,0-.514q1.252-.1,3.594-.514h.163a3.207,3.207,0,0,0,.708-.1h.327q.49-.1,1.47-.257h.272q.6-.05,1.688-.257a6.261,6.261,0,0,0,.708-.051H68.4v1.85a1.855,1.855,0,0,0-.654.1h-.327a2.5,2.5,0,0,0-.436.051h-.272a5.933,5.933,0,0,0-.926.1Zm5.99-.617a3.738,3.738,0,0,1-3.267,1.541,4.531,4.531,0,0,1-1.742-.36,2.549,2.549,0,0,0-.436-.206V35.61a15.973,15.973,0,0,0,1.96-.154,1.832,1.832,0,0,0,.762-.205c.036,0,.055-.085.055-.257v-.668q.544-.1,1.579-.308.217-.051.762-.154a7.683,7.683,0,0,1,.926-.205A3.02,3.02,0,0,1,71.5,34.685ZM70.031,18.6q4.3,0,5.554,3.493.109.566.327,1.644l.054.565a5.188,5.188,0,0,1,.054.976,6.074,6.074,0,0,1-.054,1.079v.257q-.055.462-.163,1.284a20.047,20.047,0,0,1-.544,2.415q-.927.1-2.723.411l-.218.052q-.327.052-.926.154H71.12q-.327.052-1.035.206a3.7,3.7,0,0,0-.544.051h-.109a1.33,1.33,0,0,1,.054-.308v-.257a2.061,2.061,0,0,1,.055-.411v-.257A2.25,2.25,0,0,1,69.6,29.5v-.36q0-.616.109-1.8V27.03q0,.154.054-.514l-.054-.1a5.265,5.265,0,0,1,.054-.668,2.768,2.768,0,0,0,0-.771,4.309,4.309,0,0,0-.054-.617v-.77a5.449,5.449,0,0,0-.054-.668v-.36q-.055-.565-.218-1.7l-.054-.308a15.331,15.331,0,0,0-.435-1.593.593.593,0,0,1-.109-.257C69.522,18.639,69.922,18.6,70.031,18.6Zm.054,13.152h.164a2.451,2.451,0,0,0,.435-.051h.164q1.089-.154,3.267-.514h.218a.938.938,0,0,0,.273-.051h.381a4.7,4.7,0,0,0,.49-.1,1.451,1.451,0,0,1,.49.051h.054q-.055.309-.98.771-.381.1-1.2.36l-3.267.77c-.109.034-.291.077-.544.129s-.654.111-1.2.18h-.055q0-.462-.163-.514a2.98,2.98,0,0,0-.545.051q-.49.052-1.47.206h-.327q-.98.1-2.941.462H63.17a3.148,3.148,0,0,0-.654.1h-.381l-.98.154-.327.051q-.382.052-1.089.154a2.465,2.465,0,0,0-.6.1.175.175,0,0,0-.163.1v.822a2.351,2.351,0,0,0-.708.1h-.381a1.587,1.587,0,0,0-.327.052h-.49a.952.952,0,0,0-.218.051h-.436a1.6,1.6,0,0,0-.327.051h-.381q-.545.052-1.579.205h-.381q-.98.052-2.56.257l-.381.051a1.8,1.8,0,0,1-.79-.077.4.4,0,0,1-.3-.539q.108-.462.98-.668a4.141,4.141,0,0,1,.436-.1q1.2-.1,3.54-.514h.163a3.894,3.894,0,0,0,.708-.1h.272q.981-.1,2.777-.411a3.878,3.878,0,0,0,.708-.1,3.213,3.213,0,0,0,.708-.1h.163q.272-.05.763-.1h.109q1.033-.1,2.886-.462h.327q.49-.051,1.47-.206L66,32.322q.653-.05,1.906-.257h.272Q68.833,31.963,70.086,31.757ZM58,30.935a1.617,1.617,0,0,1,.054-.616,10.237,10.237,0,0,0,1.8-.257h.327q1.634-.154,4.9-.668l.272-.051q.707-.051,1.96-.257a3.207,3.207,0,0,0,.708-.1c.073,0,.109.018.109.051a1.045,1.045,0,0,1,0,.668.819.819,0,0,1-.054.257q-.273.052-.79.129t-1.5.231h-.272c-.109.034-.291.086-.544.154h-.218a2.475,2.475,0,0,0-.6.1h-.218q-.927.1-2.614.411h-.272q-.327.052-.98.205h-.218q-.436.052-1.307.205a3.564,3.564,0,0,0-.49.051h-.109A1.423,1.423,0,0,1,58,30.935Zm-.054-1.747v-.36q1.144-.1,3.376-.462h.272q.272-.05.708-.154h.218q.49-.051,1.416-.205h.327q.38-.051,1.144-.206h.163q.544-.05,1.579-.257a4.273,4.273,0,0,0,.871-.1h.218a9.773,9.773,0,0,1-.054,1.182,16.763,16.763,0,0,0-1.8.257h-.164q-.926.1-2.723.36h-.218q-.219.052-.6.1h-.272l-.653.154h-.272c-.182.034-.435.069-.762.1h-.272q-.545.1-1.579.257a3.4,3.4,0,0,0-.762.1A.159.159,0,0,1,58,29.907,5.629,5.629,0,0,0,57.942,29.188ZM58,31.86q.653-.1,1.688-.308H59.9q.38-.05.98-.154h.273q1.2-.154,3.485-.565h.272c.145-.034.327-.068.545-.1h.163q.49-.05,1.47-.257a4.09,4.09,0,0,0,.817-.1h.163a2.32,2.32,0,0,1-.055.565.612.612,0,0,1,0,.36.381.381,0,0,1-.054.154q-1.307.154-3.921.565h-.218q-.382.052-1.089.206h-.272q-.545.052-1.525.205l-.273.051q-1.2.154-2.559.36h-.218A1.445,1.445,0,0,1,58,31.86ZM41.5,14.033h.218a2.252,2.252,0,0,1,.272-.1H42.2l1.144-.154a4.122,4.122,0,0,0,.925,0q1.634,0,1.961.052h.272a1.577,1.577,0,0,1,.872.051h.6q.544,0,1.634.1h.708q.543,0,1.525.1h.6a.791.791,0,0,0,.327.052h.327q.6.052,1.8.205h.436q.544.052,1.579.257h.218q.435.052,1.2.206l.163.051q2.014.514,3.976,1.079a12.282,12.282,0,0,1,3.7,1.8,4.2,4.2,0,0,1,1.361,2.158q.163.924.49,2.723v.206q.054.36.109,1.079V24.2a5.817,5.817,0,0,1,.054.925q0,.1.054.976v.719a.287.287,0,0,1-.054.205q-.763.1-2.015.308l-.272.052a5.473,5.473,0,0,0-1.035.154h-.272q-1.09.1-3.213.462h-.327l-.654.154H60.12q-.545.052-1.525.206a1.9,1.9,0,0,0-.545.1.227.227,0,0,1-.163-.051,11.661,11.661,0,0,0-.164-1.387l-.054-.205q-.055-.256-.163-.719V25.9l-.327-1.079a7.584,7.584,0,0,0-2.5-3.391,17.078,17.078,0,0,0-3.594-1.284,3.427,3.427,0,0,1-.49-.051q-.763-.1-2.179-.36h-.218c-.182-.034-.435-.068-.762-.1l-.381-.051a6.822,6.822,0,0,1-.98-.1h-.762a19.912,19.912,0,0,1-2.069-.154q-.49,0-1.253-.051h-4.03a13.15,13.15,0,0,0-1.634.051l-1.307.051a8.264,8.264,0,0,0-1.525.052,1.171,1.171,0,0,1-.49,0q-.273-.1,0-.873a3.286,3.286,0,0,1,1.307-1.8Q35.887,15.676,41.5,14.033Zm-4.3.462a1.8,1.8,0,0,1,.381-.1h.218q-.436.154-1.252.411a9.727,9.727,0,0,0-4.03,2.517,2.842,2.842,0,0,0-.6,1.182l-.054.205a.722.722,0,0,0,0,.565.391.391,0,0,1-.054.257q-.437,0-1.2.051h-.381a3.222,3.222,0,0,1-.6.051q-.872.052-.762.051h-.055a2.268,2.268,0,0,1,.327-1.644,9.457,9.457,0,0,0,1.2-.1,1.344,1.344,0,0,1,.327-.308q.054-.359-.545-.668A2.1,2.1,0,0,1,30.5,16.7a1.7,1.7,0,0,1,.6,0H31.2a1.33,1.33,0,0,0,.708-.231c.145-.12.19-.231.136-.334s.008-.188.19-.257A32.114,32.114,0,0,1,36.05,14.7C36.3,14.667,36.685,14.6,37.194,14.5ZM45.2,9.589l-.163.077-.49.205a4.4,4.4,0,0,1-3.431-.051.751.751,0,0,1,.109-.308q.326.1.871.257a4.009,4.009,0,0,0,2.342-.206q.272-.1.708-.308H45.2l.163.154C45.362,9.478,45.308,9.537,45.2,9.589Zm-3.159-.8.654.154a1.888,1.888,0,0,0,.436-.052l.435-.051a2.961,2.961,0,0,0,1.035-.36.588.588,0,0,0,.218.205,1.9,1.9,0,0,1-.654.36,3.576,3.576,0,0,1-2.668-.1,2.33,2.33,0,0,1,.163-.257Zm-.109-.668a.866.866,0,0,1,.109-.257q.272.052.708.154A1.524,1.524,0,0,0,44,7.816h.055l.163.154c0,.069-.145.137-.436.205A2.262,2.262,0,0,1,41.932,8.124Zm4.465-5.6h.055A4.814,4.814,0,0,1,47.6,4.58c.036.172.072.411.109.719a.209.209,0,0,1,0,.205h-.163a.427.427,0,0,1-.163-.051,3.4,3.4,0,0,0-.109-.719,5.334,5.334,0,0,0-.6-1.439q-.163-.2-.49-.565A.6.6,0,0,0,46.4,2.524Zm-.708.565h.054q.272.36.762,1.182l.218.617a2.49,2.49,0,0,0,.027.308c.018.137.008.223-.027.257-.073,0-.109-.017-.109-.051h-.163q-.11-.411-.327-1.233a2.96,2.96,0,0,0-.6-.874A1.575,1.575,0,0,0,45.689,3.09Zm-.653.565h.054a4.558,4.558,0,0,1,.6.822q.109.36.218.719V5.4a.794.794,0,0,1-.327-.051,2.812,2.812,0,0,0-.708-1.49C44.872,3.826,44.927,3.758,45.036,3.655ZM41.6,3.141a.489.489,0,0,1,.109.257,2.008,2.008,0,0,0-.681.514q-.19.256-.406.51c-.021-.006-.112-.022-.275-.048a1.287,1.287,0,0,1,.245-.462,2.094,2.094,0,0,1,.681-.617,2.482,2.482,0,0,0,.272-.154Zm-.272-.873a.787.787,0,0,0,.054.205l-.6.411a2.892,2.892,0,0,0-1.035,1.284.859.859,0,0,1-.327-.1,3.734,3.734,0,0,1,.436-.668,3.652,3.652,0,0,1,.817-.822q.217-.1.6-.308Zm-2.559.925a4.946,4.946,0,0,1,1.96-1.644.616.616,0,0,1,.218-.1h.055a.566.566,0,0,1,.109.205c0,.034-.091.086-.273.154A5.833,5.833,0,0,0,38.773,3.86a.543.543,0,0,1-.273-.1A1.371,1.371,0,0,1,38.773,3.192ZM36.812,7.1l.055-.565q.108-.617.327-1.439l.163-.1c.036,0,.036.12,0,.36a1.8,1.8,0,0,0,.055.822q.054.257,0,.308c0,.034-.073.12-.218.257s-.2.24-.163.308c0,.034.054.086.163.154a2.188,2.188,0,0,0,.409-.334,4.1,4.1,0,0,1,.626-.488q.327-.2.49-.1a1.072,1.072,0,0,1-.19.694,7.42,7.42,0,0,1-.626.925,1.922,1.922,0,0,0-.381.591,5.005,5.005,0,0,1,.708.36,1.611,1.611,0,0,1,.463.8q.19.592.136.642a.872.872,0,0,1-.327.257.582.582,0,0,1-.272.206.529.529,0,0,1-.327,0h-.218a1.035,1.035,0,0,1-.817-.822.311.311,0,0,1,0-.257V8.895c0-.171-.019-.428-.055-.771A2.438,2.438,0,0,1,36.812,7.1Zm-4.52,5.548a.853.853,0,0,0,.708-.1q.6-.462,1.852-1.336a2.486,2.486,0,0,0,.708-.617c.036,0,.109.069.218.205a2.161,2.161,0,0,0,1.144.976,1.416,1.416,0,0,1,.49.1h.327q.217.822-.817,1.8-.218-.2-.572-.488a3.2,3.2,0,0,0-1.171-.488,2.418,2.418,0,0,0-1.089.051,3.564,3.564,0,0,0-.49.051,7.653,7.653,0,0,0-2.287,1.028l-.109.1h-.109a1.111,1.111,0,0,1,.163-.308q.163-.256.49-.719a.8.8,0,0,1,.218-.308A3.083,3.083,0,0,1,32.293,12.645Zm-.164-2.209v.154a1.382,1.382,0,0,0-.272.36L31.748,11a1.111,1.111,0,0,1-.218.257,1.964,1.964,0,0,0-1.089-.462q0-.051.327-.308.6-.411.708-.462h.055A5.9,5.9,0,0,0,32.129,10.436ZM24.451,5.556a.8.8,0,0,0-.109-.36c0-.1.1-.2.3-.283s.39-.162.572-.231h.272a3.059,3.059,0,0,1,.98.1,2.674,2.674,0,0,0,1.47,0,1.309,1.309,0,0,0,.436-.1l.109-.1a.293.293,0,0,0-.109-.205,3.029,3.029,0,0,0-.409.051,5.284,5.284,0,0,1-.844.051h-.327a3.938,3.938,0,0,0-2.015,0,2.455,2.455,0,0,0-.436.206.158.158,0,0,1-.109-.052l-.054-.36c0-.068.127-.136.381-.205a4.049,4.049,0,0,1,.436-.1l.6-.051q.163,0,.409.026l.68.077a4.532,4.532,0,0,1,.6.206,1.737,1.737,0,0,0,.817-.1c.29-.1.453-.239.49-.411a.145.145,0,0,0,.055-.1c-.036-.034-.073-.068-.109-.1s-.145.018-.327.154a1,1,0,0,1-.653.206,7.758,7.758,0,0,1-.872-.206,3.758,3.758,0,0,0-1.742,0,2.741,2.741,0,0,0-.763.154.158.158,0,0,1-.109-.051,1.411,1.411,0,0,1,.218-.36A7.215,7.215,0,0,1,28.535.932,12.678,12.678,0,0,0,29.842.675h.327a9.257,9.257,0,0,1,1.2-.051h.6c.253.034.654.086,1.2.154-.218.034-.482.077-.789.128s-.718.128-1.226.231a3.775,3.775,0,0,1-.436.1q-.98.206-2.777.719-.708.258-2.069.822-.163.1-.544.308c0,.069.008.112.027.128l.136.128a1.149,1.149,0,0,0,.436-.205,3.267,3.267,0,0,1,.953-.308q.409-.05,1.28-.154h.381a5.484,5.484,0,0,1,.817-.051c0,.069-.064.163-.191.282a.578.578,0,0,0-.19.437c.109.1.2.137.272.1a4.557,4.557,0,0,1,.436-.565,2.288,2.288,0,0,1,1.416-.411,2.507,2.507,0,0,1,.517.36,3.045,3.045,0,0,1,.572.694,2.634,2.634,0,0,1,.272.488.551.551,0,0,0-.272.1c-.037,0-.146-.136-.327-.411q-.218-.256-.653-.719-.11-.1-.327-.308a.694.694,0,0,0-.381.154,7.1,7.1,0,0,0,.762,1.182,1.69,1.69,0,0,0,.327.462l-.6.36q-.327.154-.98.514a1.692,1.692,0,0,0-.381.36.236.236,0,0,0,.163.257q.108.052.653-.257a7.74,7.74,0,0,1,.926-.411,3.852,3.852,0,0,0,1.144-.463.78.78,0,0,1-.109-.36c.036-.1.163-.154.381-.154q.38.258.926.617a8.811,8.811,0,0,1,.926.925,2.323,2.323,0,0,1-.572.18,7.415,7.415,0,0,0-1.117.385,1.548,1.548,0,0,0-.109.308,2.136,2.136,0,0,0-.163,1.182,1.683,1.683,0,0,1,.109.719v.051a2.809,2.809,0,0,1-.762,0L31.8,8.638a.55.55,0,0,0-.272.1q-.055.206.6.411c0,.034-.073.086-.218.154q-.382.258-1.416.925-.218.154-.6.411a8.639,8.639,0,0,0-1.852.411l-.762.206a1.352,1.352,0,0,1-.49-.257,1.873,1.873,0,0,1-.762-.822V9.871a7.883,7.883,0,0,0-.163-1.336,8.7,8.7,0,0,0-.6-1.336Q24.831,6.378,24.451,5.556ZM24.07,9.768q.544-.719.654-.822c.072.034.109.205.109.514a2.484,2.484,0,0,0-.327.36,1.926,1.926,0,0,0,.109,1.233,5.651,5.651,0,0,0,.871,1.747,3.456,3.456,0,0,0,.545.617v.051H23.579a4.163,4.163,0,0,0-.49.154.165.165,0,0,0-.109-.051A6.274,6.274,0,0,1,24.07,9.768ZM20.8,16.242q.762-1.746,3.812-2.466a.515.515,0,0,0,.327,0h.817l.327.1h-.327a13.433,13.433,0,0,0-1.96.462,1.5,1.5,0,0,1-.272.411c0,.1.2.24.6.411s.907.411,1.525.719q.217.258.653.719a2.563,2.563,0,0,1-.218.514,2.542,2.542,0,0,0-1.252.745.762.762,0,0,0-.164.8,3.476,3.476,0,0,1,.436.514,5.656,5.656,0,0,1-.817.257l-.272.051a4.719,4.719,0,0,1-.981.1,2.221,2.221,0,0,1-2.4-1.593A2.265,2.265,0,0,1,20.8,16.242Zm-1.579,2.106a2.91,2.91,0,0,0,1.253,1.747,3.039,3.039,0,0,0,1.579.36,7.718,7.718,0,0,0,2.886-.616,2.678,2.678,0,0,0,.6-.257l.109-.1a.627.627,0,0,0,.272.052.963.963,0,0,0,.653-.514q.217-.411.436-.77c.253-.034.654-.068,1.2-.1l.381-.051h.055a2.1,2.1,0,0,1-.082.334l-.082.282s-.019.137-.055.411v.617a4.893,4.893,0,0,0-.6.411,2.924,2.924,0,0,0-.98,1.233,4.586,4.586,0,0,0-.055.976,15.09,15.09,0,0,0,.055,1.747v.257c.036.172.072.411.109.719v.154a4.122,4.122,0,0,0,.109.822v.308q.108,1.079.49,3.134l.054.308q.053.462.218,1.438a3.978,3.978,0,0,0,.054.565v.205q-.109.206-.653.1a15.471,15.471,0,0,1-1.8-.154h-.708q-.545,0-1.525-.1h-.381a3.586,3.586,0,0,1-.544-.051h-.436a4.111,4.111,0,0,0-.435-.1h-.436a3.431,3.431,0,0,1-.49-.051h-.327a18.46,18.46,0,0,1-2.015-.154l-.49-.052a10.518,10.518,0,0,1-1.525-.154,2.327,2.327,0,0,1-.654-.257,2.878,2.878,0,0,0-.163-.514v-.257q-.218-1.387-.763-4.11V24.513a4.156,4.156,0,0,1,.817-1.439,4,4,0,0,1,.763-.616q.217-.205.544-.462h.6q.544-.051,1.579-.206h.381l1.144-.154.327-.052q1.36-.1,3.975-.565a14.47,14.47,0,0,0,1.525-.257,3.084,3.084,0,0,0,.872-.205q.108-.667-.872-.668a2.237,2.237,0,0,0-1.144.257c-.073.1-.182.275-.327.514q-.817.1-2.505.36l-.272.051a3.951,3.951,0,0,0-.708.1h-.163q-.6.052-1.743.257H19.06a9.354,9.354,0,0,0-1.416.154h-.763l.109-.308v-.565a6.6,6.6,0,0,1,.272-2.569l.708-.051h1.2A.793.793,0,0,0,19.223,18.348Zm5.99,2.209q0-.154.653-.308h.272a1.772,1.772,0,0,1,.49.051l-.055.052q-.436.052-.871.128C25.413,20.531,25.249,20.557,25.213,20.557Zm-8.822-3.134q.163-.051.871-.257a1.986,1.986,0,0,0,.762-.051,2.908,2.908,0,0,1,.817.051h.218q.053.206,0,.257H17.48a2.239,2.239,0,0,0-.708.051h-.381ZM4.084,21.277a4.957,4.957,0,0,1,2.342-1.593q.108-.05,3.05-.77a2.577,2.577,0,0,1,.49-.1,2.35,2.35,0,0,0,.354.257,6.666,6.666,0,0,0,1.552.411,5.708,5.708,0,0,0,2.287.052c.145-.034.327-.068.545-.1h.272q1.034-.2,1.035-.36a1.024,1.024,0,0,0-.163-.385c-.109-.188-.128-.334-.055-.437a2.274,2.274,0,0,1,.272-.1.771.771,0,0,1,.381.051,4.031,4.031,0,0,1-.327,2.98,1.919,1.919,0,0,1-.381.462,1.32,1.32,0,0,1-.762,0,14.178,14.178,0,0,1-1.743-.154h-.653q-.6,0-1.8-.1h-.653a5.163,5.163,0,0,0-.926-.051H8.822a2.552,2.552,0,0,0-.763-.051,4.464,4.464,0,0,0-1.034.051H6.48a2.7,2.7,0,0,0-.49.051H5.609a6.546,6.546,0,0,0-1.008.1c-.418.069-.663.1-.735.1A1.032,1.032,0,0,1,4.084,21.277Z" transform="matrix(0.996, -0.087, 0.087, 0.996, 3.977, 12.972)" fill="#242a39"/>
      <path id="_8726174_rupee_sign_icon" data-name="8726174_rupee_sign_icon" d="M1.711.57H1.4A.782.782,0,0,0,1.254.285h.457a.143.143,0,1,0,0-.285H.144a.143.143,0,1,0,0,.285h.5A.5.5,0,0,1,1.091.57H.144a.143.143,0,1,0,0,.285h1a.5.5,0,0,1-.492.428H.124a.093.093,0,0,0-.029,0A.1.1,0,0,0,.068,1.3l-.017.01h0a.107.107,0,0,0-.02.024.157.157,0,0,0-.013.02.087.087,0,0,0,0,.026A.093.093,0,0,0,0,1.425H0a.1.1,0,0,0,0,.02.093.093,0,0,0,0,.029A.1.1,0,0,0,.015,1.5a.021.021,0,0,0,.01.017l.855,1A.143.143,0,0,0,1.1,2.33L.454,1.568H.642A.784.784,0,0,0,1.426.855h.285a.143.143,0,1,0,0-.285Z" transform="matrix(0.978, -0.208, 0.208, 0.978, 46.214, 13.692)" fill="#fff"/>
      <path id="Path_2667" data-name="Path 2667" d="M29.27,19.021C47.633,9.507,64.684,17.341,64.684,35.2A32.344,32.344,0,0,1,32.34,67.547C14.477,67.547.764,47.335,0,35.2S10.907,28.534,29.27,19.021Z" transform="translate(-1.995 6.178)" opacity="0.1" fill="url(#linear-gradient)"/>
    </g>
  </g>
</svg>
