<svg xmlns="http://www.w3.org/2000/svg" width="31.4" height="24.545" viewBox="0 0 31.4 24.545">
  <g id="cash-outline" transform="translate(-31.213 -79.241)">
    <rect id="Rectangle_2495" data-name="Rectangle 2495" width="30" height="17" rx="2" transform="translate(61.913 97.008) rotate(180)" fill="none" stroke="#fff" stroke-linejoin="round" stroke-width="1.4"/>
    <path id="Path_2513" data-name="Path 2513" d="M64,384H89.249M66.1,387.156H87.145" transform="translate(-29.896 -284.07)" fill="none" stroke="#fff" stroke-linecap="round" stroke-linejoin="round" stroke-width="1.4"/>
    <circle id="Ellipse_693" data-name="Ellipse 693" cx="5.5" cy="5.5" r="5.5" transform="translate(40.913 83.008)" fill="none" stroke="#fff" stroke-linecap="round" stroke-linejoin="round" stroke-width="1.4"/>
    <path id="Path_2514" data-name="Path 2514" d="M61.457,85.26A5.26,5.26,0,0,1,56.2,80M32,85.26A5.26,5.26,0,0,0,37.26,80m24.2,11.572a5.26,5.26,0,0,0-5.26,5.26M32,91.572a5.26,5.26,0,0,1,5.26,5.26" transform="translate(0 -0.059)" fill="none" stroke="#fff" stroke-linecap="round" stroke-linejoin="round" stroke-width="1.4"/>
  </g>
</svg>
