<svg xmlns="http://www.w3.org/2000/svg" width="54.934" height="44.699" viewBox="0 0 54.934 44.699">
  <g id="creditscore-mob" transform="translate(-393.701 -1144.107)">
    <g id="Group_3803" data-name="Group 3803" transform="translate(435.456 1144.829)">
      <line id="Line_109" data-name="Line 109" y1="2.79" x2="3.348" transform="translate(1.108 1.145) rotate(-20)" fill="none" stroke="#242a39" stroke-linecap="round" stroke-width="0.8"/>
      <line id="Line_110" data-name="Line 110" y1="2.371" x2="0.837" transform="translate(0 0.955) rotate(-20)" fill="none" stroke="#242a39" stroke-linecap="round" stroke-width="0.8"/>
      <path id="Path_1299" data-name="Path 1299" d="M0,.837,2.988,0" transform="translate(3.114 3.903) rotate(-20)" fill="none" stroke="#242a39" stroke-linecap="round" stroke-width="0.8"/>
    </g>
    <g id="speedometer-svgrepo-com" transform="matrix(0.974, -0.225, 0.225, 0.974, 393.701, 1155.076)">
      <path id="Path_1309" data-name="Path 1309" d="M40.861,6.463A22.755,22.755,0,0,0,24.424,0,24.1,24.1,0,0,0,7.506,6.7,23.346,23.346,0,0,0,0,22.9a1.445,1.445,0,0,0,.411,1.06,1.487,1.487,0,0,0,1.063.451H6.832a17.439,17.439,0,0,0,1.924,7.281c.588,1.134,9.079,2.93,16.78,2.928,7.173,0,13.555-1.8,14.14-2.927A17.439,17.439,0,0,0,41.6,24.408l5.611-.337a1.535,1.535,0,0,0,1.063-.5c.278-.287-.044-1.481-.057-1.877C48.013,15.4,45.4,10.861,40.861,6.463ZM38.413,31.037c-.439.848-6.754,2.426-13.661,2.452-6.825.026-14.807-1.372-15.273-2.273C8.3,28.935,8.238,26.286,8.238,23.7c0,0,.506,10.045-.172.3S15.573,7.294,24.383,7.294a15.86,15.86,0,0,1,10.159,4.22l-9.207,7.041a5.266,5.266,0,1,0,4.024,4.024L36.4,13.371a15.97,15.97,0,0,1,2.014,17.665ZM26.882,19.162,37.21,10.751,28.751,21.031A5.3,5.3,0,0,0,26.882,19.162Zm1.793,4.713c0,2.118-2.313,3.891-4.431,3.891a4.046,4.046,0,0,1-4.109-3.8,4.606,4.606,0,0,1,4.157-4.364A4.728,4.728,0,0,1,28.675,23.875ZM47,22.968a.057.057,0,0,1-.041.018H41.6a17.327,17.327,0,0,0-4.32-10.768l1.913-2.5a.711.711,0,0,0-1-1l-2.5,1.913A17.39,17.39,0,0,0,6.831,22.986H1.475a.058.058,0,0,1-.041-.018c-.012-.012-.367-.925-.367-.928.115-3.556,1.4-6.069,3.045-9.128l1.352.781a.711.711,0,1,0,.711-1.232l-1.351-.78a24.2,24.2,0,0,1,3.5-4.571,21.815,21.815,0,0,1,3.878-2.8l.78,1.35a.711.711,0,1,0,1.232-.711l-.78-1.351A22.684,22.684,0,0,1,23.5.9V2.456a.711.711,0,1,0,1.422,0V.9A22.77,22.77,0,0,1,35.1,3.251l-.876,1.695a.711.711,0,1,0,1.232.711l.78-1.35A16.724,16.724,0,0,1,40.5,7.32a17.357,17.357,0,0,1,3.106,4.36l-1.351.78a.711.711,0,1,0,.711,1.232l1.352-.781a22.69,22.69,0,0,1,2.69,10.032A.031.031,0,0,1,47,22.968Z" transform="translate(0 0)" fill="#242a39"/>
      <path id="Path_1310" data-name="Path 1310" d="M0,.711a.711.711,0,0,0,.711.711.807.807,0,0,1,.806.806.711.711,0,0,0,1.422,0A2.231,2.231,0,0,0,.711,0,.711.711,0,0,0,0,.711Z" transform="translate(23.505 21.468)" fill="#242a39"/>
    </g>
  </g>
</svg>
