<svg xmlns="http://www.w3.org/2000/svg" xmlns:xlink="http://www.w3.org/1999/xlink" width="70.838" height="61.221" viewBox="0 0 70.838 61.221"><defs><linearGradient id="a" x1="0.2" y1="0.152" x2="0.603" y2="1" gradientUnits="objectBoundingBox"><stop offset="0" stop-color="#9e8bff"/><stop offset="1" stop-color="#5775ff"/></linearGradient></defs><g transform="translate(-384.133 -1144.184)"><g transform="translate(384.133 1158.979)"><path d="M25.827,18.542c16.206-8.4,31.254-1.483,31.254,14.282A28.545,28.545,0,0,1,28.537,61.368C12.772,61.368.669,43.53-.008,32.824S9.621,26.938,25.827,18.542Z" transform="translate(0.039 -14.942)" opacity="0.1" fill="url(#a)"/></g><g transform="translate(440.188 1144.907)"><line y1="3.129" x2="3.755" transform="translate(1.243 1.284) rotate(-20)" fill="none" stroke="#242a39" stroke-linecap="round" stroke-width="0.8"/><line y1="2.66" x2="0.939" transform="translate(0 1.071) rotate(-20)" fill="none" stroke="#242a39" stroke-linecap="round" stroke-width="0.8"/><path d="M0,.939,3.351,0" transform="translate(3.493 4.378) rotate(-20)" fill="none" stroke="#242a39" stroke-linecap="round" stroke-width="0.8"/></g><g transform="matrix(0.974, -0.225, 0.225, 0.974, 393.35, 1156.401)"><path d="M45.836,7.249A25.525,25.525,0,0,0,27.4,0,27.031,27.031,0,0,0,8.42,7.516,26.188,26.188,0,0,0,0,25.684a1.621,1.621,0,0,0,.461,1.189,1.668,1.668,0,0,0,1.192.506H7.663a19.562,19.562,0,0,0,2.158,8.168c.659,1.272,10.184,3.287,18.823,3.285,8.046,0,15.205-2.016,15.862-3.283a19.562,19.562,0,0,0,2.159-8.169L52.958,27a1.722,1.722,0,0,0,1.193-.556c.312-.322-.049-1.661-.064-2.106C53.858,17.27,50.922,12.183,45.836,7.249ZM43.089,34.815c-.493.951-7.576,2.721-15.324,2.75-7.656.029-16.609-1.539-17.132-2.549-1.325-2.558-1.391-5.53-1.392-8.432,0,0,.568,11.268-.193.338s8.422-18.74,18.3-18.74c4.412,0,8.27,2.08,11.4,4.734l-10.328,7.9a5.907,5.907,0,1,0,4.513,4.513L40.83,15a17.914,17.914,0,0,1,2.259,19.816ZM30.155,21.495,41.74,12.06,32.251,23.591A5.946,5.946,0,0,0,30.155,21.495Zm2.011,5.287c0,2.375-2.595,4.364-4.97,4.364a4.538,4.538,0,0,1-4.609-4.258c0-2.375,2.288-4.9,4.663-4.9A5.3,5.3,0,0,1,32.166,26.781ZM52.72,25.764a.064.064,0,0,1-.046.02H46.665A19.436,19.436,0,0,0,41.82,13.7L43.966,10.9A.8.8,0,0,0,42.848,9.78l-2.807,2.146A19.507,19.507,0,0,0,7.663,25.784H1.655a.065.065,0,0,1-.046-.02C1.6,25.75,1.2,24.726,1.2,24.722c.129-3.989,1.571-6.808,3.416-10.239l1.517.876a.8.8,0,1,0,.8-1.382L5.413,13.1A27.147,27.147,0,0,1,9.335,7.975a24.47,24.47,0,0,1,4.35-3.144l.874,1.515a.8.8,0,1,0,1.382-.8l-.875-1.515a25.446,25.446,0,0,1,11.3-3.019V2.755a.8.8,0,1,0,1.6,0V1.013A25.542,25.542,0,0,1,39.369,3.647l-.983,1.9a.8.8,0,1,0,1.382.8l.874-1.515a18.76,18.76,0,0,1,4.788,3.381A19.47,19.47,0,0,1,48.915,13.1l-1.515.875a.8.8,0,1,0,.8,1.382l1.517-.876a25.453,25.453,0,0,1,3.018,11.253.035.035,0,0,1-.013.028Z" transform="translate(0 0)" fill="#242a39"/><path d="M0,.8a.8.8,0,0,0,.8.8.905.905,0,0,1,.9.9.8.8,0,0,0,1.6,0A2.5,2.5,0,0,0,.8,0,.8.8,0,0,0,0,.8Z" transform="translate(26.366 24.082)" fill="#242a39"/></g></g></svg>