<svg xmlns="http://www.w3.org/2000/svg" xmlns:xlink="http://www.w3.org/1999/xlink" width="96.723" height="96.723" viewBox="0 0 96.723 96.723">
  <defs>
    <linearGradient id="linear-gradient" x1="0.193" y1="0.125" x2="0.669" y2="0.953" gradientUnits="objectBoundingBox">
      <stop offset="0" stop-color="#9e8bff"/>
      <stop offset="1" stop-color="#5775ff"/>
    </linearGradient>
    <clipPath id="clip-path">
      <path id="Shape" d="M2.53,3.994H.286a.285.285,0,0,1-.219-.468L2.919.1a.285.285,0,0,1,.5.218L3.176,2.283H5.42a.285.285,0,0,1,.219.468L2.787,6.173a.285.285,0,0,1-.5-.218Z" transform="translate(0 0)" fill="#fff"/>
    </clipPath>
  </defs>
  <g id="creditscore-meter" transform="translate(-114.733 -633.665)">
    <path id="Path_196" data-name="Path 196" d="M47.7,0C74.041,0,95.4,21.562,95.4,48.16v.4c0,26.6-21.355,48.16-47.7,48.16S0,75.161,0,48.563v-.4C0,21.562,21.355,0,47.7,0Z" transform="translate(115.396 633.665)" fill="url(#linear-gradient)"/>
    <g id="Group_3570" data-name="Group 3570" transform="translate(114.733 633.665)">
      <g id="Status" transform="translate(9.57 9.57)">
        <g id="Ellipse_578" data-name="Ellipse 578" transform="translate(0 0)" fill="none" stroke="#fff" stroke-width="1">
          <ellipse cx="39.036" cy="39.036" rx="39.036" ry="39.036" stroke="none"/>
          <ellipse cx="39.036" cy="39.036" rx="38.536" ry="38.536" fill="none"/>
        </g>
      </g>
      <g id="Center" transform="translate(37.826 31.688)">
        <path id="STEPS" d="M-14.962-3.551v-.617h-1.7V-5.182h1.526v-.591h-1.526v-.983h1.7v-.617h-2.373v3.821Zm1.082,0,.544-.852.549.852h.732l-.852-1.275.878-1.307h-.716l-.549.878-.57-.878h-.742l.889,1.317-.889,1.265Zm3.272.068a1.156,1.156,0,0,0,1.254-.9h-.591c-.073.246-.3.382-.653.382a.662.662,0,0,1-.711-.685L-9.364-4.7v-.193a1.21,1.21,0,0,0-1.265-1.322,1.269,1.269,0,0,0-1.286,1.369A1.277,1.277,0,0,0-10.608-3.483Zm-.016-2.206A.573.573,0,0,1-10-5.1h-1.3A.627.627,0,0,1-10.624-5.689Zm2.415,2.138V-7.44h-.632v3.889Zm1.312,0V-7.44H-7.53v3.889Zm1.824.068a1.156,1.156,0,0,0,1.254-.9H-4.41c-.073.246-.3.382-.653.382a.662.662,0,0,1-.711-.685L-3.829-4.7v-.193A1.21,1.21,0,0,0-5.094-6.212,1.269,1.269,0,0,0-6.38-4.842,1.277,1.277,0,0,0-5.073-3.483Zm-.016-2.206a.573.573,0,0,1,.627.591h-1.3A.627.627,0,0,1-5.089-5.689ZM-2.68-3.551v-1.39a.618.618,0,0,1,.632-.69c.329,0,.544.209.544.643v1.437h.638V-5.14c0-.669-.335-1.071-.983-1.071a.952.952,0,0,0-.826.413l-.052-.335h-.591v2.582Zm3.319,0V-5.6h.5v-.533h-.5v-.8H0v.8h-.5V-5.6H0v2.049Z" transform="translate(19.342 33.052)" fill="#fff"/>
        <path id="_5_901" data-name="5,901" d="M-12.832-10.153a2.353,2.353,0,0,1,.945.808,2.056,2.056,0,0,1,.327,1.152A2.16,2.16,0,0,1-12-6.844a2.807,2.807,0,0,1-1.236.891,4.984,4.984,0,0,1-1.842.315,4.937,4.937,0,0,1-1.836-.315,2.768,2.768,0,0,1-1.224-.891,2.18,2.18,0,0,1-.434-1.348,2.056,2.056,0,0,1,.327-1.152,2.37,2.37,0,0,1,.933-.808,2.029,2.029,0,0,1-.713-.719,1.953,1.953,0,0,1-.249-.992,2.03,2.03,0,0,1,.4-1.259,2.578,2.578,0,0,1,1.129-.826,4.436,4.436,0,0,1,1.663-.291,4.518,4.518,0,0,1,1.681.291,2.574,2.574,0,0,1,1.135.826,2.03,2.03,0,0,1,.4,1.259,1.953,1.953,0,0,1-.249.992A2,2,0,0,1-12.832-10.153Zm-2.245-2.673a1.454,1.454,0,0,0-.933.279.926.926,0,0,0-.35.766.9.9,0,0,0,.345.748,1.471,1.471,0,0,0,.939.273,1.522,1.522,0,0,0,.95-.273.892.892,0,0,0,.356-.748.92.92,0,0,0-.356-.766A1.5,1.5,0,0,0-15.077-12.826Zm0,5.774a1.826,1.826,0,0,0,1.146-.327,1.049,1.049,0,0,0,.422-.873,1.033,1.033,0,0,0-.422-.867,1.851,1.851,0,0,0-1.146-.321,1.8,1.8,0,0,0-1.129.321,1.038,1.038,0,0,0-.416.867,1.05,1.05,0,0,0,.416.879A1.8,1.8,0,0,0-15.077-7.052Zm10.609-.3v1.568h-6.285V-7.028l3.208-3.03a3.407,3.407,0,0,0,.689-.838,1.524,1.524,0,0,0,.178-.7.919.919,0,0,0-.339-.766,1.576,1.576,0,0,0-.992-.267,2.278,2.278,0,0,0-.986.208,1.888,1.888,0,0,0-.737.624l-1.4-.9A3.289,3.289,0,0,1-9.79-13.83a4.484,4.484,0,0,1,1.96-.41,4.03,4.03,0,0,1,1.622.3,2.5,2.5,0,0,1,1.081.855,2.213,2.213,0,0,1,.386,1.3,2.9,2.9,0,0,1-.285,1.271,4.894,4.894,0,0,1-1.1,1.354L-8.044-7.349ZM-.131-5.638a3.372,3.372,0,0,1-1.842-.511A3.428,3.428,0,0,1-3.238-7.628,5.369,5.369,0,0,1-3.7-9.939a5.369,5.369,0,0,1,.457-2.311,3.428,3.428,0,0,1,1.265-1.479A3.372,3.372,0,0,1-.131-14.24a3.372,3.372,0,0,1,1.842.511A3.428,3.428,0,0,1,2.976-12.25a5.369,5.369,0,0,1,.457,2.311,5.369,5.369,0,0,1-.457,2.311A3.428,3.428,0,0,1,1.71-6.149,3.372,3.372,0,0,1-.131-5.638Zm0-1.628a1.36,1.36,0,0,0,1.194-.653A3.714,3.714,0,0,0,1.5-9.939a3.714,3.714,0,0,0-.434-2.02,1.36,1.36,0,0,0-1.194-.653,1.35,1.35,0,0,0-1.182.653,3.714,3.714,0,0,0-.434,2.02,3.714,3.714,0,0,0,.434,2.02A1.35,1.35,0,0,0-.131-7.266Z" transform="translate(18.57 26.919)" fill="#fff"/>
        <g id="Icon" transform="translate(7.358 0)">
          <rect id="Icon_background" data-name="Icon background" width="7.259" height="7.259" transform="translate(0)" fill="#8283ff"/>
          <path id="Shape-2" data-name="Shape" d="M2.53,3.994H.286a.285.285,0,0,1-.219-.468L2.919.1a.285.285,0,0,1,.5.218L3.176,2.283H5.42a.285.285,0,0,1,.219.468L2.787,6.173a.285.285,0,0,1-.5-.218Z" transform="translate(0.703 0.475)" fill="rgba(255,255,255,0)"/>
          <g id="Group_3367" data-name="Group 3367" transform="translate(0.703 0.475)" clip-path="url(#clip-path)">
            <g id="_Color" data-name="↳ 🎨Color" transform="translate(-0.703 -0.475)">
              <rect id="_Color_background" data-name="↳ 🎨Color background" width="7.259" height="7.259" transform="translate(0 0)" fill="#fff"/>
              <rect id="Color" width="7.259" height="7.259" transform="translate(0 0)" fill="#fff"/>
            </g>
          </g>
        </g>
      </g>
      <path id="Shape-3" data-name="Shape" d="M35.243,70.487a35.237,35.237,0,1,1,18.434-5.2A35.4,35.4,0,0,1,35.243,70.487Zm0-63.857a28.556,28.556,0,1,0,7.378.962A28.562,28.562,0,0,0,35.244,6.63Z" transform="translate(36.304 96.723) rotate(-121)" fill="#5765d6"/>
      <path id="Shape-4" data-name="Shape" d="M.4,51.93a3.315,3.315,0,0,1,5.838-3.143A28.619,28.619,0,1,0,31.447,6.63a3.315,3.315,0,0,1,0-6.63A35.247,35.247,0,1,1,.4,51.93Z" transform="translate(34.348 93.468) rotate(-121)" fill="#fff"/>
      <ellipse id="Ellipse_576" data-name="Ellipse 576" cx="1.22" cy="1.22" rx="1.22" ry="1.22" transform="translate(15.425 69.587)" fill="#fff"/>
      <ellipse id="Ellipse_577" data-name="Ellipse 577" cx="1.22" cy="1.22" rx="1.22" ry="1.22" transform="translate(79.346 69.587)" fill="#fff"/>
    </g>
  </g>
</svg>
