<svg xmlns="http://www.w3.org/2000/svg" width="39.421" height="33.531" viewBox="0 0 39.421 33.531">
  <g id="education-loan-mobile" transform="translate(-8.935 0.201)">
    <g id="Group_3586" data-name="Group 3586" transform="translate(0 0)">
      <g id="Group_3577" data-name="Group 3577" transform="translate(43.588 5.876) rotate(-2)">
        <line id="Line_86" data-name="Line 86" y1="2.275" x2="2.73" transform="translate(0.796 0.455)" fill="none" stroke="#242a39" stroke-linecap="round" stroke-width="1"/>
        <line id="Line_87" data-name="Line 87" y1="1.933" x2="0.682" transform="translate(0 0)" fill="none" stroke="#242a39" stroke-linecap="round" stroke-width="1"/>
        <path id="Path_417" data-name="Path 417" d="M0,.682,2.436,0" transform="translate(1.564 3.128)" fill="none" stroke="#242a39" stroke-linecap="round" stroke-width="1"/>
      </g>
      <g id="Group_3823" data-name="Group 3823" transform="translate(9.325 0)">
        <path id="Path_1572" data-name="Path 1572" d="M752.124,200.368v-3.355c-.725-.1-.938-.27-.953-.768-.014-.426.1-.512.8-.654.242-.981.469-1.962.725-2.943.4-1.535.616-2.977,1-4.512.64-2.531,1.337-5.108,1.721-7.7.1-.626.084-1.255.226-1.952-2.346.128-4.17.4-6.445.654s-5.412,1.607-6.628,1.3-3.551-3.416-5.342-4.724c-1.308-.953-2.73-1.763-4.094-2.644-1.45-.938-2.886-1.877-4.308-2.843a9.619,9.619,0,0,1-1.052-.967,1.85,1.85,0,0,1-.171-.3,23.771,23.771,0,0,0,4.72-.043c.91-.071,1.834-.156,2.744-.242,1.592-.156,3.2-.341,4.791-.5,1.052-.114,2.09-.227,3.142-.327.583-.057,1.18-.128,1.763-.171a.588.588,0,0,1,.412.114,49.628,49.628,0,0,0,4.876,2.914c1.45.825,2.9,1.621,4.35,2.46,2.218,1.28,4.422,2.587,6.639,3.881.256.156.5.341.825.554a27.462,27.462,0,0,1-5.488.9c-.554,2.886-1.18,5.839-1.976,8.682s-1.464,5.62-2.232,8.549a2.137,2.137,0,0,1,.355.27.421.421,0,0,1,.028.583.862.862,0,0,0-.142.64c-.014.867-.043,1.72-.071,2.587a4.423,4.423,0,0,1-.114.6A.071.071,0,0,0,752.124,200.368Zm-23.414-30.95c-.209.116.642.6.969.81,1.706,1.123,3.1,1.82,4.818,2.943,1.109.711,2.286,1.4,3.352,2.18,1.635,1.223,2.225,2.282,3.831,3.561a4.428,4.428,0,0,0,1.278.848c.432.1.244.05,2.1-.268s4.023-.875,5.331-1c2.531-.256,5.509-.446,8.039-.7a7.222,7.222,0,0,0,2.043-.34c.311-.2-.039-.294-.209-.393-3.412-1.976-6.46-3.523-9.872-5.5-1.777-1.024-3.451-2.066-5.129-3.246-.114-.085-.316-.255-.458-.255a8.486,8.486,0,0,0-1.03.128c-1.18.128-2.346.284-3.526.412-1.479.156-2.971.327-4.45.455-1.55.142-3.085.256-4.635.37C730.269,169.489,728.92,169.3,728.71,169.418Zm23.243,26.6c-.2-.028-.469-.2-.526.171a.435.435,0,0,0,.426.483c.242,0,.512-.242.483-.455C752.338,195.961,752.167,195.918,751.954,196.018Z" transform="translate(-727.6 -167.681)" fill="#242a39" stroke="#242a39" stroke-width="0.4"/>
        <path id="Path_1626" data-name="Path 1626" d="M758.829,219.733c-.9,2.531-1.548,4.6-2.529,7a28.9,28.9,0,0,1,1.009-3.924c.341-1.308.754-2.587,1.137-3.91a4.156,4.156,0,0,1,1.294.682c1.351,1.038,2.687,2.1,4.052,3.113,1,.739,2.047,1.407,3.071,2.118a1.051,1.051,0,0,0,.768.171l5.132-.554c1.066-.114,2.133-.213,3.2-.327.64-.071,1.294-.156,1.934-.213a3.149,3.149,0,0,1,.64.071,40.209,40.209,0,0,1-1.393,7.45.819.819,0,0,1-.1-.523c.356-1.919.684-3.8,1.025-5.717.057-.284.155-.645-.108-.816s-1.268.116-1.61.144c-1.862.185-2.46.3-4.323.485-1.052.114-3.74.417-3.768.431a1.816,1.816,0,0,1-1.9-.245c-1.08-.711-1.782-1.109-2.819-1.877-1.294-.953-2.523-1.821-3.8-2.8A10.308,10.308,0,0,0,758.829,219.733Z" transform="translate(-752.22 -211.618)" fill="#242a39" stroke="#242a39" stroke-width="0.4"/>
        <path id="Path_1653" data-name="Path 1653" d="M774.4,279.975c0,.139-.682.384-1.038.554a10.47,10.47,0,0,1-3.995.938A20.062,20.062,0,0,1,761.6,280.2a21.14,21.14,0,0,1-4.948-2.374,14.935,14.935,0,0,1-3.1-2.815,2.619,2.619,0,0,1-.156-.27c.228-.142.355-.228.455-.114a17.263,17.263,0,0,0,2.7,2.488,18.274,18.274,0,0,0,4.635,2.36,36.44,36.44,0,0,0,3.682,1.08,15.553,15.553,0,0,0,6.327.142,14.839,14.839,0,0,0,2.161-.725C773.7,279.861,774.4,279.836,774.4,279.975Z" transform="translate(-749.732 -258.995)" fill="#242a39" stroke="#242a39" stroke-width="0.4"/>
        <path id="Path_1755" data-name="Path 1755" d="M886.294,372.4a4.551,4.551,0,0,0-.483.725c-.171.455-.3.938-.426,1.407a3.6,3.6,0,0,1-.327.867,2,2,0,0,1-.057-.284,6.2,6.2,0,0,1,.54-2.147A.8.8,0,0,1,886.294,372.4Z" transform="translate(-862.622 -343.295)" fill="#242a39" stroke="#242a39" stroke-width="0.4"/>
        <path id="Path_1773" data-name="Path 1773" d="M894.02,375.157c-.185.9-.37,1.791-.569,2.7h-.128a3.607,3.607,0,0,1,0-.554c.071-.54.156-1.095.27-1.635a2.308,2.308,0,0,1,.27-.569A1.082,1.082,0,0,1,894.02,375.157Z" transform="translate(-869.752 -345.612)" fill="#242a39" stroke="#242a39" stroke-width="0.4"/>
      </g>
      <path id="Path_2155" data-name="Path 2155" d="M1.131,9.057c.014-.027.03-.1.032-.085,0,0-.673-3.662-.865-5.905S.975-.032.4,0C-.153.033.014,4.138.059,4.652A13.514,13.514,0,0,0,1.131,9.057Z" transform="matrix(0.602, -0.799, 0.799, 0.602, 13.945, 15.511)" fill="#242a39" fill-rule="evenodd"/>
    </g>
  </g>
</svg>
