<svg xmlns="http://www.w3.org/2000/svg" xmlns:xlink="http://www.w3.org/1999/xlink" width="86.854" height="63.172" viewBox="0 0 86.854 63.172">
  <defs>
    <linearGradient id="linear-gradient" x1="0.237" y1="0.051" x2="0.726" y2="0.935" gradientUnits="objectBoundingBox">
      <stop offset="0" stop-color="#9e8bff"/>
      <stop offset="1" stop-color="#5775ff"/>
    </linearGradient>
  </defs>
  <g id="education-loan-web" transform="translate(-831.519 -1113.162)">
    <g id="Group_3586" data-name="Group 3586" transform="translate(835 1113.365)">
      <g id="Group_3577" data-name="Group 3577" transform="translate(75.273 10.617) rotate(-2)">
        <line id="Line_86" data-name="Line 86" y1="4.11" x2="4.932" transform="translate(1.438 0.822)" fill="none" stroke="#242a39" stroke-linecap="round" stroke-width="1"/>
        <line id="Line_87" data-name="Line 87" y1="3.493" x2="1.233" transform="translate(0 0)" fill="none" stroke="#242a39" stroke-linecap="round" stroke-width="1"/>
        <path id="Path_417" data-name="Path 417" d="M0,1.233,4.4,0" transform="translate(2.826 5.651)" fill="none" stroke="#242a39" stroke-linecap="round" stroke-width="1"/>
      </g>
      <g id="Group_3823" data-name="Group 3823" transform="translate(13.367 0)">
        <path id="Path_1572" data-name="Path 1572" d="M771.91,226.74v-6.062c-1.31-.18-1.7-.488-1.721-1.387-.026-.771.18-.925,1.439-1.182.437-1.772.848-3.545,1.31-5.317.719-2.774,1.114-5.379,1.807-8.153,1.156-4.572,2.416-9.23,3.11-13.9.18-1.13.152-2.268.409-3.526-4.238.231-7.535.719-11.645,1.182s-9.778,2.9-11.976,2.345-6.416-6.172-9.653-8.535c-2.363-1.721-4.932-3.185-7.4-4.778-2.62-1.7-5.214-3.391-7.783-5.137a17.414,17.414,0,0,1-1.9-1.747A3.361,3.361,0,0,1,727.6,170a42.952,42.952,0,0,0,8.528-.077c1.644-.128,3.314-.283,4.958-.437,2.877-.283,5.78-.616,8.657-.9,1.9-.206,3.776-.411,5.677-.591,1.053-.1,2.132-.231,3.185-.308a1.063,1.063,0,0,1,.745.206,89.656,89.656,0,0,0,8.811,5.266c2.62,1.49,5.24,2.928,7.86,4.444,4.007,2.312,7.989,4.675,12,7.013.462.283.9.617,1.49,1-3.262,1.053-6.525,1.233-9.915,1.618-1,5.214-2.132,10.55-3.571,15.687-1.439,5.112-2.646,10.154-4.033,15.446a3.855,3.855,0,0,1,.642.488.76.76,0,0,1,.051,1.053,1.556,1.556,0,0,0-.257,1.156c-.026,1.567-.077,3.108-.128,4.675a7.973,7.973,0,0,1-.206,1.079A.128.128,0,0,0,771.91,226.74Zm-42.3-55.921c-.379.21,1.16,1.079,1.751,1.464,3.082,2.029,5.6,3.288,8.706,5.317,2,1.284,4.13,2.525,6.056,3.938,2.954,2.209,4.02,4.123,6.922,6.435a8,8,0,0,0,2.309,1.531c.781.177.441.09,3.8-.484s7.269-1.582,9.632-1.813c4.572-.462,9.953-.806,14.525-1.269a13.046,13.046,0,0,0,3.69-.615c.563-.366-.07-.531-.379-.711-6.165-3.57-11.672-6.365-17.837-9.935-3.211-1.849-6.236-3.732-9.267-5.864-.206-.154-.571-.46-.828-.46a15.33,15.33,0,0,0-1.861.231c-2.132.231-4.238.514-6.37.745-2.671.283-5.369.591-8.04.822-2.8.257-5.574.462-8.374.668C732.423,170.948,729.985,170.61,729.606,170.82Zm42,48.06c-.36-.051-.848-.36-.95.308a.785.785,0,0,0,.771.873c.437,0,.925-.437.873-.822C772.3,218.777,771.987,218.7,771.6,218.88Z" transform="translate(-727.6 -167.681)" fill="#242a39" stroke="#242a39" stroke-width="0.4"/>
        <path id="Path_1626" data-name="Path 1626" d="M760.87,220.406c-1.618,4.572-2.8,8.307-4.57,12.648a52.2,52.2,0,0,1,1.824-7.09c.616-2.363,1.361-4.675,2.055-7.064a7.507,7.507,0,0,1,2.337,1.233c2.44,1.875,4.855,3.8,7.321,5.625,1.8,1.336,3.7,2.543,5.548,3.827a1.9,1.9,0,0,0,1.387.308l9.273-1c1.927-.205,3.853-.385,5.78-.591,1.156-.128,2.338-.283,3.493-.385a5.689,5.689,0,0,1,1.156.128c.077,1.952-1.824,12.073-2.517,13.46a1.478,1.478,0,0,1-.18-.945c.642-3.468,1.235-6.861,1.852-10.329.1-.514.28-1.165-.2-1.474s-2.292.209-2.908.261c-3.365.334-4.445.542-7.81.876-1.9.205-6.757.753-6.809.779a3.282,3.282,0,0,1-3.427-.442c-1.952-1.284-3.219-2-5.094-3.39-2.338-1.721-4.558-3.29-6.87-5.062A18.6,18.6,0,0,0,760.87,220.406Z" transform="translate(-748.928 -205.743)" fill="#242a39" stroke="#242a39" stroke-width="0.4"/>
        <path id="Path_1653" data-name="Path 1653" d="M791.34,284.33c0,.25-1.233.694-1.875,1a18.918,18.918,0,0,1-7.218,1.7,36.251,36.251,0,0,1-14.025-2.286,38.2,38.2,0,0,1-8.939-4.29,26.994,26.994,0,0,1-5.6-5.086,4.762,4.762,0,0,1-.283-.488c.411-.257.642-.411.822-.205a31.187,31.187,0,0,0,4.88,4.5,33.017,33.017,0,0,0,8.374,4.264,65.851,65.851,0,0,0,6.653,1.952,28.1,28.1,0,0,0,11.431.257,26.812,26.812,0,0,0,3.9-1.31C790.081,284.125,791.34,284.08,791.34,284.33Z" transform="translate(-746.773 -246.424)" fill="#242a39" stroke="#242a39" stroke-width="0.4"/>
        <path id="Path_1755" data-name="Path 1755" d="M887.338,372.4a8.214,8.214,0,0,0-.873,1.31c-.308.822-.539,1.7-.771,2.543a6.505,6.505,0,0,1-.591,1.567,3.637,3.637,0,0,1-.1-.514,11.206,11.206,0,0,1,.976-3.879A1.451,1.451,0,0,1,887.338,372.4Z" transform="translate(-844.569 -319.814)" fill="#242a39" stroke="#242a39" stroke-width="0.4"/>
        <path id="Path_1773" data-name="Path 1773" d="M894.593,375.2c-.334,1.618-.668,3.237-1.027,4.881h-.231a6.517,6.517,0,0,1,0-1c.128-.976.283-1.978.488-2.954a4.171,4.171,0,0,1,.488-1.027A1.944,1.944,0,0,1,894.593,375.2Z" transform="translate(-850.745 -321.82)" fill="#242a39" stroke="#242a39" stroke-width="0.4"/>
      </g>
      <path id="Path_2155" data-name="Path 2155" d="M2.043,16.364c.024-.049.055-.183.059-.153,0,0-1.217-6.617-1.562-10.669S1.762-.058.719,0C-.276.06.026,7.478.106,8.4A24.417,24.417,0,0,0,2.043,16.364Z" transform="matrix(0.602, -0.799, 0.799, 0.602, 21.714, 28.025)" fill="#242a39" fill-rule="evenodd"/>
      <path id="Path_2670" data-name="Path 2670" d="M29.27,19.021C47.633,9.507,64.684,17.341,64.684,35.2A32.344,32.344,0,0,1,32.34,67.547C14.477,67.547.764,47.335,0,35.2S10.907,28.534,29.27,19.021Z" transform="translate(-3.442 -4.577)" opacity="0.1" fill="url(#linear-gradient)"/>
    </g>
  </g>
</svg>
