<svg xmlns="http://www.w3.org/2000/svg" width="45.356" height="46.384" viewBox="0 0 45.356 46.384">
  <g id="EMICalculator-mob" transform="translate(-401.17 -1144.278)">
    <g id="_529971176" transform="matrix(0.978, -0.208, 0.208, 0.978, 400.953, 1158.226)">
      <path id="Path_434" data-name="Path 434" d="M19.711,32.222a5.36,5.36,0,0,1,2.643-.344c.982,0,1.93-.174,2.862-.09l4.3.232c.222,0,.549,0,.762.025l.57.194c-.864-.031-1.933.054-2.8.091-.813.036-1.791-.1-2.6-.135C23.5,32.113,21.544,32.276,19.711,32.222Zm14.159-.755,1.5-.34a4.269,4.269,0,0,1,1.574-.167c-.156.372.017.3-.525.477a5.582,5.582,0,0,1-.827.184A2.694,2.694,0,0,1,33.869,31.467Zm-32-5.746c.037.622-.32,1.556.246,1.6l.072-1.468a2.524,2.524,0,0,1,.224,1.1c.058,1.258-.243,2.719-.079,3.972-.021.021-.061.019-.07.063l-.442.5a4.236,4.236,0,0,1-.4-.344l-.12.1c-.015.014-.091.086-.119.106-.306.224.259.136-.419.18A1.539,1.539,0,0,1,0,31.292c.127.591,1.273.431,2.349.676.038.282.044,1.08.277,1.241.157-.3-.04-.924,0-1.29a2.419,2.419,0,0,0,.562.164c.955.185.369.428,1.976.437l.109-.21c1.473-.006,2.656.3,4.075.361,1.524.068,2.732.012,4.193-.044a123.325,123.325,0,0,1,12.913-.063c2.7.2,3.916-.259,5.925-.318,1.331-.037,5.367.416,6.134-.314a19.968,19.968,0,0,0-3.055.089.679.679,0,0,1,.2-.143c.652-.331,1.426-.084,1.637-1.029a2.41,2.41,0,0,0-1.956-.044,14.663,14.663,0,0,1-2.05.274,21.209,21.209,0,0,1-4.138.363c-3.284-.3-6.744.133-9.228.046-.316-3.765-.187-7.758-.234-11.587l.4-.111c.056-.635-.325-1.787-.221-2.547.054-.374.132-.363.334-.627.162-.214,1.615-.171,2.043-.184a9.211,9.211,0,0,1,1.108.033,1.992,1.992,0,0,1,.935.237l-1.567.283a41.349,41.349,0,0,0,5.353-.216c.526-.058,1.081-.231,1.559-.29,1.728-.208,3.611-.021,5.342-.293.641-.1,1.178.174,1.741-.054a6.17,6.17,0,0,0,.152,2.243c.016.032.069.12.084.146s.037.062.046.082c.171.313-.221,3.9-.167,4.819.069,1.233.457.114.4,1.326l-.42.179a43.548,43.548,0,0,1-.032,5.561l.476-.061c.206-.069.151-.19.213-.7.064-.539.112-1.283.193-1.846.158.194.068-.133.205.381.23.88-.025,2.688.255,3.282.261-.053.283.012.32-.4.166-1.92-.509-3.766-.22-5.946a40.963,40.963,0,0,0,.18-9.8c-.122-1.1-.173-2.065-.225-3.329-.082-2.138-.36-4.456-.393-6.607l-.33-.18.019-.932.68-.562c.657,1.207.085,3.99.5,5.3l-.027-3.454c.145.171.068,0,.178.264,0,.01.08.329.085.363.046.245.08.473.1.651a38.736,38.736,0,0,1,.131,4.4c0,.808-.172,2.067-.138,2.812a13.254,13.254,0,0,1-.068,1.368c-.017.416-.1,1.117.273,1.312-.277-.992.545-7.116-.171-11.03-.21-1.141-.294-2.293-1.081-2.868.02-.036.052-.13.064-.109l.277-.416c-.243-.231-.352-.209-.625-.383.216-.243-.061-.062.219-.206l.981-.315c-.133-.409-.351-.174-1.414.068.035-.53.253-1.038-.09-1.331-.211.205-.156.135-.168.509-.009.319-.032.55-.065.871L33.09,1.542c-.3-.007-.766-.058-1.272-.038.288-.2.834-.025,1.107-.234a4.984,4.984,0,0,0-2.186.032c-2.843.46-6.637-.34-9.653.161a13.077,13.077,0,0,1-2.479.037c-.916-.016-1.53.182-2.427.166s-1.478-.2-2.385-.219C14.6.733,21.19.42,22.76.3L25.411,0c-1.839.02-3.738.2-5.572.357-.86.075-1.825.189-2.669.276L14.444.984c-5.6.756-3.706.461-8.405.424-1.162-.012-.725.257-2.7.366-.046.357.019.329.284.477l-1.015.158a.758.758,0,0,1-.54.435,2.747,2.747,0,0,0-.052-.856c-.105-.432-.094-.394-.483-.51.111,5,.416,9.688.447,14.785-.2.162-.356.174-.437.44.121.222.231.162.456.331l.031,2.646c-.027.023-.065.027-.072.073-.028.141-.167.088-.182.258a3.082,3.082,0,0,1,.3,1.541,16.513,16.513,0,0,1-.316,3.412,4.7,4.7,0,0,0-.142,1.648C1.8,26.244,1.635,26.025,1.865,25.721Zm1.641-5.06a3.335,3.335,0,0,0,.182-1.094,4.161,4.161,0,0,1,.208-1.024c.226-.845.185-1.564.7-1.75.792-.283,3.7-.069,4.838-.147,1.462-.1,3.281-.136,4.761-.161,1.678-.028,3.089.006,4.712.132.179,1.029.106,2.707.189,3.815.164,2.229-.07,4.418-.01,5.637.047.907.24-.112.217,1.763a29.765,29.765,0,0,0,.253,3.691c-4.334.067-8.693.245-13.079.222-1.488-.007-2.6-.482-3.892-.588A21.792,21.792,0,0,0,3,26.289c.065-1.7.241-3.281.4-4.961a5.573,5.573,0,0,0-.285,1.877.768.768,0,0,1-.046.319c-.078.281.011.1-.148.277a17.865,17.865,0,0,1,.388-5.307c.154-.735.167-1.173.53-1.4l.157.5a5.1,5.1,0,0,1-.073.509A11.032,11.032,0,0,0,3.506,20.661Zm-.079.61c.038.057.074-.185-.027-.038C3.284,21.4,3.427,21.271,3.427,21.271Zm.026-.168,0-.449Zm-.521-2.16c-.023-.492-.1-.88-.114-1.361-.02-.717-.061-.725.587-.775-.033.355-.083.8-.157,1.174C3.161,18.429,3.214,18.6,2.931,18.943Zm34.934-.382c-.02-.99-.31-1.751-.3-2.737l.213-2.759c.413.751.65,10.135.15,11.169-.238.489-.2-.251-.294.722a14.7,14.7,0,0,1-.272,2.522c-.017-1.855.247-3.246.3-5.047s-.245-3.284-.205-5.068C37.647,17.67,37.692,18.208,37.865,18.561Zm-9.72-2.445c-.225.213.205.044-.319.229l-.96.117a1.976,1.976,0,0,1-1.241-.263ZM2.333,10.1c-.171.707.2-.568-.058.184l-.1.173c-.056-1.3.069-2.72-.041-3.989-.046-.554-.016-1.3-.075-1.882-.077-.736-.455-.837-.217-1.552l.137.241c.407.922-.088.126.518.446C2.5,4.751,2.473,6,2.424,7.114L2.387,9.727C2.381,9.758,2.338,10.085,2.333,10.1Zm6.09-7.63c1.006.021,2.085-.061,3.018-.1.982-.043,2.01.044,2.983,0,1.939-.083.945-.086,1.647.242.659.309.171-.069.708-.3a12.879,12.879,0,0,1,2.377-.151L19.2,3.257l-.329.331c.762,1.145.093,11.922,0,12.175-.822.35-4.979.1-6.218.083-1.09-.017-2.539.284-4.075.209-1.9-.091-3.088.141-4.084.105-.753-.025-.327-.153-.821-.136-.017,0-.7.089-.855.138l-.054-1.884.3-.112c.009,0,.036.019.158-.053.023-1-.079-1.882-.051-2.921s.1-1.941.091-2.977c-.009-.96-.135-2.075-.075-2.956.026-.383.061-.97.114-1.44.133-1.166-.217-.791.011-1a10.062,10.062,0,0,1,3.283-.236l3.183.462a3.156,3.156,0,0,0-1.016-.4c-.46-.175.512.232-.169-.078-.02-.007-.069-.007-.083-.046S8.451,2.489,8.423,2.469Zm1.352.572c-.231.189.091.079.1.088C10.129,3.326,9.957,2.89,9.774,3.041Zm11.1-.9c2.774.032,5.5-.057,8.2-.109,2.166-.04,3.844.171,6.172.084a3.656,3.656,0,0,1,1.793.262l-.106,3.193c-.009,1.143-.049,2.272-.037,3.418.015,1.232.093,2.174.025,3.309s-.208,1.991-.217,3.22a11.992,11.992,0,0,0-4.229-.147,27.36,27.36,0,0,1-4.28-.057l-5.5.125a2.5,2.5,0,0,1-.439.035c-1.023.009-1.771.221-2.553.142-.036-1.163-.114-2.162-.131-3.32a10.767,10.767,0,0,1,.136-2.526c.083-.22.056-.129.163-.284.4-.591-.074.42.13-.166-.325-.7.041-5.825-.169-7.145l.429-.028.187.7a77.805,77.805,0,0,1-.068,8.786l.109,1.647c0,.065-.009.042-.03.11-.084.258.111.309.114.3l.088,1.1.706-3.934c-.166-.052-.168.091-.368,0l.038-1.122a.655.655,0,0,0-.026.086l-.04.177a.581.581,0,0,0-.016.1c-.117.762-.035,1.6-.415,2.052.026-1.473.078-2.8.178-4.231.047-.656.009-3.2.133-3.607a.59.59,0,0,1,.182-.34c.268.135.29.007.339.5,0,0-.35,3.934-.31,4.934a44.71,44.71,0,0,0,.418-4.94l.106-1.538c-.372.308-.117.337-.251.851-.431-.213-.117.187-.373-.361Z" transform="translate(0.221 0)" fill="#242a39" fill-rule="evenodd"/>
      <path id="Path_435" data-name="Path 435" d="M2.431,11.574c-.314.119-.358.023-.651-.129a1.862,1.862,0,0,1,.777-.659A2.056,2.056,0,0,1,2.431,11.574Zm.544-.7c.3-.232.35-.435.643-.77l1.044-.947c.026-.019.1-.068.126-.086s.044-.035.063-.051l-.366.735a4.342,4.342,0,0,1-1.015.981c-.18.119-.4.414-.435.226A.2.2,0,0,0,2.974,10.871Zm4.52-3.277A8.491,8.491,0,0,1,9.27,9.58c1.058,2.19,1.189,2.129.093,2.095-.414-1.375.132-.669-.7-2.164ZM1.667,10.555A13.84,13.84,0,0,1,4.643,7.592C4.5,8.154,3.71,8.8,3.261,9.2A10.262,10.262,0,0,1,1.667,10.555ZM6.585,5.986c.084.124.056.084.114.269L6.44,6.235C6.418,5.949,6.371,6.2,6.585,5.986Zm.57-.445a1.151,1.151,0,0,1,1.038-.972c-.208.492-.105.273-.467.605-.052.044-.2.209-.219.221C7.325,5.53,7.428,5.483,7.155,5.542ZM5.671,5.119A5.272,5.272,0,0,1,3.661,2.758c.335.132.027-.077.288.235l.777.872C5.243,4.426,5.491,4.563,5.671,5.119ZM2.123,1.988c-.33-.3-.153-.321-.132-.363A3.031,3.031,0,0,1,3.042,2.8c.484,1.126.549.837.728,1.386a2.979,2.979,0,0,1-.781-.677C1.965,2.55.23,1.888,2.123,1.988Zm7.944-.161c.04-.764-.153-.593.408-.685.006.01.356-.077.056.416C10.354,1.851,10.312,1.734,10.067,1.827ZM10.13.1a2.733,2.733,0,0,0,.163.7C8.7.8,7.753,1.771,8.161,2.273c.5-.264.5-.881,1.479-.986-.2.54-1.084,1.04-1.721,1.547C7.4,3.248,6.688,4.153,6.148,4.326c-1.589-2.5-1.3-1.5-2.154-2.369C2.507.441,2.926,1.58,2.968.457,2.5.541,2.275.617,1.693.686c0,.521.509.461-.285.829C.57,1.9.767,1.182.3,1.4c-.367.169,1.584,2.059,2.036,2.542a22.054,22.054,0,0,0,2.36,2.5L.058,10.5c.111.424.283.43.272.728-.014.389-.224.226-.33.766.3-.205.365-.416.667-.631.859.661.279.787,1.75.856A1.326,1.326,0,0,0,3.77,11.139a21.99,21.99,0,0,1,2.5-2.873A8,8,0,0,1,7.911,9.941l1.236,2.182a2.449,2.449,0,0,0,1.007-.137c.6-.161.193-.068.719.077a3.586,3.586,0,0,0-.04-.772c-.14-.614-.184.168-.384-.661.463.1.353.119.661.521.227.293.283.5.639.479a1.458,1.458,0,0,0-.369-.643c-.369-.491-.011-.222-.586-1.074A24.862,24.862,0,0,1,8.319,6.272c.016-.027.043-.1.051-.079s.04-.064.049-.079a7.935,7.935,0,0,1,1.616-2.046c.393-.389,1.877-1.447,1.84-2.092-.221-.493-.119.126-.256-.625a6.358,6.358,0,0,1-.074-.793c-1.27-.032-.437-.2-1.061-.467C10.109-.073,10.277.022,10.13.1Z" transform="translate(5.374 17.924)" fill="#242a39" fill-rule="evenodd"/>
      <path id="Path_436" data-name="Path 436" d="M7.634,9.413a.567.567,0,0,1,.187.334c.023.078.041.241.059.357l-.573.037A2.929,2.929,0,0,1,7.634,9.413Zm-.942.613a2.742,2.742,0,0,0-.588.117c.138-.376.032-.208.309-.479a10.766,10.766,0,0,1,.182-2.47c.085-.238.077-.168.192-.3Zm-4.2-4c.021-.019.056-.074.067-.052l.357-.109a1.659,1.659,0,0,1,.271-.011.325.325,0,0,1,.2.061A.569.569,0,0,1,2.491,6.027Zm1.2,0c.377-.4.351-.174.956-.292a5.167,5.167,0,0,1,.508-.158c.61-.072.332.016.425.23A4.374,4.374,0,0,1,3.695,6.027Zm-1-.881c.337-.383.53-.236,1.078-.157-.169.142,0,.079-.274.19-.017.007-.256.07-.277.073A.567.567,0,0,1,2.691,5.146Zm2.744-1c-.31.216-.982.367-1.228-.216.224-.133-.24-.119.352-.108Zm.984-.243c-.185-.167-.1-.056-.142-.276l.25.007A.589.589,0,0,1,6.419,3.907Zm2.313-.192c.435-.365,2.018-.261,2.569-.188l-.19.875-.859.023c.348-.565.451-.047.507-.732-.982-.308-.484.813-2.052.715Zm3.74,1.321a2.853,2.853,0,0,0-.2-.891c-.2-.686-.143-.132-.324-.656.227.033.435.129.53.082.014-.006.284-.143-.033-.311-.409-.216-2.59.037-3.759-.091L8.414.3A4.084,4.084,0,0,0,7.591.02C7.4.284,7.48.331,7.35.63L6.612.387A1.15,1.15,0,0,0,5.4.078l-.038,3.1A6.312,6.312,0,0,1,2.7,2.839c-.3.513.2-.545-.061.253-.173.526.226.243-.289.39-.54.148-.007-.109-.64-.157-.331.535.121.514-.671.618C.58,4.007.387,3.892,0,4.078c.1.47.52.421,1.049.52A6.6,6.6,0,0,1,.73,5.693c-.483,1.926.643,1.085,1,1.006.6-.135,2.707.214,3.857.2C5.642,9.79,4.284,10.627,6.9,10.7c2.361.065,1.671-1.217,1.755-3.928.413-.151,1.331-.108,1.6-.415-.094-.309-.264-.309-.671-.262-.843.094-.719.152-.881-.182a5.394,5.394,0,0,1,1.973-.146c-.226,1.153.047.565.467.665a.539.539,0,0,1,.132.056c.562.263.562.465.648-.454C12.085,4.2,11.995,5.208,12.473,5.036Z" transform="translate(4 3.843)" fill="#242a39" fill-rule="evenodd"/>
      <path id="Path_437" data-name="Path 437" d="M10.67,3.566a9.739,9.739,0,0,1-2.106-.131c-.25-.084-.131-.047-.278-.159l1.892.012c.03-.032.1-.1.111-.117s.037-.046.047-.061c.141-.15.3-.339.373-.085a.459.459,0,0,1,.03.061ZM1.515,2.658c.819-.387,5.866-.345,7.378-.346l.867.019c.245.057.133.016.267.108-.057.677-.4.478-1.809.389H3.606C2.972,2.852,2,3.058,1.515,2.658Zm10.51,1.281.247-1.987c.089-.14-.082-.062.18-.148.452-.152.479.211.418.618A1.914,1.914,0,0,1,12.025,3.939ZM10.431,1A1.508,1.508,0,0,1,11.792.427L11.765,1c-.529-.043.2.1-.183-.033L11.5.937,11.207.783C10.912,1.091,10.962,1.021,10.431,1Zm-8.923.052c-.245.56.07.11-.368.425-.55-.154-.182-.205-.634-.351A4.2,4.2,0,0,0,0,2.219a1.1,1.1,0,0,0,.2.19,1.232,1.232,0,0,1,.274.32C.183,2.87.236,2.765.1,3.1l.374.269a.55.55,0,0,1,.063.061c-.017.022-.044.027-.054.063s-.1.106-.11.116c-.573.712.2.145.15,1.9.619-.112.41-.419.344-.954l3.4-.225.116.383C5.25,4.1,8.4,4.448,9.452,4.42c.541-.012.356-.227.544-.311a4.133,4.133,0,0,0,1.663-.272l.183.686c.734-.251,1.3-1.873,1.179-2.9l-.781-.46c-.01-.006-.047-.011-.054-.019l-.106-.023c.03-1.627-.455-1.123-1.559-.671C8.4,1.309,3.74.794,1.508,1.052Z" transform="translate(22.717 19.222)" fill="#242a39" fill-rule="evenodd"/>
      <path id="Path_438" data-name="Path 438" d="M4.469,4.212c.148-.367.059-.259.393-.473l.183.463ZM3.727,4.2c.119-.493.316-.318.816-1.464,0,0,.623.187-.19.9A4.015,4.015,0,0,0,3.727,4.2ZM.858,3.866c.007-.269.032-.7.274-.807.581-.268,0,.35-.032.387l.235.266,1.248-.135.368.568Zm2.078-.513c-.331-.55.67-1.2.929-1.189.049.091.1.048.086.271s-.089.213-.408.5S3.236,3.439,2.936,3.353Zm6.406-.129c-.064-.1-.163.145-.1-.407l.227-.893c.007-.017.035-.033.04-.077s.027-.051.042-.075l.094.432A2.651,2.651,0,0,1,9.342,3.225Zm-2.034.892c.069-.491.084-.382.356-.7A5.14,5.14,0,0,0,8.03,2.9a2.082,2.082,0,0,1,1-.83l-.462,2.47a14.271,14.271,0,0,1-3.151.24c.173-.159-.044-.129.418-.237l1.31-.121c.769-.119,1.189-.127,1.26-.531ZM2.6,2.577c.017-.413.086-.416.47-.478C2.9,2.427,2.909,2.38,2.6,2.577Zm3.346-.692a2.041,2.041,0,0,1-.924,1L5.04,2ZM6.11,4.14c.158-.337.067-.168.294-.44.114-.13.158-.184.252-.3C7.074,2.894,7.9,1.814,8.561,1.659,8.416,2.031,7.5,2.773,6.915,3.651,6.6,4.115,6.792,4.137,6.11,4.14Zm-.855.028a.787.787,0,0,1,.057-1.008,4.15,4.15,0,0,1,2.17-1.5,3.634,3.634,0,0,1-1,1.341C5.539,4.1,5.774,4.1,5.255,4.169ZM.309,4.295l1.76.148c-.171.159-.22.153-.19.5.665.1,1.562-.012,2.281.019,1.619.074,2.237.4,4.162-.037.593-.137,1.391-.215,1.621-.723-.255-.115-.339.061-.746.132L9.454,3.32c.213.062.111.057.274.153s.027.074.2.109c.133-.259,0-.483.032-.907.059-.937.895-3.238-.171-2.548-.927.6-.924.224-2,.154C7.039.234,4.513.6,3.164.585A11,11,0,0,0,.806.746c-1,.179-.848.565-.694,1.364C.327,3.261-.252,2.979.309,4.295Z" transform="translate(23.597 6.325)" fill="#242a39" fill-rule="evenodd"/>
      <path id="Path_439" data-name="Path 439" d="M1.191,2.484C2.6,1.844,4.024,2.127,5.771,2l4.476-.049c.336.072.217-.049.336.227-.131.284.314.2-1.11.226-1.344.028-7.34.46-8.114.171Zm10.726-.2c-.324-.023-.457.1-.413-.287l.348-.54ZM.665,1.406A3.06,3.06,0,0,1,2.719,1.2c-.257.3-.524.182-1.073.188C.875,1.4.976,1.567.665,1.406ZM10.9.352,5.729.741C3.824.835,1.987.856.1.844c-.247,1.045.287,1.08.208,1.689-.052.405-.383.245-.294.727l.531.667c.319-.154.04-.047.331-.424l5.289.08a16.469,16.469,0,0,0-2.852-.2A7.858,7.858,0,0,1,5.4,3.137C6.354,3.1,9.013,3.06,9.77,2.893a5.945,5.945,0,0,1,1.026-.1c.709-.025.531.023.991.24a1.439,1.439,0,0,0,.86-.521c-.7-1.409-.383-.882-.22-1.541C11.762.416,11.673.174,11.235,0A1.819,1.819,0,0,1,11.1.162c-.015.015-.042.047-.057.062Z" transform="translate(22.8 25.657)" fill="#242a39" fill-rule="evenodd"/>
      <path id="Path_440" data-name="Path 440" d="M1.634,8.657c-.068-.765-.268-1.141-.4-2.148-.093-.718-.231-1.52-.324-2.343L.39.851C.337.277.544.105,0,0A11.726,11.726,0,0,0,.358,2.137l.4,2.246C.991,5.516,1.185,7.95,1.634,8.657Z" transform="translate(0 22.245)" fill="#242a39" fill-rule="evenodd"/>
      <path id="Path_441" data-name="Path 441" d="M.049,1.885C.4,1.909.426,1.228,1.527.578c.4-.236.407-.061.5-.578-.6-.006-.528.2-.881.192C.729.184.9-.21.666.354a3.45,3.45,0,0,1-.325.8C.18,1.389-.118,1.563.049,1.885Z" transform="translate(6.764 23.877)" fill="#242a39" fill-rule="evenodd"/>
      <path id="Path_442" data-name="Path 442" d="M.375,2.26C.331.848.695-.268.161.057-.053.191.026.982.019,1.3.006,1.8-.1,2.2.375,2.26Z" transform="translate(13.126 11.328)" fill="#242a39" fill-rule="evenodd"/>
      <path id="Path_443" data-name="Path 443" d="M.041.98a.675.675,0,0,0,.5.52C.464,1.148.4,1.254.385.776.376.4.47.3.345.011L.124,0A1.566,1.566,0,0,0,.041.98Z" transform="translate(14.183 10.531)" fill="#242a39" fill-rule="evenodd"/>
    </g>
    <g id="Group_3803" data-name="Group 3803" transform="translate(437.967 1145)">
      <line id="Line_109" data-name="Line 109" y1="2.827" x2="3.393" transform="translate(1.123 1.16) rotate(-20)" fill="none" stroke="#242a39" stroke-linecap="round" stroke-width="0.8"/>
      <line id="Line_110" data-name="Line 110" y1="2.403" x2="0.848" transform="translate(0 0.967) rotate(-20)" fill="none" stroke="#242a39" stroke-linecap="round" stroke-width="0.8"/>
      <path id="Path_1299" data-name="Path 1299" d="M0,.848,3.028,0" transform="translate(3.156 3.956) rotate(-20)" fill="none" stroke="#242a39" stroke-linecap="round" stroke-width="0.8"/>
    </g>
  </g>
</svg>
