<svg xmlns="http://www.w3.org/2000/svg" width="30.947" height="40.78" viewBox="0 0 30.947 40.78">
  <g id="evaluator-mob" transform="translate(-867.334 -1309.54)">
    <g id="Group_3881" data-name="Group 3881" transform="translate(892.269 1310.262)">
      <line id="Line_109" data-name="Line 109" y1="2.417" x2="2.901" transform="translate(0.96 0.992) rotate(-20)" fill="none" stroke="#242a39" stroke-linecap="round" stroke-width="0.8"/>
      <line id="Line_110" data-name="Line 110" y1="2.055" x2="0.725" transform="translate(0 0.827) rotate(-20)" fill="none" stroke="#242a39" stroke-linecap="round" stroke-width="0.8"/>
      <path id="Path_1299" data-name="Path 1299" d="M0,.725,2.589,0" transform="translate(2.699 3.382) rotate(-20)" fill="none" stroke="#242a39" stroke-linecap="round" stroke-width="0.8"/>
    </g>
    <g id="_2058106000" transform="translate(867.334 1315.473)">
      <path id="Path_720" data-name="Path 720" d="M8163.6,15327.639c-2.164,1.24-3.958,2.894-6.1,4.054-2.165,1.176-4.63,2.024-5.318,2.412a5.769,5.769,0,0,1-1.723.851,30.18,30.18,0,0,0-.931-3.192c.43-.295.018,0,.271-.11l.207-.089c.152-.1.146-.131.3-.288.775-.817,1.812-.93,2.935-1.554.7-.391,1.082-.753,1.771-1.214,1.052-.692,3.982-1.827,5.883-3.052s2.183-.842,4.819-.74a3.789,3.789,0,0,1-.989,2.41,1.779,1.779,0,0,1-.647.424c-.347-.434-.541-.994-.863-1.439-.837-1.173-.4-1.007-1.065-1.138C8161.788,15325.884,8163.224,15326.1,8163.6,15327.639Zm-4.13-16.477a43.2,43.2,0,0,1,7.7.421c.628.141,1.076.23,1.605.319l1.688.323c.771,1.359-.364,13.26-.529,16.147-.105,1.915-.636,3.168-.713,5.014-.182,4.441.83,3.635-1.217,3.576-.6-.019-.742.125-1.324.064-.354-.035-.8-.141-1.147-.2a11.792,11.792,0,0,0-2.5-.246c-.8.045-1.6-.129-2.619-.106a41.058,41.058,0,0,1-4.335.033c-.572-.116-.524-.228-.478-.945.253-3.755.448-1.871,1.936-3.166.358-.312.118-.205.406-.522.424-.465,4.43-3.019,5.289-3.531,1.493-.894,1.724.042,2.624-2.246.141-.349.17-.579.295-.937.235-.675.5-.386.034-1.062a8.529,8.529,0,0,1-4.276-.432.725.725,0,0,0,.046.784,35.037,35.037,0,0,0-3.377,1.823,22.233,22.233,0,0,1-3.589,1.581c.066-.674.207-1.321.225-2.052.023-.755-.118-1.365-.082-2.024.076-1.747.588-11.988.875-12.413.514-.734,2.53-.158,2.666-.151A7.239,7.239,0,0,0,8159.47,15311.162Zm13.39,29.679.33-.106a.759.759,0,0,0,.3-.093c0-.308.036-.138-.06-.378l-.14-.27c-.013-.031-.03-.066-.042-.1a7.548,7.548,0,0,1-.035-2.853,38.927,38.927,0,0,1,.217-4.036c.63-3.817.236-7.989.73-11.855a18.489,18.489,0,0,0,.252-3.846c-.082-1.118.783-6.259-.064-7.054-.458-.429-.405-1.436-.518-2.089.66.042.725.324,1.183-.118-.212-.583-.44-.29-1.048-.535-1.175-.478-2.171-.212-3.952-.029a52.717,52.717,0,0,1-5.941-.111,12.44,12.44,0,0,1-1.483-.125c-.548-.052-.853-.212-1.229-.229-.913-.037-1.883.166-2.778.046l-5.723-.064c-.7,1.507-.03,5.624-.849,7.283l.154.136c.353.508.052,1.165-.013,1.761l-.535,5.958c-.053,2.431-.453,4.8-.54,7.184a3.4,3.4,0,0,1-.042.471c-.212,1.083-1.937,1.147-2.254,1.836-.224.475,1.117,3.77,1.478,4.135a18.447,18.447,0,0,1,2.276-1.476c.77-.354.671.013,1.312-.294.318-.154.359-.23.636-.343,1.659-.647.282,2.323.446,2.854.289.93,2.761.487,3.478.458a4.009,4.009,0,0,1,.818.183l2.965.029a7.572,7.572,0,0,1,.859-.064c1.416.07,5.553,1.061,6.4.548.688-.425-.063-4.172.518-6.514.354-1.4.719-7.777.865-9.953.118-1.747.6-5.095.229-6.565-.135-.541.2-2.585.166-3.153-1.324-.172-2.56-.23-3.877-.446a20.711,20.711,0,0,0-3.947-.36c-1.724.076-3.606-.205-5.178-.035l-2.082-.059c-.989-.041-.536.681-.623,1.236a2.991,2.991,0,0,0-.189.976c-.095,2.973-.988,14.38-.706,15.626-1.028.469-1.519,1.164-3.282,1.605a97.9,97.9,0,0,0,.906-11.266c.047-1.795.518-3.6.534-5.549a22.925,22.925,0,0,1,.166-2.978l.17-2.159c.077-.465.277-.629.776-.57.665.077-.141.1.577.133a4.722,4.722,0,0,1,.665-.027c.329.061.265.1.405.291.718-.535,2.2-.419,3.39-.43a25.651,25.651,0,0,1,3.382.288c1.147.033,2.229.187,3.389.26.653.039,2.13.58,2.618.228l.229-.218c.859-.006,1.723-.019,2.576-.006.877.013,1.371-.147,2.348-.105l-.287.547c1.094,1.8.853,5.528.846,7.726-.011,2.064-.636,14.324-.882,15.963-.095.631-.219,1.149-.307,1.886l-.258,5.706c-1.466.127-3.983-.188-5.255.272a6.549,6.549,0,0,0-3.523-.637,12.39,12.39,0,0,1-1.912.016c-.794-.141-1.959.262-2.771-.058-.259-.1.012-.255-.812-.17a9.406,9.406,0,0,1-1.947.041c-1.276-.128-2.417-1.7-1.97.216l-2.384-.5.077-3.973c-.977-.089-.429.33-.929.749,1.094,1.2-.4,2.945.746,4.288a22.623,22.623,0,0,1,5.131-.1,8.526,8.526,0,0,1,2.477.367c1.465.581,3.5.411,5.095.581,1.322.141,1.224-.276,2.3-.312,1.866-.07,3.736-.153,5.636-.141l-.011,1.471.383-.2Z" transform="translate(-8148.756 -15307)" fill="#262626" fill-rule="evenodd"/>
      <path id="Path_721" data-name="Path 721" d="M9736.6,17565.732c-.159-.527-.5-.352-1.018-.244a67.34,67.34,0,0,1-7.2.311c-2.193.045-2.128-.451-2.383.209C9726.737,17566.482,9735.762,17566.166,9736.6,17565.732Z" transform="translate(-9716.721 -17552.086)" fill="#262626" fill-rule="evenodd"/>
      <path id="Path_722" data-name="Path 722" d="M9474.838,16281c-.313.123-.294.385-.952.475l-4.2.172c-1.824.125-3.771.064-5.688.119.11.334-.059.445,1.218.34,2.248-.184,9.33-.055,10.131-.5C9475.272,16281.117,9475.2,16281.2,9474.838,16281Z" transform="translate(-9456.264 -16275.271)" fill="#262626" fill-rule="evenodd"/>
      <path id="Path_723" data-name="Path 723" d="M8955.553,15444c-.4.207-.235.217-.183.678a56.036,56.036,0,0,1-.37,7.018.666.666,0,0,0,.123-.271c.012-.041.042-.158.053-.205l.183-1.48a12.619,12.619,0,0,0,.241-2.926,14.9,14.9,0,0,0,.224-2.035C8955.841,15444.111,8955.923,15444.229,8955.553,15444Z" transform="translate(-8950.257 -15443.194)" fill="#262626" fill-rule="evenodd"/>
      <path id="Path_724" data-name="Path 724" d="M12087.8,19201c-.4.9-.353,4.436-.27,5.73a14.361,14.361,0,0,0,.225-3.072,8.245,8.245,0,0,1,.176-1.539C12088.074,19201.4,12088.29,19201.254,12087.8,19201Z" transform="translate(-12064.298 -19178.094)" fill="#262626" fill-rule="evenodd"/>
      <path id="Path_725" data-name="Path 725" d="M9935.842,16699.566c.436-.064.235-.006.418-.275-.4-.266-.663-.086-1.37-.094l-2.713-.051c-.952-.016-.859-.115-1.175.145Z" transform="translate(-9920.517 -16690.928)" fill="#262626" fill-rule="evenodd"/>
      <path id="Path_726" data-name="Path 726" d="M9570.926,18038l-2.924.227c.177.414.858.26,1.417.275C9570.149,18038.506,9570.862,18038.7,9570.926,18038Z" transform="translate(-9559.652 -18021.93)" fill="#262626" fill-rule="evenodd"/>
      <path id="Path_727" data-name="Path 727" d="M12096,18202.189v.4a.533.533,0,0,0,.094.314,6.938,6.938,0,0,0,.365-1.687c.122-.793.347-1.07-.4-1.219Z" transform="translate(-12072.78 -18182.979)" fill="#262626" fill-rule="evenodd"/>
      <path id="Path_728" data-name="Path 728" d="M12192.177,16346a8.607,8.607,0,0,0-.048,2.377c.452-.113.413.029.335-1.439C12192.44,16346.437,12192.636,16346.165,12192.177,16346Z" transform="translate(-12168.272 -16339.889)" fill="#262626" fill-rule="evenodd"/>
      <path id="Path_729" data-name="Path 729" d="M9142.425,15599c-.224.377-.095.377-.055.6.237,1.375-.281,1.641.271,1.785.06-.4.118-.975.146-1.3.007-.092,0-.7-.017-.764C9142.618,15598.789,9142.731,15599.127,9142.425,15599Z" transform="translate(-9136.452 -15597.283)" fill="#262626" fill-rule="evenodd"/>
      <path id="Path_730" data-name="Path 730" d="M12313.189,16404.922c.223-.686.44-1.617-.19-1.924Z" transform="translate(-12288.501 -16396.551)" fill="#262626" fill-rule="evenodd"/>
      <path id="Path_731" data-name="Path 731" d="M9863.307,17024.26a1.491,1.491,0,0,0-1.307.014c.183.336-.076.287.631.258C9863.19,17024.51,9863.183,17024.381,9863.307,17024.26Z" transform="translate(-9851.92 -17014.014)" fill="#262626" fill-rule="evenodd"/>
      <path id="Path_732" data-name="Path 732" d="M12099.732,18867.984c-.053.682.058.34.193.506.142-.055.518-.1.313-.482a.481.481,0,0,0-.208-.158c-.492-.176-.127-.006-.27.051A.852.852,0,0,0,12099.732,18867.984Z" transform="translate(-12076.475 -18846.824)" fill="#262626" fill-rule="evenodd"/>
      <path id="Path_733" data-name="Path 733" d="M9312.141,15696a.953.953,0,0,0-.137.986A.953.953,0,0,0,9312.141,15696Z" transform="translate(-9305.085 -15693.713)" fill="#262626" fill-rule="evenodd"/>
    </g>
  </g>
</svg>
