<svg xmlns="http://www.w3.org/2000/svg" xmlns:xlink="http://www.w3.org/1999/xlink" width="66.655" height="62.642" viewBox="0 0 66.655 62.642"><defs><linearGradient id="a" x1="0.2" y1="0.152" x2="0.603" y2="1" gradientUnits="objectBoundingBox"><stop offset="0" stop-color="#9e8bff"/><stop offset="1" stop-color="#5775ff"/></linearGradient></defs><g transform="translate(-839.923 -1309.54)"><g transform="translate(839.923 1323.04)"><path d="M27.341,18.752C44.495,9.865,60.423,17.183,60.423,33.87A30.215,30.215,0,0,1,30.209,64.084C13.521,64.084.711,45.2-.006,33.87S10.186,27.64,27.341,18.752Z" transform="translate(0.039 -14.942)" opacity="0.1" fill="url(#a)"/></g><g transform="translate(898.575 1310.262)"><line y1="3.312" x2="3.975" transform="translate(1.316 1.359) rotate(-20)" fill="none" stroke="#242a39" stroke-linecap="round" stroke-width="0.8"/><line y1="2.816" x2="0.994" transform="translate(0 1.133) rotate(-20)" fill="none" stroke="#242a39" stroke-linecap="round" stroke-width="0.8"/><path d="M0,.994,3.547,0" transform="translate(3.698 4.635) rotate(-20)" fill="none" stroke="#242a39" stroke-linecap="round" stroke-width="0.8"/></g><g transform="translate(864.408 1317.403)"><path d="M8169.094,15335.279c-2.965,1.7-5.424,3.965-8.359,5.553-2.966,1.612-6.344,2.773-7.288,3.3a7.941,7.941,0,0,1-2.361,1.168c-.379-2.408-1.113-3.288-1.274-4.376.588-.4.024-.008.371-.152l.282-.122c.209-.128.2-.178.412-.394,1.063-1.121,2.482-1.274,4.021-2.129.952-.533,1.483-1.033,2.428-1.662,1.441-.951,5.456-2.5,8.06-4.183,2.588-1.668,2.991-1.153,6.6-1.015a5.2,5.2,0,0,1-1.355,3.3,2.475,2.475,0,0,1-.886.58c-.476-.6-.742-1.363-1.185-1.974-1.145-1.605-.549-1.379-1.459-1.557C8166.611,15332.874,8168.579,15333.175,8169.094,15335.279Zm-5.659-22.578a58.927,58.927,0,0,1,10.552.578c.862.193,1.475.314,2.2.437l2.313.442c1.056,1.862-.5,18.17-.725,22.127-.145,2.621-.871,4.338-.976,6.869-.25,6.084,1.137,4.979-1.668,4.9-.823-.023-1.017.172-1.814.09-.484-.048-1.1-.194-1.572-.274a16.418,16.418,0,0,0-3.425-.339c-1.1.064-2.192-.177-3.588-.145a56.062,56.062,0,0,1-5.941.048c-.782-.161-.717-.312-.653-1.3.347-5.143.613-2.562,2.652-4.336.492-.426.162-.281.557-.717.58-.637,6.07-4.137,7.247-4.837,2.047-1.226,2.362.057,3.6-3.08.194-.476.233-.79.4-1.282.323-.925.693-.531.047-1.457-3.006.289-3.079.1-5.859-.589a.989.989,0,0,0,.064,1.073c-.789.128-3.539,1.988-4.627,2.5a30.774,30.774,0,0,1-4.917,2.167c.089-.925.282-1.812.307-2.812.032-1.033-.162-1.871-.113-2.772.1-2.4.806-16.428,1.2-17.01.7-1.006,3.467-.218,3.652-.208A9.522,9.522,0,0,0,8163.436,15312.7Zm18.347,40.665.451-.145a1.036,1.036,0,0,0,.411-.128c0-.421.049-.187-.081-.516l-.193-.371c-.016-.042-.04-.09-.057-.13-.442-1.186-.1-2.8-.048-3.91a52.96,52.96,0,0,1,.3-5.528c.862-5.232.323-10.947,1-16.244a25.454,25.454,0,0,0,.346-5.271c-.112-1.531,1.073-8.577-.089-9.666-.628-.587-.555-1.966-.709-2.86.9.057.992.443,1.621-.16-.289-.8-.6-.4-1.435-.735-1.611-.653-2.975-.291-5.417-.04-2.8.29-5.473-.138-8.141-.152a17.656,17.656,0,0,1-2.032-.17c-.75-.071-1.169-.291-1.685-.314-1.25-.05-2.58.227-3.8.063l-7.844-.087c-.958,2.063-.04,7.7-1.161,9.979l.211.185c.484.693.072,1.6-.017,2.41l-.733,8.166c-.072,3.33-.62,6.569-.741,9.843a4.536,4.536,0,0,1-.057.644c-.291,1.483-2.653,1.572-3.088,2.517-.307.652,1.531,5.166,2.023,5.665a25.586,25.586,0,0,1,3.12-2.022c1.055-.484.919.017,1.8-.4.437-.21.493-.314.872-.468,2.273-.888.386,3.182.613,3.91.4,1.272,3.78.669,4.763.627a5.665,5.665,0,0,1,1.121.25l4.063.041a9.908,9.908,0,0,1,1.177-.088c1.942.1,7.61,1.45,8.77.75.943-.582-.088-5.716.709-8.925.484-1.919.984-10.656,1.186-13.64.161-2.392.822-6.98.314-8.994-.186-.742.267-3.54.227-4.321-1.814-.234-3.507-.314-5.312-.612a28.394,28.394,0,0,0-5.409-.492c-2.362.1-4.941-.281-7.094-.048l-2.853-.08c-1.355-.059-.734.933-.854,1.693a4.091,4.091,0,0,0-.258,1.337c-.13,4.071-1.355,19.7-.968,21.41-1.411.644-2.08,1.595-4.5,2.2.646-2.861,1.152-12.042,1.242-15.437.064-2.458.709-4.933.732-7.6a31.476,31.476,0,0,1,.227-4.078l.234-2.959c.1-.637.379-.861,1.063-.781.912.1-.193.13.79.18a6.419,6.419,0,0,1,.911-.035c.451.081.363.13.556.4.984-.733,3.016-.572,4.645-.589a35.717,35.717,0,0,1,4.634.395c1.572.048,3.055.256,4.644.355.894.057,2.918.8,3.587.313l.314-.3c1.177-.009,2.361-.025,3.53-.009,1.2.017,1.878-.2,3.216-.145l-.4.75c1.5,2.465,1.168,7.575,1.16,10.583-.016,2.829-.871,19.629-1.208,21.876-.13.863-.3,1.573-.42,2.581l-.354,7.819c-2.007.176-5.457-.258-7.2.372-.031,0-1.37-.937-4.828-.873a16.749,16.749,0,0,1-2.62.024c-1.088-.192-2.684.356-3.8-.081-.355-.137.016-.348-1.113-.232a12.773,12.773,0,0,1-2.667.057c-1.75-.177-3.314-2.329-2.7.3l-3.266-.691.106-5.442c-1.339-.121-.588.451-1.274,1.024,1.5,1.644-.541,4.037,1.023,5.876a31.069,31.069,0,0,1,7.03-.13,11.686,11.686,0,0,1,3.394.5c2.007.8,4.8.564,6.981.8,1.812.192,1.676-.38,3.158-.428,2.556-.1,5.119-.211,7.722-.194l-.016,2.016.524-.267Z" transform="translate(-8148.755 -15307.001)" fill="#262626" fill-rule="evenodd"/><path d="M9740.518,17565.865c-.218-.725-.687-.482-1.394-.336a91.582,91.582,0,0,1-9.859.428c-3.007.059-2.917-.619-3.265.285C9727.008,17566.893,9739.374,17566.459,9740.518,17565.865Z" transform="translate(-9713.286 -17547.166)" fill="#262626" fill-rule="evenodd"/><path d="M9478.849,16281c-.429.169-.4.53-1.306.653l-5.748.232c-2.5.172-5.168.09-7.795.162.152.46-.08.611,1.668.467,3.08-.251,12.785-.073,13.882-.684C9479.444,16281.161,9479.34,16281.266,9478.849,16281Z" transform="translate(-9453.398 -16273.148)" fill="#262626" fill-rule="evenodd"/><path d="M8955.757,15444c-.547.282-.322.3-.249.928a76.844,76.844,0,0,1-.508,9.615.919.919,0,0,0,.168-.371c.017-.055.058-.216.073-.281l.251-2.03a17.245,17.245,0,0,0,.329-4.007,20.706,20.706,0,0,0,.308-2.789C8956.152,15444.151,8956.265,15444.312,8955.757,15444Z" transform="translate(-8948.501 -15442.895)" fill="#262626" fill-rule="evenodd"/><path d="M12087.918,19201c-.549,1.23-.484,6.078-.372,7.85.267-.137.291-3.367.308-4.209a11.362,11.362,0,0,1,.241-2.109C12088.3,19201.547,12088.594,19201.344,12087.918,19201Z" transform="translate(-12055.72 -19169.611)" fill="#262626" fill-rule="evenodd"/><path d="M9937.634,16699.734c.6-.09.322-.01.572-.379-.548-.363-.91-.121-1.877-.129l-3.718-.07c-1.3-.02-1.177-.156-1.61.2Z" transform="translate(-9916.634 -16687.893)" fill="#262626" fill-rule="evenodd"/><path d="M9572.007,18038l-4.006.307c.242.57,1.177.361,1.942.381C9570.944,18038.691,9571.92,18038.957,9572.007,18038Z" transform="translate(-9556.561 -18015.982)" fill="#262626" fill-rule="evenodd"/><path d="M12096,18203v.551a.74.74,0,0,0,.129.432,9.444,9.444,0,0,0,.5-2.312c.168-1.086.476-1.467-.542-1.67Z" transform="translate(-12064.182 -18176.678)" fill="#262626" fill-rule="evenodd"/><path d="M12192.219,16346a11.837,11.837,0,0,0-.065,3.256c.621-.154.566.041.46-1.973C12192.582,16346.6,12192.849,16346.225,12192.219,16346Z" transform="translate(-12159.466 -16337.625)" fill="#262626" fill-rule="evenodd"/><path d="M9142.472,15599c-.307.514-.129.514-.074.814.324,1.885-.387,2.247.371,2.448.082-.549.162-1.337.2-1.788.008-.128,0-.961-.023-1.048C9142.737,15598.711,9142.892,15599.17,9142.472,15599Z" transform="translate(-9134.288 -15596.647)" fill="#262626" fill-rule="evenodd"/><path d="M12313.258,16405.633c.307-.939.6-2.215-.259-2.635Z" transform="translate(-12279.432 -16394.164)" fill="#262626" fill-rule="evenodd"/><path d="M9863.789,17024.313a2.035,2.035,0,0,0-1.789.018c.25.461-.105.395.863.355C9863.629,17024.654,9863.619,17024.477,9863.789,17024.313Z" transform="translate(-9848.189 -17010.271)" fill="#262626" fill-rule="evenodd"/><path d="M12099.735,18868.061c-.07.936.081.467.267.7.193-.076.709-.139.429-.664a.7.7,0,0,0-.284-.215c-.677-.242-.176-.01-.37.07C12099.769,18867.986,12099.735,18868.037,12099.735,18868.061Z" transform="translate(-12067.869 -18839.066)" fill="#262626" fill-rule="evenodd"/><path d="M9312.22,15696a1.3,1.3,0,0,0-.187,1.354A1.323,1.323,0,0,0,9312.22,15696Z" transform="translate(-9302.551 -15692.864)" fill="#262626" fill-rule="evenodd"/></g></g></svg>