<svg xmlns="http://www.w3.org/2000/svg" width="36.769" height="31.653" viewBox="0 0 36.769 31.653">
  <g id="flexiblerepayment-mob" transform="translate(-998.501 -3255.164)">
    <g id="_294_online_payment_flatline" data-name="#294_online_payment_flatline" transform="translate(998.501 3255.164)">
      <path id="Path_2403" data-name="Path 2403" d="M309.14,54.915s-.34-.628-.88-1.495c0,0-1.734,1.3-1.721,1.223S309.14,54.915,309.14,54.915Z" transform="translate(-272.524 -51.799)" fill="#231f20"/>
      <path id="Path_2404" data-name="Path 2404" d="M308.682,54.562h-.01c-.912-.122-2.4-.3-2.564-.28-.043.018-.056.009-.07,0A.079.079,0,0,1,306,54.2c0-.021.009-.041.057-.053h0c.1-.04,1.091-.766,1.691-1.215a.072.072,0,0,1,.057-.013.07.07,0,0,1,.048.032c.541.86.88,1.493.889,1.5a.073.073,0,0,1-.065.109Zm-2.347-.417c.32.018.952.087,2.208.252-.122-.219-.4-.7-.772-1.3-.783.587-1.2.89-1.432,1.044Z" transform="translate(-272.065 -51.373)" fill="#231f20"/>
      <path id="Path_2405" data-name="Path 2405" d="M162.616,227.266l-.865-1.443,1.2-1.083Z" transform="translate(-148.974 -197.987)" fill="#231f20"/>
      <path id="Path_2406" data-name="Path 2406" d="M162.189,226.914a.076.076,0,0,1-.063-.035l-.866-1.443a.073.073,0,0,1,.015-.092l1.2-1.083a.073.073,0,0,1,.084-.01.075.075,0,0,1,.038.075l-.332,2.522a.073.073,0,0,1-.059.063Zm-.772-1.5.733,1.21.279-2.12Z" transform="translate(-148.548 -197.561)" fill="#231f20"/>
      <path id="Path_2407" data-name="Path 2407" d="M167.039,80.583l13.936,1.985a1.212,1.212,0,0,0,1.32-.855l7.212-26.977a.855.855,0,0,0-.8-1.1L174.5,52.491a1.254,1.254,0,0,0-1.265.9l-6.92,26.085a.868.868,0,0,0,.728,1.109Z" transform="translate(-152.836 -51.005)" fill="#231f20"/>
      <path id="Path_2408" data-name="Path 2408" d="M180.678,82.232a1.321,1.321,0,0,1-.169-.012l-13.936-1.986h0a.946.946,0,0,1-.67-.412.968.968,0,0,1-.119-.792l6.92-26.081a1.336,1.336,0,0,1,1.342-.956l14.21,1.146a.983.983,0,0,1,.733.4.933.933,0,0,1,.126.792L181.9,81.306A1.292,1.292,0,0,1,180.678,82.232ZM166.6,80.089l13.936,1.986a1.14,1.14,0,0,0,1.243-.8L188.98,54.3a.783.783,0,0,0-.1-.67.832.832,0,0,0-.631-.337l-14.21-1.15a1.174,1.174,0,0,0-1.188.844l-6.915,26.085a.82.82,0,0,0,.1.673.807.807,0,0,0,.569.348Z" transform="translate(-152.385 -50.579)" fill="#231f20"/>
      <path id="Path_2409" data-name="Path 2409" d="M160.843,70.464l13.936,1.985a1.215,1.215,0,0,0,1.32-.855l7.21-26.977a.855.855,0,0,0-.8-1.1L168.3,42.371a1.257,1.257,0,0,0-1.266.9L160.114,69.35a.868.868,0,0,0,.729,1.113Z" transform="translate(-147.547 -42.37)" fill="#9e8bff"/>
      <path id="Path_2411" data-name="Path 2411" d="M191.95,62.45,177.4,61.19,171.82,82.235l14.335,1.906Z" transform="translate(-157.567 -58.429)" fill="#6150bb"/>
      <path id="Path_2412" data-name="Path 2412" d="M248.048,160.926a.072.072,0,0,1-.066-.043l-2.934-6.2a.073.073,0,1,1,.132-.063l2.934,6.205a.072.072,0,0,1-.035.1A.08.08,0,0,1,248.048,160.926Z" transform="translate(-220.047 -138.114)" fill="#fff"/>
      <path id="Path_2413" data-name="Path 2413" d="M201.74,219.874l2.72.383a.733.733,0,0,0,.794-.522l.27-1.014a.546.546,0,0,0-.469-.7l-2.723-.37a.733.733,0,0,0-.783.522l-.268,1a.541.541,0,0,0,.461.692Z" transform="translate(-182.686 -191.937)" fill="#fff"/>
      <path id="Path_2415" data-name="Path 2415" d="M255.136,54.573h0l-4.156-.348a.074.074,0,1,1,.013-.147l4.154.346a.073.073,0,1,1,0,.147Z" transform="translate(-225.057 -52.36)" fill="#fff"/>
      <path id="Path_2416" data-name="Path 2416" d="M243.845,53.631h0l-.552-.045a.072.072,0,0,1-.066-.079.075.075,0,0,1,.079-.067l.55.047a.073.073,0,1,1,0,.147Z" transform="translate(-218.499 -51.815)" fill="#fff"/>
      <path id="Path_2417" data-name="Path 2417" d="M216.306,101.769s1.787-5.891.238-7.2l-7.581-.912a6.419,6.419,0,0,0-1.488,2.394c-.188,1.04-1.76,3.255-1.174,4.577Z" transform="translate(-186.879 -86.136)" fill="#231f20"/>
      <path id="Path_2418" data-name="Path 2418" d="M215.886,101.413h-.007l-10.006-1.14a.075.075,0,0,1-.059-.043c-.406-.918.188-2.243.666-3.308a6.664,6.664,0,0,0,.5-1.311,6.372,6.372,0,0,1,1.507-2.432.073.073,0,0,1,.062-.022l7.581.914a.079.079,0,0,1,.038.016c1.568,1.32-.147,7.033-.214,7.275A.073.073,0,0,1,215.886,101.413Zm-9.949-1.281,9.9,1.128c.179-.613,1.644-5.83.26-7.041l-7.523-.907a6.211,6.211,0,0,0-1.443,2.331,6.864,6.864,0,0,1-.509,1.345C206.166,98.005,205.589,99.274,205.937,100.132Z" transform="translate(-186.459 -85.706)" fill="#231f20"/>
      <line id="Line_139" data-name="Line 139" x2="12.67" y2="1.778" transform="translate(17.473 13.955)" fill="#fff"/>
      <path id="Path_2419" data-name="Path 2419" d="M206.018,138.93h-.01l-12.67-1.778a.073.073,0,0,1,.021-.145l12.67,1.778a.073.073,0,0,1-.01.145Z" transform="translate(-175.875 -123.123)" fill="#231f20"/>
      <path id="Path_2420" data-name="Path 2420" d="M179.97,94.6s-.769.106-1.24,1.7c-.72,2.447-1.669,7.611-2.269,9.553a4.479,4.479,0,0,1-3.227,3.227l-9.924-1.439s4.039-1.4,4.721-3.779c.717-2.507,1.71-7.244,1.979-8.3a2.512,2.512,0,0,1,2.384-1.873Z" transform="translate(-150.306 -86.162)" fill="#fff"/>
      <path id="Path_2421" data-name="Path 2421" d="M172.775,108.7h-.01l-9.924-1.439a.075.075,0,0,1-.063-.066.073.073,0,0,1,.048-.076c.041-.013,4.012-1.416,4.675-3.73.5-1.738,1.135-4.581,1.556-6.463.189-.843.339-1.511.421-1.835a2.6,2.6,0,0,1,2.456-1.929l7.59.914a.073.073,0,0,1,.065.072.075.075,0,0,1-.063.073c-.012,0-.734.133-1.174,1.652-.365,1.238-.786,3.169-1.2,5.036-.4,1.829-.777,3.557-1.074,4.518a4.81,4.81,0,0,1-1.975,2.711,3.861,3.861,0,0,1-1.32.563Zm-9.634-1.543,9.632,1.4a4.436,4.436,0,0,0,3.163-3.172c.293-.955.673-2.68,1.072-4.505.408-1.87.832-3.8,1.2-5.046a2.721,2.721,0,0,1,1.027-1.644l-7.307-.88a2.416,2.416,0,0,0-2.3,1.821c-.081.321-.23.987-.42,1.831-.422,1.884-1.061,4.729-1.559,6.472a5.59,5.59,0,0,1-2.649,2.824A13.714,13.714,0,0,1,163.142,107.156Z" transform="translate(-149.851 -85.709)" fill="#231f20"/>
      <path id="Path_2422" data-name="Path 2422" d="M236.123,176.089h-.009l-1.342-.147a.073.073,0,0,1-.065-.081.072.072,0,0,1,.081-.065l1.344.147a.073.073,0,0,1,.065.081A.075.075,0,0,1,236.123,176.089Z" transform="translate(-211.229 -156.223)" fill="#d1d3d4"/>
      <path id="Path_2423" data-name="Path 2423" d="M203.969,172.408h-.009l-4.018-.456a.073.073,0,0,1-.065-.081.072.072,0,0,1,.081-.065l4.019.455a.073.073,0,0,1-.009.147Z" transform="translate(-181.508 -152.818)" fill="#d1d3d4"/>
      <path id="Path_2424" data-name="Path 2424" d="M228.574,186.53h-.009l-1.234-.147a.074.074,0,1,1,.018-.147l1.234.147a.073.073,0,1,1-.009.147Z" transform="translate(-204.88 -165.132)" fill="#d1d3d4"/>
      <path id="Path_2425" data-name="Path 2425" d="M195.608,182.8H195.6l-3.842-.44a.074.074,0,0,1,.016-.147l3.843.44a.073.073,0,0,1,.065.081A.075.075,0,0,1,195.608,182.8Z" transform="translate(-174.524 -161.702)" fill="#d1d3d4"/>
      <path id="Path_2426" data-name="Path 2426" d="M161.087,162.862A5.048,5.048,0,0,1,159.5,158.6L149.08,156.72s.893,3.487,2.082,4.7Z" transform="translate(-138.163 -139.945)" fill="#fff"/>
      <path id="Path_2427" data-name="Path 2427" d="M160.664,162.5h-.01l-9.924-1.439a.079.079,0,0,1-.043-.022c-1.188-1.216-2.064-4.593-2.1-4.737a.072.072,0,0,1,.018-.067.073.073,0,0,1,.067-.023l10.415,1.879a.075.075,0,0,1,.059.081,5.019,5.019,0,0,0,1.567,4.2.072.072,0,0,1-.047.129Zm-9.889-1.581,9.67,1.4a5.181,5.181,0,0,1-1.454-4.1l-10.234-1.847C148.923,156.979,149.741,159.84,150.776,160.921Z" transform="translate(-137.74 -139.512)" fill="#231f20"/>
      <path id="Path_2428" data-name="Path 2428" d="M221.082,110.348h-.007l-6.455-.733a.072.072,0,0,1-.065-.082.073.073,0,0,1,.081-.065l6.455.733a.073.073,0,1,1-.007.147Z" transform="translate(-194.033 -99.624)" fill="#d1d3d4"/>
      <path id="Path_2429" data-name="Path 2429" d="M249.732,125.131h-.009l-1.212-.138a.074.074,0,1,1,.018-.147l1.21.136a.073.073,0,1,1-.007.147Z" transform="translate(-222.953 -112.747)" fill="#d1d3d4"/>
      <path id="Path_2430" data-name="Path 2430" d="M216.722,121.384h0l-3.884-.44a.074.074,0,1,1,.016-.147l3.884.44a.073.073,0,1,1-.009.147Z" transform="translate(-192.512 -109.292)" fill="#d1d3d4"/>
      <path id="Path_2431" data-name="Path 2431" d="M242.447,135.17h-.009l-2-.226a.074.074,0,0,1,.018-.147l2,.227a.072.072,0,0,1,.065.081A.073.073,0,0,1,242.447,135.17Z" transform="translate(-216.067 -121.238)" fill="#d1d3d4"/>
      <path id="Path_2432" data-name="Path 2432" d="M212.608,131.747H212.6l-2.532-.293a.074.074,0,0,1,.016-.147l2.533.286a.078.078,0,0,1-.009.154Z" transform="translate(-190.148 -118.26)" fill="#d1d3d4"/>
      <path id="Path_2433" data-name="Path 2433" d="M242.056,145.34h-.009l-1.665-.2a.075.075,0,0,1-.065-.082A.076.076,0,0,1,240.4,145l1.664.189a.073.073,0,1,1-.007.147Z" transform="translate(-216.016 -129.943)" fill="#d1d3d4"/>
      <path id="Path_2434" data-name="Path 2434" d="M210.763,141.835h-.009l-3.012-.342a.073.073,0,0,1-.065-.081.075.075,0,0,1,.082-.065l3.01.342a.073.073,0,1,1,0,.147Z" transform="translate(-188.164 -126.827)" fill="#d1d3d4"/>
      <path id="Path_2435" data-name="Path 2435" d="M240.789,156.569h0l-1.477-.167a.073.073,0,0,1-.065-.081.072.072,0,0,1,.081-.065l1.477.167a.073.073,0,0,1-.009.147Z" transform="translate(-215.103 -139.549)" fill="#d1d3d4"/>
      <path id="Path_2436" data-name="Path 2436" d="M209.4,153.012H209.4l-4.053-.461a.073.073,0,0,1-.065-.081.072.072,0,0,1,.081-.065l4.053.459a.073.073,0,1,1-.007.147Z" transform="translate(-186.116 -136.264)" fill="#d1d3d4"/>
      <path id="Path_2437" data-name="Path 2437" d="M236.551,165.331h-.009l-1.76-.2a.073.073,0,0,1-.065-.081.072.072,0,0,1,.081-.065l1.76.2a.073.073,0,0,1-.009.147Z" transform="translate(-211.238 -146.999)" fill="#d1d3d4"/>
      <path id="Path_2438" data-name="Path 2438" d="M206.744,161.954h0l-3.9-.44a.074.074,0,0,1,.016-.147l3.9.44a.073.073,0,1,1-.009.147Z" transform="translate(-183.987 -143.911)" fill="#d1d3d4"/>
      <rect id="Rectangle_2487" data-name="Rectangle 2487" width="10.377" height="14.645" rx="2" transform="translate(6.369 16.834) rotate(-114.95)" fill="#9e8bff"/>
      <rect id="Rectangle_2488" data-name="Rectangle 2488" width="3.745" height="3.157" rx="1.578" transform="translate(13.426 7.828) rotate(-114.95)" fill="#ffb971"/>
      <rect id="Rectangle_2489" data-name="Rectangle 2489" width="1.065" height="3.81" rx="0.533" transform="translate(4.22 9.155) rotate(-114.95)" fill="#fff"/>
      <rect id="Rectangle_2490" data-name="Rectangle 2490" width="1.102" height="2.602" rx="0.551" transform="translate(15.352 10.657) rotate(-114.95)" fill="#fff"/>
      <rect id="Rectangle_2491" data-name="Rectangle 2491" width="1.102" height="2.602" rx="0.551" transform="translate(12.493 11.988) rotate(-114.95)" fill="#fff"/>
      <rect id="Rectangle_2492" data-name="Rectangle 2492" width="1.102" height="2.602" rx="0.551" transform="translate(9.633 13.317) rotate(-114.95)" fill="#fff"/>
      <rect id="Rectangle_2493" data-name="Rectangle 2493" width="1.102" height="2.602" rx="0.551" transform="translate(6.775 14.647) rotate(-114.95)" fill="#fff"/>
      <path id="Path_2440" data-name="Path 2440" d="M248.773,73.246a.072.072,0,0,1-.062-.034l-1.967-3.081a.073.073,0,0,1,.123-.079l1.967,3.081a.073.073,0,0,1-.022.1A.066.066,0,0,1,248.773,73.246Z" transform="translate(-221.492 -65.966)" fill="#fff"/>
      <path id="Path_2441" data-name="Path 2441" d="M213.8,73.758a.075.075,0,0,1-.066-.04l-1-1.941a.072.072,0,0,1,.031-.1.073.073,0,0,1,.1.031l1,1.941a.075.075,0,0,1-.031.1A.1.1,0,0,1,213.8,73.758Z" transform="translate(-192.468 -67.372)" fill="#fff"/>
      <path id="Path_2442" data-name="Path 2442" d="M80.046,144.154l-.615.706c-.392.49-1.637.147-2.778-.77s-1.752-2.052-1.355-2.544l.616-.706Z" transform="translate(-75.101 -126.395)" fill="#ffb971"/>
      <path id="Path_2443" data-name="Path 2443" d="M78.41,144.73a4.061,4.061,0,0,1-2.244-1.011,5,5,0,0,1-1.273-1.454c-.271-.509-.305-.932-.1-1.193l.618-.709a.073.073,0,0,1,.1-.009l4.137,3.308a.069.069,0,0,1,.028.05.078.078,0,0,1-.018.056l-.616.706A.776.776,0,0,1,78.41,144.73Zm-2.934-4.216-.568.656c-.166.207-.125.587.113,1.027a4.841,4.841,0,0,0,1.237,1.41c1.09.88,2.315,1.231,2.676.782l.566-.651Z" transform="translate(-74.661 -125.968)" fill="#231f20"/>
      <ellipse id="Ellipse_684" data-name="Ellipse 684" cx="1.135" cy="2.651" rx="1.135" ry="2.651" transform="matrix(0.625, -0.781, 0.781, 0.625, 0.097, 15.33)" fill="#ffb971"/>
      <path id="Path_2444" data-name="Path 2444" d="M82.6,142.726a4.056,4.056,0,0,1-2.243-1.009,4.988,4.988,0,0,1-1.275-1.454c-.271-.509-.305-.932-.1-1.193h0c.208-.261.629-.321,1.184-.167a4.987,4.987,0,0,1,1.7.926c1.193.955,1.794,2.117,1.37,2.641A.78.78,0,0,1,82.6,142.726Zm-2.976-3.758a.641.641,0,0,0-.522.194h0c-.169.21-.128.587.111,1.027a4.841,4.841,0,0,0,1.235,1.41c1.09.88,2.316,1.231,2.676.782s-.257-1.568-1.348-2.441a4.817,4.817,0,0,0-1.644-.9A1.885,1.885,0,0,0,79.626,138.968Zm-.587.147Z" transform="translate(-78.238 -124.671)" fill="#231f20"/>
      <path id="Path_2445" data-name="Path 2445" d="M85.218,143.461l.268.255h.031c.087.016.169.028.257.05a2.03,2.03,0,0,1,.645.3,1.7,1.7,0,0,1,.33.293.414.414,0,0,1,.116.223.147.147,0,0,1-.082.147c-.043.029-.089.056-.136.085l.5.48c.087-.062.048-.166-.07-.293l.31-.053a.933.933,0,0,1,.226.293.239.239,0,0,1-.025.268c-.031.034-.073.063-.111.1l.183.175-.293.092-.188-.177h-.27a1.517,1.517,0,0,1-.521-.147,1.8,1.8,0,0,1-.587-.417c-.169-.185-.205-.33-.1-.428a.691.691,0,0,1,.238-.133l.035-.013-.512-.484H85.45a.424.424,0,0,0-.023.1.318.318,0,0,0,.107.169l-.48.029c-.038-.041-.076-.081-.11-.12-.123-.147-.17-.268-.132-.364a.314.314,0,0,1,.252-.163c.016,0,.016-.009,0-.025-.092-.085-.183-.172-.274-.258Zm1.159,1.482c-.045.037-.1.065-.092.133a.567.567,0,0,0,.32.263.61.61,0,0,0,.227.035Zm-.117-.491c.04-.022.079-.04.085-.079.01-.073-.147-.213-.308-.271-.069-.026-.135-.041-.211-.063Z" transform="translate(-83.304 -128.613)" fill="#fff"/>
      <path id="Path_2446" data-name="Path 2446" d="M112.926,214.17l.359.864c.264.569-.6,1.53-1.923,2.149s-2.617.657-2.883.089l-.359-.865Z" transform="translate(-103.212 -188.968)" fill="#ffb971"/>
      <path id="Path_2447" data-name="Path 2447" d="M109.026,217.364c-.512,0-.89-.147-1.027-.44l-.361-.867a.075.075,0,0,1,.037-.1l4.806-2.237a.071.071,0,0,1,.057,0,.075.075,0,0,1,.041.041l.359.864c.285.612-.575,1.6-1.96,2.243A4.861,4.861,0,0,1,109.026,217.364Zm-1.226-1.306.332.8c.242.519,1.517.462,2.787-.128s2.13-1.529,1.887-2.054l-.33-.8Z" transform="translate(-102.796 -188.582)" fill="#231f20"/>
      <ellipse id="Ellipse_685" data-name="Ellipse 685" cx="2.651" cy="1.135" rx="2.651" ry="1.135" transform="translate(4.428 26.412) rotate(-24.97)" fill="#ffb971"/>
      <path id="Path_2448" data-name="Path 2448" d="M108.345,214.138c-.528,0-.89-.156-1.027-.44-.293-.613.574-1.6,1.958-2.244s2.693-.669,2.979-.054-.574,1.6-1.958,2.246a5.007,5.007,0,0,1-1.869.5Zm2.894-3.031a4.76,4.76,0,0,0-1.9.481c-1.266.587-2.13,1.529-1.888,2.054.114.244.472.373.974.358a4.826,4.826,0,0,0,1.812-.483c1.266-.587,2.13-1.529,1.887-2.054C112.014,211.218,111.686,211.108,111.24,211.108Z" transform="translate(-102.479 -186.224)" fill="#231f20"/>
      <path id="Path_2449" data-name="Path 2449" d="M112.708,216.079l.348-.128.019-.025a1.935,1.935,0,0,1,.716-.648,1.7,1.7,0,0,1,.411-.164.407.407,0,0,1,.251,0,.147.147,0,0,1,.091.135c0,.051.01.106.015.16l.654-.239c-.018-.106-.126-.117-.293-.067l.089-.293a.946.946,0,0,1,.368-.07.235.235,0,0,1,.229.147,1.172,1.172,0,0,1,.038.147l.238-.087-.047.3-.242.091c-.041.081-.076.158-.123.241a1.514,1.514,0,0,1-.358.4,1.744,1.744,0,0,1-.632.339c-.241.07-.386.038-.428-.1a.689.689,0,0,1-.015-.271v-.038l-.66.245-.012.01a.357.357,0,0,0,.076.063.31.31,0,0,0,.2-.021l-.186.44c-.054.016-.106.032-.155.044-.186.047-.317.035-.386-.043a.312.312,0,0,1-.034-.293c0-.015,0-.018-.023-.009l-.354.131Zm1.843-.381c.013.057.012.122.078.147a.519.519,0,0,0,.378-.17.61.61,0,0,0,.132-.189Zm-.493-.113c0-.044,0-.089-.034-.112-.06-.041-.254.037-.38.156-.053.05-.1.1-.147.161Z" transform="translate(-106.949 -189.452)" fill="#fff"/>
      <path id="Path_2450" data-name="Path 2450" d="M115.669,170.057c-.522.87.063,2.8.063,2.8l.773.563a2.449,2.449,0,1,0,2.525-4.2l-.857-.421S116.191,169.189,115.669,170.057Z" transform="translate(-109.468 -150.253)" fill="#ffb971"/>
      <path id="Path_2451" data-name="Path 2451" d="M117.333,173.405a2.516,2.516,0,0,1-1.294-.361l-.78-.566a.075.075,0,0,1-.026-.038c-.025-.081-.587-1.97-.056-2.858h0c.534-.88,2.467-1.275,2.55-1.291a.082.082,0,0,1,.045,0l.86.421a2.523,2.523,0,0,1-1.3,4.687Zm-1.967-1.027.754.547a2.375,2.375,0,0,0,2.442-4.074l-.832-.406c-.224.047-1.958.44-2.428,1.218h0c-.469.783,0,2.491.063,2.711Zm-.126-2.753Z" transform="translate(-109.039 -149.816)" fill="#231f20"/>
      <circle id="Ellipse_686" data-name="Ellipse 686" cx="2.448" cy="2.448" r="2.448" transform="translate(5.318 18.297)" fill="#ffb971"/>
      <path id="Path_2452" data-name="Path 2452" d="M112.94,171.663a2.522,2.522,0,1,1,1.3-4.684h0a2.522,2.522,0,0,1-1.3,4.684Zm.009-4.9a2.375,2.375,0,1,0,1.219.339,2.375,2.375,0,0,0-1.219-.339Z" transform="translate(-105.178 -148.393)" fill="#231f20"/>
      <path id="Path_2453" data-name="Path 2453" d="M116.764,175.211l.305.185c.021.012.031.01.045-.007a1.068,1.068,0,0,1,.44-.293.769.769,0,0,1,.543.012c.047.019.092.041.147.063l-.285.472a.367.367,0,0,0-.238-.047,1.719,1.719,0,0,0-.186.06v.012l.587.355.043-.044a1.955,1.955,0,0,1,.342-.293.623.623,0,0,1,.641-.053.814.814,0,0,1,.44.431.823.823,0,0,1,.05.506c-.022.106-.057.21-.088.318l.229.138-.261.44-.235-.147c-.078.073-.147.147-.222.211a.863.863,0,0,1-.524.213.841.841,0,0,1-.471-.131l.279-.465a.43.43,0,0,0,.516-.078l-.632-.378c-.078.072-.155.147-.235.217a.785.785,0,0,1-.33.189.622.622,0,0,1-.383-.026.868.868,0,0,1-.387-.271.791.791,0,0,1-.16-.651c.018-.092.054-.182.081-.271a.039.039,0,0,1,.012-.032l-.317-.191Zm2.359,1.417a.44.44,0,0,0,.032-.245.293.293,0,0,0-.308-.239.574.574,0,0,0-.266.16Zm-1.9-.547a1.422,1.422,0,0,0-.015.217.271.271,0,0,0,.337.241.587.587,0,0,0,.2-.147Z" transform="translate(-110.371 -155.587)" fill="#fff"/>
    </g>
  </g>
</svg>
