<svg xmlns="http://www.w3.org/2000/svg" xmlns:xlink="http://www.w3.org/1999/xlink" width="115.557" height="104.173" viewBox="0 0 115.557 104.173">
  <defs>
    <radialGradient id="radial-gradient" cx="0.347" cy="0.305" r="0.5" gradientUnits="objectBoundingBox">
      <stop offset="0" stop-color="#ffd3a5"/>
      <stop offset="1" stop-color="#ffb971"/>
    </radialGradient>
    <linearGradient id="linear-gradient" x1="0.814" y1="0.873" x2="0.042" y2="0.58" gradientUnits="objectBoundingBox">
      <stop offset="0" stop-color="#ffb971"/>
      <stop offset="1" stop-color="#ffb971" stop-opacity="0.569"/>
    </linearGradient>
  </defs>
  <g id="flexiblerepayment-web" transform="translate(-998.501 -3239.56)">
    <circle id="Ellipse_688" data-name="Ellipse 688" cx="3.758" cy="3.758" r="3.758" transform="translate(1082.902 3253.527)" fill="url(#radial-gradient)"/>
    <circle id="Ellipse_687" data-name="Ellipse 687" cx="4.322" cy="4.322" r="4.322" transform="translate(1092.344 3288.445) rotate(-7)" fill="url(#linear-gradient)"/>
    <path id="Path_2454" data-name="Path 2454" d="M0,.032S11.428-.821,17.523,6.29" transform="translate(1092.707 3272.701) rotate(-25)" fill="none" stroke="#ffe3c7" stroke-linecap="round" stroke-width="3"/>
    <path id="Path_2455" data-name="Path 2455" d="M0,7.671S1.308,4.8,3.749,4.429s6.131,2,9.1.766S17.766,0,17.766,0" transform="matrix(-0.326, 0.946, -0.946, -0.326, 1078.037, 3244.246)" fill="none" stroke="#ffb971" stroke-linecap="round" stroke-width="2.6"/>
    <g id="_294_online_payment_flatline" data-name="#294_online_payment_flatline" transform="translate(923.84 3230.07)">
      <path id="Path_2403" data-name="Path 2403" d="M312.425,56.8s-.77-1.421-1.992-3.383c0,0-3.924,2.931-3.894,2.769S312.425,56.8,312.425,56.8Z" transform="translate(-154.904 -7.716)" fill="#231f20"/>
      <path id="Path_2404" data-name="Path 2404" d="M312.066,56.635h-.023c-2.065-.276-5.434-.684-5.8-.634-.1.04-.126.02-.159,0a.179.179,0,0,1-.076-.179c0-.046.02-.093.129-.12h0c.226-.09,2.47-1.733,3.827-2.749a.163.163,0,0,1,.129-.03.159.159,0,0,1,.11.073c1.225,1.945,1.992,3.379,2.012,3.393a.166.166,0,0,1-.146.246Zm-5.311-.943c.724.04,2.154.2,5,.571-.276-.495-.9-1.58-1.746-2.935-1.773,1.328-2.719,2.015-3.24,2.364Z" transform="translate(-154.545 -7.383)" fill="#231f20"/>
      <path id="Path_2405" data-name="Path 2405" d="M163.709,230.456l-1.959-3.267,2.712-2.45Z" transform="translate(-58.179 -122.165)" fill="#231f20"/>
      <path id="Path_2406" data-name="Path 2406" d="M163.375,230.289a.173.173,0,0,1-.143-.08l-1.959-3.266a.166.166,0,0,1,.033-.209l2.709-2.45a.166.166,0,0,1,.189-.023.169.169,0,0,1,.086.169l-.75,5.706a.166.166,0,0,1-.133.143Zm-1.746-3.4,1.66,2.739.631-4.8Z" transform="translate(-57.845 -121.832)" fill="#231f20"/>
      <path id="Path_2407" data-name="Path 2407" d="M168,116.063l31.536,4.491a2.742,2.742,0,0,0,2.988-1.935l16.319-61.047a1.935,1.935,0,0,0-1.813-2.486l-32.157-2.593a2.838,2.838,0,0,0-2.861,2.032l-15.659,59.029a1.965,1.965,0,0,0,1.647,2.51Z" transform="translate(-61.202 -7.095)" fill="#231f20"/>
      <path id="Path_2408" data-name="Path 2408" d="M199.535,120.424a2.986,2.986,0,0,1-.382-.027L167.617,115.9h0a2.141,2.141,0,0,1-1.517-.933,2.191,2.191,0,0,1-.269-1.793L181.49,54.158a3.024,3.024,0,0,1,3.037-2.164l32.157,2.593a2.224,2.224,0,0,1,1.66.9,2.111,2.111,0,0,1,.285,1.793L202.31,118.329A2.925,2.925,0,0,1,199.535,120.424Zm-31.868-4.85,31.536,4.495a2.579,2.579,0,0,0,2.812-1.816l16.306-61.044a1.773,1.773,0,0,0-.236-1.517,1.882,1.882,0,0,0-1.427-.764l-32.157-2.6a2.656,2.656,0,0,0-2.689,1.909l-15.649,59.029a1.856,1.856,0,0,0,.222,1.524,1.826,1.826,0,0,0,1.288.787Z" transform="translate(-60.849 -6.761)" fill="#231f20"/>
      <path id="Path_2409" data-name="Path 2409" d="M161.811,105.943l31.536,4.491a2.749,2.749,0,0,0,2.988-1.935l16.316-61.047a1.935,1.935,0,0,0-1.812-2.486l-32.164-2.593A2.845,2.845,0,0,0,175.81,44.4l-15.649,59.019a1.965,1.965,0,0,0,1.65,2.52Z" transform="translate(-57.061 -0.334)" fill="#9e8bff"/>
      <path id="Path_2411" data-name="Path 2411" d="M217.371,64.042l-32.92-2.852L171.82,108.813l32.439,4.312Z" transform="translate(-64.906 -12.907)" fill="#6150bb"/>
      <path id="Path_2412" data-name="Path 2412" d="M251.846,168.947a.163.163,0,0,1-.149-.1l-6.639-14.039a.166.166,0,1,1,.3-.143l6.639,14.042a.163.163,0,0,1-.08.219A.18.18,0,0,1,251.846,168.947Z" transform="translate(-113.82 -75.291)" fill="#fff"/>
      <path id="Path_2413" data-name="Path 2413" d="M202.35,222.683l6.155.866a1.66,1.66,0,0,0,1.8-1.182l.611-2.294a1.235,1.235,0,0,0-1.062-1.577l-6.161-.837a1.66,1.66,0,0,0-1.773,1.182l-.607,2.274a1.225,1.225,0,0,0,1.042,1.567Z" transform="translate(-84.571 -117.429)" fill="#fff"/>
      <path id="Path_2415" data-name="Path 2415" d="M260.469,55.2h0l-9.4-.787a.167.167,0,0,1,.03-.332l9.4.783a.166.166,0,1,1,0,.332Z" transform="translate(-117.743 -8.156)" fill="#fff"/>
      <path id="Path_2416" data-name="Path 2416" d="M244.626,53.874h0l-1.248-.1a.163.163,0,0,1-.149-.179.169.169,0,0,1,.179-.153l1.245.106a.166.166,0,1,1,0,.332Z" transform="translate(-112.609 -7.729)" fill="#fff"/>
      <path id="Path_2417" data-name="Path 2417" d="M229.106,112.011s4.043-13.331.538-16.286L212.488,93.66s-2.941,3.064-3.366,5.418-3.984,7.366-2.656,10.357Z" transform="translate(-87.854 -34.598)" fill="#231f20"/>
      <path id="Path_2418" data-name="Path 2418" d="M228.777,111.84h-.017l-22.643-2.579a.169.169,0,0,1-.133-.1c-.92-2.078.425-5.076,1.507-7.486a15.079,15.079,0,0,0,1.129-2.968c.428-2.377,3.286-5.378,3.409-5.5a.166.166,0,0,1,.139-.05l17.156,2.068a.179.179,0,0,1,.086.037c3.549,2.988-.332,15.914-.485,16.462A.166.166,0,0,1,228.777,111.84Zm-22.513-2.9,22.394,2.553c.4-1.388,3.721-13.192.588-15.934L212.222,93.51c-.4.438-2.888,3.174-3.266,5.275a15.534,15.534,0,0,1-1.152,3.044C206.781,104.129,205.476,107,206.263,108.942Z" transform="translate(-87.525 -34.262)" fill="#231f20"/>
      <line id="Line_139" data-name="Line 139" x2="28.671" y2="4.023" transform="translate(114.2 73.615)" fill="#fff"/>
      <path id="Path_2419" data-name="Path 2419" d="M222.111,141.359h-.023l-28.671-4.023a.166.166,0,0,1,.046-.329l28.671,4.023a.165.165,0,0,1-.023.329Z" transform="translate(-79.239 -63.555)" fill="#231f20"/>
      <path id="Path_2420" data-name="Path 2420" d="M201.011,95.745s-1.739.239-2.805,3.857c-1.63,5.537-3.778,17.222-5.135,21.617-1.992,6.394-7.3,7.3-7.3,7.3l-22.457-3.257s9.139-3.167,10.682-8.551c1.623-5.673,3.871-16.392,4.478-18.786a5.684,5.684,0,0,1,5.394-4.239Z" transform="translate(-59.221 -34.618)" fill="#fff"/>
      <path id="Path_2421" data-name="Path 2421" d="M185.4,128.324h-.023l-22.457-3.257a.169.169,0,0,1-.143-.149.166.166,0,0,1,.11-.173c.093-.03,9.079-3.2,10.58-8.442,1.125-3.934,2.569-10.367,3.522-14.626.428-1.909.767-3.419.953-4.153A5.892,5.892,0,0,1,183.5,93.16l17.176,2.068a.166.166,0,0,1,.146.163.169.169,0,0,1-.143.166c-.027,0-1.66.3-2.656,3.738-.827,2.8-1.779,7.17-2.705,11.4-.9,4.14-1.759,8.05-2.43,10.224a10.884,10.884,0,0,1-4.468,6.135,8.737,8.737,0,0,1-2.988,1.275Zm-21.8-3.492,21.8,3.16a10.039,10.039,0,0,0,7.157-7.177c.664-2.161,1.524-6.065,2.427-10.194.923-4.232,1.882-8.608,2.709-11.419.7-2.374,1.69-3.32,2.324-3.721l-16.535-1.992a5.467,5.467,0,0,0-5.215,4.12c-.183.727-.521,2.234-.949,4.143-.956,4.262-2.4,10.7-3.529,14.646-.813,2.832-3.708,5.039-6,6.39A31.033,31.033,0,0,1,163.6,124.832Z" transform="translate(-58.865 -34.264)" fill="#231f20"/>
      <path id="Path_2422" data-name="Path 2422" d="M237.911,176.458h-.02l-3.037-.332a.166.166,0,0,1-.146-.183.163.163,0,0,1,.183-.146l3.041.332a.166.166,0,0,1,.146.183A.169.169,0,0,1,237.911,176.458Z" transform="translate(-106.917 -89.468)" fill="#d1d3d4"/>
      <path id="Path_2423" data-name="Path 2423" d="M209.136,173.168h-.02l-9.092-1.032a.166.166,0,0,1-.146-.183.163.163,0,0,1,.183-.146l9.1,1.029a.166.166,0,0,1-.02.332Z" transform="translate(-83.649 -86.803)" fill="#d1d3d4"/>
      <path id="Path_2424" data-name="Path 2424" d="M230.225,186.9h-.02l-2.792-.332a.167.167,0,1,1,.04-.332l2.792.332a.166.166,0,1,1-.02.332Z" transform="translate(-101.947 -96.443)" fill="#d1d3d4"/>
      <path id="Path_2425" data-name="Path 2425" d="M200.555,183.546h-.02l-8.694-1a.167.167,0,0,1,.037-.332l8.7,1a.166.166,0,0,1,.146.183.169.169,0,0,1-.166.149Z" transform="translate(-78.181 -93.758)" fill="#d1d3d4"/>
      <path id="Path_2426" data-name="Path 2426" d="M176.251,170.619a11.423,11.423,0,0,1-3.6-9.647L149.08,156.72s2.022,7.891,4.71,10.643Z" transform="translate(-49.715 -76.725)" fill="#fff"/>
      <path id="Path_2427" data-name="Path 2427" d="M175.92,170.446H175.9L153.44,167.19a.179.179,0,0,1-.1-.05c-2.689-2.752-4.671-10.394-4.754-10.719a.163.163,0,0,1,.04-.153.166.166,0,0,1,.153-.053l23.569,4.252a.169.169,0,0,1,.133.183,11.356,11.356,0,0,0,3.545,9.5.163.163,0,0,1-.106.292Zm-22.377-3.579,21.883,3.174a11.725,11.725,0,0,1-3.29-9.272l-23.157-4.179C149.35,157.948,151.2,164.421,153.543,166.868Z" transform="translate(-49.384 -76.386)" fill="#231f20"/>
      <path id="Path_2428" data-name="Path 2428" d="M229.325,111.46h-.017L214.7,109.8a.163.163,0,0,1-.146-.186.166.166,0,0,1,.183-.146l14.606,1.66a.166.166,0,1,1-.017.332Z" transform="translate(-93.455 -45.158)" fill="#d1d3d4"/>
      <path id="Path_2429" data-name="Path 2429" d="M251.356,125.492h-.02l-2.742-.312a.167.167,0,0,1,.04-.332l2.739.309a.166.166,0,1,1-.017.332Z" transform="translate(-116.096 -55.432)" fill="#d1d3d4"/>
      <path id="Path_2430" data-name="Path 2430" d="M221.711,122.126h0l-8.79-1a.167.167,0,1,1,.036-.332l8.79,1a.166.166,0,1,1-.02.332Z" transform="translate(-92.264 -52.727)" fill="#d1d3d4"/>
      <path id="Path_2431" data-name="Path 2431" d="M245.062,135.641h-.02l-4.518-.511a.167.167,0,0,1,.04-.332l4.515.515a.163.163,0,0,1,.146.183A.166.166,0,0,1,245.062,135.641Z" transform="translate(-110.705 -62.079)" fill="#d1d3d4"/>
      <path id="Path_2432" data-name="Path 2432" d="M215.9,132.3h-.02l-5.73-.664a.167.167,0,0,1,.037-.332l5.733.647a.176.176,0,0,1-.02.349Z" transform="translate(-90.413 -59.748)" fill="#d1d3d4"/>
      <path id="Path_2433" data-name="Path 2433" d="M244.252,145.772h-.02l-3.768-.441a.169.169,0,0,1-.146-.186A.173.173,0,0,1,240.5,145l3.764.428a.166.166,0,1,1-.017.332Z" transform="translate(-110.665 -68.894)" fill="#d1d3d4"/>
      <path id="Path_2434" data-name="Path 2434" d="M214.659,142.45h-.02l-6.815-.773a.166.166,0,0,1-.146-.183.169.169,0,0,1,.186-.146l6.812.773a.166.166,0,0,1,0,.332Z" transform="translate(-88.86 -66.455)" fill="#d1d3d4"/>
      <path id="Path_2435" data-name="Path 2435" d="M242.737,156.964h0l-3.343-.378a.166.166,0,0,1-.146-.183.163.163,0,0,1,.183-.146l3.343.378a.166.166,0,1,1-.02.332Z" transform="translate(-109.95 -76.415)" fill="#d1d3d4"/>
      <path id="Path_2436" data-name="Path 2436" d="M214.616,153.778h-.02l-9.172-1.042a.166.166,0,0,1-.146-.183.163.163,0,0,1,.183-.146l9.172,1.039a.166.166,0,1,1-.017.332Z" transform="translate(-87.257 -73.843)" fill="#d1d3d4"/>
      <path id="Path_2437" data-name="Path 2437" d="M238.868,165.767h-.02l-3.984-.451a.166.166,0,0,1-.146-.183.163.163,0,0,1,.183-.146l3.984.451a.166.166,0,1,1-.02.332Z" transform="translate(-106.924 -82.247)" fill="#d1d3d4"/>
      <path id="Path_2438" data-name="Path 2438" d="M211.748,162.7h0l-8.817-1a.167.167,0,0,1,.037-.332l8.817,1a.166.166,0,1,1-.02.332Z" transform="translate(-85.59 -79.829)" fill="#d1d3d4"/>
      <rect id="Rectangle_2487" data-name="Rectangle 2487" width="23.483" height="33.14" rx="2" transform="translate(89.073 80.129) rotate(-114.95)" fill="#9e8bff"/>
      <rect id="Rectangle_2488" data-name="Rectangle 2488" width="8.475" height="7.144" rx="3.572" transform="translate(105.042 59.75) rotate(-114.95)" fill="#ffb971"/>
      <rect id="Rectangle_2489" data-name="Rectangle 2489" width="2.41" height="8.621" rx="1.205" transform="translate(84.211 62.752) rotate(-114.95)" fill="#fff"/>
      <rect id="Rectangle_2490" data-name="Rectangle 2490" width="2.493" height="5.889" rx="1.247" transform="translate(109.4 66.151) rotate(-114.95)" fill="#fff"/>
      <rect id="Rectangle_2491" data-name="Rectangle 2491" width="2.493" height="5.889" rx="1.247" transform="translate(102.932 69.163) rotate(-114.95)" fill="#fff"/>
      <rect id="Rectangle_2492" data-name="Rectangle 2492" width="2.493" height="5.889" rx="1.247" transform="translate(96.459 72.171) rotate(-114.95)" fill="#fff"/>
      <rect id="Rectangle_2493" data-name="Rectangle 2493" width="2.493" height="5.889" rx="1.247" transform="translate(89.991 75.18) rotate(-114.95)" fill="#fff"/>
      <path id="Path_2440" data-name="Path 2440" d="M251.347,77.318a.163.163,0,0,1-.139-.076l-4.452-6.971a.166.166,0,0,1,.279-.179l4.452,6.971a.166.166,0,0,1-.05.229A.149.149,0,0,1,251.347,77.318Z" transform="translate(-114.952 -18.807)" fill="#fff"/>
      <path id="Path_2441" data-name="Path 2441" d="M215.164,76.394a.169.169,0,0,1-.149-.09l-2.274-4.392a.163.163,0,0,1,.07-.222.166.166,0,0,1,.226.07l2.274,4.392a.169.169,0,0,1-.07.226A.226.226,0,0,1,215.164,76.394Z" transform="translate(-92.23 -19.908)" fill="#fff"/>
      <path id="Path_2442" data-name="Path 2442" d="M86.2,148.339l-1.391,1.6c-.886,1.109-3.7.332-6.287-1.743s-3.964-4.644-3.067-5.756l1.394-1.6Z" transform="translate(-0.344 -66.116)" fill="#ffb971"/>
      <path id="Path_2443" data-name="Path 2443" d="M83.146,150.275a9.19,9.19,0,0,1-5.079-2.287,11.323,11.323,0,0,1-2.881-3.29c-.614-1.152-.69-2.108-.219-2.7l1.4-1.6a.166.166,0,0,1,.229-.02l9.361,7.486a.156.156,0,0,1,.063.113.176.176,0,0,1-.04.126l-1.394,1.6A1.756,1.756,0,0,1,83.146,150.275Zm-6.639-9.541-1.285,1.484c-.375.468-.282,1.328.256,2.324a10.954,10.954,0,0,0,2.8,3.19c2.466,1.992,5.238,2.785,6.055,1.769l1.281-1.474Z" transform="translate(0 -65.782)" fill="#231f20"/>
      <ellipse id="Ellipse_684" data-name="Ellipse 684" cx="2.569" cy="5.999" rx="2.569" ry="5.999" transform="matrix(0.625, -0.781, 0.781, 0.625, 74.88, 76.726)" fill="#ffb971"/>
      <path id="Path_2444" data-name="Path 2444" d="M87.337,147.66a9.178,9.178,0,0,1-5.076-2.284,11.286,11.286,0,0,1-2.885-3.29c-.614-1.152-.69-2.108-.216-2.7h0c.471-.591,1.424-.727,2.679-.378A11.286,11.286,0,0,1,85.68,141.1c2.7,2.161,4.06,4.79,3.1,5.975A1.766,1.766,0,0,1,87.337,147.66Zm-6.735-8.5a1.451,1.451,0,0,0-1.182.438h0c-.382.475-.289,1.328.252,2.324a10.955,10.955,0,0,0,2.8,3.19c2.466,1.992,5.242,2.785,6.055,1.769s-.581-3.549-3.051-5.524a10.9,10.9,0,0,0-3.721-2.032A4.266,4.266,0,0,0,80.6,139.155Zm-1.328.332Z" transform="translate(-2.8 -64.766)" fill="#231f20"/>
      <path id="Path_2445" data-name="Path 2445" d="M85.759,143.486l.607.578h.07c.2.037.382.063.581.113a4.594,4.594,0,0,1,1.461.684,3.841,3.841,0,0,1,.747.664.936.936,0,0,1,.262.5.332.332,0,0,1-.186.332c-.1.066-.2.126-.309.193l1.142,1.085c.2-.139.11-.375-.159-.664l.7-.12a2.111,2.111,0,0,1,.511.664.541.541,0,0,1-.056.607c-.07.076-.166.143-.252.219l.415.4-.664.209-.425-.4h-.611a3.433,3.433,0,0,1-1.178-.332,4.07,4.07,0,0,1-1.328-.943c-.382-.418-.465-.747-.229-.969a1.564,1.564,0,0,1,.538-.3l.08-.03-1.159-1.1h-.033a.96.96,0,0,0-.053.219.72.72,0,0,0,.242.382l-1.086.066c-.086-.093-.173-.183-.249-.272-.279-.332-.385-.607-.3-.823a.71.71,0,0,1,.571-.368c.037,0,.037-.02,0-.056-.209-.193-.415-.388-.621-.584Zm2.622,3.353c-.1.083-.236.146-.209.3a1.284,1.284,0,0,0,.724.594,1.381,1.381,0,0,0,.515.08Zm-.266-1.112c.09-.05.179-.09.193-.179.023-.166-.332-.481-.7-.614-.156-.06-.305-.093-.478-.143Z" transform="translate(-6.767 -67.853)" fill="#fff"/>
      <path id="Path_2446" data-name="Path 2446" d="M118.995,214.17l.813,1.955c.6,1.288-1.351,3.462-4.352,4.863s-5.922,1.487-6.523.2l-.813-1.959Z" transform="translate(-22.352 -115.104)" fill="#ffb971"/>
      <path id="Path_2447" data-name="Path 2447" d="M110.785,221.968c-1.159,0-2.015-.332-2.324-1l-.817-1.962a.169.169,0,0,1,.083-.216l10.875-5.062a.159.159,0,0,1,.129,0,.169.169,0,0,1,.093.093l.813,1.955c.644,1.384-1.3,3.615-4.435,5.076A11,11,0,0,1,110.785,221.968Zm-2.775-2.954.75,1.809c.548,1.175,3.432,1.046,6.307-.289s4.82-3.459,4.269-4.647l-.747-1.8Z" transform="translate(-22.026 -114.802)" fill="#231f20"/>
      <ellipse id="Ellipse_685" data-name="Ellipse 685" cx="5.999" cy="2.569" rx="5.999" ry="2.569" transform="translate(84.681 101.803) rotate(-24.97)" fill="#ffb971"/>
      <path id="Path_2448" data-name="Path 2448" d="M109.714,218.16c-1.2,0-2.015-.352-2.324-1-.664-1.388,1.3-3.622,4.432-5.079s6.095-1.514,6.742-.123-1.3,3.622-4.432,5.082a11.33,11.33,0,0,1-4.229,1.122Zm6.55-6.858a10.772,10.772,0,0,0-4.3,1.089c-2.865,1.328-4.82,3.459-4.272,4.647.259.551,1.069.843,2.2.81a10.921,10.921,0,0,0,4.1-1.092c2.865-1.328,4.82-3.459,4.269-4.647C118.016,211.55,117.273,211.3,116.264,211.3Z" transform="translate(-21.778 -112.955)" fill="#231f20"/>
      <path id="Path_2449" data-name="Path 2449" d="M112.971,217.773l.787-.289.043-.056a4.378,4.378,0,0,1,1.62-1.467,3.846,3.846,0,0,1,.929-.372.919.919,0,0,1,.568,0,.332.332,0,0,1,.206.305c0,.116.023.239.033.362l1.481-.541c-.04-.239-.285-.266-.664-.153l.2-.664a2.141,2.141,0,0,1,.833-.159.531.531,0,0,1,.518.332,2.659,2.659,0,0,1,.086.332l.538-.2-.106.687-.548.206c-.093.183-.173.359-.279.544a3.426,3.426,0,0,1-.81.913,3.947,3.947,0,0,1-1.431.767c-.544.159-.873.086-.969-.222a1.56,1.56,0,0,1-.033-.614V217.4l-1.494.554-.027.023a.807.807,0,0,0,.173.143.7.7,0,0,0,.448-.046l-.422,1c-.123.037-.239.073-.352.1-.422.106-.717.08-.873-.1a.707.707,0,0,1-.076-.664c0-.033,0-.04-.053-.02l-.8.3Zm4.169-.863c.03.129.027.276.176.332a1.175,1.175,0,0,0,.856-.385,1.381,1.381,0,0,0,.3-.428Zm-1.115-.256c0-.1,0-.2-.076-.252-.136-.093-.574.083-.86.352-.12.113-.216.232-.332.365Z" transform="translate(-25.278 -115.483)" fill="#fff"/>
      <path id="Path_2450" data-name="Path 2450" d="M115.943,171.645c-1.182,1.969.143,6.33.143,6.33l1.749,1.275a5.542,5.542,0,1,0,5.713-9.5l-1.939-.953S117.124,169.68,115.943,171.645Z" transform="translate(-27.25 -84.795)" fill="#ffb971"/>
      <path id="Path_2451" data-name="Path 2451" d="M120.344,179.867a5.693,5.693,0,0,1-2.928-.817l-1.766-1.281a.169.169,0,0,1-.06-.086c-.056-.183-1.328-4.458-.126-6.467h0c1.208-1.992,5.584-2.885,5.769-2.921a.186.186,0,0,1,.1,0l1.945.953a5.71,5.71,0,0,1-2.938,10.606Zm-4.452-2.324,1.706,1.238a5.374,5.374,0,0,0,5.527-9.219l-1.882-.92c-.508.106-4.432,1-5.494,2.755h0c-1.062,1.773,0,5.637.143,6.135Zm-.285-6.231Z" transform="translate(-26.914 -84.453)" fill="#231f20"/>
      <circle id="Ellipse_686" data-name="Ellipse 686" cx="5.54" cy="5.54" r="5.54" transform="translate(86.694 83.441)" fill="#ffb971"/>
      <path id="Path_2452" data-name="Path 2452" d="M116.116,178.033a5.706,5.706,0,1,1,2.951-10.6h0a5.706,5.706,0,0,1-2.951,10.6Zm.02-11.081a1.487,1.487,0,1,0,0-.007Z" transform="translate(-23.891 -83.338)" fill="#231f20"/>
      <path id="Path_2453" data-name="Path 2453" d="M117.084,175.413l.69.418c.046.027.07.023.1-.017a2.416,2.416,0,0,1,1-.664,1.739,1.739,0,0,1,1.228.027c.106.043.209.093.332.143l-.644,1.069a.83.83,0,0,0-.538-.106,3.9,3.9,0,0,0-.422.136v.027l1.328.8.1-.1a4.422,4.422,0,0,1,.773-.664,1.411,1.411,0,0,1,1.451-.12,1.842,1.842,0,0,1,1,.976,1.862,1.862,0,0,1,.113,1.145c-.05.239-.129.475-.2.72l.518.312-.591,1-.531-.332c-.176.166-.332.332-.5.478a1.952,1.952,0,0,1-1.185.481,1.9,1.9,0,0,1-1.066-.3l.631-1.052a.973.973,0,0,0,1.168-.176l-1.431-.856c-.176.163-.352.332-.531.491a1.776,1.776,0,0,1-.747.428,1.407,1.407,0,0,1-.866-.06,1.965,1.965,0,0,1-.876-.614,1.789,1.789,0,0,1-.362-1.474c.04-.209.123-.412.183-.614a.088.088,0,0,1,.027-.073l-.717-.432Zm5.338,3.207a1,1,0,0,0,.073-.554.664.664,0,0,0-.7-.541,1.3,1.3,0,0,0-.6.362Zm-4.3-1.238a3.213,3.213,0,0,0-.033.491.614.614,0,0,0,.764.544,1.328,1.328,0,0,0,.458-.332Z" transform="translate(-27.957 -88.971)" fill="#fff"/>
    </g>
  </g>
</svg>
