<svg xmlns="http://www.w3.org/2000/svg" width="30.837" height="40.757" viewBox="0 0 30.837 40.757">
  <g id="gold-loan-mobile" transform="translate(-17.375 0.07)">
    <g id="Group_3583" data-name="Group 3583" transform="translate(0 0)">
      <g id="Group_3573" data-name="Group 3573" transform="matrix(0.995, -0.105, 0.105, 0.995, 15.896, 2.764)">
        <path id="path84" d="M.74.106A.221.221,0,0,0,.556,0,.176.176,0,0,0,.4.1,8.434,8.434,0,0,0,.014.96a.172.172,0,0,0,.015.163A.211.211,0,0,0,.2,1.207a.206.206,0,0,0,.2-.135A7.617,7.617,0,0,1,.745.3.194.194,0,0,0,.74.106" transform="matrix(0.358, -0.934, 0.934, 0.358, 0, 14.157)" fill="#2e2d2d"/>
        <path id="path86" d="M.617,0A.2.2,0,0,0,.483.054,3.65,3.65,0,0,0,.04.543.164.164,0,0,0,.017.721a.225.225,0,0,0,.2.115A.207.207,0,0,0,.382.752,3.113,3.113,0,0,1,.765.341a.176.176,0,0,0,.052-.2A.223.223,0,0,0,.617,0" transform="matrix(0.358, -0.934, 0.934, 0.358, 0.657, 13.769)" fill="#2e2d2d"/>
        <g id="Group_3574" data-name="Group 3574" transform="translate(21.884 0.919) rotate(-14)">
          <line id="Line_86" data-name="Line 86" y1="2.161" x2="2.593" transform="translate(0.756 0.432)" fill="none" stroke="#242a39" stroke-linecap="round" stroke-width="0.8"/>
          <line id="Line_87" data-name="Line 87" y1="1.837" x2="0.648" transform="translate(0 0)" fill="none" stroke="#242a39" stroke-linecap="round" stroke-width="0.8"/>
          <path id="Path_417" data-name="Path 417" d="M0,.648,2.314,0" transform="translate(1.486 2.972)" fill="none" stroke="#242a39" stroke-linecap="round" stroke-width="0.8"/>
        </g>
      </g>
    </g>
    <g id="_2005459744" transform="translate(17.476 0.956)">
      <path id="Path_592" data-name="Path 592" d="M29714.037,9901.9c-2.682,1.334-4.236,2.055-8.2,1.465-3.271-.483-4.916-.253-7.816-2.232.641-2.141,6.736-3.773,8.461-3.988C29710.008,9896.715,29713.877,9898.3,29714.037,9901.9Zm-.117,4.472c-.818.592-1.068.413-1.725.768-.477.26-.008.36-1.719.744-8.461,1.885-9.766-.337-13.051.437l.395-6.268c.438.039,1.057.086,1.2.46.268.692-.9,2.785-.242,3.484l.621-3.36c2.955,1.334,4.027.988,7.328,1.563C29714.1,9905.491,29713.938,9899.724,29713.92,9906.373Zm0,1.221c-.018,1.311.313,2.008-.525,2.683-1.211.975-3.693,2.316-4.066,5.463a50.8,50.8,0,0,1-6.789-.215,15.341,15.341,0,0,1-3-.584,10.663,10.663,0,0,1-1.32-.446l-1.146-.52.4-5.208c1.434.145,3.172.075,4.52.345,2.422.5,5.916-.146,8.346-.561C29711.441,9908.359,29712.756,9907.548,29713.924,9907.594Zm2.535,17.77c-2.768.807-4.16-.3-5.156-1.887a8.524,8.524,0,0,1-1.662-5.629,3.254,3.254,0,0,1,.359-1.6c.3-.8-.062-2.853,3.342-5.177.877-.606.441.023,1.025-.4a1.891,1.891,0,0,1,1.967-.736c1.512.321,3.609.637,4.611,1.6s1.8,3.536,1.732,5.607C29722.541,9921.712,29720.609,9924.159,29716.459,9925.363Zm-10.545-8.874a24.7,24.7,0,0,0,3.211-.022,13.271,13.271,0,0,0-.137,3.329,22.434,22.434,0,0,0,.781,3.252,21.252,21.252,0,0,1-7.127-.029c-1.125-.147-2.16-.355-3.32-.584-1.246-.253-1.74-.69-3.047-.7.162-1.181.256-2.445.428-3.573s.293-2.369.393-3.52a20.01,20.01,0,0,0,5.543,1.533C29703.719,9916.252,29704.783,9916.367,29705.914,9916.489Zm8.795,10.025c-.086,2.393,0,3.021-.959,3.375a20.33,20.33,0,0,1-7.057,1.8c-1.932.184-8.275-.368-10.176-1.365l-1.014-.637a23.413,23.413,0,0,1,.367-5.645l.271-1.383c0-.03.045-.167.059-.137s.037-.1.059-.146c.109.007,6.379,1.757,10.426,1.764a18.346,18.346,0,0,0,3.408-.5,4.123,4.123,0,0,0,1.727,1.972,7.015,7.015,0,0,0,1.41.491Zm.076,3.705a30.753,30.753,0,0,1,.551-3.882c2.1-.106,5.449-1.832,6.645-3.95a10.319,10.319,0,0,0,.561-1.556,10.627,10.627,0,0,0,.215-7.411c-.686-2.322-2.414-3.335-4.518-4.087-1.855-.659-2.246,0-3.639.252v-6.374c.439-3.043-.248-5.345-3.742-6.479a10.482,10.482,0,0,0-7.131.16c-.523.17-2.686.922-3.076,1.149-.855.522-3.068,1.78-3.357,2.954l-.406,5.82c.725,4.3-1.861,17.343-1.881,23.4l.234.138a10.515,10.515,0,0,0,4.205,1.426c4.475.408,7.715,1.674,13.188-.575C29713.77,9930.741,29713.852,9930.926,29714.785,9930.22Z" transform="translate(-29692.58 -9893.571)" fill="#262626" fill-rule="evenodd"/>
      <path id="Path_594" data-name="Path 594" d="M30785.459,10110.435c.832.022.465-.561.959-1.479.34-.638.838-1.021.525-1.734-.816.137-.943.881-1.793,1.351.137-1.252,1.1-1.589.662-2.57-1.033.093-.316.66-1.568.23-.4.438-.7,1.043-1.107,1.542-1.061,1.3-1.021.8-.852,1.572.371-.3.152.068.68-.5.693-.737,1.076-1.467,2.15-1.773-.219,1.419-1.238,2.287-1.488,3.46,1.207-.047.816-1.335,2.557-1.993Z" transform="translate(-30771.428 -10101.783)" fill="#262626" fill-rule="evenodd"/>
      <path id="Path_595" data-name="Path 595" d="M30424.355,13698.849c.176,1,.744.093,1.273-.206.254.585.424.546.563.791.352-.529-.09-1.358-.436-1.773l-.7.684.025-2.677c-.705-.7-.26-.559-.9-.668a6.971,6.971,0,0,0-.361,3.137c.377-.527.131-.836.531-1.394C30424.9,13697.538,30424.178,13697.837,30424.355,13698.849Z" transform="translate(-30415.723 -13663.254)" fill="#262626" fill-rule="evenodd"/>
      <path id="Path_596" data-name="Path 596" d="M30214.742,12716c-.7.4-.074-.315-.5,1.817a1.983,1.983,0,0,0,.121,1.694,12.793,12.793,0,0,0,.418-1.794C30215.285,12715.74,30215.15,12716.225,30214.742,12716Z" transform="translate(-30207.701 -12691.766)" fill="#262626" fill-rule="evenodd"/>
      <path id="Path_597" data-name="Path 597" d="M30325.52,11695c-.676.247-.541.8-.617,1.7-.078.876-.4,1.313.15,1.734A8.468,8.468,0,0,0,30325.52,11695Z" transform="translate(-30317.484 -11678.594)" fill="#262626" fill-rule="evenodd"/>
      <path id="Path_598" data-name="Path 598" d="M30999.025,14220.745c-.42-.4-.709-.377-1.48-.293a5.6,5.6,0,0,0-1.545.322c.137.476.186.554,1.566.314C30998.338,14220.959,30998.633,14221.2,30999.025,14220.745Z" transform="translate(-30983.598 -14184.626)" fill="#262626" fill-rule="evenodd"/>
      <path id="Path_599" data-name="Path 599" d="M30554.93,12180.287c-.309-.152-1.072-.146-1.562-.313-.531-.177-.865-.476-1.365-.216.1.331-.309.291,1.291.783C30553.91,12180.725,30554.8,12180.87,30554.93,12180.287Z" transform="translate(-30543.002 -12159.532)" fill="#262626" fill-rule="evenodd"/>
      <path id="Path_600" data-name="Path 600" d="M30167.242,11684c-.836.184-.291.636-.342,1.787-.018.612-.26,1.372-.014,1.849C30166.979,11687.467,30167.7,11684.722,30167.242,11684Z" transform="translate(-30160.729 -11667.681)" fill="#262626" fill-rule="evenodd"/>
      <path id="Path_601" data-name="Path 601" d="M30392.482,12731c-.492.33-.369.592-.514,1.326a5.136,5.136,0,0,0-.168.914c-.008.82,0,.506.33.722.023-.039.061-.047.066-.116l.121-.613C30392.449,12731.43,30392.994,12731.638,30392.482,12731Z" transform="translate(-30384.029 -12706.648)" fill="#262626" fill-rule="evenodd"/>
      <path id="Path_602" data-name="Path 602" d="M30603.506,10199a7.666,7.666,0,0,0-1.545,3.036c.5-.222.285-.274.523-.758C30603.031,10200.213,30604.166,10199.621,30603.506,10199Z" transform="translate(-30592.58 -10194.068)" fill="#262626" fill-rule="evenodd"/>
      <path id="Path_603" data-name="Path 603" d="M31003.469,13118.2c-.625-.321-2.078-.789-2.467-.022.467.314.6.146,1.32.222C31003.975,13118.576,31002.859,13118.393,31003.469,13118.2Z" transform="translate(-30988.559 -13090.442)" fill="#262626" fill-rule="evenodd"/>
      <path id="Path_604" data-name="Path 604" d="M31540.75,10381c-.52.461-.266.206-.48.95-.039.123-.246.667-.246.675-.211.92,0,.452.086.583a3.57,3.57,0,0,0,.59-.967C31540.992,10381.63,31540.992,10381.591,31540.75,10381Z" transform="translate(-31523.355 -10374.674)" fill="#262626" fill-rule="evenodd"/>
      <path id="Path_605" data-name="Path 605" d="M31724.709,14118.487a2.113,2.113,0,0,0-1.7.353c.211.161-.078.137.379.192C31723.994,14119.1,31724.561,14118.965,31724.709,14118.487Z" transform="translate(-31705.025 -14083.428)" fill="#262626" fill-rule="evenodd"/>
      <path id="Path_606" data-name="Path 606" d="M30498.473,13028c-.457.775-.127.883.355,1.251A.758.758,0,0,0,30498.473,13028Z" transform="translate(-30489.668 -13001.369)" fill="#262626" fill-rule="evenodd"/>
      <path id="Path_607" data-name="Path 607" d="M30452.584,11929c-.3.107-.395.424-.449.783-.154,1.02.205,1.027.285,1.1Z" transform="translate(-30443.861 -11910.8)" fill="#262626" fill-rule="evenodd"/>
      <path id="Path_608" data-name="Path 608" d="M31174.68,11959.119c-.338-.36.2-.229-.437-.282-.791-.07-.375.092-.494.184C31174.053,11959.6,31174.691,11959.595,31174.68,11959.119Z" transform="translate(-31159.975 -11940.39)" fill="#262626" fill-rule="evenodd"/>
      <g id="_529959560" transform="matrix(0.999, -0.035, 0.035, 0.999, 0, 0.966)">
        <path id="Path_512" data-name="Path 512" d="M.514,4.708c.007-.014.016-.053.017-.044l-.3-3.625C.233.773.434-.017.133,0S.107,2.13.13,2.4A7.263,7.263,0,0,0,.514,4.708Z" transform="translate(22.747 9.761) rotate(7)" fill="#242a39" fill-rule="evenodd"/>
        <path id="Path_514" data-name="Path 514" d="M0,.166C.815.642,5.288.186,6.544.088A16.678,16.678,0,0,0,3.574.046C2.514.021,1.212.16,0,.166Z" transform="translate(1.747 37.118) rotate(14)" fill="#242a39" fill-rule="evenodd"/>
        <path id="Path_515" data-name="Path 515" d="M0,3.307A4.081,4.081,0,0,0,.524,1.68,4.569,4.569,0,0,0,.261,0,3.185,3.185,0,0,1,.668,1.7,3.245,3.245,0,0,1,0,3.307Z" transform="translate(24.489 18.275) rotate(-59)" fill="#242a39" fill-rule="evenodd"/>
        <path id="Path_516" data-name="Path 516" d="M0,3.583c.4.271.57-.176,1.346-1.1L3.711,0A19.2,19.2,0,0,0,1.834,1.683L.471,3.168C.308,3.341.166,3.417,0,3.583Z" transform="matrix(0.819, -0.574, 0.574, 0.819, 0, 16.83)" fill="#242a39" fill-rule="evenodd"/>
        <path id="Path_517" data-name="Path 517" d="M0,1.323A4.764,4.764,0,0,0,1.93,0C1.384-.045.3.823,0,1.323Z" transform="translate(6.468 0)" fill="#242a39" fill-rule="evenodd"/>
        <path id="Path_518" data-name="Path 518" d="M0,.232A6.141,6.141,0,0,0,1.991.076a3.357,3.357,0,0,0-1.409,0Z" transform="translate(5.917 34.567)" fill="#242a39" fill-rule="evenodd"/>
      </g>
    </g>
  </g>
</svg>
