<svg xmlns="http://www.w3.org/2000/svg" xmlns:xlink="http://www.w3.org/1999/xlink" width="75.625" height="72.883" viewBox="0 0 75.625 72.883">
  <defs>
    <linearGradient id="linear-gradient" x1="0.237" y1="0.051" x2="0.726" y2="0.935" gradientUnits="objectBoundingBox">
      <stop offset="0" stop-color="#9e8bff"/>
      <stop offset="1" stop-color="#5775ff"/>
    </linearGradient>
  </defs>
  <g id="gold-loan-web" transform="translate(-444.761 -1104.723)">
    <g id="Group_3583" data-name="Group 3583" transform="translate(452.692 1104.422)">
      <g id="Group_3573" data-name="Group 3573" transform="matrix(0.995, -0.105, 0.105, 0.995, 17.002, 4.336)">
        <path id="path84" d="M1.16.166A.347.347,0,0,0,.872,0a.276.276,0,0,0-.25.16,13.229,13.229,0,0,0-.6,1.346.27.27,0,0,0,.023.256.331.331,0,0,0,.272.132.324.324,0,0,0,.309-.211A11.948,11.948,0,0,1,1.169.473.3.3,0,0,0,1.16.166" transform="matrix(0.358, -0.934, 0.934, 0.358, 0, 22.206)" fill="#2e2d2d"/>
        <path id="path86" d="M.967,0a.309.309,0,0,0-.21.085A5.725,5.725,0,0,0,.063.851a.256.256,0,0,0-.037.28.354.354,0,0,0,.31.18A.325.325,0,0,0,.6,1.18,4.883,4.883,0,0,1,1.2.534.276.276,0,0,0,1.28.219.349.349,0,0,0,.967,0" transform="matrix(0.358, -0.934, 0.934, 0.358, 1.03, 21.597)" fill="#2e2d2d"/>
        <g id="Group_3574" data-name="Group 3574" transform="translate(34.326 1.442) rotate(-14)">
          <line id="Line_86" data-name="Line 86" y1="3.39" x2="4.068" transform="translate(1.186 0.678)" fill="none" stroke="#242a39" stroke-linecap="round" stroke-width="0.8"/>
          <line id="Line_87" data-name="Line 87" y1="2.881" x2="1.017" transform="translate(0 0)" fill="none" stroke="#242a39" stroke-linecap="round" stroke-width="0.8"/>
          <path id="Path_417" data-name="Path 417" d="M0,1.017,3.63,0" transform="translate(2.33 4.661)" fill="none" stroke="#242a39" stroke-linecap="round" stroke-width="0.8"/>
        </g>
      </g>
      <path id="Path_2669" data-name="Path 2669" d="M29.27,19.021C47.633,9.507,64.684,17.341,64.684,35.2A32.344,32.344,0,0,1,32.34,67.547C14.477,67.547.764,47.335,0,35.2S10.907,28.534,29.27,19.021Z" transform="translate(-7.892 5.636)" opacity="0.1" fill="url(#linear-gradient)"/>
    </g>
    <g id="_2005459744" transform="translate(472.173 1105.921)">
      <path id="Path_592" data-name="Path 592" d="M29724.852,9905.154c-4.2,2.093-6.641,3.225-12.859,2.3-5.129-.758-7.715-.4-12.262-3.5,1-3.356,10.566-5.918,13.273-6.256C29718.535,9897.021,29724.6,9899.5,29724.852,9905.154Zm-.18,7.014c-1.285.927-1.672.649-2.707,1.2-.746.408-.012.565-2.7,1.167-13.27,2.959-15.316-.529-20.465.686l.613-9.829c.688.061,1.66.133,1.879.721.422,1.084-1.41,4.368-.375,5.464l.973-5.271c4.637,2.093,6.32,1.552,11.492,2.454C29724.949,9910.784,29724.7,9901.737,29724.672,9912.168Zm.012,1.913c-.035,2.057.484,3.151-.828,4.21-1.9,1.528-5.8,3.634-6.379,8.567a78.88,78.88,0,0,1-10.648-.338,23.471,23.471,0,0,1-4.7-.915,16.7,16.7,0,0,1-2.07-.7l-1.8-.817.625-8.169c2.246.228,4.969.12,7.086.541,3.8.782,9.285-.229,13.09-.878C29720.785,9915.284,29722.844,9914.009,29724.684,9914.081Zm3.973,27.875c-4.344,1.264-6.523-.47-8.086-2.959-1.625-2.586-2.793-4.7-2.609-8.831a5.137,5.137,0,0,1,.563-2.5c.469-1.263-.1-4.475,5.246-8.12,1.371-.95.688.036,1.6-.627a2.982,2.982,0,0,1,3.09-1.154c2.371.5,5.656,1,7.23,2.516s2.828,5.546,2.719,8.794C29738.2,9936.229,29735.16,9940.066,29728.656,9941.956Zm-16.543-13.919a38.8,38.8,0,0,0,5.039-.036,20.584,20.584,0,0,0-.215,5.222,34.515,34.515,0,0,0,1.227,5.1c-4.512.686-6.484.529-11.18-.047-1.766-.229-3.391-.555-5.207-.916-1.961-.4-2.73-1.082-4.777-1.095.254-1.853.4-3.838.664-5.605s.465-3.719.621-5.522c2.891,1.033,5.488,2.189,8.691,2.405C29708.672,9927.663,29710.344,9927.845,29712.113,9928.037Zm13.8,15.724c-.133,3.754,0,4.741-1.5,5.294-4.234,1.576-5.363,2.287-11.07,2.828-3.031.288-12.977-.579-15.961-2.142l-1.59-1c-.25-4.487.156-5.065.578-8.854l.422-2.166c.012-.049.07-.265.094-.217s.063-.156.1-.228c.168.012,10,2.755,16.352,2.766,2.848,0,3.152-.54,5.34-.781a6.483,6.483,0,0,0,2.711,3.093,11.155,11.155,0,0,0,2.211.77Zm.121,5.812a46.659,46.659,0,0,1,.863-6.088c3.3-.168,8.547-2.875,10.422-6.2a16.006,16.006,0,0,0,.879-2.442,16.664,16.664,0,0,0,.336-11.622c-1.074-3.646-3.789-5.233-7.086-6.412-2.914-1.035-3.523,0-5.7.4v-10c.688-4.775-.395-8.386-5.871-10.166-4.137-1.336-7.184-1.023-11.191.252-.816.266-4.207,1.444-4.824,1.806-1.336.817-4.809,2.79-5.266,4.632l-.637,9.131c1.141,6.738-2.922,27.2-2.949,36.707l.371.217a16.47,16.47,0,0,0,6.594,2.237c7.016.639,12.1,2.624,20.68-.9C29724.434,9950.391,29724.563,9950.68,29726.031,9949.572Z" transform="translate(-29691.199 -9892.089)" fill="#262626" fill-rule="evenodd"/>
      <path id="Path_594" data-name="Path 594" d="M30787.316,10112.955c1.307.036.73-.878,1.5-2.322.543-1,1.314-1.6.83-2.719-1.283.216-1.479,1.383-2.811,2.118.215-1.962,1.717-2.491,1.033-4.031-1.613.145-.494,1.034-2.457.361-.635.687-1.105,1.635-1.744,2.418-1.662,2.045-1.6,1.264-1.334,2.467.59-.47.238.107,1.068-.782,1.086-1.154,1.688-2.3,3.371-2.779-.338,2.225-1.936,3.585-2.332,5.426,1.9-.073,1.283-2.093,4.006-3.127Z" transform="translate(-30765.307 -10099.385)" fill="#262626" fill-rule="evenodd"/>
      <path id="Path_595" data-name="Path 595" d="M30424.707,13701.039c.271,1.564,1.164.145,2-.324.4.916.662.855.879,1.24.553-.83-.135-2.131-.676-2.779l-1.1,1.072.039-4.2c-1.109-1.1-.408-.879-1.408-1.049-.363.832-.975,4.115-.564,4.922.59-.83.2-1.312.83-2.189C30425.561,13698.982,30424.43,13699.451,30424.707,13701.039Z" transform="translate(-30411.168 -13645.204)" fill="#262626" fill-rule="evenodd"/>
      <path id="Path_596" data-name="Path 596" d="M30215.105,12716c-1.094.625-.119-.494-.791,2.852a3.075,3.075,0,0,0,.189,2.658,20.73,20.73,0,0,0,.65-2.814C30215.949,12715.592,30215.744,12716.35,30215.105,12716Z" transform="translate(-30204.059 -12677.984)" fill="#262626" fill-rule="evenodd"/>
      <path id="Path_597" data-name="Path 597" d="M30325.967,11695c-1.059.387-.854,1.252-.973,2.67-.123,1.373-.627,2.059.238,2.721A13.5,13.5,0,0,0,30325.967,11695Z" transform="translate(-30313.355 -11669.266)" fill="#262626" fill-rule="evenodd"/>
      <path id="Path_598" data-name="Path 598" d="M31000.742,14220.938c-.65-.627-1.107-.59-2.322-.457a8.63,8.63,0,0,0-2.42.506c.217.745.291.866,2.457.492C30999.672,14221.275,31000.127,14221.648,31000.742,14220.938Z" transform="translate(-30976.543 -14164.284)" fill="#262626" fill-rule="evenodd"/>
      <path id="Path_599" data-name="Path 599" d="M30556.594,12180.646c-.49-.24-1.682-.227-2.453-.492-.83-.277-1.359-.746-2.141-.338.168.518-.482.457,2.031,1.227C30554.994,12181.334,30556.393,12181.561,30556.594,12180.646Z" transform="translate(-30537.885 -12148.092)" fill="#262626" fill-rule="evenodd"/>
      <path id="Path_600" data-name="Path 600" d="M30167.51,11684c-1.311.289-.455,1-.531,2.8-.033.962-.408,2.153-.021,2.9C30167.1,11689.439,30168.23,11685.131,30167.51,11684Z" transform="translate(-30157.293 -11658.399)" fill="#262626" fill-rule="evenodd"/>
      <path id="Path_601" data-name="Path 601" d="M30392.873,12731c-.773.518-.582.926-.811,2.081a8.558,8.558,0,0,0-.266,1.432c-.01,1.287,0,.795.52,1.131.037-.06.1-.071.107-.181l.2-.962C30392.82,12731.675,30393.676,12732,30392.873,12731Z" transform="translate(-30379.607 -12692.804)" fill="#262626" fill-rule="evenodd"/>
      <path id="Path_602" data-name="Path 602" d="M30604.383,10199c-.473.336-2.457,3.67-2.422,4.764.781-.349.445-.433.82-1.19C30603.637,10200.9,30605.418,10199.975,30604.383,10199Z" transform="translate(-30587.244 -10191.266)" fill="#262626" fill-rule="evenodd"/>
      <path id="Path_603" data-name="Path 603" d="M31004.867,13118.448c-.975-.5-3.252-1.237-3.865-.035.732.493.938.229,2.068.348C31005.67,13119.037,31003.916,13118.75,31004.867,13118.448Z" transform="translate(-30981.484 -13074.91)" fill="#262626" fill-rule="evenodd"/>
      <path id="Path_604" data-name="Path 604" d="M31541.219,10381c-.816.723-.422.324-.758,1.491-.059.193-.383,1.047-.383,1.06-.336,1.443,0,.709.129.914a5.647,5.647,0,0,0,.926-1.516C31541.594,10381.988,31541.594,10381.928,31541.219,10381Z" transform="translate(-31513.932 -10371.076)" fill="#262626" fill-rule="evenodd"/>
      <path id="Path_605" data-name="Path 605" d="M31725.674,14118.523a3.324,3.324,0,0,0-2.67.554c.336.253-.119.216.6.3C31724.557,14119.486,31725.447,14119.271,31725.674,14118.523Z" transform="translate(-31694.801 -14063.532)" fill="#262626" fill-rule="evenodd"/>
      <path id="Path_606" data-name="Path 606" d="M30498.6,13028c-.721,1.216-.205,1.386.553,1.962A1.189,1.189,0,0,0,30498.6,13028Z" transform="translate(-30484.787 -12986.229)" fill="#262626" fill-rule="evenodd"/>
      <path id="Path_607" data-name="Path 607" d="M30452.859,11929c-.471.168-.615.662-.7,1.227-.24,1.6.324,1.611.447,1.732Z" transform="translate(-30439.184 -11900.452)" fill="#262626" fill-rule="evenodd"/>
      <path id="Path_608" data-name="Path 608" d="M31175.211,11959.291c-.527-.566.316-.361-.684-.445-1.24-.108-.592.144-.781.289C31174.225,11960.05,31175.232,11960.037,31175.211,11959.291Z" transform="translate(-31152.145 -11929.911)" fill="#262626" fill-rule="evenodd"/>
      <g id="_529959560" transform="matrix(0.999, -0.035, 0.035, 0.999, 0, 1.515)">
        <path id="Path_512" data-name="Path 512" d="M.807,7.385c.012-.022.024-.083.027-.069L.369,1.63C.365,1.212.68-.026.209,0-.24.027.168,3.341.2,3.759A11.393,11.393,0,0,0,.807,7.385Z" transform="translate(35.679 15.31) rotate(7)" fill="#242a39" fill-rule="evenodd"/>
        <path id="Path_514" data-name="Path 514" d="M0,.26c1.279.747,8.3.031,10.264-.122C9.9-.153,7.166.113,5.606.072,3.943.032,1.9.251,0,.26Z" transform="translate(2.74 58.222) rotate(14)" fill="#242a39" fill-rule="evenodd"/>
        <path id="Path_515" data-name="Path 515" d="M0,5.187A6.4,6.4,0,0,0,.822,2.636,7.167,7.167,0,0,0,.409,0a5,5,0,0,1,.639,2.664A5.091,5.091,0,0,1,0,5.187Z" transform="translate(38.412 28.665) rotate(-59)" fill="#242a39" fill-rule="evenodd"/>
        <path id="Path_516" data-name="Path 516" d="M0,5.62c.623.425.894-.276,2.111-1.722L5.821,0A30.119,30.119,0,0,0,2.877,2.64L.739,4.969C.483,5.24.26,5.359,0,5.62Z" transform="matrix(0.819, -0.574, 0.574, 0.819, 0, 26.399)" fill="#242a39" fill-rule="evenodd"/>
        <path id="Path_517" data-name="Path 517" d="M0,2.075A7.473,7.473,0,0,0,3.028,0C2.171-.071.465,1.291,0,2.075Z" transform="translate(10.145 0)" fill="#242a39" fill-rule="evenodd"/>
        <path id="Path_518" data-name="Path 518" d="M0,.364C.923.324,2.5.478,3.124.119a5.266,5.266,0,0,0-2.21,0Z" transform="translate(9.282 54.219)" fill="#242a39" fill-rule="evenodd"/>
      </g>
    </g>
  </g>
</svg>
