<svg xmlns="http://www.w3.org/2000/svg" xmlns:xlink="http://www.w3.org/1999/xlink" width="48.147" height="48.68" viewBox="0 0 48.147 48.68">
  <defs>
    <linearGradient id="linear-gradient" x1="0.237" y1="0.051" x2="0.726" y2="0.935" gradientUnits="objectBoundingBox">
      <stop offset="0" stop-color="#9e8bff"/>
      <stop offset="1" stop-color="#5775ff"/>
    </linearGradient>
  </defs>
  <g id="Group_4085" data-name="Group 4085" transform="translate(-1596.848 -876.034)">
    <g id="Group_3579" data-name="Group 3579" transform="translate(1596.848 876.358)">
      <g id="Group_3577" data-name="Group 3577" transform="translate(39.597 1.344) rotate(-20)">
        <line id="Line_86" data-name="Line 86" y1="2.235" x2="2.682" transform="translate(0.782 0.447)" fill="none" stroke="#242a39" stroke-linecap="round" stroke-width="1"/>
        <line id="Line_87" data-name="Line 87" y1="1.9" x2="0.671" transform="translate(0 0)" fill="none" stroke="#242a39" stroke-linecap="round" stroke-width="1"/>
        <path id="Path_417" data-name="Path 417" d="M0,.671,2.394,0" transform="translate(1.537 3.074)" fill="none" stroke="#242a39" stroke-linecap="round" stroke-width="1"/>
      </g>
      <path id="_8726174_rupee_sign_icon" data-name="8726174_rupee_sign_icon" d="M1,.333H.815A.457.457,0,0,0,.732.166H1A.083.083,0,1,0,1,0H.084a.083.083,0,1,0,0,.166H.375A.291.291,0,0,1,.637.333H.084A.083.083,0,1,0,.084.5H.666a.291.291,0,0,1-.287.25H.056A.057.057,0,0,0,.04.757L.03.763h0A.062.062,0,0,0,.018.777L.011.788A.051.051,0,0,0,.011.8.054.054,0,0,0,0,.832H0A.058.058,0,0,0,0,.843.054.054,0,0,0,0,.86.057.057,0,0,0,.009.876a.012.012,0,0,0,.006.01l.5.582A.083.083,0,0,0,.64,1.36L.265.915h.11A.457.457,0,0,0,.832.5H1A.083.083,0,1,0,1,.333Z" transform="matrix(0.978, -0.208, 0.208, 0.978, 31.622, 12.107)" fill="#fff"/>
      <g id="_529959560" transform="matrix(0.999, -0.035, 0.035, 0.999, 13.062, 6.054)">
        <path id="Path_511" data-name="Path 511" d="M2.135,5.412l-.15.2a.975.975,0,0,0-.066.093l-.131.392c.841.194,2.6-1.621,3.759-2.261.592-.328.35,0,.481-.436-.67.217-1.688,1.28-3.243,1.965.217-.484.077-.385.595-.8L7.313,1.421C7.756,1.073,8.632.656,8.7.051c-.507,0-.057-.153-.8.51L5.975,2.255c-.6.36-.038.054-.532.175C6.014.984,7.284,1.2,7.431,0,7.007.083,6.1.946,5.666,1.207l.414.143c-.752.449-.535,1.284-.924,1.522C4.3,3.4,4.8,3.153,4.068,3.8l.72-1.013c.028-.029.111-.121.134-.15.2-.245.06-.041.165-.277L3.631,3.8a3.034,3.034,0,0,0-.389.338,6.628,6.628,0,0,0-.666.618L0,7.287c.14-.156.239-.271.44-.475A7.511,7.511,0,0,1,2.135,5.412Z" transform="translate(1.896 0.883)" fill="#242a39" fill-rule="evenodd"/>
        <path id="Path_512" data-name="Path 512" d="M1.154,10.562c.016-.032.035-.118.038-.1L.528,2.332C.523,1.733.973-.038.3,0-.343.038.24,4.778.292,5.377A16.345,16.345,0,0,0,1.154,10.562Z" transform="translate(31.826 13.7)" fill="#242a39" fill-rule="evenodd"/>
        <path id="Path_514" data-name="Path 514" d="M0,.167C.825.65,5.354.187,6.625.089A16.928,16.928,0,0,0,3.619.047C2.545.021,1.227.162,0,.167Z" transform="translate(5.805 35.803)" fill="#242a39" fill-rule="evenodd"/>
        <path id="Path_515" data-name="Path 515" d="M.107,3.559C.287,3.31.689.506.371,0A7.986,7.986,0,0,0,.107,3.559Z" transform="translate(33.631 24.703)" fill="#242a39" fill-rule="evenodd"/>
        <path id="Path_516" data-name="Path 516" d="M0,3.628C.4,3.9.577,3.45,1.363,2.516L3.758,0a19.377,19.377,0,0,0-1.9,1.7l-1.38,1.5C.312,3.382.168,3.459,0,3.628Z" transform="translate(0 8.839)" fill="#242a39" fill-rule="evenodd"/>
        <path id="Path_517" data-name="Path 517" d="M0,1.34A4.821,4.821,0,0,0,1.954,0C1.4-.046.3.833,0,1.34Z" transform="translate(12.155 0)" fill="#242a39" fill-rule="evenodd"/>
        <path id="Path_518" data-name="Path 518" d="M0,.234A6.2,6.2,0,0,0,2.016.077a3.418,3.418,0,0,0-1.427,0Z" transform="translate(11.598 34.998)" fill="#242a39" fill-rule="evenodd"/>
      </g>
      <path id="Path_2668" data-name="Path 2668" d="M16.953,17.307c10.646-5.516,20.532-.974,20.532,9.382A18.752,18.752,0,0,1,18.733,45.44C8.377,45.44.426,33.722-.019,26.689S6.307,22.822,16.953,17.307Z" transform="translate(0.039 2.916)" opacity="0.1" fill="url(#linear-gradient)"/>
    </g>
    <g id="Icon_feather-home" data-name="Icon feather-home" transform="translate(1611.328 883.397) rotate(-7)">
      <path id="Path_811" data-name="Path 811" d="M12.857,0l.061,0c.189.01.765.042,2.75,1.285A18.224,18.224,0,0,1,19.359,4c2.42,2.091,5.422,4.126,5.987,5.648.446,1.2.476,4.782.423,7.576-.061,3.2-.254,6.368-.4,7.316a4.649,4.649,0,0,1-1.122,2.509,3.026,3.026,0,0,1-2.226,1,63.028,63.028,0,0,1-9.239.794,59.652,59.652,0,0,1-9.074-.794,2.754,2.754,0,0,1-2.1-.761,5.414,5.414,0,0,1-1.2-2.713c-.306-1.4-.133-4.7-.231-7.739S-.052,13.609.021,12.4A7.959,7.959,0,0,1,.447,9.614c.5-1.086,3.815-3.923,5.7-5.429C7.581,3.035,8.926,2.044,10.034,1.32,11.845.137,12.512,0,12.857,0Zm-.019,28.27a40.506,40.506,0,0,0,9.1-1.245.513.513,0,0,1,.061,0c1.213,0,2.118-1.009,2.362-2.633.3-2.01.716-12.527.026-14.381-.3-.8-2.186-2.966-5.094-5.2-1.351-1.039-3.058-1.953-4.167-2.648a6.621,6.621,0,0,0-2.26-1.13h0c-.083,0,4.872-2.566-2.26,1.153s-8.96,7.308-9.216,7.863a27.677,27.677,0,0,0-.6,6.845,39.7,39.7,0,0,0,.634,7.467c.542,2.475,1.306,2.666,2.327,2.666a.514.514,0,0,1,.06,0A39.639,39.639,0,0,0,12.837,28.27Z" transform="translate(0 3.832)" fill="#242a39"/>
      <path id="Path_812" data-name="Path 812" d="M8.724,15.256H8.695a.514.514,0,0,1-.485-.542c0-.028.158-2.87.241-5.824.048-1.731.062-3.16.041-4.247A8.75,8.75,0,0,0,8.3,2.378,4.921,4.921,0,0,0,4.684.656a4.39,4.39,0,0,0-3.5,1.679,10.724,10.724,0,0,0-.151,2.273C1.019,5.7.712,7.046.749,8.785a54.952,54.952,0,0,0,.5,5.935.514.514,0,1,1-1.027.044c0-.03-.128-3.006-.191-6.042-.13-6.286.13-6.7.27-6.917C.875.906,2.468,0,4.742,0a6.74,6.74,0,0,1,2.7.516A4.365,4.365,0,0,1,9.125,1.76c.169.212.337.589.389,2.634.027,1.093.017,2.554-.031,4.341-.081,3.035-.245,6.007-.247,6.036A.514.514,0,0,1,8.724,15.256Z" transform="translate(8.158 16.216)"/>
      <g id="_529969808" transform="translate(19.307 0) rotate(7)">
        <path id="Path_430" data-name="Path 430" d="M3.889,8.331l.22.16a4.377,4.377,0,0,0,1.842.787A3.036,3.036,0,0,0,7.181,9a2.369,2.369,0,0,0,.679-.445c.037-.032.059-.069.109-.072.089-.017.021,0,.09.035.252-.273.06-.191.5-.581A1.962,1.962,0,0,0,9.028,7.3a3.16,3.16,0,0,0,.308-1.879c0-1.692-.193-1.454-1-2.121-.074-.059-.038-.039-.074-.087-.174-.23-.774-.334-.956-.542a1.216,1.216,0,0,1,.888.152c-.036-.111-.046-.115-.177-.169A3.8,3.8,0,0,0,7,2.594c-.1-.059-.168-.128-.271-.187-.041.056,0,.083-.038.143-.822.037-.7.2-1.288.4A4.1,4.1,0,0,0,5.067,1.1C4.67.266,4.485.429,4.353.194S4.067.03,3.474,0C3.082-.018,2.521.325,2.2.355a1.466,1.466,0,0,0-.821.25,1.61,1.61,0,0,0-.566.518A3.244,3.244,0,0,0,.082,3.1a2.493,2.493,0,0,0,.053,1.39,1.563,1.563,0,0,0,.947,1.215c.134.056.275.08.411.132.112.045.227.135.354.184a2.61,2.61,0,0,0,.939.186A3.623,3.623,0,0,0,3.25,7.577a4.293,4.293,0,0,0,.415.508c.054.069.319.536.326.553C4,8.487,4,8.626,3.961,8.527A1.4,1.4,0,0,1,3.889,8.331ZM5.137,5.168a11.287,11.287,0,0,1,.875-1.82c.19-.26.162-.293.366-.343.419-.1.595-.23.88-.061.427.252,1.293.85,1.4,1.275-.186-.124-.253-.421-.515-.466.045.226.468.5.6.762A3.978,3.978,0,0,1,8.867,5.72a2.1,2.1,0,0,0,.056-.861c.1.072.112.121.15.263a3.071,3.071,0,0,1-.456,2.113,3.346,3.346,0,0,0,.108-1.423C8.631,5.52,8.62,5.52,8.5,5.5a1.941,1.941,0,0,1,.061,1.516,1.983,1.983,0,0,1-.591,1.195C7.659,8.551,6,9.44,5.447,8.976c.227-.145.443-.009.644-.3-.045.009-.963.583-1.464-.2H4.65l.023,0,.021,0h.02c.16.007-.067.069.056.007-.1-.187-.127-.145-.249-.315-.209-.282-.08-.2-.238-.3.034.228.235.315.312.508-.135-.032-.155-.069-.268-.289-.056.121.029.145.086.3-.283-.033-.5-.217-.415-.482a.2.2,0,0,0-.109.028c-.111.045.06,0-.107.048a1.212,1.212,0,0,1-.211-1.147c.15.089.246.514.5.955a.216.216,0,0,0-.021-.2c.073-.017.03.028.115.039a6.38,6.38,0,0,1-.283-.837c-.165.056.032,0-.074.087,0,0,.048.173-.062-.024-.155-.276.042-.581.175-.822.4-.744.526-.4,1.05-1.165a3.5,3.5,0,0,0,.265-.466c.344-.712.1-1.085.263-1.215.083.02-.005-.07.043.041l0,.49c.084.045.017-.045.111,0-.06.1,0,0-.05.115-.005.009-.032.076-.035.08-.038.074-.058.085-.1.174-.051.122-.078.295-.127.419C5.223,4.808,5.036,5.064,5.137,5.168Zm-1,2.6a.151.151,0,0,0-.01.028c-.049.28-.046-.1-.009.085Zm.025-.139c0,.15,0,.163.119.232C4.243,7.741,4.272,7.709,4.166,7.626Zm-.733-.77c-.033-.061-.163-.137-.026-.345.032-.048.035-.037.068-.065.034.037.031-.045.074.1a.313.313,0,0,1-.05.241C3.459,6.846,3.471,6.819,3.432,6.856Zm.184-.506c-.013-.273.124-.315.238-.464A.863.863,0,0,1,3.616,6.349ZM3.21,6.117a4.447,4.447,0,0,1,.535-.241c-.192.293-.08-.032-.364.525-.038.072-.063.106-.1.178-.034-.045-.021.019-.062-.106A.25.25,0,0,1,3.2,6.379,2.062,2.062,0,0,1,3.21,6.117ZM1.335,1.264a2.4,2.4,0,0,1,1.4-.774C3.089.431,3,.418,3.2.63c.057-.08-.009.02.015-.1,0,0,0-.019.006-.028L3.241.439a1.259,1.259,0,0,1,.671.08A1.415,1.415,0,0,1,4.365.8c.209.3.2.043.336.4a6.023,6.023,0,0,1,.274,1.2A2,2,0,0,1,5,3.958l-.149.228c-.017-.362.09-.714.08-1.057a2.894,2.894,0,0,0-.47-1.768c-.105-.124-.426-.518-.629-.4.033.152.246.176.394.284a1.178,1.178,0,0,1,.306.358,2.251,2.251,0,0,1,.25,1.386,1.45,1.45,0,0,1-.139.846,3.12,3.12,0,0,1-.436.881c0-.215.047-.616.061-.853.021-.365.049-2.26-.442-2.276.039.2.111.108.222.5a2.963,2.963,0,0,1,.118.614,15.267,15.267,0,0,1-.022,1.976.657.657,0,0,1-.2.5,1.137,1.137,0,0,1-.364.377,2.8,2.8,0,0,0-.445.239c.09.052.1.017.191.082a2.342,2.342,0,0,1-2.037-.377l-.164-.141c0-.013-.028-.011-.021-.02l.057-.052c.292.28,1.352.245,1.4.26l.073-.08c-.009-.02-.128-.493-.133-.532l.2-.011a.256.256,0,0,1,.015.032l.032.108c.031.176-.041.208.082.365.173-.069.128-.3.134-.521.2-.156.368-.145.548-.352.774-.887-.128-1.319-.459-1.584-.006-.156.027-.3.011-.488a3.645,3.645,0,0,1-.026-.525c.115.048.07,0,.15.1-.032-.161-.067-.028-.15-.328l.457.169.08-.065a.9.9,0,0,0-.2-.325c-.092-.108-.182-.113-.362-.135.017-.189.093-.462-.085-.534-.144.093-.1.356-.111.577l-.334.093c.008-.336.117-.57-.244-.584.009.2,0,.408.005.664a1.258,1.258,0,0,0-.686.853c-.025.4.4.646.661.794L2.283,4.5c-.39-.035-.471-.3-.861-.28.037.186.12.165.178.4-.327.089-.427.373-.651.453.04-.429.508-.837.457-1.265-.245.024-.464.7-.735.85A4.213,4.213,0,0,1,1.04,3.8c.162-.343.389-.633.289-.809L.661,4.346a.217.217,0,0,1-.067.072A3.919,3.919,0,0,1,.58,2.643,2.37,2.37,0,0,1,1.4,1.5L1.23,2.09c.4-.722.278-.677.174-.762ZM1.2,2.093ZM1.075,5.184A1.084,1.084,0,0,1,1.3,4.9a.477.477,0,0,1,.34-.176c-.074.584-.031.416.173.724A1.7,1.7,0,0,1,1.075,5.184Zm1.351.263c-.789.058-.611-.263-.777-.777.049,0,.549.161.585.18a.212.212,0,0,1,.049.093l.038.234C2.375,5.44,2.421,5.208,2.426,5.448ZM.84,4.915C.817,4.895.8,4.956.767,4.822c-.025-.1.274-.521.35-.6ZM2.458,3.348l.242.009.009,1.106H2.5ZM.615,4.9c.12.13.162.278.376.514a.949.949,0,0,1,.127.156A1.357,1.357,0,0,1,.277,4.531L.244,4.049C.379,4.2.384,4.65.615,4.9ZM3.038,3.424c.608.069.605,1.095-.045,1.074ZM4.4,4.6c.149-.258.23-.514.35-.775a.076.076,0,0,1,.011.024l-.031.493a.883.883,0,0,1-.169.414,1.111,1.111,0,0,1-.587.573Zm4.531-.43a1.844,1.844,0,0,0-.145-.243l-.171-.176c.009-.009.02-.017.021-.03s.021-.011.029-.02c.112.148.225.154.361.417a1.549,1.549,0,0,1,.111.276c.082.23.073.193.026.28-.05-.063.012.05-.049-.07-.005-.009-.018-.048-.022-.054ZM6.032,3.08c-.067.184-.11.139-.2.271-.059.085-.08.278-.218.3l.126-.516ZM2.464,2.828A3.877,3.877,0,0,1,2.5,1.73c.5-.054.333.176.291,1.113ZM2.255,2.8c-.633-.087-.451-.733-.013-.874Zm-2-.2A3.122,3.122,0,0,1,.739,1.481,1.886,1.886,0,0,1,1.5.691L1.327.867a.135.135,0,0,1-.018.02c-.464.493-.21.345-.461.737-.115.176-.2.317-.288.486-.051.1-.087.167-.134.256-.011.02-.05.108-.062.132C.294,2.607.361,2.539.255,2.6Z" transform="translate(0 0)" fill="#242a39" fill-rule="evenodd"/>
        <path id="Path_431" data-name="Path 431" d="M1.656,3.809c.034-.438.062-.753.128-1.15a.581.581,0,0,1,.492.625C2.23,3.627,2,3.761,1.656,3.809ZM1.052,4a5.765,5.765,0,0,1,.026-1.423.436.436,0,0,1,.385.054A7.193,7.193,0,0,1,1.4,3.46C1.36,3.768,1.442,4.12,1.052,4ZM1.5,1.115,1.486,2.28c-.185-.019-.2-.1-.389-.147A5.556,5.556,0,0,1,1.161,1.5C1.187,1.191,1.24,1.191,1.5,1.115ZM.982,1c-.311.161-.644.265-.659.7a.84.84,0,0,0,.454.79l.1.061L.84,3.92.293,3.736c-.182.111.141-.093-.065.072l-.046.035C.088,3.9.1,3.848,0,3.909c.029.267.257.111.605.221.464.152.123.568.39,1,.2-.078.121-.145.139-.534-.1-.052.114-.024-.1.006a.1.1,0,0,1-.014,0c-.014-.369-.045-.4.314-.386a4.787,4.787,0,0,0,.02.609l.163.445.074-.837c.009-.056.014-.085.024-.124.077-.28.123-.141.592-.429.279-.169.247-.141.3-.545.077-.573-.238-.79-.716-.887a6.325,6.325,0,0,1,.044-1.334h.15c.346.089.33.117.453.252.2-.3-.37-.449-.5-.5L1.818.831C1.637.755,1.89.137,1.461.117L1.5.811a.735.735,0,0,1-.328.128L1.142.189C1.133-.019,1.186.072,1.064,0,.95.061.953.249.974.438A2.769,2.769,0,0,1,.982,1Z" transform="translate(5.081 3.363)" fill="#242a39" fill-rule="evenodd"/>
        <path id="Path_432" data-name="Path 432" d="M3.291,1.195A3.639,3.639,0,0,0,.9.01C.75.032-.136.132.018.293.088.369.829.176,1.069.186,2.535.253,3.37,1.872,3.291,1.195Z" transform="translate(5.813 1.636)" fill="#242a39" fill-rule="evenodd"/>
        <path id="Path_433" data-name="Path 433" d="M0,0A3.362,3.362,0,0,0,.576.592,4.3,4.3,0,0,0,.919.868a1.2,1.2,0,0,0,.326.234A5.34,5.34,0,0,0,.625.544C.254.221.176,0,0,0Z" transform="translate(4.458 7.636)" fill="#242a39" fill-rule="evenodd"/>
      </g>
    </g>
  </g>
</svg>
