<svg xmlns="http://www.w3.org/2000/svg" width="35.192" height="35.33" viewBox="0 0 35.192 35.33">
  <g id="Group_4037" data-name="Group 4037" transform="translate(-13.383)">
    <g id="_2058115168" transform="translate(13.383 0)">
      <path id="Path_769" data-name="Path 769" d="M7301.694,22147.926l-.2-.834c-1.056.367.051.184-.8,2.354-.184.469-.158.5-.481.756l.3-1.049c-.581.1-.442.127-.632.67a5.951,5.951,0,0,0-.31,1.059c.767-.258.051-.172.677-.576.14.215-.032.076.285.25a5.393,5.393,0,0,1-1.853,2.227c-.829.539-.252.242-.587.633a7.182,7.182,0,0,1-1.791.85,4.45,4.45,0,0,1-2.055.533c-1.891.131-2.34.656-4.516.32a9.93,9.93,0,0,1-3.964-1.506l-.544-.385c-.006-.012-.209-.193-.209-.193l-1.341-1.334c-1.549-1.57-3.117-4.285-2.4-6.7.549-1.822-.52-3.768,2.8-8.164.02-.029.089-.119.115-.148l.107-.158c1.669-2.568,2.593-2.523,4.161-3.582a5.688,5.688,0,0,1,4.047-1.439c3.82-.014,8.651,3.693,9.543,6.92C7302.795,22141.135,7302.958,22145.156,7301.694,22147.926Zm-17.962-10.006c.468-.225.683-.814,1.012-1.209,2-2.375.962-1.023,2.3-2.238a1.574,1.574,0,0,1,.632-.441c.62-.238.563.139.664-.5-.9-.422-3.175,2.344-3.693,2.951a.7.7,0,0,0-.064.066l-.442.623A7.6,7.6,0,0,0,7283.732,22137.92Zm18.487,13.354a5.56,5.56,0,0,1-.691,1.543,4.727,4.727,0,0,0-.423.635c-.316.6-.069.363-.556.684-.183-.656.277-1.1.631-1.664C7301.77,22151.537,7301.7,22151.373,7302.22,22151.273Zm10.028,7.189c.981.893,3.65,2.111,2.733,5-.873,2.748-3.346,2.6-5.168,1.426-1.473-.949-2.706-2.814-3.839-4.311a41.984,41.984,0,0,1-2.585-3.6c-.114-.826.544-.705.234-1.521-.278.4-.044.359-.386.928a.878.878,0,0,1-.2.244.5.5,0,0,1-.056-.1c-.007-.029-.032-.076-.044-.113-.2-.645.057.537-.07-.236-.081-.535.159-.781.146-1.441-.361.3-.423.711-.841,1-.48-.7-.709-.621-.151-1.492a4.86,4.86,0,0,0,.664-1.3c-.432.014-.55.348-.759.791-.482,1.018-.38.9-.752,1-.33-.7,1.169-2.754,1.46-3.006a2.851,2.851,0,0,1,1.2.869l3.313,2.531c1.722,1.154,2.252,1.945,4.7,3.047l-.151.141c-.5.482-.209.121-.424,1.152a4.346,4.346,0,0,1-.615,1.271c-1.417,2.561-1.486.607-1.465,1.848C7310.515,22162.568,7311.87,22158.885,7312.248,22158.463Zm-10.712-8.4a3.968,3.968,0,0,1,.372-.98,20.127,20.127,0,0,0,1.271-8.254c-.417-3.281-.924-3.9-2.543-5.838-1.916-2.281-6.715-4.816-9.745-3.852-.57.18-.277.3-.923.414-1.865.3-1.619.586-2.959,1.289-.836.438-.191.057-.641.684a20.617,20.617,0,0,0-4.231,5.5l-1.106,3.021a11.3,11.3,0,0,0-.152,6.2,11.71,11.71,0,0,0,3.4,4.979,10.964,10.964,0,0,0,5.805,2.576,12.524,12.524,0,0,0,3.605-.309c.658-.186.082-.2,1.19-.318,3.1-.338,3.674-2.469,4.786-1.066l.557.484a.774.774,0,0,0,.109.051c.088.367-.032.533.169.758.266.285-.031-.094.525-.256l.032,1.037c.677-.033.158.211.494-.363a10.755,10.755,0,0,0,.72.881l3.751,4.912c.575.707.91,1.275,1.5,1.963,2.208,2.531,6.244,4.576,8.025-.189a3.913,3.913,0,0,0-.241-2.812c-1.339-2.27-4.242-3.186-6.848-5.266-.689-.557-3.174-2.156-3.958-2.98a10.2,10.2,0,0,0-.929-.8A7.921,7.921,0,0,0,7301.536,22150.064Z" transform="translate(-7280.518 -22130.93)" fill="#262626" fill-rule="evenodd"/>
      <path id="Path_770" data-name="Path 770" d="M7790.512,22612.367a5.871,5.871,0,0,1,1.738,2.664,14.936,14.936,0,0,1,.76,3.488,8.808,8.808,0,0,1-.613,3.789c-.189.523-.386,1-.606,1.527s-.468.832-.739,1.387a8.367,8.367,0,0,1-1.948,2.467c-.823.879-1.581,1-3.018,1.27-2.416.457-4.951-.836-6.419-1.889a5.128,5.128,0,0,1-2.138-2.27,10.624,10.624,0,0,1-.07-7.129,18.158,18.158,0,0,1,1.462-2.826c1.347-2.258,5.06-4.8,8.405-3.865.954.273-.038.248,1.474.676a1.512,1.512,0,0,1,1.155.979C7790.341,22612.266,7789.911,22612.461,7790.512,22612.367Zm-13.09,13.189c-.026.025-.07.053-.082.064a.959.959,0,0,0-.082.063l-.361.469c.467.285.961.76,1.365.971.64.344.052-.1.74.2a15.179,15.179,0,0,0,3.7,1.883,7.7,7.7,0,0,0,5.636-.295,3.054,3.054,0,0,0,1.271-.984c3.426-3.506,5.027-8.631,3.01-13.559a4.862,4.862,0,0,0-2.081-2.564,26.846,26.846,0,0,0-3.169-1.367c-3.286-.836-7.539,1.975-8.991,4.516a13.545,13.545,0,0,0-1.48,3.043C7776.276,22619.914,7776.08,22624.141,7777.422,22625.557Z" transform="translate(-7773.282 -22607.254)" fill="#262626" fill-rule="evenodd"/>
      <path id="Path_775" data-name="Path 775" d="M12108.676,26671a1.266,1.266,0,0,0-1.03.094c.165.4-.24-.07.531.4a4.128,4.128,0,0,1-.771,2.139l-.405.662c.58-.092.746-.428,1.177-1.336A3.136,3.136,0,0,0,12108.676,26671Z" transform="translate(-12076.476 -26642.23)" fill="#262626" fill-rule="evenodd"/>
      <path id="Path_776" data-name="Path 776" d="M8068.167,22779a5.327,5.327,0,0,0-2.169,2.451,4.35,4.35,0,0,0,1.107-1.2C8067.478,22779.752,8068.085,22779.51,8068.167,22779Z" transform="translate(-8061.031 -22774.898)" fill="#262626" fill-rule="evenodd"/>
      <path id="Path_777" data-name="Path 777" d="M12432.923,26858.848c-.335-.324-.227-.369-.508-.2.368.871-.312,1.18-.415,1.748C12432.55,26860.318,12432.93,26859.551,12432.923,26858.848Z" transform="translate(-12399.421 -26828.652)" fill="#262626" fill-rule="evenodd"/>
      <path id="Path_778" data-name="Path 778" d="M7531.636,24271c-.652-.055-.892.2-.386.74C7531.674,24271.566,7531.6,24271.557,7531.636,24271Z" transform="translate(-7529.394 -24257.461)" fill="#262626" fill-rule="evenodd"/>
      <path id="Path_779" data-name="Path 779" d="M7618.65,24699c-.466.182-.555.355-.036.576C7618.752,24699.342,7618.828,24699.336,7618.65,24699Z" transform="translate(-7616.125 -24682.762)" fill="#262626" fill-rule="evenodd"/>
      <path id="Path_780" data-name="Path 780" d="M7602.574,24555c-.461.189-.417.381.083.533Z" transform="translate(-7600.218 -24539.672)" fill="#262626" fill-rule="evenodd"/>
      <g id="_529969808" transform="translate(6.275 7.322)">
        <path id="Path_430" data-name="Path 430" d="M4.682,57019.6l.254.184a5.213,5.213,0,0,0,2.132.906,3.318,3.318,0,0,0,1.424-.324,2.6,2.6,0,0,0,.786-.5c.043-.047.068-.094.127-.1.1,0,.025.016.1.055.292-.316.069-.223.575-.68a2.246,2.246,0,0,0,.547-.746,3.662,3.662,0,0,0,.356-2.176c0-1.957-.224-1.691-1.152-2.449-.086-.074-.044-.047-.086-.094-.2-.277-.9-.391-1.106-.633a1.414,1.414,0,0,1,1.028.168c-.042-.121-.053-.125-.2-.2a4.384,4.384,0,0,0-1.187-.059,2.358,2.358,0,0,0-.314-.215c-.047.059,0,.09-.045.16-.951.039-.806.234-1.491.465a4.722,4.722,0,0,0-.384-2.133c-.459-.977-.673-.785-.826-1.062-.151-.262-.33-.18-1.017-.219-.453-.023-1.1.379-1.479.414a1.663,1.663,0,0,0-.95.289,1.778,1.778,0,0,0-.655.6,3.745,3.745,0,0,0-.842,2.293,2.9,2.9,0,0,0,.061,1.613,1.806,1.806,0,0,0,1.1,1.4c.155.063.319.09.476.156.13.055.262.16.41.207a2.682,2.682,0,0,0,1.086.211,4.163,4.163,0,0,0,.537,1.586,5.163,5.163,0,0,0,.481.6c.062.078.369.605.377.637.015-.187.016-.031-.035-.133A1.233,1.233,0,0,1,4.682,57019.6Zm1.445-3.664a13.123,13.123,0,0,1,1.013-2.105c.22-.3.187-.34.423-.395.485-.125.689-.273,1.019-.074.494.289,1.5.98,1.625,1.473-.216-.148-.293-.484-.6-.531.052.262.542.57.7.875a4.641,4.641,0,0,1,.135,1.4,2.4,2.4,0,0,0,.064-.988c.121.074.13.133.173.289a3.524,3.524,0,0,1-.528,2.445,3.825,3.825,0,0,0,.125-1.641c-.107-.344-.12-.344-.256-.375a2.281,2.281,0,0,1,.07,1.766,2.28,2.28,0,0,1-.684,1.379c-.362.4-2.285,1.426-2.923.891.263-.164.512-.016.745-.352-.052.02-1.115.672-1.695-.223a.034.034,0,0,1,.028-.012s.022-.008.027-.008h.047c.185.008-.077.082.065.02-.115-.227-.147-.176-.288-.371-.241-.328-.093-.238-.275-.355.04.277.272.371.361.594-.156-.027-.179-.082-.31-.336-.065.141.034.172.1.352-.327-.035-.581-.254-.48-.559-.095,0-.071,0-.127.039-.129.043.069,0-.124.051a1.4,1.4,0,0,1-.244-1.324c.173.1.285.586.581,1.1a.234.234,0,0,0-.025-.223c.084-.027.035.035.133.039a7.218,7.218,0,0,1-.327-.961c-.191.055.037,0-.086.1,0,0,.055.2-.072-.035-.179-.316.048-.664.2-.953.468-.848.608-.453,1.215-1.332a4.886,4.886,0,0,0,.307-.551c.4-.82.115-1.25.3-1.4.1.012-.006-.082.049.043l0,.566c.1.055.02-.047.129,0-.069.129,0,0-.058.133-.006.016-.038.09-.041.1a1.383,1.383,0,0,0-.112.2c-.059.137-.09.344-.146.484C6.226,57015.527,6.01,57015.816,6.127,57015.938Zm-1.154,3.008a.1.1,0,0,0-.012.031c-.056.324-.053-.113-.01.094Zm.029-.164c0,.176,0,.2.138.262C5.093,57018.918,5.125,57018.879,5,57018.781Zm-.849-.887c-.039-.074-.189-.16-.031-.4.038-.055.041-.043.078-.074.04.039.036-.055.086.113a.362.362,0,0,1-.058.281A.282.282,0,0,1,4.154,57017.895Zm.213-.594c-.015-.312.143-.355.275-.527A.964.964,0,0,1,4.366,57017.3Zm-.47-.262a3.5,3.5,0,0,1,.619-.273c-.223.336-.093-.047-.421.6-.044.086-.073.121-.112.2-.04-.051-.024.023-.072-.117a.283.283,0,0,1-.02-.113A2.328,2.328,0,0,1,3.9,57017.039Zm-2.17-5.617a2.792,2.792,0,0,1,1.621-.9c.41-.066.3-.074.54.168.066-.1-.011.027.018-.121,0-.016,0-.02.007-.039l.02-.066a1.566,1.566,0,0,1,.777.09,1.65,1.65,0,0,1,.524.344c.242.344.231.043.389.461a6.949,6.949,0,0,1,.317,1.391,2.287,2.287,0,0,1,.035,1.785l-.172.262c-.02-.41.1-.816.093-1.215a3.329,3.329,0,0,0-.544-2.043c-.122-.141-.493-.605-.728-.465.039.18.285.211.456.328a1.347,1.347,0,0,1,.354.41,2.634,2.634,0,0,1,.29,1.609,1.68,1.68,0,0,1-.161.98,3.674,3.674,0,0,1-.5,1.02c0-.246.054-.715.07-.984.024-.43.056-2.625-.511-2.633.046.223.129.125.257.582a3.321,3.321,0,0,1,.137.711,17.579,17.579,0,0,1-.026,2.281.783.783,0,0,1-.236.586,1.517,1.517,0,0,1-.421.441,2.29,2.29,0,0,0-.515.266c.1.059.117.023.222.1a2.729,2.729,0,0,1-2.358-.437l-.19-.168c0-.008-.033-.008-.025-.02l.066-.055c.338.316,1.565.277,1.623.289l.084-.086c-.01-.023-.148-.566-.153-.625H3.3a.09.09,0,0,1,.017.039l.038.121c.036.2-.047.234.095.418.2-.074.148-.34.155-.6.235-.18.425-.164.634-.4.9-1.035-.148-1.531-.531-1.836-.007-.18.031-.348.013-.574a4.083,4.083,0,0,1-.03-.6c.134.059.081.008.173.117-.038-.184-.077-.027-.173-.379l.529.2.093-.074a.973.973,0,0,0-.229-.371c-.107-.129-.211-.137-.418-.168.02-.215.108-.535-.1-.617-.166.105-.119.41-.129.664l-.387.121c.009-.4.136-.672-.283-.687.011.23,0,.469.006.773a1.449,1.449,0,0,0-.794.988c-.029.465.464.738.765.918l.073,1.449c-.451-.047-.545-.348-1-.328.043.215.139.2.206.465-.379.1-.495.43-.753.523.046-.5.588-.961.529-1.465-.284.031-.537.813-.851.984a4.686,4.686,0,0,1,.426-.992c.187-.4.45-.734.334-.934l-.773,1.566c-.049.066-.018.039-.077.086a4.521,4.521,0,0,1-.017-2.051,2.8,2.8,0,0,1,.945-1.328l-.193.684c.461-.832.322-.781.2-.879Zm-.153.953Zm-.147,3.586a1.184,1.184,0,0,1,.257-.324.514.514,0,0,1,.394-.2c-.086.668-.036.477.2.832A2,2,0,0,1,1.426,57015.961Zm1.563.293c-.913.074-.707-.3-.9-.895.056.016.635.2.677.207a.258.258,0,0,1,.056.109l.044.27C2.93,57016.254,2.983,57015.992,2.989,57016.254Zm-1.835-.605c-.027-.031-.044.047-.084-.121-.029-.1.318-.59.4-.691Zm1.872-1.82.28.02.01,1.27H3.08Zm-2.132,1.809c.139.145.187.316.435.586a.752.752,0,0,1,.147.191A1.59,1.59,0,0,1,.5,57015.2l-.038-.559C.62,57014.824.626,57015.336.894,57015.637Zm2.8-1.723c.7.082.7,1.273-.052,1.25Zm1.579,1.371c.172-.3.266-.6.4-.9a.105.105,0,0,0,.013.031l-.036.57a.989.989,0,0,1-.2.477c-.227.363-.3.5-.68.672Zm5.244-.5a2.63,2.63,0,0,0-.168-.289l-.2-.2c.01-.02.023-.02.025-.039s.024-.016.034-.023c.13.172.26.176.418.484a2.1,2.1,0,0,1,.129.316c.095.27.084.219.03.332-.058-.074.014.059-.056-.082-.006-.008-.021-.055-.026-.066Zm-3.358-1.27c-.077.207-.128.164-.235.313-.068.105-.092.32-.252.352l.145-.59Zm-4.13-.281a4.554,4.554,0,0,1,.04-1.281c.576-.059.385.211.336,1.285Zm-.241-.035c-.732-.109-.521-.848-.015-1.023Zm-2.315-.242a3.547,3.547,0,0,1,.561-1.285,2.111,2.111,0,0,1,.884-.914l-.2.2c-.007,0-.015.023-.021.027-.537.566-.243.4-.533.844-.133.215-.228.371-.333.578-.059.1-.1.18-.155.281-.013.031-.058.129-.072.152C.522,57012.98.6,57012.906.476,57012.961Z" transform="translate(-0.182 -57009.957)" fill="#2b2b2b" fill-rule="evenodd"/>
        <path id="Path_431" data-name="Path 431" d="M5945.916,60945.406c.04-.5.072-.863.149-1.328a.673.673,0,0,1,.569.734C5946.58,60945.2,5946.315,60945.352,5945.916,60945.406Zm-.7.219a6.543,6.543,0,0,1,.03-1.633.448.448,0,0,1,.446.059,7.777,7.777,0,0,1-.078.949C5945.573,60945.371,5945.668,60945.77,5945.217,60945.625Zm.519-3.332-.017,1.344c-.215-.02-.226-.113-.451-.168a7.1,7.1,0,0,1,.074-.727C5945.374,60942.383,5945.435,60942.383,5945.736,60942.293Zm-.6-.129c-.359.18-.746.309-.762.809a.939.939,0,0,0,.524.906l.122.074-.047,1.594-.635-.215c-.21.125.163-.113-.075.074l-.053.043c-.108.066-.092.008-.21.074.033.313.3.129.7.262.538.176.144.652.451,1.16.233-.09.141-.176.161-.625-.109-.062.133-.023-.116,0,0,0-.012.008-.017.008-.016-.43-.052-.465.362-.445a5.527,5.527,0,0,0,.024.7l.188.523.086-.965a1.192,1.192,0,0,1,.028-.148c.089-.324.142-.168.686-.492.324-.2.286-.172.348-.637.09-.668-.275-.914-.828-1.031a7.173,7.173,0,0,1,.052-1.531h.172c.4.1.382.121.526.281.234-.344-.429-.523-.583-.57l-.135-.055c-.209-.086.084-.8-.413-.82l.043.8a.884.884,0,0,1-.381.148l-.032-.871c-.011-.234.051-.121-.091-.215-.131.066-.127.281-.1.512A3.052,3.052,0,0,1,5945.136,60942.164Z" transform="translate(-5938.119 -60937.109)" fill="#2b2b2b" fill-rule="evenodd"/>
        <path id="Path_432" data-name="Path 432" d="M6804.109,58927.852a4.145,4.145,0,0,0-2.767-1.367c-.172.016-1.2.133-1.021.324a9.113,9.113,0,0,0,1.216-.125C6803.234,58926.758,6804.2,58928.629,6804.109,58927.852Z" transform="translate(-6793.572 -58924.574)" fill="#2b2b2b" fill-rule="evenodd"/>
        <path id="Path_433" data-name="Path 433" d="M5215,65939.875a4.261,4.261,0,0,0,.666.688,4.721,4.721,0,0,0,.4.3,1.262,1.262,0,0,0,.377.273,6.58,6.58,0,0,0-.717-.641C5215.293,65940.133,5215.2,65939.867,5215,65939.875Z" transform="translate(-5209.84 -65931.047)" fill="#2b2b2b" fill-rule="evenodd"/>
      </g>
    </g>
  </g>
</svg>
