<svg xmlns="http://www.w3.org/2000/svg" xmlns:xlink="http://www.w3.org/1999/xlink" width="48.566" height="44.666" viewBox="0 0 48.566 44.666">
  <defs>
    <linearGradient id="linear-gradient" x1="0.237" y1="0.051" x2="0.726" y2="0.935" gradientUnits="objectBoundingBox">
      <stop offset="0" stop-color="#9e8bff"/>
      <stop offset="1" stop-color="#5775ff"/>
    </linearGradient>
  </defs>
  <g id="Group_4089" data-name="Group 4089" transform="translate(0 1.075)">
    <path id="Path_519" data-name="Path 519" d="M17.7,17.411c11.116-5.759,21.438-1.017,21.438,9.8A19.579,19.579,0,0,1,19.561,46.787C8.748,46.787.447,34.551-.018,27.207S6.587,23.17,17.7,17.411Z" transform="translate(0.039 -3.196)" opacity="0.1" fill="url(#linear-gradient)"/>
    <g id="Group_3573" data-name="Group 3573" transform="matrix(0.995, -0.105, 0.105, 0.995, 23.369, 1.378)">
      <path id="path78" d="M16.848,8.528c-.306-.01-.613-.014-.919-.014-.685,0-1.38.021-2.053.041-.624.019-1.27.038-1.9.041h-.1c-.811,0-1.626-.04-2.415-.079-.167-.008-.335-.011-.5-.011-.253,0-.507.007-.76.014s-.505.014-.758.014c-.133,0-.266,0-.4-.007-.337-.012-.674-.018-1.011-.018-.61,0-1.228.017-1.827.033s-1.218.033-1.828.033h-.22c-.479,0-.969-.025-1.458-.064L.617,8.5C.5,8.5.436,8.491.417,8.468s-.012-.076,0-.168c0-.05.01-.11.014-.185l.014-.249c.026-.45.052-.916.059-1.378.013-.954.017-1.938.012-2.925C.51,3,.5,2.565.475,2.157c0-.075-.011-.157-.017-.244A3.29,3.29,0,0,1,.537.527,1.039,1.039,0,0,1,1.013.463c.132,0,.272.005.4.01.1,0,.2.008.271.008.038,0,.07,0,.095,0L1.9.466c.221-.021.43-.041.647-.041q.106,0,.214.007c.225.015.466.023.739.023.335,0,.67-.011,1.006-.022.27-.009.539-.018.806-.02C6.93.393,8.57.384,10.184.384h.778c1.879,0,3.781.02,5.652.048h.067c.112,0,.228,0,.344-.008s.236-.008.354-.008a2.774,2.774,0,0,1,.486.035c.058.01.111.015.16.02.167.015.268.025.363.227a1.4,1.4,0,0,1,.027.547c-.006.089-.012.171-.01.235.023.99.037,2.007.043,3.021,0,.9,0,1.813-.008,2.7,0,.094,0,.2.01.3.024.435.05.885-.4,1.023a1.378,1.378,0,0,1-.4.048c-.161,0-.329-.014-.488-.028-.113-.009-.221-.018-.315-.021Zm1.985-3.071c0-.891-.006-1.8-.02-2.7q-.01-.636-.025-1.273c0-.079,0-.174.007-.276a1.985,1.985,0,0,0-.057-.767c-.117-.284-.277-.321-.55-.362A7.667,7.667,0,0,0,17.048,0c-.262,0-.525.007-.786.014s-.51.014-.758.014h-.145C13.654.011,11.91,0,10.174,0H10.02C8.1,0,6.141.015,4.21.042H4.083c-.209,0-.42-.006-.631-.013S3.027.016,2.816.016a6.445,6.445,0,0,0-.668.03,5.294,5.294,0,0,1-.537.02H1.365A4.16,4.16,0,0,0,.579.12.735.735,0,0,0,.35.205.174.174,0,0,0,.243.274L.263.3H.224A.128.128,0,0,0,.2.356a3.57,3.57,0,0,0-.116,1.7c.014.16.028.315.035.461.036.754.025,1.526.016,2.273q-.005.36-.008.719l0,.3c0,.545-.006,1.11-.039,1.663-.006.1-.022.218-.037.338a2.262,2.262,0,0,0-.005.89.2.2,0,0,0,.181.14,25.5,25.5,0,0,0,2.7.125c.838,0,1.692-.027,2.518-.053s1.678-.053,2.516-.053c.541,0,1.029.011,1.491.034.861.042,1.733.063,2.668.063.7,0,1.407-.011,2.176-.035l.192-.006c.485-.015.986-.03,1.479-.03.22,0,.44,0,.662.01.133,0,.282.017.44.03.228.019.463.039.694.039a1.964,1.964,0,0,0,.677-.1c.353-.131.362-.378.375-.714.028-.712.026-1.438.024-2.139V5.457" transform="translate(0 6.656) rotate(-7)" fill="#242a39" stroke="#242a39" stroke-width="0.2"/>
      <path id="path80" d="M4.882,5.849a2.029,2.029,0,0,1-.089.306c-.1.238-.1.238-.365.244H4.377c-.191.005-.383.007-.575.007-.312,0-.623-.005-.935-.01q-.324-.006-.647-.009c-.339,0-.678-.008-1.017-.018C1.011,6.365.83,6.353.8,6.3S.86,6.14.979,5.97A4.165,4.165,0,0,0,1.652,4.2,4.311,4.311,0,0,0,.611.44,7.287,7.287,0,0,1,1.566.391l.559,0,.2,0q.245,0,.491,0c.477,0,.968.011,1.458.032l.121,0c.286.008.354.01.448.321L4.868.83a3.266,3.266,0,0,0,.156.445,2.92,2.92,0,0,0,.674.873c.071.07.144.142.212.212a2.041,2.041,0,0,1,.02.886,3.407,3.407,0,0,0-.025.356c0,.065.013.166.027.282a1.818,1.818,0,0,1,0,.8.838.838,0,0,1-.241.115,1.2,1.2,0,0,0-.25.115,1.327,1.327,0,0,0-.431.542,1.818,1.818,0,0,0-.126.392ZM6.309,4.793c0-.22-.005-.44-.009-.659-.005-.31-.011-.619-.009-.929,0-.074.008-.161.016-.254A1.5,1.5,0,0,0,6.255,2.2l-.012-.035,0-.007-.027.017h0l0-.054c-.073-.077-.146-.149-.217-.221a2.754,2.754,0,0,1-.6-.759A1.951,1.951,0,0,1,5.273.769,1.659,1.659,0,0,0,5.126.34C4.974.078,4.809.067,4.536.048l-.047,0C4.065.014,3.6,0,3.08,0c-.3,0-.6,0-.892.011-.114,0-.231,0-.349,0H1.574A5.891,5.891,0,0,0,.143.138.2.2,0,0,0,0,.292.166.166,0,0,0,.06.461,3.722,3.722,0,0,1,1.32,3.7,4.151,4.151,0,0,1,.84,5.47a2.8,2.8,0,0,1-.292.4,2.121,2.121,0,0,0-.359.545.191.191,0,0,0,.09.221,2.829,2.829,0,0,0,1.192.194c.275,0,.553-.016.822-.031.239-.014.466-.027.7-.027h0c.147,0,.323.014.513.029.228.018.487.038.731.038a1.928,1.928,0,0,0,.822-.138.19.19,0,0,0,.1-.167A1.534,1.534,0,0,1,6.172,4.977a.2.2,0,0,0,.137-.184" transform="translate(11.468 6.385) rotate(-7)" fill="#242a39" stroke="#242a39" stroke-width="0.2"/>
      <path id="path82" d="M4.659,4.074a4.29,4.29,0,0,0,.62,1.8c.045.07.091.131.131.184.069.092.124.165.109.205s-.105.075-.274.107a2.454,2.454,0,0,1-.458.035c-.11,0-.222,0-.332-.008s-.213-.007-.315-.007L3.467,6.4c-.319,0-.637.01-.956.01-.159,0-.317,0-.476,0H1.913c-.243,0-.268,0-.377-.226a1.239,1.239,0,0,1-.082-.3,1.441,1.441,0,0,0-.082-.312,1.594,1.594,0,0,0-.406-.6,1.138,1.138,0,0,0-.287-.137A.808.808,0,0,1,.4,4.687,1.469,1.469,0,0,1,.389,3.98C.4,3.87.416,3.771.418,3.7c0-.091-.01-.227-.024-.386a2.452,2.452,0,0,1,.018-.942c.074-.077.147-.15.219-.221A2.857,2.857,0,0,0,1.3,1.277,3.322,3.322,0,0,0,1.459.83L1.484.747c.095-.312.163-.314.449-.321l.121,0C2.546.4,3.035.389,3.509.389c.165,0,.329,0,.493,0l.206,0,.555,0a7.263,7.263,0,0,1,.953.049A4.289,4.289,0,0,0,4.659,4.074ZM6.184.139A5.978,5.978,0,0,0,4.738.02c-.157,0-.312,0-.462,0C3.939.006,3.6,0,3.259,0c-.523,0-.987.015-1.42.046l-.053,0c-.25.017-.431.029-.576.273a1.288,1.288,0,0,0-.123.384,1.782,1.782,0,0,1-.067.256A2.642,2.642,0,0,1,.33,1.9C.26,1.974.188,2.045.1,2.142l-.027.046a1.532,1.532,0,0,0-.055.766c.008.093.016.18.016.254,0,.309,0,.619-.009.929,0,.219-.008.439-.01.659a.2.2,0,0,0,.138.184A1.534,1.534,0,0,1,1.171,6.54a.19.19,0,0,0,.1.167,1.934,1.934,0,0,0,.824.138c.245,0,.5-.02.734-.038.189-.015.364-.028.541-.029.205,0,.436.013.677.028.268.016.545.032.819.032h0a2.816,2.816,0,0,0,1.188-.2.192.192,0,0,0,.089-.221,2.105,2.105,0,0,0-.359-.544,2.792,2.792,0,0,1-.292-.4,4.185,4.185,0,0,1-.48-1.77A3.679,3.679,0,0,1,6.267.463.165.165,0,0,0,6.323.293.2.2,0,0,0,6.184.139" transform="translate(1.283 7.635) rotate(-7)" fill="#242a39" stroke="#242a39" stroke-width="0.2"/>
      <path id="path84" d="M.707.1A.211.211,0,0,0,.531,0,.168.168,0,0,0,.379.1a8.058,8.058,0,0,0-.366.82.164.164,0,0,0,.014.156.2.2,0,0,0,.166.08.2.2,0,0,0,.188-.129A7.278,7.278,0,0,1,.712.288.185.185,0,0,0,.707.1" transform="translate(2.872 8.285) rotate(-7)" fill="#2e2d2d"/>
      <path id="path86" d="M.589,0A.188.188,0,0,0,.461.052,3.487,3.487,0,0,0,.038.519a.156.156,0,0,0-.022.17A.215.215,0,0,0,.2.8a.2.2,0,0,0,.16-.08A2.974,2.974,0,0,1,.731.325.168.168,0,0,0,.78.133.213.213,0,0,0,.589,0" transform="translate(3.494 8.664) rotate(-7)" fill="#2e2d2d"/>
      <path id="_8726174_rupee_sign_icon" data-name="8726174_rupee_sign_icon" d="M2.748.915H2.242A1.256,1.256,0,0,0,2.013.458h.735a.229.229,0,1,0,0-.458H.231a.229.229,0,1,0,0,.458h.8a.8.8,0,0,1,.721.458H.231a.229.229,0,1,0,0,.458h1.6a.8.8,0,0,1-.79.687H.231a.16.16,0,0,0-.032,0,.149.149,0,0,0-.046,0,.158.158,0,0,0-.043.023L.082,2.1h0a.172.172,0,0,0-.032.039.252.252,0,0,0-.021.032.14.14,0,0,0,0,.041A.149.149,0,0,0,0,2.289H0a.16.16,0,0,0,0,.032.149.149,0,0,0,0,.046.158.158,0,0,0,.023.043.034.034,0,0,0,.016.027l1.373,1.6a.229.229,0,0,0,.348-.3L.73,2.517h.3A1.259,1.259,0,0,0,2.29,1.373h.458a.229.229,0,1,0,0-.458Z" transform="matrix(0.995, -0.105, 0.105, 0.995, 8.645, 8.58)" fill="#242a39"/>
      <g id="Group_3574" data-name="Group 3574" transform="translate(18.218 0.913) rotate(-14)">
        <line id="Line_86" data-name="Line 86" y1="2.146" x2="2.576" transform="translate(0.751 0.429)" fill="none" stroke="#242a39" stroke-linecap="round" stroke-width="0.8"/>
        <line id="Line_87" data-name="Line 87" y1="1.824" x2="0.644" transform="translate(0 0)" fill="none" stroke="#242a39" stroke-linecap="round" stroke-width="0.8"/>
        <path id="Path_417" data-name="Path 417" d="M0,.644,2.3,0" transform="translate(1.476 2.951)" fill="none" stroke="#242a39" stroke-linecap="round" stroke-width="0.8"/>
      </g>
    </g>
    <g id="Group_3572" data-name="Group 3572" transform="translate(1.097 19.695)" style="isolation: isolate">
      <g id="Group_9" data-name="Group 9" transform="translate(0 0)">
        <g id="Group_7" data-name="Group 7" transform="translate(0 0.348)">
          <path id="Path_31" data-name="Path 31" d="M667.067,180.853s5.061-1.578,6.945-1.884a34.193,34.193,0,0,0,5.434-1.8,27.917,27.917,0,0,1,1.271,3.374c.394,1.446,1.928,5.083,1.928,5.083s-8.194,4.776-11.349,7.011a2.893,2.893,0,0,1-.528-1.1c-.189-.512-.349-1.03-.487-1.557l-.079-.106a1.106,1.106,0,0,1-.143-.263,2.088,2.088,0,0,1-.5-.786,12.076,12.076,0,0,1-.513-1.206l-.047-.118a3.623,3.623,0,0,1-.168-.411,4.513,4.513,0,0,1-.417-1.124c-.165-.259-.351-.5-.492-.779a4.627,4.627,0,0,1-.419-1.165,2.439,2.439,0,0,1-.046-.583c-.033-.094-.067-.2-.1-.313A4.568,4.568,0,0,1,667.067,180.853Z" transform="translate(-667.027 -173.721)" fill="none" fill-rule="evenodd"/>
          <path id="Path_32" data-name="Path 32" d="M455.151,154.369a.406.406,0,0,1,.141-.291c.123-.115.2-.27.306-.389.3-.327.5-.73.817-1.069a.384.384,0,0,0,.38-.181,1.255,1.255,0,0,1,.188-.186.564.564,0,0,1,.411-.2c0-.055.016-.107,0-.136a.678.678,0,0,1-.123-.371.152.152,0,0,0-.056-.115c-.167-.1-.295-.262-.5-.3a4.01,4.01,0,0,0-1.872.075,4.911,4.911,0,0,0-.542.247c-.131.058-.265.109-.4.163a.911.911,0,0,0-.155.059c-.409.264-.859.461-1.245.762a1.847,1.847,0,0,0-.175.152,3.625,3.625,0,0,1-1.479.981c-.029.009-.052.039-.1.072a.873.873,0,0,0,.138.087,3.7,3.7,0,0,1,.789.421,1.285,1.285,0,0,1,.407.431.322.322,0,0,0,.068.112c.2.143.208.381.3.575.069.611.085.995-.5,1.354a.794.794,0,0,1-.515.185,5.5,5.5,0,0,1-1.518.113c-.243,0-.487,0-.731,0a1.089,1.089,0,0,1-.551-.086.252.252,0,0,0-.128-.026,3.581,3.581,0,0,1-1.068-.187,2.7,2.7,0,0,0-.945-.131,1.644,1.644,0,0,1-.427-.044c-.184-.031-.367-.074-.55-.108-.03-.006-.081,0-.093.016a.319.319,0,0,1-.388.1,2.724,2.724,0,0,0-.759-.055,1.065,1.065,0,0,1-.423-.062.708.708,0,0,0-.26-.032c-.277,0-.554,0-.831,0a1.156,1.156,0,0,0-.553.079.645.645,0,0,1-.163.025,1.867,1.867,0,0,0-.319.074,1.768,1.768,0,0,1-.707.158.889.889,0,0,0-.263.033,4.563,4.563,0,0,1-1.08.06c-.041-.086.011-.12.048-.156s.091-.063.13-.1a.725.725,0,0,1,.534-.212,7.416,7.416,0,0,0,.823-.091.219.219,0,0,0,.064-.016,5.454,5.454,0,0,1,.953-.259.919.919,0,0,1,.228-.034q.615,0,1.229.005a.539.539,0,0,1,.227.032,1.185,1.185,0,0,0,.551.087c.321,0,.643.006.964,0a2.768,2.768,0,0,1,.79.078.971.971,0,0,0,.328.034,3.11,3.11,0,0,1,.948.118c.214.05.421.123.634.178a.914.914,0,0,0,.206,0c-.017-.134-.039-.25-.043-.367a1.5,1.5,0,0,0-.063-.321,1.072,1.072,0,0,1,.064-.584c.013-.041.049-.077.058-.118a.94.94,0,0,1,.742-.677,3.539,3.539,0,0,1,1.349-.1,1.165,1.165,0,0,1,.693.285.832.832,0,0,1,.113.179c-.134.023-.211-.058-.3-.075s-.194-.041-.291-.059a1.665,1.665,0,0,0-.26-.039c-.221,0-.443,0-.665,0a1.584,1.584,0,0,0-.757.217.476.476,0,0,0-.266.357c-.021.15-.073.294-.1.446a1.163,1.163,0,0,0,.1.637.488.488,0,0,0,.476.347c.554,0,1.108.011,1.662,0a2.48,2.48,0,0,0,.654-.1.933.933,0,0,0,.511-.35.389.389,0,0,0,.07-.182,1.22,1.22,0,0,0-.258-.958,1.793,1.793,0,0,0-1.054-.809,5.021,5.021,0,0,1-.832-.409.49.49,0,0,0-.307-.109,1.038,1.038,0,0,1-.452-.09,3.857,3.857,0,0,0-.8-.194,1.547,1.547,0,0,1-.354-.085c-.319-.124-.662-.176-.975-.319a.533.533,0,0,0-.224-.05,2.731,2.731,0,0,1-.873-.181,1.9,1.9,0,0,0-.709-.154.528.528,0,0,1-.193-.043c-.242-.079-.487-.15-.723-.245-.328-.131-.651-.278-.972-.425a1.708,1.708,0,0,1-.548-.369,1.282,1.282,0,0,0-.734-.338,9.909,9.909,0,0,0-1.009-.179,3.108,3.108,0,0,0-1.154.045,2.609,2.609,0,0,1-.49.077,3.642,3.642,0,0,0-.924.261c-.394.144-.783.3-1.173.461a1.621,1.621,0,0,0-.562.342,1.719,1.719,0,0,1-.607.334,1.45,1.45,0,0,0-.367.215,1.83,1.83,0,0,1-.4.221c-.355.154-.713.3-1.071.448a2.766,2.766,0,0,1-.311.113,4.014,4.014,0,0,0-.755.246.563.563,0,0,1-.226.037c-.155.005-.31,0-.465,0a1.016,1.016,0,0,0-.388.064,1.283,1.283,0,0,1-.391.046,1.1,1.1,0,0,0-.487.073.6.6,0,0,1-.261.027c-.21,0-.421-.005-.631,0-.23,0-.265.052-.215.286a.9.9,0,0,0,.151.363.788.788,0,0,1,.147.5,2.29,2.29,0,0,0,.053.425c.049.272.1.543.157.813.017.086.042.171.062.256a.938.938,0,0,1,.047.225,4.947,4.947,0,0,0,.214,1.3c.056.234.124.466.186.7a.177.177,0,0,1,.009.065,2.934,2.934,0,0,0,.151.808,2.02,2.02,0,0,0,.5.028.941.941,0,0,0,.484-.081.607.607,0,0,1,.261-.03q.665,0,1.329.01a.677.677,0,0,1,.261.034,1.242,1.242,0,0,0,.521.072l.964.009a.814.814,0,0,1,.387.074.543.543,0,0,0,.223.044.724.724,0,0,1,.319.07.485.485,0,0,0,.254.051.8.8,0,0,1,.522.176c.1.067.2.144.3.225a1.8,1.8,0,0,1,.808.083,5.614,5.614,0,0,1,1.071.211,3.362,3.362,0,0,0,.782.134.877.877,0,0,1,.223.056,1.11,1.11,0,0,0,.223.052,1.314,1.314,0,0,1,.355.07,1.389,1.389,0,0,0,.36.039,1.377,1.377,0,0,1,.489.073,1.231,1.231,0,0,0,.293.038,1.98,1.98,0,0,1,.423.068,2.8,2.8,0,0,0,.521.091.288.288,0,0,0,.161-.018,1.111,1.111,0,0,1,.487-.078.543.543,0,0,0,.2-.022,1.488,1.488,0,0,1,.523-.076.828.828,0,0,0,.195-.035,9.453,9.453,0,0,1,1.022-.259,6.474,6.474,0,0,0,1.518-.558c.235-.1.453-.233.684-.339.524-.24,1.006-.559,1.521-.814q1.013-.5,1.98-1.081c.066-.04.137-.072.206-.107a1.28,1.28,0,0,0,.177-.091c.277-.2.555-.4.823-.612a5.236,5.236,0,0,1,.825-.611,1.872,1.872,0,0,0,.214-.157c.315-.224.64-.434.942-.673a4.469,4.469,0,0,0,.751-.659c-.125-.118-.245-.238-.185-.429Z" transform="translate(-410.667 -150.905)" fill="none" fill-rule="evenodd"/>
          <path id="Path_33" data-name="Path 33" d="M632.364,172.556a.742.742,0,0,0,.529-.083,5.832,5.832,0,0,1,1.012-.414c.229-.08.452-.177.676-.271.326-.136.65-.276.976-.415a.608.608,0,0,0,.209-.095,1.3,1.3,0,0,1,.543-.3.751.751,0,0,0,.251-.156,1.092,1.092,0,0,1,.476-.321.793.793,0,0,0-.055-.5c-.123-.4-.245-.8-.374-1.2-.061-.189-.147-.371-.206-.56a2.5,2.5,0,0,1-.162-.64c-.008-.231-.067-.458-.06-.683a3.892,3.892,0,0,0-.145-.911,13.412,13.412,0,0,0-.364-1.479c-.151-.467-.166-.958-.308-1.423a1.152,1.152,0,0,1-.031-.263,1.159,1.159,0,0,0-.178-.63,1.4,1.4,0,0,0-.964-.013c-.562.162-1.132.3-1.7.448a.572.572,0,0,1-.161.034,4.255,4.255,0,0,0-.815.133,4.448,4.448,0,0,0-.726.221,6.778,6.778,0,0,0-.837.31,2.363,2.363,0,0,1-.408.129.412.412,0,0,0-.308.557c.116.378.219.761.342,1.137.068.209.167.409.249.614.057.143.1.291.163.434a2.774,2.774,0,0,0,.226.514.644.644,0,0,1,.088.279,1.354,1.354,0,0,0,.244.711.347.347,0,0,1,.075.181,4.856,4.856,0,0,0,.33,1.14,2.018,2.018,0,0,0,.107.31,3.585,3.585,0,0,0,.251.537.864.864,0,0,1,.181.49,2.248,2.248,0,0,0,.072.424.64.64,0,0,0,.077.218,7.9,7.9,0,0,1,.585,1.261C632.269,172.369,632.32,172.466,632.364,172.556Zm2.184-2.158,0,.018a2.263,2.263,0,0,1-.413-.087,3.4,3.4,0,0,1-.429-.245.761.761,0,0,1-.39-.683,2.534,2.534,0,0,1,.112-.514.548.548,0,0,1,.446-.432.767.767,0,0,1,.23-.013,1.2,1.2,0,0,0,.552-.045.231.231,0,0,1,.245.054c.092.077.2.135.3.206a.252.252,0,0,1,.088.094,5,5,0,0,1,.2.49.681.681,0,0,1-.1.629c-.058.08-.114.162-.165.247a.57.57,0,0,1-.433.268A2.208,2.208,0,0,1,634.548,170.4Z" transform="translate(-616.472 -160.637)" fill="none" fill-rule="evenodd"/>
          <path id="Path_34" data-name="Path 34" d="M462.1,152.679a.6.6,0,0,0-.175-.06c-.32,0-.64,0-.96,0a.288.288,0,0,0-.127.031q-.393.209-.783.426a7.253,7.253,0,0,1-.791.534.117.117,0,0,0-.055.036,3.009,3.009,0,0,1-.713.624c-.008.007-.021.011-.026.02a.622.622,0,0,1-.438.308c-.013,0-.02.036-.039.075.285-.01.486.181.716.289a2.11,2.11,0,0,1,.254-.226,1.384,1.384,0,0,1,.275-.111,2.937,2.937,0,0,0,1.033-.7,5.011,5.011,0,0,1,1.107-.775c.231-.128.46-.261.688-.395C462.084,152.747,462.087,152.718,462.1,152.679Z" transform="translate(-419.025 -152.392)" fill="#fff" fill-rule="evenodd"/>
          <path id="Path_35" data-name="Path 35" d="M428.617,163.175l.275.136c.033-.01.047-.01.053-.017a6.806,6.806,0,0,0,.48-.485.676.676,0,0,1,.152-.173.758.758,0,0,0,.376-.442c.01-.037.056-.067.091-.093a2.142,2.142,0,0,0,.634-.875.726.726,0,0,0,.048-.421c-.006-.041-.064-.074-.118-.132a1.268,1.268,0,0,1-.43.427,4.227,4.227,0,0,0-.444.443.812.812,0,0,1-.134.144,3.246,3.246,0,0,0-.55.525.9.9,0,0,0-.249.457A4.453,4.453,0,0,1,428.617,163.175Z" transform="translate(-383.798 -159.391)" fill="#fff" fill-rule="evenodd"/>
          <path id="Path_36" data-name="Path 36" d="M481.135,155.259a1.22,1.22,0,0,0-.83-.1c-.119.016-.227.127-.338.2-.093.059-.179.128-.277.178a.658.658,0,0,0-.272.23.51.51,0,0,1-.2.166c-.177.088-.361.163-.545.237a1,1,0,0,0-.5.349c.136.032.249.061.364.085a2.132,2.132,0,0,1,.293.052.549.549,0,0,0,.527-.1,3.86,3.86,0,0,1,.36-.225,1.775,1.775,0,0,0,.359-.279c.166-.157.394-.243.514-.457.038-.068.14-.1.215-.146C480.9,155.389,480.995,155.339,481.135,155.259Z" transform="translate(-440.707 -154.574)" fill="#fff" fill-rule="evenodd"/>
          <path id="Path_37" data-name="Path 37" d="M644.974,213.831c.084-.113.177-.222.254-.342a.462.462,0,0,0-.125-.619.948.948,0,0,0-.173-.094,2.924,2.924,0,0,1-.275-.11.7.7,0,0,0-.548-.015.228.228,0,0,0-.141.125,1.316,1.316,0,0,0-.106.516.361.361,0,0,0,.177.3,3.017,3.017,0,0,0,.439.233A.959.959,0,0,0,644.974,213.831Z" transform="translate(-626.637 -204.497)" fill="#ffda58" fill-rule="evenodd"/>
        </g>
        <g id="Group_8" data-name="Group 8" transform="translate(0.48 0)">
          <path id="Path_38" data-name="Path 38" d="M437.628,152.3a2.391,2.391,0,0,1,.057.331,1.107,1.107,0,0,0,.128.511,7.4,7.4,0,0,1,.374,1.027,3.13,3.13,0,0,0,.285.7.5.5,0,0,1,.048.189,2.416,2.416,0,0,0,.252.786,2.022,2.022,0,0,1,.174.634,1.3,1.3,0,0,0,.1.31c.087.189.141.393.214.589a3.307,3.307,0,0,0,.215.518,3.557,3.557,0,0,1,.358.954,4.776,4.776,0,0,0,.32.8c.107.23.189.467.276.709-.048.032-.083.058-.121.079-1.893,1.064-3.472,1.883-5.617,3.13a20.82,20.82,0,0,0-3.734,2.83,1.493,1.493,0,0,0-.243.269c-.071.094-.017.164.073.22,3.25-2.066,6.464-4.193,9.819-6.118.046.144.072.251.115.351a.213.213,0,0,0,.3.118.266.266,0,0,0,.084-.052,3.368,3.368,0,0,1,1.187-.635c.407-.171.837-.282,1.236-.479.316-.157.652-.273.979-.409a.4.4,0,0,0,.146-.075,1.286,1.286,0,0,1,.54-.311.534.534,0,0,0,.147-.076,2.411,2.411,0,0,1,.65-.445.222.222,0,0,0,.117-.223,1.228,1.228,0,0,0-.1-.637,1.229,1.229,0,0,1,.2-.043c.133-.006.266,0,.4-.005a.541.541,0,0,0,.227-.032,1.035,1.035,0,0,1,.517-.08h.8a1.385,1.385,0,0,1,.588.07.574.574,0,0,0,.229.024c.332,0,.665,0,1-.008a.909.909,0,0,1,.516.078.424.424,0,0,0,.194.027,1.027,1.027,0,0,1,.289.053,2.386,2.386,0,0,0,.429.055.626.626,0,0,0,.364.185,9.225,9.225,0,0,1,.89.264,2.107,2.107,0,0,0,.551.109,1.684,1.684,0,0,1,.486.1,6.158,6.158,0,0,0,.872.189c.182.039.365.076.548.112a2.786,2.786,0,0,1,.516.1.567.567,0,0,0,.2.021,1.647,1.647,0,0,1,.653.078.558.558,0,0,0,.263.013,1.014,1.014,0,0,1,.547.107c.05.024.1.039.154.062a.736.736,0,0,0,.671.024.153.153,0,0,1,.063-.022c.3,0,.587-.1.883-.118.156-.011.3-.054.454-.076a5.352,5.352,0,0,0,1.023-.376,18.939,18.939,0,0,0,2.931-1.322c.521-.293,1.058-.554,1.582-.841q.9-.495,1.785-1.024a4.548,4.548,0,0,0,.72-.53,3.392,3.392,0,0,1,.688-.518,2.176,2.176,0,0,0,.266-.2c.3-.224.6-.457.907-.665a3.026,3.026,0,0,0,.639-.469c.078-.089.211-.13.287-.219a.952.952,0,0,1,.278-.275c.117-.229.4-.318.492-.569a.367.367,0,0,1,.085-.1c.232-.251.47-.5.7-.755a4.931,4.931,0,0,0,.362-.472,1.327,1.327,0,0,0,.121-.27c.016-.041.005-.1.028-.128.211-.3,0-.51-.144-.737a1.052,1.052,0,0,1-.086-.134c-.1-.243-.2-.489-.3-.733-.013-.03-.026-.073-.05-.084-.172-.074-.283-.239-.476-.289a5.966,5.966,0,0,0-1.553-.084.657.657,0,0,0-.367.134c-.224.171-.491.107-.733.171-.035.009-.082-.024-.122-.04a2.793,2.793,0,0,0-.9-.179,2.191,2.191,0,0,0-1.362.313c-.122.076-.25.141-.394.221a1.99,1.99,0,0,0-1.124-.24.622.622,0,0,0-.311.092c-.223.142-.454.272-.681.41-.056.034-.129.066-.156.118a.865.865,0,0,1-.533.368,2.045,2.045,0,0,0-.619.312.584.584,0,0,1-.213.081,1.762,1.762,0,0,1-.413.1c-.128,0-.258-.079-.386-.079a4.088,4.088,0,0,1-1.224-.278.818.818,0,0,0-.258-.053,1.622,1.622,0,0,1-.55-.108,11.347,11.347,0,0,1-1.485-.572c-.218-.105-.416-.251-.631-.363-.131-.068-.222-.224-.4-.2-.124-.117-.288-.1-.437-.129-.291-.064-.58-.137-.873-.186a3.529,3.529,0,0,0-.529-.029,1.749,1.749,0,0,0-.785.092,9.272,9.272,0,0,0-1.012.139,2.942,2.942,0,0,0-1.427.474,2.656,2.656,0,0,1-.347.193,2.683,2.683,0,0,0-.532.332,1.985,1.985,0,0,1-.527.273,1.315,1.315,0,0,0-.424.248,1.127,1.127,0,0,1-.315.174c-.355.153-.71.308-1.072.444-.258.1-.53.158-.79.25a2.341,2.341,0,0,1-.911.119.969.969,0,0,0-.423.062.99.99,0,0,1-.325.039,1.03,1.03,0,0,0-.58.1.187.187,0,0,1-.1.02c-.32.005-.64.013-.963,0a.784.784,0,0,1-.115-.421,1.525,1.525,0,0,0-.151-.641,2.486,2.486,0,0,1-.106-.312.234.234,0,0,0-.232-.2,3.439,3.439,0,0,0-1.147.065,17.7,17.7,0,0,1-2.256.55,7.861,7.861,0,0,0-1.342.374,12.711,12.711,0,0,1-1.418.464,2.612,2.612,0,0,0-.253.08.265.265,0,0,0-.149.4c.036.053.066.11.111.185a2.029,2.029,0,0,1-.571.341,16.688,16.688,0,0,1-2,.61,8.313,8.313,0,0,0-1.076.336,6.108,6.108,0,0,1-.6.186c-1.243.32-3.731.954-3.731.954a1.36,1.36,0,0,1-.161.038,7.277,7.277,0,0,0-1.348.347q-.932.3-1.872.572a1.406,1.406,0,0,0-.385.187.2.2,0,0,0-.106.251.266.266,0,0,0,.272.148.251.251,0,0,0,.095-.028c.25-.154,2.536-.513,4.374-1.02s2.125-.537,3.11-.792c.288-.075,2.9-1.128,3.656-1.425C437.288,152.407,437.437,152.366,437.628,152.3Zm32-.237.141.3c-.06.191.059.311.185.429a4.471,4.471,0,0,1-.751.659c-.3.239-.627.449-.942.673a1.853,1.853,0,0,1-.214.157,5.23,5.23,0,0,0-.825.611c-.268.212-.546.411-.823.612a1.282,1.282,0,0,1-.177.091c-.069.035-.14.067-.206.107q-.968.581-1.98,1.081c-.515.255-1,.573-1.521.814-.231.106-.449.244-.684.339a6.476,6.476,0,0,1-1.518.558,9.474,9.474,0,0,0-1.022.259.828.828,0,0,1-.195.035,1.487,1.487,0,0,0-.523.076.541.541,0,0,1-.2.022,1.11,1.11,0,0,0-.487.078.289.289,0,0,1-.161.018,2.807,2.807,0,0,1-.521-.091,1.983,1.983,0,0,0-.423-.068,1.233,1.233,0,0,1-.293-.038,1.379,1.379,0,0,0-.489-.073,1.387,1.387,0,0,1-.36-.039,1.317,1.317,0,0,0-.355-.07,1.114,1.114,0,0,1-.223-.052.874.874,0,0,0-.223-.056,3.359,3.359,0,0,1-.782-.134,5.619,5.619,0,0,0-1.071-.211,1.8,1.8,0,0,0-.808-.083c-.108-.081-.2-.158-.3-.225a.8.8,0,0,0-.522-.176.485.485,0,0,1-.254-.051.724.724,0,0,0-.319-.07.544.544,0,0,1-.223-.044.814.814,0,0,0-.387-.074l-.964-.009a1.24,1.24,0,0,1-.521-.072.677.677,0,0,0-.261-.034q-.664-.009-1.329-.01a.607.607,0,0,0-.261.03.941.941,0,0,1-.484.081,2.02,2.02,0,0,1-.5-.028,2.93,2.93,0,0,1-.152-.808.179.179,0,0,0-.009-.065c-.062-.233-.13-.465-.186-.7a4.95,4.95,0,0,1-.214-1.3.933.933,0,0,0-.047-.225c-.02-.086-.045-.17-.062-.256-.055-.271-.109-.542-.157-.813a2.3,2.3,0,0,1-.053-.425.789.789,0,0,0-.147-.5.9.9,0,0,1-.151-.363c-.05-.234-.016-.284.215-.286.21,0,.421.006.631,0a.6.6,0,0,0,.261-.027,1.1,1.1,0,0,1,.487-.072,1.285,1.285,0,0,0,.391-.046,1.014,1.014,0,0,1,.387-.064c.155,0,.31,0,.465,0a.563.563,0,0,0,.226-.037,4.015,4.015,0,0,1,.755-.246,2.755,2.755,0,0,0,.311-.113c.358-.147.716-.293,1.071-.448a1.834,1.834,0,0,0,.4-.221,1.447,1.447,0,0,1,.367-.215,1.72,1.72,0,0,0,.607-.334,1.619,1.619,0,0,1,.562-.342c.39-.157.778-.318,1.173-.461a3.645,3.645,0,0,1,.924-.261,2.615,2.615,0,0,0,.49-.077,3.108,3.108,0,0,1,1.154-.045,9.9,9.9,0,0,1,1.009.179,1.283,1.283,0,0,1,.734.338,1.7,1.7,0,0,0,.548.369c.321.147.644.293.972.425.236.095.481.166.723.245a.529.529,0,0,0,.193.043,1.9,1.9,0,0,1,.709.153,2.73,2.73,0,0,0,.873.181.533.533,0,0,1,.224.049c.313.143.656.194.975.319a1.543,1.543,0,0,0,.354.085,3.858,3.858,0,0,1,.805.194,1.038,1.038,0,0,0,.452.09.49.49,0,0,1,.307.109,5.024,5.024,0,0,0,.832.409,1.794,1.794,0,0,1,1.054.809,1.22,1.22,0,0,1,.258.958.391.391,0,0,1-.07.182.934.934,0,0,1-.511.35,2.48,2.48,0,0,1-.654.1c-.554.014-1.108.008-1.662,0a.488.488,0,0,1-.476-.347,1.164,1.164,0,0,1-.1-.637c.028-.152.08-.3.1-.446a.476.476,0,0,1,.265-.357,1.585,1.585,0,0,1,.757-.217c.222-.008.443-.007.665,0a1.673,1.673,0,0,1,.259.039c.1.018.194.041.291.059s.169.1.3.075a.836.836,0,0,0-.113-.179,1.166,1.166,0,0,0-.693-.285,3.541,3.541,0,0,0-1.349.1.94.94,0,0,0-.742.677c-.009.042-.045.077-.058.118a1.072,1.072,0,0,0-.064.584,1.5,1.5,0,0,1,.063.321c0,.117.026.233.043.367a.91.91,0,0,1-.206,0c-.213-.055-.421-.127-.634-.178a3.11,3.11,0,0,0-.948-.118.97.97,0,0,1-.328-.034,2.765,2.765,0,0,0-.79-.078c-.321,0-.642,0-.964,0a1.183,1.183,0,0,1-.551-.087.539.539,0,0,0-.227-.032q-.615-.007-1.23-.005a.918.918,0,0,0-.228.034,5.461,5.461,0,0,0-.953.259.218.218,0,0,1-.064.016,7.41,7.41,0,0,1-.823.091.725.725,0,0,0-.534.212c-.039.038-.091.063-.13.1s-.089.07-.048.156a4.563,4.563,0,0,0,1.08-.06.888.888,0,0,1,.263-.033,1.766,1.766,0,0,0,.707-.158,1.862,1.862,0,0,1,.319-.074.644.644,0,0,0,.163-.025,1.157,1.157,0,0,1,.553-.079c.277,0,.554,0,.831,0a.708.708,0,0,1,.261.032,1.063,1.063,0,0,0,.423.062,2.724,2.724,0,0,1,.759.055.319.319,0,0,0,.388-.1c.013-.018.063-.021.093-.016.184.034.366.078.55.108a1.644,1.644,0,0,0,.427.044,2.7,2.7,0,0,1,.945.132A3.581,3.581,0,0,0,463,154.5a.252.252,0,0,1,.128.026,1.09,1.09,0,0,0,.551.086c.244,0,.487,0,.731,0a5.51,5.51,0,0,0,1.518-.113.794.794,0,0,0,.515-.185c.581-.359.565-.742.5-1.354-.1-.194-.108-.432-.3-.574a.319.319,0,0,1-.068-.112,1.288,1.288,0,0,0-.407-.431,3.7,3.7,0,0,0-.789-.421.871.871,0,0,1-.138-.087c.043-.034.066-.063.1-.072a3.624,3.624,0,0,0,1.479-.982,1.875,1.875,0,0,1,.175-.152c.386-.3.836-.5,1.245-.763a.9.9,0,0,1,.155-.059c.133-.053.267-.1.4-.163a4.895,4.895,0,0,1,.542-.247,4.008,4.008,0,0,1,1.872-.075c.207.036.335.2.5.3a.153.153,0,0,1,.056.115.676.676,0,0,0,.123.371c.018.03,0,.081,0,.136a.565.565,0,0,0-.412.2,1.263,1.263,0,0,0-.188.186.384.384,0,0,1-.38.181c-.318.339-.515.742-.817,1.069-.11.119-.184.274-.306.389A.4.4,0,0,0,469.63,152.065Zm-28.593,8.454c-.043-.09-.095-.187-.139-.288a7.9,7.9,0,0,0-.585-1.261.638.638,0,0,1-.077-.218,2.271,2.271,0,0,1-.071-.424.866.866,0,0,0-.181-.49,3.572,3.572,0,0,1-.251-.537,2.026,2.026,0,0,1-.107-.31,4.858,4.858,0,0,1-.33-1.14.348.348,0,0,0-.075-.181,1.352,1.352,0,0,1-.244-.711.643.643,0,0,0-.088-.279,2.771,2.771,0,0,1-.226-.514c-.06-.142-.106-.29-.163-.434-.082-.205-.18-.4-.249-.614-.123-.376-.226-.758-.342-1.137a.412.412,0,0,1,.308-.556,2.366,2.366,0,0,0,.408-.129,6.8,6.8,0,0,1,.837-.31,4.443,4.443,0,0,1,.726-.221,4.254,4.254,0,0,1,.815-.133.571.571,0,0,0,.161-.034c.567-.148,1.137-.286,1.7-.448a1.4,1.4,0,0,1,.964.014,1.157,1.157,0,0,1,.178.631,1.142,1.142,0,0,0,.032.263c.143.465.157.956.308,1.423a13.427,13.427,0,0,1,.364,1.479,3.905,3.905,0,0,1,.145.911c-.007.225.052.451.06.683a2.494,2.494,0,0,0,.162.64c.059.19.145.371.206.56.129.4.25.8.374,1.2a.8.8,0,0,1,.055.5,1.088,1.088,0,0,0-.476.321.754.754,0,0,1-.251.156,1.3,1.3,0,0,0-.543.3.607.607,0,0,1-.209.095c-.325.139-.65.279-.976.415-.224.094-.447.191-.676.271a5.842,5.842,0,0,0-1.012.414A.742.742,0,0,1,441.037,160.52Zm27.187-11.631c-.017.039-.02.067-.035.076-.229.133-.457.266-.688.395a5.012,5.012,0,0,0-1.107.775,2.939,2.939,0,0,1-1.033.7,1.384,1.384,0,0,0-.275.111,2.113,2.113,0,0,0-.254.226c-.231-.108-.431-.3-.716-.289.019-.039.026-.072.039-.075a.623.623,0,0,0,.438-.308c0-.009.018-.013.026-.02a3.011,3.011,0,0,0,.713-.624.116.116,0,0,1,.055-.036,7.248,7.248,0,0,0,.791-.534q.39-.217.783-.426a.288.288,0,0,1,.127-.031c.32,0,.64-.007.96,0A.6.6,0,0,1,468.225,148.889Zm1.74,3.5a4.458,4.458,0,0,0,.183-.506.9.9,0,0,1,.249-.457,3.243,3.243,0,0,1,.55-.525.8.8,0,0,0,.134-.144,4.236,4.236,0,0,1,.444-.443,1.268,1.268,0,0,0,.431-.427c.055.059.112.092.118.132a.724.724,0,0,1-.048.421,2.14,2.14,0,0,1-.634.875c-.035.026-.081.057-.091.093a.758.758,0,0,1-.376.442.676.676,0,0,0-.152.173,6.805,6.805,0,0,1-.48.485c-.006.007-.021.007-.053.017Zm-4.392-3.1c-.14.079-.235.13-.326.185-.075.045-.177.078-.215.146-.12.214-.348.3-.514.457a1.774,1.774,0,0,1-.359.279,3.851,3.851,0,0,0-.36.225.549.549,0,0,1-.527.1,2.132,2.132,0,0,0-.293-.052c-.115-.024-.228-.053-.364-.085a1,1,0,0,1,.5-.349c.184-.074.367-.149.544-.237a.511.511,0,0,0,.2-.166.658.658,0,0,1,.272-.23c.1-.05.184-.12.277-.178.111-.07.219-.181.338-.2A1.219,1.219,0,0,1,465.573,149.286Z" transform="translate(-425.625 -148.252)" fill="#242a39" stroke="#242a39" stroke-width="0.3" fill-rule="evenodd"/>
          <path id="Path_39" data-name="Path 39" d="M642.194,211.866a2.22,2.22,0,0,0,.231-.012.57.57,0,0,0,.434-.268c.051-.085.107-.167.165-.247a.681.681,0,0,0,.1-.629,4.915,4.915,0,0,0-.2-.49.253.253,0,0,0-.088-.094c-.1-.071-.206-.129-.3-.206a.231.231,0,0,0-.245-.054,1.2,1.2,0,0,1-.552.045.77.77,0,0,0-.23.013.548.548,0,0,0-.446.432,2.539,2.539,0,0,0-.112.514.761.761,0,0,0,.389.683,3.412,3.412,0,0,0,.429.245,2.259,2.259,0,0,0,.413.087Zm.262-.427a.959.959,0,0,1-.5,0,3.024,3.024,0,0,1-.439-.233.361.361,0,0,1-.177-.3,1.32,1.32,0,0,1,.106-.515.229.229,0,0,1,.141-.125.7.7,0,0,1,.548.015,2.932,2.932,0,0,0,.275.11.936.936,0,0,1,.173.094.461.461,0,0,1,.125.619C642.633,211.217,642.54,211.327,642.456,211.439Z" transform="translate(-624.598 -201.757)" fill="#242a39" stroke="#242a39" stroke-width="0.4" fill-rule="evenodd"/>
        </g>
      </g>
    </g>
  </g>
</svg>
