<svg xmlns="http://www.w3.org/2000/svg" xmlns:xlink="http://www.w3.org/1999/xlink" width="49.867" height="51.257" viewBox="0 0 49.867 51.257">
  <defs>
    <linearGradient id="linear-gradient" x1="0.237" y1="0.051" x2="0.726" y2="0.935" gradientUnits="objectBoundingBox">
      <stop offset="0" stop-color="#9e8bff"/>
      <stop offset="1" stop-color="#5775ff"/>
    </linearGradient>
  </defs>
  <g id="Group_4083" data-name="Group 4083" transform="translate(-832.116 -881.848)">
    <g id="Group_3576" data-name="Group 3576" transform="translate(832.116 882)">
      <g id="_2058107944" transform="translate(7.295 9.072) rotate(-13)">
        <path id="Path_734" data-name="Path 734" d="M8.942,2.441c3.34,0,7.664.038,10.443.894a4.973,4.973,0,0,1-.217,2.9l-10.7.151c.206-.918.42-.476.461-1.72C8.963,3.905,8.949,3.2,8.942,2.441Zm21.83,7.017c-.028,1.931.008.769-.23,1.938l-.556.449A10.034,10.034,0,0,1,30.771,9.459ZM29.732,10.7c-.09,2.025-.216,1.449-.455,1.681-.346-.417-.409-.178-.159-.884C29.4,10.708,29.617,10.777,29.732,10.7ZM21.515,6.373c-.074-.926.105-2.123.021-2.9a5.126,5.126,0,0,0-.85-2.367C19.724.193,16.7.368,14.97.234,13.423.1,10.3-.2,8.9.193c-.7.2-1.2-.1-1.687,1.577A25.083,25.083,0,0,0,7.277,4.5L7.12,6.081a25.531,25.531,0,0,1-5.651-.444C.809,5.551.242,5.23,0,5.843c.389.271,9.574,1.1,10.085,1.1l8.458-.027c2.378,0,2.234.136,2.255.149l.179.15c.021.021.046.069.073.1,1.269-.524,1.991.079,4.385.1A13.137,13.137,0,0,1,27.9,7.324a13.489,13.489,0,0,0,2.619.061A5.025,5.025,0,0,1,29.405,9.4c-.282.351-.374.475-.63.785a7.83,7.83,0,0,0-.689.867c-.945,1.528.138.148-1.265,1.717-1.354,1.525-2.992,3.387-4.84,4.248-.829.388-3.617,1.661-2.972,2.817.86-.326.237-1.2,3.25-2.394a10.524,10.524,0,0,0,2.468-1.755c.457-.406.335-.473.894-.739-.148.522-.3,1.861-.464,2.272a15.6,15.6,0,0,0-.805,2.073c-.546-.822.084-1.021.225-1.707.159-.805-.031-.471-.09-.558l-.829,2.7c.3-.116.26-.165.322-.6.455.6.1.154.348.671.517-.834.085-.666.891-1.726a1.3,1.3,0,0,0,.3-.627c.133-.542.11-1.095.22-1.661.094-.5.136-.275.23-.71l.018-.519c.013-.392.894-1.1,1.2-1.407a11.787,11.787,0,0,0,1.167-1.35c.3.317.133.007.294.509,0,.029.05.436.064.49-.32.183-.626-.264-.829.366-.056.184-.042,1.367-.061,1.688-.041.727-.344,2.268-.034,2.9a7.091,7.091,0,0,0,.323-2.3L28.34,13.5c.1-.217.1-.148.225-.257.827.592.039,1.933.466,3.107.168-.151.087.068.2-.224a14.086,14.086,0,0,0,.145-1.59c.264-1.43.121-1.236.469-1.457.011.564.023,1.186.011,1.747,0,.769-.216,1.268.136,1.734a25.492,25.492,0,0,0,.325-2.917l.312-.911a32.244,32.244,0,0,1-.281,4.9c.063.769.327-.5.212,1.934-.053,1.147-.483,4.966-.368,5.878.058.523.256.253.245,1.114,0,.767-.12.427-.132,1.109,0,.472.09.9.044,1.412a8.274,8.274,0,0,0-.144,1.626.836.836,0,0,0,0,.11c.03.339-.059.047.09.268.953-1.005.4-4.329.612-6.246.149-1.359-.177-.958-.182-1.87-.015-1.143.317-2.8.331-4.227.028-1.652.122-2.951.166-4.54.027-1.411-.26-3.22-.143-4.365a19.905,19.905,0,0,0,.17-2.232c-.013-.7.088-.566-.362-.708a30.786,30.786,0,0,0-4.976-.149A24.929,24.929,0,0,1,21.515,6.373Z" transform="translate(4.376 0)" fill="#242a39" fill-rule="evenodd"/>
        <path id="Path_735" data-name="Path 735" d="M20.486,16.615c-.117,1.534-.354,1.155-1.718,1.442-1.274.271-3.069.562-2.673-1.028.257-1.052,1.068-.386,1.575-.272A21.126,21.126,0,0,0,20.486,16.615ZM1.461,3.261c.345-.195-.423-.306.1-.031l.16.11c.021.011.069.059.11.087.019-.654.053-.461.334-.713C2.215,3.766,1.9,5.7,2.4,6.378,2.779,5.7,2.237,6,2.72,4.69a6.129,6.129,0,0,0,.131-2.137A2.313,2.313,0,0,1,4.305,3.785c-.51.459-.625.3-.6,1.2.033.928-.071,1.078.747,1.063l.087-2.176C5.1,4.15,8.513,7.622,9.3,8.268a11.149,11.149,0,0,1,1.216.974c1.491,1.48,1.311,1.674,2.089,2.457l1.083.946c.029.022.075.059.105.081s.076.057.105.086c-.041.8-.338,1.729-.059,2.313,1.16-.4.335-3.7,1.4-4.229l6.807.739c.591.257.214,2.663.225,3.221.01.821.15.269.159,1.07l-4.708.155c-1.367.136-3.627-.88-4.155-.6.09.8,1.252.831,2,.872a4.869,4.869,0,0,1-.223.955,3.545,3.545,0,0,0-.076,1.135c1.436,1.092,4.868.756,5.325.046a4.459,4.459,0,0,0,.448-1.916A5.642,5.642,0,0,1,22,16.51c.8.07.036-.017.66.26a15.016,15.016,0,0,0,.3-5.253c-.225-1.569-.735-.7-.855-.676-.776.167-7.417-1.149-7.82-.281a2.549,2.549,0,0,0-.114.509l-.343.806A14.206,14.206,0,0,1,12.383,10.5C10.6,8.053,10.193,8.5,8.736,6.951c-.464-.5-2.883-2.354-3-2.791-.156-.575.515-.38-1.19-1.46a7.62,7.62,0,0,0-1.428-.925c-.862-.457-.678-.6-.765-1.285C1.968.745,2.231.7,1.932.677,1.463.648,1.76.449,1.76.435A4.205,4.205,0,0,1,3.823.277C4.5.3,5.116.367,5.853.413l4.2.321C9.86.664,1.415-.4.872.163c-.218.54.012.47.1,1.084.126.846-.079.827-.163,1.305C.723,3.09.626,3.2.574,3.731.36,5.881.326,12.693.24,13.154a42.731,42.731,0,0,0-.121,7.789C.148,21.955,0,23.459.1,24.33c.924-.767.4-3.6.607-5.065a51.941,51.941,0,0,0,.23-5.511c.021-.925.087-1.816.136-2.674A13.023,13.023,0,0,0,.941,8.411c0-.317.148-.13.194-1.069A28.382,28.382,0,0,1,1.461,3.261Z" transform="translate(0 6.239)" fill="#242a39" fill-rule="evenodd"/>
        <path id="Path_736" data-name="Path 736" d="M32.626,1.37c-.147-.673-.76-.8-1.867-.793a38.055,38.055,0,0,0-5.027.3c-.882.067-1.9.011-2.812.046-1.848.068-3.484-.2-5.167-.163L12.336.881C12.228.472,7.482.71,5.747.541,4.589.433,3.525.478,2.4.336,1.006.168-.481-.473.149.641a3.624,3.624,0,0,1,1.682.01,5.627,5.627,0,0,1,.982.126c.868.264,0,.138.7.361.615-.264,5.825.074,6.891.138,1.985.117,7.2-.092,7.639-.041C24.47,1.982,28.228,1,31.071,1.2,31.6,1.245,32.383,1.545,32.626,1.37Z" transform="translate(0.928 29.91)" fill="#242a39" fill-rule="evenodd"/>
        <path id="Path_737" data-name="Path 737" d="M5.317,2.566c-.17-.264-.03-.082-.212-.247-.023-.017-.07-.058-.09-.076l-.2-.149c-.007-.454.021-.828.035-1.265.041-.859.182-.7-.47-.771a8.334,8.334,0,0,0-.1,2.392l-1.8.046c0-.573-.012-1.121.029-1.64.048-.543.292-.9-.392-.849a8.527,8.527,0,0,0,.018,2.04c.023.82-.627.494-1.544.513.1-.754-.012-.006.179-.638.013-.051.08-.293.08-.334C.876,1.246.9,1.519.781,1.3c-.8.35-.133.424-.781,1.276l.082.265c.128.441-.069.065.163.4C.292,3.094.3,3.084.384,2.8c.613.015,1.5.114,1.93.1a18.778,18.778,0,0,1,1.884,0,1.143,1.143,0,0,1-.046.691c-.03.111-.041.068-.064.2-.076.285-.064.016-.03.2.087.027-.1.291.276-.046.459-.411.029-.494.576-.994C5.437,2.454,4.99,3.322,5.317,2.566Z" transform="translate(28.079 26.198)" fill="#242a39" fill-rule="evenodd"/>
        <path id="Path_738" data-name="Path 738" d="M.528,0C-.217.218.192,1.565.169,2.442.151,3.23-.217,4.52.192,5.16A8.51,8.51,0,0,0,.528,2.743C.592,1.888,1.057.673.528,0Z" transform="translate(1.829 22.103)" fill="#242a39" fill-rule="evenodd"/>
        <path id="Path_739" data-name="Path 739" d="M.407,0C-.08.3,0,1.538.013,2.176a8.7,8.7,0,0,0,.207,1.9.724.724,0,0,0,.2.271A14.268,14.268,0,0,0,.407,0Z" transform="translate(2.778 23.298)" fill="#242a39" fill-rule="evenodd"/>
        <path id="Path_740" data-name="Path 740" d="M.759,2.59.92.708C.863.688.815.714.8.678.709.354.759.691.631.627.2.394.536.421.167,0A2.715,2.715,0,0,0,.5,2.495C.8,2.742.52,2.636.759,2.59Z" transform="translate(5.743 12.4)" fill="#242a39" fill-rule="evenodd"/>
        <path id="Path_741" data-name="Path 741" d="M0,.272C.228.465-.1.34.3.435L3.693.611C3.624-.358,2.995.1,2.168.16A8.423,8.423,0,0,0,0,.272Z" transform="translate(18.721 7.984)" fill="#242a39" fill-rule="evenodd"/>
        <path id="Path_742" data-name="Path 742" d="M3.376.2C3-.064,3.217,0,2.6.026A8.4,8.4,0,0,0,0,.5,11.618,11.618,0,0,0,3.376.2Z" transform="translate(16.242 9.943)" fill="#242a39" fill-rule="evenodd"/>
        <path id="Path_743" data-name="Path 743" d="M.978.544C.861.036.933.15.454,0-.705.625.687.986.978.544Z" transform="translate(15.42 17.649)" fill="#242a39" fill-rule="evenodd"/>
        <path id="Path_744" data-name="Path 744" d="M.707.119C.063-.21-.185.179.148.844.718.76.551.8.707.119Z" transform="translate(16.034 18.83)" fill="#242a39" fill-rule="evenodd"/>
        <path id="Path_745" data-name="Path 745" d="M.719.4C.507-.207.786.01,0,.2.157.6.142.793.719.4Z" transform="translate(17.449 17.555)" fill="#242a39" fill-rule="evenodd"/>
        <path id="Path_746" data-name="Path 746" d="M.863.15C.346-.03.266-.126,0,.324.443.6.641.5.863.15Z" transform="translate(15.468 8.242)" fill="#242a39" fill-rule="evenodd"/>
        <path id="Path_747" data-name="Path 747" d="M.614.154C.4.038.86-.071.326.06.108.114.087.217,0,.311.048.337-.122.548.315.466,1.135.307.386.412.614.154Z" transform="translate(18.547 18.12)" fill="#242a39" fill-rule="evenodd"/>
      </g>
      <g id="Group_3577" data-name="Group 3577" transform="translate(42.63 1.742) rotate(-20)">
        <line id="Line_86" data-name="Line 86" y1="2.897" x2="3.476" transform="translate(1.014 0.579)" fill="none" stroke="#242a39" stroke-linecap="round" stroke-width="1"/>
        <line id="Line_87" data-name="Line 87" y1="2.462" x2="0.869" transform="translate(0 0)" fill="none" stroke="#242a39" stroke-linecap="round" stroke-width="1"/>
        <path id="Path_417" data-name="Path 417" d="M0,.869,3.1,0" transform="translate(1.992 3.983)" fill="none" stroke="#242a39" stroke-linecap="round" stroke-width="1"/>
      </g>
      <path id="Path_2666" data-name="Path 2666" d="M19.266,17.629c12.1-6.266,23.326-1.107,23.326,10.659a21.3,21.3,0,0,1-21.3,21.3c-11.766,0-20.8-13.313-21.3-21.3S7.171,23.895,19.266,17.629Z" transform="translate(0.039 1.514)" opacity="0.1" fill="url(#linear-gradient)"/>
    </g>
  </g>
</svg>
