<svg xmlns="http://www.w3.org/2000/svg" xmlns:xlink="http://www.w3.org/1999/xlink" width="47.887" height="40.841" viewBox="0 0 47.887 40.841">
  <defs>
    <linearGradient id="linear-gradient" x1="0.237" y1="0.051" x2="0.726" y2="0.935" gradientUnits="objectBoundingBox">
      <stop offset="0" stop-color="#9e8bff"/>
      <stop offset="1" stop-color="#5775ff"/>
    </linearGradient>
  </defs>
  <g id="Group_4084" data-name="Group 4084" transform="translate(-1221.214 -883.761)">
    <g id="Group_3578" data-name="Group 3578" transform="translate(1221.214 884)">
      <g id="Group_3577" data-name="Group 3577" transform="translate(27.169 1.54) rotate(-20)">
        <line id="Line_86" data-name="Line 86" y1="2.561" x2="3.073" transform="translate(0.896 0.512)" fill="none" stroke="#242a39" stroke-linecap="round" stroke-width="1"/>
        <line id="Line_87" data-name="Line 87" y1="2.177" x2="0.768" transform="translate(0 0)" fill="none" stroke="#242a39" stroke-linecap="round" stroke-width="1"/>
        <path id="Path_417" data-name="Path 417" d="M0,.768,2.743,0" transform="translate(1.761 3.522)" fill="none" stroke="#242a39" stroke-linecap="round" stroke-width="1"/>
      </g>
      <path id="Path_40" data-name="Path 40" d="M.889,12.855A4.08,4.08,0,0,0,.184,14.3q-.031.174-.123.521V15a1.786,1.786,0,0,0,0,.926V16.1a5.056,5.056,0,0,0,.8,1.766.886.886,0,0,1,.184.145H1.2a.163.163,0,0,0,.092-.2.639.639,0,0,0-.092-.261Q1.1,17.081.92,16.183a2.326,2.326,0,0,0-.061-.405v-.116a2.3,2.3,0,0,1,0-.753v-.116q.061-.318.246-.926a5.361,5.361,0,0,1,.828-1.3.774.774,0,0,1,.445-.231,6.015,6.015,0,0,1,.6-.087h.276a5.145,5.145,0,0,1,.706-.029h.307q.122,0,.383-.029a2.171,2.171,0,0,1,.6.029h.276a5.226,5.226,0,0,1,.675.029h.276a.912.912,0,0,1,.184.029h.4l.8.087h.184q.245,0,.552.029l.031.029a1.953,1.953,0,0,0-.859,1.071,2.017,2.017,0,0,0-.061.637.909.909,0,0,0,.031.347v.116a4.987,4.987,0,0,0,.092.81v.174q.061.29.184.9a1.962,1.962,0,0,0,.031.3,3.328,3.328,0,0,0,.153.535v.2a.588.588,0,0,0,.491.434q.4.087.8.145h.215q.337.029,1.012.116h.338l.307.029a7.962,7.962,0,0,1,.828.058h.245a1.812,1.812,0,0,0,.337.029h.245a1.716,1.716,0,0,0,.368.029h.246a9.528,9.528,0,0,1,1.074.087H15a1.3,1.3,0,0,0,.46.029h.4a.271.271,0,0,0,.184-.087,1.014,1.014,0,0,0,.092-.926V17.37l-.031-.2a1.815,1.815,0,0,1-.061-.232v-.087q-.031-.4-.153-1.129V15.6q-.031-.144-.092-.463v-.174q-.031-.145-.061-.434v-.116q-.031-.2-.061-.579v-.145A5.816,5.816,0,0,0,15.616,13l-.031-.318V12.45a1.387,1.387,0,0,1,.368-.81,2.975,2.975,0,0,1,.276-.29h.154a3.285,3.285,0,0,0,.521-.058h.338a7.992,7.992,0,0,0,.982-.087h.644q.4,0,.552-.015l.491-.043h.705a3.718,3.718,0,0,1,.644-.029h.644a3.931,3.931,0,0,1,.736.029,2.093,2.093,0,0,1,.491,0h.307a5.542,5.542,0,0,1,.706.029l.429.029a2.763,2.763,0,0,1,.338.029H25.1a6.541,6.541,0,0,1,.89.087H26.2q.153.029.4.058l.153.029q.368.029,1.074.145A22.074,22.074,0,0,1,30,12.247a3.107,3.107,0,0,1,1.166,1.1,8.266,8.266,0,0,1,.583,1.679q.03.347.123.984v.145a2.239,2.239,0,0,1,.031.463,8.57,8.57,0,0,1-.031,1.042V17.8c0,.116-.011.3-.031.55a.638.638,0,0,1-.061.231v.029q-.246.029-.706.116h-.184l-.552.087H30.25q-.552.087-1.565.289l-.552.087a1.277,1.277,0,0,0-.828.521q-.184-.028-.337-.347-.123-.492-.368-1.447a3.837,3.837,0,0,0-2.209-2.547,2.667,2.667,0,0,0-1.779-.029q-.246.058-.705.2a2.744,2.744,0,0,0-1.473,1.505,2.583,2.583,0,0,0-.153.492,3,3,0,0,0,0,1.592v.116a2.955,2.955,0,0,1,.092.405v.029c-.082,0-.2,0-.353.015s-.363.034-.629.072h-.184a2.143,2.143,0,0,1-.429.029h-.215a14.352,14.352,0,0,0-1.5.029H16.9a1.821,1.821,0,0,1-.46,0H16.2a6.042,6.042,0,0,1-.859-.029h-.675a3.647,3.647,0,0,0-.368-.058h-.184a7.292,7.292,0,0,1-.951-.087h-.123q-.46-.058-1.35-.2a1.352,1.352,0,0,1-.307-.058q-.368-.058-1.058-.217t-2.071-.564H8.13a12.791,12.791,0,0,1-1.411-.55,1.2,1.2,0,0,1-.368-.26q-.062-.2-.123-.507t-.245-.883a.871.871,0,0,0-.092-.347q-.215-.347-1.6-.695H4.142c-.1-.019-.245-.038-.429-.058H3.589q-.184-.029-.552-.058H2.822a1.781,1.781,0,0,0-.706.029,2.72,2.72,0,0,0-.337.029q-.4.116-.475.26a.732.732,0,0,0-.077.347v.2a1.227,1.227,0,0,0,0,.666v.174a.8.8,0,0,0,.031.2v.116q.061.261.184.724a5,5,0,0,0,1.687,2.142,4.984,4.984,0,0,0,1.074.376c.1,0,.255.01.46.029a1.713,1.713,0,0,0,.767,0h.245a3.766,3.766,0,0,1,.43-.058,4.391,4.391,0,0,0,1.871-1.158.959.959,0,0,1,.123-.087l.153.058q.767.145,2.3.492h.123q.429.058,1.258.2h.092q.337.029.982.145h.184a3.986,3.986,0,0,1,.583.058h.184a2.44,2.44,0,0,0,.43.029h.245a5,5,0,0,0,.736.029h1.565a4.4,4.4,0,0,1,.675-.029,11.15,11.15,0,0,0,1.135-.029h.43a4.456,4.456,0,0,0,.614-.029h.368l.368-.029a2.45,2.45,0,0,0,.767-.347q.092-.058.276-.2l.092.232a5.376,5.376,0,0,0,.859,1.766,3.926,3.926,0,0,0,.644.637,5.683,5.683,0,0,0,1.288.666c.143.039.368.1.675.174h.153a4.941,4.941,0,0,0,.8.087h.061a2.4,2.4,0,0,0,.522,0h.246a1.643,1.643,0,0,0,.307-.029l.153-.029q.184-.028.491-.087h.123a13.828,13.828,0,0,0,1.6-.666,4.008,4.008,0,0,0,1.442-1.679.479.479,0,0,1,.092-.232q.153-.028.506-.058t1.12-.116a1.889,1.889,0,0,0,.429-.058h.061a2.409,2.409,0,0,0,.061.492l.031.058a4.454,4.454,0,0,0,.644-.116q.644-.145,1.964-.405a1.932,1.932,0,0,0,.276-.029.7.7,0,0,1,.184.087,5.644,5.644,0,0,0,1.565.608H38.1a2.663,2.663,0,0,0,1.289-.029,4.335,4.335,0,0,0,.491-.116,3.8,3.8,0,0,0,2.516-2.2.364.364,0,0,1,.015-.087c.01-.039.077-.077.2-.116q1.043-.434,1.043-.782a.507.507,0,0,0-.429-.521,1.192,1.192,0,0,1,.092-.289q.153-.579.429-1.679v-.347a1.8,1.8,0,0,0,0-.81v-.231a10.219,10.219,0,0,0-.276-1.158,3.9,3.9,0,0,0-1.381-2.084,4.151,4.151,0,0,0-.828-.289,2.308,2.308,0,0,0-.245-.058,4.447,4.447,0,0,0-1.749,0h-.092c-.164.039-.337.077-.522.116q-.062,0-.184-.174a2.813,2.813,0,0,0-.644-.637,3.851,3.851,0,0,0-1.074-.55.943.943,0,0,1-.215-.029q-.706-.174-2.056-.521l-.153-.029q-.829-.087-2.516-.347h-.123a1.345,1.345,0,0,1-.307-.058H31.2a7.282,7.282,0,0,1-.951-.087H30.1a2.023,2.023,0,0,1-.307-.029h-.307a6.532,6.532,0,0,1-.89-.087h-.4l-.429-.029q-.154,0-.46-.029h-.245a3.808,3.808,0,0,0-.583-.029h-.245a2.923,2.923,0,0,0-.522-.029H24.85a3.14,3.14,0,0,1-.552.029h-.215c-.123,0-.287.01-.491.029h-.184q-.4.029-1.2.145h-.153a7.8,7.8,0,0,0-.8.145,2.01,2.01,0,0,0-.276.029h-.092q.122-.115.307-.318a1.965,1.965,0,0,0,.245-.318.629.629,0,0,1,.061-.231V6.661a.808.808,0,0,0,.215-.015.345.345,0,0,0,.092-.1c0-.019-.021-.048-.061-.087a3.555,3.555,0,0,1-.521.029.52.52,0,0,1-.123-.029c.143-.058.327-.135.552-.232a1.992,1.992,0,0,0,.706-.637,3.387,3.387,0,0,0,.368.2,4.914,4.914,0,0,0,1.1.318,1.771,1.771,0,0,0,.706-.029A1.873,1.873,0,0,0,25,6,4.121,4.121,0,0,0,26.077,5.5a3.171,3.171,0,0,0,1.135-1.795V3.622a1.937,1.937,0,0,0,0-.839V2.638q-.062-.231-.215-.695A3.166,3.166,0,0,0,24.7.207a2.462,2.462,0,0,0-1.289.058A3.159,3.159,0,0,0,21.2,2.2a.907.907,0,0,1-.061.289c-.061.039-.143.087-.246.145a1.256,1.256,0,0,0-.46,1.071V3.94a1.286,1.286,0,0,0-.031.318v.174a.711.711,0,0,0-.031.232v.145a6.23,6.23,0,0,1-.153.695,3.184,3.184,0,0,1-.368.376,10.636,10.636,0,0,1-1.074.839,1.565,1.565,0,0,1-.4.2.291.291,0,0,1-.184,0l-.031-.029.154-.116a1.819,1.819,0,0,1,.491-.376V6.285q-.123-.144-.429-.434c-.1-.077-.246-.183-.43-.318V5.5q.122-.058.4-.2a.342.342,0,0,1,.123-.058l.153.029c.2.039.338.01.4-.087q.061-.058-.123-.637a.683.683,0,0,1,.123-.666q.337-.087.982-.231a1.717,1.717,0,0,0,.307-.2c.02-.1-.077-.26-.291-.492a2.264,2.264,0,0,0-.69-.521h-.061a1.415,1.415,0,0,0-.552-.2A.87.87,0,0,1,18.53,2.2a4.314,4.314,0,0,0-.491-.695.6.6,0,0,1-.215-.145V1.336a.255.255,0,0,0,.077-.015,2.316,2.316,0,0,1,.23-.043h.123q.214-.058.644-.145a1.458,1.458,0,0,0,.46-.116V.959A.093.093,0,0,0,19.3.872.314.314,0,0,0,19.083.9q-.583.087-1.718.29H17.18q-.184.029-.491.058h-.061c-.1.019-.245.039-.43.058h-.338V1.278q.644-.144,1.9-.463l.123-.029q.4-.058,1.135-.2a.528.528,0,0,0,.215-.174,2.357,2.357,0,0,0-.644-.26A4.316,4.316,0,0,0,17.18,0c-.1,0-.245.01-.429.029a7.823,7.823,0,0,0-.8.145h-.092Q13.5.815,12.947,2.059a.635.635,0,0,0-.092.376,3.327,3.327,0,0,0,.4.926,6.614,6.614,0,0,1,.476.84,3.144,3.144,0,0,0,.138.347c0,.039-.061.1-.184.188a1.851,1.851,0,0,0-.368.362,6.4,6.4,0,0,0-.736,1.274,2.71,2.71,0,0,0-.184,1.1.661.661,0,0,0,.031.289c0,.039-.072.087-.215.145a4.826,4.826,0,0,0-.767.434l-.092.087H10.83q-.614,0-.706.015l-.276.043H9.572q-.307,0-.89.058H8.529a4,4,0,0,0-.583.058l-.184.029a1.784,1.784,0,0,0-.368.058H7.24q-.368.058-1.074.232-1.044.347-1.043.781a.765.765,0,0,0,.123.492v.029q-.184.029-.552.116a17.084,17.084,0,0,0-2.086.868,4.731,4.731,0,0,0-.705.579q-.092.145-.184.318l-.061.116-.276.174A2.711,2.711,0,0,0,.889,12.855Zm3.283,3.213.153-.145a1.249,1.249,0,0,1,.583.232L5,16.386a1.519,1.519,0,0,1-.061,1.389q-.184.319-.4.347c-.041.019-.107,0-.2-.058a.805.805,0,0,1-.261-.347,2.705,2.705,0,0,1-.215-.695,1.5,1.5,0,0,1,.061-.318A2.712,2.712,0,0,1,4.172,16.068ZM6.5,19.281a1.959,1.959,0,0,1-1.012.666,2.492,2.492,0,0,1-1.841-.2,2.626,2.626,0,0,1-.859-.695,2.106,2.106,0,0,1-.491-.724,5.715,5.715,0,0,1-.4-2.489,1.127,1.127,0,0,1,.705-.145,3.752,3.752,0,0,1,.736.058l.184.029a3.432,3.432,0,0,0,.4.058,2.51,2.51,0,0,0-.153.261,3.391,3.391,0,0,0-.123.318,2.239,2.239,0,0,0-.031.984,1.355,1.355,0,0,0,.491.9.648.648,0,0,0,.736.058A1.233,1.233,0,0,0,5.4,17.312H5.43a2.475,2.475,0,0,0,.153.724,1.9,1.9,0,0,0,.767.579l.521.26A4.529,4.529,0,0,0,6.5,19.281ZM16.137,9.99h-.092a.9.9,0,0,0-.184.029h-.184a2.01,2.01,0,0,1-.368.029c-.307,0-.45.01-.429.029-.041-.019-.041-.087,0-.2a2.493,2.493,0,0,1,.184-.55l.245-.492a1.339,1.339,0,0,1,.89-.666,1.372,1.372,0,0,1,.4-.116,1.387,1.387,0,0,0,.246-.029,4.466,4.466,0,0,1,.8.058.756.756,0,0,1,.307.087V8.2a.4.4,0,0,1-.215,0,2.057,2.057,0,0,0-.245.029h-.552q-.184.029-.6.13t-.414.159a.112.112,0,0,0,.031.087.624.624,0,0,0,.307-.029,2.139,2.139,0,0,1,.276-.058l.153-.029a1.91,1.91,0,0,1,.613-.058l.245.029a1.615,1.615,0,0,1,.368.145v.029c0,.039-.164.068-.491.087h-.153a2.675,2.675,0,0,0-.307.029h-.123a6.673,6.673,0,0,0-.767.145.566.566,0,0,0-.338.145q-.031.029.031.087a.675.675,0,0,0,.322-.029,6.354,6.354,0,0,1,.69-.116h.092a1.458,1.458,0,0,1,.92.145v.058a.988.988,0,0,1-.4.029,1.421,1.421,0,0,0-.215-.029,4.321,4.321,0,0,0-1.35.289v.058a1.532,1.532,0,0,0,.368.1q.337.073.859.217l-.491.116C16.485,9.961,16.342,9.971,16.137,9.99Zm-1.2.289v.029q0,.087-.245.261-.4-.029-.276-.405a1.624,1.624,0,0,1,.184-.232h.031v.2A.545.545,0,0,0,14.941,10.279Zm1.565-3.126a.759.759,0,0,1-.031.347.714.714,0,0,1-.031.347,1.42,1.42,0,0,0-.338.116h-.061q0-1.071-.245-1.3a.517.517,0,0,0-.153-.145V6.487l.215-.058a1.363,1.363,0,0,1,.614-.145q-.031.666-.061.55Q16.443,6.922,16.506,7.153Zm-.706.753c0,.116.01.164.031.145l-.061.058a2.508,2.508,0,0,0-.291-.232,1.679,1.679,0,0,1-.353-.347q-.338-.463-.491-.724-.215-.376-.184-.492a2.148,2.148,0,0,1,.46.231,1.98,1.98,0,0,1,.675.579A1.56,1.56,0,0,1,15.8,7.906Zm-.583.058a1.642,1.642,0,0,1,.307.231l-.276.261-.338.637a1.37,1.37,0,0,0-.552-.434,2.294,2.294,0,0,1-.429-.145,2.265,2.265,0,0,1-.4-.232q0-.058.322-.116t.9-.145A2.3,2.3,0,0,0,15.217,7.964Zm1.718-1.418a.754.754,0,0,1-.092-.318,1.153,1.153,0,0,1,.644.2.662.662,0,0,1,.154.116q-.246.637-.522,1.274-.154-.028-.184,0a.128.128,0,0,1-.092-.029V7.529a1.612,1.612,0,0,1-.031-.261V7.182a.88.88,0,0,0,.061-.174A.915.915,0,0,0,16.935,6.545Zm3.037,1.129a2.063,2.063,0,0,0-1.442.145,1.271,1.271,0,0,0-.43.174,1.634,1.634,0,0,1-.215-.087,1.525,1.525,0,0,1,.383-.217,4.829,4.829,0,0,1,1-.333.88.88,0,0,0,.184-.029,1.577,1.577,0,0,1,.951.289q.122.145.276.318a.08.08,0,0,0,.031.058h-.031a1.345,1.345,0,0,1-.276-.145A1.424,1.424,0,0,0,19.972,7.674Zm.368.376-.184.058q-.614.145-1.779.521l-.184.087a.359.359,0,0,0-.184-.318.672.672,0,0,0,.184-.231,3.474,3.474,0,0,0,.4-.145,3.763,3.763,0,0,1,.552-.174l.184-.029a1.388,1.388,0,0,1,.4,0A3.3,3.3,0,0,1,20.34,8.05ZM16.72,9.44c0,.039-.021.058-.061.058a.16.16,0,0,1-.184,0V9.469a.946.946,0,0,0,.215-.029Zm8.713,7.873.123.2q.184.434.552,1.331l.031.087q.061.145.154.376a1.923,1.923,0,0,1-.123.376q-.276.579-.675.637c-.041.019-.113-.009-.215-.087a1.106,1.106,0,0,1-.46-.521,3.6,3.6,0,0,1-.184-.55V19.02a1.107,1.107,0,0,1,0-.521,5.775,5.775,0,0,1,.429-1.013q.122-.058.338-.174ZM28.9,20.786a2.5,2.5,0,0,1-1.534,1.65,3.6,3.6,0,0,1-.43.116l-.153.029a1.578,1.578,0,0,1-.736,0h-.153a6.906,6.906,0,0,1-1.166-.231,3.662,3.662,0,0,1-1.994-1.621,7.14,7.14,0,0,1-.491-1.3,3.329,3.329,0,0,0-.061-.521l.031-.145a1.121,1.121,0,0,1,0-.637v-.145a2.842,2.842,0,0,1,.031-.347l.031-.174q.03-.174.123-.55l.031-.2a1.714,1.714,0,0,1,.736-.926.972.972,0,0,1,.736,0,2.74,2.74,0,0,1,1.288,1.1.5.5,0,0,1,.061.145l-.123.058a1.885,1.885,0,0,0-.8,1.274,1.968,1.968,0,0,0,0,.695,1.874,1.874,0,0,0,.061.405,2,2,0,0,0,.46.868.789.789,0,0,0,.92.231,1.218,1.218,0,0,0,.552-.463,1.732,1.732,0,0,1,.184-.318,1.127,1.127,0,0,0,.429.376l.276.087q.061.087.169.217a.9.9,0,0,0,.475.217h.184a.863.863,0,0,0,.368-.029h.276a1.518,1.518,0,0,1,.276-.029A.771.771,0,0,1,28.9,20.786Zm8.007-.9c-.1.019-.245.039-.429.058l-.153.029q-.552.058-1.626.289a1.349,1.349,0,0,0-.245.044q-.184.043-.522.13a1.262,1.262,0,0,0-.4.087H33.5c0-.058-.005-.149-.015-.275s-.026-.323-.046-.593a.659.659,0,0,1,0-.289q.705-.058,2.025-.29h.092a1.807,1.807,0,0,0,.4-.058h.184q.276-.058.828-.145h.153q.337-.028.951-.145a3.527,3.527,0,0,0,.4-.029h.061v1.042a1.045,1.045,0,0,0-.368.058h-.184a1.411,1.411,0,0,0-.245.029h-.153a3.342,3.342,0,0,0-.522.058Zm3.375-.347a2.106,2.106,0,0,1-1.841.868,2.553,2.553,0,0,1-.982-.2,1.436,1.436,0,0,0-.245-.116v-.029a9,9,0,0,0,1.1-.087,1.032,1.032,0,0,0,.429-.116c.02,0,.031-.048.031-.145v-.376q.306-.058.89-.174.122-.029.429-.087a4.328,4.328,0,0,1,.522-.116A1.7,1.7,0,0,1,40.282,19.541Zm-.828-9.059a2.965,2.965,0,0,1,3.129,1.968q.061.319.184.926l.031.318a2.922,2.922,0,0,1,.031.55,3.421,3.421,0,0,1-.031.608V15q-.031.261-.092.724a11.294,11.294,0,0,1-.307,1.36q-.522.058-1.534.231l-.123.029-.522.087h-.153q-.184.029-.583.116a2.083,2.083,0,0,0-.307.029h-.061a.75.75,0,0,1,.031-.174v-.145a1.161,1.161,0,0,1,.031-.232v-.145a1.268,1.268,0,0,1,.031-.26v-.2q0-.347.061-1.013v-.174q0,.087.031-.289l-.031-.058A2.966,2.966,0,0,1,39.3,14.5a1.559,1.559,0,0,0,0-.434,2.428,2.428,0,0,0-.031-.347v-.434a3.07,3.07,0,0,0-.031-.376v-.2q-.031-.318-.123-.955l-.031-.174a8.638,8.638,0,0,0-.245-.9.334.334,0,0,1-.061-.145C39.167,10.5,39.393,10.482,39.454,10.482Zm.03,7.409h.092a1.381,1.381,0,0,0,.245-.029h.092q.613-.087,1.841-.289h.123a.529.529,0,0,0,.154-.029h.215a2.65,2.65,0,0,0,.276-.058.818.818,0,0,1,.276.029h.031q-.031.174-.552.434-.215.059-.675.2l-1.841.434c-.061.019-.164.043-.307.072s-.368.063-.675.1h-.031q0-.261-.092-.289a1.679,1.679,0,0,0-.307.029q-.276.029-.828.116h-.184q-.552.058-1.657.26h-.092a1.774,1.774,0,0,0-.368.058h-.215l-.552.087-.184.029-.614.087a1.389,1.389,0,0,0-.338.058.1.1,0,0,0-.092.058v.463a1.325,1.325,0,0,0-.4.058h-.215a.894.894,0,0,0-.184.029h-.276a.536.536,0,0,0-.123.029h-.245a.9.9,0,0,0-.184.029h-.215q-.307.029-.89.116h-.215q-.552.029-1.442.145l-.215.029a1.012,1.012,0,0,1-.445-.043.223.223,0,0,1-.169-.3q.061-.261.552-.376a2.333,2.333,0,0,1,.245-.058q.674-.058,1.994-.29h.092a2.194,2.194,0,0,0,.4-.058h.153q.552-.058,1.565-.232a2.185,2.185,0,0,0,.4-.058,1.81,1.81,0,0,0,.4-.058H33.9q.153-.028.43-.058h.061q.582-.058,1.626-.261H36.2q.276-.029.828-.116l.153-.029q.368-.028,1.074-.145h.153Q38.779,18.007,39.485,17.891Zm-6.811-.463a.911.911,0,0,1,.031-.347,5.767,5.767,0,0,0,1.012-.145H33.9q.92-.087,2.761-.376l.153-.029q.4-.029,1.1-.145a1.807,1.807,0,0,0,.4-.058c.041,0,.061.01.061.029a.589.589,0,0,1,0,.376.461.461,0,0,1-.031.145q-.154.029-.445.072t-.844.13h-.153c-.061.019-.164.048-.307.087h-.123a1.4,1.4,0,0,0-.337.058h-.123q-.522.059-1.473.232h-.153q-.184.029-.552.116h-.123q-.246.029-.736.116a2.008,2.008,0,0,0-.276.029h-.061A.8.8,0,0,1,32.674,17.428Zm-.031-.984v-.2q.644-.058,1.9-.26H34.7q.153-.028.4-.087h.123q.276-.029.8-.116H36.2q.214-.029.644-.116h.092q.306-.028.89-.145a2.407,2.407,0,0,0,.491-.058h.123a5.505,5.505,0,0,1-.031.666,9.443,9.443,0,0,0-1.012.145h-.092q-.522.058-1.534.2H35.65q-.123.029-.338.058h-.153l-.368.087h-.153c-.1.019-.245.039-.429.058h-.153q-.307.058-.89.145a1.915,1.915,0,0,0-.429.058.089.089,0,0,1-.061-.029A3.171,3.171,0,0,0,32.643,16.444Zm.031,1.5q.368-.058.951-.174h.123q.214-.028.552-.087h.154q.674-.087,1.963-.318h.153c.082-.019.184-.039.307-.058h.092q.276-.028.828-.145a2.3,2.3,0,0,0,.46-.058h.092a1.307,1.307,0,0,1-.031.318.345.345,0,0,1,0,.2.214.214,0,0,1-.031.087q-.736.087-2.209.318h-.123q-.215.029-.614.116H35.19q-.307.029-.859.116l-.154.029q-.675.087-1.442.2h-.123A.814.814,0,0,1,32.674,17.949Zm-9.3-10.043H23.5a1.269,1.269,0,0,1,.153-.058h.123l.644-.087a2.322,2.322,0,0,0,.521,0q.921,0,1.1.029H26.2a.889.889,0,0,1,.491.029h.337q.306,0,.92.058h.4q.306,0,.859.058h.338a.446.446,0,0,0,.184.029h.184q.337.029,1.013.116h.246q.306.029.89.145h.123q.245.029.675.116l.092.029q1.135.29,2.24.608A6.919,6.919,0,0,1,37.276,9.99a2.369,2.369,0,0,1,.767,1.216q.092.521.276,1.534v.116q.03.2.061.608v.174a3.277,3.277,0,0,1,.031.521q0,.058.031.55v.405a.162.162,0,0,1-.031.116q-.43.059-1.135.174l-.153.029a3.083,3.083,0,0,0-.583.087h-.153q-.614.058-1.81.261h-.184l-.368.087H33.87q-.307.029-.859.116a1.07,1.07,0,0,0-.307.058.128.128,0,0,1-.092-.029,6.57,6.57,0,0,0-.092-.782l-.031-.116q-.031-.144-.092-.405v-.116l-.184-.608a4.273,4.273,0,0,0-1.411-1.91,9.622,9.622,0,0,0-2.025-.724,1.931,1.931,0,0,1-.276-.029q-.43-.058-1.227-.2h-.123c-.1-.019-.245-.039-.43-.058l-.215-.029a3.843,3.843,0,0,1-.552-.058h-.429a11.218,11.218,0,0,1-1.166-.087q-.276,0-.706-.029h-2.27a7.409,7.409,0,0,0-.92.029l-.736.029a4.656,4.656,0,0,0-.859.029.66.66,0,0,1-.276,0q-.154-.058,0-.492a1.851,1.851,0,0,1,.736-1.013A17.349,17.349,0,0,1,23.378,7.906Zm-2.424.261a1.015,1.015,0,0,1,.215-.058h.123q-.246.087-.705.232a5.48,5.48,0,0,0-2.27,1.418,1.6,1.6,0,0,0-.338.666l-.031.116a.407.407,0,0,0,0,.318.22.22,0,0,1-.031.145q-.246,0-.675.029h-.215a1.815,1.815,0,0,1-.337.029q-.491.029-.43.029h-.031a1.278,1.278,0,0,1,.184-.926,5.328,5.328,0,0,0,.675-.058.757.757,0,0,1,.184-.174q.03-.2-.307-.376a1.181,1.181,0,0,1,.215-.145.959.959,0,0,1,.338,0h.061a.749.749,0,0,0,.4-.13c.081-.067.107-.13.077-.188s0-.106.107-.145a18.092,18.092,0,0,1,2.148-.666C20.453,8.263,20.667,8.224,20.954,8.166ZM25.464,5.4l-.092.043-.276.116a2.481,2.481,0,0,1-1.933-.029.423.423,0,0,1,.061-.174q.184.058.491.145a2.259,2.259,0,0,0,1.319-.116q.153-.058.4-.174h.031l.092.087C25.556,5.34,25.525,5.373,25.464,5.4Zm-1.78-.449.368.087a1.064,1.064,0,0,0,.246-.029l.245-.029a1.668,1.668,0,0,0,.583-.2.331.331,0,0,0,.123.116,1.068,1.068,0,0,1-.368.2,2.014,2.014,0,0,1-1.5-.058A1.313,1.313,0,0,1,23.47,4.9Zm-.061-.376a.488.488,0,0,1,.061-.145q.153.029.4.087a.859.859,0,0,0,.706-.116h.031l.092.087c0,.039-.082.077-.245.116A1.274,1.274,0,0,1,23.623,4.577Zm2.516-3.155h.031a2.712,2.712,0,0,1,.644,1.158c.02.1.041.232.061.405a.118.118,0,0,1,0,.116h-.092a.241.241,0,0,1-.092-.029,1.916,1.916,0,0,0-.061-.405,3.005,3.005,0,0,0-.337-.81q-.092-.115-.276-.318A.341.341,0,0,0,26.139,1.422Zm-.4.318h.031q.153.2.429.666l.123.347a1.4,1.4,0,0,0,.015.174c.01.077,0,.126-.015.145-.041,0-.061-.009-.061-.029H26.17q-.062-.231-.184-.695a1.668,1.668,0,0,0-.338-.492A.888.888,0,0,0,25.74,1.741Zm-.368.318H25.4a2.568,2.568,0,0,1,.337.463q.061.2.123.405v.116a.447.447,0,0,1-.184-.029,1.584,1.584,0,0,0-.4-.839C25.28,2.156,25.311,2.117,25.372,2.059ZM23.439,1.77a.275.275,0,0,1,.061.145,1.131,1.131,0,0,0-.383.29q-.107.144-.229.287c-.012,0-.063-.012-.155-.027a.725.725,0,0,1,.138-.261,1.18,1.18,0,0,1,.383-.347,1.4,1.4,0,0,0,.153-.087Zm-.153-.492a.443.443,0,0,0,.031.116l-.337.232a1.629,1.629,0,0,0-.583.724.484.484,0,0,1-.184-.058,2.1,2.1,0,0,1,.246-.376,2.058,2.058,0,0,1,.46-.463q.122-.058.337-.174ZM21.844,1.8a2.786,2.786,0,0,1,1.1-.926.347.347,0,0,1,.123-.058H23.1a.319.319,0,0,1,.061.116c0,.019-.051.048-.154.087a3.286,3.286,0,0,0-1.166,1.158.306.306,0,0,1-.154-.058A.772.772,0,0,1,21.844,1.8ZM20.739,4l.031-.318q.061-.347.184-.81l.092-.058c.02,0,.02.068,0,.2a1.014,1.014,0,0,0,.031.463q.03.145,0,.174c0,.019-.041.068-.123.145s-.113.135-.092.174c0,.019.031.048.092.087a1.233,1.233,0,0,0,.23-.188,2.308,2.308,0,0,1,.353-.275q.184-.115.276-.058a.6.6,0,0,1-.107.391,4.18,4.18,0,0,1-.353.521,1.083,1.083,0,0,0-.215.333,2.82,2.82,0,0,1,.4.2.908.908,0,0,1,.261.449q.107.333.077.362a.491.491,0,0,1-.184.145.328.328,0,0,1-.153.116.3.3,0,0,1-.184,0H21.23a.583.583,0,0,1-.46-.463.175.175,0,0,1,0-.145V5.011c0-.1-.011-.241-.031-.434A1.373,1.373,0,0,1,20.739,4ZM18.193,7.124a.481.481,0,0,0,.4-.058q.337-.261,1.043-.753a1.4,1.4,0,0,0,.4-.347c.02,0,.061.039.123.116a1.218,1.218,0,0,0,.644.55.8.8,0,0,1,.276.058h.184q.122.463-.46,1.013-.123-.115-.322-.275a1.8,1.8,0,0,0-.66-.275,1.362,1.362,0,0,0-.614.029,2.008,2.008,0,0,0-.276.029,4.312,4.312,0,0,0-1.288.579l-.061.058h-.061a.626.626,0,0,1,.092-.174q.092-.144.276-.405a.452.452,0,0,1,.123-.174A1.737,1.737,0,0,1,18.193,7.124ZM18.1,5.88v.087a.778.778,0,0,0-.153.2l-.061.029a.626.626,0,0,1-.123.145,1.106,1.106,0,0,0-.614-.261q0-.029.184-.174.337-.231.4-.261h.031A3.322,3.322,0,0,0,18.1,5.88ZM13.775,3.13a.448.448,0,0,0-.061-.2c0-.058.056-.111.169-.159s.22-.091.322-.13h.153a1.724,1.724,0,0,1,.552.058,1.507,1.507,0,0,0,.828,0,.737.737,0,0,0,.246-.058l.061-.058a.165.165,0,0,0-.061-.116,1.707,1.707,0,0,0-.23.029,2.977,2.977,0,0,1-.475.029h-.184a2.218,2.218,0,0,0-1.135,0,1.383,1.383,0,0,0-.246.116.089.089,0,0,1-.061-.029l-.031-.2c0-.038.071-.077.215-.116a2.281,2.281,0,0,1,.245-.058l.337-.029q.092,0,.23.014l.383.043a2.553,2.553,0,0,1,.338.116.979.979,0,0,0,.46-.058c.164-.058.255-.135.276-.232a.082.082,0,0,0,.031-.058l-.061-.058q-.031-.028-.184.087a.566.566,0,0,1-.368.116,4.371,4.371,0,0,1-.491-.116,2.117,2.117,0,0,0-.982,0,1.544,1.544,0,0,0-.43.087.089.089,0,0,1-.061-.029.8.8,0,0,1,.123-.2A4.065,4.065,0,0,1,16.076.525,7.142,7.142,0,0,0,16.812.38H17a5.215,5.215,0,0,1,.675-.029h.338c.143.019.368.048.675.087l-.445.072q-.261.043-.691.13A2.127,2.127,0,0,1,17.3.7q-.552.116-1.565.405-.4.145-1.166.463-.092.058-.307.174c0,.039,0,.063.015.072l.077.072A.647.647,0,0,0,14.6,1.77,1.84,1.84,0,0,1,15.14,1.6l.721-.087h.215a3.089,3.089,0,0,1,.46-.029c0,.039-.036.092-.107.159a.325.325,0,0,0-.107.246c.061.058.112.077.153.058a2.567,2.567,0,0,1,.245-.318,1.289,1.289,0,0,1,.8-.232,1.412,1.412,0,0,1,.291.2,1.716,1.716,0,0,1,.322.391,1.484,1.484,0,0,1,.153.275.31.31,0,0,0-.153.058c-.021,0-.082-.077-.184-.232q-.123-.144-.368-.405L17.4,1.509a.391.391,0,0,0-.215.087,4,4,0,0,0,.429.666.952.952,0,0,0,.184.261l-.337.2q-.184.087-.552.29a.953.953,0,0,0-.215.2.133.133,0,0,0,.092.145q.061.029.368-.145a4.36,4.36,0,0,1,.522-.231,2.17,2.17,0,0,0,.644-.261.44.44,0,0,1-.061-.2c.02-.058.092-.087.215-.087q.214.145.522.347a4.964,4.964,0,0,1,.522.521,1.309,1.309,0,0,1-.322.1,4.177,4.177,0,0,0-.629.217A.872.872,0,0,0,18.5,3.8a1.2,1.2,0,0,0-.092.666.948.948,0,0,1,.061.405V4.9a1.583,1.583,0,0,1-.43,0l-.123-.029a.31.31,0,0,0-.153.058q-.031.116.337.232c0,.019-.041.048-.123.087q-.215.145-.8.521-.123.087-.337.232a4.867,4.867,0,0,0-1.043.231l-.43.116a.762.762,0,0,1-.276-.145,1.055,1.055,0,0,1-.429-.463V5.561a4.441,4.441,0,0,0-.092-.753,4.9,4.9,0,0,0-.337-.753Q13.989,3.593,13.775,3.13ZM13.56,5.5q.306-.405.368-.463c.041.019.061.116.061.289a1.4,1.4,0,0,0-.184.2,1.085,1.085,0,0,0,.061.695,3.184,3.184,0,0,0,.491.984,1.947,1.947,0,0,0,.307.347v.029H13.284a2.346,2.346,0,0,0-.276.087.093.093,0,0,0-.061-.029A3.535,3.535,0,0,1,13.56,5.5ZM11.719,9.15a2.852,2.852,0,0,1,2.148-1.389.29.29,0,0,0,.184,0h.46l.184.058h-.184a7.568,7.568,0,0,0-1.1.261.848.848,0,0,1-.153.231c0,.058.112.135.337.232s.511.231.859.405q.122.145.368.405a1.444,1.444,0,0,1-.123.289,1.432,1.432,0,0,0-.706.42.429.429,0,0,0-.092.449,1.958,1.958,0,0,1,.245.29,3.186,3.186,0,0,1-.46.145l-.153.029a2.658,2.658,0,0,1-.552.058,1.251,1.251,0,0,1-1.35-.9A1.276,1.276,0,0,1,11.719,9.15Zm-.89,1.187a1.64,1.64,0,0,0,.706.984,1.712,1.712,0,0,0,.89.2,4.348,4.348,0,0,0,1.626-.347,1.509,1.509,0,0,0,.337-.145l.061-.058A.353.353,0,0,0,14.6,11a.542.542,0,0,0,.368-.29q.122-.231.246-.434c.143-.019.368-.039.675-.058l.215-.029h.031a1.185,1.185,0,0,1-.046.188l-.046.159s-.011.077-.031.232v.347a2.757,2.757,0,0,0-.338.231,1.648,1.648,0,0,0-.552.695,2.584,2.584,0,0,0-.031.55,8.5,8.5,0,0,0,.031.984v.145c.02.1.041.232.061.405v.087a2.322,2.322,0,0,0,.061.463v.174q.061.608.276,1.766l.031.174q.03.26.123.81a2.241,2.241,0,0,0,.031.318v.116q-.062.116-.368.058a8.716,8.716,0,0,1-1.012-.087h-.4q-.307,0-.859-.058h-.215a2.02,2.02,0,0,1-.307-.029H12.3a2.316,2.316,0,0,0-.245-.058h-.245a1.933,1.933,0,0,1-.276-.029h-.184a10.4,10.4,0,0,1-1.135-.087l-.276-.029a5.926,5.926,0,0,1-.859-.087,1.311,1.311,0,0,1-.368-.145,1.621,1.621,0,0,0-.092-.289v-.145q-.123-.781-.43-2.315V13.81a2.341,2.341,0,0,1,.46-.81,2.254,2.254,0,0,1,.43-.347q.122-.116.307-.261h.338q.306-.029.89-.116h.215l.644-.087.184-.029q.766-.058,2.24-.318a8.152,8.152,0,0,0,.859-.145,1.738,1.738,0,0,0,.491-.116q.061-.376-.491-.376a1.26,1.26,0,0,0-.644.145c-.041.058-.1.155-.184.29q-.46.058-1.411.2l-.153.029a2.226,2.226,0,0,0-.4.058h-.092q-.338.029-.982.145h-.153a5.27,5.27,0,0,0-.8.087H9.51l.061-.174v-.318a3.716,3.716,0,0,1,.153-1.447l.4-.029H10.8A.447.447,0,0,0,10.83,10.337ZM14.2,11.581q0-.087.368-.174h.153a1,1,0,0,1,.276.029l-.031.029q-.246.029-.491.072C14.317,11.567,14.225,11.581,14.2,11.581ZM9.234,9.816q.092-.029.491-.145a1.119,1.119,0,0,0,.429-.029,1.638,1.638,0,0,1,.46.029h.123q.03.116,0,.145h-.89a1.261,1.261,0,0,0-.4.029H9.234ZM2.3,11.987a2.793,2.793,0,0,1,1.319-.9q.061-.028,1.718-.434a1.452,1.452,0,0,1,.276-.058,1.324,1.324,0,0,0,.2.145,3.755,3.755,0,0,0,.874.231A3.216,3.216,0,0,0,7.977,11c.081-.019.184-.039.307-.058h.153q.583-.115.583-.2a.577.577,0,0,0-.092-.217c-.061-.106-.072-.188-.031-.246a1.281,1.281,0,0,1,.153-.058.434.434,0,0,1,.215.029,2.271,2.271,0,0,1-.184,1.679,1.081,1.081,0,0,1-.215.261.744.744,0,0,1-.429,0,7.987,7.987,0,0,1-.982-.087H7.087q-.338,0-1.013-.058H5.706a2.909,2.909,0,0,0-.522-.029H4.97a1.438,1.438,0,0,0-.43-.029,2.515,2.515,0,0,0-.583.029H3.651a1.519,1.519,0,0,0-.276.029H3.16a3.688,3.688,0,0,0-.568.058c-.235.039-.373.058-.414.058A.582.582,0,0,1,2.3,11.987Z" transform="matrix(0.996, -0.087, 0.087, 0.996, 2.239, 7.308)" fill="#242a39"/>
      <path id="_8726174_rupee_sign_icon" data-name="8726174_rupee_sign_icon" d="M.964.321H.787A.441.441,0,0,0,.706.161H.964A.08.08,0,1,0,.964,0H.081a.08.08,0,0,0,0,.161H.362A.281.281,0,0,1,.615.321H.081a.08.08,0,1,0,0,.161H.643A.281.281,0,0,1,.366.723H.054A.055.055,0,0,0,.038.731L.029.736h0A.06.06,0,0,0,.017.75L.01.761a.049.049,0,0,0,0,.014A.052.052,0,0,0,0,.8H0A.056.056,0,0,0,0,.814.052.052,0,0,0,0,.83.055.055,0,0,0,.009.845a.012.012,0,0,0,.006.01L.5,1.417a.08.08,0,0,0,.122-.1L.256.883H.362A.442.442,0,0,0,.8.482H.964a.08.08,0,1,0,0-.161Z" transform="matrix(0.978, -0.208, 0.208, 0.978, 26.034, 7.714)" fill="#fff"/>
      <path id="Path_2667" data-name="Path 2667" d="M15.433,17.1c9.694-5.022,18.695-.887,18.695,8.543A17.074,17.074,0,0,1,17.054,42.712c-9.43,0-16.669-10.67-17.074-17.074S5.739,22.117,15.433,17.1Z" transform="translate(0.039 -2.11)" opacity="0.1" fill="url(#linear-gradient)"/>
    </g>
  </g>
</svg>
