<svg xmlns="http://www.w3.org/2000/svg" width="37.426" height="37.423" viewBox="0 0 37.426 37.423">
  <g id="hasslefree-mob" transform="translate(-1381.497 -3262.156)">
    <path id="Subtraction_4" data-name="Subtraction 4" d="M18.7,37.423h0A18.711,18.711,0,0,1,9.817,2.249a18.7,18.7,0,0,1,18.872.635,18.706,18.706,0,0,1-1.077,32.288A18.844,18.844,0,0,1,18.7,37.423Zm.032-33.986h0a15.277,15.277,0,1,0,8.129,2.354,15.209,15.209,0,0,0-8.129-2.354Z" transform="translate(1381.497 3262.156)" fill="#8451ff"/>
    <path id="Path_2505" data-name="Path 2505" d="M227.76,61.518a3.382,3.382,0,0,1,.287-.331l1.084-.954a.448.448,0,0,1,.735,0l2.773,2.822a.448.448,0,0,0,.779,0l6.49-6.459a.448.448,0,0,1,.784,0l1.138,1.147a.448.448,0,0,1,0,.73l-8.448,8.434a.448.448,0,0,1-.7,0q-2.378-2.455-4.752-4.927a1.619,1.619,0,0,1-.166-.251Z" transform="translate(1165.322 3219.584)" fill="#8451ff"/>
  </g>
</svg>
