<svg xmlns="http://www.w3.org/2000/svg" xmlns:xlink="http://www.w3.org/1999/xlink" width="78.004" height="77.728" viewBox="0 0 78.004 77.728">
  <defs>
    <linearGradient id="linear-gradient" x1="0.237" y1="0.051" x2="0.726" y2="0.935" gradientUnits="objectBoundingBox">
      <stop offset="0" stop-color="#9e8bff"/>
      <stop offset="1" stop-color="#5775ff"/>
    </linearGradient>
  </defs>
  <g id="home-loan-web" transform="translate(-1594.244 -876.355)">
    <g id="Group_3579" data-name="Group 3579" transform="translate(1604.693 876.358)">
      <g id="Group_3577" data-name="Group 3577" transform="translate(54.275 2.088) rotate(-20)">
        <line id="Line_86" data-name="Line 86" y1="3.472" x2="4.166" transform="translate(1.215 0.694)" fill="none" stroke="#242a39" stroke-linecap="round" stroke-width="1"/>
        <line id="Line_87" data-name="Line 87" y1="2.951" x2="1.042" transform="translate(0 0)" fill="none" stroke="#242a39" stroke-linecap="round" stroke-width="1"/>
        <path id="Path_417" data-name="Path 417" d="M0,1.042,3.718,0" transform="translate(2.387 4.774)" fill="none" stroke="#242a39" stroke-linecap="round" stroke-width="1"/>
      </g>
      <path id="_8726174_rupee_sign_icon" data-name="8726174_rupee_sign_icon" d="M1.551.517H1.266A.709.709,0,0,0,1.136.258h.415a.129.129,0,1,0,0-.258H.13a.129.129,0,1,0,0,.258H.582A.452.452,0,0,1,.989.517H.13a.129.129,0,1,0,0,.258h.9a.452.452,0,0,1-.446.388H.112a.084.084,0,0,0-.026,0,.089.089,0,0,0-.025.013l-.016.009h0a.1.1,0,0,0-.018.022.142.142,0,0,0-.012.018.079.079,0,0,0,0,.023A.084.084,0,0,0,0,1.292H0A.09.09,0,0,0,0,1.31a.084.084,0,0,0,0,.026.089.089,0,0,0,.013.025.019.019,0,0,0,.009.016l.775.9a.129.129,0,0,0,.2-.168L.412,1.421H.582a.71.71,0,0,0,.71-.646h.258a.129.129,0,1,0,0-.258Z" transform="matrix(0.978, -0.208, 0.208, 0.978, 41.888, 18.805)" fill="#fff"/>
      <g id="_529959560" transform="matrix(0.999, -0.035, 0.035, 0.999, 13.059, 9.403)">
        <path id="Path_511" data-name="Path 511" d="M3.316,8.405l-.233.306a1.514,1.514,0,0,0-.1.144l-.2.608c1.306.3,4.036-2.518,5.838-3.512.92-.509.543,0,.748-.677-1.04.336-2.622,1.989-5.037,3.052.336-.752.119-.6.924-1.246L11.36,2.207c.687-.539,2.048-1.187,2.147-2.127-.788,0-.089-.237-1.243.792L9.281,3.5c-.938.559-.06.084-.826.272C9.341,1.529,11.315,1.86,11.542,0,10.884.129,9.479,1.469,8.8,1.875l.643.223c-1.167.7-.831,1.994-1.435,2.365-1.33.812-.549.436-1.691,1.44L7.437,4.329c.043-.045.173-.188.208-.232.306-.381.093-.064.256-.431L5.641,5.9a4.713,4.713,0,0,0-.6.524A10.294,10.294,0,0,0,4,7.386L0,11.319c.217-.242.371-.421.684-.737A11.666,11.666,0,0,1,3.316,8.405Z" transform="translate(2.944 1.372)" fill="#242a39" fill-rule="evenodd"/>
        <path id="Path_512" data-name="Path 512" d="M1.793,16.405c.025-.05.055-.184.059-.153L.821,3.622C.813,2.692,1.512-.059.466,0c-1,.058-.093,7.42-.012,8.35C.705,11.369.779,14.154,1.793,16.405Z" transform="translate(49.432 21.279)" fill="#242a39" fill-rule="evenodd"/>
        <path id="Path_514" data-name="Path 514" d="M0,.261C1.282,1.01,8.316.292,10.29.139,9.929-.152,7.184.114,5.621.073,3.953.034,1.906.253,0,.261Z" transform="translate(9.017 55.609)" fill="#242a39" fill-rule="evenodd"/>
        <path id="Path_515" data-name="Path 515" d="M.167,5.527C.447,5.142,1.07.786.577,0A12.4,12.4,0,0,0,.167,5.527Z" transform="translate(52.235 38.369)" fill="#242a39" fill-rule="evenodd"/>
        <path id="Path_516" data-name="Path 516" d="M0,5.635c.625.426.9-.276,2.117-1.726L5.836,0A30.1,30.1,0,0,0,2.885,2.647L.741,4.981C.485,5.254.261,5.373,0,5.635Z" transform="translate(0 13.73)" fill="#242a39" fill-rule="evenodd"/>
        <path id="Path_517" data-name="Path 517" d="M0,2.081A7.488,7.488,0,0,0,3.035,0C2.177-.071.466,1.294,0,2.081Z" transform="translate(18.879)" fill="#242a39" fill-rule="evenodd"/>
        <path id="Path_518" data-name="Path 518" d="M0,.364C.926.325,2.5.479,3.132.119a5.309,5.309,0,0,0-2.216,0Z" transform="translate(18.014 54.36)" fill="#242a39" fill-rule="evenodd"/>
      </g>
      <path id="Path_2668" data-name="Path 2668" d="M29.27,19.021C47.633,9.507,64.684,17.341,64.684,35.2A32.344,32.344,0,0,1,32.34,67.547C14.477,67.547.764,47.335,0,35.2S10.907,28.534,29.27,19.021Z" transform="translate(-10.409 10.178)" opacity="0.1" fill="url(#linear-gradient)"/>
    </g>
    <g id="Icon_feather-home" data-name="Icon feather-home" transform="translate(1619.954 887.291) rotate(-7)">
      <path id="Path_811" data-name="Path 811" d="M19.969,0l.094,0c.294.016,1.188.065,4.271,2a28.306,28.306,0,0,1,5.734,4.218c3.758,3.248,8.421,6.409,9.3,8.772.692,1.863.739,7.428.657,11.768-.094,4.974-.395,9.891-.616,11.363a7.222,7.222,0,0,1-1.742,3.9,4.7,4.7,0,0,1-3.457,1.551A97.9,97.9,0,0,1,19.861,44.8,92.654,92.654,0,0,1,5.767,43.568a4.278,4.278,0,0,1-3.258-1.182A8.41,8.41,0,0,1,.64,38.171C.164,36,.434,30.878.282,26.15s-.363-5.013-.249-6.891c.2-3.325.548-4.078.662-4.326C1.47,13.246,6.621,8.839,9.542,6.5c2.233-1.787,4.323-3.326,6.044-4.451C18.4.213,19.434,0,19.969,0Zm-.03,43.91a62.915,62.915,0,0,0,14.129-1.933.8.8,0,0,1,.095-.006c1.884,0,3.29-1.567,3.669-4.089.469-3.122,1.112-19.457.041-22.337-.463-1.246-3.395-4.607-7.912-8.081-2.1-1.614-4.75-3.033-6.473-4.112-2.6-1.63-3.381-1.748-3.511-1.755h-.008c-.129,0,7.567-3.986-3.51,1.79S2.541,14.737,2.145,15.6c-.361.786-.944,5.074-.93,10.632A61.67,61.67,0,0,0,2.2,37.83c.841,3.844,2.029,4.141,3.615,4.141a.8.8,0,0,1,.094.006A61.569,61.569,0,0,0,19.939,43.91Z" transform="translate(0 5.952)" fill="#242a39"/>
      <path id="Path_812" data-name="Path 812" d="M13.55,23.7h-.045a.8.8,0,0,1-.753-.841c0-.044.246-4.457.374-9.046.075-2.688.1-4.908.063-6.6A13.591,13.591,0,0,0,12.9,3.694,7.643,7.643,0,0,0,7.276,1.019,6.819,6.819,0,0,0,1.843,3.627a16.657,16.657,0,0,0-.235,3.53c-.026,1.69-.5,3.788-.444,6.488a85.353,85.353,0,0,0,.782,9.219.8.8,0,1,1-1.595.068c0-.046-.2-4.669-.3-9.384-.2-9.763.2-10.4.42-10.744C1.359,1.408,3.833,0,7.365,0a10.468,10.468,0,0,1,4.19.8,6.78,6.78,0,0,1,2.619,1.931c.262.329.524.915.6,4.09.043,1.7.027,3.966-.048,6.742-.126,4.714-.381,9.33-.383,9.376A.8.8,0,0,1,13.55,23.7Z" transform="translate(12.671 25.188)"/>
      <g id="_529969808" transform="translate(29.988 0) rotate(7)">
        <path id="Path_430" data-name="Path 430" d="M6.04,12.939l.341.248a6.8,6.8,0,0,0,2.861,1.222,4.715,4.715,0,0,0,1.911-.424,3.68,3.68,0,0,0,1.054-.692c.057-.049.092-.107.17-.112.138-.026.033.006.139.055.392-.424.093-.3.771-.9a3.047,3.047,0,0,0,.734-1A4.908,4.908,0,0,0,14.5,8.412c0-2.628-.3-2.259-1.546-3.294-.116-.092-.058-.061-.116-.135-.271-.357-1.2-.519-1.484-.841a1.889,1.889,0,0,1,1.38.236c-.056-.173-.072-.179-.275-.262a5.9,5.9,0,0,0-1.593-.086c-.158-.092-.26-.2-.421-.291-.064.086,0,.13-.06.222-1.276.058-1.082.317-2,.617a6.364,6.364,0,0,0-.515-2.861C7.253.413,6.967.667,6.761.3S6.317.047,5.4,0c-.608-.029-1.48.5-1.985.55A2.277,2.277,0,0,0,2.136.941a2.5,2.5,0,0,0-.879.8C-.116,3.589.377,4.159.127,4.822A3.872,3.872,0,0,0,.21,6.98,2.428,2.428,0,0,0,1.681,8.868c.208.086.428.124.639.2.174.069.352.21.55.285a4.054,4.054,0,0,0,1.458.288,5.627,5.627,0,0,0,.721,2.124,6.669,6.669,0,0,0,.645.79c.084.107.5.833.506.859.02-.236.021-.02-.046-.173A2.174,2.174,0,0,1,6.04,12.939ZM7.98,8.026A17.531,17.531,0,0,1,9.339,5.2c.295-.4.251-.455.568-.533.651-.156.924-.357,1.368-.1.663.392,2.008,1.32,2.18,1.98-.289-.193-.393-.654-.8-.723.07.352.728.772.937,1.184a6.179,6.179,0,0,1,.181,1.873,3.259,3.259,0,0,0,.086-1.337c.162.112.174.187.232.409a4.769,4.769,0,0,1-.709,3.282,5.2,5.2,0,0,0,.167-2.21c-.143-.455-.161-.455-.344-.493a3.015,3.015,0,0,1,.094,2.354,3.08,3.08,0,0,1-.917,1.856c-.486.536-3.067,1.916-3.922,1.2.353-.225.688-.014,1-.47-.07.014-1.5.9-2.274-.317h.037c.007,0,.029-.006.036-.006s.027-.006.033-.006h.031c.248.012-.1.107.088.012-.154-.291-.2-.225-.386-.49-.324-.438-.125-.311-.369-.461.053.354.365.49.485.79-.21-.049-.24-.107-.416-.45-.088.187.045.225.134.47-.439-.052-.779-.337-.644-.749a.308.308,0,0,0-.17.043c-.173.069.093,0-.166.075A1.882,1.882,0,0,1,5.55,10.6c.232.138.382.8.779,1.484a.335.335,0,0,0-.033-.311c.113-.026.046.043.178.061a9.91,9.91,0,0,1-.439-1.3c-.256.086.049.006-.116.135,0,0,.074.268-.1-.037-.24-.429.065-.9.272-1.277.628-1.156.817-.617,1.631-1.81a5.432,5.432,0,0,0,.412-.723c.534-1.107.154-1.686.409-1.887.129.032-.008-.109.066.063l0,.761c.13.069.027-.069.173,0-.093.161,0,0-.078.179-.008.014-.05.118-.054.124-.058.115-.09.133-.15.271-.08.19-.121.458-.2.651C8.112,7.467,7.822,7.865,7.98,8.026ZM6.431,12.061a.234.234,0,0,0-.016.043c-.076.435-.072-.15-.013.133Zm.039-.216c0,.233,0,.254.185.36C6.591,12.023,6.635,11.974,6.47,11.844Zm-1.139-1.2c-.052-.1-.254-.213-.041-.536.05-.075.054-.058.1-.1.053.058.048-.069.116.156a.486.486,0,0,1-.078.375C5.373,10.634,5.392,10.591,5.331,10.649Zm.285-.787c-.02-.424.193-.49.369-.72A1.341,1.341,0,0,1,5.616,9.862ZM4.986,9.5a6.908,6.908,0,0,1,.831-.375c-.3.455-.125-.049-.566.815-.058.112-.1.164-.15.277-.053-.069-.032.029-.1-.164a.388.388,0,0,1-.027-.147A3.2,3.2,0,0,1,4.986,9.5ZM2.074,1.963A3.721,3.721,0,0,1,4.249.762c.55-.092.4-.112.725.216C5.063.854,4.959,1.01,5,.817,5,.811,5,.788,5.007.773L5.033.681A1.955,1.955,0,0,1,6.076.805a2.2,2.2,0,0,1,.7.444c.325.473.309.066.522.628a9.355,9.355,0,0,1,.425,1.862,3.1,3.1,0,0,1,.046,2.409L7.541,6.5c-.027-.562.139-1.109.125-1.643a4.5,4.5,0,0,0-.73-2.746c-.163-.193-.661-.8-.977-.617.052.236.382.274.612.441a1.829,1.829,0,0,1,.475.556,3.5,3.5,0,0,1,.389,2.153A2.253,2.253,0,0,1,7.219,5.96a4.847,4.847,0,0,1-.677,1.369c-.005-.334.073-.957.094-1.326.032-.568.076-3.51-.686-3.536.061.311.173.167.345.784a4.6,4.6,0,0,1,.183.954,23.713,23.713,0,0,1-.035,3.069,1.021,1.021,0,0,1-.317.778,1.765,1.765,0,0,1-.566.585,4.346,4.346,0,0,0-.692.372c.139.081.157.026.3.127A3.637,3.637,0,0,1,2,8.551l-.255-.219c-.005-.02-.044-.017-.033-.032L1.8,8.219c.454.435,2.1.38,2.178.4L4.093,8.5c-.013-.032-.2-.767-.206-.827l.3-.017a.4.4,0,0,1,.023.049l.05.167c.048.274-.064.323.127.568.268-.107.2-.467.208-.81.316-.242.571-.225.851-.548,1.2-1.377-.2-2.049-.713-2.461-.009-.242.041-.461.017-.758a5.662,5.662,0,0,1-.04-.815c.179.075.109.006.232.161-.05-.251-.1-.043-.232-.51l.71.262.125-.1a1.4,1.4,0,0,0-.307-.5c-.143-.167-.283-.176-.562-.21.027-.294.145-.718-.131-.83-.223.144-.159.553-.173.9l-.519.144c.012-.522.182-.885-.38-.908.015.308.005.634.008,1.032A1.954,1.954,0,0,0,2.422,3.8c-.039.628.623,1,1.026,1.233l.1,1.948c-.605-.055-.732-.461-1.337-.435.057.288.186.256.276.622-.509.138-.664.579-1.01.7.062-.666.789-1.3.71-1.965C1.8,5.949,1.464,7,1.043,7.231A6.544,6.544,0,0,1,1.616,5.9c.251-.533.6-.983.449-1.256L1.027,6.75a.336.336,0,0,1-.1.112A6.088,6.088,0,0,1,.9,4.1,3.681,3.681,0,0,1,2.169,2.335l-.259.911c.619-1.121.432-1.052.271-1.184ZM1.868,3.252Zm-.2,4.8a1.684,1.684,0,0,1,.345-.435.741.741,0,0,1,.528-.274c-.116.908-.048.645.268,1.124A2.636,2.636,0,0,1,1.67,8.052Zm2.1.409c-1.226.089-.949-.409-1.207-1.207.076.006.852.251.908.28a.329.329,0,0,1,.076.144l.058.363C3.688,8.45,3.76,8.09,3.768,8.461ZM1.3,7.634c-.036-.032-.058.063-.113-.144-.039-.15.426-.81.543-.939ZM3.817,5.2l.376.014.013,1.717H3.89ZM.956,7.614c.186.2.251.432.584.8a1.474,1.474,0,0,1,.2.242A2.107,2.107,0,0,1,.43,7.038L.38,6.289C.588,6.528.6,7.222.956,7.614Zm3.763-2.3c.944.107.94,1.7-.07,1.668ZM6.838,7.15c.231-.4.357-.8.543-1.2a.118.118,0,0,1,.017.037L7.35,6.75a1.372,1.372,0,0,1-.263.643,1.726,1.726,0,0,1-.912.89Zm7.037-.669a2.864,2.864,0,0,0-.226-.377l-.266-.274c.013-.014.031-.026.033-.046s.032-.017.045-.032c.174.231.349.239.56.648a2.406,2.406,0,0,1,.173.429c.127.357.113.3.04.435-.078-.1.019.078-.076-.109-.008-.014-.028-.075-.035-.084Zm-4.506-1.7c-.1.285-.171.216-.316.421-.092.133-.123.432-.339.467l.2-.8ZM3.826,4.393a6.022,6.022,0,0,1,.053-1.706c.773-.084.517.274.451,1.729ZM3.5,4.352C2.52,4.217,2.8,3.214,3.482,3ZM.4,4.041A4.849,4.849,0,0,1,1.148,2.3,2.93,2.93,0,0,1,2.335,1.073l-.274.274a.21.21,0,0,1-.028.032c-.721.767-.327.536-.716,1.144-.178.274-.305.493-.447.755-.08.15-.135.259-.208.4-.017.032-.078.167-.1.2C.457,4.05.56,3.943.4,4.041Z" transform="translate(0 0)" fill="#242a39" fill-rule="evenodd"/>
        <path id="Path_431" data-name="Path 431" d="M2.572,5.916c.053-.68.1-1.17.2-1.787a.9.9,0,0,1,.765.971C3.463,5.633,3.107,5.841,2.572,5.916Zm-.938.3A8.955,8.955,0,0,1,1.674,4a.678.678,0,0,1,.6.084,11.173,11.173,0,0,1-.1,1.288C2.112,5.852,2.24,6.4,1.634,6.213Zm.7-4.481-.024,1.81c-.288-.029-.3-.153-.6-.228a8.63,8.63,0,0,1,.1-.98C1.844,1.85,1.927,1.85,2.332,1.732Zm-.806-.176c-.482.251-1,.412-1.024,1.089a1.305,1.305,0,0,0,.705,1.228l.162.1L1.3,6.089.455,5.8c-.282.173.219-.144-.1.112l-.072.055c-.145.092-.122.006-.281.1.045.415.4.173.94.343.721.236.191.882.605,1.556.313-.121.188-.225.216-.83-.149-.081.178-.037-.157.009a.161.161,0,0,1-.022.006c-.022-.573-.069-.625.487-.6A7.435,7.435,0,0,0,2.1,7.5l.254.692.114-1.3c.014-.086.022-.133.037-.193.119-.435.191-.219.92-.666.434-.262.384-.219.468-.847.12-.89-.37-1.228-1.112-1.377A9.824,9.824,0,0,1,2.85,1.738h.233c.537.138.512.182.7.392.316-.473-.575-.7-.782-.772l-.181-.066C2.543,1.173,2.936.213,2.269.182l.057,1.078a1.142,1.142,0,0,1-.51.2L1.774.294C1.76-.029,1.843.112,1.652,0c-.177.1-.173.386-.139.68A4.3,4.3,0,0,1,1.525,1.556Z" transform="translate(7.891 5.224)" fill="#242a39" fill-rule="evenodd"/>
        <path id="Path_432" data-name="Path 432" d="M5.111,1.856C4.435,1.1,2.572-.149,1.4.015,1.165.049-.211.2.028.456.137.574,1.288.274,1.66.289,3.938.392,5.235,2.908,5.111,1.856Z" transform="translate(9.029 2.541)" fill="#242a39" fill-rule="evenodd"/>
        <path id="Path_433" data-name="Path 433" d="M0,0A5.222,5.222,0,0,0,.895.919a6.671,6.671,0,0,0,.532.429,1.869,1.869,0,0,0,.507.363A8.3,8.3,0,0,0,.971.844C.394.343.273-.006,0,0Z" transform="translate(6.924 11.86)" fill="#242a39" fill-rule="evenodd"/>
      </g>
    </g>
  </g>
</svg>
