<svg xmlns="http://www.w3.org/2000/svg" xmlns:xlink="http://www.w3.org/1999/xlink" width="64.377" height="61.919" viewBox="0 0 64.377 61.919"><defs><linearGradient id="a" x1="0.2" y1="0.152" x2="0.603" y2="1" gradientUnits="objectBoundingBox"><stop offset="0" stop-color="#9e8bff"/><stop offset="1" stop-color="#5775ff"/></linearGradient></defs><g transform="translate(-384.133 -1144.278)"><g transform="translate(384.133 1159.235)"><path d="M26.126,18.583C42.519,10.09,57.74,17.083,57.74,33.03A28.874,28.874,0,0,1,28.866,61.9C12.92,61.9.678,43.86-.008,33.03S9.732,27.076,26.126,18.583Z" transform="translate(0.039 -14.942)" opacity="0.1" fill="url(#a)"/></g><g transform="translate(440.834 1145)"><line y1="3.165" x2="3.798" transform="translate(1.258 1.299) rotate(-20)" fill="none" stroke="#242a39" stroke-linecap="round" stroke-width="0.8"/><line y1="2.691" x2="0.95" transform="translate(0 1.083) rotate(-20)" fill="none" stroke="#242a39" stroke-linecap="round" stroke-width="0.8"/><path d="M0,.95,3.39,0" transform="translate(3.534 4.429) rotate(-20)" fill="none" stroke="#242a39" stroke-linecap="round" stroke-width="0.8"/></g><g transform="translate(406.866 1151.573)"><path d="M147.066-153.7a.354.354,0,0,0-.237-.4.416.416,0,0,0-.191-.045l-13.6.339c-.138-4.06-1.413-7.588-1.977-12.212s-.479-4.08-.771-6.334c-.043-.334-.177-1.313-.24-1.709s-.431-3.968.5-4.937c1.658-1.738,5.994-1.44,5.817-1.794s-5,.406-5,.406,5.069-.677,5.116-1.007-6.5.287-4.531.2c.4-.017,3.8-.493,4.15-.523,2.446-.207,4.706-.36,6.908-.466,2.424-.117,4.928-.177,7.443-.177,1.725,0,2.277.122,4.054.177-1.383,1.182-1.55,3.243-1.862,5.3-.387,2.553.039,5.553.469,9.084.264,2.174.777,4.208,1.126,6.334.119.731,1.145,8.129,1.12,9.987-.017,1.214-.2,2.787-1.707,3.4-.861.351-3.008-.2-3.712.077-.517.2,2.154.689,1.115.689a3.307,3.307,0,0,1-1.22-.205c-1.792-.71-2.973-4.3-2.764-6.182Zm-20.831,3.106c-.094-1.471.377-1.338,1.738-1.54a17.82,17.82,0,0,1,2.623-.156c.487,0,.977.01,1.463.02s.956.018,1.424.018c.2,0,.39,0,.583-.006l12.111-.247c-.028,1.515.6,2.645,1.685,4.309a3.852,3.852,0,0,0,1,1.066c-2.785.207-5.79.308-9.7.331q-1.217.006-2.434.008c-1.121,0-2.243.007-3.364.017-.293,0-.6.012-.912.022-.385.012-.781.025-1.178.025a6.124,6.124,0,0,1-3.583-.839,3.7,3.7,0,0,1-1.461-3.027Zm34.745-24.9a6.463,6.463,0,0,1-1.462.124l-.685,0-.738,0c-.762,0-1.525-.018-2.288-.036-.524-.012-1.049-.025-1.574-.031.071-.741.159-1.392.267-1.988.588-3.224,1.752-4.859,3.46-4.859a3.109,3.109,0,0,1,.7.085c1.874.435,2.882,2.007,3.08,4.805.012.184.034.354.054.513C161.892-176.13,161.944-175.718,160.98-175.49Zm1.7-.759c-.049-1.782-.1-3.8-1.307-5.22A4.6,4.6,0,0,0,158-183.13a5.655,5.655,0,0,0-.578.036c-2.246-.092-4.516-.14-6.748-.14-3.128,0-6.284.092-9.381.273-2.4.14-5.227.324-8.069.635l-.172.018c-1.3.14-2.782.3-3.638,1.37-1.016,1.273-.9,3.15-.8,4.728a66.015,66.015,0,0,0,.835,6.761c.208,1.252.435,2.5.661,3.752a82.4,82.4,0,0,1,1.561,11.861l-1.62.032c-.25,0-.567-.025-.916-.053-.429-.033-.915-.071-1.386-.071-1.2,0-1.892.252-2.193.794-.6,1.091-.272,3.481.211,4.582,1.064,2.423,3.776,2.733,6.021,2.733.631,0,1.255-.025,1.849-.05.5-.02.987-.041,1.428-.043l1.56-.005c4.647-.016,9.453-.031,14.163-.488a.267.267,0,0,0,.2-.1h.121a7.224,7.224,0,0,0,.882-.055c2.29-.285,3.759-1.193,4.365-2.7.824-2.05.409-4.5.044-6.657l-.108-.646c-.21-1.283-.449-2.587-.691-3.9-.854-4.642-1.737-9.442-1.437-14.106q.7.007,1.4.019c.718.011,1.435.022,2.151.022h0a33.816,33.816,0,0,0,4.677-.273.436.436,0,0,0,.331-.426c-.018-.333-.027-.677-.036-1.028" transform="translate(-125.226 183.234)" fill="#2e2d2d"/><path d="M155.267-171.332a.383.383,0,0,0-.422-.376h-.005c-4.843.473-9.762.715-14.624.718a.418.418,0,0,0-.425.438.417.417,0,0,0,.424.436h0c4.866,0,9.791-.245,14.638-.719a.464.464,0,0,0,.414-.5" transform="translate(-131.836 178.004)" fill="#2e2d2d"/><path d="M155.706-161.095a.417.417,0,0,0-.425-.435,83.708,83.708,0,0,0-13.633,1.017.366.366,0,0,0-.323.41.475.475,0,0,0,.459.443l.081-.007a82.589,82.589,0,0,1,13.416-.989.418.418,0,0,0,.425-.438" transform="translate(-132.532 173.384)" fill="#2e2d2d"/><path d="M143.024-149.421l.06,0a53.254,53.254,0,0,1,6.56-.54q.416,0,.832.014c.6.02,1.209.079,1.8.138.714.07,1.451.143,2.174.143a7.382,7.382,0,0,0,2.3-.324.429.429,0,0,0,.3-.492.412.412,0,0,0-.4-.371.445.445,0,0,0-.138.022,7.248,7.248,0,0,1-2.22.309,22.762,22.762,0,0,1-2.281-.156c-.723-.074-1.471-.15-2.2-.155h-.191a53.507,53.507,0,0,0-6.548.54.476.476,0,0,0-.41.512.362.362,0,0,0,.368.365" transform="translate(-133.136 168.54)" fill="#2e2d2d"/><path d="M156.932-140.4h0c-1.515.065-3.057.092-4.548.119-3.02.056-6.142.112-9.2.478a.474.474,0,0,0-.41.51.363.363,0,0,0,.369.367l.058,0a91.611,91.611,0,0,1,9.185-.476c1.492-.028,3.036-.055,4.553-.12a.436.436,0,0,0,.421-.463.4.4,0,0,0-.426-.411" transform="translate(-133.189 163.792)" fill="#2e2d2d"/></g></g></svg>