<svg xmlns="http://www.w3.org/2000/svg" width="37.37" height="40.126" viewBox="0 0 37.37 40.126">
  <g id="ifscdetails-mob" transform="translate(-410.187 -1144.278)">
    <g id="Group_3803" data-name="Group 3803" transform="translate(440.615 1145)">
      <line id="Line_109" data-name="Line 109" y1="2.836" x2="3.403" transform="translate(1.127 1.164) rotate(-20)" fill="none" stroke="#242a39" stroke-linecap="round" stroke-width="0.8"/>
      <line id="Line_110" data-name="Line 110" y1="2.41" x2="0.851" transform="translate(0 0.97) rotate(-20)" fill="none" stroke="#242a39" stroke-linecap="round" stroke-width="0.8"/>
      <path id="Path_1299" data-name="Path 1299" d="M0,.851,3.037,0" transform="translate(3.165 3.967) rotate(-20)" fill="none" stroke="#242a39" stroke-linecap="round" stroke-width="0.8"/>
    </g>
    <g id="Group_3820" data-name="Group 3820" transform="translate(410.187 1150.888)">
      <path id="path298" d="M144.79-156.776a.317.317,0,0,0-.213-.358.373.373,0,0,0-.171-.041l-12.187.3c-.124-3.637-1.266-6.8-1.771-10.939s-.429-3.655-.691-5.674c-.038-.3-.159-1.176-.215-1.531s-.386-3.555.444-4.422c1.485-1.557,5.37-1.29,5.211-1.607s-4.477.363-4.477.363,4.541-.606,4.583-.9-5.821.257-4.059.18c.355-.015,3.407-.442,3.717-.468,2.191-.185,4.215-.322,6.188-.417,2.172-.105,4.415-.159,6.667-.159,1.545,0,2.04.109,3.631.159-1.239,1.059-1.388,2.905-1.668,4.75-.346,2.287.035,4.975.42,8.138.237,1.947.7,3.769,1.008,5.674.107.655,1.026,7.282,1,8.946-.015,1.087-.176,2.5-1.529,3.041-.771.314-2.694-.176-3.325.069-.463.179,1.929.617,1,.617a2.963,2.963,0,0,1-1.093-.184c-1.605-.636-2.663-3.855-2.476-5.538Zm-18.66,2.782c-.084-1.318.338-1.2,1.557-1.38a15.962,15.962,0,0,1,2.35-.14c.436,0,.875.009,1.311.018s.856.016,1.276.016c.175,0,.35,0,.522-.005l10.849-.221c-.025,1.357.537,2.37,1.509,3.86a3.45,3.45,0,0,0,.9.955c-2.5.185-5.187.276-8.688.3l-2.18.007c-1,0-2.009.006-3.013.015-.262,0-.536.01-.817.02-.344.011-.7.022-1.055.022a5.486,5.486,0,0,1-3.21-.751A3.313,3.313,0,0,1,126.13-153.994Zm31.124-22.3a5.791,5.791,0,0,1-1.309.111l-.614,0-.661,0c-.683,0-1.366-.016-2.05-.033-.47-.01-.94-.022-1.41-.028.064-.663.143-1.247.239-1.781.527-2.888,1.569-4.352,3.1-4.352a2.785,2.785,0,0,1,.631.076c1.679.39,2.582,1.8,2.759,4.3.011.164.031.317.048.459C158.071-176.87,158.117-176.5,157.254-176.3Zm1.522-.68c-.044-1.6-.092-3.405-1.171-4.676a4.123,4.123,0,0,0-3.023-1.488,5.069,5.069,0,0,0-.518.032c-2.012-.083-4.045-.125-6.044-.125-2.8,0-5.629.082-8.4.245-2.145.125-4.682.29-7.228.569l-.154.016c-1.168.125-2.492.267-3.259,1.228-.91,1.14-.807,2.821-.72,4.235a59.144,59.144,0,0,0,.748,6.056c.186,1.121.39,2.242.592,3.361A73.806,73.806,0,0,1,131-156.9l-1.451.029c-.224,0-.508-.022-.82-.047-.384-.03-.82-.064-1.241-.064-1.071,0-1.7.225-1.964.711-.541.977-.244,3.118.189,4.1.953,2.17,3.383,2.448,5.393,2.448.565,0,1.125-.023,1.656-.044.452-.018.884-.036,1.279-.038l1.4,0c4.163-.014,8.468-.028,12.687-.437a.239.239,0,0,0,.18-.085h.108a6.469,6.469,0,0,0,.79-.049c2.052-.255,3.367-1.069,3.91-2.419.738-1.836.367-4.029.039-5.963l-.1-.579c-.189-1.149-.4-2.317-.619-3.494-.765-4.158-1.556-8.458-1.287-12.636q.627.006,1.252.017c.643.01,1.286.02,1.927.02h0a30.289,30.289,0,0,0,4.189-.245.39.39,0,0,0,.3-.382c-.016-.3-.024-.606-.033-.92" transform="translate(-125.226 183.234)" fill="#2e2d2d"/>
      <path id="path300" d="M153.655-171.372a.343.343,0,0,0-.378-.337h0c-4.338.424-8.745.641-13.1.643a.375.375,0,0,0-.38.392.373.373,0,0,0,.38.391h0c4.359,0,8.77-.219,13.112-.644a.415.415,0,0,0,.37-.445" transform="translate(-132.665 177.348)" fill="#2e2d2d"/>
      <path id="path302" d="M154.207-161.14a.374.374,0,0,0-.38-.39,74.984,74.984,0,0,0-12.213.911.328.328,0,0,0-.289.367.426.426,0,0,0,.412.4l.072-.007a73.981,73.981,0,0,1,12.018-.886.375.375,0,0,0,.38-.392" transform="translate(-133.448 172.149)" fill="#2e2d2d"/>
      <path id="path304" d="M142.986-149.571l.053,0a47.706,47.706,0,0,1,5.876-.484q.373,0,.746.012c.539.018,1.083.071,1.609.123.639.063,1.3.129,1.948.129a6.614,6.614,0,0,0,2.056-.29.385.385,0,0,0,.267-.44.369.369,0,0,0-.356-.333.4.4,0,0,0-.124.02,6.493,6.493,0,0,1-1.989.277,20.394,20.394,0,0,1-2.043-.14c-.648-.067-1.318-.134-1.969-.139h-.171a47.93,47.93,0,0,0-5.866.484.426.426,0,0,0-.367.459.325.325,0,0,0,.329.327" transform="translate(-134.128 166.697)" fill="#2e2d2d"/>
      <path id="path306" d="M155.456-140.4h0c-1.357.058-2.738.083-4.074.107-2.705.05-5.5.1-8.241.428a.424.424,0,0,0-.367.457.326.326,0,0,0,.331.329l.052,0a82.057,82.057,0,0,1,8.228-.427c1.337-.025,2.719-.05,4.078-.108a.39.39,0,0,0,.377-.415.361.361,0,0,0-.382-.368" transform="translate(-134.187 161.354)" fill="#2e2d2d"/>
    </g>
  </g>
</svg>
