<svg xmlns="http://www.w3.org/2000/svg" width="34.242" height="37.632" viewBox="0 0 34.242 37.632">
  <g id="instant-loan-mobile" transform="translate(-14.541 0.212)">
    <g id="Group_3581" data-name="Group 3581" transform="translate(0 0)">
      <g id="Group_3577" data-name="Group 3577" transform="translate(37.598 1.603) rotate(-20)">
        <line id="Line_86" data-name="Line 86" y1="2.665" x2="3.199" transform="translate(0.933 0.533)" fill="none" stroke="#242a39" stroke-linecap="round" stroke-width="1"/>
        <line id="Line_87" data-name="Line 87" y1="2.266" x2="0.8" transform="translate(0 0)" fill="none" stroke="#242a39" stroke-linecap="round" stroke-width="1"/>
        <path id="Path_417" data-name="Path 417" d="M0,.8,2.855,0" transform="translate(1.833 3.665)" fill="none" stroke="#242a39" stroke-linecap="round" stroke-width="1"/>
      </g>
      <path id="_8726174_rupee_sign_icon" data-name="8726174_rupee_sign_icon" d="M1,.334H.819A.459.459,0,0,0,.735.167H1A.084.084,0,1,0,1,0H.084a.084.084,0,1,0,0,.167H.377A.292.292,0,0,1,.64.334H.084A.084.084,0,1,0,.084.5H.669A.292.292,0,0,1,.381.752H.056A.058.058,0,0,0,.04.76L.03.766h0A.063.063,0,0,0,.018.78L.011.792a.051.051,0,0,0,0,.015A.054.054,0,0,0,0,.836H0A.058.058,0,0,0,0,.847.054.054,0,0,0,0,.864.058.058,0,0,0,.009.88.012.012,0,0,0,.015.89l.5.585a.084.084,0,1,0,.127-.109L.266.919h.11A.46.46,0,0,0,.836.5H1A.084.084,0,1,0,1,.334Z" transform="matrix(0.978, -0.208, 0.208, 0.978, 33.169, 9.111)" fill="#fff"/>
      <g id="_529977368" transform="translate(14.54 4.265)">
        <path id="Path_468" data-name="Path 468" d="M43629.023,17950.252c.473-.064.355-.105.8-.336a8.9,8.9,0,0,1,.844-.385c1.863-.779,4.758-1.832,5.832-3.578a2.485,2.485,0,0,0,.3-.91c.172-.6,2.645-1.947,2.68-7.986a16.931,16.931,0,0,0-.508-4.279c-.168-.621-.41-1.236-.527-1.816a11.67,11.67,0,0,0-.555-1.877,5.384,5.384,0,0,0-.324-.779l-1.242-2.406c-.652-1.031-1.258-1.826-1.871-2.8a7.051,7.051,0,0,0-2.258-2.5,21.342,21.342,0,0,0-4.25-1.615c-.727-.236-.77-1.17-2.656-.963l-3.887.867a26.475,26.475,0,0,0-6.094,3.428l-2.227,2.547c-1.414-.471-2.187,3.3-2.355,4.162a61.494,61.494,0,0,0-.637,6.158c-.77.08-.922.443-.879,1.537a14.04,14.04,0,0,0,1.809,5.5,43.678,43.678,0,0,0,3.035,4.281l1.086,1.455-.465-.18a1.555,1.555,0,0,1-.332-.23,2.054,2.054,0,0,1-.539-.564c-.535.742,1.789,1.535,1.984,1.654.348.209.32.357.656.68.367.348.266.381.82.516,3.441.836,3.3,1.445,8.016,1.291a13.763,13.763,0,0,0,4.277-.828c-.023.006-.062-.008-.07.021l-.3.012c-.027,0-.066-.033-.086-.033A.328.328,0,0,1,43629.023,17950.252Zm-11.867-2.361c.668.152.324.123.531.42.238.34.223.037.414.564l-.98-.225Zm.559-2.232c.5.088.719.51,1.082.869l1.938,1.836c.344.334.523.713,1.016.875-.5-.773-3.8-3.715-3.941-4.2.027-.588.258-1.139-.234-1.379-.242.518-.078,2.73-.359,3.643-.84-.213-.855-.934-.723-.49-.211.152-.266.1-.512.24a1.3,1.3,0,0,0,.3.334c.363.539.043.5.016.549-.66-.355-.648-1.723-.641-.613a1.187,1.187,0,0,1-1.035-1.33c-.078-.893-.324-4.359-.4-3.506a12.043,12.043,0,0,0,.125,3.5l-.465-.424c-.156-.205-.223-.309-.375-.506a13.15,13.15,0,0,1-1.883-3.164c1.016.578.441.725.98,1.32.191-.285-.078-1.27-.1-1.83a9.877,9.877,0,0,1,.082-2.172c-.512.074-.371.709-.355,1.289.008.639.074,1.057.1,1.689-1.812-.766-1.727-6.785-1.68-8.574a.5.5,0,0,1,.027.078.214.214,0,0,0,.039.08,1.812,1.812,0,0,0,.074.254.856.856,0,0,0,.168.354,12.112,12.112,0,0,1,1.41-6.9,11.013,11.013,0,0,1,1.516-2.6,9.851,9.851,0,0,1,2.324-1.918c-.348.867-1.648,1.637-1.793,2.668a23.764,23.764,0,0,1,1.9-2.424l.945-.729c-.273.889-.387.045-.516.928.293-.182,1.352-1.48,1.645-1.375.238.084-.043.2.285,0,.551-.336.109-.391.945-.395a1.022,1.022,0,0,1-.582.545l.43.143c.223.033.156.061.371-.037.391-.178.293-.373.434-.762l-.676-.58c1.566-.609,1.77-1.037,3.91-1.211.047,1.164-.258,2.459.27,3.4.98-.061.668-2.553.555-3.436l1.281-.141c.023.043.051.051.059.1s.105.125.117.143c.07.09.1.146.156.209a1.59,1.59,0,0,1,.063-.172.918.918,0,0,1,.164-.258l1.215.137c.082.2.016.105.016.184,0,.213-.125-.145-.016.182a2.544,2.544,0,0,1,1.633.266c.258.219.168-.2.2.459.3-.658,2.2.814,2.582,1.078l.77.678a4.573,4.573,0,0,1,.426.24c1.648,1.236,5.289,7.8,5.512,10.514l-.941-.24-.078-.32c-.289.037-.609.131-.934.174-.8.111-1.113-.258-.992.3a.488.488,0,0,0,.215.307,6.33,6.33,0,0,0,2.8.076,16.476,16.476,0,0,1-4.156,12.688,11.708,11.708,0,0,1-2.492,1.734,16.4,16.4,0,0,1-2.66,1.662,18.138,18.138,0,0,1-3.488.844,9.163,9.163,0,0,1-3.008-.08c-.5-.084-.586-.049-.82-.32l.129-.039c.633-.059,1.254.246,1.969.246l-1.242-.4c-.02-.012-.059-.027-.086-.047l3.227-.1a.436.436,0,0,1,.016.047c.02.141.016.119.2.156l3.66-2.32c.57-.383,1.156-.828,1.766-1.227.469-.312,1.379-.867,1.578-1.408-.637.031-1.336.914-1.824,1.283-1.289.971-2.539,1.7-3.7,2.514a2.72,2.72,0,0,1-2.473.756,9.483,9.483,0,0,0,.016-2.127l0-.973c.078-.48.094-.5-.172-.838-.461.18-.449,1.033-.66,1.436-.113.205-.039-.049-.113.213a10.479,10.479,0,0,0,.2,2.309c-.453.012-.918.01-1.371,0l-1.3-.121c-1.012.154-2.762-.988-3.531-1.5C43617.566,17947.557,43617.688,17946.408,43617.715,17945.658Zm4.141,3.578c-.016-.014-.039.02-.039.037a.027.027,0,0,1-.008.016S43622.016,17949.447,43621.855,17949.236Zm3.973.795c-.18.123.113.078.047.031C43625.875,17950.063,43626.012,17949.9,43625.828,17950.031Zm-12-20.166a23.641,23.641,0,0,1,4.25-7.215c.117-.115.016.02.16-.172a1.678,1.678,0,0,0,.172-.277c-.816.391-2.125,2.68-2.707,3.5C43615.332,17926.238,43613.605,17929.359,43613.828,17929.865Zm.582-3.422a9.284,9.284,0,0,0-1.094,4.842c.063-.129.375-1.162.375-1.223,0-.861-.109.52-.164-.43a3.512,3.512,0,0,1,.129-.73,15,15,0,0,1,.8-2.2C43614.508,17926.322,43614.477,17926.563,43614.41,17926.443Zm.246-.057,1.531-2.187a2.326,2.326,0,0,0,.555-.793c-.406.248-.309.262-.566.662-.211.34-.348.34-.613.719A4.527,4.527,0,0,0,43614.656,17926.387Zm-2.5,4.969c.109-2.932,1.953-4.93,2.254-5.725a4.561,4.561,0,0,0-.859,1.236c-.141.25-.2.4-.348.666a7.5,7.5,0,0,0-.965,2.238A2.636,2.636,0,0,0,43612.156,17931.355Zm19.859,17.355,2.121-1.584c1.145-.834.637-.246,1.781-1.311a.942.942,0,0,1,.383-.254c-.164.684-1.266,1.549-1.84,1.9A13.269,13.269,0,0,1,43632.016,17948.711Zm3.34-2.994.488-.646c.242-.354.211-.432.539-.635-.035.779-.586.939-.91,1.375Zm1.168-1.389c-.187-.555,1.414-2.295,2.117-5.307l.164-.641c.1-.225.031-.119.16-.273a9.106,9.106,0,0,1-.7,3.717,6.532,6.532,0,0,1-.641,1.48c-.148.232-.648.941-.953,1.02Zm-26.555-8.826.086.156a1.782,1.782,0,0,1,.074.275c.023.145.039.432.047.582l.207,3.094c-.031.213-.023.119-.09.238C43609.922,17938.938,43609.02,17936.164,43609.969,17935.5Zm19.344-15.588.629.156a8.081,8.081,0,0,1,2.645,1.35c.328.279.2.094.375.473-1.16-.221-.988-.453-1.828-.893l-.859-.473c-.156-.084-.3-.125-.453-.2a2.419,2.419,0,0,1-.219-.117Zm-11.52,1.326c.16-.268,0-.078.246-.3a.787.787,0,0,1,.2-.143l1.5-.826a16.61,16.61,0,0,1,2.113-.885,9.939,9.939,0,0,1,5.16-.5.475.475,0,0,1-.105.059c-.758.336-.316-.068-1.109.408-.59.346-2.734.232-3.883.471C43620.539,17919.818,43618.863,17921.2,43617.793,17921.24Z" transform="translate(-43609.203 -17917.996)" fill="#2b2b2b" fill-rule="evenodd"/>
        <path id="Path_469" data-name="Path 469" d="M48832.984,20254.5c.4-.35.648.25,2.23,1.092l1.813,1.074c.273.246.078.053.227.307a26.7,26.7,0,0,1-3.734-2.107Zm-.2-3.006c-.176-.441-.023-.738.105-1.238a1.286,1.286,0,0,1,.016.986l-.078.166A.222.222,0,0,1,48832.789,20251.5Zm-2.215-1c-.062-.121-.055,0-.062-.2l.289-1.277-.426.342c.289-.576.508-2.119.879-2.854l.082.789.582-2.246-.211-.107c.316-.176.16.258.258-.092.008-.021.035-.01.035-.025l.25-.646a15.038,15.038,0,0,1-.68,3.184c-.172.58-.316,1.088-.469,1.629A5.115,5.115,0,0,1,48830.574,20250.5Zm.219-1.531a4.386,4.386,0,0,0,.445-1.689c-.074.084-.055.023-.137.2Zm2.773-6.908-.121-.949c-.7.043.023.207-.9.551-.453.164-2.488,8.418-2.738,8.719-.414.256-.543.076-.891.447a2.788,2.788,0,0,0-.469.953c-.25,1.23.188,3.453,2.02,2.926.8-.23,1.375.352,1.949.7,1.156.717,2.3,1.58,3.309,2.354.711.551,2.656,2.111,3.5,2.158a.663.663,0,0,0,.07.592c.3-.047.164-.15.641-.307l.184.59.973.066-1.215-2.258c-.25-.236-.266-.123-.547-.455a7.328,7.328,0,0,0-3.371-2.607,12.8,12.8,0,0,1-1.633-.918c-.7-.469-1.07-.514-1.133-1.572a15.347,15.347,0,0,1,.191-3.809c.105-.453.27-.756.066-1.045-.7.707-.152,3.633-1.891,2.406a14.453,14.453,0,0,1,.629-2.453,36.91,36.91,0,0,1,1.617-4.729,6,6,0,0,0,.508-2.418C48833.7,20241.066,48833.938,20241.559,48833.566,20242.059Z" transform="translate(-48815.609 -20235.314)" fill="#2b2b2b" fill-rule="evenodd"/>
        <path id="Path_470" data-name="Path 470" d="M52376.523,19687.428c-.023-.383.281,0,.094.008l-.008,0C52376.414,19687.426,52376.531,19687.783,52376.523,19687.428Zm.648-.5c.016-.023.055.033.055.064,0,.012.031.029.031.029C52377.242,19687.014,52376.953,19687.248,52377.172,19686.926Zm-1.078,1.736c.43.172.4-.141.57-.553.156-.4.313-.687.43-1.055.414.6-.031.234.094.678.07.207.2.287.445.133a2.31,2.31,0,0,0,.656-1.076c-.461.3.016.164-.578.367.1-.74.6-1.668.383-2.225-.359.012-.328.039-.477.334a6.014,6.014,0,0,0-.281.721,3.741,3.741,0,0,1-.672,1.324c-.266-1.725.977-2.877.32-3.3a24.3,24.3,0,0,0-.8,3.492l-.133.871A.6.6,0,0,0,52376.094,19688.662Z" transform="translate(-52354.59 -19679.686)" fill="#2b2b2b" fill-rule="evenodd"/>
        <path id="Path_471" data-name="Path 471" d="M55467.352,21447.377c.129-.176,2.2-9.957-2.344-10.377.113.746.371.383.977.719C55468.629,21439.209,55467.082,21446.75,55467.352,21447.377Z" transform="translate(-55435.977 -21428.385)" fill="#2b2b2b" fill-rule="evenodd"/>
        <path id="Path_472" data-name="Path 472" d="M51284,27765.168c.223.1.848-.191,1.078-.316.02-.016.109-.064.129-.08l1.395-.832c.457-.291,7.2-5.279,5.543-5.937-.129.236-.074.432-.2.74a7.732,7.732,0,0,1-1.293,1.611l-2.586,2.3a3.579,3.579,0,0,0-.566.418,20.891,20.891,0,0,1-2.934,1.85A2.22,2.22,0,0,0,51284,27765.168Z" transform="translate(-51265.211 -27733.908)" fill="#2b2b2b" fill-rule="evenodd"/>
        <path id="Path_473" data-name="Path 473" d="M44244,24924.99c.121.807,1.012.361,1.563.334.7-.033-.035.057.66.1.25-.406.633-.479.852-.857A10.3,10.3,0,0,0,44244,24924.99Z" transform="translate(-44242.445 -24907.375)" fill="#2b2b2b" fill-rule="evenodd"/>
        <path id="Path_474" data-name="Path 474" d="M56808,25004a10.981,10.981,0,0,0,1.711-3.594,5.9,5.9,0,0,0-.484-4.4c.027.8,1.242,2.668-.4,6.359C56808.586,25002.9,56808.211,25003.473,56808,25004Z" transform="translate(-56775.68 -24978.674)" fill="#2b2b2b" fill-rule="evenodd"/>
        <path id="Path_475" data-name="Path 475" d="M45188.48,26714.8c.059-1.031-.32-3.258.078-4.342.152-.412.082-.008.168-.453-.316.029-.281.012-.422.287C45188.063,26710.777,45187.918,26714.5,45188.48,26714.8Z" transform="translate(-45184.223 -26688.477)" fill="#2b2b2b" fill-rule="evenodd"/>
        <path id="Path_476" data-name="Path 476" d="M47468.813,21821.275c-.551-.3-1.012-.174-1.4-.609-.684-.777.09-.926.078-1.527-.957-.057-.957,1.025-.586,1.486A1.977,1.977,0,0,0,47468.813,21821.275Z" transform="translate(-47457.23 -21809.588)" fill="#2b2b2b" fill-rule="evenodd"/>
        <path id="Path_477" data-name="Path 477" d="M46117.008,21044.984c.168-.279.406-.689.566-.99.164.2.063-.023.125.229.008.023-.012.215-.008.221a9,9,0,0,1,1.426-2.57c.242-.258.559-.518.5-.709,0,0-.008-.311-.406.117A19.353,19.353,0,0,0,46117.008,21044.984Z" transform="translate(-46110.867 -21033.406)" fill="#2b2b2b" fill-rule="evenodd"/>
        <path id="Path_478" data-name="Path 478" d="M53985.1,21273.785a6.363,6.363,0,0,0-1.016-1.453c-.281-.416-.668-1.172-1.078-1.324A8.191,8.191,0,0,0,53985.1,21273.785Z" transform="translate(-53957.602 -21262.799)" fill="#2b2b2b" fill-rule="evenodd"/>
        <path id="Path_479" data-name="Path 479" d="M51651.93,24678.834c-.4-.461-.34-.551-.434-1.309a13.76,13.76,0,0,0-.207-1.523C51651.039,24676.342,51651.117,24679.213,51651.93,24678.834Z" transform="translate(-51631.473 -24659.455)" fill="#2b2b2b" fill-rule="evenodd"/>
        <path id="Path_480" data-name="Path 480" d="M44412.4,26084.377c.391.244.184.172.441.566a1.457,1.457,0,0,0-.43-.939c-.7.277-.141,1.752-.062,1.9C44412.473,26085.375,44412.176,26085.025,44412.4,26084.377Z" transform="translate(-44410.102 -26064.01)" fill="#2b2b2b" fill-rule="evenodd"/>
        <path id="Path_481" data-name="Path 481" d="M51119.746,24411.572a18.109,18.109,0,0,0,0-2.564,8.764,8.764,0,0,0-.2,1.273C51119.516,24410.818,51119.441,24411.3,51119.746,24411.572Z" transform="translate(-51101.129 -24393.115)" fill="#2b2b2b" fill-rule="evenodd"/>
        <path id="Path_482" data-name="Path 482" d="M51950.289,28558.994a4.247,4.247,0,0,0-2.289,1.2,2.552,2.552,0,0,0,.543-.33C51949.227,28559.441,51949.863,28559.318,51950.289,28558.994Z" transform="translate(-51927.582 -28532.939)" fill="#2b2b2b" fill-rule="evenodd"/>
      </g>
    </g>
  </g>
</svg>
