<svg xmlns="http://www.w3.org/2000/svg" width="29.588" height="40.856" viewBox="0 0 29.588 40.856">
  <g id="InstantCredit-mob" transform="translate(-0.001 -15.951)">
    <g id="Group_3919" data-name="Group 3919" transform="translate(0.001 15.951)">
      <g id="Group_3912" data-name="Group 3912" transform="translate(1.435 40.696)">
        <path id="Path_2361" data-name="Path 2361" d="M140.584,1099.79a2.246,2.246,0,0,0,.838.16h0a2.246,2.246,0,0,1-.838-.16Z" transform="translate(-140.584 -1099.79)" fill="#2f8694"/>
      </g>
      <g id="Group_3913" data-name="Group 3913" transform="translate(8.872)">
        <path id="Path_2362" data-name="Path 2362" d="M210.572,817.716l-18.441,0,18.442,0Z" transform="translate(-192.131 -817.716)" fill="#2f8694"/>
      </g>
      <g id="Group_3914" data-name="Group 3914" transform="translate(0)">
        <path id="Path_2396" data-name="Path 2396" d="M160.217,819.982l.009,36.32a2.266,2.266,0,0,1-2.266,2.265l-25.049.006a2.264,2.264,0,0,1-2.266-2.265l-.007-36.319a2.265,2.265,0,0,1,2.265-2.266l25.049-.005a2.266,2.266,0,0,1,2.266,2.266" transform="translate(-130.637 -817.716)" fill="#62e4b8"/>
      </g>
      <g id="Group_3915" data-name="Group 3915" transform="translate(2.9 0.004)">
        <path id="Path_2397" data-name="Path 2397" d="M156.712,817.744h-5.971l.009,40.851,5.971,0Z" transform="translate(-150.741 -817.744)" fill="#62b99c"/>
      </g>
      <g id="Group_3916" data-name="Group 3916" transform="translate(17.609 8.453)">
        <path id="Path_2398" data-name="Path 2398" d="M256.914,876.307a4.226,4.226,0,1,1-4.225,4.227,4.226,4.226,0,0,1,4.225-4.227" transform="translate(-252.689 -876.307)" fill="#26936e"/>
      </g>
      <g id="Group_3917" data-name="Group 3917" transform="translate(17.608 3.523)">
        <path id="Path_2399" data-name="Path 2399" d="M256.906,842.134a4.226,4.226,0,1,1-4.225,4.227,4.226,4.226,0,0,1,4.225-4.227" transform="translate(-252.681 -842.134)" fill="#11c286"/>
      </g>
      <g id="Group_3918" data-name="Group 3918" transform="translate(11.955 27.655)">
        <path id="Path_2400" data-name="Path 2400" d="M213.5,1009.4h5.059v9.163H213.5V1009.4" transform="translate(-213.499 -1009.4)" fill="rgba(255,243,0,1)"/>
      </g>
    </g>
  </g>
</svg>
