<svg xmlns="http://www.w3.org/2000/svg" xmlns:xlink="http://www.w3.org/1999/xlink" width="76.383" height="70.442" viewBox="0 0 76.383 70.442">
  <defs>
    <linearGradient id="linear-gradient" x1="0.237" y1="0.051" x2="0.726" y2="0.935" gradientUnits="objectBoundingBox">
      <stop offset="0" stop-color="#9e8bff"/>
      <stop offset="1" stop-color="#5775ff"/>
    </linearGradient>
  </defs>
  <g id="instant-loan-web" transform="translate(-1211.183 -1108.179)">
    <g id="Group_3581" data-name="Group 3581" transform="translate(1220.693 1108)">
      <g id="Group_3577" data-name="Group 3577" transform="translate(49.367 2.51) rotate(-20)">
        <line id="Line_86" data-name="Line 86" y1="4.174" x2="5.009" transform="translate(1.461 0.835)" fill="none" stroke="#242a39" stroke-linecap="round" stroke-width="1"/>
        <line id="Line_87" data-name="Line 87" y1="3.548" x2="1.252" transform="translate(0 0)" fill="none" stroke="#242a39" stroke-linecap="round" stroke-width="1"/>
        <path id="Path_417" data-name="Path 417" d="M0,1.252,4.47,0" transform="translate(2.87 5.739)" fill="none" stroke="#242a39" stroke-linecap="round" stroke-width="1"/>
      </g>
      <path id="_8726174_rupee_sign_icon" data-name="8726174_rupee_sign_icon" d="M1.571.523H1.282A.718.718,0,0,0,1.151.262h.42a.131.131,0,1,0,0-.262H.132a.131.131,0,1,0,0,.262H.59A.458.458,0,0,1,1,.523H.132a.131.131,0,1,0,0,.262h.916A.458.458,0,0,1,.6,1.178H.114a.085.085,0,0,0-.026,0,.09.09,0,0,0-.025.013L.047,1.2h0a.1.1,0,0,0-.018.022.144.144,0,0,0-.012.018.08.08,0,0,0,0,.024A.085.085,0,0,0,0,1.309H0a.092.092,0,0,0,0,.018.085.085,0,0,0,0,.026.09.09,0,0,0,.013.025.019.019,0,0,0,.009.016l.785.916a.131.131,0,0,0,.2-.17l-.59-.7H.59A.72.72,0,0,0,1.31.785h.262a.131.131,0,1,0,0-.262Z" transform="matrix(0.978, -0.208, 0.208, 0.978, 42.432, 14.267)" fill="#fff"/>
      <g id="_529977368" transform="translate(13.26 6.679)">
        <path id="Path_468" data-name="Path 468" d="M43640.23,17968.508c.746-.1.563-.168,1.254-.529.457-.236.793-.389,1.313-.6,2.926-1.221,7.461-2.865,9.137-5.6a3.813,3.813,0,0,0,.477-1.426c.266-.934,4.145-3.051,4.2-12.508a26.587,26.587,0,0,0-.8-6.7c-.262-.975-.629-1.939-.824-2.844a18.408,18.408,0,0,0-.863-2.941,11.215,11.215,0,0,0-.508-1.223l-1.953-3.766c-1.016-1.617-1.961-2.859-2.93-4.381a10.967,10.967,0,0,0-3.531-3.912c-1.355-.957-4.715-1.891-6.656-2.525-1.141-.373-1.2-1.832-4.16-1.51l-6.09,1.355a41.218,41.218,0,0,0-9.535,5.369l-3.484,3.986c-2.215-.734-3.43,5.17-3.7,6.52-.3,1.541-1.02,8.2-.992,9.645-1.207.123-1.445.693-1.375,2.4a21.866,21.866,0,0,0,2.832,8.615,69.314,69.314,0,0,0,4.75,6.7l1.691,2.279-.723-.281a2.811,2.811,0,0,1-.52-.361,3.245,3.245,0,0,1-.84-.881c-.844,1.162,2.793,2.4,3.109,2.586.539.326.5.561,1.023,1.066.578.549.422.6,1.285.8,5.391,1.313,5.168,2.268,12.551,2.025,1.652-.053,5.727-.646,6.7-1.295-.031.008-.09-.014-.109.029l-.48.02c-.031-.008-.1-.049-.129-.053A1.147,1.147,0,0,1,43640.23,17968.508Zm-18.578-3.7c1.047.238.5.189.828.654.371.531.352.057.652.885l-1.543-.354Zm.867-3.5c.781.135,1.129.793,1.7,1.363l3.027,2.869c.547.521.832,1.119,1.594,1.373-.77-1.211-5.953-5.818-6.172-6.574.047-.918.4-1.779-.359-2.156-.387.811-.129,4.275-.57,5.705-1.312-.336-1.336-1.467-1.125-.77-.344.24-.418.15-.8.379a2.145,2.145,0,0,0,.465.521c.57.844.074.773.023.859-1.031-.555-1.016-2.7-1-.963a1.848,1.848,0,0,1-1.613-2.082c-.129-1.4-.52-6.826-.637-5.486a19.072,19.072,0,0,0,.2,5.473l-.727-.666c-.242-.318-.344-.479-.586-.793a20.523,20.523,0,0,1-2.949-4.953c1.6.906.691,1.137,1.531,2.068.3-.445-.117-1.988-.156-2.863a15.156,15.156,0,0,1,.133-3.4c-.8.117-.582,1.111-.562,2.016.016,1,.129,1.658.152,2.65-2.836-1.2-2.7-10.629-2.629-13.428a.246.246,0,0,1,.047.123.484.484,0,0,0,.055.127c.051.164.066.236.125.395a1.237,1.237,0,0,0,.262.557c-.094-5.35.348-6.768,2.207-10.8a17.24,17.24,0,0,1,2.375-4.076,15.14,15.14,0,0,1,3.637-3.006c-.543,1.357-2.582,2.564-2.809,4.18a36.3,36.3,0,0,1,2.977-3.8l1.488-1.139c-.437,1.391-.609.072-.809,1.455.457-.287,2.113-2.32,2.57-2.158.375.135-.066.324.449.006.863-.527.176-.611,1.48-.617a1.623,1.623,0,0,1-.906.855l.668.221c.352.053.242.094.582-.059.6-.281.453-.584.676-1.191l-1.055-.906c2.445-.959,2.766-1.627,6.121-1.9.074,1.822-.406,3.85.418,5.322,1.543-.1,1.051-4,.871-5.387l2.008-.215c.035.064.078.078.094.15s.156.2.184.229c.105.139.156.227.242.326.027-.053.07-.232.094-.271a1.591,1.591,0,0,1,.258-.4l1.906.211c.125.309.023.168.023.291,0,.332-.2-.229-.023.283a3.994,3.994,0,0,1,2.555.416c.41.344.258-.309.3.719.48-1.031,3.441,1.273,4.051,1.688l1.2,1.059a6.5,6.5,0,0,1,.668.379c2.578,1.936,8.289,12.219,8.633,16.467l-1.48-.381-.117-.5c-.453.057-.949.2-1.457.27-1.258.174-1.742-.406-1.551.471a.718.718,0,0,0,.336.48c.645.465,3.957.311,4.383.121,1.039,6.934-2.039,15.078-6.516,19.867a18.209,18.209,0,0,1-3.895,2.715,25.963,25.963,0,0,1-4.16,2.6,28.982,28.982,0,0,1-5.469,1.324,14.465,14.465,0,0,1-4.711-.127c-.781-.131-.914-.078-1.285-.5l.207-.061c.98-.1,1.961.385,3.082.385l-1.957-.629a1.134,1.134,0,0,1-.121-.074l5.047-.156a.7.7,0,0,1,.027.078c.027.217.02.184.3.24l5.73-3.631c.891-.605,1.809-1.3,2.77-1.924.73-.488,2.152-1.355,2.469-2.2-1,.051-2.094,1.428-2.863,2.01-2.012,1.518-3.973,2.65-5.789,3.938-1.41,1-1.574,1.32-3.871,1.18-.051-1.131.324-2.414.023-3.33l.008-1.523c.121-.754.145-.781-.27-1.311-.727.281-.7,1.619-1.039,2.25-.168.32-.059-.076-.172.33a16.577,16.577,0,0,0,.309,3.619c-.719.014-1.437.008-2.152,0l-2.039-.193c-1.59.242-4.328-1.547-5.531-2.352C43622.289,17964.287,43622.48,17962.486,43622.52,17961.314Zm6.484,5.6c-.02-.021-.051.035-.051.059s-.02.023-.02.023S43629.262,17967.242,43629,17966.914Zm6.227,1.244c-.285.193.172.123.074.051C43635.3,17968.209,43635.523,17967.965,43635.23,17968.158Zm-18.793-31.578c.906-2.922,4.289-8.973,6.656-11.3.188-.176.027.029.254-.27a2.221,2.221,0,0,0,.262-.434c-1.273.611-3.328,4.193-4.23,5.482C43618.789,17930.9,43616.09,17935.791,43616.438,17936.58Zm.91-5.357c-1.375,2.094-1.7,5.1-1.707,7.584.1-.2.582-1.82.582-1.918.012-1.346-.172.814-.258-.67a5.317,5.317,0,0,1,.207-1.145,22.572,22.572,0,0,1,1.246-3.441C43617.5,17931.031,43617.453,17931.408,43617.348,17931.223Zm.391-.092,2.387-3.42a3.685,3.685,0,0,0,.879-1.242c-.637.383-.488.4-.891,1.033-.332.531-.543.531-.957,1.129A7.047,7.047,0,0,0,43617.738,17931.131Zm-3.922,7.783c.172-4.59,3.063-7.717,3.531-8.963a7.4,7.4,0,0,0-1.348,1.936c-.215.391-.309.633-.539,1.043a11.646,11.646,0,0,0-1.512,3.5A4.137,4.137,0,0,0,43613.816,17938.914Zm31.105,27.176,3.316-2.477c1.793-1.307,1-.389,2.785-2.055a1.556,1.556,0,0,1,.605-.4c-.25,1.074-1.977,2.43-2.883,2.98A20.792,20.792,0,0,1,43644.922,17966.09Zm5.227-4.686.762-1.014c.383-.551.336-.672.84-1-.051,1.223-.91,1.477-1.418,2.158Zm1.828-2.176c-.289-.867,2.207-3.592,3.313-8.309l.258-1c.156-.354.043-.189.254-.432a14.278,14.278,0,0,1-1.094,5.822,10.388,10.388,0,0,1-.992,2.314c-.242.367-1.02,1.477-1.5,1.6Zm-41.578-13.822.129.244a2.153,2.153,0,0,1,.109.434c.043.23.07.68.086.91l.316,4.846c-.051.334-.031.188-.133.373C43610.32,17950.789,43608.91,17946.441,43610.4,17945.406Zm30.289-24.406.984.242a12.581,12.581,0,0,1,4.141,2.117c.512.436.316.145.59.736-1.82-.35-1.555-.707-2.859-1.4l-1.348-.74c-.254-.127-.473-.2-.719-.312-.074-.039-.258-.131-.336-.186Zm-18.043,2.072c.258-.418.012-.123.383-.463.215-.2.129-.1.32-.223l2.352-1.293a25.9,25.9,0,0,1,3.3-1.387c2.242-.738,5.66-1.467,8.078-.779a.679.679,0,0,1-.152.088c-1.191.529-.5-.1-1.746.641-.918.543-4.281.363-6.074.738C43626.941,17920.848,43624.32,17923.014,43622.645,17923.072Z" transform="translate(-43609.199 -17917.994)" fill="#2b2b2b" fill-rule="evenodd"/>
        <path id="Path_469" data-name="Path 469" d="M48835.578,20262.143c.633-.549,1.012.391,3.5,1.711l2.832,1.684c.434.385.125.08.355.479a42.39,42.39,0,0,1-5.848-3.3Zm-.3-4.709c-.273-.687-.039-1.154.168-1.939a2.068,2.068,0,0,1,.023,1.545l-.125.264A.361.361,0,0,1,48835.277,20257.434Zm-3.477-1.564c-.1-.187-.086,0-.1-.309l.473-2-.691.533c.461-.9.809-3.318,1.391-4.469l.125,1.236.914-3.516-.34-.17c.5-.273.27.4.41-.143.016-.033.063-.018.063-.041l.387-1.01c.211.4-.8,4.1-1.066,4.984-.27.906-.492,1.7-.738,2.551A7.7,7.7,0,0,1,48831.8,20255.869Zm.344-2.4a6.728,6.728,0,0,0,.7-2.646.7.7,0,0,0-.215.316Zm4.352-10.816-.2-1.486c-1.078.064.051.32-1.406.861-.7.26-3.895,13.182-4.281,13.652-.648.4-.855.117-1.4.7a4.226,4.226,0,0,0-.723,1.49c-.391,1.926.281,5.406,3.156,4.58,1.254-.361,2.16.551,3.051,1.1a63.131,63.131,0,0,1,5.18,3.682c1.117.863,4.168,3.309,5.484,3.385a1.031,1.031,0,0,0,.117.928c.457-.072.242-.238,1-.484l.281.926,1.523.1-1.895-3.537c-.391-.369-.426-.189-.867-.711-1.949-2.289-2.016-2.453-5.277-4.08a21.068,21.068,0,0,1-2.559-1.441c-1.105-.734-1.672-.8-1.773-2.461a24.188,24.188,0,0,1,.313-5.965c.156-.711.414-1.184.1-1.635-1.086,1.107-.246,5.688-2.957,3.77a21.163,21.163,0,0,1,.988-3.846,56.3,56.3,0,0,1,2.527-7.406c.359-.742,1.02-3.232.789-3.783C48836.711,20241.1,48837.078,20241.869,48836.5,20242.656Z" transform="translate(-48808.371 -20232.094)" fill="#2b2b2b" fill-rule="evenodd"/>
        <path id="Path_470" data-name="Path 470" d="M52376.777,19689.361c-.027-.6.441,0,.145.01l-.016,0C52376.6,19689.359,52376.8,19689.918,52376.777,19689.361Zm1.012-.787c.027-.039.094.053.094.1,0,.018.035.041.035.041S52377.457,19689.078,52377.789,19688.574Zm-1.684,2.721c.672.27.629-.217.895-.863.242-.623.5-1.08.664-1.652.648.938-.043.363.16,1.059.105.326.3.447.7.207a3.708,3.708,0,0,0,1.02-1.686c-.715.469.016.258-.895.578.145-1.162.938-2.611.59-3.486-.566.018-.512.061-.75.523a10.447,10.447,0,0,0-.434,1.129,5.508,5.508,0,0,1-1.062,2.07c-.422-2.7,1.543-4.5.516-5.172a37.464,37.464,0,0,0-1.258,5.469l-.191,1.367A.958.958,0,0,0,52376.105,19691.295Z" transform="translate(-52342.441 -19677.23)" fill="#2b2b2b" fill-rule="evenodd"/>
        <path id="Path_471" data-name="Path 471" d="M55468.672,21453.25c.2-.277,3.438-15.6-3.672-16.252.172,1.168.578.6,1.516,1.125C55470.672,21440.457,55468.242,21452.266,55468.672,21453.25Z" transform="translate(-55419.539 -21423.506)" fill="#2b2b2b" fill-rule="evenodd"/>
        <path id="Path_472" data-name="Path 472" d="M51284,27769.219c.348.164,1.332-.3,1.691-.5.035-.023.168-.1.2-.129l2.18-1.3c.719-.457,11.281-8.27,8.684-9.3-.2.367-.117.676-.309,1.156a11.921,11.921,0,0,1-2.02,2.523l-4.051,3.609a5,5,0,0,0-.887.656,32.92,32.92,0,0,1-4.6,2.9A3.472,3.472,0,0,0,51284,27769.219Z" transform="translate(-51254.57 -27720.271)" fill="#2b2b2b" fill-rule="evenodd"/>
        <path id="Path_473" data-name="Path 473" d="M44244,24925.246c.188,1.266,1.57.566,2.43.523,1.094-.051-.047.09,1.047.158.4-.633.992-.744,1.32-1.342C44247.984,24924.291,44244.313,24925.117,44244,24925.246Z" transform="translate(-44241.566 -24897.66)" fill="#2b2b2b" fill-rule="evenodd"/>
        <path id="Path_474" data-name="Path 474" d="M56808,25008.518c.7-.506,2.367-4.176,2.676-5.625a9.245,9.245,0,0,0-.762-6.895c.047,1.258,1.941,4.178-.625,9.959C56808.914,25006.811,56808.324,25007.7,56808,25008.518Z" transform="translate(-56757.391 -24968.859)" fill="#2b2b2b" fill-rule="evenodd"/>
        <path id="Path_475" data-name="Path 475" d="M45188.7,26717.506c.078-1.613-.512-5.1.117-6.8.238-.645.125-.006.254-.7-.492.045-.434.018-.652.445C45188.039,26711.213,45187.809,26717.033,45188.7,26717.506Z" transform="translate(-45182.027 -26676.291)" fill="#2b2b2b" fill-rule="evenodd"/>
        <path id="Path_476" data-name="Path 476" d="M47470.023,21822.486c-.859-.475-1.594-.27-2.2-.957-1.07-1.215.141-1.447.125-2.393-1.5-.09-1.5,1.6-.922,2.328C47467.711,21822.324,47468.563,21822.574,47470.023,21822.486Z" transform="translate(-47451.875 -21804.176)" fill="#2b2b2b" fill-rule="evenodd"/>
        <path id="Path_477" data-name="Path 477" d="M46117,21047.207c.266-.439.641-1.08.883-1.551.266.313.1-.039.2.357.016.035-.016.334-.008.342a13.992,13.992,0,0,1,2.234-4.023c.375-.4.867-.811.781-1.107,0,0-.016-.49-.641.184A30.181,30.181,0,0,0,46117,21047.207Z" transform="translate(-46107.383 -21029.078)" fill="#2b2b2b" fill-rule="evenodd"/>
        <path id="Path_478" data-name="Path 478" d="M53986.273,21275.354a9.753,9.753,0,0,0-1.594-2.273c-.437-.652-1.039-1.838-1.68-2.078C53983.219,21272.2,53985.594,21274.846,53986.273,21275.354Z" transform="translate(-53943.223 -21258.146)" fill="#2b2b2b" fill-rule="evenodd"/>
        <path id="Path_479" data-name="Path 479" d="M51652.363,24680.434c-.625-.723-.535-.865-.687-2.049a21.2,21.2,0,0,0-.324-2.387C51650.961,24676.529,51651.09,24681.029,51652.363,24680.434Z" transform="translate(-51620.32 -24650.088)" fill="#2b2b2b" fill-rule="evenodd"/>
        <path id="Path_480" data-name="Path 480" d="M44412.59,26084.59c.609.373.281.266.7.883a2.332,2.332,0,0,0-.672-1.473c-1.105.438-.227,2.744-.1,2.98C44412.7,26086.146,44412.234,26085.6,44412.59,26084.59Z" transform="translate(-44408.984 -26052.689)" fill="#2b2b2b" fill-rule="evenodd"/>
        <path id="Path_481" data-name="Path 481" d="M51119.871,24413.023a28.76,28.76,0,0,0,0-4.021,13.5,13.5,0,0,0-.312,2C51119.508,24411.842,51119.395,24412.6,51119.871,24413.023Z" transform="translate(-51090.711 -24384.113)" fill="#2b2b2b" fill-rule="evenodd"/>
        <path id="Path_482" data-name="Path 482" d="M51951.586,28558.99c-1.3-.008-2.812,1.2-3.586,1.875a4.76,4.76,0,0,0,.848-.518C51949.91,28559.688,51950.914,28559.5,51951.586,28558.99Z" transform="translate(-51916.027 -28518.189)" fill="#2b2b2b" fill-rule="evenodd"/>
      </g>
      <path id="Path_2671" data-name="Path 2671" d="M29.27,19.021C47.633,9.507,64.684,17.341,64.684,35.2A32.344,32.344,0,0,1,32.34,67.547C14.477,67.547.764,47.335,0,35.2S10.907,28.534,29.27,19.021Z" transform="translate(-9.47 3.074)" opacity="0.1" fill="url(#linear-gradient)"/>
    </g>
  </g>
</svg>
