<svg xmlns="http://www.w3.org/2000/svg" xmlns:xlink="http://www.w3.org/1999/xlink" width="70.121" height="63.376" viewBox="0 0 70.121 63.376"><defs><linearGradient id="a" x1="0.2" y1="0.152" x2="0.603" y2="1" gradientUnits="objectBoundingBox"><stop offset="0" stop-color="#9e8bff"/><stop offset="1" stop-color="#5775ff"/></linearGradient></defs><g transform="translate(-841.923 -1176.54)"><g transform="translate(841.923 1191.651)"><path d="M26.851,18.684C43.7,9.956,59.343,17.143,59.343,33.532A29.675,29.675,0,0,1,29.668,63.207C13.279,63.207.7,44.662-.007,33.532S10,27.413,26.851,18.684Z" transform="translate(0.039 -14.942)" opacity="0.1" fill="url(#a)"/></g><g transform="translate(874.018 1184.918)"><path d="M387.2,2875.35l.313-1.595-10.635-15.482-.649-.554-.894-.27-.947-.233-1.2-.615-1.953,1.035-.035.419.5,1.045.572-.5.691-.385,1-.277,1.112.125.83.352L377,2859.62l1.4,1.789,1.629,2.307,2.179,3.362,2.179,3.6Z" transform="translate(-366.276 -2850.619)" fill="#242a39"/><path d="M862.735,2457.23l-.308.365-2.079-.739-.875-.125-1.093.023-.9.248-.727.329-.644.63-.371.684.057.91.441,1.128.541,1.1-1.253-1.808-.323-1.247.332-1.45,1.262-1.124,1.829-.4,1.148-.059,1.186.47Z" transform="translate(-844.259 -2454.702)" fill="#242a39"/><path d="M247.9,2604.13l.883,1.049,1.55-.546.512-.562-.213-.846-.2-1.27.026-.255-.69.74-.495.59-.512.562-.436.293-.425.246Z" transform="translate(-244.509 -2598.887)" fill="#242a39"/><path d="M1708.141,3999.11l6.024,6.886,1.944,2.482,2.7,3.956,1.53,2.635,1.119,2.193.842,1.309,1.249,1.331.531.79.173.73-.257.622-.661.623-1.2.97-.026.015-1.145.648-.03.011-1.115.4-1-.2-.5-.572-.12-.632.034-.9-.106-.823-.137-.568-.947-1.524-.871-1.531-1.353-1.956-1.442-2.03-1.122-1.5-1.436-1.9-1.366-1.976-1.245-1.846-.825-1.162.288-1.981Zm4.957,6.271-4.395-4.494-.3,2.829-.246,1.692a5.213,5.213,0,0,1,.246-1c.087-.072.031.269,0,.622a7.8,7.8,0,0,1-.124.789,9.352,9.352,0,0,1,.295-1c.031.032-.17,1.132-.17,1.132s.086-.374.157-.3,0,.555,0,.555l1.506,2.413,1.358,1.963,1.422,1.884,1.131,1.508,1.449,2.04,1.378,1.573.875,1.539,1,1.607.176.725.119.925-.033.881.067.35.2.226.547.107.891-.322,1.064-.6,1.146-.923.512-.483.1-.252s-1.954,1.821-2.013,1.658a16.784,16.784,0,0,1,1.927-2.021s-1.3,1.32-1.437,1.168,1.127-1.63,1.127-1.63-.7.822-.774.732.478-1.094.478-1.094l-1.069-1.139-.018-.029-.88-1.369-.008-.017-1.123-2.2a36.113,36.113,0,0,0-1.995-3.681c-1.044-1.627-2.667-3.912-2.667-3.912Z" transform="translate(-1686.225 -3979.798)" fill="#242a39"/><path d="M2666.7,5529.6l.406,1.784.265.1.882-.631.053-.274-1.324-.97Z" transform="translate(-2633.238 -5490.386)" fill="#242a39"/><path d="M26.47,2429.385l-.636-.927a7.545,7.545,0,0,0-.844-.977,8.277,8.277,0,0,1-.921-1.07c-1.271-1.85-2.524-3.769-3.583-5.4l-.773-1.194c-1.546-2.389-3.007-4.646-4.507-6.828a1.575,1.575,0,0,0-1.257-.587,3.244,3.244,0,0,1-1.208-.353c-.058-.034-.137-.088-.236-.157a4.475,4.475,0,0,0-.78-.463l-1.54.872a3.322,3.322,0,0,0,.384.776c.046.077.079.132.1.176.162.32-.143.593-.411.833-.206.185-.452.384-.615.516-.058.047-.123.1-.139.114s-.1.1-.178.178c-.679.692-1.036,1-1.358,1a.46.46,0,0,1-.213-.051,1.7,1.7,0,0,1-.8-.89,3.68,3.68,0,0,0-.187-.343c-.07-.11-.418-.581-.755-1.036-.26-.351-.528-.714-.735-1-.113-.156-.2-.273-.254-.358-.108-.159-.22-.323-.11-.532a4.247,4.247,0,0,1,2.442-1.513c.285-.1.555-.2.768-.293a.457.457,0,0,1,.186-.04c.3,0,.481.273.668.563a2.478,2.478,0,0,0,.288.391c.448-.2.9-.414,1.331-.623l.056-.027a3.318,3.318,0,0,0-.148-.733,5.074,5.074,0,0,1-.206-1.039,1.113,1.113,0,0,1,.436-1.04,10.822,10.822,0,0,1,6.339-2.321h.142a14.76,14.76,0,0,1,6.589,1.919l.317.159-.143.325a.642.642,0,0,1-.6.409,1.791,1.791,0,0,1-.89-.378,2.45,2.45,0,0,0-.3-.176,6.233,6.233,0,0,0-2.459-.541,6.016,6.016,0,0,0-.686.041c-.825.1-1.972.312-2.411,1.06-.895,1.524.306,3.167,1.366,4.617.188.257.365.5.528.738l.16.234c2.482,3.624,5.049,7.37,7.89,10.813l.091.11-.006.143q-.038.94-.075,1.878t-.076,1.9Zm-14.778-18.713a2.692,2.692,0,0,1,1.236.6c.08.055.156.107.19.127a2.584,2.584,0,0,0,.941.259,2.262,2.262,0,0,1,1.763.9c1.505,2.191,1.943,3.132,3.493,5.525.255.394,1.493,2.854,1.753,3.256,1.056,1.629,2.352,2.8,3.617,4.644a7.524,7.524,0,0,0,.842.974c.093.1.188.194.281.293l.037-.923q.035-.868.07-1.736c-1.989-2.42-3.939-5.772-5.9-8.461s-1.21-1.229-1.94-2.294l-.16-.234c-.157-.229-.331-.467-.515-.719a11.938,11.938,0,0,1-1.533-2.508,3.169,3.169,0,0,1,.126-2.928c.607-1.035,1.985-1.308,2.969-1.424q.16-.018.318-.029a10.565,10.565,0,0,0-2.074-.239h-.129a10.133,10.133,0,0,0-5.912,2.187c-.236.165-.063.8.064,1.271a4.566,4.566,0,0,1,.169.792.719.719,0,0,1-.37.788l-.1.05c-.461.222-.937.451-1.418.661a.613.613,0,0,1-.247.052c-.422,0-.69-.416-.906-.75-.032-.05-.073-.113-.11-.167-.195.079-.41.155-.634.235a4.905,4.905,0,0,0-1.918.99c.2.286.321.26.748.846a14.014,14.014,0,0,1,.919,1.657c.094.147.189.46.25.583.112.226.1.223.276.342.147-.1.517-.528.906-.925.1-.1.166-.17.214-.212.027-.025.073-.062.166-.137.348-.282.589-.488.722-.616a2.035,2.035,0,0,1-.443-1.352.562.562,0,0,1,.267-.349l1.7-.963A.545.545,0,0,1,11.692,2410.672Z" transform="translate(-4.873 -2405.011)" fill="#242a39"/><path d="M1659.849,3941.344l-.156,3.853-.481,2.047-.613-.962.295-2.052.2-3.83Z" transform="translate(-1637.671 -3921.65)" fill="#242a39"/><path d="M1817.994,4296.2a2,2,0,0,0-1.6.771c-.068-.084-.127-.146-.173-.214q-4.6-6.921-9.19-13.843c-.107-.162-.2-.333-.3-.5s-.17-.341,0-.507a.43.43,0,0,1,.561-.044.882.882,0,0,1,.242.244c1.719,2.312,3.1,4.669,4.955,7.161,1.6,2.152,3.665,4.438,5.4,6.769C1817.913,4296.071,1817.938,4296.112,1817.994,4296.2Z" transform="translate(-1783.857 -4258.076)" fill="#242a39"/></g><path d="M.7,6.419c.01-.019.022-.072.023-.06l-.4-4.942C.318,1.053.591-.023.182,0c-.39.023-.036,2.9,0,3.267A9.927,9.927,0,0,0,.7,6.419Z" transform="translate(890.155 1195.772) rotate(-31)" fill="#242a39" fill-rule="evenodd"/><path d="M.065,2.163A5.045,5.045,0,0,0,.226,0,4.857,4.857,0,0,0,.065,2.163Z" transform="translate(894.539 1200.939) rotate(-31)" fill="#242a39" fill-rule="evenodd"/><path d="M.176,0C-.137.069.067.239.049.671c-.009.23-.1.515-.006.693C.078,1.3.349.271.176,0Z" transform="translate(886.515 1194.681) rotate(-30)" fill="#262626" fill-rule="evenodd"/><path d="M.177,0C-.137.069.066.239.049.671c-.009.23-.1.515-.006.693C.078,1.3.349.271.177,0Z" transform="translate(894.636 1204.98) rotate(4)" fill="#262626" fill-rule="evenodd"/><path d="M.081,0C-.064.032.032.111.023.312c0,.107-.047.24,0,.323C.038.606.164.125.081,0Z" transform="translate(894.432 1205.348) rotate(4)" fill="#262626" fill-rule="evenodd"/><path d="M0,3.123c.134-.224.32-.549.448-.787.134.157.047-.02.1.18a1.449,1.449,0,0,1-.012.172A7.359,7.359,0,0,1,1.673.65c.192-.2.442-.412.4-.563,0,0-.006-.247-.326.093A15.429,15.429,0,0,0,0,3.123Z" transform="matrix(0.848, 0.53, -0.53, 0.848, 882.983, 1185.068)" fill="#242a39" fill-rule="evenodd"/><path d="M0,.91C.035.843.081.75.113.681.146.727.122.675.14.733.14.739.134.782.134.782A2.244,2.244,0,0,1,.413.189C.463.129.524.069.509.026c0,0,0-.073-.079.026A4.786,4.786,0,0,0,0,.91Z" transform="translate(884.27 1187.194)" fill="#242a39" fill-rule="evenodd"/><g transform="translate(863.342 1211.789)"><path d="M.079.737A1.719,1.719,0,0,1,.025,0,1.655,1.655,0,0,1,.079.737Z" transform="translate(19.561 6.859) rotate(-31)" fill="#242a39" fill-rule="evenodd"/><g transform="translate(0 0)"><path d="M20.135,396.4a2.784,2.784,0,0,0-2.243-4.428s-3.569-.24-6.948-.24-6.57.24-6.57.24A2.781,2.781,0,0,0,2.132,396.4,3.979,3.979,0,0,0,0,399.917v.795a.8.8,0,0,0,.795.795s4.98.436,10.149.436,10.526-.436,10.526-.436a.8.8,0,0,0,.795-.795v-.795a3.979,3.979,0,0,0-2.129-3.52ZM3.15,393.9a1.355,1.355,0,0,1,1.118-.736,46.551,46.551,0,0,1,6.675-.547,56.855,56.855,0,0,1,7.095.547,1.661,1.661,0,0,1,1.247.736,2.425,2.425,0,0,1,.251,1.738,2.2,2.2,0,0,1-1.5.754l-13.77-.184c-.482,0-.933-.506-1.118-.951a1.5,1.5,0,0,1,0-1.358ZM1.1,399.917a2.487,2.487,0,0,1,1.385-1.977s3-.274,3.253-.408a11.455,11.455,0,0,0-2.259-.129s4.2-.214,7.777-.214,7.034.344,7.034.344a2.389,2.389,0,0,1,2.385,2.385s-4.964.475-9.736.475S1.1,399.917,1.1,399.917Z" transform="translate(0 -391.729)" fill="#242a39"/></g><path d="M.866,0C.878.024.892.088.895.074l-.5,6.1c0,.449.333,1.778-.172,1.749C-.257,7.9.18,4.34.219,3.89A12.254,12.254,0,0,1,.866,0Z" transform="matrix(0.174, 0.985, -0.985, 0.174, 11.849, 0.85)" fill="#242a39" fill-rule="evenodd"/><path d="M0,0S.675.023.37,3.759c0,.275.2,1.089-.105,1.071s-.028-2.195,0-2.47A10.128,10.128,0,0,0,0,0Z" transform="matrix(0.017, 1, -1, 0.017, 5.814, 6.363)" fill="#242a39" fill-rule="evenodd"/><path d="M.008.062c.058.41.689.1.386,3.831,0,.275.2,1.089-.105,1.071S.136,2.529.16,2.253A12.227,12.227,0,0,0,.008.062Z" transform="matrix(0.017, 1, -1, 0.017, 5.947, 6.021)" fill="#242a39" fill-rule="evenodd"/></g><g transform="translate(889.411 1177.262)"><line y1="3.253" x2="3.904" transform="translate(1.292 1.335) rotate(-20)" fill="none" stroke="#242a39" stroke-linecap="round" stroke-width="0.8"/><line y1="2.765" x2="0.976" transform="translate(0 1.113) rotate(-20)" fill="none" stroke="#242a39" stroke-linecap="round" stroke-width="0.8"/><path d="M0,.976,3.484,0" transform="translate(3.632 4.552) rotate(-20)" fill="none" stroke="#242a39" stroke-linecap="round" stroke-width="0.8"/></g></g></svg>