<svg xmlns="http://www.w3.org/2000/svg" width="42.2" height="46.276" viewBox="0 0 42.2 46.276">
  <g id="loanbidder-mob" transform="translate(-864.508 -1176.54)">
    <g id="hammer-440099" transform="translate(873.759 1183.896)">
      <path id="Path_1311" data-name="Path 1311" d="M385.068,2872.847l.271-1.382-9.215-13.415-.562-.48-.775-.234-.821-.2-1.044-.533-1.692.9-.03.364.437.906.5-.435.6-.334.867-.24.963.108.72.305.943,1.046,1.211,1.55,1.411,2,1.888,2.913,1.888,3.119Z" transform="translate(-366.934 -2851.417)" fill="#242a39"/>
      <path id="Path_1312" data-name="Path 1312" d="M861.73,2457.026l-.267.317-1.8-.641-.758-.108-.947.02-.781.215-.63.285-.558.546-.321.593.049.789.383.978.469.953-1.086-1.566-.28-1.081.288-1.256,1.093-.974,1.585-.344.994-.051,1.028.407Z" transform="translate(-845.72 -2454.836)" fill="#242a39"/>
      <path id="Path_1313" data-name="Path 1313" d="M247.9,2603.806l.765.909,1.343-.473.444-.487-.184-.733-.173-1.1.023-.221-.6.641-.429.511-.444.487-.378.254-.368.213Z" transform="translate(-244.962 -2599.263)" fill="#242a39"/>
      <path id="Path_1314" data-name="Path 1314" d="M1708.039,3999.11l5.22,5.967,1.684,2.151,2.336,3.427,1.326,2.283.97,1.9.729,1.135,1.083,1.153.46.684.15.633-.223.539-.573.539-1.044.841-.023.013-.992.561-.026.009-.966.349-.868-.169-.431-.5-.1-.547.03-.784-.092-.713-.119-.493-.821-1.321-.755-1.326-1.172-1.7-1.249-1.759-.972-1.3-1.244-1.648-1.184-1.712-1.078-1.6-.715-1.007.25-1.717Zm4.3,5.433-3.808-3.893-.26,2.451-.213,1.466a4.513,4.513,0,0,1,.213-.866c.076-.062.027.233,0,.539a6.768,6.768,0,0,1-.108.684,8.07,8.07,0,0,1,.255-.869c.027.028-.147.981-.147.981s.074-.324.136-.263,0,.481,0,.481l1.305,2.091,1.177,1.7,1.232,1.632.981,1.307,1.255,1.767,1.194,1.363.758,1.334.866,1.393.152.628.1.8-.029.764.058.3.17.2.474.093.772-.279.922-.521.993-.8.443-.418.09-.219s-1.693,1.578-1.744,1.437a14.538,14.538,0,0,1,1.669-1.751s-1.124,1.143-1.245,1.012.977-1.413.977-1.413-.607.712-.671.634.414-.948.414-.948l-.927-.987-.016-.025-.763-1.187-.007-.015-.973-1.906a31.3,31.3,0,0,0-1.728-3.189c-.9-1.41-2.311-3.39-2.311-3.39Z" transform="translate(-1689.049 -3982.376)" fill="#242a39"/>
      <path id="Path_1315" data-name="Path 1315" d="M2666.7,5529.6l.351,1.546.23.086.764-.547.046-.237-1.147-.84Z" transform="translate(-2637.706 -5495.621)" fill="#242a39"/>
      <path id="Path_1316" data-name="Path 1316" d="M23.587,2426.131l-.551-.8a6.542,6.542,0,0,0-.731-.846,7.151,7.151,0,0,1-.8-.927c-1.1-1.6-2.187-3.265-3.1-4.681l-.67-1.035c-1.34-2.07-2.606-4.026-3.9-5.917a1.366,1.366,0,0,0-1.089-.509,2.813,2.813,0,0,1-1.047-.305c-.05-.029-.118-.077-.2-.136a3.878,3.878,0,0,0-.676-.4l-1.335.755a2.874,2.874,0,0,0,.333.672c.04.066.068.115.088.153.14.278-.124.514-.356.722-.178.16-.392.333-.533.447-.05.041-.107.087-.12.1s-.088.086-.154.154c-.588.6-.9.867-1.177.867a.4.4,0,0,1-.185-.044,1.473,1.473,0,0,1-.689-.771,3.16,3.16,0,0,0-.162-.3c-.06-.1-.362-.5-.654-.9-.225-.3-.458-.618-.637-.865-.1-.135-.17-.236-.22-.31-.094-.138-.191-.28-.1-.461a3.68,3.68,0,0,1,2.116-1.311c.247-.088.481-.171.665-.254a.4.4,0,0,1,.161-.034c.264,0,.417.237.579.488a2.136,2.136,0,0,0,.249.339c.388-.171.777-.358,1.153-.539l.048-.023a2.877,2.877,0,0,0-.128-.635,4.4,4.4,0,0,1-.179-.9.965.965,0,0,1,.378-.9,9.376,9.376,0,0,1,5.493-2.011h.123a12.785,12.785,0,0,1,5.709,1.663l.275.138-.124.281a.556.556,0,0,1-.522.354,1.552,1.552,0,0,1-.771-.328,2.084,2.084,0,0,0-.256-.153,5.4,5.4,0,0,0-2.131-.469,5.231,5.231,0,0,0-.595.035c-.715.084-1.709.27-2.089.918-.776,1.321.265,2.744,1.184,4,.163.222.316.433.458.639l.139.2c2.151,3.14,4.375,6.386,6.836,9.37l.079.1-.005.124q-.033.814-.065,1.628t-.066,1.646Zm-12.805-16.215a2.33,2.33,0,0,1,1.071.522c.069.047.135.093.164.11a2.245,2.245,0,0,0,.815.224,1.958,1.958,0,0,1,1.528.782c1.3,1.9,1.684,2.714,3.026,4.788.221.341,1.293,2.473,1.519,2.821.915,1.412,2.038,2.427,3.134,4.024a6.519,6.519,0,0,0,.729.844c.081.084.162.168.244.254l.032-.8q.03-.752.06-1.5c-1.724-2.1-3.413-5-5.111-7.332s-1.049-1.065-1.681-1.988l-.139-.2c-.136-.2-.287-.4-.446-.623a10.338,10.338,0,0,1-1.328-2.173,2.746,2.746,0,0,1,.109-2.537,3.318,3.318,0,0,1,2.573-1.234c.092-.011.184-.019.276-.026a9.162,9.162,0,0,0-1.8-.207h-.112a8.78,8.78,0,0,0-5.123,1.895c-.2.143-.054.7.056,1.1a3.959,3.959,0,0,1,.147.686.623.623,0,0,1-.321.683l-.089.043c-.4.192-.812.391-1.229.573a.531.531,0,0,1-.214.045c-.366,0-.6-.36-.785-.649-.028-.043-.063-.1-.1-.145-.169.068-.355.135-.549.2a4.251,4.251,0,0,0-1.662.858c.174.248.278.226.648.733a12.128,12.128,0,0,1,.8,1.436c.081.128.164.4.217.505.1.2.091.193.239.3.127-.084.448-.458.785-.8.084-.085.144-.147.186-.184.024-.021.063-.053.144-.118.3-.244.511-.423.626-.534a1.764,1.764,0,0,1-.384-1.172.489.489,0,0,1,.232-.3l1.475-.834A.474.474,0,0,1,10.781,2409.916Z" transform="translate(-4.873 -2405.011)" fill="#242a39"/>
      <path id="Path_1317" data-name="Path 1317" d="M1659.683,3941.218l-.135,3.338-.417,1.774-.531-.834.255-1.778.171-3.318Z" transform="translate(-1640.465 -3924.153)" fill="#242a39"/>
      <path id="Path_1318" data-name="Path 1318" d="M1816.476,4294.271a1.733,1.733,0,0,0-1.384.668c-.059-.073-.11-.126-.15-.186q-3.983-6-7.963-12c-.093-.141-.177-.29-.263-.433s-.147-.3,0-.439a.373.373,0,0,1,.486-.039.761.761,0,0,1,.21.211c1.489,2,2.689,4.046,4.293,6.205,1.385,1.865,3.176,3.845,4.677,5.865C1816.406,4294.163,1816.428,4294.2,1816.476,4294.271Z" transform="translate(-1786.897 -4261.24)" fill="#242a39"/>
    </g>
    <path id="Path_1320" data-name="Path 1320" d="M.608,5.562c.009-.017.019-.062.02-.052L.279,1.228C.276.913.512-.02.158,0c-.338.02-.032,2.516,0,2.831A8.6,8.6,0,0,0,.608,5.562Z" transform="translate(887.741 1193.301) rotate(-31)" fill="#242a39" fill-rule="evenodd"/>
    <path id="Path_1321" data-name="Path 1321" d="M.056,1.874A4.372,4.372,0,0,0,.2,0,4.208,4.208,0,0,0,.056,1.874Z" transform="translate(891.54 1197.778) rotate(-31)" fill="#242a39" fill-rule="evenodd"/>
    <path id="Path_1322" data-name="Path 1322" d="M.152,0C-.119.06.058.207.043.581c-.008.2-.086.446-.005.6C.068,1.127.3.235.152,0Z" transform="translate(884.587 1192.356) rotate(-30)" fill="#262626" fill-rule="evenodd"/>
    <path id="Path_1323" data-name="Path 1323" d="M.153,0C-.119.06.058.207.042.581c-.008.2-.086.446-.005.6C.068,1.127.3.235.153,0Z" transform="translate(891.624 1201.28) rotate(4)" fill="#262626" fill-rule="evenodd"/>
    <path id="Path_1324" data-name="Path 1324" d="M.07,0C-.056.028.028.1.02.27c0,.093-.04.208,0,.28C.033.525.142.108.07,0Z" transform="translate(891.447 1201.598) rotate(4)" fill="#262626" fill-rule="evenodd"/>
    <path id="Path_1325" data-name="Path 1325" d="M0,2.706c.116-.194.277-.475.388-.682.116.136.04-.018.086.156a1.256,1.256,0,0,1-.01.149A6.377,6.377,0,0,1,1.45.563c.166-.177.383-.357.343-.488,0,0-.005-.214-.282.081A13.369,13.369,0,0,0,0,2.706Z" transform="matrix(0.848, 0.53, -0.53, 0.848, 881.527, 1184.026)" fill="#242a39" fill-rule="evenodd"/>
    <path id="Path_1326" data-name="Path 1326" d="M0,.789C.03.731.071.65.1.59.126.63.106.585.121.635.121.64.116.678.116.678A1.945,1.945,0,0,1,.358.164C.4.112.454.06.441.022c0,0,0-.063-.068.023A4.147,4.147,0,0,0,0,.789Z" transform="translate(882.642 1185.868)" fill="#242a39" fill-rule="evenodd"/>
    <g id="Group_3880" data-name="Group 3880" transform="translate(864.508 1207.18)">
      <path id="Path_1328" data-name="Path 1328" d="M.069.639A1.49,1.49,0,0,1,.021,0,1.434,1.434,0,0,1,.069.639Z" transform="translate(16.95 5.943) rotate(-31)" fill="#242a39" fill-rule="evenodd"/>
      <g id="Group_3793" data-name="Group 3793" transform="translate(0 0)">
        <path id="Path_1188" data-name="Path 1188" d="M17.447,395.774a2.412,2.412,0,0,0-1.944-3.837s-3.092-.208-6.021-.208-5.693.208-5.693.208a2.41,2.41,0,0,0-1.942,3.837A3.448,3.448,0,0,0,0,398.824v.689a.689.689,0,0,0,.689.689s4.315.378,8.794.378,9.12-.378,9.12-.378a.689.689,0,0,0,.689-.689v-.689a3.448,3.448,0,0,0-1.845-3.05ZM2.73,393.615a1.174,1.174,0,0,1,.969-.637,40.335,40.335,0,0,1,5.784-.474,49.263,49.263,0,0,1,6.148.474,1.439,1.439,0,0,1,1.081.637,2.1,2.1,0,0,1,.218,1.506,1.908,1.908,0,0,1-1.3.654L3.7,395.615c-.418,0-.808-.438-.969-.824a1.3,1.3,0,0,1,0-1.177Zm-1.773,5.21a2.155,2.155,0,0,1,1.2-1.713s2.6-.237,2.819-.354a9.926,9.926,0,0,0-1.958-.112s3.637-.186,6.739-.186,6.095.3,6.095.3a2.07,2.07,0,0,1,2.067,2.067s-4.3.411-8.436.411S.956,398.824.956,398.824Z" transform="translate(0 -391.729)" fill="#242a39"/>
      </g>
      <path id="Path_1327" data-name="Path 1327" d="M.75,0C.761.021.773.077.775.064L.344,5.35c0,.389.289,1.541-.149,1.516C-.223,6.841.156,3.76.19,3.371A10.618,10.618,0,0,1,.75,0Z" transform="matrix(0.174, 0.985, -0.985, 0.174, 10.267, 0.737)" fill="#242a39" fill-rule="evenodd"/>
      <path id="Path_1329" data-name="Path 1329" d="M0,0S.585.02.321,3.257C.319,3.5.5,4.2.23,4.186s-.024-1.9,0-2.14A8.776,8.776,0,0,0,0,0Z" transform="matrix(0.017, 1, -1, 0.017, 5.038, 5.514)" fill="#242a39" fill-rule="evenodd"/>
      <path id="Path_1330" data-name="Path 1330" d="M.007.054c.051.355.6.09.334,3.319,0,.238.177.943-.091.928S.118,2.191.139,1.953A10.6,10.6,0,0,0,.007.054Z" transform="matrix(0.017, 1, -1, 0.017, 5.154, 5.218)" fill="#242a39" fill-rule="evenodd"/>
    </g>
    <g id="Group_3881" data-name="Group 3881" transform="translate(887.097 1177.262)">
      <line id="Line_109" data-name="Line 109" y1="2.819" x2="3.383" transform="translate(1.12 1.157) rotate(-20)" fill="none" stroke="#242a39" stroke-linecap="round" stroke-width="0.8"/>
      <line id="Line_110" data-name="Line 110" y1="2.396" x2="0.846" transform="translate(0 0.965) rotate(-20)" fill="none" stroke="#242a39" stroke-linecap="round" stroke-width="0.8"/>
      <path id="Path_1299" data-name="Path 1299" d="M0,.846,3.019,0" transform="translate(3.147 3.944) rotate(-20)" fill="none" stroke="#242a39" stroke-linecap="round" stroke-width="0.8"/>
    </g>
  </g>
</svg>
