<svg xmlns="http://www.w3.org/2000/svg" width="33.643" height="43.859" viewBox="0 0 33.643 43.859">
  <g id="loaninfo-mob" transform="translate(-405.95 -1139.085)">
    <g id="Group_3803" data-name="Group 3803" transform="translate(425.154 1139.807)">
      <line id="Line_109" data-name="Line 109" y1="2.292" x2="2.75" transform="translate(0.911 0.941) rotate(-20)" fill="none" stroke="#242a39" stroke-linecap="round" stroke-width="0.8"/>
      <line id="Line_110" data-name="Line 110" y1="1.948" x2="0.688" transform="translate(0 0.784) rotate(-20)" fill="none" stroke="#242a39" stroke-linecap="round" stroke-width="0.8"/>
      <path id="Path_1299" data-name="Path 1299" d="M0,.688,2.454,0" transform="translate(2.558 3.207) rotate(-20)" fill="none" stroke="#242a39" stroke-linecap="round" stroke-width="0.8"/>
    </g>
    <g id="_2058104440" transform="translate(405.949 1144.307)">
      <path id="Path_714" data-name="Path 714" d="M18052.848,8593.176c-.523.762-.373-.123-.725.594.758.283,1.016-.621,2.191-.323.406.1-.072,0,.35.091a2.864,2.864,0,0,1,.512.095,6.232,6.232,0,0,1,2.033,2.309,5.273,5.273,0,0,1-.084,3.58,6.456,6.456,0,0,1-1.918,2.437c-.906-.291.166.031-.6-.473,0,0-5.9.859-5.646-3.067C18049.113,8596.069,18050.768,8593.344,18052.848,8593.176Zm1.365,30.638a3.642,3.642,0,0,1-2.375,5.894c.164-.62.375-.633.1-1.1-.473.251-.383.716-.271,1.039-3.369-.1-1.83-4.271.225-6.279l.668.159c.035.015.258.054.3.067.414.135-.066-.208.375.186-.51.271-2.709,1.823-2.727,2.521.479-.355.672-.534,1.1-.872.182-.143.4-.311.578-.453l.7-.433c-.023.032-.176.31-.189.329a7.761,7.761,0,0,1-1.1,1.449,5.939,5.939,0,0,0-1.158,1.833c.828-.342.045-.478,1.078-.741l-.547,1.1c.5-.09,1.557-1.757,1.826-2.152-.443-.762-1.289.5.363-1.3.666-.723.059-.769.557-1.086C18054.084,8623.729,18053.674,8623.9,18054.213,8623.813Zm-13.85.892a3.094,3.094,0,0,1-.154,4.354,2.942,2.942,0,0,1-1.375.355c-1.387.028-1.047-.412-1.047-.517-.012-.478.848-1.041.979-1.874a5.378,5.378,0,0,0-.512.665l-.459.627c-.02.021-.078.033-.1.085s-.059.058-.09.084c.123-1.744,1.6-2.353,1.775-2.979-1.285-.013-2.088,2.642-2.24,2.875a1,1,0,0,0-.078.1c-.021.021-.084.026-.1.084s-.064.064-.1.092a3.968,3.968,0,0,1,.621-2.74c.717-1.118,1.373-.743,2.434-.594C18040.2,8624.693,18039.8,8624.919,18040.363,8624.705Zm27.027,1.035a.779.779,0,0,0,.086.076l.172.11c.512.18-.057-.025.531.006,1.742.1.891,4.149-1.834,4.588-3.584.568-2.83-4.007-.35-4.833.1.388.014.1.137.354l.172.233c-.8.368-2.654,1.873-1.871,2.895.518-.813-.189-.917,1.252-2.01a3.716,3.716,0,0,1,1.033-.626C18067.574,8626.16,18066.973,8626.6,18067.391,8625.74Zm-.414-1.022c-.75.44-2.719.815-3.449,2.947-1.244,3.638,2.494,4.373,4.549,2.628,1.025-.87,2.072-2.932,1.117-4.237-.607-.84-.275-.75-.586-1.047-.324-.315-.436-.059-1.107-.439l.4-8.54a12.107,12.107,0,0,0-.123-2.767l.6-.452c.018-1.557-.148-.642-2.908-.537-1.367.054-2.91-.031-4.314-.018-2.51.018-5.693.646-8.3.219-.676-2.177.787-6.979.826-9.659a5.274,5.274,0,0,0,4.492-5.175c.115-2.9-3-6.273-6.3-4.665-2.73,1.329-4.6,5.879-2.887,7.761a5.436,5.436,0,0,0,3.3,1.473l-.184,5.1c-.086,1.782.209,2.889-.15,3.895-.186.524,0,.318-.045,1a13.787,13.787,0,0,0-1.873.1c-2.357.33-8.09.22-10.73.717l-1.182.194c-.922.207.031,1.286-.143,2.442-.145.917-.369.032-.172,1.026a6.269,6.269,0,0,1,.158,1.2c.066,1.784.086,3.886-.031,5.659-.705,1.041-2,1.707-2.018,3.722a2.831,2.831,0,0,0,.73,2.179c1.16,1.034,4.174,1.5,4.969-2.056.367-1.633-.26-3.468-1.93-3.081-.232-.737-.371-.543-1.016-.756.031-.808.168-1.319.225-2.126.059-.742-.113-1.557-.1-2.494a31.477,31.477,0,0,1,.053-4.909c1.115-.117,2.188.089,3.33-.1,4.279-.725,3.2-.227,6.463-.433a26.049,26.049,0,0,1,3.131-.213c.059.75.035,1.355.172,2.268a12.5,12.5,0,0,1,.051,2.493,23.952,23.952,0,0,0-.025,4.291l.307.355a1.6,1.6,0,0,0-.662.264c-.854.439-.465.079-.752.725-.213.484-.18.239-.49.7-.729,1.093-1.8,3.723-.975,4.989a3.141,3.141,0,0,0,3.625.775c2.293-1.286,3.541-4.4,1.781-6.5-.406-.477-.5-.341-1.006-.6l-.98-.685c-.053-.575.186-1.712.205-2.261.02-.5-.123-.33-.187-.866l-.143-3.566c.006-.813-.043-1.531.006-2.359,1.078-.148,2.434-.036,3.547-.076,1.164-.032,2.25-.194,3.416-.194,2.393.014,4.855.13,7.227.019a23.684,23.684,0,0,0,.25,2.9c.064,1,.02,1.99.01,2.984C18067.119,8620.847,18067.107,8622.825,18066.977,8624.718Z" transform="translate(-18035.926 -8592.56)" fill="#242a39" fill-rule="evenodd"/>
      <path id="Path_715" data-name="Path 715" d="M20903.979,8976.077c-.187-.3-.742-.925-1.123-.75-.49.22-.109-.02-.258.342.281.543.684.336.957,1,.252.62-.061,1,.246,1.511.361-.219.438-.393.443-1.021A1.909,1.909,0,0,0,20903.979,8976.077Z" transform="translate(-20884.072 -8972.824)" fill="#242a39" fill-rule="evenodd"/>
      <path id="Path_716" data-name="Path 716" d="M20354.424,9107.506c-1.143-.678-2.133,1.868-1.32,2.618.471-.453.125-.661.352-1.5C20353.76,9107.455,20354.076,9108.173,20354.424,9107.506Z" transform="translate(-20337.84 -9104.066)" fill="#242a39" fill-rule="evenodd"/>
      <path id="Path_717" data-name="Path 717" d="M22586.723,13930c-.494.077-.633.587-.939,1.1-.254.428-.6.924-.777,1.32A4.507,4.507,0,0,0,22586.723,13930Z" transform="translate(-22555.613 -13895.518)" fill="#242a39" fill-rule="evenodd"/>
      <path id="Path_718" data-name="Path 718" d="M21024.73,9446c-.336.065-.342-.039-.5.26-.168.316.006.426.1.582C21024.861,9446.661,21024.918,9446.53,21024.73,9446Z" transform="translate(-21004.848 -9440.484)" fill="#242a39" fill-rule="evenodd"/>
      <path id="Path_719" data-name="Path 719" d="M20588.244,9484.685c-.555-.414-.762.063-.488.51A.97.97,0,0,0,20588.244,9484.685Z" transform="translate(-20571.15 -9478.763)" fill="#242a39" fill-rule="evenodd"/>
    </g>
  </g>
</svg>
