<svg xmlns="http://www.w3.org/2000/svg" xmlns:xlink="http://www.w3.org/1999/xlink" width="61.957" height="62.621" viewBox="0 0 61.957 62.621"><defs><linearGradient id="a" x1="0.2" y1="0.152" x2="0.603" y2="1" gradientUnits="objectBoundingBox"><stop offset="0" stop-color="#9e8bff"/><stop offset="1" stop-color="#5775ff"/></linearGradient></defs><g transform="translate(-384.133 -1139.085)"><g transform="translate(384.133 1157.557)"><path d="M24.558,18.365c15.411-7.984,29.721-1.41,29.721,13.581A27.144,27.144,0,0,1,27.135,59.09C12.143,59.09.635,42.128-.009,31.946S9.147,26.349,24.558,18.365Z" transform="translate(0.039 -14.942)" opacity="0.1" fill="url(#a)"/></g><g transform="translate(427.343 1139.807)"><line y1="2.976" x2="3.571" transform="translate(1.182 1.221) rotate(-20)" fill="none" stroke="#242a39" stroke-linecap="round" stroke-width="0.8"/><line y1="2.529" x2="0.893" transform="translate(0 1.018) rotate(-20)" fill="none" stroke="#242a39" stroke-linecap="round" stroke-width="0.8"/><path d="M0,.893,3.187,0" transform="translate(3.322 4.164) rotate(-20)" fill="none" stroke="#242a39" stroke-linecap="round" stroke-width="0.8"/></g><g transform="translate(402.407 1145.65)"><path d="M18057.9,8593.357c-.682.991-.486-.158-.939.773.982.368,1.316-.806,2.842-.42.529.125-.092,0,.455.117a3.433,3.433,0,0,1,.662.125,8.039,8.039,0,0,1,2.643,3,6.86,6.86,0,0,1-.107,4.647,8.394,8.394,0,0,1-2.492,3.163c-1.176-.377.217.041-.773-.612,0,0-7.658,1.115-7.33-3.985C18053.047,8597.117,18055.2,8593.576,18057.9,8593.357Zm1.77,39.782a4.727,4.727,0,0,1-3.08,7.651c.211-.806.488-.822.127-1.435-.611.326-.5.931-.352,1.351-4.371-.127-2.375-5.545.293-8.154l.865.209c.049.018.336.067.393.085.539.176-.084-.27.488.242-.664.353-3.516,2.366-3.541,3.272.621-.461.873-.7,1.426-1.133.236-.186.521-.4.748-.588l.914-.562c-.027.043-.227.4-.244.429a10.146,10.146,0,0,1-1.426,1.88,7.756,7.756,0,0,0-1.5,2.382c1.074-.444.059-.62,1.4-.964l-.713,1.425c.645-.116,2.023-2.28,2.373-2.793-.576-.99-1.676.646.471-1.694.863-.939.076-1,.723-1.41C18059.5,8633.03,18058.969,8633.249,18059.666,8633.14Zm-17.979,1.157a4.019,4.019,0,0,1-.2,5.654,3.853,3.853,0,0,1-1.789.462c-1.8.034-1.359-.536-1.359-.671-.016-.621,1.1-1.352,1.27-2.434a7.07,7.07,0,0,0-.664.864l-.594.813c-.027.026-.1.043-.129.109s-.074.075-.117.109c.16-2.264,2.082-3.054,2.307-3.867-1.668-.016-2.711,3.431-2.91,3.732a1.557,1.557,0,0,0-.1.126c-.027.026-.111.033-.125.109s-.086.083-.135.118a5.168,5.168,0,0,1,.8-3.558c.932-1.452,1.787-.964,3.162-.771C18041.48,8634.281,18040.951,8634.574,18041.688,8634.3Zm35.092,1.343a1.054,1.054,0,0,0,.111.1l.225.143c.664.234-.074-.033.689.008,2.262.126,1.156,5.387-2.383,5.957-4.656.738-3.674-5.2-.455-6.275.135.5.02.134.178.461l.227.3c-1.041.479-3.449,2.433-2.432,3.758.67-1.057-.246-1.19,1.625-2.608a4.824,4.824,0,0,1,1.344-.813C18077.016,8636.186,18076.234,8636.756,18076.779,8635.64Zm-.537-1.325c-.973.57-3.531,1.057-4.48,3.826-1.615,4.723,3.24,5.678,5.906,3.412,1.334-1.131,2.693-3.808,1.451-5.5-.787-1.091-.357-.975-.762-1.359-.42-.41-.562-.076-1.436-.57l.52-11.09c.227-1.712-.115-2.022-.156-3.59l.779-.588c.023-2.022-.193-.832-3.777-.7-1.775.068-3.779-.041-5.6-.023-3.256.023-7.393.838-10.773.283-.879-2.826,1.025-9.06,1.074-12.541a6.846,6.846,0,0,0,5.832-6.72c.148-3.766-3.9-8.146-8.184-6.056-3.547,1.727-5.979,7.634-3.746,10.075a7.043,7.043,0,0,0,4.293,1.912l-.24,6.618c-.111,2.315.268,3.75-.2,5.059-.242.68,0,.412-.059,1.292a18.076,18.076,0,0,0-2.434.126c-3.061.429-10.5.285-13.934.932l-1.533.251c-1.2.27.041,1.671-.186,3.172-.186,1.19-.48.042-.227,1.333a8.087,8.087,0,0,1,.209,1.553c.084,2.316.111,5.043-.041,7.348-.916,1.352-2.592,2.216-2.619,4.832a3.664,3.664,0,0,0,.949,2.828c1.5,1.342,5.418,1.947,6.451-2.668.477-2.122-.336-4.5-2.508-4-.3-.957-.479-.7-1.316-.981.039-1.049.217-1.712.291-2.76.076-.965-.148-2.022-.133-3.238.033-2.071-.293-4.689.068-6.376,1.449-.151,2.844.116,4.328-.135,5.555-.94,4.158-.294,8.389-.562a34.007,34.007,0,0,1,4.066-.277c.076.974.045,1.762.221,2.944a15.866,15.866,0,0,1,.066,3.238c-.041.914-.326,5.017-.033,5.57l.4.462a2.081,2.081,0,0,0-.857.344c-1.107.57-.6.1-.973.939-.277.629-.236.311-.639.906-.949,1.418-2.34,4.833-1.268,6.477a4.077,4.077,0,0,0,4.707,1.007c2.979-1.669,4.6-5.714,2.316-8.432-.529-.62-.648-.444-1.309-.78l-1.275-.889c-.068-.747.242-2.223.268-2.937.025-.653-.158-.428-.242-1.124l-.186-4.631c.008-1.057-.059-1.988.008-3.062,1.4-.193,3.162-.049,4.605-.1,1.51-.041,2.92-.251,4.438-.251,3.1.018,6.3.168,9.379.025a31.53,31.53,0,0,0,.326,3.766c.086,1.293.027,2.585.012,3.877C18076.428,8629.289,18076.41,8631.855,18076.242,8634.314Z" transform="translate(-18035.924 -8592.559)" fill="#242a39" fill-rule="evenodd"/><path d="M20904.389,8976.309c-.24-.395-.961-1.2-1.459-.974-.635.285-.141-.024-.334.445.367.7.889.436,1.242,1.292.328.806-.076,1.3.32,1.963.469-.285.568-.512.574-1.326A2.466,2.466,0,0,0,20904.389,8976.309Z" transform="translate(-20878.543 -8972.085)" fill="#242a39" fill-rule="evenodd"/><path d="M20354.906,9107.539c-1.484-.88-2.77,2.425-1.715,3.4.609-.587.16-.856.457-1.945C20354.043,9107.473,20354.453,9108.4,20354.906,9107.539Z" transform="translate(-20333.371 -9103.073)" fill="#242a39" fill-rule="evenodd"/><path d="M22587.232,13930c-.645.1-.82.764-1.223,1.434-.328.555-.771,1.2-1.008,1.713C22585.717,13932.953,22587.258,13930.656,22587.232,13930Z" transform="translate(-22546.84 -13885.225)" fill="#242a39" fill-rule="evenodd"/><path d="M21024.9,9446c-.436.085-.441-.051-.652.336-.221.41.008.553.135.755C21025.07,9446.856,21025.143,9446.688,21024.9,9446Z" transform="translate(-20999.084 -9438.84)" fill="#242a39" fill-rule="evenodd"/><path d="M20588.428,9484.73c-.723-.536-.99.084-.637.663A1.271,1.271,0,0,0,20588.428,9484.73Z" transform="translate(-20566.229 -9477.043)" fill="#242a39" fill-rule="evenodd"/></g></g></svg>