<svg xmlns="http://www.w3.org/2000/svg" xmlns:xlink="http://www.w3.org/1999/xlink" width="58.63" height="62.231" viewBox="0 0 58.63 62.231"><defs><linearGradient id="a" x1="0.2" y1="0.152" x2="0.603" y2="1" gradientUnits="objectBoundingBox"><stop offset="0" stop-color="#9e8bff"/><stop offset="1" stop-color="#5775ff"/></linearGradient></defs><g transform="translate(-384.133 -1136.987)"><g transform="translate(384.133 1156.49)"><path d="M23.767,18.255C38.682,10.528,52.531,16.89,52.531,31.4A26.271,26.271,0,0,1,26.26,57.67C11.751,57.67.613,41.253-.01,31.4S8.851,25.982,23.767,18.255Z" transform="translate(0.039 -14.942)" opacity="0.1" fill="url(#a)"/></g><g transform="translate(435.722 1143.538)"><line y1="2.88" x2="3.456" transform="translate(1.144 1.182) rotate(-20)" fill="none" stroke="#242a39" stroke-linecap="round" stroke-width="0.8"/><line y1="2.448" x2="0.864" transform="translate(0 0.986) rotate(-20)" fill="none" stroke="#242a39" stroke-linecap="round" stroke-width="0.8"/><path d="M0,.864,3.084,0" transform="translate(3.215 4.03) rotate(-20)" fill="none" stroke="#242a39" stroke-linecap="round" stroke-width="0.8"/></g><path d="M108.363,160.448l.132.043.162-.543-.091-.028Zm15.9-25.558a.876.876,0,0,0-.716-.611.619.619,0,0,1-.322-.22.853.853,0,0,0-.842-.31c-.09.015-.181.027-.307.045,0-.18,0-.335,0-.49a7.76,7.76,0,0,0-.588-3.085,1.965,1.965,0,0,0-.353-.549.545.545,0,0,0-.652-.125.5.5,0,0,0-.305.533c.051,1.179.087,2.359.157,3.538a14.121,14.121,0,0,1-.053,1.794c-.684.1-.8.567-.862,1.1s-.167,1.088-.248,1.632a1.232,1.232,0,0,0,.376,1.339,15.778,15.778,0,0,0-1.185,1.357c-.647.929-1.235,1.9-1.85,2.852-.072.111-.156.215-.231.317a8.434,8.434,0,0,1-1.846-2.487c-.456-.95-.875-1.918-1.291-2.887a.628.628,0,0,0-.37-.4.916.916,0,0,1-.678-.7,3.3,3.3,0,0,1-.127-.483,3.109,3.109,0,0,0-.329-1.375c.737-2.512,1.282-5,.382-7.58.177-.059.311-.1.443-.144a8.362,8.362,0,0,0,4.133-3.565c.224-.566.06-.917-.529-1.069a15.007,15.007,0,0,0-2.244.135,11.714,11.714,0,0,1-2.911.072.5.5,0,0,1-.466-.381,7.422,7.422,0,0,0-1.148-2.157c-.229-.3-.457-.6-.688-.9a2.9,2.9,0,0,0,.208-2.969.131.131,0,0,0-.223,0l-.261.362a2.877,2.877,0,0,0-.807-1.156,1.3,1.3,0,0,0-1.022-.267c-.107.015-.11.151-.057.216a1.405,1.405,0,0,1,.335.64,1.445,1.445,0,0,1,.028.388c-.455-.438-.761-.512-1.13-.256a.843.843,0,0,0-.147,0c-.164.016-.165.274,0,.258q.4.485,0,.824a.833.833,0,0,1-.44.229c-.007,0-.015,0-.022-.008a2.178,2.178,0,0,0-.894-.245,1.779,1.779,0,0,0-.246-.085,1.673,1.673,0,0,0-.87.014,1.779,1.779,0,0,0-1.019.772,1.238,1.238,0,0,0-.1.152.929.929,0,0,0-.11.328c-.007.027-.018.053-.024.08a.121.121,0,0,0,.039.122.589.589,0,0,0,.141.248,2.938,2.938,0,0,0-.345,0c-.043,0-.09.006-.14.008a.634.634,0,0,0-.535.02c-.24.123-.238.367-.4.521l-.052.031c-.092.034-.275.056-.341.088a1.264,1.264,0,0,0-.42.337,1.238,1.238,0,0,0-.269.927,1.687,1.687,0,0,0,.473.924q.087.072.176.14.272.186.151.416c.024.068,0,.158.032.233.048.115.164.177.252.253a3.354,3.354,0,0,1,.744.7,3.008,3.008,0,0,1,.463,1.748,4.472,4.472,0,0,0-.42-.171.938.938,0,0,0-1.332.781,1.982,1.982,0,0,0,.1,1.114,1.065,1.065,0,0,0,1.247.84,6.076,6.076,0,0,0,.7-.1l.562,7.338a1.885,1.885,0,0,0-.528,1.838c-.1.015-.157.03-.218.033a1.147,1.147,0,0,0-1.075.847,4.608,4.608,0,0,0-.175.538c-.095.43-.152.869-.261,1.295-.371,1.447-.761,2.889-1.134,4.335a2.156,2.156,0,0,0-.014.488l.244.433c-.388-.023-.266-.252-.244-.434-.481-.072-.963-.138-1.443-.216a1.613,1.613,0,0,1-.453-.122,20.623,20.623,0,0,1-2.492-1.087,1.357,1.357,0,0,0,.7.674c.286.13.556.294.843.42a5.086,5.086,0,0,0,1.786.568,1,1,0,0,1,1.01.85.3.3,0,0,0,.379.253c.2-.037.384-.118.36-.358a1.994,1.994,0,0,0-.165-.868.9.9,0,0,1-.052-.838c.332-1.246.67-2.491.972-3.744.176-.731.288-1.478.423-2.187l.99-.2c.136.933.072,1.85.24,2.716.4.178.837.074,1.166.369-.1.372-.182.742-.311,1.094a.751.751,0,0,0,.308,1.049,1.089,1.089,0,0,1,.271.262c.827,1.009,1.977,1.653,2.889,2.565.111.111.248.158.375.034s.061-.271-.049-.369a4.877,4.877,0,0,0-.768-.622,13.777,13.777,0,0,1-2.791-2.388c.135-.423.276-.838.4-1.26a1.918,1.918,0,0,0,.121-1.371l-.334.516-1-.2-.212-2.9.1-.038c.165.222.328.445.5.666.647.853,1.265,1.73,1.954,2.548a13.527,13.527,0,0,1,1.6,2.153,8.455,8.455,0,0,0,.531.837,15.345,15.345,0,0,1,2.068,3.745.786.786,0,0,1,.017.359c-.105.747-.235,1.492-.322,2.241a.56.56,0,0,1-.344.5,7.62,7.62,0,0,0-2.227,1.652,4.386,4.386,0,0,0-.4.4,1.187,1.187,0,0,1-1.395.379c-.707-.156-1.414-.312-2.12-.473-.226-.051-.448-.118-.694-.184.282-1.2.564-2.363.82-3.529a3.644,3.644,0,0,0,.106-1.068c-.114-1.348-.267-2.693-.41-4.039-.015-.14-.066-.275-.094-.414-.088-.43-.177-.86-.259-1.292-.034-.181-.053-.364-.079-.548-.278.059-.369.2-.343.44a5.038,5.038,0,0,1,.039.613,2.878,2.878,0,0,1-.057.6c-.189.826-.4,1.647-.586,2.475-.127.579-.216,1.166-.328,1.786-1.916-.32-3.833-.406-5.542-1.392a3.258,3.258,0,0,0,.243-.524,5,5,0,0,0,.153-.875.447.447,0,0,0-.172-.271c-.246.1-.2-.2-.343-.268-.048.1-.08.168-.117.236s-.089.148-.156.257c-.177-1.108-1.171-1.835-1.989-1.492.3.116.591.216.874.345a1.021,1.021,0,0,1,.6.9.644.644,0,0,1-.881.658c-.137-.075-.275-.15-.406-.235-.092-.06-.166-.146-.258-.206-.152-.1-.325-.169-.464,0s-.031.337.113.443a3,3,0,0,0,.642.394,1.206,1.206,0,0,0,1.367-.186,1.5,1.5,0,0,1,.2-.128,4.2,4.2,0,0,1-.079.431c-.077.253,0,.393.242.524.4.214.765.491,1.15.734a2.43,2.43,0,0,0,.572.316,14.883,14.883,0,0,0,1.465.357q1.229.231,2.467.411c.522.077.706-.057.794-.551.116-.65.2-1.306.316-1.957.085-.48.195-.955.293-1.432a.645.645,0,0,1,.183.369c.136,1.236.269,2.471.391,3.708a1.581,1.581,0,0,1-.061.461c-.106.507-.229,1.011-.325,1.52-.145.771-.271,1.545-.4,2.3l-.352.069a10.268,10.268,0,0,0,2.846,1.04.109.109,0,0,0,.063.115c.225.116.226.966.248,1.14q.047.37.089.741.09.8.153,1.609c.027.34.048.68.068,1.02.025.8.03,1.608.039,2.412,0,.24.036.432.186.512-.037.325-.082.6-.095.872-.032.708-.052,1.416-.071,2.124a2.238,2.238,0,0,1-1,1.786,3.548,3.548,0,0,0-.549.51c-.334.389-.325.481-.058.914.2.331.392.672.571.981a.721.721,0,0,1-.078.132,14.415,14.415,0,0,1-4.86,2.933c-.157.054-.37.081-.372.3s.2.253.356.329a.389.389,0,0,0,.088.035,7.961,7.961,0,0,0,2.991.231,10.991,10.991,0,0,0,1.426-.322,3.71,3.71,0,0,0,1.5-.762,3.231,3.231,0,0,1,.571-.334.662.662,0,0,0,.7.375,1.433,1.433,0,0,1,.758.1,1.274,1.274,0,0,0,1.7-.169,10.319,10.319,0,0,0,5.341,1.3,1.981,1.981,0,0,0,.646-.1c.271-.1.3-.3.108-.515a1.22,1.22,0,0,0-.353-.312,18.041,18.041,0,0,1-3.852-3.339,1.37,1.37,0,0,0,.191-1.473c-.161-.409-.361-.8-.527-1.211a5.859,5.859,0,0,1-.415-1.147,12.146,12.146,0,0,1-.173-1.832,22.707,22.707,0,0,1,.31-4.8c.174-.911.39-1.815.571-2.725.127-.641.225-1.287.328-1.883a1.79,1.79,0,0,0,.517.085c.356-.058.705-.157,1.056-.246a.617.617,0,0,0,.481-.74c-.033-.217-.064-.436-.079-.655-.093-1.351-.217-2.7-.258-4.053-.03-1.02.028-2.045.09-3.066a8.132,8.132,0,0,1,.263-1.218,1.208,1.208,0,0,1,.159.144,2.953,2.953,0,0,1,.224.361,11.325,11.325,0,0,0,3.141,3.472.25.25,0,0,0,.379,0c.39-.406.811-.788,1.158-1.228a39.241,39.241,0,0,0,3.2-4.382c.142-.243.342-.466.19-.781a.163.163,0,0,1,.014-.135,4.315,4.315,0,0,1,.722-1.122,1.135,1.135,0,0,0,1.649-.2,2.175,2.175,0,0,0,.536-1.428,6.21,6.21,0,0,1,.006-.661,1.085,1.085,0,0,1,.151-.471A2.1,2.1,0,0,0,124.26,134.89ZM94.931,145.138l-.181,1.067C94.6,145.907,94.642,145.672,94.931,145.138Zm27.172-10.9a.456.456,0,0,1,.306-.239.509.509,0,0,1,.569.247,1.736,1.736,0,0,1,.221.615,4.881,4.881,0,0,1-.018.964.873.873,0,0,0-1.248-.628A8.28,8.28,0,0,1,122.1,134.242Zm-1-4.064a6.479,6.479,0,0,1,.309.839,8.169,8.169,0,0,1,.218,3.548c-.029.2-.042.4-.068.66l-.962.14a24.146,24.146,0,0,0-.043-5.469C120.888,129.779,121.013,129.98,121.1,130.178Zm-19.1-2.9a1.736,1.736,0,0,0-.336-.268,3.566,3.566,0,0,0-.74-.253.258.258,0,0,0-.323.258c0,.18.135.244.288.237.5-.026.757.3,1.006.652a.745.745,0,0,1-1.322-.275,1.8,1.8,0,0,1-.081-.6c.013-.641.3-.83.918-.637C101.912,126.551,102.041,126.733,102,127.279Zm.148-1.528c-.028-.254-.15-.518.1-.746.045-.041.013-.18,0-.272a3.054,3.054,0,0,1,.292-2.015.671.671,0,0,0,.044-.718c-.041-.069.031-.2.037-.3a.872.872,0,0,0,0-.406c-.128-.254-.371-.427-.349-.784.015-.231-.341-.22-.618.045l.764.9c-.12.264-.282.514-.047.791.039.046.005.191-.038.265a3.673,3.673,0,0,0-.387,1.447c0,.026-.032.049-.092.136a2.851,2.851,0,0,0-.376-.7,2.928,2.928,0,0,0-.694-.4,2.091,2.091,0,0,1,.055-.23c.09-.246-.02-.382-.236-.484a.864.864,0,0,1-.39-1.033.653.653,0,0,1,.709-.491c.341-.007.344-.007.319-.386a.323.323,0,0,1,0-.039l.492-.181.043.006a.1.1,0,0,0,.062.009l.111.017c.014-.17.024-.3.036-.435l.187.247a1.126,1.126,0,0,1,.766-1.427,1.659,1.659,0,0,1,.964-.126c.249.048.5.068.747.117a1.659,1.659,0,0,0,.166.041c.061.017.123.032.184.055a1.028,1.028,0,0,0,1.308-.75,3.712,3.712,0,0,0-.074-.625c.375.09.312.627.7.739a1.588,1.588,0,0,0,.044-1.644,1.027,1.027,0,0,1,.435.173,2.036,2.036,0,0,1,.487.676,6.553,6.553,0,0,1,.278.788l.5-.318a1.968,1.968,0,0,1-.361,1.932,1.139,1.139,0,0,0-1.024-.368c.258.3.455.575.695.8a7.849,7.849,0,0,1,2.117,3.328,2.209,2.209,0,0,1-.294,0,1.636,1.636,0,0,1-.254-.083c-.01-.227-.037-.519-.328-.514-.189,0-.375.177-.586.286a1.277,1.277,0,0,0,.685.476,10.112,10.112,0,0,0,5.3.258c1.739-.31,1.7.112,1.356.677a8.249,8.249,0,0,1-5.273,3.4,2.285,2.285,0,0,1-1.405-.345c-.183-.1-.288-.342-.439-.533l.414-.33a.337.337,0,0,0-.485-.163.385.385,0,0,0-.264.448c.08.434.414,1.422,2.159,1.38l.143,1.616a5.523,5.523,0,0,1-5.959-.795l.333-.355c-.256-.255-.368-.274-.669-.133a1.044,1.044,0,0,0-.721,1.069l.564-.265a11.417,11.417,0,0,1,.359,1.122,11.392,11.392,0,0,0,1.064,2.863,2.173,2.173,0,0,0,1.487,1.142c.351.084.706.157,1.063.216a2.411,2.411,0,0,0,1.568-.3,3.215,3.215,0,0,1-.3.933c-.054.134-.2.306.012.4.193.088.288-.1.337-.243a7.725,7.725,0,0,0,.319-1.082.625.625,0,0,0-.2-.577,1.573,1.573,0,0,1-.241-.769,2.648,2.648,0,0,1-.007-.519c.065-.064.083-.1.109-.106a.914.914,0,0,0,.662-1.012c0-.313,0-.625,0-.975-.014.013,0-.015.031-.028.668-.316.655-.315.522-1.033a5.161,5.161,0,0,1-.065-.983c0-.239.144-.375.441-.323a12.386,12.386,0,0,1,.382,2.388,13.89,13.89,0,0,1-.481,3.778,4.918,4.918,0,0,1-.809,1.79c-.565.8-1.084,1.623-1.622,2.437-.035.053-.066.107-.1.159-.23.328-.317.321-.537,0s-.434-.615-.671-.907a.883.883,0,0,0-.338-.229c-.591-.25-1.191-.479-1.78-.736-.272-.118-.515-.3-.785-.423-.427-.194-.866-.361-1.3-.544-.114-.048-.223-.109-.325-.159-.14-1.474-.269-2.931-.42-4.385C102.569,129.5,102.355,127.628,102.151,125.752Zm7.332,8.129c.1.235.055.379-.171.4a5.593,5.593,0,0,1-.972.017,8.218,8.218,0,0,1-1.011-.2,2.3,2.3,0,0,1-.324-.124A9.855,9.855,0,0,0,109.483,133.88Zm-2.887-.362a1.061,1.061,0,0,1,1.715.094A4.172,4.172,0,0,1,106.6,133.519Zm2.056-1.132c-.389.043-.786.019-1.179.032a6.815,6.815,0,0,1-1.857-.495c-.079-.02-.152-.152-.187-.247a5.894,5.894,0,0,1-.287-.9,2.6,2.6,0,0,0-.522-1.2.336.336,0,0,1-.04-.312.82.82,0,0,1,.181.154,2.3,2.3,0,0,0,.86.71,6.072,6.072,0,0,0,2.5.764,9.611,9.611,0,0,0,1.639-.109c.109-.009.216-.03.35-.05a1.7,1.7,0,0,1,.031,1.15.453.453,0,0,1-.294.256A8.6,8.6,0,0,1,108.651,132.387Zm-1.759,6.771.349.39C106.8,139.491,106.784,139.479,106.893,139.159Zm-.01.86c-.233-.059-.4-.077-.29-.379Zm.194-1.16.451-.54c.442.442.491.585.307.9Zm.781,1.2c.031-.068.072-.163.13-.183a2.685,2.685,0,0,1,1.495-.3.681.681,0,0,1,.136.034,1.244,1.244,0,0,1,.284,1.509.4.4,0,0,1-.454.138,1.435,1.435,0,0,0-1.337.244l-.667-.5C107.583,140.678,107.716,140.366,107.856,140.056Zm2.022-1.185c-.14.257-.317.257-.607.147l.75-.957c.223,0,.236.163.272.3A3.5,3.5,0,0,0,109.878,138.871Zm.608-.005c.224.5.224.5-.158.778l-.284-.389Zm-.4,2.636a1.106,1.106,0,0,0,.426-1.122c-.018-.221,0-.406.272-.465a1.544,1.544,0,0,1-.069,1.218,7.32,7.32,0,0,0-.341,1.019,2.187,2.187,0,0,1-.3.635q-.1-.4-.2-.8A.443.443,0,0,1,110.09,141.5Zm.256-3.906a3.22,3.22,0,0,1,1.107-1.174,6.937,6.937,0,0,1-.277,3.186A3.042,3.042,0,0,0,110.346,137.6Zm-5.737,2.5a13.5,13.5,0,0,1-.8-1.158c-.391-.569-.787-1.135-1.176-1.706a.679.679,0,0,1,.1-.841c.164-.191.316-.223.63-.071.718.346,1.424.717,2.142,1.061.52.249,1.053.471,1.59.709l-1.751,2.749C105,140.7,104.833,140.354,104.609,140.093Zm3.059,4.226-2.141-3.132.727-1.026.856.611c-.083.281.057.469.307.633a1.6,1.6,0,0,1,.623.55c.091.207-.034.512-.074.772A6.09,6.09,0,0,1,107.668,144.318ZM108.823,146c-.286-.407-.513-.707-.71-1.025a.653.653,0,0,1-.076-.394c.1-.84.215-1.677.327-2.515.038-.283.135-.391.413-.422a1.864,1.864,0,0,1,.515.013.332.332,0,0,1,.3.314c.061.529.143,1.055.2,1.583a.839.839,0,0,1-.024.416C109.478,144.623,109.166,145.268,108.823,146Zm-2.591,24.817-.437.04c-.415-.52-.631-.569-1.207-.277a1.822,1.822,0,0,0-.4.253,3.725,3.725,0,0,1-1.785.8,16.394,16.394,0,0,1-3.171.144.383.383,0,0,1-.123-.061c-.01-.006-.014-.025-.018-.034.6-.313,1.186-.634,1.786-.937a12.557,12.557,0,0,0,2.262-1.608c.134-.11.256-.233.389-.344a.847.847,0,0,1,.763-.225c.661.129,1.333.2,2,.294a1.807,1.807,0,0,1,.237.077Zm4-17.89c-.392,1.668-.786,3.336-1.144,5.012a19.9,19.9,0,0,0-.327,4.653c.017.706.111,1.412.2,2.115a6.547,6.547,0,0,0,.684,1.852,3.2,3.2,0,0,1,.237.663.565.565,0,0,1-.548.756,8.215,8.215,0,0,1-.942.046,1.134,1.134,0,0,0-.881.478.345.345,0,0,0-.018.331.332.332,0,0,0,.32.061c.456-.407,1.01-.269,1.531-.309.218-.017.436-.029.691-.045a20.008,20.008,0,0,0,3.732,3.45,10.691,10.691,0,0,1-3.709-.466,5.674,5.674,0,0,1-1.706-.888c-.331-.287-.576-.184-.659.243-.018.092-.027.185-.048.334l-.8.061c0-.2-.007-.355,0-.508.024-.409.052-.817.083-1.225a3.118,3.118,0,0,1,.152-.672,3.853,3.853,0,0,0,.045-1.066,3.37,3.37,0,0,1-.007-.693,9.944,9.944,0,0,0,.155-2.583c-.025-.644,0-1.29,0-1.935-.009-1.432-.026-2.864-.035-4.3,0-.457-.013-.914.014-1.37.053-.877.131-1.753.2-2.7a3.945,3.945,0,0,0,.566-.007,1,1,0,0,0,.3-.163c-.068-.073-.133-.15-.206-.217a1.282,1.282,0,0,0-.178-.112,2.889,2.889,0,0,0,.363-.265c.059-.058.125-.194.1-.235a.377.377,0,0,0-.257-.153,1.393,1.393,0,0,0-1.023.676.427.427,0,0,0-.031.135c-.015.467,0,.937-.045,1.4a26.538,26.538,0,0,0-.127,3.484c.048,1.164.013,2.331,0,3.5-.016,1.354-.047,2.707-.077,4.061a1.828,1.828,0,0,1-.062.417,2.05,2.05,0,0,0-.039,1.206,2.149,2.149,0,0,1,.009.606c-.42-.095-.808-.2-1.2-.266a11.386,11.386,0,0,0-1.171-.133,1.967,1.967,0,0,0-.477.093l-.789-1.284a5.252,5.252,0,0,1,.594-.575,2.719,2.719,0,0,0,1.244-2.265c.014-.724.025-1.448.05-2.171a1.073,1.073,0,0,1,.115-.389,3.51,3.51,0,0,1,.229-.374l.437.043c.044-.246-.134-.312-.242-.268-.287.117-.469-.029-.691-.188a55.821,55.821,0,0,0-.428-6.849c.3,0,.56.01.823,0,.365-.018.4-.065.525-.443a.478.478,0,0,1,.169-.2c.422-.329.855-.643,1.271-.978a7.191,7.191,0,0,1,1.829-1.085,4.973,4.973,0,0,1,1.1,1.085A.663.663,0,0,1,110.235,152.925Zm2.172-10.55c-.042.06-.114.114-.128.18-.149.722-.312,1.443-.422,2.171a11.334,11.334,0,0,0-.17,1.875c.024,1.432.1,2.863.176,4.293.016.312.1.621.143.933.026.184.036.37.055.574l-1.085.393a2.658,2.658,0,0,0-1.032-1.47c-.114-.107-.258-.18-.383-.276a.681.681,0,0,1-.3-.8c.147-.545.21-1.112.317-1.669a1.386,1.386,0,0,1,.138-.441.532.532,0,0,0,0-.54c-.137-.28-.315-.54-.443-.823a.606.606,0,0,1-.041-.436c.286-.645.61-1.273.906-1.913.1-.225.159-.472.244-.707a9.8,9.8,0,0,0,.6-2.793.753.753,0,0,0,.508-.639c.114-.554.251-1.1.379-1.654.025-.106.052-.211.082-.333a5.715,5.715,0,0,1,.61,2.846,1.486,1.486,0,0,0-1.276.216l.594.807a20.085,20.085,0,0,0-2.089,4.207.382.382,0,0,0,.054.309,2.258,2.258,0,0,0,.182-.269c.372-.763.726-1.536,1.115-2.291a9.466,9.466,0,0,1,.583-.849,3.505,3.505,0,0,0,.186-.37,3.917,3.917,0,0,1,.262-.492c.032-.046.152-.03.235-.039Zm0-.009-.537-.854c.243-.1.243-.1.719.018Zm7.514-.03c-.7.952-1.415,1.887-2.15,2.809-.479.6-1,1.167-1.511,1.757a8.193,8.193,0,0,1-2.976-2.9,2.117,2.117,0,0,0-.235-.407,1.226,1.226,0,0,1-.273-1.333,5.8,5.8,0,0,0-.139-3.136c-.03-.121-.064-.241-.1-.388l.315-.031c.09.287.179.568.265.849a12.2,12.2,0,0,0,1.744,3.539c.227.318.5.6.758.9.2.233.374.469.21.8a.3.3,0,0,0-.018.092c-.025.18-.032.368.187.422.194.048.267-.109.335-.261a.741.741,0,0,0,.033-.794,24.5,24.5,0,0,0,2.459-3.141c.178-.219.33-.459.5-.686.214-.287.312-.29.536-.018.209.255.415.512.672.829A9.18,9.18,0,0,1,119.923,142.336Zm.65-1.818c-.481-.39-.507-.452-.342-.875l.778.105Zm2.476-1.252a.928.928,0,0,1-1.2.195c.12-.215.25-.425.357-.646a1.088,1.088,0,0,0,.112-.4.262.262,0,0,0-.143-.208.259.259,0,0,0-.222.11c-.105.192-.178.4-.266.6a1.091,1.091,0,0,1-1.649.318,2.7,2.7,0,0,0-.23-.164.366.366,0,0,1-.2-.388c.085-.813.151-1.629.243-2.442a.6.6,0,0,1,.591-.546c.594-.049,1.188-.1,1.783-.145.375-.029.476.061.513.436.068.688-.226.989-.932.962-.236-.009-.472-.018-.707-.012-.194.005-.35.1-.335.312s.2.277.38.257a6.621,6.621,0,0,0,1.071-.159,1.26,1.26,0,0,1,.949.024,1.124,1.124,0,0,0,.311.045A2.2,2.2,0,0,1,123.048,139.265Zm.423-2.43a7.254,7.254,0,0,0,0-2.259c.327.1.474.292.535.817A1.377,1.377,0,0,1,123.472,136.836Zm-27.632,9.4c.01-.079-.114-.176-.243-.354-.1.193-.19.292-.184.385,0,.072.154.206.2.191C95.7,146.419,95.829,146.318,95.84,146.231Zm12.469,3.877c.178.08.3-.07.326-.235a1.435,1.435,0,0,0,0-.487c-.007-.043-.2-.111-.228-.083a4.024,4.024,0,0,0-.37.446C108.14,149.892,108.2,150.058,108.309,150.108Zm.467-1.768c.083-.164.2-.339.074-.519a.325.325,0,0,0-.274-.106c-.222.054-.3.246-.349.527.039.065.08.22.178.275C108.569,148.61,108.7,148.49,108.776,148.34Zm10.813-7.4a.362.362,0,0,0-.18.437c.031.1.135.243.219.253.325.039.3-.284.445-.456C119.933,140.96,119.8,140.821,119.589,140.943Zm-10.158-18.6a.367.367,0,0,0-.056-.321,1,1,0,0,0-1-.227c-.132.049-.27.093-.259.278.368.122.7.243,1.038.336C109.238,122.437,109.418,122.394,109.431,122.346ZM92.415,142.928l.075-.113a1.147,1.147,0,0,1-.178-.07,9.87,9.87,0,0,1-1.668-1.453,1.1,1.1,0,0,1-.325-1.053c.15.086.261.14.362.209.765.525,1.533,1.045,2.289,1.582a2.7,2.7,0,0,1,1.333,1.522.132.132,0,0,0,.044.081c.063.036.142.1.2.081s.136-.115.127-.163a1.538,1.538,0,0,0-.184-.621,4.92,4.92,0,0,0-.841-.883,11.31,11.31,0,0,0-1.333-.89.8.8,0,0,1-.416-.849,3.621,3.621,0,0,0-.3-1.936.832.832,0,0,0-.158-.172,2.511,2.511,0,0,0-.752,1.74c-.1-.029-.143-.043-.188-.054-.5-.12-.632-.008-.607.506.009.186.033.372.053.6a2.261,2.261,0,0,1-.256-.077c-.358-.163-.71-.339-1.072-.491a1.353,1.353,0,0,0-.454-.095.268.268,0,0,0-.306.286,2.329,2.329,0,0,0,.292,1.445c.3.4.581.82.893,1.213A2.636,2.636,0,0,0,90.2,144a5.972,5.972,0,0,1-1.988-2.76.683.683,0,0,1,.367.157c.274.259.533.535.8.8a4.11,4.11,0,0,0,.441.424c.061.045.188,0,.284,0-.025-.083-.025-.19-.079-.245-.285-.293-.58-.576-.877-.858a1.673,1.673,0,0,0-1.081-.649c-.012-.176,0-.3.181-.3a.578.578,0,0,1,.216.085,9.153,9.153,0,0,0,2.011,1.014c.065.015.114.1.169.154a10.515,10.515,0,0,0-.351,2.7c-.012.562.125.705.664.859.413.118.7-.014.776-.438.1-.507.129-1.027.185-1.542.018-.167.022-.336.033-.518Zm-1.355-3.775c.029-.149.091-.263.272-.268a.238.238,0,0,1,.27.257c.01.479,0,.959,0,1.532l-.723-.56C90.946,139.766,91,139.459,91.059,139.153Zm.338,5.861a.335.335,0,0,1-.268.122c-.433-.033-.575-.243-.514-.759a.747.747,0,0,1,.737.355A.318.318,0,0,1,91.4,145.014Zm.159-.663-.962-.277.169-2.069c.294.225.537.4.769.6a.286.286,0,0,1,.083.2C91.6,143.329,91.576,143.855,91.556,144.351Zm17.456-.957a1.654,1.654,0,0,0-.131-1.466C108.7,143.1,108.706,143.123,109.013,143.394Zm-2.495-20.251a.778.778,0,0,0-.809.634c-.089.312-.005.577.256.667a.854.854,0,0,0,.492.015.708.708,0,0,0,.482-.725A.544.544,0,0,0,106.518,123.143Zm.463-.818c.086-.022.153-.122.228-.187a3.285,3.285,0,0,0-.262-.227c-.03-.022-.093-.008-.138,0-.317.078-.641.14-.949.247a1.081,1.081,0,0,0-.636.678c.353-.135.636-.265.933-.351C106.425,122.411,106.71,122.393,106.981,122.325Zm-2.777-3.179a3.2,3.2,0,0,0-1.769.772c-.126.109.057.291.182.182a2.9,2.9,0,0,1,1.586-.7C104.367,119.386,104.369,119.128,104.2,119.146Z" transform="translate(315.201 1021.089)" fill="#242a39" stroke="#242a39" stroke-width="0.3"/></g></svg>