<svg xmlns="http://www.w3.org/2000/svg" width="30.101" height="42.711" viewBox="0 0 30.101 42.711">
  <g id="managerinfo-mob" transform="translate(-407.925 -1136.986)">
    <g id="Group_3803" data-name="Group 3803" transform="translate(432.585 1141.94)">
      <line id="Line_109" data-name="Line 109" y1="2.161" x2="2.593" transform="translate(0.859 0.887) rotate(-20)" fill="none" stroke="#242a39" stroke-linecap="round" stroke-width="0.8"/>
      <line id="Line_110" data-name="Line 110" y1="1.837" x2="0.648" transform="translate(0 0.739) rotate(-20)" fill="none" stroke="#242a39" stroke-linecap="round" stroke-width="0.8"/>
      <path id="Path_1299" data-name="Path 1299" d="M0,.648,2.314,0" transform="translate(2.412 3.024) rotate(-20)" fill="none" stroke="#242a39" stroke-linecap="round" stroke-width="0.8"/>
    </g>
    <path id="Path_56" data-name="Path 56" d="M103.243,149.363l.1.032.121-.408-.068-.021Zm11.928-19.177a.657.657,0,0,0-.538-.458.465.465,0,0,1-.242-.165.64.64,0,0,0-.631-.233c-.068.011-.136.02-.23.034,0-.135,0-.251,0-.368a5.823,5.823,0,0,0-.441-2.315,1.474,1.474,0,0,0-.265-.412.409.409,0,0,0-.489-.094.372.372,0,0,0-.229.4c.038.885.065,1.77.118,2.654a10.6,10.6,0,0,1-.04,1.346c-.513.071-.6.425-.647.827s-.126.816-.186,1.225a.924.924,0,0,0,.282,1,11.838,11.838,0,0,0-.889,1.018c-.486.7-.927,1.425-1.388,2.14-.054.083-.117.161-.173.238a6.328,6.328,0,0,1-1.385-1.866c-.342-.713-.656-1.439-.969-2.166a.471.471,0,0,0-.278-.3.687.687,0,0,1-.509-.524,2.476,2.476,0,0,1-.1-.363,2.333,2.333,0,0,0-.247-1.032,9.023,9.023,0,0,0,.287-5.687l.333-.108a6.274,6.274,0,0,0,3.1-2.675c.168-.424.045-.688-.4-.8a11.263,11.263,0,0,0-1.684.1,8.789,8.789,0,0,1-2.184.054.373.373,0,0,1-.349-.286,5.569,5.569,0,0,0-.862-1.618c-.172-.222-.343-.447-.517-.674a2.176,2.176,0,0,0,.156-2.227.1.1,0,0,0-.167,0l-.2.272a2.159,2.159,0,0,0-.606-.867.972.972,0,0,0-.767-.2c-.08.011-.082.113-.043.162a1.054,1.054,0,0,1,.251.48,1.084,1.084,0,0,1,.021.291c-.341-.328-.571-.384-.848-.192a.632.632,0,0,0-.11,0c-.123.012-.124.206,0,.194q.3.364,0,.618a.625.625,0,0,1-.33.172c-.005,0-.012,0-.016-.006a1.634,1.634,0,0,0-.671-.184,1.336,1.336,0,0,0-.185-.063,1.256,1.256,0,0,0-.653.011,1.335,1.335,0,0,0-.764.579.929.929,0,0,0-.076.114.7.7,0,0,0-.082.246c-.006.02-.013.04-.018.06a.091.091,0,0,0,.029.092.442.442,0,0,0,.106.186,2.206,2.206,0,0,0-.259,0c-.032,0-.068,0-.1.006a.476.476,0,0,0-.4.015c-.18.092-.178.275-.3.391l-.039.023c-.069.026-.206.042-.256.066a.948.948,0,0,0-.315.253.929.929,0,0,0-.2.7,1.266,1.266,0,0,0,.355.693q.065.054.132.105.2.14.113.312c.018.051,0,.119.024.175.036.087.123.133.189.19a2.517,2.517,0,0,1,.558.524,2.257,2.257,0,0,1,.347,1.312,3.356,3.356,0,0,0-.315-.129.7.7,0,0,0-1,.586,1.487,1.487,0,0,0,.075.836.8.8,0,0,0,.935.63,4.562,4.562,0,0,0,.529-.076l.422,5.506a1.414,1.414,0,0,0-.4,1.379c-.073.011-.118.022-.163.025a.86.86,0,0,0-.807.635,3.459,3.459,0,0,0-.131.4c-.071.323-.114.652-.2.971-.278,1.086-.571,2.167-.851,3.253a1.618,1.618,0,0,0-.01.366l.183.325c-.291-.017-.2-.189-.183-.326-.361-.054-.723-.1-1.083-.162a1.21,1.21,0,0,1-.34-.091,15.473,15.473,0,0,1-1.87-.816,1.018,1.018,0,0,0,.525.506c.214.1.417.221.632.315a3.816,3.816,0,0,0,1.34.426.75.75,0,0,1,.758.638.221.221,0,0,0,.284.19c.148-.027.288-.088.27-.269a1.5,1.5,0,0,0-.124-.652.672.672,0,0,1-.039-.629c.249-.935.5-1.869.729-2.809.132-.549.216-1.109.318-1.641l.743-.147c.1.7.054,1.388.18,2.038.3.134.628.056.875.277-.078.279-.137.557-.233.821a.564.564,0,0,0,.231.787.817.817,0,0,1,.2.2c.62.757,1.484,1.24,2.168,1.925.083.083.186.118.282.025s.046-.2-.037-.277a3.659,3.659,0,0,0-.576-.467,10.337,10.337,0,0,1-2.094-1.792c.1-.318.207-.629.3-.945a1.439,1.439,0,0,0,.091-1.029l-.25.387-.748-.148-.159-2.176.076-.029c.124.167.246.334.372.5.486.64.949,1.3,1.466,1.912a10.15,10.15,0,0,1,1.2,1.615,6.344,6.344,0,0,0,.4.628,11.514,11.514,0,0,1,1.552,2.81.59.59,0,0,1,.013.269c-.079.561-.177,1.119-.242,1.682a.42.42,0,0,1-.258.377,5.718,5.718,0,0,0-1.671,1.24,3.289,3.289,0,0,0-.3.3.891.891,0,0,1-1.047.284c-.53-.117-1.061-.234-1.59-.355-.169-.039-.336-.089-.521-.138.211-.9.423-1.773.615-2.648a2.735,2.735,0,0,0,.079-.8c-.086-1.012-.2-2.021-.307-3.03-.011-.1-.049-.207-.071-.311-.066-.323-.133-.646-.194-.969-.026-.136-.04-.273-.059-.411-.208.044-.277.153-.257.33a3.78,3.78,0,0,1,.029.46,2.16,2.16,0,0,1-.043.451c-.142.62-.3,1.236-.439,1.857-.1.434-.162.875-.246,1.34a11.822,11.822,0,0,1-4.159-1.044,2.444,2.444,0,0,0,.182-.393,3.747,3.747,0,0,0,.115-.657.335.335,0,0,0-.129-.2c-.184.072-.153-.152-.257-.2-.036.073-.06.126-.088.177s-.067.111-.117.193c-.133-.831-.878-1.377-1.493-1.119.222.087.444.162.656.259a.766.766,0,0,1,.452.672.483.483,0,0,1-.661.494c-.1-.056-.207-.112-.3-.176-.069-.045-.125-.109-.194-.154-.114-.075-.244-.127-.348,0s-.023.253.085.332a2.251,2.251,0,0,0,.481.3.9.9,0,0,0,1.026-.14,1.126,1.126,0,0,1,.152-.1,3.154,3.154,0,0,1-.059.324c-.058.19,0,.295.181.393.3.16.574.368.863.551a1.823,1.823,0,0,0,.429.237,11.169,11.169,0,0,0,1.1.267q.922.173,1.851.309c.392.058.53-.043.6-.414.087-.488.151-.98.237-1.468.063-.36.146-.716.22-1.074a.484.484,0,0,1,.137.277c.1.927.2,1.854.294,2.783a1.186,1.186,0,0,1-.045.346c-.079.381-.172.759-.244,1.141-.108.578-.2,1.159-.3,1.727l-.264.052a7.7,7.7,0,0,0,2.136.78.082.082,0,0,0,.047.086c.169.087.17.725.186.855q.035.278.067.556.067.6.115,1.207c.02.255.036.51.051.765.018.6.023,1.206.029,1.81,0,.18.027.324.14.384-.027.244-.062.448-.071.654-.024.531-.039,1.062-.053,1.593a1.679,1.679,0,0,1-.747,1.34,2.662,2.662,0,0,0-.412.382c-.251.292-.244.361-.044.686.153.248.294.5.428.736a.54.54,0,0,1-.058.1,10.816,10.816,0,0,1-3.646,2.2c-.118.041-.277.061-.279.227s.154.19.267.247a.292.292,0,0,0,.066.026,5.974,5.974,0,0,0,2.244.174,8.247,8.247,0,0,0,1.07-.241,2.784,2.784,0,0,0,1.129-.572,2.424,2.424,0,0,1,.428-.251.5.5,0,0,0,.525.281,1.075,1.075,0,0,1,.568.074.956.956,0,0,0,1.277-.127,7.743,7.743,0,0,0,4.008.978,1.486,1.486,0,0,0,.484-.073c.2-.075.227-.223.081-.387a.915.915,0,0,0-.265-.234,13.537,13.537,0,0,1-2.89-2.505,1.028,1.028,0,0,0,.143-1.105c-.121-.307-.271-.6-.4-.908a4.4,4.4,0,0,1-.311-.861,9.113,9.113,0,0,1-.13-1.375,17.038,17.038,0,0,1,.233-3.6c.13-.684.293-1.362.428-2.045.1-.481.169-.966.246-1.413a1.343,1.343,0,0,0,.388.064c.267-.043.529-.118.792-.184a.463.463,0,0,0,.361-.555c-.025-.163-.048-.327-.059-.491-.069-1.013-.163-2.026-.193-3.041-.023-.766.021-1.535.068-2.3a6.1,6.1,0,0,1,.2-.914.907.907,0,0,1,.12.108,2.217,2.217,0,0,1,.168.271A8.5,8.5,0,0,0,109,139.513a.188.188,0,0,0,.284,0c.292-.3.608-.591.869-.921a29.442,29.442,0,0,0,2.4-3.288c.107-.182.256-.35.143-.586a.122.122,0,0,1,.011-.1,3.237,3.237,0,0,1,.542-.842.851.851,0,0,0,1.237-.15,1.632,1.632,0,0,0,.4-1.071,4.661,4.661,0,0,1,0-.5.814.814,0,0,1,.113-.353A1.578,1.578,0,0,0,115.171,130.186Zm-22.007,7.69-.135.8C92.918,138.452,92.948,138.276,93.164,137.876Zm20.388-8.176a.343.343,0,0,1,.23-.179.382.382,0,0,1,.427.186,1.3,1.3,0,0,1,.166.462,3.663,3.663,0,0,1-.013.723.655.655,0,0,0-.936-.472A6.213,6.213,0,0,1,113.552,129.7Zm-.75-3.049a4.861,4.861,0,0,1,.232.63,6.13,6.13,0,0,1,.164,2.662c-.022.15-.031.3-.051.5l-.722.105a18.118,18.118,0,0,0-.033-4.1C112.642,126.351,112.735,126.5,112.8,126.65Zm-14.332-2.175a1.3,1.3,0,0,0-.252-.2,2.675,2.675,0,0,0-.555-.19.193.193,0,0,0-.242.194c0,.135.1.183.216.177.375-.019.568.225.755.489a.559.559,0,0,1-.992-.206,1.351,1.351,0,0,1-.061-.448c.01-.481.222-.623.689-.478C98.4,123.929,98.5,124.066,98.471,124.475Zm.111-1.146c-.021-.191-.113-.389.077-.559.034-.031.01-.135,0-.2a2.292,2.292,0,0,1,.219-1.512.5.5,0,0,0,.033-.539c-.031-.052.023-.15.028-.227a.654.654,0,0,0,0-.3c-.1-.191-.279-.32-.262-.588.011-.174-.256-.165-.464.034l.573.678c-.09.2-.212.386-.035.593.03.035,0,.143-.028.2a2.756,2.756,0,0,0-.29,1.086c0,.019-.024.037-.069.1a2.139,2.139,0,0,0-.282-.528,2.2,2.2,0,0,0-.521-.3,1.571,1.571,0,0,1,.041-.172c.067-.184-.015-.287-.177-.363a.648.648,0,0,1-.293-.775.49.49,0,0,1,.532-.369c.256,0,.258-.005.24-.289a.243.243,0,0,1,0-.029l.369-.136.032,0a.073.073,0,0,0,.047.007l.083.012c.01-.128.018-.227.027-.326l.14.185a.845.845,0,0,1,.575-1.071,1.245,1.245,0,0,1,.724-.095c.187.036.374.051.561.088a1.245,1.245,0,0,0,.125.031c.046.012.092.024.138.041a.771.771,0,0,0,.982-.563,2.786,2.786,0,0,0-.055-.469c.281.068.234.471.524.554a1.191,1.191,0,0,0,.033-1.233.771.771,0,0,1,.327.13,1.528,1.528,0,0,1,.365.507,4.917,4.917,0,0,1,.208.592l.372-.238a1.477,1.477,0,0,1-.271,1.45.855.855,0,0,0-.769-.276c.194.226.342.431.521.6a5.889,5.889,0,0,1,1.589,2.5,1.659,1.659,0,0,1-.221,0,1.23,1.23,0,0,1-.19-.062c-.008-.17-.028-.389-.246-.386-.142,0-.281.133-.439.215a.958.958,0,0,0,.514.357,7.588,7.588,0,0,0,3.978.194c1.3-.232,1.276.084,1.018.508a6.189,6.189,0,0,1-3.956,2.552,1.714,1.714,0,0,1-1.055-.259c-.137-.073-.216-.257-.329-.4l.31-.247a.253.253,0,0,0-.364-.122.289.289,0,0,0-.2.336c.06.325.311,1.067,1.62,1.035l.108,1.212a4.144,4.144,0,0,1-4.471-.6l.25-.266c-.192-.191-.276-.205-.5-.1a.783.783,0,0,0-.541.8l.423-.2a8.565,8.565,0,0,1,.27.842,8.549,8.549,0,0,0,.8,2.148,1.63,1.63,0,0,0,1.116.857c.264.063.53.118.8.162a1.809,1.809,0,0,0,1.177-.226,2.412,2.412,0,0,1-.223.7c-.04.1-.153.23.009.3.145.066.216-.076.253-.182a5.8,5.8,0,0,0,.24-.812.469.469,0,0,0-.152-.433,1.18,1.18,0,0,1-.181-.577,1.988,1.988,0,0,1,0-.389c.048-.048.062-.074.082-.079a.686.686,0,0,0,.5-.76c0-.235,0-.469,0-.732-.011.01,0-.011.023-.021.5-.237.492-.237.392-.775a3.873,3.873,0,0,1-.049-.738c0-.179.108-.282.331-.243a9.294,9.294,0,0,1,.287,1.792,10.422,10.422,0,0,1-.361,2.835,3.69,3.69,0,0,1-.607,1.343c-.424.6-.813,1.218-1.217,1.828-.026.039-.05.081-.077.119-.172.246-.238.241-.4,0s-.326-.462-.5-.68a.662.662,0,0,0-.254-.172c-.444-.188-.894-.36-1.335-.552-.2-.089-.387-.225-.589-.317-.32-.146-.65-.271-.974-.408-.086-.036-.168-.082-.244-.12-.105-1.106-.2-2.2-.315-3.29C98.9,126.144,98.735,124.737,98.582,123.329Zm5.5,6.1c.078.176.041.284-.128.3a4.2,4.2,0,0,1-.729.013,6.162,6.162,0,0,1-.758-.148,1.724,1.724,0,0,1-.243-.093A7.393,7.393,0,0,0,104.083,129.428Zm-2.167-.271a.8.8,0,0,1,1.287.071A3.13,3.13,0,0,1,101.917,129.157Zm1.543-.849c-.292.032-.589.014-.884.024a5.113,5.113,0,0,1-1.393-.371c-.059-.015-.114-.114-.141-.185a4.422,4.422,0,0,1-.215-.673,1.95,1.95,0,0,0-.392-.9.252.252,0,0,1-.03-.234.616.616,0,0,1,.136.116,1.728,1.728,0,0,0,.645.533,4.556,4.556,0,0,0,1.879.573,7.213,7.213,0,0,0,1.229-.082c.082-.007.162-.023.263-.037a1.273,1.273,0,0,1,.023.863.34.34,0,0,1-.22.192A6.447,6.447,0,0,1,103.459,128.308Zm-1.32,5.081.262.293C102.068,133.638,102.059,133.629,102.14,133.389Zm-.008.646c-.175-.044-.3-.058-.218-.285Zm.145-.871.338-.405c.332.332.368.439.23.672Zm.586.9c.023-.051.054-.122.1-.137a2.015,2.015,0,0,1,1.121-.226.511.511,0,0,1,.1.026.934.934,0,0,1,.213,1.132.3.3,0,0,1-.34.1,1.077,1.077,0,0,0-1,.183l-.5-.375C102.658,134.529,102.758,134.294,102.863,134.062Zm1.517-.889c-.105.193-.238.193-.456.11l.563-.718c.167,0,.177.122.2.225A2.622,2.622,0,0,0,104.38,133.173Zm.456,0c.168.374.168.374-.119.584l-.213-.292Zm-.3,1.978a.83.83,0,0,0,.32-.842c-.014-.165,0-.3.2-.349a1.159,1.159,0,0,1-.052.914,5.492,5.492,0,0,0-.256.764,1.641,1.641,0,0,1-.227.477q-.077-.3-.154-.6A.332.332,0,0,1,104.539,135.147Zm.192-2.931a2.416,2.416,0,0,1,.83-.881,5.205,5.205,0,0,1-.208,2.391A2.282,2.282,0,0,0,104.731,132.217Zm-4.3,1.873a10.128,10.128,0,0,1-.6-.869c-.293-.427-.59-.852-.882-1.28a.509.509,0,0,1,.075-.631c.123-.143.237-.167.473-.054.539.26,1.068.538,1.607.8.39.187.79.353,1.193.532l-1.314,2.063C100.719,134.543,100.594,134.286,100.427,134.09Zm2.3,3.171-1.606-2.35.546-.77.642.459c-.063.211.043.352.231.475a1.2,1.2,0,0,1,.467.413c.068.155-.026.384-.055.58A4.569,4.569,0,0,1,102.722,137.26Zm.866,1.26c-.214-.306-.385-.53-.532-.769a.49.49,0,0,1-.057-.3c.075-.63.161-1.259.246-1.887.029-.212.1-.293.31-.317a1.4,1.4,0,0,1,.386.01.249.249,0,0,1,.222.236c.046.4.107.791.154,1.188a.63.63,0,0,1-.018.312C104.08,137.489,103.846,137.973,103.588,138.52Zm-1.944,18.621-.328.03c-.311-.39-.473-.427-.906-.208a1.368,1.368,0,0,0-.3.19,2.8,2.8,0,0,1-1.339.6,12.3,12.3,0,0,1-2.38.108.287.287,0,0,1-.092-.046c-.008,0-.01-.019-.014-.026.447-.235.89-.476,1.34-.7a9.423,9.423,0,0,0,1.7-1.207c.1-.082.192-.175.292-.258a.636.636,0,0,1,.573-.169c.5.1,1,.148,1.5.22a1.357,1.357,0,0,1,.178.058Zm3-13.424c-.294,1.252-.59,2.5-.858,3.76a14.933,14.933,0,0,0-.246,3.491c.013.53.084,1.06.147,1.587a4.912,4.912,0,0,0,.513,1.39,2.4,2.4,0,0,1,.178.5.424.424,0,0,1-.411.567,6.163,6.163,0,0,1-.707.035.851.851,0,0,0-.661.358.259.259,0,0,0-.013.248.249.249,0,0,0,.24.046c.342-.306.758-.2,1.149-.232.164-.013.327-.022.519-.034a15.013,15.013,0,0,0,2.8,2.589,8.022,8.022,0,0,1-2.783-.35,4.257,4.257,0,0,1-1.28-.666c-.248-.215-.432-.138-.494.182-.013.069-.02.139-.036.25l-.6.045c0-.151-.006-.267,0-.381.018-.307.039-.613.063-.919a2.34,2.34,0,0,1,.114-.5,2.891,2.891,0,0,0,.034-.8,2.528,2.528,0,0,1-.006-.52,7.462,7.462,0,0,0,.117-1.938c-.018-.483,0-.968,0-1.452-.007-1.075-.019-2.149-.026-3.224,0-.343-.01-.686.011-1.028.04-.658.1-1.315.153-2.022a2.959,2.959,0,0,0,.425-.006.751.751,0,0,0,.225-.122c-.051-.055-.1-.112-.154-.163a.962.962,0,0,0-.134-.084,2.166,2.166,0,0,0,.272-.2c.044-.044.094-.146.073-.176a.283.283,0,0,0-.193-.115,1.046,1.046,0,0,0-.767.508.32.32,0,0,0-.023.1c-.011.351,0,.7-.034,1.052a19.913,19.913,0,0,0-.1,2.614c.036.873.01,1.749,0,2.624-.012,1.016-.036,2.031-.058,3.047a1.372,1.372,0,0,1-.047.313,1.538,1.538,0,0,0-.029.905,1.612,1.612,0,0,1,.007.454c-.315-.071-.606-.149-.9-.2a8.543,8.543,0,0,0-.879-.1,1.476,1.476,0,0,0-.358.07l-.592-.964a3.944,3.944,0,0,1,.445-.431,2.04,2.04,0,0,0,.934-1.7c.011-.543.019-1.086.037-1.629a.805.805,0,0,1,.086-.292,2.634,2.634,0,0,1,.172-.281l.328.032c.033-.184-.1-.234-.182-.2-.215.088-.352-.022-.519-.141a41.887,41.887,0,0,0-.321-5.139c.222,0,.42.008.618,0,.274-.014.3-.049.394-.332a.359.359,0,0,1,.127-.15c.317-.247.642-.482.954-.734a5.4,5.4,0,0,1,1.372-.814,3.732,3.732,0,0,1,.822.814A.5.5,0,0,1,104.648,143.718Zm1.63-7.916c-.031.045-.086.086-.1.135-.111.542-.234,1.083-.317,1.629a8.506,8.506,0,0,0-.128,1.407c.018,1.074.078,2.148.132,3.222.012.234.074.466.107.7.019.138.027.277.041.43l-.814.3a2,2,0,0,0-.774-1.1c-.085-.08-.194-.135-.287-.207a.511.511,0,0,1-.225-.6c.111-.409.158-.835.238-1.252a1.04,1.04,0,0,1,.1-.331.4.4,0,0,0,0-.405c-.1-.21-.237-.4-.332-.617a.455.455,0,0,1-.031-.327c.215-.484.458-.955.68-1.436.078-.169.119-.354.183-.53a7.356,7.356,0,0,0,.453-2.1.565.565,0,0,0,.381-.479c.085-.416.188-.828.284-1.241.018-.079.039-.158.061-.25a4.288,4.288,0,0,1,.458,2.136,1.115,1.115,0,0,0-.957.162l.446.605a15.072,15.072,0,0,0-1.567,3.157.286.286,0,0,0,.041.232,1.7,1.7,0,0,0,.136-.2c.279-.573.545-1.153.837-1.719a7.1,7.1,0,0,1,.438-.637,2.633,2.633,0,0,0,.14-.277,2.939,2.939,0,0,1,.2-.369c.024-.034.114-.022.176-.029Zm0-.007-.4-.641c.182-.073.182-.073.54.014Zm5.638-.022c-.522.714-1.062,1.416-1.613,2.107-.359.451-.751.876-1.133,1.318a6.148,6.148,0,0,1-2.233-2.179,1.589,1.589,0,0,0-.177-.305.92.92,0,0,1-.2-1,4.35,4.35,0,0,0-.1-2.353c-.023-.091-.048-.181-.077-.291l.236-.023c.067.216.134.426.2.637a9.158,9.158,0,0,0,1.308,2.655c.171.239.376.453.569.676.151.175.281.352.158.6a.228.228,0,0,0-.013.069c-.019.135-.024.276.14.317.146.036.2-.082.251-.2a.556.556,0,0,0,.025-.6,18.382,18.382,0,0,0,1.845-2.357c.134-.164.248-.344.374-.515.16-.215.234-.217.4-.013s.311.384.5.622A6.889,6.889,0,0,1,111.917,135.773Zm.487-1.364c-.361-.292-.38-.339-.257-.657l.583.079Zm1.858-.94a.7.7,0,0,1-.9.146c.09-.161.188-.319.268-.485a.816.816,0,0,0,.084-.3.2.2,0,0,0-.107-.156.194.194,0,0,0-.167.083c-.079.144-.133.3-.2.452a.819.819,0,0,1-1.237.239,2.02,2.02,0,0,0-.173-.123.274.274,0,0,1-.151-.291c.064-.61.113-1.222.182-1.832a.446.446,0,0,1,.444-.41c.446-.037.892-.074,1.337-.108.281-.022.358.046.385.327.051.516-.169.742-.7.722-.177-.007-.354-.014-.53-.009-.145,0-.262.073-.251.234s.147.208.285.193a4.968,4.968,0,0,0,.8-.119.945.945,0,0,1,.712.018.844.844,0,0,0,.233.034A1.648,1.648,0,0,1,114.262,133.469Zm.318-1.823a5.442,5.442,0,0,0,0-1.7c.245.074.356.219.4.613A1.033,1.033,0,0,1,114.58,131.646ZM93.847,138.7c.008-.06-.085-.132-.182-.265-.074.145-.142.219-.138.289,0,.054.115.155.147.143C93.745,138.837,93.838,138.761,93.847,138.7ZM103.2,141.6c.133.06.222-.053.245-.176a1.077,1.077,0,0,0,0-.365c-.005-.032-.149-.083-.171-.063a3.017,3.017,0,0,0-.278.335C103.076,141.442,103.119,141.567,103.2,141.6Zm.351-1.326c.062-.123.154-.254.055-.389a.244.244,0,0,0-.205-.079c-.167.04-.225.184-.262.4.029.048.06.165.133.207C103.4,140.481,103.5,140.391,103.553,140.278Zm8.114-5.55a.272.272,0,0,0-.135.328c.024.076.1.182.165.19.244.029.224-.213.334-.342C111.924,134.74,111.828,134.636,111.667,134.728Zm-7.622-13.954a.275.275,0,0,0-.042-.241.747.747,0,0,0-.751-.17c-.1.037-.2.07-.194.209.276.092.525.182.779.252C103.9,120.842,104.035,120.809,104.045,120.774ZM91.276,136.217l.056-.085a.86.86,0,0,1-.134-.053,7.406,7.406,0,0,1-1.251-1.09.825.825,0,0,1-.244-.79c.112.064.2.1.271.157.574.394,1.15.784,1.718,1.187a2.03,2.03,0,0,1,1,1.142.1.1,0,0,0,.033.061c.048.027.106.071.148.061s.1-.087.095-.122a1.154,1.154,0,0,0-.138-.466,3.691,3.691,0,0,0-.631-.662,8.484,8.484,0,0,0-1-.668.6.6,0,0,1-.312-.637,2.717,2.717,0,0,0-.226-1.453.624.624,0,0,0-.119-.129,1.884,1.884,0,0,0-.564,1.306c-.075-.022-.108-.032-.141-.04-.373-.09-.474-.006-.455.379.007.14.025.279.04.448a1.7,1.7,0,0,1-.192-.058c-.269-.122-.533-.254-.8-.368a1.015,1.015,0,0,0-.341-.071.2.2,0,0,0-.23.215,1.747,1.747,0,0,0,.219,1.084c.224.3.436.615.67.91a1.978,1.978,0,0,0,.87.55,4.481,4.481,0,0,1-1.492-2.071.513.513,0,0,1,.275.118c.206.195.4.4.6.6a3.084,3.084,0,0,0,.331.318c.045.034.141,0,.213,0-.019-.062-.019-.143-.059-.184-.214-.22-.435-.432-.658-.644a1.255,1.255,0,0,0-.811-.487c-.009-.132,0-.228.135-.223a.434.434,0,0,1,.162.064,6.868,6.868,0,0,0,1.509.761c.049.011.086.077.127.116a7.89,7.89,0,0,0-.263,2.026c-.009.422.094.529.5.645.31.089.522-.01.582-.329.072-.381.1-.771.138-1.157.014-.125.016-.252.025-.388Zm-1.017-2.833c.021-.112.068-.2.2-.2a.179.179,0,0,1,.2.193c.008.36,0,.719,0,1.149l-.542-.42C90.175,133.845,90.215,133.614,90.259,133.385Zm.254,4.4a.251.251,0,0,1-.2.091c-.325-.025-.432-.183-.386-.569a.561.561,0,0,1,.553.267A.239.239,0,0,1,90.513,137.782Zm.119-.5-.722-.208.127-1.552c.22.169.4.3.577.447a.215.215,0,0,1,.062.153C90.666,136.518,90.647,136.913,90.632,137.285Zm13.1-.718a1.241,1.241,0,0,0-.1-1.1C103.5,136.348,103.5,136.363,103.731,136.567Zm-1.872-15.2a.584.584,0,0,0-.607.476c-.067.234,0,.433.192.5a.641.641,0,0,0,.369.012.531.531,0,0,0,.362-.544A.408.408,0,0,0,101.859,121.371Zm.347-.614c.065-.016.115-.092.171-.14a2.465,2.465,0,0,0-.2-.17c-.023-.016-.07-.006-.1,0-.238.059-.481.105-.712.185a.811.811,0,0,0-.477.509c.265-.1.477-.2.7-.263C101.789,120.822,102,120.809,102.206,120.758Zm-2.084-2.385a2.4,2.4,0,0,0-1.327.579c-.094.082.043.218.137.137a2.174,2.174,0,0,1,1.19-.522C100.245,118.552,100.246,118.359,100.122,118.373Z" transform="translate(320.219 1021.089)" fill="#242a39" stroke="#242a39" stroke-width="0.3"/>
  </g>
</svg>
