<svg xmlns="http://www.w3.org/2000/svg" xmlns:xlink="http://www.w3.org/1999/xlink" width="78.5" height="64.202" viewBox="0 0 78.5 64.202">
  <defs>
    <linearGradient id="linear-gradient" x1="0.237" y1="0.051" x2="0.726" y2="0.935" gradientUnits="objectBoundingBox">
      <stop offset="0" stop-color="#9e8bff"/>
      <stop offset="1" stop-color="#5775ff"/>
    </linearGradient>
  </defs>
  <g id="micro-loan-web" transform="translate(-1605.796 -1119.673)">
    <g id="_2058115168" transform="translate(1627.424 1119.673)">
      <path id="Path_769" data-name="Path 769" d="M7314.739,22158.4l-.327-1.35c-1.707.6.082.3-1.287,3.807-.3.756-.256.8-.777,1.221l.479-1.693c-.938.154-.715.2-1.021,1.08a9.451,9.451,0,0,0-.5,1.709c1.238-.41.082-.275,1.094-.928.226.346-.051.121.46.406a8.751,8.751,0,0,1-2.994,3.6c-1.339.867-.408.389-.95,1.021-.46.533-2.076.994-2.894,1.369a7.079,7.079,0,0,1-3.32.861c-3.057.213-3.782,1.063-7.3.521a16.162,16.162,0,0,1-6.408-2.432l-.879-.625c-.01-.02-.336-.314-.336-.314l-2.168-2.15c-2.5-2.541-5.038-6.928-3.872-10.84.888-2.945-.839-6.082,4.526-13.187.031-.047.144-.2.185-.244l.174-.254c2.7-4.15,4.189-4.078,6.725-5.785,2.249-1.516,3.147-2.322,6.541-2.332,6.173-.018,13.98,5.971,15.422,11.184C7316.519,22147.422,7316.783,22153.924,7314.739,22158.4Zm-29.025-16.168c.756-.365,1.1-1.318,1.635-1.959,3.229-3.834,1.555-1.65,3.721-3.609a2.492,2.492,0,0,1,1.022-.717c1-.387.909.223,1.073-.807-1.462-.684-5.131,3.781-5.97,4.764a1.252,1.252,0,0,0-.1.109l-.715,1.006A12.744,12.744,0,0,0,7285.714,22142.229Zm29.874,21.578a9.059,9.059,0,0,1-1.114,2.492,7.159,7.159,0,0,0-.685,1.029c-.512.973-.113.584-.9,1.1-.3-1.061.45-1.773,1.021-2.687C7314.862,22164.232,7314.749,22163.969,7315.588,22163.807Zm16.208,11.617c1.584,1.441,5.9,3.412,4.416,8.084-1.411,4.438-5.407,4.2-8.352,2.3-2.379-1.533-4.373-4.547-6.2-6.963-.583-.771-4.107-5.32-4.181-5.814-.184-1.334.879-1.141.379-2.459-.449.652-.071.586-.624,1.5a1.363,1.363,0,0,1-.316.395.809.809,0,0,1-.092-.16c-.011-.047-.052-.121-.071-.184-.327-1.043.093.869-.113-.379-.132-.867.257-1.264.235-2.33-.583.48-.685,1.146-1.359,1.615-.776-1.123-1.145-1-.245-2.41a7.745,7.745,0,0,0,1.073-2.109c-.7.023-.89.564-1.226,1.277-.778,1.65-.613,1.457-1.217,1.615-.532-1.131,1.891-4.453,2.36-4.861a4.6,4.6,0,0,1,1.932,1.408l5.354,4.088c2.78,1.863,3.64,3.15,7.594,4.928l-.244.227c-.808.775-.337.193-.686,1.857a6.884,6.884,0,0,1-.992,2.055c-2.289,4.141-2.4.982-2.369,2.984C7329,22182.059,7331.183,22176.109,7331.8,22175.424Zm-17.312-13.572a6.406,6.406,0,0,1,.6-1.582c1.38-3.283,2.514-9.619,2.054-13.34-.674-5.307-1.492-6.3-4.108-9.434-3.1-3.687-10.854-7.783-15.749-6.229-.921.293-.449.5-1.491.67-3.016.49-2.616.949-4.783,2.086-1.35.705-.308.088-1.033,1.1-.776,1.1-3.2,2.322-6.838,8.883l-1.788,4.881a18.258,18.258,0,0,0-.245,10.025c.817,3.121,3.353,6.016,5.488,8.047,2.5,2.367,5.733,3.5,9.383,4.162a20.359,20.359,0,0,0,5.825-.5c1.063-.3.132-.316,1.922-.52,5.007-.541,5.937-3.984,7.735-1.719l.9.785c.04.023.122.055.173.076.144.6-.051.867.276,1.229.43.457-.051-.154.849-.414l.051,1.678c1.093-.057.255.34.8-.59a16.615,16.615,0,0,0,1.164,1.422l6.061,7.941c.93,1.143,1.472,2.061,2.433,3.168,3.566,4.094,10.088,7.4,12.969-.3a6.336,6.336,0,0,0-.389-4.545c-2.165-3.668-6.856-5.141-11.067-8.51-1.114-.9-5.131-3.484-6.4-4.814a15.872,15.872,0,0,0-1.5-1.3A12.913,12.913,0,0,0,7314.483,22161.852Z" transform="translate(-7280.518 -22130.93)" fill="#262626" fill-rule="evenodd"/>
      <path id="Path_770" data-name="Path 770" d="M7799.194,22613.648c1.41,1.615,1.9,1.736,2.811,4.311a24.113,24.113,0,0,1,1.227,5.633,14.226,14.226,0,0,1-.992,6.123c-.306.846-.622,1.611-.98,2.469s-.756,1.342-1.2,2.236a13.463,13.463,0,0,1-3.147,3.99c-1.329,1.422-2.555,1.615-4.876,2.053-3.9.738-8-1.35-10.372-3.053-1.514-1.088-2.617-1.77-3.455-3.67a17.149,17.149,0,0,1-.113-11.518,29.541,29.541,0,0,1,2.362-4.572c2.176-3.646,8.176-7.762,13.582-6.244,1.543.441-.062.4,2.382,1.1a2.43,2.43,0,0,1,1.869,1.582C7798.918,22613.482,7798.223,22613.8,7799.194,22613.648Zm-21.155,21.316c-.041.039-.112.084-.132.105a.708.708,0,0,0-.134.1l-.582.756c.756.459,1.553,1.229,2.207,1.572,1.032.553.082-.17,1.2.32.992.43,2.238,1.838,5.979,3.047a12.44,12.44,0,0,0,9.106-.482,4.9,4.9,0,0,0,2.055-1.588c5.538-5.668,8.125-13.947,4.864-21.908a7.871,7.871,0,0,0-3.362-4.148,43.394,43.394,0,0,0-5.12-2.209c-5.313-1.348-12.183,3.191-14.532,7.3a21.924,21.924,0,0,0-2.392,4.916C7776.189,22625.848,7775.873,22632.676,7778.039,22634.965Z" transform="translate(-7771.351 -22605.389)" fill="#262626" fill-rule="evenodd"/>
      <path id="Path_775" data-name="Path 775" d="M12109.709,26671.035a2.021,2.021,0,0,0-1.667.162c.267.641-.388-.115.861.641a6.684,6.684,0,0,1-1.249,3.457l-.654,1.074c.94-.154,1.206-.7,1.9-2.166A5.057,5.057,0,0,0,12109.709,26671.035Z" transform="translate(-12057.672 -26624.541)" fill="#262626" fill-rule="evenodd"/>
      <path id="Path_776" data-name="Path 776" d="M8069.5,22779c-.9.191-3.424,3.021-3.5,3.963a7.1,7.1,0,0,0,1.789-1.932C8068.39,22780.215,8069.371,22779.822,8069.5,22779Z" transform="translate(-8057.971 -22772.375)" fill="#262626" fill-rule="evenodd"/>
      <path id="Path_777" data-name="Path 777" d="M12433.49,26859.031c-.541-.523-.367-.6-.818-.324.594,1.41-.507,1.91-.673,2.828C12432.888,26861.406,12433.5,26860.168,12433.49,26859.031Z" transform="translate(-12379.351 -26810.232)" fill="#262626" fill-rule="evenodd"/>
      <path id="Path_778" data-name="Path 778" d="M7532.041,24271.01c-1.054-.088-1.442.326-.624,1.193C7532.1,24271.918,7531.989,24271.9,7532.041,24271.01Z" transform="translate(-7528.417 -24249.127)" fill="#262626" fill-rule="evenodd"/>
      <path id="Path_779" data-name="Path 779" d="M7618.892,24699c-.756.293-.9.574-.061.932C7619.056,24699.551,7619.179,24699.541,7618.892,24699Z" transform="translate(-7614.81 -24672.754)" fill="#262626" fill-rule="evenodd"/>
      <path id="Path_780" data-name="Path 780" d="M7602.772,24555c-.747.3-.676.619.133.865Z" transform="translate(-7598.964 -24530.227)" fill="#262626" fill-rule="evenodd"/>
      <g id="_529969808" transform="translate(10.14 11.832)">
        <path id="Path_430" data-name="Path 430" d="M7.454,57025.535l.411.313a8.371,8.371,0,0,0,3.445,1.465,5.465,5.465,0,0,0,2.3-.52,4.4,4.4,0,0,0,1.269-.82c.069-.066.11-.137.2-.148.166-.012.04.023.168.082.472-.508.112-.371.929-1.09a3.912,3.912,0,0,0,.884-1.211c.676-1.359.576-1.781.576-3.523,0-3.16-.361-2.719-1.861-3.957-.139-.113-.07-.062-.139-.16-.326-.441-1.449-.625-1.787-1.02a2.284,2.284,0,0,1,1.661.281c-.067-.2-.086-.211-.331-.312a7.359,7.359,0,0,0-1.919-.1c-.19-.121-.313-.25-.507-.352-.077.1,0,.152-.072.262-1.536.066-1.3.387-2.409.754a7.654,7.654,0,0,0-.62-3.453c-.742-1.582-1.087-1.27-1.335-1.711s-.534-.3-1.644-.355c-.732-.039-1.783.605-2.39.664a2.724,2.724,0,0,0-1.535.477,2.819,2.819,0,0,0-1.058.957c-1.653,2.219-1.06,2.9-1.361,3.707a4.687,4.687,0,0,0,.1,2.605,2.919,2.919,0,0,0,1.772,2.266c.251.1.515.141.769.25.209.082.424.254.662.348a4.749,4.749,0,0,0,1.756.336,6.7,6.7,0,0,0,.868,2.555,7.136,7.136,0,0,0,.777.961c.1.129.6,1,.609,1.039.024-.3.026-.043-.056-.219A2.214,2.214,0,0,1,7.454,57025.535Zm2.336-5.914a21.143,21.143,0,0,1,1.637-3.4c.355-.488.3-.547.684-.641.783-.191,1.113-.437,1.647-.117.8.469,2.417,1.586,2.625,2.387-.349-.242-.473-.789-.964-.867.085.426.876.926,1.129,1.414a7.49,7.49,0,0,1,.217,2.262,3.88,3.88,0,0,0,.1-1.6c.2.129.209.211.28.477a5.718,5.718,0,0,1-.854,3.949,6.227,6.227,0,0,0,.2-2.66c-.173-.547-.193-.547-.414-.6.046.672.625.48.114,2.848a3.7,3.7,0,0,1-1.1,2.23c-.585.645-3.693,2.3-4.723,1.438.425-.262.828-.023,1.2-.57-.085.027-1.8,1.094-2.739-.363a.062.062,0,0,1,.045-.016c.008,0,.035-.012.043-.012H9c.3.012-.125.137.106.027-.185-.355-.238-.289-.465-.6-.39-.527-.15-.387-.444-.57.064.438.44.6.584.953-.253-.043-.289-.125-.5-.539-.106.227.054.277.161.574-.529-.066-.939-.41-.775-.906a.294.294,0,0,0-.2.059c-.208.074.112,0-.2.082a2.257,2.257,0,0,1-.395-2.141c.28.16.46.953.939,1.789a.4.4,0,0,0-.04-.371c.136-.047.056.043.214.066a11.553,11.553,0,0,1-.529-1.562c-.309.1.059.008-.139.16,0,0,.09.32-.117-.051-.289-.512.078-1.07.328-1.539.756-1.379.983-.738,1.963-2.156a7.6,7.6,0,0,0,.5-.887c.643-1.332.185-2.023.492-2.27.155.027-.01-.125.08.078l0,.918c.157.082.032-.082.208,0-.112.191,0,0-.094.207-.01.023-.061.145-.066.16a2.6,2.6,0,0,0-.181.324c-.1.219-.145.547-.237.781C9.95,57018.965,9.6,57019.43,9.79,57019.621Zm-1.864,4.863a.213.213,0,0,0-.019.051c-.091.523-.086-.187-.016.152Zm.046-.266c0,.289,0,.316.222.426C8.118,57024.438,8.171,57024.375,7.972,57024.219Zm-1.372-1.437c-.062-.117-.305-.254-.05-.641.061-.094.066-.074.126-.125.064.066.058-.09.139.184a.588.588,0,0,1-.094.457C6.652,57022.758,6.674,57022.715,6.6,57022.781Zm.344-.953c-.024-.5.232-.578.444-.859A1.576,1.576,0,0,1,6.944,57021.828Zm-.759-.426a6.237,6.237,0,0,1,1-.445c-.36.543-.15-.07-.681.969-.07.141-.118.211-.181.34-.064-.086-.038.031-.117-.2a.445.445,0,0,1-.032-.176A3.844,3.844,0,0,1,6.185,57021.4Zm-3.506-9.078a4.46,4.46,0,0,1,2.619-1.445c.662-.113.486-.129.873.258.107-.152-.018.039.029-.187a.594.594,0,0,1,.011-.062l.032-.109a2.391,2.391,0,0,1,1.255.148,2.794,2.794,0,0,1,.847.539c.392.563.373.082.628.758a11.18,11.18,0,0,1,.512,2.242c.283,1.16.553,1.656.056,2.9l-.278.422c-.032-.676.168-1.332.15-1.973a5.406,5.406,0,0,0-.879-3.3c-.2-.23-.8-.98-1.177-.75.062.289.46.332.737.531a2.087,2.087,0,0,1,.572.668,4.242,4.242,0,0,1,.468,2.6,2.687,2.687,0,0,1-.261,1.578,5.791,5.791,0,0,1-.815,1.648c-.006-.391.088-1.148.114-1.59.038-.687.091-4.234-.827-4.262.074.375.208.215.416.949a5.491,5.491,0,0,1,.221,1.152,28.3,28.3,0,0,1-.042,3.68,1.264,1.264,0,0,1-.382.949,2.217,2.217,0,0,1-.681.711,4.052,4.052,0,0,0-.833.438c.168.094.189.027.358.152a4.379,4.379,0,0,1-3.81-.707l-.307-.266c-.006-.02-.053-.02-.04-.027l.107-.1c.547.516,2.529.449,2.622.465l.136-.133c-.016-.043-.24-.926-.248-1l.366-.012a.333.333,0,0,1,.027.059l.061.2c.058.328-.077.387.153.68.323-.125.24-.559.251-.98.381-.289.687-.262,1.025-.648,1.449-1.668-.24-2.469-.859-2.969-.011-.289.05-.566.021-.922a6.609,6.609,0,0,1-.048-.973c.216.09.131.008.28.2-.061-.312-.125-.055-.28-.617l.855.32.15-.121a1.675,1.675,0,0,0-.369-.6c-.173-.207-.341-.219-.676-.258.032-.352.174-.871-.158-1-.269.168-.192.668-.208,1.07l-.625.188c.014-.641.219-1.07-.457-1.1.018.367.006.75.01,1.246a2.318,2.318,0,0,0-1.284,1.6c-.046.754.75,1.191,1.236,1.48l.118,2.34c-.729-.062-.881-.559-1.61-.527.069.359.224.309.333.75-.612.164-.8.7-1.217.848.075-.809.95-1.559.855-2.363-.459.043-.868,1.313-1.375,1.582a7.788,7.788,0,0,1,.689-1.6c.3-.648.727-1.187.54-1.52l-1.249,2.547c-.08.109-.029.051-.125.121a7.262,7.262,0,0,1-.027-3.3,4.485,4.485,0,0,1,1.527-2.141l-.312,1.1c.745-1.352.52-1.262.326-1.422Zm-.248,1.543Zm-.238,5.793a1.932,1.932,0,0,1,.416-.527.852.852,0,0,1,.636-.324c-.139,1.082-.058.773.323,1.352A3.276,3.276,0,0,1,2.193,57019.66Zm2.526.477c-1.476.117-1.143-.488-1.453-1.445.091.016,1.026.309,1.094.34a.384.384,0,0,1,.091.168l.07.441C4.623,57020.137,4.709,57019.711,4.719,57020.137Zm-2.966-.98c-.043-.043-.07.074-.136-.184-.046-.172.513-.969.654-1.121Zm3.025-2.941.452.031.016,2.055H4.866Zm-3.445,2.914c.224.242.3.52.7.961a1.308,1.308,0,0,1,.238.3,2.55,2.55,0,0,1-1.575-1.953l-.061-.9C.89,57017.82.9,57018.652,1.332,57019.129Zm4.531-2.773c1.137.137,1.132,2.066-.085,2.02Zm2.552,2.215c.278-.488.43-.961.654-1.457.008.02.018.039.021.047l-.058.922a1.565,1.565,0,0,1-.317.77,2.052,2.052,0,0,1-1.1,1.086Zm8.474-.809a3.566,3.566,0,0,0-.272-.457l-.32-.32c.016-.023.037-.031.04-.062s.038-.02.054-.035c.209.273.42.285.675.781a3.3,3.3,0,0,1,.208.516c.153.438.136.355.048.527-.094-.121.022.1-.091-.129-.01-.023-.034-.09-.042-.109Zm-5.426-2.039c-.125.34-.206.262-.381.508-.11.152-.149.512-.408.563l.235-.961Zm-6.674-.465a7.3,7.3,0,0,1,.064-2.062c.931-.1.622.332.544,2.078Zm-.39-.055c-1.183-.168-.843-1.375-.024-1.641Zm-3.741-.387a5.79,5.79,0,0,1,.907-2.086,3.469,3.469,0,0,1,1.429-1.473l-.329.32a.19.19,0,0,0-.034.047c-.868.914-.393.641-.862,1.371-.214.34-.368.6-.539.922-.1.168-.163.3-.251.469-.021.039-.094.2-.117.238C.731,57014.836.856,57014.715.658,57014.816Z" transform="translate(-0.182 -57009.961)" fill="#2b2b2b" fill-rule="evenodd"/>
        <path id="Path_431" data-name="Path 431" d="M5947.1,60948.121c.064-.812.116-1.406.239-2.148a1.081,1.081,0,0,1,.921,1.18C5948.17,60947.777,5947.742,60948.027,5947.1,60948.121Zm-1.129.359a10.666,10.666,0,0,1,.048-2.656.766.766,0,0,1,.719.1,13.434,13.434,0,0,1-.125,1.547C5946.544,60948.051,5946.7,60948.707,5945.968,60948.48Zm.839-5.391-.029,2.172c-.347-.031-.365-.18-.728-.273a11.048,11.048,0,0,1,.12-1.18C5946.22,60943.23,5946.32,60943.23,5946.808,60943.09Zm-.971-.219c-.58.3-1.205.5-1.232,1.313a1.531,1.531,0,0,0,.849,1.469l.2.125-.076,2.563-1.025-.344c-.339.2.264-.18-.122.125l-.086.07c-.174.109-.148.008-.34.117.055.508.481.211,1.132.422.869.289.231,1.055.729,1.875.377-.148.228-.281.26-1.008-.178-.094.215-.047-.188.008,0,0-.019.016-.026.016-.026-.7-.083-.766.586-.727a8.738,8.738,0,0,0,.037,1.133l.305.836.138-1.555c.018-.109.027-.172.045-.242.145-.516.231-.258,1.108-.8.522-.32.461-.266.562-1.016.146-1.078-.444-1.477-1.338-1.672a11.65,11.65,0,0,1,.084-2.484h.279c.647.164.617.211.848.461.38-.555-.692-.836-.942-.914l-.217-.094c-.338-.133.134-1.3-.668-1.328l.069,1.289a1.4,1.4,0,0,1-.614.242l-.051-1.406c-.018-.383.083-.2-.147-.352-.212.117-.206.461-.166.828A5.013,5.013,0,0,1,5945.837,60942.871Z" transform="translate(-5934.497 -60934.711)" fill="#2b2b2b" fill-rule="evenodd"/>
        <path id="Path_432" data-name="Path 432" d="M6806.456,58928.691c-.816-.91-3.059-2.414-4.474-2.2-.278.035-1.935.223-1.649.523a16.623,16.623,0,0,0,1.965-.2C6805.042,58926.926,6806.6,58929.961,6806.456,58928.691Z" transform="translate(-6789.427 -58923.406)" fill="#2b2b2b" fill-rule="evenodd"/>
        <path id="Path_433" data-name="Path 433" d="M5215,65939.875a6.671,6.671,0,0,0,1.077,1.094,5.8,5.8,0,0,0,.642.516,2.329,2.329,0,0,0,.611.438,10.726,10.726,0,0,0-1.159-1.039C5215.475,65940.289,5215.329,65939.852,5215,65939.875Z" transform="translate(-5206.662 -65925.602)" fill="#2b2b2b" fill-rule="evenodd"/>
      </g>
    </g>
    <path id="Path_2672" data-name="Path 2672" d="M29.27,19.021C47.633,9.507,64.684,17.341,64.684,35.2A32.344,32.344,0,0,1,32.34,67.547C14.477,67.547.764,47.335,0,35.2S10.907,28.534,29.27,19.021Z" transform="translate(1605.836 1116.328)" opacity="0.1" fill="url(#linear-gradient)"/>
  </g>
</svg>
