<svg xmlns="http://www.w3.org/2000/svg" width="39.036" height="25.253" viewBox="0 0 39.036 25.253">
  <g id="partner-outline" transform="translate(-841.3 -2738.501)">
    <path id="_7417587_hand_finger_handshake_hold_greeting_icon" data-name="7417587_hand_finger_handshake_hold_greeting_icon" d="M47.3,104.333a.469.469,0,0,0-.643-.16l-3.713,2.23a.469.469,0,0,0-.207.27l-.791,2.7c-.028-.013-.056-.026-.085-.038l-11.007-5.763a.469.469,0,0,0-.519.058c-.026.022-2.555,2.166-4.715,3.871a2.8,2.8,0,0,1-3.274.252l3.71-5.1A5.814,5.814,0,0,1,31.24,100.3l5.706.616a.469.469,0,0,0,.35-.106l3.412-2.845a.469.469,0,0,0-.6-.719l-3.26,2.717-5.52-.595a6.754,6.754,0,0,0-3.855.827l-7.555.086L16.65,97.47a.469.469,0,0,0-.61.711l3.4,2.924a.469.469,0,0,0,.306.113h.005l6.4-.073a6.682,6.682,0,0,0-.86.964L21.3,107.6a.469.469,0,0,0,.078.632,3.789,3.789,0,0,0,4.818.011c1.785-1.406,3.818-3.11,4.5-3.689l10.771,5.634a1.867,1.867,0,0,1,.451.26l.011.009a1.936,1.936,0,0,1,.718,1.251,1.633,1.633,0,0,1-.611,1.563,1.784,1.784,0,0,1-.729.333c-1.668.344-5.776-1.348-7.22-2.032a.47.47,0,0,0-.4.849,28.136,28.136,0,0,0,6.049,2.062,3.16,3.16,0,0,1-1.069,1.9,1.842,1.842,0,0,1-1.519.221,53.692,53.692,0,0,1-5.463-1.588.469.469,0,0,0-.313.881c.027.01,2.58.918,5.154,1.526a2.27,2.27,0,0,1-2.573,1.78,8.6,8.6,0,0,1-4.407-1.214.469.469,0,0,0-.547.757,8.14,8.14,0,0,0,2.932,1.155,3.954,3.954,0,0,1-4.352.807c-.748-.381-1.2-.611-1.468-.752l-.009-.008a9.694,9.694,0,0,0,1.461-1.154.457.457,0,0,0,.1-.146,2.424,2.424,0,0,0-.055-1.895,2.727,2.727,0,0,0-1.778-1.313,3.365,3.365,0,0,0-2.271-2.392,2.629,2.629,0,0,0-.526-1.3,4.019,4.019,0,0,0-2.612-1.371c-.117-1.094-1.563-2.121-2.423-2.564h0c-1.494-.767-4.93.655-6.392,1.329l-2.05-2.139a.469.469,0,1,0-.676.647l1.9,1.989a1.777,1.777,0,0,0-.625,2.068,4.613,4.613,0,0,0,2.229,2.08,2.965,2.965,0,0,0,.819.174,3.962,3.962,0,0,0,2.469,2.791,3.341,3.341,0,0,0,3.08,2.4,3.086,3.086,0,0,0,3.249,2.154h.152a7.2,7.2,0,0,0,3.026-.827c.036.027.078.054.124.084l0,.011.078.035c.327.2.879.478,1.774.933a4.143,4.143,0,0,0,1.9.462,5.971,5.971,0,0,0,4.065-1.924c.26.027.526.048.808.057h.177a3.172,3.172,0,0,0,3.35-2.547c.088.007.175.013.26.013a2.571,2.571,0,0,0,1.491-.453,4.129,4.129,0,0,0,1.466-2.575c.05,0,.1,0,.149,0a3.323,3.323,0,0,0,.679-.063,2.7,2.7,0,0,0,1.111-.508,2.58,2.58,0,0,0,.965-2.433,2.9,2.9,0,0,0-.819-1.642l.825-2.822,3.557-2.136a.469.469,0,0,0,.16-.646Zm-36.28,7.016c-.224-.536.338-1.024.678-1.214a14.98,14.98,0,0,1,5.2-1.608,1.515,1.515,0,0,1,.672.123c1.143.586,1.92,1.437,1.928,1.864,0,.052,0,.156-.22.284l-.26.149c-1.251.717-4.578,2.62-6.3,1.967A3.773,3.773,0,0,1,11.021,111.349Zm3.157,2.58a16.309,16.309,0,0,0,5.306-2.173l.255-.145a1.524,1.524,0,0,0,.41-.331c2.167.341,2.467,1.461,2.494,1.931-1.339.866-4.539,2.714-6.185,2.714-1.387,0-2.033-1.3-2.278-1.993Zm2.537,2.92c2.2-.171,5.771-2.423,6.515-2.9.993.1,1.5,1.173,1.682,1.7-.847.625-3.647,2.576-5.776,2.588h-.024a2.446,2.446,0,0,1-2.394-1.38Zm5.414,3.518a2.205,2.205,0,0,1-2.4-1.242c2.387-.306,5.09-2.239,5.827-2.8a1.86,1.86,0,0,1,1.213.832,1.44,1.44,0,0,1,.06,1.037,8.018,8.018,0,0,1-4.7,2.172Z" transform="translate(832.768 2641.549)" fill="#fff"/>
    <g id="Group_3920" data-name="Group 3920" transform="translate(0.5 730.701)">
      <path id="_7417587_hand_finger_handshake_hold_greeting_icon_-_Outline" data-name="7417587_hand_finger_handshake_hold_greeting_icon - Outline" d="M40.387,96.953a.669.669,0,0,1,.459,1.156l-.009.008-3.412,2.845a.673.673,0,0,1-.5.151l-5.706-.616c-.153-.013-.313-.02-.47-.02a5.632,5.632,0,0,0-4.531,2.3l-3.574,4.91a2.74,2.74,0,0,0,1.184.283,2.667,2.667,0,0,0,1.668-.624c2.139-1.688,4.606-3.778,4.71-3.866a.669.669,0,0,1,.741-.083l10.875,5.694.724-2.477a.667.667,0,0,1,.3-.385L46.554,104a.668.668,0,0,1,.344-.1h0a.67.67,0,0,1,.345,1.245l-3.489,2.1-.77,2.636a3.122,3.122,0,0,1,.793,1.668,2.78,2.78,0,0,1-1.041,2.619,2.921,2.921,0,0,1-1.194.546,3.534,3.534,0,0,1-.683.067h-.018a4.167,4.167,0,0,1-1.519,2.535,2.759,2.759,0,0,1-1.572.489h-.036l-.1,0a3.356,3.356,0,0,1-3.5,2.536h-.183c-.23-.008-.463-.023-.725-.048a6.142,6.142,0,0,1-4.141,1.915,4.362,4.362,0,0,1-1.99-.484c-.9-.455-1.44-.732-1.775-.933l-.144-.065a7.277,7.277,0,0,1-2.982.784h-.158a3.274,3.274,0,0,1-3.4-2.167,3.537,3.537,0,0,1-3.088-2.426,4.13,4.13,0,0,1-2.462-2.765,3.163,3.163,0,0,1-.735-.173,4.771,4.771,0,0,1-2.345-2.191,1.919,1.919,0,0,1,.525-2.154L8.745,107.8a.669.669,0,1,1,.965-.924l1.947,2.032a14.994,14.994,0,0,1,5.23-1.509,2.647,2.647,0,0,1,1.207.243c.235.121,2.23,1.186,2.508,2.571a4.128,4.128,0,0,1,2.6,1.42,2.829,2.829,0,0,1,.546,1.252,3.566,3.566,0,0,1,2.249,2.4,2.867,2.867,0,0,1,1.8,1.384,2.633,2.633,0,0,1,.061,2.06.658.658,0,0,1-.144.213,9.932,9.932,0,0,1-1.212.991c.269.138.644.33,1.178.6a3.1,3.1,0,0,0,1.413.347A4.178,4.178,0,0,0,31.48,120a8,8,0,0,1-2.6-1.094l-.012-.009a.669.669,0,0,1,.781-1.08l.012.008a8.374,8.374,0,0,0,4.3,1.178l.112,0a2.059,2.059,0,0,0,2.208-1.435c-2.5-.606-4.956-1.477-4.978-1.485l-.013-.005a.669.669,0,0,1,.446-1.257l.029.01a53.021,53.021,0,0,0,5.426,1.577,2.391,2.391,0,0,0,.517.062,1.435,1.435,0,0,0,.845-.252,2.773,2.773,0,0,0,.942-1.577,29.1,29.1,0,0,1-5.9-2.043.67.67,0,0,1-.319-.892.673.673,0,0,1,.606-.383.664.664,0,0,1,.286.064c1.207.573,4.751,2.059,6.624,2.059a2.357,2.357,0,0,0,.469-.041,1.593,1.593,0,0,0,.648-.3,1.439,1.439,0,0,0,.535-1.377,1.728,1.728,0,0,0-.644-1.121L41.8,110.6a1.665,1.665,0,0,0-.4-.231l-.018-.008-10.652-5.572c-.521.44-2.569,2.16-4.405,3.606a3.969,3.969,0,0,1-2.494.907,4.14,4.14,0,0,1-2.577-.923.672.672,0,0,1-.111-.9l3.993-5.489a6.9,6.9,0,0,1,.531-.64l-5.915.068a.669.669,0,0,1-.436-.162L15.9,98.326a.669.669,0,0,1,.871-1.014l.008.006,3.212,2.76,7.429-.085a6.971,6.971,0,0,1,3.335-.852c.2,0,.394.008.59.025l5.44.586,3.2-2.67A.664.664,0,0,1,40.387,96.953Zm.189.861a.269.269,0,0,0-.343-.412l-3.32,2.767-5.6-.6c-.18-.015-.367-.023-.551-.023a6.569,6.569,0,0,0-3.185.826l-.044.025-7.681.087-3.322-2.855a.266.266,0,0,0-.161-.054.269.269,0,0,0-.189.461l3.4,2.92a.269.269,0,0,0,.175.065h.005l6.918-.079-.382.353a6.5,6.5,0,0,0-.834.935l-3.993,5.488a.27.27,0,0,0,.045.362,3.722,3.722,0,0,0,2.319.828,3.579,3.579,0,0,0,2.247-.821c2-1.573,4.247-3.473,4.5-3.684l.1-.087L41.555,110a2.067,2.067,0,0,1,.49.283l.012.009a2.127,2.127,0,0,1,.793,1.38,1.83,1.83,0,0,1-.687,1.749,2,2,0,0,1-.812.371,2.754,2.754,0,0,1-.55.05c-1.947,0-5.566-1.514-6.8-2.1a.267.267,0,0,0-.115-.026.271.271,0,0,0-.244.154.27.27,0,0,0,.128.359,27.864,27.864,0,0,0,6,2.045l.2.033-.037.2a3.371,3.371,0,0,1-1.152,2.031,1.847,1.847,0,0,1-1.072.323,2.789,2.789,0,0,1-.6-.071,53.445,53.445,0,0,1-5.472-1.59l-.005,0a.269.269,0,0,0-.179.5c.144.051,2.622.926,5.124,1.516l.192.045-.043.193a2.475,2.475,0,0,1-2.773,1.936,8.852,8.852,0,0,1-4.509-1.245.269.269,0,0,0-.314.432,7.984,7.984,0,0,0,2.848,1.115l.405.085-.319.265a4.825,4.825,0,0,1-2.976,1.222,3.5,3.5,0,0,1-1.594-.39c-.761-.387-1.2-.612-1.47-.753l-.016-.008-.014-.011a.277.277,0,0,1-.031-.028l-.166-.175.2-.131a9.516,9.516,0,0,0,1.431-1.13.253.253,0,0,0,.054-.08,2.21,2.21,0,0,0-.049-1.727,2.54,2.54,0,0,0-1.656-1.211l-.1-.03-.033-.1a3.175,3.175,0,0,0-2.119-2.258l-.144-.028-.017-.145a2.43,2.43,0,0,0-.486-1.2,3.834,3.834,0,0,0-2.488-1.3l-.148-.026-.016-.15c-.109-1.016-1.563-2.019-2.316-2.407a2.261,2.261,0,0,0-1.024-.2,14.96,14.96,0,0,0-5.193,1.531l-.129.06-2.157-2.252a.271.271,0,0,0-.264-.09.269.269,0,0,0-.124.461l.009.009,2.047,2.142-.16.137a1.613,1.613,0,0,0-.571,1.839,4.448,4.448,0,0,0,2.117,1.971,2.759,2.759,0,0,0,.761.161l.14.009.039.135a3.733,3.733,0,0,0,2.331,2.654l.108.03.031.107a3.154,3.154,0,0,0,2.9,2.256l.139.011.038.134a2.876,2.876,0,0,0,3.057,2.008h.15A6.96,6.96,0,0,0,25.1,120.3l.11-.056.1.073c.03.022.068.047.114.076l.068.043c.321.194.863.469,1.761.926a3.961,3.961,0,0,0,1.808.44,5.758,5.758,0,0,0,3.919-1.861l.068-.071.1.01c.292.03.543.048.791.056h.173a2.985,2.985,0,0,0,3.155-2.389l.037-.171.175.014c.069.006.159.012.244.012h.033a2.361,2.361,0,0,0,1.345-.418,3.94,3.94,0,0,0,1.382-2.439l.025-.171h.173l.084,0,.066,0h.036a3.13,3.13,0,0,0,.6-.059,2.516,2.516,0,0,0,1.027-.47,2.38,2.38,0,0,0,.89-2.244,2.72,2.72,0,0,0-.763-1.531l-.084-.084.88-3.011,3.624-2.176a.269.269,0,0,0,.092-.37.268.268,0,0,0-.231-.131.286.286,0,0,0-.138.038l-3.713,2.23a.268.268,0,0,0-.118.154l-.855,2.924-.235-.1-.053-.023-.018-.008-11.007-5.763a.275.275,0,0,0-.3.033c-.1.088-2.575,2.183-4.72,3.875a3.056,3.056,0,0,1-1.916.71,3.21,3.21,0,0,1-1.582-.441l-.193-.111,3.841-5.277a6.034,6.034,0,0,1,4.854-2.465c.169,0,.34.007.509.022l5.711.616a.269.269,0,0,0,.2-.061ZM16.968,108.325a1.705,1.705,0,0,1,.681.141l.012.006c1.131.58,2.026,1.475,2.037,2.037,0,.121-.033.295-.319.461l-.261.149c-1.111.637-3.712,2.128-5.574,2.128a2.522,2.522,0,0,1-.895-.147,3.969,3.969,0,0,1-1.812-1.672c-.278-.667.35-1.236.765-1.467l.011-.006a15.4,15.4,0,0,1,5.28-1.628Zm.516.505a1.308,1.308,0,0,0-.578-.1H16.9a14.7,14.7,0,0,0-5.106,1.586c-.279.157-.754.556-.586.959a3.594,3.594,0,0,0,1.586,1.454,2.127,2.127,0,0,0,.752.121c1.755,0,4.385-1.507,5.375-2.075l.26-.149c.1-.06.119-.1.119-.1a.086.086,0,0,0,0-.012C19.292,110.2,18.6,109.4,17.484,108.831Zm2.587,2.233.109.017c2.313.364,2.633,1.6,2.663,2.117l.007.116-.1.063c-.435.281-4.3,2.746-6.293,2.746h0a2.806,2.806,0,0,1-2.442-2.068l-.345-.259.484-.066a16.194,16.194,0,0,0,5.232-2.148l.255-.146a1.324,1.324,0,0,0,.359-.289Zm2.361,2.044c-.068-.456-.439-1.306-2.21-1.614a1.718,1.718,0,0,1-.387.292l-.253.144a17.35,17.35,0,0,1-5.127,2.16,2.288,2.288,0,0,0,2,1.635v.2l0-.2C17.949,115.723,20.864,114.11,22.432,113.108Zm.748.632.069.007c1.122.11,1.669,1.316,1.851,1.83l.05.14-.119.088c-1.064.786-3.767,2.615-5.893,2.627h-.032a2.653,2.653,0,0,1-2.546-1.449l-.386-.289.525-.043c2.084-.162,5.442-2.24,6.422-2.873Zm1.491,1.832c-.19-.476-.625-1.3-1.394-1.419-1.022.656-4.106,2.543-6.242,2.861a2.275,2.275,0,0,0,2.07,1.018h.029C21.106,118.019,23.736,116.249,24.671,115.571Zm.845.538.1.028a2.046,2.046,0,0,1,1.335.933,1.642,1.642,0,0,1,.074,1.185l-.015.051-.039.037a8.17,8.17,0,0,1-4.829,2.227l-.1,0,0,0a2.369,2.369,0,0,1-2.49-1.369l-.1-.241.258-.033c2.329-.3,4.976-2.185,5.731-2.756Zm1.136,1.981a1.214,1.214,0,0,0-.061-.837,1.6,1.6,0,0,0-1-.7,15.178,15.178,0,0,1-5.564,2.731,2.12,2.12,0,0,0,2.091.886l.1,0,0,0A7.944,7.944,0,0,0,26.652,118.09Z" transform="translate(832.267 1910.847)" fill="#fff"/>
    </g>
  </g>
</svg>
