<svg xmlns="http://www.w3.org/2000/svg" width="46.61" height="39.324" viewBox="0 0 46.61 39.324">
  <g id="personal-loan-mobile" transform="translate(-1.097 1.086)">
    <g id="Group_3573" data-name="Group 3573" transform="matrix(0.995, -0.105, 0.105, 0.995, 22.965, 1.335)">
      <path id="path78" d="M16.542,8.373c-.3-.01-.6-.014-.9-.014-.672,0-1.355.02-2.016.04-.613.019-1.247.037-1.87.04h-.1c-.8,0-1.6-.039-2.371-.078-.164-.008-.329-.011-.492-.011-.249,0-.5.007-.747.014s-.5.014-.745.014c-.131,0-.262,0-.392-.007-.331-.012-.662-.017-.992-.017-.6,0-1.206.016-1.794.032s-1.2.032-1.794.032H2.108c-.47,0-.951-.025-1.432-.063L.606,8.35c-.111-.008-.178-.014-.2-.035S.4,8.24.406,8.15c0-.049.01-.108.014-.181l.014-.245c.025-.442.052-.9.057-1.353C.5,5.435.509,4.468.5,3.5c0-.555-.015-.981-.037-1.381,0-.074-.01-.154-.017-.239A3.23,3.23,0,0,1,.528.518,1.021,1.021,0,0,1,.995.454c.129,0,.267.005.39.01.1,0,.195.008.266.008.037,0,.069,0,.093,0L1.864.457c.217-.021.422-.04.635-.04q.1,0,.21.007c.22.015.458.022.726.022.329,0,.658-.011.987-.022.265-.008.529-.017.791-.02C6.8.386,8.415.377,10,.377h.764c1.845,0,3.712.019,5.549.047h.065c.11,0,.224,0,.338-.008s.232-.008.347-.008a2.723,2.723,0,0,1,.477.035c.057.01.109.015.157.019.164.015.263.024.356.223a1.372,1.372,0,0,1,.027.537c-.006.087-.011.168-.01.231.023.972.037,1.971.042,2.967,0,.887,0,1.78-.008,2.655,0,.093,0,.192.01.294.024.427.049.869-.389,1a1.353,1.353,0,0,1-.4.047c-.158,0-.324-.014-.479-.027-.111-.009-.217-.018-.31-.021Zm1.949-3.015c0-.875-.006-1.769-.02-2.656q-.01-.625-.024-1.249c0-.078,0-.171.007-.271A1.949,1.949,0,0,0,18.4.429c-.115-.279-.272-.315-.54-.355A7.528,7.528,0,0,0,16.739,0c-.257,0-.515.007-.772.014s-.5.013-.744.013H15.08C13.407.01,11.694,0,9.99,0H9.838C7.949,0,6.03.014,4.134.041H4.009C3.8.042,3.6.035,3.389.029S2.972.016,2.765.016a6.328,6.328,0,0,0-.656.03,5.2,5.2,0,0,1-.527.02H1.34A4.084,4.084,0,0,0,.568.118.721.721,0,0,0,.343.2a.171.171,0,0,0-.1.068L.258.3H.22A.125.125,0,0,0,.2.35,3.506,3.506,0,0,0,.084,2.023c.014.157.027.31.034.452.035.74.025,1.5.015,2.232q-.005.354-.008.706l0,.3c0,.536-.006,1.09-.039,1.633-.006.1-.021.214-.037.332a2.221,2.221,0,0,0-.005.874.2.2,0,0,0,.178.137,25.035,25.035,0,0,0,2.65.123c.823,0,1.662-.026,2.472-.052s1.648-.052,2.47-.052c.531,0,1.01.011,1.464.033.845.041,1.7.062,2.62.062.682,0,1.382-.011,2.136-.034l.188-.006c.476-.015.968-.03,1.452-.03.216,0,.433,0,.65.01.131,0,.277.017.432.03.224.019.455.038.681.038a1.928,1.928,0,0,0,.665-.094c.347-.129.356-.371.368-.7.027-.7.025-1.412.024-2.1V5.358" transform="translate(0 6.535) rotate(-7)" fill="#242a39" stroke="#242a39" stroke-width="0.2"/>
      <path id="path80" d="M4.793,5.742a1.993,1.993,0,0,1-.087.3c-.1.233-.1.233-.359.24H4.3c-.188.005-.376.007-.564.007-.306,0-.612-.005-.918-.01q-.318-.006-.636-.009c-.333,0-.666-.008-1-.017C.993,6.249.815,6.237.789,6.187s.056-.158.172-.325a4.089,4.089,0,0,0,.661-1.743A4.233,4.233,0,0,0,.6.432,7.155,7.155,0,0,1,1.537.383l.549,0,.2,0q.241,0,.482,0c.469,0,.95.011,1.432.032l.119,0c.281.008.347.01.44.316L4.78.815a3.207,3.207,0,0,0,.154.437A2.867,2.867,0,0,0,5.6,2.11c.07.069.141.14.208.209a2,2,0,0,1,.02.87,3.345,3.345,0,0,0-.025.349c0,.064.013.163.026.276a1.785,1.785,0,0,1,0,.786.823.823,0,0,1-.236.113,1.173,1.173,0,0,0-.246.113,1.3,1.3,0,0,0-.423.532,1.785,1.785,0,0,0-.123.385Zm1.4-1.036c0-.216-.005-.432-.009-.647-.005-.3-.011-.608-.009-.912,0-.072.008-.158.016-.249a1.471,1.471,0,0,0-.051-.739L6.13,2.125l0-.007L6.1,2.135h0l0-.053c-.071-.075-.143-.147-.213-.217a2.7,2.7,0,0,1-.59-.745A1.916,1.916,0,0,1,5.177.755,1.629,1.629,0,0,0,5.033.334C4.884.077,4.722.065,4.453.047l-.046,0C3.991.014,3.538,0,3.024,0c-.293,0-.585,0-.875.011-.112,0-.226,0-.342,0h-.26a5.784,5.784,0,0,0-1.4.122A.2.2,0,0,0,0,.287.163.163,0,0,0,.059.453,3.654,3.654,0,0,1,1.3,3.634,4.076,4.076,0,0,1,.824,5.371a2.751,2.751,0,0,1-.287.4A2.082,2.082,0,0,0,.185,6.3a.188.188,0,0,0,.088.217,2.777,2.777,0,0,0,1.17.19c.27,0,.543-.015.807-.03.234-.014.457-.026.685-.026h0c.144,0,.318.014.5.029.224.017.478.037.718.037a1.893,1.893,0,0,0,.807-.135.186.186,0,0,0,.1-.164,1.506,1.506,0,0,1,1-1.534.193.193,0,0,0,.135-.181" transform="translate(11.26 6.269) rotate(-7)" fill="#242a39" stroke="#242a39" stroke-width="0.2"/>
      <path id="path82" d="M4.575,4a4.212,4.212,0,0,0,.609,1.765c.044.069.09.129.128.18.068.09.122.162.107.2s-.1.074-.269.106a2.41,2.41,0,0,1-.45.035c-.108,0-.218,0-.326-.008s-.209-.007-.309-.007L3.4,6.281c-.313,0-.626.009-.938.009-.156,0-.312,0-.467,0h-.12c-.238,0-.263,0-.37-.222a1.216,1.216,0,0,1-.08-.3,1.415,1.415,0,0,0-.081-.306,1.565,1.565,0,0,0-.4-.586,1.117,1.117,0,0,0-.281-.134A.793.793,0,0,1,.391,4.6a1.443,1.443,0,0,1-.009-.694C.4,3.8.408,3.7.41,3.63c0-.089-.01-.223-.024-.379A2.408,2.408,0,0,1,.4,2.326c.073-.076.145-.147.215-.217a2.8,2.8,0,0,0,.661-.855A3.262,3.262,0,0,0,1.433.815L1.457.734C1.55.428,1.616.426,1.9.418l.119,0C2.5.393,2.98.382,3.445.382c.162,0,.324,0,.484,0l.2,0,.545,0a7.131,7.131,0,0,1,.936.048A4.212,4.212,0,0,0,4.575,4ZM6.072.137A5.869,5.869,0,0,0,4.652.02c-.154,0-.306,0-.454,0C3.867.006,3.534,0,3.2,0,2.686,0,2.23.015,1.806.045l-.052,0c-.246.017-.423.029-.565.268a1.265,1.265,0,0,0-.121.377A1.75,1.75,0,0,1,1,.945a2.594,2.594,0,0,1-.678.924c-.069.07-.139.14-.224.234l-.027.045A1.5,1.5,0,0,0,.02,2.9c.008.092.015.177.016.249,0,.3,0,.608-.009.912,0,.215-.008.431-.009.647a.193.193,0,0,0,.135.181,1.506,1.506,0,0,1,1,1.534.186.186,0,0,0,.095.164,1.9,1.9,0,0,0,.809.135c.241,0,.5-.02.721-.037.185-.014.357-.028.531-.029.2,0,.428.013.665.027.263.015.536.031.8.031h0A2.765,2.765,0,0,0,5.94,6.521.188.188,0,0,0,6.028,6.3a2.067,2.067,0,0,0-.352-.534,2.741,2.741,0,0,1-.287-.4,4.109,4.109,0,0,1-.471-1.738A3.612,3.612,0,0,1,6.153.454.162.162,0,0,0,6.208.288.2.2,0,0,0,6.072.137" transform="translate(1.26 7.496) rotate(-7)" fill="#242a39" stroke="#242a39" stroke-width="0.2"/>
      <path id="path84" d="M.694.1A.207.207,0,0,0,.521,0a.165.165,0,0,0-.15.1A7.912,7.912,0,0,0,.013.9a.161.161,0,0,0,.014.153.2.2,0,0,0,.163.079.194.194,0,0,0,.185-.126A7.146,7.146,0,0,1,.7.283.182.182,0,0,0,.694.1" transform="translate(2.82 8.134) rotate(-7)" fill="#2e2d2d"/>
      <path id="path86" d="M.579,0A.185.185,0,0,0,.453.051,3.424,3.424,0,0,0,.038.509.153.153,0,0,0,.016.677.211.211,0,0,0,.2.784.194.194,0,0,0,.359.706,2.92,2.92,0,0,1,.717.319.165.165,0,0,0,.766.131.209.209,0,0,0,.579,0" transform="translate(3.431 8.507) rotate(-7)" fill="#2e2d2d"/>
      <path id="_8726174_rupee_sign_icon" data-name="8726174_rupee_sign_icon" d="M2.7.9H2.2A1.234,1.234,0,0,0,1.977.449H2.7A.225.225,0,1,0,2.7,0H.226a.225.225,0,1,0,0,.449h.786A.786.786,0,0,1,1.721.9H.226a.225.225,0,1,0,0,.449H1.8a.786.786,0,0,1-.775.674h-.8a.157.157,0,0,0-.031,0,.146.146,0,0,0-.045,0,.155.155,0,0,0-.043.022L.08,2.061h0A.169.169,0,0,0,.049,2.1a.247.247,0,0,0-.02.031.137.137,0,0,0,0,.04A.146.146,0,0,0,0,2.247H0a.157.157,0,0,0,0,.031.146.146,0,0,0,0,.045.155.155,0,0,0,.022.043.033.033,0,0,0,.016.027L1.388,3.966a.225.225,0,0,0,.342-.292L.716,2.472h.3A1.236,1.236,0,0,0,2.249,1.348H2.7A.225.225,0,1,0,2.7.9Z" transform="matrix(0.995, -0.105, 0.105, 0.995, 8.488, 8.424)" fill="#242a39"/>
      <g id="Group_3574" data-name="Group 3574" transform="translate(17.887 0.897) rotate(-14)">
        <line id="Line_86" data-name="Line 86" y1="2.108" x2="2.529" transform="translate(0.738 0.422)" fill="none" stroke="#242a39" stroke-linecap="round" stroke-width="0.8"/>
        <line id="Line_87" data-name="Line 87" y1="1.791" x2="0.632" transform="translate(0 0)" fill="none" stroke="#242a39" stroke-linecap="round" stroke-width="0.8"/>
        <path id="Path_417" data-name="Path 417" d="M0,.632,2.257,0" transform="translate(1.449 2.898)" fill="none" stroke="#242a39" stroke-linecap="round" stroke-width="0.8"/>
      </g>
    </g>
    <g id="Group_3572" data-name="Group 3572" transform="translate(1.097 19.32)" style="isolation: isolate">
      <g id="Group_9" data-name="Group 9" transform="translate(0 0)">
        <g id="Group_7" data-name="Group 7" transform="translate(0 0.342)">
          <path id="Path_31" data-name="Path 31" d="M667.066,180.786s4.969-1.549,6.819-1.85a33.573,33.573,0,0,0,5.335-1.764,27.423,27.423,0,0,1,1.248,3.313c.387,1.42,1.893,4.991,1.893,4.991s-8.045,4.689-11.143,6.884a2.843,2.843,0,0,1-.518-1.079c-.185-.5-.343-1.012-.478-1.529l-.077-.1a1.085,1.085,0,0,1-.141-.258,2.05,2.05,0,0,1-.493-.772,11.835,11.835,0,0,1-.5-1.184l-.046-.116a3.544,3.544,0,0,1-.165-.4,4.432,4.432,0,0,1-.409-1.1c-.162-.255-.344-.495-.483-.765a4.543,4.543,0,0,1-.411-1.144,2.391,2.391,0,0,1-.045-.572c-.032-.092-.065-.193-.1-.308A4.486,4.486,0,0,1,667.066,180.786Z" transform="translate(-667.027 -173.784)" fill="none" fill-rule="evenodd"/>
          <path id="Path_32" data-name="Path 32" d="M454.7,154.306a.4.4,0,0,1,.139-.285c.12-.113.193-.265.3-.382.3-.321.49-.717.8-1.05a.377.377,0,0,0,.373-.178,1.232,1.232,0,0,1,.185-.183.554.554,0,0,1,.4-.2c0-.054.015-.1,0-.134a.665.665,0,0,1-.12-.365.149.149,0,0,0-.055-.113c-.164-.1-.29-.258-.493-.293a3.937,3.937,0,0,0-1.838.073,4.817,4.817,0,0,0-.532.243c-.128.057-.26.107-.39.16a.9.9,0,0,0-.152.058c-.4.259-.843.453-1.222.749a1.815,1.815,0,0,0-.172.149,3.559,3.559,0,0,1-1.452.964c-.029.009-.051.038-.093.071a.856.856,0,0,0,.135.085,3.627,3.627,0,0,1,.775.414,1.261,1.261,0,0,1,.4.423.317.317,0,0,0,.067.11c.193.14.2.374.3.564.067.6.083.977-.487,1.329a.779.779,0,0,1-.506.182,5.405,5.405,0,0,1-1.491.111c-.239,0-.478,0-.718,0a1.069,1.069,0,0,1-.541-.085.248.248,0,0,0-.126-.026,3.516,3.516,0,0,1-1.049-.184,2.65,2.65,0,0,0-.928-.129,1.614,1.614,0,0,1-.42-.043c-.181-.03-.36-.073-.54-.106-.029-.006-.079,0-.092.015a.313.313,0,0,1-.381.1,2.675,2.675,0,0,0-.745-.054,1.046,1.046,0,0,1-.416-.061.7.7,0,0,0-.256-.032c-.272,0-.544,0-.816,0a1.135,1.135,0,0,0-.543.078.633.633,0,0,1-.16.024,1.832,1.832,0,0,0-.313.073,1.736,1.736,0,0,1-.695.155.873.873,0,0,0-.258.033,4.481,4.481,0,0,1-1.06.059c-.04-.084.011-.118.047-.153s.09-.062.128-.1a.712.712,0,0,1,.524-.208,7.283,7.283,0,0,0,.808-.09.215.215,0,0,0,.063-.015,5.356,5.356,0,0,1,.936-.254.9.9,0,0,1,.223-.033q.6,0,1.207,0a.529.529,0,0,1,.223.032,1.164,1.164,0,0,0,.541.085c.315,0,.631.006.946,0a2.718,2.718,0,0,1,.775.077.954.954,0,0,0,.322.034,3.054,3.054,0,0,1,.931.116c.21.05.414.121.623.174a.9.9,0,0,0,.2,0c-.016-.131-.039-.246-.042-.36a1.476,1.476,0,0,0-.062-.315,1.053,1.053,0,0,1,.063-.573c.013-.041.048-.075.057-.116a.923.923,0,0,1,.729-.665,3.475,3.475,0,0,1,1.325-.1,1.144,1.144,0,0,1,.681.28.82.82,0,0,1,.111.176c-.132.022-.207-.057-.3-.074s-.19-.04-.286-.058a1.633,1.633,0,0,0-.255-.038c-.217,0-.435,0-.653,0a1.555,1.555,0,0,0-.743.213.468.468,0,0,0-.261.351c-.02.147-.072.289-.1.438a1.143,1.143,0,0,0,.1.625.479.479,0,0,0,.467.341c.544,0,1.088.011,1.632,0a2.435,2.435,0,0,0,.642-.1.917.917,0,0,0,.5-.343.382.382,0,0,0,.069-.178,1.2,1.2,0,0,0-.254-.94,1.761,1.761,0,0,0-1.035-.795,4.929,4.929,0,0,1-.817-.4.481.481,0,0,0-.3-.107,1.019,1.019,0,0,1-.444-.088,3.788,3.788,0,0,0-.79-.191,1.52,1.52,0,0,1-.348-.084c-.314-.122-.65-.173-.957-.313a.523.523,0,0,0-.22-.049,2.681,2.681,0,0,1-.857-.178,1.864,1.864,0,0,0-.7-.151.519.519,0,0,1-.189-.043c-.238-.077-.478-.148-.71-.241-.322-.129-.639-.273-.954-.417a1.677,1.677,0,0,1-.538-.362,1.259,1.259,0,0,0-.72-.332,9.73,9.73,0,0,0-.991-.176,3.051,3.051,0,0,0-1.133.044,2.563,2.563,0,0,1-.481.075,3.575,3.575,0,0,0-.907.256c-.387.141-.769.3-1.151.453a1.591,1.591,0,0,0-.552.336,1.688,1.688,0,0,1-.6.328,1.423,1.423,0,0,0-.361.211,1.8,1.8,0,0,1-.4.217c-.348.152-.7.3-1.051.439a2.721,2.721,0,0,1-.306.111,3.94,3.94,0,0,0-.742.241.553.553,0,0,1-.222.037c-.152.005-.3,0-.457,0a1,1,0,0,0-.38.063,1.26,1.26,0,0,1-.383.045,1.079,1.079,0,0,0-.478.071.593.593,0,0,1-.256.026c-.206,0-.413-.005-.62,0-.226,0-.26.051-.211.281a.88.88,0,0,0,.149.357.774.774,0,0,1,.144.491,2.246,2.246,0,0,0,.052.418c.048.267.1.533.154.8.017.085.042.168.061.252a.923.923,0,0,1,.046.221,4.858,4.858,0,0,0,.21,1.279c.055.23.122.458.183.687a.175.175,0,0,1,.008.064,2.88,2.88,0,0,0,.149.793,1.983,1.983,0,0,0,.493.027.924.924,0,0,0,.475-.079.6.6,0,0,1,.256-.029q.653,0,1.305.01a.664.664,0,0,1,.257.033,1.219,1.219,0,0,0,.512.07l.946.009a.8.8,0,0,1,.38.072.533.533,0,0,0,.219.043.711.711,0,0,1,.314.068.477.477,0,0,0,.249.05.784.784,0,0,1,.513.173c.1.066.192.141.3.221a1.764,1.764,0,0,1,.794.081,5.511,5.511,0,0,1,1.051.207,3.3,3.3,0,0,0,.768.132.861.861,0,0,1,.219.055,1.09,1.09,0,0,0,.219.051,1.29,1.29,0,0,1,.348.068,1.363,1.363,0,0,0,.354.039,1.352,1.352,0,0,1,.48.072,1.208,1.208,0,0,0,.287.038,1.944,1.944,0,0,1,.416.066,2.752,2.752,0,0,0,.512.089.283.283,0,0,0,.158-.018,1.09,1.09,0,0,1,.479-.076.533.533,0,0,0,.193-.022,1.461,1.461,0,0,1,.513-.074.812.812,0,0,0,.191-.034,9.279,9.279,0,0,1,1-.255,6.356,6.356,0,0,0,1.491-.547c.231-.094.444-.229.671-.333.514-.236.988-.549,1.494-.8q.994-.492,1.944-1.061c.065-.039.135-.071.2-.105a1.263,1.263,0,0,0,.174-.089c.272-.2.545-.393.808-.6a5.139,5.139,0,0,1,.81-.6,1.837,1.837,0,0,0,.21-.154c.309-.22.628-.426.925-.661a4.388,4.388,0,0,0,.737-.647c-.123-.115-.24-.233-.181-.421Z" transform="translate(-411.021 -150.905)" fill="none" fill-rule="evenodd"/>
          <path id="Path_33" data-name="Path 33" d="M632.307,172.367a.729.729,0,0,0,.519-.081,5.727,5.727,0,0,1,.993-.406c.224-.079.444-.174.664-.266.32-.134.639-.271.958-.408a.6.6,0,0,0,.205-.093,1.28,1.28,0,0,1,.533-.3.737.737,0,0,0,.246-.153,1.073,1.073,0,0,1,.467-.315.778.778,0,0,0-.054-.494c-.121-.394-.24-.789-.367-1.181-.06-.186-.144-.364-.2-.55a2.454,2.454,0,0,1-.159-.628c-.008-.227-.066-.45-.059-.67a3.824,3.824,0,0,0-.143-.895,13.146,13.146,0,0,0-.357-1.452c-.148-.458-.163-.94-.3-1.4a1.128,1.128,0,0,1-.031-.258,1.138,1.138,0,0,0-.175-.619,1.376,1.376,0,0,0-.946-.013c-.552.159-1.112.295-1.668.44a.563.563,0,0,1-.158.033,4.177,4.177,0,0,0-.8.13,4.364,4.364,0,0,0-.713.217,6.657,6.657,0,0,0-.822.3,2.317,2.317,0,0,1-.4.126.4.4,0,0,0-.3.546c.114.372.215.747.336,1.116.067.206.164.4.244.6.056.141.1.286.16.426a2.721,2.721,0,0,0,.222.505.632.632,0,0,1,.086.274,1.329,1.329,0,0,0,.24.7.341.341,0,0,1,.074.177,4.766,4.766,0,0,0,.324,1.119,1.976,1.976,0,0,0,.106.3,3.518,3.518,0,0,0,.246.528.849.849,0,0,1,.178.481,2.212,2.212,0,0,0,.07.416.627.627,0,0,0,.076.214,7.758,7.758,0,0,1,.575,1.238C632.213,172.182,632.264,172.278,632.307,172.367Zm2.144-2.118,0,.018a2.221,2.221,0,0,1-.405-.085,3.329,3.329,0,0,1-.421-.24.747.747,0,0,1-.382-.671,2.487,2.487,0,0,1,.11-.5.538.538,0,0,1,.438-.424.754.754,0,0,1,.225-.013,1.178,1.178,0,0,0,.542-.044.227.227,0,0,1,.241.053c.09.076.2.133.292.2a.248.248,0,0,1,.087.093,4.924,4.924,0,0,1,.192.482.669.669,0,0,1-.1.618c-.057.079-.112.159-.162.243a.559.559,0,0,1-.426.263A2.173,2.173,0,0,1,634.451,170.248Z" transform="translate(-616.703 -160.664)" fill="none" fill-rule="evenodd"/>
          <path id="Path_34" data-name="Path 34" d="M462.029,152.678a.589.589,0,0,0-.172-.059c-.314,0-.628,0-.943,0a.282.282,0,0,0-.125.031q-.386.206-.769.418a7.124,7.124,0,0,1-.777.524.114.114,0,0,0-.054.035,2.954,2.954,0,0,1-.7.613c-.008.007-.021.011-.026.02a.611.611,0,0,1-.43.3c-.013,0-.019.035-.038.073.28-.009.477.178.7.283a2.067,2.067,0,0,1,.249-.221,1.36,1.36,0,0,1,.27-.109,2.885,2.885,0,0,0,1.015-.689,4.92,4.92,0,0,1,1.087-.761c.227-.126.451-.257.676-.387C462.01,152.744,462.013,152.716,462.029,152.678Z" transform="translate(-419.732 -152.396)" fill="#fff" fill-rule="evenodd"/>
          <path id="Path_35" data-name="Path 35" d="M428.617,163.13l.27.133c.032-.01.046-.01.052-.016a6.678,6.678,0,0,0,.471-.476.664.664,0,0,1,.15-.17.744.744,0,0,0,.37-.434c.009-.036.055-.066.089-.092a2.1,2.1,0,0,0,.622-.859.714.714,0,0,0,.047-.413c-.006-.04-.062-.072-.116-.13a1.245,1.245,0,0,1-.423.42,4.148,4.148,0,0,0-.436.435.8.8,0,0,1-.132.141,3.188,3.188,0,0,0-.54.515.886.886,0,0,0-.245.448A4.365,4.365,0,0,1,428.617,163.13Z" transform="translate(-384.612 -159.414)" fill="#fff" fill-rule="evenodd"/>
          <path id="Path_36" data-name="Path 36" d="M481.082,155.257a1.2,1.2,0,0,0-.815-.1c-.117.015-.223.124-.332.193-.091.057-.176.126-.272.175a.646.646,0,0,0-.267.226.5.5,0,0,1-.2.163c-.174.086-.354.16-.535.233a.98.98,0,0,0-.488.343c.133.031.245.06.357.083a2.094,2.094,0,0,1,.287.051.539.539,0,0,0,.517-.1,3.789,3.789,0,0,1,.354-.221,1.744,1.744,0,0,0,.352-.274c.163-.154.387-.238.5-.449.037-.067.137-.1.211-.143C480.851,155.385,480.944,155.335,481.082,155.257Z" transform="translate(-441.387 -154.585)" fill="#fff" fill-rule="evenodd"/>
          <path id="Path_37" data-name="Path 37" d="M644.954,213.809c.083-.11.174-.218.25-.335a.453.453,0,0,0-.123-.607.93.93,0,0,0-.17-.093,2.873,2.873,0,0,1-.27-.108.682.682,0,0,0-.538-.015.224.224,0,0,0-.138.123,1.292,1.292,0,0,0-.1.506.354.354,0,0,0,.174.3,2.964,2.964,0,0,0,.431.228A.941.941,0,0,0,644.954,213.809Z" transform="translate(-626.949 -204.644)" fill="#ffda58" fill-rule="evenodd"/>
        </g>
        <g id="Group_8" data-name="Group 8" transform="translate(0.471 0)">
          <path id="Path_38" data-name="Path 38" d="M437.41,152.229a2.348,2.348,0,0,1,.056.325,1.087,1.087,0,0,0,.126.5,7.265,7.265,0,0,1,.367,1.009,3.072,3.072,0,0,0,.279.691.488.488,0,0,1,.047.186,2.371,2.371,0,0,0,.247.771,1.986,1.986,0,0,1,.171.623,1.273,1.273,0,0,0,.1.3c.086.185.138.386.21.578a3.247,3.247,0,0,0,.211.509,3.491,3.491,0,0,1,.351.936,4.686,4.686,0,0,0,.315.784c.1.226.185.459.271.7-.047.031-.082.057-.119.078-1.858,1.044-3.409,1.849-5.515,3.073a20.445,20.445,0,0,0-3.667,2.779,1.467,1.467,0,0,0-.239.264c-.07.092-.017.161.071.216,3.191-2.028,6.346-4.117,9.641-6.007.045.141.071.246.113.344a.209.209,0,0,0,.294.116.261.261,0,0,0,.083-.051,3.306,3.306,0,0,1,1.165-.623c.4-.167.821-.277,1.213-.471.311-.154.64-.268.961-.4a.4.4,0,0,0,.144-.074,1.262,1.262,0,0,1,.53-.305.524.524,0,0,0,.145-.074,2.367,2.367,0,0,1,.638-.437.218.218,0,0,0,.115-.219,1.206,1.206,0,0,0-.1-.626,1.205,1.205,0,0,1,.193-.042c.13-.006.261,0,.391-.005a.531.531,0,0,0,.223-.031,1.016,1.016,0,0,1,.508-.079h.783a1.36,1.36,0,0,1,.577.069.563.563,0,0,0,.225.023c.326,0,.653,0,.979-.008a.893.893,0,0,1,.506.077.416.416,0,0,0,.191.027,1.008,1.008,0,0,1,.284.052,2.342,2.342,0,0,0,.421.054.615.615,0,0,0,.358.182,9.067,9.067,0,0,1,.874.259,2.068,2.068,0,0,0,.541.107,1.653,1.653,0,0,1,.477.094,6.045,6.045,0,0,0,.857.185c.179.038.359.075.538.11a2.733,2.733,0,0,1,.506.1.557.557,0,0,0,.193.02,1.617,1.617,0,0,1,.642.076.548.548,0,0,0,.258.013,1,1,0,0,1,.537.1c.049.023.1.038.151.061a.723.723,0,0,0,.659.024.15.15,0,0,1,.061-.021c.295,0,.577-.095.867-.116.153-.011.3-.053.446-.074a5.255,5.255,0,0,0,1-.369,18.6,18.6,0,0,0,2.878-1.3c.512-.288,1.039-.544,1.553-.826q.886-.486,1.753-1.005a4.464,4.464,0,0,0,.707-.521,3.329,3.329,0,0,1,.676-.509,2.134,2.134,0,0,0,.261-.2c.3-.22.585-.449.89-.653a2.972,2.972,0,0,0,.627-.46c.077-.087.207-.127.282-.215a.935.935,0,0,1,.273-.27c.115-.225.389-.312.483-.558a.36.36,0,0,1,.084-.1c.228-.247.461-.489.683-.741a4.827,4.827,0,0,0,.356-.464,1.3,1.3,0,0,0,.119-.265c.016-.04.005-.094.028-.126.207-.293,0-.5-.141-.724a1.027,1.027,0,0,1-.085-.132c-.1-.239-.2-.48-.3-.72-.012-.03-.025-.072-.049-.082-.169-.073-.278-.234-.468-.283a5.857,5.857,0,0,0-1.525-.083.645.645,0,0,0-.361.131c-.22.168-.482.105-.719.168-.034.009-.081-.023-.12-.04a2.741,2.741,0,0,0-.886-.175,2.152,2.152,0,0,0-1.338.307c-.119.074-.246.138-.387.217a1.954,1.954,0,0,0-1.1-.235.611.611,0,0,0-.306.09c-.219.14-.446.268-.669.4-.055.034-.126.065-.153.116a.849.849,0,0,1-.523.361,2.009,2.009,0,0,0-.607.306.574.574,0,0,1-.21.08,1.73,1.73,0,0,1-.406.094c-.126,0-.253-.078-.379-.078a4.014,4.014,0,0,1-1.2-.273.8.8,0,0,0-.253-.052,1.592,1.592,0,0,1-.54-.106,11.147,11.147,0,0,1-1.458-.561c-.214-.1-.409-.246-.62-.356-.129-.067-.218-.22-.392-.192-.121-.115-.283-.094-.429-.127-.285-.063-.57-.135-.857-.183a3.462,3.462,0,0,0-.519-.028,1.717,1.717,0,0,0-.771.09,9.107,9.107,0,0,0-.993.137,2.889,2.889,0,0,0-1.4.465,2.608,2.608,0,0,1-.341.19,2.634,2.634,0,0,0-.522.326,1.95,1.95,0,0,1-.518.268,1.292,1.292,0,0,0-.417.244,1.105,1.105,0,0,1-.31.171c-.349.15-.7.3-1.053.436-.254.1-.52.155-.775.246a2.3,2.3,0,0,1-.894.117.951.951,0,0,0-.415.061.972.972,0,0,1-.319.038,1.012,1.012,0,0,0-.569.094.184.184,0,0,1-.095.019c-.314.005-.628.013-.946,0a.769.769,0,0,1-.113-.413,1.5,1.5,0,0,0-.148-.629,2.44,2.44,0,0,1-.1-.306.229.229,0,0,0-.228-.2,3.377,3.377,0,0,0-1.127.064,17.377,17.377,0,0,1-2.215.54,7.718,7.718,0,0,0-1.317.367,12.48,12.48,0,0,1-1.392.456,2.57,2.57,0,0,0-.249.079.26.26,0,0,0-.146.394c.035.052.065.108.109.181a1.992,1.992,0,0,1-.56.335,16.381,16.381,0,0,1-1.963.6,8.163,8.163,0,0,0-1.056.33,6,6,0,0,1-.591.183c-1.22.314-3.663.937-3.663.937a1.335,1.335,0,0,1-.158.038,7.144,7.144,0,0,0-1.323.34q-.915.293-1.838.561a1.38,1.38,0,0,0-.378.184.2.2,0,0,0-.1.247.261.261,0,0,0,.267.146.247.247,0,0,0,.093-.028c.246-.151,2.49-.5,4.294-1s2.086-.527,3.054-.778c.283-.073,2.851-1.108,3.59-1.4C437.077,152.332,437.222,152.291,437.41,152.229ZM468.832,152l.138.29c-.059.188.058.306.181.421a4.388,4.388,0,0,1-.737.647c-.3.235-.615.441-.925.661a1.825,1.825,0,0,1-.21.154,5.134,5.134,0,0,0-.81.6c-.263.208-.536.4-.808.6a1.256,1.256,0,0,1-.174.089c-.068.035-.138.066-.2.105q-.951.57-1.945,1.061c-.506.25-.979.563-1.494.8-.227.1-.441.24-.671.333a6.359,6.359,0,0,1-1.491.547,9.3,9.3,0,0,0-1,.255.814.814,0,0,1-.191.034,1.461,1.461,0,0,0-.513.074.531.531,0,0,1-.193.022,1.09,1.09,0,0,0-.478.077.284.284,0,0,1-.158.018,2.755,2.755,0,0,1-.512-.089,1.947,1.947,0,0,0-.416-.066,1.211,1.211,0,0,1-.287-.038,1.354,1.354,0,0,0-.48-.072,1.361,1.361,0,0,1-.353-.039,1.293,1.293,0,0,0-.348-.068,1.091,1.091,0,0,1-.219-.051.86.86,0,0,0-.219-.055,3.3,3.3,0,0,1-.768-.132,5.517,5.517,0,0,0-1.052-.207,1.763,1.763,0,0,0-.794-.081c-.106-.08-.2-.155-.3-.221a.784.784,0,0,0-.513-.173.476.476,0,0,1-.249-.05.711.711,0,0,0-.314-.068.534.534,0,0,1-.219-.043.8.8,0,0,0-.38-.072l-.946-.009a1.218,1.218,0,0,1-.512-.07.665.665,0,0,0-.257-.033q-.652-.009-1.305-.01a.6.6,0,0,0-.256.029.924.924,0,0,1-.475.079,1.983,1.983,0,0,1-.494-.027,2.88,2.88,0,0,1-.149-.793.175.175,0,0,0-.008-.064c-.061-.229-.128-.457-.183-.687a4.86,4.86,0,0,1-.21-1.279.917.917,0,0,0-.046-.221c-.02-.084-.044-.167-.061-.252-.054-.266-.107-.532-.154-.8a2.249,2.249,0,0,1-.052-.418.775.775,0,0,0-.144-.491.882.882,0,0,1-.149-.357c-.049-.23-.015-.279.211-.281.206,0,.413.006.62,0a.593.593,0,0,0,.256-.026,1.079,1.079,0,0,1,.478-.071,1.262,1.262,0,0,0,.384-.045,1,1,0,0,1,.38-.063c.152,0,.3,0,.457,0a.552.552,0,0,0,.222-.037,3.943,3.943,0,0,1,.741-.241,2.7,2.7,0,0,0,.306-.111c.351-.144.7-.288,1.052-.439a1.8,1.8,0,0,0,.4-.217,1.421,1.421,0,0,1,.361-.211,1.689,1.689,0,0,0,.6-.328,1.59,1.59,0,0,1,.552-.336c.383-.154.764-.312,1.151-.453a3.579,3.579,0,0,1,.907-.256,2.566,2.566,0,0,0,.481-.075,3.052,3.052,0,0,1,1.133-.044,9.72,9.72,0,0,1,.991.176,1.26,1.26,0,0,1,.72.332,1.674,1.674,0,0,0,.538.363c.315.145.632.288.954.417.231.093.472.163.71.241a.519.519,0,0,0,.189.043,1.865,1.865,0,0,1,.7.151,2.68,2.68,0,0,0,.857.178.523.523,0,0,1,.22.049c.308.14.644.191.957.313a1.515,1.515,0,0,0,.348.084,3.79,3.79,0,0,1,.791.191,1.019,1.019,0,0,0,.444.088.481.481,0,0,1,.3.107,4.933,4.933,0,0,0,.817.4,1.761,1.761,0,0,1,1.035.795,1.2,1.2,0,0,1,.254.94.384.384,0,0,1-.069.178.917.917,0,0,1-.5.343,2.435,2.435,0,0,1-.642.1c-.544.014-1.088.008-1.632,0a.479.479,0,0,1-.467-.341,1.142,1.142,0,0,1-.1-.625c.027-.149.079-.291.1-.438a.467.467,0,0,1,.261-.351,1.557,1.557,0,0,1,.743-.213c.218-.007.435-.007.653,0a1.643,1.643,0,0,1,.255.038c.1.018.19.041.286.058s.166.1.3.074a.821.821,0,0,0-.111-.176,1.145,1.145,0,0,0-.681-.28,3.476,3.476,0,0,0-1.325.1.923.923,0,0,0-.729.665c-.009.041-.044.075-.057.116a1.053,1.053,0,0,0-.063.573,1.478,1.478,0,0,1,.062.315c0,.115.026.229.042.36a.894.894,0,0,1-.2,0c-.209-.054-.413-.125-.623-.174a3.054,3.054,0,0,0-.931-.116.952.952,0,0,1-.322-.034,2.715,2.715,0,0,0-.775-.077c-.315,0-.631,0-.946,0a1.162,1.162,0,0,1-.541-.085.529.529,0,0,0-.223-.032q-.6-.007-1.207,0a.9.9,0,0,0-.224.033,5.361,5.361,0,0,0-.936.254.215.215,0,0,1-.063.015,7.278,7.278,0,0,1-.808.09.712.712,0,0,0-.524.208c-.038.038-.089.062-.128.1s-.088.069-.047.153a4.479,4.479,0,0,0,1.06-.059.872.872,0,0,1,.258-.033,1.734,1.734,0,0,0,.694-.155,1.829,1.829,0,0,1,.314-.073.633.633,0,0,0,.16-.025,1.136,1.136,0,0,1,.543-.078c.272,0,.544,0,.816,0a.694.694,0,0,1,.256.032,1.044,1.044,0,0,0,.416.061,2.675,2.675,0,0,1,.745.054.313.313,0,0,0,.381-.1c.013-.018.062-.021.092-.015.18.033.359.076.54.106a1.614,1.614,0,0,0,.42.043,2.652,2.652,0,0,1,.928.129,3.516,3.516,0,0,0,1.049.184.247.247,0,0,1,.126.026,1.07,1.07,0,0,0,.541.085c.239,0,.479,0,.718,0a5.41,5.41,0,0,0,1.491-.111.779.779,0,0,0,.506-.182c.57-.352.554-.729.487-1.329-.1-.19-.106-.424-.3-.564a.313.313,0,0,1-.067-.11,1.265,1.265,0,0,0-.4-.423,3.629,3.629,0,0,0-.775-.414.855.855,0,0,1-.135-.085c.042-.033.065-.062.094-.071a3.558,3.558,0,0,0,1.452-.964,1.845,1.845,0,0,1,.172-.149c.379-.3.82-.489,1.222-.749a.887.887,0,0,1,.152-.058c.131-.052.262-.1.39-.16a4.805,4.805,0,0,1,.532-.242,3.935,3.935,0,0,1,1.838-.073c.2.035.329.195.493.293a.15.15,0,0,1,.055.113.664.664,0,0,0,.12.365c.018.029,0,.079,0,.134a.555.555,0,0,0-.4.2,1.241,1.241,0,0,0-.185.183.377.377,0,0,1-.373.178c-.312.333-.506.729-.8,1.05-.108.117-.18.269-.3.382A.4.4,0,0,0,468.832,152Zm-28.074,8.3c-.043-.089-.093-.184-.137-.283a7.755,7.755,0,0,0-.575-1.238.626.626,0,0,1-.076-.214,2.226,2.226,0,0,1-.07-.416.851.851,0,0,0-.178-.482,3.5,3.5,0,0,1-.246-.528,1.988,1.988,0,0,1-.106-.3,4.77,4.77,0,0,1-.324-1.119.341.341,0,0,0-.074-.177,1.327,1.327,0,0,1-.24-.7.632.632,0,0,0-.086-.274,2.719,2.719,0,0,1-.222-.505c-.059-.139-.1-.285-.16-.426-.08-.2-.177-.4-.244-.6-.12-.369-.222-.745-.336-1.116a.4.4,0,0,1,.3-.546,2.323,2.323,0,0,0,.4-.126,6.668,6.668,0,0,1,.822-.3,4.36,4.36,0,0,1,.713-.217,4.177,4.177,0,0,1,.8-.13.56.56,0,0,0,.158-.033c.557-.145,1.116-.281,1.668-.44a1.375,1.375,0,0,1,.946.013,1.136,1.136,0,0,1,.175.619,1.118,1.118,0,0,0,.031.258c.14.457.155.939.3,1.4a13.182,13.182,0,0,1,.357,1.452,3.834,3.834,0,0,1,.143.895c-.007.221.051.443.059.67a2.449,2.449,0,0,0,.159.628c.058.186.142.364.2.55.127.392.246.787.367,1.181a.78.78,0,0,1,.054.494,1.068,1.068,0,0,0-.467.315.74.74,0,0,1-.247.153,1.281,1.281,0,0,0-.533.3.6.6,0,0,1-.205.093c-.319.136-.638.274-.958.408-.22.092-.439.187-.664.266a5.735,5.735,0,0,0-.993.406A.729.729,0,0,1,440.758,160.3Zm26.694-11.42c-.017.038-.02.066-.034.075-.224.131-.449.261-.676.387a4.92,4.92,0,0,0-1.087.761,2.886,2.886,0,0,1-1.014.689,1.363,1.363,0,0,0-.27.109,2.082,2.082,0,0,0-.249.222c-.226-.106-.423-.293-.7-.284.019-.038.026-.07.038-.073a.611.611,0,0,0,.43-.3c0-.009.017-.013.026-.02a2.957,2.957,0,0,0,.7-.613.114.114,0,0,1,.054-.035,7.121,7.121,0,0,0,.777-.524q.383-.213.769-.418a.282.282,0,0,1,.125-.031c.314,0,.628-.007.943,0A.59.59,0,0,1,467.452,148.877Zm1.708,3.434a4.375,4.375,0,0,0,.179-.5.886.886,0,0,1,.245-.448,3.188,3.188,0,0,1,.54-.515.789.789,0,0,0,.132-.141,4.158,4.158,0,0,1,.436-.435,1.245,1.245,0,0,0,.423-.42c.054.058.11.09.116.13a.712.712,0,0,1-.047.413,2.1,2.1,0,0,1-.622.859c-.034.026-.08.056-.089.092a.744.744,0,0,1-.369.434.664.664,0,0,0-.15.17,6.694,6.694,0,0,1-.471.476c-.006.007-.02.007-.052.016Zm-4.312-3.044c-.138.078-.231.128-.32.182-.074.044-.174.077-.211.143-.118.211-.342.294-.5.449a1.741,1.741,0,0,1-.352.274,3.778,3.778,0,0,0-.353.221.54.54,0,0,1-.517.1,2.094,2.094,0,0,0-.287-.051c-.112-.023-.224-.052-.357-.083a.979.979,0,0,1,.488-.343c.18-.072.361-.147.535-.233a.5.5,0,0,0,.2-.163.646.646,0,0,1,.267-.226c.1-.049.181-.118.272-.175.109-.069.215-.178.332-.193A1.2,1.2,0,0,1,464.848,149.267Z" transform="translate(-425.625 -148.252)" fill="#242a39" stroke="#242a39" stroke-width="0.3" fill-rule="evenodd"/>
          <path id="Path_39" data-name="Path 39" d="M642.172,211.83a2.181,2.181,0,0,0,.227-.011.56.56,0,0,0,.426-.263c.05-.083.1-.164.162-.243a.669.669,0,0,0,.1-.618,4.82,4.82,0,0,0-.193-.481.248.248,0,0,0-.087-.093c-.1-.07-.2-.127-.292-.2a.227.227,0,0,0-.241-.053,1.179,1.179,0,0,1-.542.044.756.756,0,0,0-.225.013.539.539,0,0,0-.438.424,2.491,2.491,0,0,0-.11.5.747.747,0,0,0,.382.671,3.35,3.35,0,0,0,.421.24,2.22,2.22,0,0,0,.405.086Zm.257-.419a.941.941,0,0,1-.49,0,2.964,2.964,0,0,1-.431-.228.354.354,0,0,1-.174-.3,1.3,1.3,0,0,1,.1-.506.225.225,0,0,1,.138-.123.683.683,0,0,1,.538.015,2.879,2.879,0,0,0,.27.108.917.917,0,0,1,.17.093.453.453,0,0,1,.123.607C642.6,211.193,642.511,211.3,642.428,211.41Z" transform="translate(-624.895 -201.904)" fill="#242a39" stroke="#242a39" stroke-width="0.4" fill-rule="evenodd"/>
        </g>
      </g>
    </g>
  </g>
</svg>
