<svg xmlns="http://www.w3.org/2000/svg" xmlns:xlink="http://www.w3.org/1999/xlink" width="80.128" height="73.314" viewBox="0 0 80.128 73.314"><defs><linearGradient id="a" x1="0.237" y1="0.051" x2="0.726" y2="0.935" gradientUnits="objectBoundingBox"><stop offset="0" stop-color="#9e8bff"/><stop offset="1" stop-color="#5775ff"/></linearGradient></defs><g transform="translate(0 0.653)"><path d="M29.27,19.021C47.633,9.507,64.684,17.341,64.684,35.2A32.344,32.344,0,0,1,32.34,67.547C14.477,67.547.764,47.335,0,35.2S10.907,28.534,29.27,19.021Z" transform="translate(0.039 5.114)" opacity="0.1" fill="url(#a)"/><g transform="matrix(0.995, -0.105, 0.105, 0.995, 38.605, 2.928)"><path d="M27.832,14.087c-.506-.016-1.012-.023-1.519-.023-1.131,0-2.28.034-3.392.068-1.031.031-2.1.063-3.147.067H19.6c-1.34,0-2.686-.066-3.989-.131-.276-.013-.553-.018-.829-.018-.419,0-.837.012-1.256.023s-.835.024-1.253.024c-.22,0-.44,0-.66-.012-.557-.021-1.113-.029-1.669-.029-1.007,0-2.029.027-3.018.054s-2.011.054-3.019.054H3.547c-.791-.005-1.6-.041-2.409-.106l-.118-.009c-.187-.014-.3-.023-.331-.06s-.02-.125-.005-.277c.008-.082.017-.182.024-.3L.731,13c.043-.744.087-1.512.1-2.276.022-1.576.029-3.2.02-4.833C.842,4.953.823,4.237.785,3.564.778,3.44.768,3.3.757,3.161A5.435,5.435,0,0,1,.888.871,1.717,1.717,0,0,1,1.673.765c.218,0,.449.009.656.017.172.007.328.013.448.013.062,0,.116,0,.157-.006l.2-.019C3.5.735,3.847.7,4.206.7q.174,0,.353.012c.371.025.77.038,1.221.038C6.332.75,6.887.732,7.441.714,7.886.7,8.331.685,8.772.68,11.448.649,14.157.634,16.824.634h1.285c3.1.006,6.246.032,9.336.079h.11c.185,0,.377-.006.569-.013s.39-.013.584-.013a4.582,4.582,0,0,1,.8.059c.1.017.184.025.264.032.276.025.443.041.6.375a2.308,2.308,0,0,1,.045.9c-.01.147-.019.283-.016.389.038,1.636.062,3.315.071,4.991.008,1.492,0,2.995-.013,4.466,0,.156.007.323.017.494.04.719.082,1.462-.655,1.69a2.276,2.276,0,0,1-.665.079c-.265,0-.544-.024-.805-.045-.187-.015-.365-.03-.521-.035Zm3.279-5.073c0-1.472-.01-2.976-.033-4.468q-.017-1.051-.041-2.1c0-.131,0-.288.012-.456A3.279,3.279,0,0,0,30.955.721c-.194-.469-.458-.53-.908-.6A12.666,12.666,0,0,0,28.163.006c-.432,0-.867.012-1.3.024s-.843.023-1.252.023h-.24C22.556.017,19.675,0,16.807,0h-.255c-3.178,0-6.407.024-9.6.069l-.211,0C6.4.07,6.05.06,5.7.049S5,.027,4.652.027a10.647,10.647,0,0,0-1.1.05A8.746,8.746,0,0,1,2.661.11H2.254A6.871,6.871,0,0,0,.956.2,1.214,1.214,0,0,0,.578.339.287.287,0,0,0,.4.453L.434.5H.37A.211.211,0,0,0,.333.589,5.9,5.9,0,0,0,.141,3.4c.023.265.046.521.057.761C.257,5.411.24,6.686.224,7.92q-.009.6-.013,1.188l0,.5c0,.9-.01,1.833-.065,2.747-.011.17-.036.36-.062.558a3.737,3.737,0,0,0-.009,1.471.328.328,0,0,0,.3.231,42.121,42.121,0,0,0,4.459.207c1.385,0,2.8-.044,4.16-.088s2.773-.088,4.156-.088c.894,0,1.7.018,2.463.055,1.422.07,2.863.1,4.408.1,1.148,0,2.325-.019,3.594-.057l.317-.01c.8-.025,1.629-.05,2.443-.05.364,0,.728,0,1.093.017.22.007.467.029.726.05.376.031.765.064,1.146.064a3.244,3.244,0,0,0,1.119-.158c.583-.217.6-.625.62-1.18.046-1.176.043-2.375.04-3.534l0-.934" transform="translate(0 10.995) rotate(-7)" fill="#242a39" stroke="#242a39" stroke-width="0.2"/><path d="M8.064,9.661a3.352,3.352,0,0,1-.147.505c-.161.393-.161.393-.6.4l-.083,0c-.316.008-.633.012-.95.012-.515,0-1.03-.008-1.545-.016q-.535-.01-1.07-.015c-.56,0-1.12-.013-1.68-.029-.317-.009-.616-.029-.659-.114s.094-.266.289-.547A6.88,6.88,0,0,0,2.729,6.93,7.121,7.121,0,0,0,1.01.727,12.038,12.038,0,0,1,2.587.645l.924,0,.33,0q.405-.006.811-.006c.788,0,1.6.018,2.409.053L7.26.7c.473.013.584.016.741.531l.041.139a5.4,5.4,0,0,0,.258.736A4.824,4.824,0,0,0,9.415,3.55c.118.116.237.235.35.351A3.371,3.371,0,0,1,9.8,5.364a5.628,5.628,0,0,0-.042.588c0,.108.022.274.044.465A3,3,0,0,1,9.8,7.738a1.384,1.384,0,0,1-.4.19,1.974,1.974,0,0,0-.414.19,2.192,2.192,0,0,0-.712.9,3,3,0,0,0-.208.648Zm2.358-1.743c0-.363-.008-.726-.015-1.089-.009-.511-.018-1.023-.015-1.534,0-.122.013-.265.027-.419a2.476,2.476,0,0,0-.086-1.243l-.02-.058-.006-.012-.045.028h0l0-.09c-.12-.127-.24-.247-.359-.365a4.55,4.55,0,0,1-.993-1.254,3.223,3.223,0,0,1-.2-.613A2.741,2.741,0,0,0,8.467.562C8.217.129,7.944.11,7.493.079L7.414.073C6.715.024,5.953,0,5.087,0,4.594,0,4.1.007,3.614.019c-.189,0-.381.005-.576.005H2.6A9.732,9.732,0,0,0,.237.228.332.332,0,0,0,.007.482.274.274,0,0,0,.1.762,6.149,6.149,0,0,1,2.18,6.114a6.858,6.858,0,0,1-.793,2.923A4.629,4.629,0,0,1,.9,9.7a3.5,3.5,0,0,0-.593.9.316.316,0,0,0,.148.365,4.673,4.673,0,0,0,1.969.32c.454,0,.914-.026,1.358-.051.394-.023.769-.044,1.153-.044h.005c.242,0,.534.024.848.049.377.029.8.062,1.207.062a3.184,3.184,0,0,0,1.358-.227.314.314,0,0,0,.16-.275A2.534,2.534,0,0,1,10.2,8.222a.324.324,0,0,0,.227-.3" transform="translate(18.945 10.548) rotate(-7)" fill="#242a39" stroke="#242a39" stroke-width="0.2"/><path d="M7.7,6.731A7.087,7.087,0,0,0,8.722,9.7c.074.116.151.217.216.3.115.152.206.273.18.339s-.174.124-.452.178a4.054,4.054,0,0,1-.757.058c-.182,0-.367-.006-.549-.013s-.352-.012-.52-.012l-1.112.014c-.526.008-1.053.016-1.578.016-.262,0-.524,0-.786-.007l-.2,0c-.4,0-.443,0-.622-.374A2.047,2.047,0,0,1,2.4,9.7a2.381,2.381,0,0,0-.136-.515A2.633,2.633,0,0,0,1.6,8.2a1.88,1.88,0,0,0-.473-.226,1.335,1.335,0,0,1-.464-.235A2.427,2.427,0,0,1,.643,6.574c.023-.181.044-.346.047-.467,0-.151-.016-.376-.04-.637a4.051,4.051,0,0,1,.03-1.557c.122-.128.244-.248.361-.366A4.719,4.719,0,0,0,2.152,2.109a5.488,5.488,0,0,0,.258-.738l.041-.137C2.607.72,2.719.717,3.192.7L3.393.7C4.205.661,5.014.643,5.8.643c.272,0,.544,0,.815.006l.34,0,.917,0A12,12,0,0,1,9.443.729,7.086,7.086,0,0,0,7.7,6.731ZM10.216.23a9.875,9.875,0,0,0-2.39-.2c-.259,0-.515,0-.764-.007C6.506.011,5.946,0,5.383,0,4.52,0,3.753.025,3.038.076L2.95.081C2.537.109,2.238.129,2,.532a2.128,2.128,0,0,0-.2.635,2.944,2.944,0,0,1-.11.423A4.365,4.365,0,0,1,.545,3.144c-.117.117-.235.235-.376.394l-.045.076a2.531,2.531,0,0,0-.09,1.265c.013.154.026.3.027.42,0,.511-.006,1.023-.015,1.534C.039,7.194.032,7.557.03,7.92a.324.324,0,0,0,.227.3A2.534,2.534,0,0,1,1.935,10.8a.313.313,0,0,0,.16.275,3.194,3.194,0,0,0,1.361.227c.405,0,.834-.033,1.212-.063.312-.024.6-.047.893-.049.339,0,.72.022,1.119.045.443.026.9.052,1.352.052h0a4.652,4.652,0,0,0,1.962-.322.317.317,0,0,0,.147-.366,3.477,3.477,0,0,0-.593-.9,4.612,4.612,0,0,1-.483-.668,6.913,6.913,0,0,1-.793-2.923A6.078,6.078,0,0,1,10.352.764a.273.273,0,0,0,.092-.28A.331.331,0,0,0,10.216.23" transform="translate(2.12 12.612) rotate(-7)" fill="#242a39" stroke="#242a39" stroke-width="0.2"/><path d="M1.167.167A.349.349,0,0,0,.877,0,.278.278,0,0,0,.626.161a13.312,13.312,0,0,0-.6,1.354.271.271,0,0,0,.023.258.333.333,0,0,0,.274.133A.326.326,0,0,0,.63,1.693,12.023,12.023,0,0,1,1.176.476.306.306,0,0,0,1.167.167" transform="translate(4.744 13.686) rotate(-7)" fill="#2e2d2d"/><path d="M.973,0A.311.311,0,0,0,.762.086a5.761,5.761,0,0,0-.7.771.258.258,0,0,0-.037.282.356.356,0,0,0,.312.181A.327.327,0,0,0,.6,1.187a4.913,4.913,0,0,1,.6-.65A.277.277,0,0,0,1.288.22.352.352,0,0,0,.973,0" transform="translate(5.772 14.313) rotate(-7)" fill="#2e2d2d"/><path d="M4.54,1.512H3.7A2.076,2.076,0,0,0,3.326.756H4.54A.378.378,0,1,0,4.54,0H.381a.378.378,0,1,0,0,.756H1.7A1.323,1.323,0,0,1,2.9,1.512H.381a.378.378,0,1,0,0,.756H3.027A1.323,1.323,0,0,1,1.723,3.4H.381a.265.265,0,0,0-.053,0,.246.246,0,0,0-.076,0,.261.261,0,0,0-.072.038l-.045.026h0a.284.284,0,0,0-.053.064.416.416,0,0,0-.034.053.231.231,0,0,0,0,.068A.246.246,0,0,0,0,3.781H0a.265.265,0,0,0,0,.053.246.246,0,0,0,0,.076.261.261,0,0,0,.038.072.056.056,0,0,0,.026.045L2.336,6.673a.378.378,0,0,0,.575-.491L1.205,4.159h.5a2.079,2.079,0,0,0,2.079-1.89H4.54a.378.378,0,1,0,0-.756Z" transform="matrix(0.995, -0.105, 0.105, 0.995, 14.28, 14.174)" fill="#242a39"/><g transform="translate(30.095 1.508) rotate(-14)"><line y1="3.546" x2="4.255" transform="translate(1.241 0.709)" fill="none" stroke="#242a39" stroke-linecap="round" stroke-width="0.8"/><line y1="3.014" x2="1.064" transform="translate(0 0)" fill="none" stroke="#242a39" stroke-linecap="round" stroke-width="0.8"/><path d="M0,1.064,3.8,0" transform="translate(2.438 4.875)" fill="none" stroke="#242a39" stroke-linecap="round" stroke-width="0.8"/></g></g><g transform="translate(1.812 33.187)" style="isolation:isolate"><g transform="translate(0 0)"><g transform="translate(0 0.576)"><path d="M667.093,183.252s8.36-2.606,11.473-3.113a56.493,56.493,0,0,0,8.976-2.968,46.092,46.092,0,0,1,2.1,5.574c.651,2.389,3.185,8.4,3.185,8.4s-13.536,7.89-18.748,11.582a4.778,4.778,0,0,1-.872-1.815c-.312-.846-.577-1.7-.8-2.572q-.066-.086-.13-.174a1.832,1.832,0,0,1-.237-.434,3.455,3.455,0,0,1-.83-1.3,20.02,20.02,0,0,1-.847-1.991l-.078-.2a5.976,5.976,0,0,1-.278-.679,7.451,7.451,0,0,1-.688-1.856c-.272-.428-.579-.833-.812-1.286a7.652,7.652,0,0,1-.692-1.924,4.014,4.014,0,0,1-.076-.963c-.054-.155-.11-.326-.171-.518A7.543,7.543,0,0,1,667.093,183.252Z" transform="translate(-667.027 -171.471)" fill="none" fill-rule="evenodd"/><path d="M471.437,156.628a.671.671,0,0,1,.233-.48c.2-.19.324-.447.505-.643.5-.54.825-1.206,1.349-1.766a.634.634,0,0,0,.628-.3,2.08,2.08,0,0,1,.311-.308.932.932,0,0,1,.68-.334c0-.091.026-.176,0-.225a1.119,1.119,0,0,1-.2-.614.252.252,0,0,0-.093-.189c-.275-.165-.487-.434-.829-.492a6.622,6.622,0,0,0-3.092.123,8.1,8.1,0,0,0-.9.408c-.216.1-.437.181-.657.269a1.493,1.493,0,0,0-.255.1c-.676.436-1.419.762-2.056,1.26a3.058,3.058,0,0,0-.29.25,5.987,5.987,0,0,1-2.443,1.621c-.048.015-.086.064-.157.119a1.438,1.438,0,0,0,.227.143,6.106,6.106,0,0,1,1.3.7,2.123,2.123,0,0,1,.673.711.533.533,0,0,0,.113.186c.325.236.343.629.5.949.113,1.01.14,1.644-.819,2.236a1.311,1.311,0,0,1-.851.306,9.1,9.1,0,0,1-2.508.186c-.4,0-.8,0-1.207,0a1.8,1.8,0,0,1-.91-.143.415.415,0,0,0-.212-.043,5.916,5.916,0,0,1-1.765-.31,4.46,4.46,0,0,0-1.561-.217,2.718,2.718,0,0,1-.706-.073c-.3-.051-.605-.122-.909-.179-.05-.009-.133,0-.154.026a.527.527,0,0,1-.64.167,4.5,4.5,0,0,0-1.253-.09,1.76,1.76,0,0,1-.7-.1,1.169,1.169,0,0,0-.43-.053c-.458,0-.915,0-1.373,0a1.91,1.91,0,0,0-.913.131,1.064,1.064,0,0,1-.269.041,3.078,3.078,0,0,0-.527.122,2.919,2.919,0,0,1-1.169.261,1.471,1.471,0,0,0-.434.055,7.538,7.538,0,0,1-1.783.1c-.068-.142.019-.2.079-.257s.151-.1.215-.168a1.2,1.2,0,0,1,.882-.35,12.242,12.242,0,0,0,1.359-.151.358.358,0,0,0,.106-.026,9.018,9.018,0,0,1,1.575-.427,1.513,1.513,0,0,1,.376-.056q1.015,0,2.031.008a.891.891,0,0,1,.376.053,1.956,1.956,0,0,0,.911.143c.531,0,1.062.01,1.592,0a4.571,4.571,0,0,1,1.3.129,1.6,1.6,0,0,0,.542.057,5.138,5.138,0,0,1,1.566.2c.353.083.7.2,1.048.293a1.506,1.506,0,0,0,.34,0c-.028-.221-.065-.413-.071-.606a2.487,2.487,0,0,0-.1-.53,1.771,1.771,0,0,1,.106-.964c.022-.068.081-.127.1-.2a1.552,1.552,0,0,1,1.226-1.119,5.847,5.847,0,0,1,2.229-.17,1.926,1.926,0,0,1,1.145.471,1.376,1.376,0,0,1,.187.3c-.221.038-.348-.1-.5-.124s-.32-.068-.481-.1a2.758,2.758,0,0,0-.429-.064c-.366-.007-.732-.008-1.1,0a2.617,2.617,0,0,0-1.25.358.786.786,0,0,0-.438.59c-.034.248-.121.486-.167.737a1.921,1.921,0,0,0,.17,1.052.807.807,0,0,0,.786.574c.915.008,1.83.018,2.745,0a4.091,4.091,0,0,0,1.08-.171,1.542,1.542,0,0,0,.844-.578.644.644,0,0,0,.116-.3,2.015,2.015,0,0,0-.427-1.582,2.962,2.962,0,0,0-1.741-1.337,8.293,8.293,0,0,1-1.375-.675.81.81,0,0,0-.507-.179,1.714,1.714,0,0,1-.747-.148,6.372,6.372,0,0,0-1.33-.321,2.552,2.552,0,0,1-.585-.141c-.528-.205-1.093-.291-1.611-.526a.879.879,0,0,0-.37-.082,4.511,4.511,0,0,1-1.442-.3,3.137,3.137,0,0,0-1.171-.254.874.874,0,0,1-.318-.072c-.4-.13-.8-.248-1.194-.405-.542-.217-1.075-.459-1.605-.7a2.82,2.82,0,0,1-.9-.61,2.119,2.119,0,0,0-1.212-.559,16.363,16.363,0,0,0-1.667-.3,5.134,5.134,0,0,0-1.906.075,4.312,4.312,0,0,1-.809.127,6.017,6.017,0,0,0-1.526.431c-.652.237-1.293.5-1.937.762a2.677,2.677,0,0,0-.929.565,2.839,2.839,0,0,1-1,.551,2.4,2.4,0,0,0-.607.355,3.024,3.024,0,0,1-.668.365c-.586.255-1.178.5-1.769.739a4.551,4.551,0,0,1-.514.187,6.634,6.634,0,0,0-1.247.406.93.93,0,0,1-.373.062c-.256.009-.512,0-.769,0a1.674,1.674,0,0,0-.64.106,2.119,2.119,0,0,1-.645.076,1.816,1.816,0,0,0-.8.12,1,1,0,0,1-.431.044c-.347,0-.7-.009-1.043-.007-.38,0-.437.085-.354.472a1.483,1.483,0,0,0,.25.6,1.3,1.3,0,0,1,.243.826,3.778,3.778,0,0,0,.088.7c.08.449.17.9.26,1.344.028.143.07.282.1.424a1.545,1.545,0,0,1,.077.372,8.174,8.174,0,0,0,.354,2.152c.093.387.2.77.307,1.155a.291.291,0,0,1,.014.108,4.848,4.848,0,0,0,.25,1.335,3.339,3.339,0,0,0,.83.046,1.554,1.554,0,0,0,.8-.133,1,1,0,0,1,.431-.049q1.1,0,2.2.017a1.118,1.118,0,0,1,.432.056,2.051,2.051,0,0,0,.861.118l1.592.015a1.344,1.344,0,0,1,.639.122.9.9,0,0,0,.368.073,1.2,1.2,0,0,1,.528.115.8.8,0,0,0,.42.085,1.32,1.32,0,0,1,.863.291c.167.11.323.238.5.371a2.968,2.968,0,0,1,1.335.136,9.279,9.279,0,0,1,1.769.348,5.549,5.549,0,0,0,1.291.222,1.447,1.447,0,0,1,.369.092,1.837,1.837,0,0,0,.369.086,2.17,2.17,0,0,1,.586.115,2.293,2.293,0,0,0,.595.065,2.275,2.275,0,0,1,.808.121,2.032,2.032,0,0,0,.484.064,3.273,3.273,0,0,1,.7.112,4.63,4.63,0,0,0,.861.15.476.476,0,0,0,.266-.03,1.836,1.836,0,0,1,.805-.129.9.9,0,0,0,.325-.037,2.456,2.456,0,0,1,.863-.125,1.37,1.37,0,0,0,.321-.058,15.618,15.618,0,0,1,1.689-.429,10.7,10.7,0,0,0,2.508-.921c.388-.158.747-.385,1.13-.561.865-.4,1.662-.923,2.513-1.344q1.673-.827,3.271-1.785c.109-.066.227-.119.341-.177a2.1,2.1,0,0,0,.292-.15c.457-.332.917-.661,1.359-1.011a8.648,8.648,0,0,1,1.364-1.01,3.092,3.092,0,0,0,.353-.259c.52-.369,1.057-.716,1.556-1.112a7.386,7.386,0,0,0,1.241-1.088c-.207-.194-.4-.392-.3-.708Z" transform="translate(-397.951 -150.905)" fill="none" fill-rule="evenodd"/><path d="M634.421,179.367a1.226,1.226,0,0,0,.873-.137,9.636,9.636,0,0,1,1.671-.683c.378-.133.747-.293,1.117-.448.539-.225,1.075-.457,1.612-.686a1,1,0,0,0,.345-.156,2.155,2.155,0,0,1,.9-.5,1.243,1.243,0,0,0,.414-.257,1.8,1.8,0,0,1,.786-.531,1.312,1.312,0,0,0-.091-.831c-.2-.663-.4-1.328-.617-1.988-.1-.313-.243-.613-.341-.926a4.129,4.129,0,0,1-.267-1.057c-.013-.382-.111-.756-.1-1.128a6.445,6.445,0,0,0-.24-1.505,22.2,22.2,0,0,0-.6-2.443c-.249-.771-.274-1.582-.509-2.351a1.9,1.9,0,0,1-.052-.434,1.911,1.911,0,0,0-.294-1.042,2.315,2.315,0,0,0-1.592-.022c-.929.267-1.87.5-2.807.74a.946.946,0,0,1-.267.056,7.027,7.027,0,0,0-1.346.219,7.343,7.343,0,0,0-1.2.365,11.207,11.207,0,0,0-1.383.512,3.9,3.9,0,0,1-.673.213.68.68,0,0,0-.508.919c.191.625.362,1.257.565,1.878.113.346.276.675.411,1.014.094.237.169.482.269.716a4.58,4.58,0,0,0,.374.85,1.065,1.065,0,0,1,.145.46,2.234,2.234,0,0,0,.4,1.175.575.575,0,0,1,.125.3,8.027,8.027,0,0,0,.545,1.883,3.334,3.334,0,0,0,.178.512,5.913,5.913,0,0,0,.415.888,1.43,1.43,0,0,1,.3.81,3.724,3.724,0,0,0,.118.7,1.055,1.055,0,0,0,.128.36,13.052,13.052,0,0,1,.967,2.083C634.264,179.057,634.349,179.218,634.421,179.367Zm3.608-3.564c0,.01,0,.02-.007.03a3.738,3.738,0,0,1-.682-.144,5.616,5.616,0,0,1-.709-.4,1.257,1.257,0,0,1-.643-1.128,4.2,4.2,0,0,1,.185-.849.906.906,0,0,1,.737-.714,1.271,1.271,0,0,1,.379-.022,1.983,1.983,0,0,0,.912-.075.382.382,0,0,1,.405.09c.151.127.329.223.491.34a.418.418,0,0,1,.146.156,8.265,8.265,0,0,1,.324.81,1.126,1.126,0,0,1-.168,1.039c-.1.133-.188.268-.272.408a.941.941,0,0,1-.716.443A3.651,3.651,0,0,1,638.029,175.8Z" transform="translate(-608.169 -159.678)" fill="none" fill-rule="evenodd"/><path d="M464.782,152.72a.989.989,0,0,0-.289-.1c-.528-.008-1.057,0-1.586,0a.476.476,0,0,0-.21.051q-.65.346-1.294.7a11.972,11.972,0,0,1-1.307.882.192.192,0,0,0-.09.059,4.97,4.97,0,0,1-1.178,1.031c-.014.012-.035.018-.043.033a1.028,1.028,0,0,1-.724.509c-.021,0-.032.059-.064.124.47-.016.8.3,1.183.477a3.491,3.491,0,0,1,.42-.373,2.282,2.282,0,0,1,.454-.184,4.853,4.853,0,0,0,1.707-1.159,8.281,8.281,0,0,1,1.829-1.28c.382-.212.759-.432,1.137-.652C464.749,152.832,464.754,152.784,464.782,152.72Z" transform="translate(-393.618 -152.245)" fill="#fff" fill-rule="evenodd"/><path d="M428.617,164.806l.454.224c.054-.016.078-.016.088-.028a11.248,11.248,0,0,0,.792-.8,1.119,1.119,0,0,1,.252-.285,1.252,1.252,0,0,0,.622-.729c.016-.061.092-.111.15-.154a3.537,3.537,0,0,0,1.047-1.445,1.2,1.2,0,0,0,.079-.695c-.01-.067-.105-.121-.2-.219a2.1,2.1,0,0,1-.711.706,6.994,6.994,0,0,0-.733.732,1.332,1.332,0,0,1-.222.238,5.363,5.363,0,0,0-.908.867,1.489,1.489,0,0,0-.411.754A7.386,7.386,0,0,1,428.617,164.806Z" transform="translate(-354.579 -158.554)" fill="#fff" fill-rule="evenodd"/><path d="M483.063,155.344a2.015,2.015,0,0,0-1.372-.169c-.2.026-.375.209-.559.325-.153.1-.3.212-.457.294a1.087,1.087,0,0,0-.449.38.843.843,0,0,1-.329.274c-.293.145-.6.27-.9.392a1.648,1.648,0,0,0-.82.576c.224.053.412.1.6.14a3.519,3.519,0,0,1,.483.087.907.907,0,0,0,.87-.166,6.382,6.382,0,0,1,.595-.372,2.932,2.932,0,0,0,.593-.46c.275-.26.651-.4.85-.755.062-.112.231-.167.355-.241C482.675,155.559,482.831,155.475,483.063,155.344Z" transform="translate(-416.279 -154.213)" fill="#fff" fill-rule="evenodd"/><path d="M645.7,214.632c.139-.186.293-.367.42-.564a.762.762,0,0,0-.207-1.022,1.558,1.558,0,0,0-.286-.156,4.865,4.865,0,0,1-.454-.181,1.147,1.147,0,0,0-.9-.025.377.377,0,0,0-.233.207,2.174,2.174,0,0,0-.175.852.6.6,0,0,0,.292.5,4.988,4.988,0,0,0,.724.384A1.584,1.584,0,0,0,645.7,214.632Z" transform="translate(-615.409 -199.213)" fill="#ffda58" fill-rule="evenodd"/></g><g transform="translate(0.792 0)"><path d="M445.453,154.942a3.953,3.953,0,0,1,.095.547,1.828,1.828,0,0,0,.212.845,12.218,12.218,0,0,1,.618,1.7,5.169,5.169,0,0,0,.47,1.162.826.826,0,0,1,.079.312,4,4,0,0,0,.416,1.3,3.339,3.339,0,0,1,.288,1.047,2.132,2.132,0,0,0,.171.512c.144.312.232.649.353.972a5.466,5.466,0,0,0,.355.856,5.883,5.883,0,0,1,.591,1.575,7.875,7.875,0,0,0,.529,1.32c.176.38.312.772.456,1.172-.08.052-.138.1-.2.131-3.127,1.757-5.736,3.11-9.279,5.17a34.4,34.4,0,0,0-6.169,4.676,2.47,2.47,0,0,0-.4.445c-.117.155-.029.271.12.363,5.369-3.412,10.678-6.927,16.22-10.106.077.238.119.414.19.579a.351.351,0,0,0,.5.194.439.439,0,0,0,.139-.086,5.564,5.564,0,0,1,1.96-1.049c.672-.282,1.382-.465,2.041-.792.523-.259,1.077-.452,1.617-.675a.666.666,0,0,0,.242-.124,2.125,2.125,0,0,1,.892-.514.881.881,0,0,0,.243-.125,3.979,3.979,0,0,1,1.074-.734.366.366,0,0,0,.193-.369,2.027,2.027,0,0,0-.169-1.052,2.034,2.034,0,0,1,.325-.071c.219-.011.439,0,.659-.009a.893.893,0,0,0,.376-.052,1.71,1.71,0,0,1,.855-.132c.439,0,.878,0,1.317,0a2.286,2.286,0,0,1,.971.116.95.95,0,0,0,.379.039c.549,0,1.1,0,1.647-.013a1.5,1.5,0,0,1,.852.13.7.7,0,0,0,.321.045,1.694,1.694,0,0,1,.478.088,3.949,3.949,0,0,0,.709.09,1.035,1.035,0,0,0,.6.306,15.252,15.252,0,0,1,1.47.436,3.482,3.482,0,0,0,.91.18,2.781,2.781,0,0,1,.8.159,10.185,10.185,0,0,0,1.441.312c.3.064.6.126.9.185a4.6,4.6,0,0,1,.852.17.938.938,0,0,0,.325.034,2.72,2.72,0,0,1,1.079.129.923.923,0,0,0,.435.022,1.676,1.676,0,0,1,.9.176c.082.039.172.064.254.1a1.216,1.216,0,0,0,1.109.04.255.255,0,0,1,.1-.036c.5,0,.97-.159,1.46-.195.257-.019.5-.089.75-.125a8.839,8.839,0,0,0,1.689-.621,31.282,31.282,0,0,0,4.842-2.183c.861-.485,1.748-.915,2.614-1.389q1.491-.817,2.949-1.692a7.505,7.505,0,0,0,1.19-.876A5.61,5.61,0,0,1,496,158.7a3.59,3.59,0,0,0,.439-.328c.5-.369.984-.755,1.5-1.1a5,5,0,0,0,1.055-.774c.129-.146.348-.214.474-.362a1.573,1.573,0,0,1,.458-.455c.194-.379.655-.526.812-.939a.606.606,0,0,1,.141-.166c.384-.415.776-.823,1.15-1.247a8.174,8.174,0,0,0,.6-.78,2.19,2.19,0,0,0,.2-.447c.026-.067.009-.158.047-.212.348-.492,0-.843-.237-1.218a1.741,1.741,0,0,1-.142-.222c-.17-.4-.333-.807-.5-1.211-.021-.05-.043-.121-.083-.138-.284-.123-.467-.394-.787-.477a9.853,9.853,0,0,0-2.566-.139,1.086,1.086,0,0,0-.607.221c-.37.283-.811.177-1.21.283-.057.015-.136-.039-.2-.067a4.612,4.612,0,0,0-1.492-.3,3.62,3.62,0,0,0-2.25.516c-.2.125-.414.232-.651.365a3.288,3.288,0,0,0-1.856-.4,1.027,1.027,0,0,0-.514.152c-.369.235-.751.45-1.125.677-.093.056-.212.109-.258.2a1.429,1.429,0,0,1-.88.607,3.378,3.378,0,0,0-1.022.515.965.965,0,0,1-.352.134,2.9,2.9,0,0,1-.683.159c-.212,0-.425-.131-.638-.131a6.754,6.754,0,0,1-2.022-.46,1.35,1.35,0,0,0-.426-.088,2.683,2.683,0,0,1-.908-.178,18.749,18.749,0,0,1-2.453-.944c-.36-.174-.688-.415-1.043-.6-.217-.112-.366-.37-.66-.324-.2-.194-.476-.159-.721-.213-.48-.106-.958-.226-1.442-.308a5.831,5.831,0,0,0-.874-.048,2.887,2.887,0,0,0-1.3.152,15.323,15.323,0,0,0-1.671.23,4.86,4.86,0,0,0-2.357.783,4.395,4.395,0,0,1-.573.319,4.433,4.433,0,0,0-.878.549,3.284,3.284,0,0,1-.871.451,2.172,2.172,0,0,0-.7.41,1.859,1.859,0,0,1-.521.288c-.587.252-1.173.509-1.771.734-.426.161-.875.261-1.3.413a3.865,3.865,0,0,1-1.5.2,1.6,1.6,0,0,0-.7.1,1.636,1.636,0,0,1-.536.064,1.7,1.7,0,0,0-.958.157.309.309,0,0,1-.159.032c-.528.009-1.057.022-1.591,0a1.294,1.294,0,0,1-.19-.695,2.52,2.52,0,0,0-.249-1.059,4.116,4.116,0,0,1-.174-.515.386.386,0,0,0-.383-.33,5.681,5.681,0,0,0-1.9.108,29.246,29.246,0,0,1-3.726.908,12.979,12.979,0,0,0-2.216.617,21,21,0,0,1-2.342.767,4.31,4.31,0,0,0-.418.133.438.438,0,0,0-.246.663c.059.088.11.182.183.305a3.35,3.35,0,0,1-.943.564,27.563,27.563,0,0,1-3.3,1.008,13.739,13.739,0,0,0-1.777.555,10.09,10.09,0,0,1-.994.307c-2.053.529-6.163,1.576-6.163,1.576a2.242,2.242,0,0,1-.266.063,12.021,12.021,0,0,0-2.226.573q-1.54.493-3.092.945a2.319,2.319,0,0,0-.636.31.332.332,0,0,0-.175.415.439.439,0,0,0,.448.245.415.415,0,0,0,.156-.047c.414-.255,4.19-.848,7.225-1.685s3.511-.887,5.138-1.308c.476-.123,4.8-1.864,6.04-2.355C444.892,155.116,445.137,155.047,445.453,154.942Zm52.866-.391.232.488c-.1.316.1.514.3.708a7.386,7.386,0,0,1-1.241,1.088c-.5.4-1.036.742-1.556,1.112a3.075,3.075,0,0,1-.353.259,8.647,8.647,0,0,0-1.363,1.01c-.443.35-.9.679-1.359,1.011a2.11,2.11,0,0,1-.292.15c-.114.058-.232.111-.341.177q-1.6.959-3.271,1.785c-.851.421-1.648.947-2.513,1.344-.382.175-.742.4-1.13.561a10.7,10.7,0,0,1-2.508.921,15.625,15.625,0,0,0-1.689.429,1.369,1.369,0,0,1-.322.058,2.455,2.455,0,0,0-.863.125.893.893,0,0,1-.325.037,1.836,1.836,0,0,0-.8.129.477.477,0,0,1-.266.03,4.629,4.629,0,0,1-.861-.15,3.272,3.272,0,0,0-.7-.112,2.035,2.035,0,0,1-.484-.064,2.276,2.276,0,0,0-.808-.121,2.294,2.294,0,0,1-.595-.065,2.173,2.173,0,0,0-.586-.115,1.837,1.837,0,0,1-.369-.086,1.446,1.446,0,0,0-.369-.092,5.548,5.548,0,0,1-1.292-.222,9.277,9.277,0,0,0-1.769-.348,2.966,2.966,0,0,0-1.335-.136c-.179-.134-.335-.261-.5-.372a1.32,1.32,0,0,0-.863-.291.8.8,0,0,1-.419-.085,1.2,1.2,0,0,0-.528-.115.9.9,0,0,1-.368-.073,1.344,1.344,0,0,0-.639-.122l-1.592-.015a2.049,2.049,0,0,1-.861-.118,1.119,1.119,0,0,0-.432-.056q-1.1-.015-2.2-.017a1,1,0,0,0-.431.049,1.555,1.555,0,0,1-.8.133,3.34,3.34,0,0,1-.83-.046,4.841,4.841,0,0,1-.25-1.335.294.294,0,0,0-.014-.108c-.1-.385-.214-.768-.307-1.155a8.177,8.177,0,0,1-.354-2.152,1.541,1.541,0,0,0-.077-.372c-.033-.141-.075-.281-.1-.424-.09-.447-.179-.895-.26-1.344a3.8,3.8,0,0,1-.088-.7,1.3,1.3,0,0,0-.243-.826,1.48,1.48,0,0,1-.25-.6c-.083-.387-.026-.47.354-.472.347,0,.7.009,1.043.007a1,1,0,0,0,.431-.044,1.816,1.816,0,0,1,.8-.12,2.122,2.122,0,0,0,.645-.076,1.674,1.674,0,0,1,.64-.106c.256,0,.513.007.769,0a.93.93,0,0,0,.373-.062,6.629,6.629,0,0,1,1.247-.406,4.56,4.56,0,0,0,.514-.187c.591-.243,1.183-.484,1.769-.739a3.027,3.027,0,0,0,.668-.365,2.393,2.393,0,0,1,.607-.355,2.841,2.841,0,0,0,1-.551,2.677,2.677,0,0,1,.929-.565c.644-.259,1.285-.525,1.937-.762a6.022,6.022,0,0,1,1.526-.431,4.317,4.317,0,0,0,.809-.127,5.134,5.134,0,0,1,1.906-.075,16.347,16.347,0,0,1,1.667.3,2.119,2.119,0,0,1,1.212.559,2.818,2.818,0,0,0,.9.61c.531.243,1.063.485,1.605.7.389.156.794.275,1.194.4a.874.874,0,0,0,.318.072,3.138,3.138,0,0,1,1.171.253,4.509,4.509,0,0,0,1.442.3.881.881,0,0,1,.37.082c.518.235,1.083.321,1.611.526a2.549,2.549,0,0,0,.585.141,6.371,6.371,0,0,1,1.33.321,1.714,1.714,0,0,0,.747.148.809.809,0,0,1,.507.179,8.3,8.3,0,0,0,1.375.675,2.963,2.963,0,0,1,1.742,1.337,2.016,2.016,0,0,1,.427,1.582.644.644,0,0,1-.116.3,1.542,1.542,0,0,1-.844.578,4.094,4.094,0,0,1-1.081.171c-.915.023-1.83.013-2.745.005a.807.807,0,0,1-.786-.574,1.92,1.92,0,0,1-.17-1.051c.046-.251.133-.489.167-.737a.787.787,0,0,1,.438-.59,2.62,2.62,0,0,1,1.25-.358c.366-.013.732-.012,1.1,0a2.76,2.76,0,0,1,.429.064c.161.03.32.068.481.1s.279.161.5.124a1.38,1.38,0,0,0-.187-.3,1.926,1.926,0,0,0-1.145-.471,5.849,5.849,0,0,0-2.229.17,1.552,1.552,0,0,0-1.226,1.119c-.015.069-.074.127-.1.2a1.771,1.771,0,0,0-.106.964,2.491,2.491,0,0,1,.1.53c.007.193.044.385.071.606a1.5,1.5,0,0,1-.34,0c-.351-.09-.695-.21-1.047-.293a5.139,5.139,0,0,0-1.566-.2,1.6,1.6,0,0,1-.542-.057,4.57,4.57,0,0,0-1.3-.129c-.53.005-1.061-.006-1.592,0a1.954,1.954,0,0,1-.911-.143.892.892,0,0,0-.376-.053q-1.015-.011-2.031-.008a1.515,1.515,0,0,0-.376.056,9.027,9.027,0,0,0-1.575.427.359.359,0,0,1-.106.026,12.239,12.239,0,0,1-1.359.151,1.2,1.2,0,0,0-.882.35c-.064.063-.15.1-.215.168s-.147.115-.079.257a7.538,7.538,0,0,0,1.784-.1,1.47,1.47,0,0,1,.434-.055,2.919,2.919,0,0,0,1.168-.261,3.081,3.081,0,0,1,.527-.122,1.065,1.065,0,0,0,.269-.041,1.91,1.91,0,0,1,.913-.131c.458,0,.915-.008,1.373,0a1.169,1.169,0,0,1,.43.053,1.759,1.759,0,0,0,.7.1,4.5,4.5,0,0,1,1.253.09.527.527,0,0,0,.64-.167c.021-.03.1-.035.154-.026.3.056.6.128.909.179a2.716,2.716,0,0,0,.706.073,4.462,4.462,0,0,1,1.561.217,5.917,5.917,0,0,0,1.765.31.415.415,0,0,1,.212.043,1.8,1.8,0,0,0,.91.143c.4,0,.805,0,1.207,0a9.1,9.1,0,0,0,2.508-.186,1.312,1.312,0,0,0,.851-.306c.959-.592.933-1.226.819-2.236-.16-.32-.178-.713-.5-.949a.531.531,0,0,1-.113-.186,2.124,2.124,0,0,0-.672-.711,6.109,6.109,0,0,0-1.3-.7,1.439,1.439,0,0,1-.227-.143c.071-.055.109-.1.157-.119a5.987,5.987,0,0,0,2.443-1.621,3.092,3.092,0,0,1,.29-.25c.637-.5,1.381-.823,2.056-1.26a1.489,1.489,0,0,1,.255-.1c.22-.088.441-.173.657-.269a8.114,8.114,0,0,1,.9-.408,6.621,6.621,0,0,1,3.092-.123c.342.059.554.327.829.492a.252.252,0,0,1,.093.189,1.118,1.118,0,0,0,.2.614c.03.049,0,.133,0,.225a.933.933,0,0,0-.68.334,2.087,2.087,0,0,0-.311.308.634.634,0,0,1-.628.3c-.525.56-.851,1.226-1.349,1.766-.181.2-.3.453-.505.643A.669.669,0,0,0,498.319,154.551Zm-47.234,13.966c-.072-.149-.157-.31-.23-.475a13.054,13.054,0,0,0-.967-2.083,1.054,1.054,0,0,1-.128-.36,3.742,3.742,0,0,1-.118-.7,1.431,1.431,0,0,0-.3-.81,5.9,5.9,0,0,1-.415-.888,3.334,3.334,0,0,1-.177-.512,8.018,8.018,0,0,1-.545-1.883.574.574,0,0,0-.125-.3,2.234,2.234,0,0,1-.4-1.175,1.062,1.062,0,0,0-.145-.46,4.577,4.577,0,0,1-.374-.85c-.1-.235-.174-.479-.269-.716-.135-.339-.3-.668-.411-1.014-.2-.621-.374-1.253-.565-1.878a.68.68,0,0,1,.508-.919,3.9,3.9,0,0,0,.673-.213,11.209,11.209,0,0,1,1.383-.512,7.339,7.339,0,0,1,1.2-.365,7.03,7.03,0,0,1,1.346-.219.944.944,0,0,0,.266-.056c.937-.244,1.878-.472,2.807-.74a2.314,2.314,0,0,1,1.592.022,1.912,1.912,0,0,1,.294,1.042,1.89,1.89,0,0,0,.052.434c.236.769.26,1.58.509,2.351a22.168,22.168,0,0,1,.6,2.443,6.451,6.451,0,0,1,.24,1.505c-.012.371.086.746.1,1.128a4.124,4.124,0,0,0,.267,1.057c.1.313.239.613.341.926.213.66.414,1.325.617,1.988a1.312,1.312,0,0,1,.091.831,1.8,1.8,0,0,0-.786.531,1.245,1.245,0,0,1-.414.257,2.155,2.155,0,0,0-.9.5,1,1,0,0,1-.345.156c-.537.229-1.073.461-1.612.686-.37.155-.739.315-1.117.448a9.65,9.65,0,0,0-1.671.683A1.225,1.225,0,0,1,451.085,168.517ZM496,149.3c-.028.064-.033.111-.057.126-.378.22-.755.44-1.137.652a8.276,8.276,0,0,0-1.829,1.28,4.854,4.854,0,0,1-1.707,1.159,2.286,2.286,0,0,0-.454.184,3.493,3.493,0,0,0-.419.373c-.381-.178-.712-.493-1.183-.477.032-.064.043-.118.064-.124a1.028,1.028,0,0,0,.724-.509c.008-.015.029-.021.043-.033a4.972,4.972,0,0,0,1.178-1.031.191.191,0,0,1,.09-.059,11.968,11.968,0,0,0,1.307-.882q.644-.358,1.294-.7a.476.476,0,0,1,.21-.051c.529-.006,1.057-.011,1.586,0A.99.99,0,0,1,496,149.3Zm2.875,5.777a7.383,7.383,0,0,0,.3-.835,1.491,1.491,0,0,1,.411-.754,5.369,5.369,0,0,1,.908-.867,1.326,1.326,0,0,0,.222-.238,7,7,0,0,1,.733-.732,2.1,2.1,0,0,0,.711-.706c.091.1.186.152.2.219a1.2,1.2,0,0,1-.079.695,3.536,3.536,0,0,1-1.047,1.445c-.058.043-.134.094-.15.154a1.252,1.252,0,0,1-.621.729,1.118,1.118,0,0,0-.252.285,11.238,11.238,0,0,1-.792.8c-.01.012-.034.011-.088.028Zm-7.255-5.121c-.232.131-.388.215-.539.306-.124.074-.292.129-.355.241-.2.354-.574.5-.849.755a2.933,2.933,0,0,1-.593.46,6.375,6.375,0,0,0-.595.372.908.908,0,0,1-.87.166,3.515,3.515,0,0,0-.483-.087c-.189-.039-.377-.088-.6-.14a1.647,1.647,0,0,1,.82-.576c.3-.122.607-.247.9-.392a.844.844,0,0,0,.329-.274,1.088,1.088,0,0,1,.449-.38c.161-.082.3-.2.457-.294.184-.116.362-.3.559-.325A2.014,2.014,0,0,1,491.617,149.959Z" transform="translate(-425.625 -148.252)" fill="#242a39" stroke="#242a39" stroke-width="0.3" fill-rule="evenodd"/><path d="M643,213.181a3.656,3.656,0,0,0,.382-.019.942.942,0,0,0,.716-.443c.084-.14.176-.276.272-.408a1.126,1.126,0,0,0,.168-1.039,8.2,8.2,0,0,0-.324-.81.418.418,0,0,0-.146-.156c-.162-.117-.34-.213-.491-.34a.382.382,0,0,0-.405-.09,1.984,1.984,0,0,1-.912.075,1.272,1.272,0,0,0-.379.022.906.906,0,0,0-.737.714,4.214,4.214,0,0,0-.185.849,1.257,1.257,0,0,0,.643,1.128,5.624,5.624,0,0,0,.709.4,3.74,3.74,0,0,0,.682.144Zm.432-.705a1.585,1.585,0,0,1-.824-.008,4.994,4.994,0,0,1-.724-.384.6.6,0,0,1-.292-.5,2.178,2.178,0,0,1,.175-.852.378.378,0,0,1,.233-.207,1.148,1.148,0,0,1,.9.025,4.858,4.858,0,0,0,.454.181,1.544,1.544,0,0,1,.286.156.762.762,0,0,1,.207,1.022C643.725,212.11,643.571,212.29,643.432,212.476Z" transform="translate(-613.932 -196.481)" fill="#242a39" stroke="#242a39" stroke-width="0.4" fill-rule="evenodd"/></g></g></g></g></svg>