<svg xmlns="http://www.w3.org/2000/svg" xmlns:xlink="http://www.w3.org/1999/xlink" width="63.565" height="62.301" viewBox="0 0 63.565 62.301"><defs><linearGradient id="a" x1="0.2" y1="0.152" x2="0.603" y2="1" gradientUnits="objectBoundingBox"><stop offset="0" stop-color="#9e8bff"/><stop offset="1" stop-color="#5775ff"/></linearGradient></defs><g transform="translate(-384.133 -1142.084)"><g transform="translate(384.133 1158.599)"><path d="M25.471,18.492c15.983-8.28,30.823-1.462,30.823,14.085A28.151,28.151,0,0,1,28.143,60.729C12.6,60.729.66,43.137-.008,32.577S9.488,26.773,25.471,18.492Z" transform="translate(0.039 -14.942)" opacity="0.1" fill="url(#a)"/></g><g transform="translate(433.308 1142.807)"><line y1="3.086" x2="3.703" transform="translate(1.226 1.267) rotate(-20)" fill="none" stroke="#242a39" stroke-linecap="round" stroke-width="0.8"/><line y1="2.623" x2="0.926" transform="translate(0 1.056) rotate(-20)" fill="none" stroke="#242a39" stroke-linecap="round" stroke-width="0.8"/><path d="M0,.926,3.305,0" transform="translate(3.445 4.318) rotate(-20)" fill="none" stroke="#242a39" stroke-linecap="round" stroke-width="0.8"/></g><g transform="translate(398.619 1159.141) rotate(-16)"><path d="M7.024,43.238c.146-.1,0-.111.317-.143a.526.526,0,0,1,.378.041c.538.188.33,0,.392.563l-1-.406C7.1,43.25,7.056,43.25,7.024,43.238Zm1.391-1.4c.668,0,.771.076,1.244-.148C9.659,41.689,9.941,42.8,8.415,41.838ZM6.1,42.459a3.114,3.114,0,0,1-.313-1.4c.508.24.556.133,1.237.172a2.072,2.072,0,0,1,.354.031l.439.266c-1.666,0-1.4.008-1.561.467a.7.7,0,0,0,.283.172,2.453,2.453,0,0,0,.371.1Zm-.156-4.025a12.567,12.567,0,0,1,.181-3.07,24.342,24.342,0,0,0,.136-2.795L7.43,25.215c.219-.592-.014-.271.528-.549a2.508,2.508,0,0,0,.034,1.813c.018.066.1.369.14.492l.075.23a16.7,16.7,0,0,1,.835,5.664c-.01,3.27.631,6.125.617,8.357a3.359,3.359,0,0,1-.931-.15c.238-.672.245-.164.313-.781a17.807,17.807,0,0,0-2.167-.463c.17.59.378.188.616.779H5.947Zm-3.4-26.451c0-.791-.129-1.084.229-1.633.552-.838,1.946-.824,2.713-.684.616.115.4.412.348.807l-.5,5.682c0,1.809-1.032,6.25-.776,6.809-.958.084-2.413.293-3-.865a2.816,2.816,0,0,1-.146-1.967c.753-2.461.528-1.363,1.132-2.273a3.934,3.934,0,0,0,.6-3.248C2.295,12.793,2.54,13.7,2.543,11.982ZM5.791,23.273c-.018-4.281.474-3.129.467-5.877a39.218,39.218,0,0,1,.286-5.277,12.174,12.174,0,0,1,.439-2.768c.062-.568-.122-.037.045-.773a13.194,13.194,0,0,1,3.5-.262c.556.2.483.787.33,1.922-.3,2.234-.2,3.619-.307,4.33l-.582,4.063c-.041.521-.072.621-.137,1.094-.048.33-.17.838-.17.918,0,.857-.041,2.137-.866,2.654l-1.448.3A7.525,7.525,0,0,1,5.791,23.273ZM35.9,4.8c1.674-.047,1.234-.006,1.3-.561-.556-.352.021-.109-.464-.141a7.954,7.954,0,0,1-2.954-.018c.037-.777.167-.613.32-1.232,2.549,0,2.559.7,3.418.766l-.338,5.092a8.135,8.135,0,0,0-.293,2.5c-.027,1.7-.351.652-.609,1.857L34.57,22.035a.742.742,0,0,0,.044-.111l1.595-6.139c.286-.439-.067.076.219-.248l-.42,3.758c-.316,1.494.242.58-.562,3.316-.167.576-.1,1.285-.256,1.895-.426,1.725.215.453-.675,3.207L34.1,28.842c-.017.041-.01.469-.092.211-.007-.021-.027.078-.044.119-.979,1.029-1.9-.6-2.328-1.258a4.655,4.655,0,0,1-.453-2.768c.055-.678.16-2,.358-3.043a14.536,14.536,0,0,0,.095-1.768c.045-.635.478-1.756.62-3.082.075-.658.219-.92.29-1.578.15-1.379,1-6.236.92-7.387l.021-2.5a13.763,13.763,0,0,0,2.055.279,4.469,4.469,0,0,0,.794.125c.5-.119-.044.031.556-.4-.92-.883-.3-.033-1.718-.3-1.4-.258-.943-.07-1.84.133.13-.562.29-.592.617-.922C34.792,4.7,35.3,4.818,35.9,4.8Zm-6.665-.949a32.574,32.574,0,0,1,3.009-1.32c-.123.594-.242.4-.307,1.094V6.4c-.092.852-.157.27-.283.961-.2,1.049-.027,2.074-.174,2.777-.112.559-.044.055-.119.473l-.112,3.576a11.064,11.064,0,0,1,.027,2.385l-.89,7.156c.007,1.691-.126,1.623-.153,2.635a18.188,18.188,0,0,1-4.539-.879l-5.94-1.326c-1.837-.334-2.569-.232-4-.631l-.705-.23a9.434,9.434,0,0,1-1.2-.2c-1.714-.488-1.437-.045-1.526.174l-.03.152c-.43-.207-.307-.152-.931-.152-.021-.039-.034-.094-.044-.113s-.038-.082-.052-.109-.082-.166-.1-.205c-.27-.385-.29-.211-.651-.316-.405-.123-.177-.033-.389-.184a.619.619,0,0,0,.045-.109l.316-2.01c.078-.516.037-1.568.167-2.148a27.5,27.5,0,0,0,.453-3.268c.105-.818-.051-.242-.051-.818l.361-2.715a14.552,14.552,0,0,1,.255-2.393c.587-.051.423-.133,1.088-.16-.126.527-.2,7.191.163,7.889.975-.242.4-.848.225-1.621-.367-1.6.134-4.516.194-5.535.034-.627-.119-.449-.286-.879Zm7.96-1.3c-1.87-.051-2.279-.324-3.091-.324l.307-1.4c.812.07,2.123.133,2.573.678l.215.566A3.113,3.113,0,0,1,37.2,2.557Zm-.62,16.852c0-.676.293-1.152.32-1.857a7.068,7.068,0,0,1,.164-1.5,13.721,13.721,0,0,0,.115-1.463l.876-8.643a10.957,10.957,0,0,0-.122-3.984c-.018-.07-.062-.207-.113-.35A1.562,1.562,0,0,0,36.963.461c-1.088-.535-3.111-.746-4.154.166-.112.1-.112.146-.307.314l-.781.457c-1.492.654-3.121,1.123-4.692,1.656l-3.213.957c-.654.188-1.169.2-1.786.395a3.429,3.429,0,0,0-.412.15.729.729,0,0,1-.086.027L16.273,6.217c-.565.188-1,.33-1.506.508s-1.047.221-1.605.4-.443.273-.764.314c-.883.109.018-.01-.634-.146a10.556,10.556,0,0,0-1.8.207,15.161,15.161,0,0,1-1.725-.225A2.234,2.234,0,0,0,5.947,8.891a3.626,3.626,0,0,0-4.3,1.27,3.613,3.613,0,0,0,.007,3.785l.389,1.322c.167.525.194.082.082.627A8.164,8.164,0,0,1,.475,18.73c-.606.883-.48,1.578-.419,2.852a2.311,2.311,0,0,0,.991,1.637l.253.217a1.439,1.439,0,0,0,.593.338c1.2.389,2.286-.023,3.2.488.5.275,0,.184.828.281.457.063.311.109.641-.037l-.842,6.281c-.071.4-.055.727-.13,1.1-.071.357-.266.508-.266.818,0,1.223-.323,1.674-.31,3.092,0,1.137-.014,2.275,0,3.41,0,.92-.266,1.152-.313,2.32-.034.842-.249,1.094.122,1.732l.723.824c.024.023.051.064.075.088.116.109-.007.049.238.225.263.188.082.082.416.2.112.035.218.053.364.1a3.726,3.726,0,0,0,2.484.01c.7-.26.334.074.7-.539a6.445,6.445,0,0,0,.716-3.02l-.027-2a5.211,5.211,0,0,0-.15-2.2c-.252-.824-.01-4.3-.225-5.033-.126-.457-.023.238-.153-.463l-.91-6.887.427-.686,7.364,1.154c.041.008.078.021.115.031l.386.086a26.806,26.806,0,0,1,3.172.682c1.517.537,3.415.418,5.017.869.423.119.661.184,1.233.32,2,.459,1.432.889,3.3.889a3.317,3.317,0,0,0,1.07,1.547c1.561,1,3.432,1.262,4.065-.725l.688-3.178c.059-.412.014-.764.078-1.168l.788-4.08C36.792,19.857,36.577,20.021,36.577,19.408Z" fill="#292929" fill-rule="evenodd"/><path d="M.953,1.238a12.475,12.475,0,0,1-.26,1.9l-.275,1.4c-.027.164-.043.346-.059.576A32.237,32.237,0,0,0,.02,9.283L.182,9.9C.707,9.5.439,9.744.49,8.51L.662,6.367c.092-.545.2-.443.268-.975a8.917,8.917,0,0,1,.551-3.01c.229-.787,0-.582.412-1.295C2.162.621,2.2.8,2.189,0A1.185,1.185,0,0,0,.953,1.238Z" transform="translate(29.129 3.469)" fill="#292929" fill-rule="evenodd"/><path d="M0,.273c.365,1.3.484-.023,1.471.7a.656.656,0,0,0,.082.07l.148.164c-.469.711-.543.508-1.217.949-.025.016-.072.055-.092.063s-.062.047-.082.074c.563,1,1.865-.461,1.965-.992C2.5.1.625-.332,0,.273Z" transform="translate(25.129 21.452)" fill="#292929" fill-rule="evenodd"/><path d="M.615,3.4l.094-.674a3.219,3.219,0,0,1,.027-.758,2.955,2.955,0,0,1,.252-.828C1.4.428,1.789.8,1.389,0,.609.217.494.707.234,1.48.051,1.992-.1,1.91.09,2.523Z" transform="translate(3.164 9.968)" fill="#292929" fill-rule="evenodd"/><path d="M.168,3.1c.092-.1.113-.035.205-.256a5.779,5.779,0,0,0,.164-1.5L.578.191C.568.172.564.121.553.117A.153.153,0,0,0,.5.066C.365-.033.215.012.014.008A13.134,13.134,0,0,0,.168,3.1Z" transform="translate(14.598 9.651)" fill="#292929" fill-rule="evenodd"/><path d="M.92.609H.3c.207.516.01.117.883.516a2.369,2.369,0,0,0,1.131.41C2.1.719,1.725,1.211,1.326.672,1.016.25,1.674-.008,0,0,.416.57.324.086.92.609Z" transform="translate(6.259 37.824)" fill="#292929" fill-rule="evenodd"/><path d="M0,3.709c.43-.15.389-.025.465-.771A16.28,16.28,0,0,0,.781.465C.686-.344.816.32.617,0Z" transform="translate(28.07 6.25)" fill="#292929" fill-rule="evenodd"/><path d="M.088,1.852C.754,1.414.754.852.551,0H.24C.072.648-.006.258,0,.727,0,.945.088,1.406.088,1.852Z" transform="translate(7.245 29.771)" fill="#292929" fill-rule="evenodd"/><path d="M.023.934c0,1.27-.148,1.051.3,1.387C.332,1.363.621.605.328,0-.105.34.023.148.023.934Z" transform="translate(21.396 15.54)" fill="#292929" fill-rule="evenodd"/><path d="M0,2c.795-.191.611-.727.617-2H.3A5.365,5.365,0,0,1,0,2Z" transform="translate(4.401 12.135)" fill="#292929" fill-rule="evenodd"/><path d="M.152,1.223l.463-.008C.615.531.707.457.443,0-.172.426-.018.488.152,1.223Z" transform="translate(20.953 12.466)" fill="#292929" fill-rule="evenodd"/><path d="M.215,1.7c.094-.148.066-.043.143-.32.02-.068.082-.422.1-.51C.557.443.6.346.682,0-.27.25-.016,1.229.215,1.7Z" transform="translate(26.31 6.87)" fill="#292929" fill-rule="evenodd"/><path d="M1.082.459C.924.043,1.141.24,0,0,.078.859.705.684,1.082.459Z" transform="translate(34.411 7.037)" fill="#292929" fill-rule="evenodd"/><path d="M.166,1.238C.34.969.246,1.57.328.781.342.609.318.2.318,0H.008C.012.672-.062.754.166,1.238Z" transform="translate(7.482 34.102)" fill="#292929" fill-rule="evenodd"/><path d="M0,.609C.555.555.564.551.613,0H0Z" transform="translate(22.345 22.652)" fill="#292929" fill-rule="evenodd"/><path d="M0,.154c0,.191.33.33.238,0S.662.15.168.109C-.031.1,0-.156,0,.154Z" transform="translate(34.412 8.571)" fill="#292929" fill-rule="evenodd"/></g></g></svg>