<svg xmlns="http://www.w3.org/2000/svg" width="42.97" height="41.38" viewBox="0 0 42.97 41.38">
  <g id="spendanalysis-mob" transform="translate(-397.267 -1144.278)">
    <g id="Group_3803" data-name="Group 3803" transform="translate(433.902 1145)">
      <line id="Line_109" data-name="Line 109" y1="2.563" x2="3.075" transform="translate(1.018 1.052) rotate(-20)" fill="none" stroke="#242a39" stroke-linecap="round" stroke-width="0.8"/>
      <line id="Line_110" data-name="Line 110" y1="2.178" x2="0.769" transform="translate(0 0.877) rotate(-20)" fill="none" stroke="#242a39" stroke-linecap="round" stroke-width="0.8"/>
      <path id="Path_1299" data-name="Path 1299" d="M0,.769,2.745,0" transform="translate(2.861 3.586) rotate(-20)" fill="none" stroke="#242a39" stroke-linecap="round" stroke-width="0.8"/>
    </g>
    <g id="_529967792" transform="matrix(0.996, -0.087, 0.087, 0.996, 397.267, 1150.536)">
      <path id="Path_418" data-name="Path 418" d="M4.52,29.139c.145.123.088.044.19.236.352.676,0,.393.468.72.294-.1,1.119-1.125,1.652-1.364L6.813,30.9c-.97.56-1.018.4-2.215.311Zm3.022-.776a3.209,3.209,0,0,1,.121,1.631,3.02,3.02,0,0,1-.231.644c-.223.538-.042.374-.4.629C7.12,28.8,6.763,28.539,7.543,28.363Zm-1.737.663a4.024,4.024,0,0,1,1.02-1.547l-.016.8A2.962,2.962,0,0,1,5.806,29.026Zm-.789.311c-.119-1.308-.333-1.21.412-2.175a5.507,5.507,0,0,1,.649-.717c.387-.368.5-.531.847-.651A7.171,7.171,0,0,1,5.47,28.919Zm-.192-1.952A6.38,6.38,0,0,1,6,25.38l.349-.277c.091.927.214.553-.706,1.521C5.418,26.857,5.168,27.26,4.825,27.385Zm-4-3.561L.905,20.53c.5.544.229,1.836.189,2.53C1.039,23.95.919,23.723.83,23.824ZM6.8,25.55c-.152-.006-.479.047-.371-.487A3.008,3.008,0,0,1,6.8,24.3c-.148-.531-.36-.185-.259-1.606l.454-5.281a1.254,1.254,0,0,1,.328.924c.035.333.063.688.091,1.022a9.9,9.9,0,0,1-.071,2.112c-.146,1.075-.14.4-.361.912l-.072.3C6.835,23.286,7.14,24.968,6.8,25.55ZM5.554,13.482c.1-.173.028.025.085-.277l.335-4.838c.107-1.76.237-3.448.3-5.237l1.658.006a26.451,26.451,0,0,1-.5,5.02l-.267.233c-.145.141-.074.006-.145.185a4.122,4.122,0,0,0-.068.8.854.854,0,0,0-.09.063l-.374.185c-.1,1.32.184,3.165.2,4.6.017,1.688-.086,3.081-.179,4.618a36.575,36.575,0,0,0-.154,4.677A4.822,4.822,0,0,1,5.29,25.9c-.237.368-.162.481-.468.635a45.988,45.988,0,0,1,.094-4.96c.031-.582.346-4.068-.358-4.313-.229.3-.017.622.071,1.581.049.538.016.311.082.4l-.586.27a4.686,4.686,0,0,0,.126,1.682s.008-.013.008-.013a.11.11,0,0,0,.014-.009l.189.022a27.89,27.89,0,0,1-.11,4.721c-.046,1.339.14,1.132-.448,2.071-.137.22-.4.588-.316.905.14.512.327.163.718.009l.02,2.276c-.116.1-2.549.1-2.5-.185.091-.578.187.066.033-1.018a5.012,5.012,0,0,1,.124-1.44l.248-6.469c0-.776-.123-2.864.215-3.316a.5.5,0,0,1,.049.113.881.881,0,0,1,.044.107c.277.927-.08-.594.06.233.031.17.02,9.468.267,10.543.261,1.138.355.937.577,1.015a27.372,27.372,0,0,1-.379-3.6c0-.651-.053-1.38-.077-1.9-.022-.427.053-1.113.052-1.707,0-.67-.042-1.342-.064-1.886-.02-.459.075-1.3.113-1.76a30.226,30.226,0,0,0-.1-3.753c.289.267.27.459.728.591.2-1.081.3-5.067-.187-5.979-.156.453.283,3.681.016,5.441-.534-.852-.253-5.1-.244-6.46l.152.481a1.69,1.69,0,0,0,.091.387l.064-.17C3.7,10,3.118,4.552,3.937,3.363l.156.409c.387,1.487-.286,11.561.116,12.288.531-.415.343-.607.35-1.462C4.58,12.341,5.122,4.536,5.8,3.549l.138.594c.013.211,0,.431,0,.635-.008.446,0,.912-.017,1.358-.038.726-.146,1.512-.212,2.38A34.669,34.669,0,0,0,5.554,13.482ZM1.187,6.607c.156.2.05-.141.211.368l.165,1.311a15.521,15.521,0,0,1,.069,1.892l-.586-.424ZM2.276,15.39c.412-.525.266-5.177.272-5.768.014-.927-.156-1.861-.173-2.851s-.086-2.134.473-2.515a26.522,26.522,0,0,0,.091,3.4c.2,1.3.138,7.714-.415,9.015-.016.028-.028.063-.039.085l-.145.431c-.149-.339.027-.622-.009-1.216-.033-.55-.527-3.194.016-3.992Zm6.362-2.552c-.574-1.1-.332-4.63-.332-5.8.467.207.222.229.251,1.1C8.613,9.635,8.729,11.2,8.638,12.838ZM4.413,3.25,5.5,3.228c-.094.632-.222.77-.332,1.386-.08.44-.135.968-.2,1.308a13.209,13.209,0,0,0-.146,1.314c-.077.632-.016.978-.369,1.345Zm1.619-.956a2.619,2.619,0,0,1,1.575-.2c-.217.248.075.135-.453.349l-.8.069C5.932,2.38,6.133,2.38,6.032,2.295Zm1.961-.465a9.237,9.237,0,0,0-2.364.185,4.175,4.175,0,0,1-1.045-.1c-.629-.091-.405.028-.9.283-.692-.013-.35-.182-.86-.006-.684.239-.244.1-.879.019C1.331,3,1.18,2.417.759,3.037c.074.22,0,.123.16.277l.308.22C1.221,4.684.984,5.985.915,7.151.833,8.475,1,9.861.948,11.027c.022-.028.052-.1.063-.079s0-.079.294-.189a7.651,7.651,0,0,1,.052,3.125c-.022-.028-.06-.1-.069-.091-.116.3-.132-2.348-.212-2.54A24.247,24.247,0,0,0,1,14.378a11.653,11.653,0,0,0-.033,1.345c-.042,2.543-.379,4.429-.4,7.456-.014,2.059.113,1.4.355,2.263.075.261.347,2.144.347,2.339a6.7,6.7,0,0,1-.237,2.427l-.5.17A2.693,2.693,0,0,0,0,30.525c.061.383.09.38.467.494a.574.574,0,0,0-.222.475c2.295,1.43,3.132.339,4.742.56a6.976,6.976,0,0,0,1.8-.038c-.358.538-.332.2-.489.723.626-.107.226-.352.745-.148l.126-.531c1.385.041,1.193.616,1.325-1.415.141-2.178.332-3.662.4-6.1.03-1.009.311-1.93.341-2.854l-.253-.123c.112-1.405.011-3.266.022-4.728C9.018,15.091,8.949,6.4,8.732,5.045c-.077-.487-.206-.33-.25-1C8.4,2.776,8.6,2.464,10.714,2.848c.022-.666-.817-.292-2.178-.412L8.963,2.1c-.512-.3-.2.075-.4-.355A2.131,2.131,0,0,1,8.5.924c.2-.176.035-.085.341-.248C8.773.2,8.8.141,8.412,0A2.764,2.764,0,0,0,7.994,1.829Z" transform="translate(28.083 2.371)" fill="#2b2b2b" fill-rule="evenodd"/>
      <path id="Path_419" data-name="Path 419" d="M3.648,20.828c.119-.013.45-.044.552-.041.8.041.357.041.572.195-.028.05.17.622-.8.116C3.6,20.913,3.8,20.985,3.648,20.828Zm1.163-9.961.229.446A3.216,3.216,0,0,1,5.1,11.9c.031.437.08.726.1,1.122l.487,7.217-.736-.019A86.354,86.354,0,0,1,4.811,10.867Zm-2.524,0c.206-.638.017-.723.566-1.235.178.478.269.308-.02.77A1.119,1.119,0,0,1,2.287,10.867Zm.8,4.291c.066-.3-.039-.7.085-1.364l.413-2.361a2.259,2.259,0,0,1,.124-.38A1.57,1.57,0,0,1,3.8,10.9l.091-.141c.228-.465.064-.868.383-1.5l.182.531c.2,1.767-1.155,8.468-.156,9.044.3-.519-.382-2.427.189-3.128-.09,1.732.193,2.949.134,4.555a5.784,5.784,0,0,1-2.689-.27c-.064-1.33.193-2.521.218-3.98s0-2.9-.028-4.347l.747-.946a8.927,8.927,0,0,0,.589-1.047c-.385-.374-.5-.446-.555-.745.266-.1-.13-.138.385.135-.024-2.062-.165-.39.445-2.326l.467-.707c.237,2.864-.649,2.15-.759,3.524l.459-.588a.866.866,0,0,1,.068-.072l-1.1,4.794C2.743,14.331,2.46,14.9,3.09,15.157ZM2.337,6.809c-.057-1.575-.181-2.263-.145-3.741.64-.019,1.05.119,1.792.123a7.707,7.707,0,0,1-.633,1.8.392.392,0,0,1-.063-.1c-.266-.534-.121.22-.173-.761A3.754,3.754,0,0,1,2.337,6.809ZM4.828,3.5c-.49-.05-.184.1-.292-.3C4.921,3.357,4.7,3.062,4.828,3.5ZM6.964,2.483a3.2,3.2,0,0,1-.866.141l-.8-.286c.591-.025.742.113,1.083-.167-.019-.5.046-.1-.376-.516-.481.16.049.176-.77.223l.105-.651c.6-.019.715.2,1.1-.019L6.31,1.088A5.075,5.075,0,0,0,3.942.864C3.257.861,1.891.5,1.5.736c.24.736,2.7.553,3.387.516-.17.538.006.78-1.606.519a7.689,7.689,0,0,1-1.639-.355c-.159.22-.135.22-.053.553l-.509.113-.08,3A6.325,6.325,0,0,0,.739,6.809C.721,7.22.728,7.642.717,8.053.7,8.528.6,8.773.605,9.292c.009.585.218,2.417-.093,2.791-.017.022-.1.113-.123.141-.107.126-.156.176-.245.267.156-.063.248-.211.506-.148a22.936,22.936,0,0,1,.195,5.281c-.064.578-.3.893-.365,1.543-.17.082-.311.119-.481.2.148.516.063.041.233.506.269.751-.2.453.761.8a.681.681,0,0,0,.093.035c.272.113.141.063.31.346a1.167,1.167,0,0,0,.185.261l.292-.267a.472.472,0,0,0,.063-.072l.143-.154c1.982.8,2.7,1.364,4.03.7.383-.195.306-.132.431-.415a2.816,2.816,0,0,1-1.24.273c-.379-.1-.152.022-.313-.273.195-.405-.031-.321.761-.236.357.031.339-.041.608-.2-.152-.148-.289-.38-.461-.556.011-1.04-.2-2.446-.25-3.473-.1-2.185-.124-4.728-.361-6.969-.066-.616-.074-.78-.108-1.481-.042-.839.063-1.22.066-1.873l-.264-.176c-.017-.019-.057-.053-.082-.075-.2-3.055.464-2.842,2.068-3.049a20.333,20.333,0,0,1-.371,3.332c-.17.9-.3,5.994-.294,7.176.006.619-.368,2.939-.244,3.172.53-.358,0-.317.5-.946A15.381,15.381,0,0,1,6.7,19.486c-.022.013-.063,0-.068.028l-.193.063c-.008,0-.05.016-.06.016s-.036.013-.053.025c.547,1.216.346,1.238.841,1.33.159-.4,0-.679-.039-1.213l.481-.185c.053-1.33-.28-3.005-.317-4.41-.042-1.663.094-3.288.08-4.85-.009-1.487.237-3.027.244-4.6,0-1.628-.179-3.3-.083-4.872.184.154.08.019.272.289.031.05.167.289.19.324A5.093,5.093,0,0,0,7.657.594C7.423.006,7.649.035,7.074,0Z" transform="translate(15.271 12.899)" fill="#2b2b2b" fill-rule="evenodd"/>
      <path id="Path_420" data-name="Path 420" d="M9.35,12.668c.171-.475-.176-.113.377-.468,1-.632,2.519-1.851,3.073-1.738-.206.44.1.123-.388.468l-1.183.808A6.576,6.576,0,0,1,9.35,12.668ZM20.775,5.485c-.2.063-.207.009-.368-.132a3.354,3.354,0,0,0,.405-.333c.137-.138.192-.236.349-.39l2.549-2.087c-.11.72-.385.6-.281,1.273a7.288,7.288,0,0,1-.09,1.719l-.211,2.829c.129.556-.013.072.2.3.33-.377.819-3.106,1.075-3.775.211-.556.39-1.358.618-1.861l.618-1.257c.214-.538.492-.443.973-.666.228-.107.431-.267.6-.352L26.73.226c-.017-.031-.057-.154-.1-.226-1.558.179-3.118.877-4.682,1.066C20.663,1.216,17.4.3,16.9,1.556c.137.44.157.39.53.566-.017.041-.052.05-.055.119s-.041.088-.047.116c-.129.858,1.817-.094,2.442-.248A20.717,20.717,0,0,1,22.5,1.49L20.707,2.9l-.024.886a8.1,8.1,0,0,1-1.859,1.261l.423.151-.338.415c-.269-.3-.057.028-.173-.27l-.022-.154c-1.6,1.2-.622.484-1.2,1.374A12.642,12.642,0,0,1,14.934,8.6c-1.542.921-2.9,1.88-4.416,2.785-.754.446-1.492.959-2.24,1.374a9.281,9.281,0,0,1-2.57,1.05c-.938.283-1.924.4-2.953.663-1.834.468-2.727.119-2.755.842.435.233.732.006,1.16.069,1.342.2,2.109.591,3.766-.154A35.92,35.92,0,0,1,9.267,13.5a.545.545,0,0,1,.264.11c.968.487-.525-.167.256.135a11.527,11.527,0,0,1,3.723-2.09l1.559-.842c1.713-.959,5.569-3.074,6.343-4.344L15.665,10.2c-.349.189-1.067.512-1.106.55a3.938,3.938,0,0,1-1.04.654,4.27,4.27,0,0,1-1.477.654l3.5-2.618a.282.282,0,0,0,.068-.053l.14-.107c.242-.154-.061-.057.344-.138l-.461.522a1.26,1.26,0,0,0-.511.556c.552-.4.857-.824,1.471-1.213-.14-.16-.292.06-.5.135.255-.528.629-.233,1.141-.739A28.977,28.977,0,0,1,20.775,5.485Zm.517-2.276c.036-.4.006-.308.168-.525A5.8,5.8,0,0,1,24.1,1.4l-1.216.978c-.472.138-.1-.217-.679.185-.365.255-.163.3-.627.119C21.421,3.194,21.6,2.908,21.292,3.209Zm2.389,2.455a6.6,6.6,0,0,1,.262-2.354c.292-.566.3-.242.289-.946-.006-.431.2-.481.61-.613l-.97,3.467c-.027.082-.069.2-.1.283-.008.022-.038.1-.044.085S23.7,5.636,23.681,5.664ZM17.293,1.682c.643-.789,2.6-.415,3.458-.412-.28.289.269.025-.439.3l-2.227.56C17.27,2.15,17.293,1.682,17.293,1.682Z" transform="translate(0 0)" fill="#2b2b2b" fill-rule="evenodd"/>
      <path id="Path_421" data-name="Path 421" d="M2.081,9.884a1.906,1.906,0,0,1-.468-1.892,38.891,38.891,0,0,0,.154-4.046,19.279,19.279,0,0,0,.156-2.128L3.351,2c.09.16.053.028.094.3L3.213,3.884c-.3-.566.192-1.069-.36-1.358-.269.094-.269-.126-.149.748a16.091,16.091,0,0,1-.28,4.866C2.323,8.869,2.442,9.5,2.081,9.884Zm5.391-8c-.118,1.672-.387,3.153-.4,4.989,0,1.741.116,3.5.189,5.127a16.956,16.956,0,0,1-2.919.239c-.47-.028-1.042-.211-1.393-.245-1.2-.094-1.506.9-1.385-1.924a2.763,2.763,0,0,1,.82.5,2.23,2.23,0,0,1,.426.7c0-.022.024.057.041.079l.127-.516a11.968,11.968,0,0,0,1.845.132,1.788,1.788,0,0,0,1.209-.343c-1.806-.009-.616.28-3.1-.229.137-.974.61-2.248.607-2.53s.017-.091-.079-.261L2.926,8.693a24.166,24.166,0,0,1,1-6.585l1.21.022a10,10,0,0,1-.571,1.958c-.129.39-.126.673-.225,1.025-.079.289-.275.616-.113.921.148-.6.382-1.43.574-2.1.211.239.266.289.149.883-.2.984-1.133,4.926.467,4.772-.3-.509-.538.141-.523-1.726.013-1.958.761-4.278.78-5.74ZM3.6,7.6c.233-.311.635-1.138.405-1.613A9.464,9.464,0,0,0,3.6,7.6ZM0,1.5c.121.481.143.437.739.5L1.1,1.664a33.694,33.694,0,0,1-.509,4.41c-.069.207-.082-.013-.391.3.637,3.074.148,2.332.339,4.476.423.317.3-.066.494.852.1.446-.083.107-.083.56,1.215.707,4.262.629,5.873.418.973-.129,1.371-.214,1.609-.707-.1-.063-.025-.069-.247-.1-.1-.019-.358-.013-.486-.019a7.162,7.162,0,0,1,.047-1c0-.283-.093-.688-.09-1.119a18.982,18.982,0,0,1,.215-2.257c.184-1.54.248-2.933.446-4.46l.105.17c.014.022.068.141.085.17.079.135.011.085.185.242.2-.446-.1-1.04-.152-1.569l.391-.255c-.225-.4-.239-.044-.453-.688C8.35.681,8.437.662,7.994.574l-.047.83-4.6-.141c-.248,0-.5.013-.753.013l-.8-.311c.033-.459.222-.352.1-.956-.646-.082-.4.49-.593.949S.5,1.3,0,1.5Z" transform="translate(1.19 22.534)" fill="#2b2b2b" fill-rule="evenodd"/>
    </g>
  </g>
</svg>
