<svg xmlns="http://www.w3.org/2000/svg" xmlns:xlink="http://www.w3.org/1999/xlink" width="64.768" height="62.294" viewBox="0 0 64.768 62.294"><defs><linearGradient id="a" x1="0.2" y1="0.152" x2="0.603" y2="1" gradientUnits="objectBoundingBox"><stop offset="0" stop-color="#9e8bff"/><stop offset="1" stop-color="#5775ff"/></linearGradient></defs><g transform="translate(-384.133 -1144.278)"><g transform="translate(384.133 1159.322)"><path d="M26.286,18.606C42.78,10.06,58.095,17.1,58.095,33.141A29.051,29.051,0,0,1,29.044,62.192C13,62.192.682,44.038-.007,33.141S9.792,27.151,26.286,18.606Z" transform="translate(0.039 -14.942)" opacity="0.1" fill="url(#a)"/></g><g transform="translate(441.182 1145)"><line y1="3.185" x2="3.822" transform="translate(1.265 1.307) rotate(-20)" fill="none" stroke="#242a39" stroke-linecap="round" stroke-width="0.8"/><line y1="2.707" x2="0.955" transform="translate(0 1.09) rotate(-20)" fill="none" stroke="#242a39" stroke-linecap="round" stroke-width="0.8"/><path d="M0,.955,3.411,0" transform="translate(3.555 4.456) rotate(-20)" fill="none" stroke="#242a39" stroke-linecap="round" stroke-width="0.8"/></g><g transform="matrix(0.996, -0.087, 0.087, 0.996, 395.656, 1151.879)"><path d="M5.615,36.207c.18.152.109.055.236.293.438.84,0,.488.582.895C6.8,37.27,7.824,36,8.486,35.7l-.021,2.7c-1.205.7-1.266.5-2.752.387Zm3.756-.965a3.988,3.988,0,0,1,.15,2.027,3.753,3.753,0,0,1-.287.8c-.277.668-.053.465-.494.781C8.846,35.785,8.4,35.461,9.371,35.242Zm-2.158.824A5,5,0,0,1,8.48,34.145l-.02.992A3.681,3.681,0,0,1,7.213,36.066Zm-.98.387c-.148-1.625-.414-1.5.512-2.7a6.843,6.843,0,0,1,.807-.891c.48-.457.627-.66,1.053-.809.014,1.09-1.152,3-1.809,3.883Zm-.238-2.426a7.928,7.928,0,0,1,1.457-2.492l.434-.344c.113,1.152.266.688-.877,1.891C6.73,33.371,6.42,33.871,5.994,34.027ZM1.029,29.6l.094-4.094c.617.676.285,2.281.234,3.145C1.289,29.758,1.141,29.477,1.029,29.6Zm7.416,2.145c-.189-.008-.6.059-.461-.605a3.737,3.737,0,0,1,.461-.949c-.184-.66-.447-.23-.322-2l.564-6.562A1.559,1.559,0,0,1,9.1,22.781c.043.414.078.855.113,1.27a12.3,12.3,0,0,1-.088,2.625c-.182,1.336-.174.5-.449,1.133l-.09.367C8.492,28.934,8.871,31.023,8.445,31.746ZM6.9,16.75c.129-.215.035.031.105-.344l.416-6.012c.133-2.187.295-4.285.375-6.508l2.061.008c.025.773-.275,5.746-.623,6.238l-.332.289c-.18.176-.092.008-.18.23a5.123,5.123,0,0,0-.084,1,1.061,1.061,0,0,0-.111.078l-.465.23c-.125,1.641.229,3.934.25,5.719.021,2.1-.107,3.828-.223,5.738A45.451,45.451,0,0,0,7.9,29.23c.064.879-.691,1.941-1.326,2.945-.295.457-.2.6-.582.789A57.148,57.148,0,0,1,6.107,26.8c.039-.723.43-5.055-.445-5.359-.285.375-.021.773.088,1.965.061.668.02.387.1.5l-.729.336a5.823,5.823,0,0,0,.156,2.09c.006,0,.01-.016.01-.016a.137.137,0,0,0,.018-.012l.234.027A34.659,34.659,0,0,1,5.4,32.2c-.057,1.664.174,1.406-.557,2.574-.17.273-.5.73-.393,1.125.174.637.406.2.893.012l.025,2.828c-.145.125-3.168.121-3.109-.23.113-.719.232.082.041-1.266a6.228,6.228,0,0,1,.154-1.789l.309-8.039c0-.965-.152-3.559.268-4.121a.624.624,0,0,1,.061.141,1.1,1.1,0,0,1,.055.133c.344,1.152-.1-.738.074.289.039.211.025,11.766.332,13.1.324,1.414.441,1.164.717,1.262A34.015,34.015,0,0,1,3.8,33.75c0-.809-.066-1.715-.1-2.363-.027-.531.066-1.383.064-2.121,0-.832-.053-1.668-.08-2.344-.025-.57.094-1.617.141-2.187a37.561,37.561,0,0,0-.119-4.664c.359.332.336.57.9.734.248-1.344.367-6.3-.232-7.43-.193.563.352,4.574.02,6.762-.664-1.059-.314-6.332-.3-8.027l.189.6a2.1,2.1,0,0,0,.113.48l.08-.211c.117-.551-.611-7.324.406-8.8l.193.508c.48,1.848-.355,14.367.145,15.27.66-.516.426-.754.436-1.816.025-2.8.7-12.5,1.543-13.73l.172.738c.016.262,0,.535,0,.789-.01.555.006,1.133-.021,1.688-.047.9-.182,1.879-.264,2.957C7.02,11.527,6.668,16.176,6.9,16.75ZM1.473,8.207c.193.246.063-.176.262.457l.205,1.629a19.288,19.288,0,0,1,.086,2.352L1.3,12.117ZM2.826,19.121c.512-.652.33-6.434.338-7.168.018-1.152-.193-2.312-.215-3.543-.02-1.246-.107-2.652.588-3.125a32.959,32.959,0,0,0,.113,4.23c.246,1.609.172,9.586-.516,11.2-.02.035-.035.078-.049.105l-.18.535c-.186-.422.033-.773-.012-1.512-.041-.684-.654-3.969.02-4.961Zm7.906-3.172c-.713-1.371-.412-5.754-.412-7.207.58.258.275.285.313,1.363C10.7,11.969,10.846,13.918,10.732,15.949ZM5.482,4.035l1.355-.027c-.117.785-.275.957-.412,1.723-.1.547-.168,1.2-.254,1.625A16.414,16.414,0,0,0,5.99,8.988c-.1.785-.02,1.215-.459,1.672ZM7.494,2.848a3.255,3.255,0,0,1,1.957-.254c-.27.309.094.168-.562.434l-1,.086C7.369,2.953,7.619,2.953,7.494,2.848ZM9.932,2.27a11.479,11.479,0,0,0-2.937.23,5.188,5.188,0,0,1-1.3-.125c-.781-.113-.5.035-1.117.352-.859-.016-.436-.227-1.068-.008-.85.3-.3.129-1.092.023C1.652,3.727,1.465,3,.941,3.77c.092.273,0,.152.2.344l.383.273c-.008,1.43-.3,3.047-.389,4.5-.1,1.645.111,3.367.041,4.816.027-.035.064-.125.078-.1.02.043,0-.1.365-.234a9.508,9.508,0,0,1,.064,3.883c-.027-.035-.074-.125-.086-.113-.145.375-.164-2.918-.264-3.156a30.131,30.131,0,0,0-.088,3.883,14.481,14.481,0,0,0-.041,1.672C1.152,22.7.734,25.039.711,28.8c-.018,2.559.141,1.742.441,2.813.094.324.432,2.664.432,2.906a8.331,8.331,0,0,1-.295,3.016l-.617.211A3.346,3.346,0,0,0,0,37.93c.076.477.111.473.58.613a.714.714,0,0,0-.275.59c2.852,1.777,3.893.422,5.893.7a8.668,8.668,0,0,0,2.234-.047c-.445.668-.412.246-.607.9.777-.133.281-.437.926-.184l.156-.66c1.721.051,1.482.766,1.646-1.758.176-2.707.412-4.551.5-7.582.037-1.254.387-2.4.424-3.547L11.16,26.8c.139-1.746.014-4.059.027-5.875.018-2.172-.068-12.977-.338-14.656-.1-.605-.256-.41-.311-1.246-.1-1.574.143-1.961,2.773-1.484.027-.828-1.016-.363-2.707-.512l.531-.418c-.637-.379-.254.094-.492-.441a2.648,2.648,0,0,1-.088-1.02c.244-.219.043-.105.424-.309C10.9.25,10.932.172,10.451,0A3.435,3.435,0,0,0,9.932,2.27Z" transform="translate(34.9 2.951)" fill="#2b2b2b" fill-rule="evenodd"/><path d="M4.533,25.883c.148-.016.559-.055.686-.051,1,.051.443.051.711.242-.035.063.211.773-.988.145C4.477,25.988,4.717,26.078,4.533,25.883ZM5.979,13.5l.285.555a4,4,0,0,1,.076.73c.039.543.1.9.127,1.395l.605,8.969-.914-.023C5.7,21.445,6.018,17.332,5.979,13.5Zm-3.137,0c.256-.793.021-.9.7-1.535.221.594.334.383-.025.957A1.391,1.391,0,0,1,2.842,13.5Zm1,5.332c.082-.367-.049-.871.105-1.7l.514-2.934a2.807,2.807,0,0,1,.154-.473,1.951,1.951,0,0,1,.113-.2l.113-.176c.283-.578.08-1.078.477-1.863l.227.66c.25,2.2-1.436,10.523-.193,11.238.373-.645-.475-3.016.234-3.887-.111,2.152.24,3.664.166,5.66-1.049.035-2.57.133-3.342-.336-.08-1.652.24-3.133.271-4.945s0-3.6-.035-5.4l.928-1.176a11.094,11.094,0,0,0,.732-1.3c-.479-.465-.627-.555-.689-.926.33-.121-.162-.172.479.168-.029-2.562-.205-.484.553-2.891l.58-.879c.295,3.559-.807,2.672-.943,4.379l.57-.73a1.075,1.075,0,0,1,.084-.09L3.572,17C3.408,17.809,3.057,18.512,3.84,18.836ZM2.9,8.461c-.07-1.957-.225-2.812-.18-4.648.795-.023,1.3.148,2.227.152A9.578,9.578,0,0,1,4.164,6.2a.488.488,0,0,1-.078-.125c-.33-.664-.15.273-.215-.945A4.665,4.665,0,0,1,2.9,8.461ZM6,4.352c-.609-.062-.229.121-.363-.379C6.115,4.172,5.846,3.8,6,4.352ZM8.654,3.086a3.973,3.973,0,0,1-1.076.176l-1-.355c.734-.031.922.141,1.346-.207-.023-.625.057-.125-.467-.641-.6.2.061.219-.957.277l.131-.809C7.375,1.5,7.521,1.777,8,1.5l-.158-.152C7.2.914,5.936,1.082,4.9,1.074c-.852,0-2.549-.449-3.031-.16.3.914,3.361.688,4.209.641-.211.668.008.969-2,.645a9.555,9.555,0,0,1-2.037-.441c-.2.273-.168.273-.066.688l-.633.141-.1,3.723A7.859,7.859,0,0,0,.918,8.461C.9,8.973.9,9.5.891,10.008c-.018.59-.145.895-.139,1.539.012.727.271,3-.115,3.469-.021.027-.123.141-.152.176-.133.156-.193.219-.3.332.193-.078.309-.262.629-.184.352.836.381,5.316.242,6.563C.971,22.621.682,23.012.6,23.82c-.211.1-.387.148-.6.246.184.641.078.051.289.629.334.934-.244.563.945,1a.846.846,0,0,0,.115.043c.338.141.176.078.385.43a1.45,1.45,0,0,0,.23.324l.363-.332a.586.586,0,0,0,.078-.09l.178-.191c2.463,1,3.359,1.7,5.008.867.477-.242.381-.164.535-.516a3.5,3.5,0,0,1-1.541.34c-.471-.129-.189.027-.389-.34.242-.5-.039-.4.945-.293.443.039.422-.051.756-.254-.189-.184-.359-.473-.572-.691.014-1.293-.25-3.039-.311-4.316-.127-2.715-.154-5.875-.449-8.66-.082-.766-.092-.969-.135-1.84-.053-1.043.078-1.516.082-2.328l-.328-.219c-.021-.023-.07-.066-.1-.094-.25-3.8.576-3.531,2.57-3.789a25.268,25.268,0,0,1-.461,4.141C7.982,9,7.818,15.332,7.828,16.8c.008.77-.457,3.652-.3,3.941.658-.445,0-.395.627-1.176.355.809.182,3.5.172,4.648-.027.016-.078,0-.084.035L8,24.328c-.01,0-.062.02-.074.02s-.045.016-.066.031c.68,1.512.43,1.539,1.045,1.652.2-.5,0-.844-.049-1.508l.6-.23c.066-1.652-.348-3.734-.395-5.48-.053-2.066.117-4.086.1-6.027-.012-1.848.295-3.762.3-5.719,0-2.023-.223-4.105-.1-6.055.229.191.1.023.338.359.039.063.207.359.236.4A6.328,6.328,0,0,0,9.516.738c-.291-.73-.01-.7-.725-.738Z" transform="translate(18.976 16.029)" fill="#2b2b2b" fill-rule="evenodd"/><path d="M11.619,15.742c.213-.59-.219-.141.469-.582,1.238-.785,3.131-2.3,3.818-2.16-.256.547.123.152-.482.582l-1.471,1A8.172,8.172,0,0,1,11.619,15.742Zm14.2-8.926c-.248.078-.258.012-.457-.164a4.168,4.168,0,0,0,.5-.414c.17-.172.238-.293.434-.484L29.465,3.16c-.137.895-.479.742-.35,1.582A9.057,9.057,0,0,1,29,6.879l-.262,3.516c.16.691-.016.09.244.367C29.4,10.293,30,6.9,30.322,6.07c.262-.691.484-1.687.768-2.312L31.857,2.2c.266-.668.611-.551,1.209-.828.283-.133.535-.332.75-.437l-.6-.648C33.2.242,33.146.09,33.094,0c-1.936.223-3.875,1.09-5.818,1.324-1.6.188-5.656-.949-6.273.609.17.547.2.484.658.7-.021.051-.064.063-.068.148s-.051.109-.059.145c-.16,1.066,2.258-.117,3.035-.309a25.745,25.745,0,0,1,3.4-.77L25.732,3.6,25.7,4.7a10.068,10.068,0,0,1-2.311,1.566l.525.188-.42.516c-.334-.375-.07.035-.215-.336l-.027-.191c-1.984,1.5-.773.6-1.5,1.707a15.711,15.711,0,0,1-3.2,2.543c-1.916,1.145-3.6,2.336-5.488,3.461-.937.555-1.854,1.191-2.783,1.707a11.533,11.533,0,0,1-3.193,1.3c-1.166.352-2.391.5-3.67.824C1.145,18.57.035,18.137,0,19.035c.541.289.91.008,1.441.086,1.668.246,2.621.734,4.68-.191a44.637,44.637,0,0,1,5.395-2.156.678.678,0,0,1,.328.137c1.2.605-.652-.207.318.168,1.127-1.215,3.117-1.926,4.627-2.6l1.938-1.047c2.129-1.191,6.92-3.82,7.883-5.4L19.467,12.68c-.434.234-1.326.637-1.375.684a4.894,4.894,0,0,1-1.293.813,5.307,5.307,0,0,1-1.836.813l4.354-3.254a.35.35,0,0,0,.084-.066l.174-.133c.3-.191-.076-.07.428-.172l-.572.648a1.566,1.566,0,0,0-.635.691c.686-.492,1.064-1.023,1.828-1.508-.174-.2-.363.074-.621.168.316-.656.781-.289,1.418-.918A36.01,36.01,0,0,1,25.816,6.816Zm.643-2.828c.045-.5.008-.383.209-.652a7.209,7.209,0,0,1,3.285-1.594L28.441,2.957c-.586.172-.129-.27-.844.23-.453.316-.2.367-.779.148C26.619,3.969,26.846,3.613,26.459,3.988Zm2.969,3.051a8.207,8.207,0,0,1,.326-2.926c.363-.7.367-.3.359-1.176-.008-.535.25-.6.758-.762L29.666,6.484c-.033.1-.086.254-.123.352-.01.027-.047.129-.055.105S29.447,7,29.428,7.039ZM21.49,2.09c.8-.98,3.23-.516,4.3-.512-.348.359.334.031-.545.367l-2.768.7C21.461,2.672,21.49,2.09,21.49,2.09Z" fill="#2b2b2b" fill-rule="evenodd"/><path d="M2.584,12.285A2.368,2.368,0,0,1,2,9.934a48.33,48.33,0,0,0,.191-5.027,23.958,23.958,0,0,0,.193-2.645l1.775.223c.111.2.066.035.117.367L3.99,4.828c-.369-.7.238-1.328-.447-1.687-.334.117-.334-.156-.186.93a20,20,0,0,1-.348,6.047C2.885,11.023,3.033,11.8,2.584,12.285Zm6.7-9.941c-.146,2.078-.48,3.918-.5,6.2-.006,2.164.145,4.344.234,6.371a21.071,21.071,0,0,1-3.627.3c-.584-.035-1.295-.262-1.73-.3-1.488-.117-1.871,1.113-1.721-2.391a3.433,3.433,0,0,1,1.02.617,2.771,2.771,0,0,1,.529.875c.006-.027.029.07.051.1l.158-.641a14.872,14.872,0,0,0,2.293.164A2.222,2.222,0,0,0,7.5,13.2c-2.244-.012-.766.348-3.85-.285.17-1.211.758-2.793.754-3.145s.021-.113-.1-.324L3.635,10.8A30.03,30.03,0,0,1,4.877,2.621l1.5.027a12.426,12.426,0,0,1-.709,2.434c-.16.484-.156.836-.279,1.273-.1.359-.342.766-.141,1.145.184-.75.475-1.777.713-2.609.262.3.33.359.186,1.1-.254,1.223-1.408,6.121.58,5.93-.369-.633-.668.176-.65-2.145.016-2.434.945-5.316.969-7.133ZM4.467,9.449c.289-.387.789-1.414.5-2A11.761,11.761,0,0,0,4.467,9.449ZM0,1.867c.15.6.178.543.918.625l.451-.422a41.871,41.871,0,0,1-.633,5.48c-.086.258-.1-.016-.486.371.791,3.82.184,2.9.422,5.563.525.395.373-.082.613,1.059.119.555-.1.133-.1.7,1.51.879,5.3.781,7.3.52,1.209-.16,1.7-.266,2-.879-.123-.078-.031-.086-.307-.125-.129-.023-.445-.016-.6-.023a8.9,8.9,0,0,1,.059-1.246c0-.352-.115-.855-.111-1.391a23.589,23.589,0,0,1,.268-2.8c.229-1.914.309-3.645.555-5.543l.131.211c.018.027.084.176.105.211.1.168.014.105.23.3.25-.555-.123-1.293-.189-1.949L11.1,2.2c-.279-.5-.3-.055-.562-.855-.164-.5-.057-.523-.607-.633L9.873,1.746,4.162,1.57c-.309,0-.619.016-.936.016l-1-.387C2.268.629,2.5.762,2.35.012c-.8-.1-.5.609-.736,1.18S.615,1.621,0,1.867Z" transform="translate(1.481 28)" fill="#2b2b2b" fill-rule="evenodd"/></g></g></svg>