<svg xmlns="http://www.w3.org/2000/svg" width="656.74" height="416.482" viewBox="0 0 656.74 416.482">
  <g id="workwithus" transform="translate(-1016 -6567.519)">
    <rect id="Rectangle_2574" data-name="Rectangle 2574" width="656.74" height="368" rx="62" transform="translate(1016 6616)" fill="#f0f3ff"/>
    <g id="_62_office_work" data-name="#62_office_work" transform="translate(964.334 6523.648)">
      <rect id="Rectangle_2511" data-name="Rectangle 2511" width="303.855" height="218.348" transform="translate(266.888 44.851)" fill="#fff"/>
      <path id="Path_2578" data-name="Path 2578" d="M468.676,264.181H164.8a.981.981,0,0,1-.981-.981V44.851a.981.981,0,0,1,.981-.981H468.676a.981.981,0,0,1,.981.981V263.2A.981.981,0,0,1,468.676,264.181Zm-302.893-1.962H467.694V45.833H165.783Z" transform="translate(102.087 0)" fill="#d1d3d4"/>
      <path id="Path_2579" data-name="Path 2579" d="M214,261.374a1,1,0,0,1-.981-.981V44.851a.981.981,0,0,1,1.963,0V260.393A.981.981,0,0,1,214,261.374Z" transform="translate(149.442 0)" fill="#d1d3d4"/>
      <path id="Path_2580" data-name="Path 2580" d="M270.481,261.374a.981.981,0,0,1-.981-.981V44.851a.981.981,0,1,1,1.962,0V260.393A.981.981,0,0,1,270.481,261.374Z" transform="translate(203.804 0)" fill="#d1d3d4"/>
      <path id="Path_2581" data-name="Path 2581" d="M468.676,50.843H164.8a1,1,0,0,1-.981-.981.981.981,0,0,1,.981-.981H468.676a.981.981,0,1,1,0,1.963Z" transform="translate(102.087 4.822)" fill="#d1d3d4"/>
      <path id="Path_2582" data-name="Path 2582" d="M468.676,56.963H164.8a.981.981,0,1,1,0-1.962H468.676a.981.981,0,1,1,0,1.962Z" transform="translate(102.087 10.713)" fill="#d1d3d4"/>
      <path id="Path_2583" data-name="Path 2583" d="M468.676,63.023H164.8a.981.981,0,0,1-.981-.981,1,1,0,0,1,.981-.981H468.676a.981.981,0,1,1,0,1.963Z" transform="translate(102.087 16.545)" fill="#d1d3d4"/>
      <path id="Path_2584" data-name="Path 2584" d="M468.676,69.123H164.8a1,1,0,0,1-.981-.981.981.981,0,0,1,.981-.981H468.676a.981.981,0,1,1,0,1.962Z" transform="translate(102.087 22.417)" fill="#d1d3d4"/>
      <path id="Path_2585" data-name="Path 2585" d="M468.676,151.962H164.8a.981.981,0,0,1-.981-.981A1,1,0,0,1,164.8,150H468.676a.981.981,0,1,1,0,1.962Z" transform="translate(102.087 102.151)" fill="#d1d3d4"/>
      <path id="Path_2586" data-name="Path 2586" d="M338.706,234.38a16.837,16.837,0,0,0-1.963-9.145,64.3,64.3,0,0,1-4.1-5.77c-1.747-3.729-.53-8.085-.942-12.168a15.092,15.092,0,0,0-4.259-9.047c-2.139-2.159-4.887-3.631-6.908-5.887-3.336-3.69-4.3-8.871-6.2-13.463a33.6,33.6,0,0,0-13.345-15.7c3.65,7.32-4.651,16.622-.883,23.884,1.178,2.316,3.454,3.925,4.337,6.437,2.1,5.888-4.926,12.266-2.669,18.094,1.119,2.924,4.239,4.612,5.691,7.379,1.962,3.729.432,8.262.589,12.462.216,5.888,3.748,11.01,7.948,15.033,2.61,2.492,5.534,4.671,8.36,6.928,3.376,2.708,4.808,5.554,7.85,1.217a37.287,37.287,0,0,0,6.5-20.253Z" transform="translate(232.292 114.856)" fill="#231f20"/>
      <path id="Path_2587" data-name="Path 2587" d="M321.764,233.568c-1.1-4.494-1.864-9.361,0-13.6,2.08-4.808,7.242-8.184,7.85-13.384.393-3.4-1.335-6.83-.667-10.185s3.434-5.652,5.691-8.125a33.991,33.991,0,0,0,8.772-20.783,51.985,51.985,0,0,1,8.36,13.738,17.82,17.82,0,0,1-1.217,15.6,13.422,13.422,0,0,0-2.12,3.454c-1.02,3.317,1.806,6.4,3.277,9.538a10.97,10.97,0,0,1-1.04,11.265c-2.963,3.709-8.694,5.142-10.146,9.655a22.356,22.356,0,0,0-.51,5.122A15.013,15.013,0,0,1,329.2,248.757c-3.513.863-3.454-.53-4.082-3.493C324.237,241.378,322.706,237.532,321.764,233.568Z" transform="translate(253.021 118.985)" fill="#231f20"/>
      <path id="Path_2588" data-name="Path 2588" d="M322.527,207.184c-2.492-8.635-3.493-17.663-6.123-26.239a145.845,145.845,0,0,0-8.184-19.625l10.715,4.514c3.434,1.452,7.163,3.16,8.772,6.516,2.826,5.888-2.237,13.345.726,19.115a47.5,47.5,0,0,0,4.239,5.318c3.14,4.435,2.669,10.519.942,15.7-.746,2.2-3.925,13.738-6.888,10.48-1.178-1.276-1.276-6.025-1.747-7.85C324.214,212.522,323.292,209.872,322.527,207.184Z" transform="translate(241.072 113.046)" fill="#231f20"/>
      <path id="Path_2589" data-name="Path 2589" d="M322.82,274.845c-2.119-14.11-8.812-63.86-8.89-64.37l1.962-.255c0,.51,6.751,50.22,8.871,64.331Z" transform="translate(246.568 160.113)" fill="#231f20"/>
      <path id="Path_2590" data-name="Path 2590" d="M320.762,291.741H318.8c.118-16.76,7.124-80.836,11.147-85.251l1.452,1.335C328.318,211.18,320.9,273.137,320.762,291.741Z" transform="translate(251.256 156.523)" fill="#231f20"/>
      <path id="Path_2591" data-name="Path 2591" d="M325.625,303.75l-1.963-.1c1.59-36.11-6.064-112-6.143-112.746l1.962-.2C319.561,191.456,327.234,267.483,325.625,303.75Z" transform="translate(250.024 141.334)" fill="#231f20"/>
      <path id="Path_2592" data-name="Path 2592" d="M309.14,222.54h39.878l-2.865,45.275c-.471,7.85-6.28,13.895-13.286,13.895h-7.713c-6.987,0-12.8-6.064-13.286-13.895Z" transform="translate(241.958 171.971)" fill="#fff"/>
      <path id="Path_2593" data-name="Path 2593" d="M333.418,283.231H325.7c-7.5,0-13.738-6.535-14.287-14.856L308.631,223.1a1.021,1.021,0,0,1,.275-.765,1,1,0,0,1,.726-.314H349.51a1,1,0,0,1,1,1.079l-2.787,45.275C347.214,276.7,340.934,283.231,333.418,283.231Zm-22.706-59.189,2.728,44.2c.451,7.281,5.888,12.972,12.266,12.972h7.713c6.437,0,11.775-5.691,12.285-12.972l2.728-44.2Z" transform="translate(241.466 171.47)" fill="#231f20"/>
      <path id="Path_2594" data-name="Path 2594" d="M139.888,175.27c-1.963,4.023,1.021,7.575,8.478,7.575h20.41c3.042,0,10.656-9.086,6.849-13.738S141.87,171.267,139.888,175.27Z" transform="translate(78.486 119.035)" fill="#231f20"/>
      <path id="Path_2595" data-name="Path 2595" d="M169.247,184.271h-20.41c-4.553,0-7.85-1.276-9.3-3.611a5.358,5.358,0,0,1,0-5.377c1.629-3.3,15.7-6.908,24.61-7.85,6.947-.785,11.245-.255,12.737,1.59s1.688,4.828.177,8.027S171.72,184.271,169.247,184.271Zm.373-15.308a48.309,48.309,0,0,0-5.3.353c-10.558,1.2-22.137,4.926-23.079,6.829a3.513,3.513,0,0,0,0,3.474c1.06,1.707,3.925,2.689,7.634,2.689h20.41c1.217,0,4.4-2.767,6.005-6.182.667-1.433,1.59-4.1,0-5.888-.491-.726-2.277-1.354-5.672-1.354Z" transform="translate(78.016 118.591)" fill="#231f20"/>
      <path id="Path_2596" data-name="Path 2596" d="M190.822,162.81a90.823,90.823,0,0,1-19.468,2.551c-4.769,0-9.086-1.413-13.738-.549a29.242,29.242,0,0,0-12.737,5.672c-.51.412-1.06.981-.883,1.609a1.374,1.374,0,0,0,.746.8c1.963,1,3.925-.216,5.731-.706a23.552,23.552,0,0,1,5.75-.785,18.428,18.428,0,0,1,11.559,3.218,2.551,2.551,0,0,1,1.079,1.334,1.962,1.962,0,0,1-.628,1.707,5.71,5.71,0,0,1-1.648.942l-6.241,2.708c-.334.137-.746.432-.608.785s.275.275.451.353c6.182,2.257,12.737-1.963,18.644-3.238a127.57,127.57,0,0,1,19.625-2.826,18.055,18.055,0,0,1-2.061-13.423" transform="translate(82.974 114.48)" fill="#fff"/>
      <path id="Path_2597" data-name="Path 2597" d="M164.476,184.466a11.992,11.992,0,0,1-4.18-.707,1.57,1.57,0,0,1-1-.883c-.236-.608,0-1.452,1.1-1.963l6.241-2.708a4.632,4.632,0,0,0,1.374-.765,1.04,1.04,0,0,0,.373-.863c0-.294-.432-.589-.726-.8a17.662,17.662,0,0,0-11.01-3.042,22.194,22.194,0,0,0-5.534.746,9.456,9.456,0,0,0-1.2.392,6.28,6.28,0,0,1-5.2.235,2.276,2.276,0,0,1-1.178-1.334c-.255-.883.157-1.747,1.2-2.551a27.063,27.063,0,0,1,22.019-5.75,47.883,47.883,0,0,0,5.1.432,91.044,91.044,0,0,0,19.272-2.551.891.891,0,1,1,.353,1.747,93.712,93.712,0,0,1-19.625,2.591,50.789,50.789,0,0,1-5.3-.432,27.789,27.789,0,0,0-8.36-.137,28.4,28.4,0,0,0-12.344,5.5c-.53.432-.569.667-.569.667h0s0,.1.314.235a4.691,4.691,0,0,0,3.729-.334l1.315-.432a24.905,24.905,0,0,1,5.888-.824,19.37,19.37,0,0,1,12.109,3.4,3.3,3.3,0,0,1,1.413,1.845,2.728,2.728,0,0,1-.883,2.571,6.438,6.438,0,0,1-1.962,1.119l-5.593,2.434c3.925,1,7.948-.432,11.873-1.825a47.758,47.758,0,0,1,5.417-1.688,123.481,123.481,0,0,1,18.369-2.748,18.8,18.8,0,0,1-1.472-12.854.883.883,0,0,1,1.079-.667.9.9,0,0,1,.648,1.079,17.132,17.132,0,0,0,1.962,12.776.844.844,0,0,1,0,.864.9.9,0,0,1-.746.491,123.366,123.366,0,0,0-19.488,2.806,44.767,44.767,0,0,0-5.2,1.629,30.4,30.4,0,0,1-9.577,2.316Z" transform="translate(82.492 114.019)" fill="#231f20"/>
      <rect id="Rectangle_2512" data-name="Rectangle 2512" width="22.981" height="18.487" transform="translate(360.028 349.452)" fill="#fff"/>
      <path id="Path_2598" data-name="Path 2598" d="M235.194,219.393H212.213a.883.883,0,0,1-.883-.9V200.023a.883.883,0,0,1,.883-.9h22.981a.9.9,0,0,1,.9.9V218.51a.9.9,0,0,1-.9.883Zm-22.078-1.786h21.117v-16.76H213.116Z" transform="translate(147.815 149.429)" fill="#231f20"/>
      <rect id="Rectangle_2513" data-name="Rectangle 2513" width="13.993" height="82.759" transform="translate(364.523 367.762)" fill="#231f20"/>
      <path id="Path_2599" data-name="Path 2599" d="M228.544,293.112H214.551a.981.981,0,0,1-.981-.981V209.391a.981.981,0,0,1,.981-.981h13.993a.981.981,0,0,1,.981.981V292.13A.981.981,0,0,1,228.544,293.112Zm-13.011-1.962h12.03V210.373h-12.03Z" transform="translate(149.971 158.371)" fill="#231f20"/>
      <path id="Path_2600" data-name="Path 2600" d="M280.741,257.409a141.3,141.3,0,0,0-83.7,0Z" transform="translate(134.061 199.431)" fill="#231f20"/>
      <path id="Path_2601" data-name="Path 2601" d="M281.258,258.879H197.479a.962.962,0,0,1-.962-.824.981.981,0,0,1,.667-1.1,142.437,142.437,0,0,1,84.388,0,1,1,0,0,1,.667,1.1.981.981,0,0,1-.981.824Zm-76.734-1.963h69.767A141.3,141.3,0,0,0,204.524,256.916Z" transform="translate(133.544 198.943)" fill="#231f20"/>
      <path id="Path_2602" data-name="Path 2602" d="M168.447,243.5a11.6,11.6,0,0,1-4.769,5.5c-2.63,1.2-33.716,8.085-33.225,12.54s3.69,5.416,11.952,5.73c11.069.412,46.354-2.571,46.354-2.571v-18.8Z" transform="translate(69.965 192.145)" fill="#fff"/>
      <path id="Path_2603" data-name="Path 2603" d="M145.342,268.665H142.81c-8.4-.334-12.246-1.354-12.815-6.555-.373-3.454,9.44-6.771,27.691-11.775,2.944-.785,5.475-1.472,6.064-1.747a10.892,10.892,0,0,0,4.3-4.965.883.883,0,0,1,.962-.589l20.312,2.375a.9.9,0,0,1,.785.9v18.8a.883.883,0,0,1-.824.883C187.948,266.153,158.275,268.665,145.342,268.665Zm24.1-23.727a12.089,12.089,0,0,1-4.965,5.358c-.667.294-2.63.844-6.339,1.845-17.663,4.769-26.533,8.046-26.356,9.813.393,3.591,2.669,4.612,11.088,4.926,9.97.392,40.074-2.061,45.452-2.492V247.195Z" transform="translate(69.52 191.688)" fill="#231f20"/>
      <path id="Path_2604" data-name="Path 2604" d="M209.545,246.108s-33.559,11.52-34.991,13.738,1.119,4.749,10.048,5.554,47.1-1.276,47.1-1.276.471-10.362-1.963-15.7S209.545,246.108,209.545,246.108Z" transform="translate(112.058 193.835)" fill="#fff"/>
      <path id="Path_2605" data-name="Path 2605" d="M191.419,266.868a58.162,58.162,0,0,1-6.457-.2c-6.123-.55-9.813-1.962-10.951-4.1a2.728,2.728,0,0,1,.235-2.826c1.492-2.3,27.475-11.363,35.443-14.091h.157c1.963-.294,18.663-2.806,21.254,2.9,2.453,5.4,1.962,15.6,1.962,16.034a.9.9,0,0,1-.863.844C230.943,265.475,205.117,266.868,191.419,266.868ZM210.2,247.38c-15.7,5.417-33.206,11.932-34.481,13.365a1.02,1.02,0,0,0-.1,1.06c.55,1.119,3.336,2.532,9.5,3.081,8.027.706,40.585-.942,46.2-1.236,0-2.512,0-10.225-1.845-14.385-1.531-3.375-12.6-2.944-19.272-1.884Z" transform="translate(111.619 193.445)" fill="#231f20"/>
      <path id="Path_2606" data-name="Path 2606" d="M353.6,127.06h-93.69s-7.006,83.877-11.481,103.542S225.823,256,212.438,255.663s-47.807-4.1-49.063,0,2.237,12.089,16.878,15.916,103.66,3.2,103.66,3.2,31.145-9.813,48.356-31.243S358.39,147.274,353.6,127.06Z" transform="translate(101.432 80.071)" fill="#fff"/>
      <path id="Path_2607" data-name="Path 2607" d="M269.436,276.182c-26.062,0-77.911-.373-88.98-3.277s-14.994-7.732-16.485-10.4a8.772,8.772,0,0,1-1.04-6.633c.981-3.2,11.363-3.042,35.8-1.433,5.456.353,10.6.687,14.169.785,14.228.334,30.909-5.887,35.109-24.394,4.4-19.37,11.383-102.56,11.441-103.4a.922.922,0,0,1,.9-.824h93.69a.883.883,0,0,1,.863.707c4.808,20.273-3.768,95.181-21.588,117.26-17.192,21.372-48.493,31.4-48.807,31.518a.588.588,0,0,1-.255,0C283.448,276.143,277.757,276.182,269.436,276.182ZM174.215,255.1c-5.22,0-9.106.334-9.577,1.3a6.967,6.967,0,0,0,.9,5.22c1.354,2.433,5.142,6.888,15.366,9.557,14.11,3.69,99.283,3.179,103.267,3.16,2.178-.707,31.518-10.617,47.807-30.89,16.9-21.018,25.513-94.534,21.332-115.042h-92.14c-.746,8.753-7.242,84.388-11.422,102.835-2.9,12.815-14.13,26.278-36.915,25.768-3.591,0-8.753-.432-14.228-.785C191.858,255.772,181.672,255.1,174.215,255.1Z" transform="translate(100.994 79.628)" fill="#231f20"/>
      <path id="Path_2608" data-name="Path 2608" d="M281.523,255.932S308.9,187.5,306.015,153.764s-24.963-35.816-32.617-36.287-48.278-5.887-63.095,12.266-10.951,105.622-10.951,105.622Z" transform="translate(135.85 69.773)" fill="#5775ff"/>
      <path id="Path_2609" data-name="Path 2609" d="M234.29,180.452s-29.1-4.847-41.546,6.143-44.274,119.6-44.274,119.6,6.692,10.519,24.374,5.259l71.71-114.257S249.775,180.06,234.29,180.452Z" transform="translate(87.312 130.436)" fill="#231f20"/>
      <path id="Path_2610" data-name="Path 2610" d="M163.877,314.4c-11.049,0-15.563-6.829-15.7-7.183a.981.981,0,0,1-.118-.8c1.315-4.455,32.067-108.978,44.568-120.046s40.114-6.731,42.253-6.378c4.455-.1,7.85,1.2,9.813,3.925,3.925,5.24,1.452,13.738,1.354,14.13a.667.667,0,0,1-.118.236l-71.69,114.237a1.178,1.178,0,0,1-.549.432A34.345,34.345,0,0,1,163.877,314.4Zm-13.895-7.85c1.315,1.727,7.85,8.871,22.667,4.592l71.435-113.825c.275-1,2.08-8.125-1.06-12.266-1.648-2.139-4.435-3.2-8.282-3.081h-.177c-.294,0-28.81-4.651-40.742,5.887s-41.566,111-43.882,118.653Z" transform="translate(86.879 129.923)" fill="#231f20"/>
      <path id="Path_2611" data-name="Path 2611" d="M297.319,200.469s-53.537-23.432-69.787-25.807c0,0-30.124-5.75-42.076,16.25S201.49,314.707,201.49,314.707a31.4,31.4,0,0,0,21.745,3.827l9.322-99.381S299.282,223.882,297.319,200.469Z" transform="translate(120.054 125.236)" fill="#231f20"/>
      <path id="Path_2612" data-name="Path 2612" d="M217.934,320.529A31.871,31.871,0,0,1,201.449,316a.981.981,0,0,1-.393-.569c-1.158-4.16-27.946-102.443-15.955-124.521,12.168-22.373,42.8-16.8,43.175-16.76,16.151,2.375,67.8,24.924,70,25.885a.981.981,0,0,1,.589.824,11.638,11.638,0,0,1-3.572,9.479c-12.54,12.7-54.361,10.813-61.446,10.4L224.764,319.1a.962.962,0,0,1-.785.863,30.946,30.946,0,0,1-6.044.569Zm-15.092-5.887a30.792,30.792,0,0,0,19.978,3.631l9.106-98.655a1.021,1.021,0,0,1,1.06-.883c.471,0,48.062,3.179,60.838-9.813a9.813,9.813,0,0,0,3.042-7.379c-5.73-2.473-53.93-23.275-68.982-25.513-.353,0-29.614-5.338-41.075,15.7-11.245,20.842,14.209,116.063,16.034,122.814Z" transform="translate(119.604 124.771)" fill="#231f20"/>
      <path id="Path_2613" data-name="Path 2613" d="M247.886,123.18s-10.97,21.077-17.447,31.91-20.489,26.376-20.489,26.376-49.71,17.663-50.024,18.624,4.71,17.663,4.71,17.663S216.8,214,225.475,209.9,251.6,185.745,251.6,185.745Z" transform="translate(98.326 76.336)" fill="#5775ff"/>
      <path id="Path_2614" data-name="Path 2614" d="M259.723,90.635a7.673,7.673,0,0,0-5.161-2.139,3.572,3.572,0,0,0-3.434,3.729A17.427,17.427,0,0,0,236.938,85.1a40.526,40.526,0,0,0-15.994,3.552,110.9,110.9,0,0,1-15.5,5.613,31.4,31.4,0,0,0,12.089,20.43,62.62,62.62,0,0,0,9.813,5.632l7.124,3.572c7.281,3.65,17.25,6.79,25.2,2.865,6.947-3.415,8.223-15.7,7.3-22.333a21.98,21.98,0,0,0-7.242-13.8Z" transform="translate(142.146 39.684)" fill="#fff"/>
      <path id="Path_2615" data-name="Path 2615" d="M251.741,130.052a40.448,40.448,0,0,1-17.329-4.789l-7.124-3.572a62.072,62.072,0,0,1-9.813-5.73,32.46,32.46,0,0,1-12.482-21.077,1,1,0,0,1,.746-1.1,75.38,75.38,0,0,0,11.775-4.121c1.178-.491,2.355-.981,3.533-1.433A42.292,42.292,0,0,1,237.434,84.6a18.938,18.938,0,0,1,13.737,5.888,2.47,2.47,0,0,1,.373-.549,4.906,4.906,0,0,1,3.513-1.962,8.36,8.36,0,0,1,5.888,2.355h0a22.686,22.686,0,0,1,7.516,14.4c1.06,7.575-.667,19.821-7.85,23.354a19.626,19.626,0,0,1-8.871,1.962Zm-44.765-34.56a30.4,30.4,0,0,0,11.6,18.9,63,63,0,0,0,9.577,5.554L235.3,123.5c6.81,3.415,16.564,6.692,24.315,2.865,6.221-3.062,7.713-14.523,6.751-21.313a20.822,20.822,0,0,0-6.829-13.168h0a6.594,6.594,0,0,0-4.455-1.963,3.1,3.1,0,0,0-2.12,1.138,1.825,1.825,0,0,0-.432,1.433.981.981,0,0,1-1.786.707,16.5,16.5,0,0,0-13.4-6.673,40.173,40.173,0,0,0-15.6,3.493c-1.178.451-2.335.942-3.493,1.413A84.388,84.388,0,0,1,206.976,95.492Z" transform="translate(141.709 39.203)" fill="#231f20"/>
      <path id="Path_2616" data-name="Path 2616" d="M222.5,137.188v18.251a13.384,13.384,0,0,0,16.23,7.006c11.932-3.042,13.384-11.618,13.384-11.618l-.53-33.775s-8.929-4.632-6.555-23.943a59.248,59.248,0,0,1-31.066,4.69s-5.181,20.979-3.611,30.242S222.5,137.188,222.5,137.188Z" transform="translate(146.592 47.394)" fill="#fff"/>
      <path id="Path_2617" data-name="Path 2617" d="M234.882,164.53a14.4,14.4,0,0,1-12.835-8.184,1.275,1.275,0,0,1,0-.373V138.566c-2.806-.255-10.774-1.707-12.148-9.911-1.57-9.361,3.434-29.771,3.65-30.635a.962.962,0,0,1,1.06-.726,58.875,58.875,0,0,0,30.5-4.592.961.961,0,0,1,1.02,0,1.021,1.021,0,0,1,.412.922c-2.257,18.291,5.887,22.9,6.025,22.961a.962.962,0,0,1,.53.844l.53,33.775c0,.569-1.727,9.42-14.13,12.58a17.839,17.839,0,0,1-4.612.746Zm-10.951-8.772c.628,1.3,4.749,8.871,14.994,6.26,11.127-2.826,12.619-10.5,12.678-10.833l-.549-33.049c-1.963-1.315-8.223-6.928-6.731-22.883a61.309,61.309,0,0,1-29.143,4.161c-.922,3.925-4.749,21.077-3.415,28.986,1.393,8.341,10.794,8.341,11.186,8.341a.765.765,0,0,1,.707.294.981.981,0,0,1,.275.687Z" transform="translate(146.145 46.86)" fill="#231f20"/>
      <path id="Path_2618" data-name="Path 2618" d="M227.64,108.412a7.85,7.85,0,0,1,2.669-4.219,13.994,13.994,0,0,1,4.161-2.159,5.691,5.691,0,0,1,2.532-.471,4.671,4.671,0,0,1,1.707.589,6.123,6.123,0,0,1,2.924,3,7.418,7.418,0,0,1,.2,3.415,14.581,14.581,0,0,1-.883,3.65,9.5,9.5,0,0,1-12.5,5.1" transform="translate(163.514 55.524)" fill="#fff"/>
      <path id="Path_2619" data-name="Path 2619" d="M232.655,119.551a10.4,10.4,0,0,1-4.121-.844.981.981,0,1,1,.785-1.786,8.5,8.5,0,0,0,11.206-4.573,13.5,13.5,0,0,0,.8-3.4,6.515,6.515,0,0,0-.137-2.963,5.2,5.2,0,0,0-2.492-2.473,3.69,3.69,0,0,0-1.354-.491,5.339,5.339,0,0,0-2.08.432,13.207,13.207,0,0,0-3.925,1.963,6.77,6.77,0,0,0-2.277,3.67,1,1,0,1,1-1.962-.432,8.733,8.733,0,0,1,2.944-4.749,14.543,14.543,0,0,1,4.455-2.335,6.535,6.535,0,0,1,2.963-.53,5.652,5.652,0,0,1,1.963.707,6.908,6.908,0,0,1,3.376,3.513,8.007,8.007,0,0,1,.255,3.925,14.6,14.6,0,0,1-.942,3.925,10.48,10.48,0,0,1-5.711,5.691,10.637,10.637,0,0,1-3.748.746Z" transform="translate(162.973 55.021)" fill="#231f20"/>
      <path id="Path_2620" data-name="Path 2620" d="M221.657,101.41s-6.5,9.2-5.044,10.872,5.652.687,5.652.687" transform="translate(152.697 55.383)" fill="#fff"/>
      <path id="Path_2621" data-name="Path 2621" d="M220.22,114.779a5,5,0,0,1-3.925-1.315c-1.629-1.963,1.806-7.595,4.965-12.089a.981.981,0,0,1,1.374-.236,1,1,0,0,1,.236,1.374c-3,4.259-5.377,8.792-5.063,9.813.765.844,3.454.569,4.651.294a1,1,0,1,1,.432,1.963,14.3,14.3,0,0,1-2.669.2Z" transform="translate(152.191 54.946)" fill="#231f20"/>
      <ellipse id="Ellipse_700" data-name="Ellipse 700" cx="1.55" cy="2.178" rx="1.55" ry="2.178" transform="translate(380.258 154.206) rotate(-3.53)" fill="#231f20"/>
      <ellipse id="Ellipse_701" data-name="Ellipse 701" cx="2.178" cy="1.55" rx="2.178" ry="1.55" transform="translate(365.212 157.775) rotate(-76.4)" fill="#231f20"/>
      <path id="Path_2622" data-name="Path 2622" d="M226.685,115.963a24.727,24.727,0,0,1-14.13-4.73.985.985,0,1,1,1.217-1.55s9.93,7.595,21.058,2.512a.962.962,0,0,1,1.3.491.981.981,0,0,1-.491,1.3A21.431,21.431,0,0,1,226.685,115.963Z" transform="translate(148.631 63.143)" fill="#231f20"/>
      <path id="Path_2623" data-name="Path 2623" d="M218.4,118.168a11.744,11.744,0,1,1,11.579-13.777h0a11.775,11.775,0,0,1-9.538,13.6,12.127,12.127,0,0,1-2.041.177Zm0-21.588a10.009,10.009,0,0,0-1.707.137A9.97,9.97,0,1,0,218.4,96.6Z" transform="translate(143.379 48.908)" fill="#231f20"/>
      <path id="Path_2624" data-name="Path 2624" d="M229.98,117.75a11.775,11.775,0,1,1,1.963-.177A11.775,11.775,0,0,1,229.98,117.75Zm0-21.588a10.182,10.182,0,0,0-1.707.137,9.783,9.783,0,1,0,11.324,7.968h0a9.812,9.812,0,0,0-9.616-8.086Z" transform="translate(154.364 48.443)" fill="#231f20"/>
      <path id="Path_2625" data-name="Path 2625" d="M216.4,116.157s11.363,2.63,18.055-1.2c0,0-7.4,15.308-18.055,13.738Z" transform="translate(152.695 68.424)" fill="#231f20"/>
      <path id="Path_2626" data-name="Path 2626" d="M218.471,130.235a13,13,0,0,1-1.727-.118,1,1,0,0,1-.844-.981v-12.5a.962.962,0,0,1,.373-.765,1.079,1.079,0,0,1,.844-.2s11.049,2.492,17.329-1.079a.981.981,0,0,1,1.374,1.276C235.505,116.478,228.735,130.235,218.471,130.235Zm-.608-1.963c6.869.393,12.325-6.81,14.778-10.755a33.539,33.539,0,0,1-14.778.334Z" transform="translate(152.214 67.946)" fill="#231f20"/>
      <path id="Path_2627" data-name="Path 2627" d="M217.18,261.921s4.18,11.912,14.7,12.874,48.454-.922,60.838-36.817C307.337,195.372,311.851,134.26,306.1,129s-9.243.471-9.243,13.738c0,10.068-7.026,61.583-11.461,83.662C278.842,258.6,231.546,265.316,217.18,261.921Z" transform="translate(153.446 80.073)" fill="#fff"/>
      <path id="Path_2628" data-name="Path 2628" d="M237.05,276.336a34.417,34.417,0,0,1-4.828-.216c-10.951-1-15.268-12.953-15.445-13.443a.883.883,0,0,1,.177-.9.844.844,0,0,1,.864-.275c9.813,2.316,33.009-.157,49.377-10.676,9.813-6.26,15.7-14.4,17.663-24.217,4.4-21.823,11.461-73.319,11.461-83.485,0-6.437.824-14.464,4.749-16.191,1.786-.785,3.788-.157,5.888,1.845,6.339,5.888,1.511,67.235-13.129,109.9C283.64,268.683,254.555,276.336,237.05,276.336ZM219.112,263.58c1.491,3.12,5.672,10.068,13.286,10.755.451,0,46.158,3.729,59.856-36.208,14.68-42.743,18.8-103.287,13.62-108.036-1.609-1.472-2.983-1.963-4.043-1.531-2.316,1.021-3.69,6.457-3.69,14.562,0,10.225-7.085,61.956-11.481,83.838-2.08,10.3-8.3,18.84-18.506,25.375C252.259,262.54,229.985,265.346,219.112,263.58Z" transform="translate(153.005 79.631)" fill="#231f20"/>
      <path id="Path_2629" data-name="Path 2629" d="M275.361,121.192c9.263,1.648,46.865,88.548,33.991,98.479-20.076,15.484-89.961-.177-89.961-.177l5.691-26.945s44.941,1.236,45.569-7.987-26.121-51.849-22.588-58.306S275.361,121.192,275.361,121.192Z" transform="translate(155.573 74.301)" fill="#5775ff"/>
      <path id="Path_2630" data-name="Path 2630" d="M186.861,238.272a1,1,0,0,1-.9-.608c-9.44-22.687,1.963-56.088,2.453-57.5a.981.981,0,1,1,1.845.648c-.118.334-11.638,34.108-2.492,56.108a.962.962,0,0,1-.53,1.276,1.138,1.138,0,0,1-.373.079Z" transform="translate(119.806 130.472)" fill="#fff"/>
      <path id="Path_2631" data-name="Path 2631" d="M248.251,223.281h-.177l-21.823-3.748a.981.981,0,0,1-.8-.942l-.707-26.141a.981.981,0,0,1,.883-1l39.25-4.043L247.6,127.845a1.019,1.019,0,1,1,1.963-.55l17.663,60.681a1,1,0,0,1-.137.824.942.942,0,0,1-.706.432l-39.564,4.082.667,24.414,21.018,3.611a1,1,0,0,1,.8,1.138.962.962,0,0,1-1.06.8Z" transform="translate(160.722 79.581)" fill="#231f20"/>
      <path id="Path_2632" data-name="Path 2632" d="M259.911,163.583a102.442,102.442,0,0,1-22.333-1.079,67.844,67.844,0,0,0-16.7-1.962,63.113,63.113,0,0,0-21.588,4.906,1.844,1.844,0,0,0-.726.491c-.648.922.922,1.825,1.963,1.845a29.437,29.437,0,0,0,8.772-1.1,84.385,84.385,0,0,0-19.88,10.558c-.687.491-1.452,1.3-1.119,2.08s1.766.648,2.689.235l16.053-7.359a40.172,40.172,0,0,0-11.4,6.928c-.491.432-1,1-.864,1.629.235,1.079,1.825.864,2.826.373a94.713,94.713,0,0,0,13.953-8.517l-9.93,7.595c-.118.8.746,1.491,1.55,1.531a4.494,4.494,0,0,0,2.3-.8l11.049-6.4-6.888,4.847c-1.079.746-2.316,1.962-1.786,3.179s2.747,1,4.16.353a84.117,84.117,0,0,1,17.761-5.456,27.476,27.476,0,0,1,6.574-1.334,56.914,56.914,0,0,1,10.087,2.2c5,1.119,9.989,2.277,14.994,3.434" transform="translate(125.571 112.295)" fill="#fff"/>
      <path id="Path_2633" data-name="Path 2633" d="M210.1,184.855a3.257,3.257,0,0,1-1.217-.216,2.375,2.375,0,0,1-1.335-1.276,2.512,2.512,0,0,1,0-1.845l-1.06.608a5.161,5.161,0,0,1-2.767.922,2.65,2.65,0,0,1-1.962-.922,2.178,2.178,0,0,1-.51-1.177c-.9.491-1.806.962-2.728,1.413a3.925,3.925,0,0,1-3.12.275,1.805,1.805,0,0,1-.981-1.276,2.3,2.3,0,0,1,.726-1.963l-3.258,1.492a3.925,3.925,0,0,1-2.826.314,1.963,1.963,0,0,1-1.06-1c-.451-1.04,0-2.178,1.433-3.16a84.051,84.051,0,0,1,13.325-7.85h-1.747a3.533,3.533,0,0,1-2.885-1.55,1.629,1.629,0,0,1,.137-1.707,2.512,2.512,0,0,1,1.1-.8,63.624,63.624,0,0,1,21.843-4.985,59.191,59.191,0,0,1,14.856,1.55l1.962.393a102.991,102.991,0,0,0,22.157,1.06.922.922,0,0,1,.922.864.9.9,0,0,1-.863.942,105.661,105.661,0,0,1-22.549-1.119l-1.963-.373a58.229,58.229,0,0,0-14.444-1.531,61.919,61.919,0,0,0-21.215,4.847,1.352,1.352,0,0,0-.334.2,3.257,3.257,0,0,0,1.335.432,28.437,28.437,0,0,0,8.517-1.079.9.9,0,0,1,1.1.569.942.942,0,0,1-.549,1.138,83.289,83.289,0,0,0-19.625,10.44c-.687.491-.864.883-.824.981a1.963,1.963,0,0,0,1.472-.216l12.442-5.691c1.2-.608,2.414-1.178,3.69-1.688a.9.9,0,0,1,.687,1.648l-3.591,1.648a38.976,38.976,0,0,0-7.595,5.161c-.628.53-.589.746-.589.746a2.1,2.1,0,0,0,1.57-.236,92.883,92.883,0,0,0,13.738-8.439.9.9,0,0,1,1.079,1.433l-9.479,7.261a.9.9,0,0,0,.589.255,3.317,3.317,0,0,0,1.806-.687l11.069-6.378a.864.864,0,0,1,1.2.294.9.9,0,0,1-.235,1.217l-6.908,4.828c-.883.628-1.747,1.511-1.472,2.1a.51.51,0,0,0,.334.334,4.063,4.063,0,0,0,2.649-.451,84.564,84.564,0,0,1,17.937-5.515c.706-.157,1.413-.353,2.119-.55a15.133,15.133,0,0,1,4.671-.8,31.4,31.4,0,0,1,7.183,1.433c1.04.275,2.08.569,3.061.785,5,1.138,10.009,2.277,14.994,3.454a.883.883,0,0,1,.667,1.079.922.922,0,0,1-1.079.667c-4.985-1.178-9.989-2.316-14.974-3.454-1.021-.216-2.08-.51-3.14-.8a30.222,30.222,0,0,0-6.771-1.354,13.916,13.916,0,0,0-4.121.726c-.746.216-1.492.412-2.257.569a82.426,82.426,0,0,0-17.564,5.417,7.38,7.38,0,0,1-2.767.608Z" transform="translate(125.201 111.903)" fill="#231f20"/>
      <path id="Path_2634" data-name="Path 2634" d="M217.25,128.73s-8.223,33.559-15.7,57.4" transform="translate(138.402 81.678)" fill="#fff"/>
      <path id="Path_2635" data-name="Path 2635" d="M202.035,187.453h-.275a.883.883,0,0,1-.589-1.119c7.32-23.55,15.523-57.03,15.7-57.364a.89.89,0,1,1,1.727.432c0,.334-8.3,33.853-15.7,57.462A.9.9,0,0,1,202.035,187.453Z" transform="translate(137.996 81.261)" fill="#231f20"/>
      <path id="Path_2636" data-name="Path 2636" d="M234.639,178.376H162.026a5.318,5.318,0,0,1,1.3-7.006h69.846Z" transform="translate(99.602 122.719)" fill="#fff"/>
      <path id="Path_2637" data-name="Path 2637" d="M235.1,179.7H162.488a.863.863,0,0,1-.765-.432,6.123,6.123,0,0,1,1.472-8.184.922.922,0,0,1,.549-.177h69.846a.883.883,0,0,1,.883.707l1.413,6.986a.844.844,0,0,1-.177.746.9.9,0,0,1-.608.353Zm-72.024-1.786H234l-1.06-5.2H164.136a4.278,4.278,0,0,0-1.06,5.2Z" transform="translate(99.14 122.277)" fill="#231f20"/>
      <path id="Path_2638" data-name="Path 2638" d="M225.567,175.921s-25.2-6.2-27.181-4.219-1.315,6.457,1.59,6.731,3.552-3.572,3.552-3.572l22.039,4.357Z" transform="translate(134.265 122.662)" fill="#fff"/>
      <path id="Path_2639" data-name="Path 2639" d="M225.984,180.543h-.177l-21.2-4.2a4.278,4.278,0,0,1-4.3,3.415,3.748,3.748,0,0,1-3.14-2.728,5.475,5.475,0,0,1,1.06-5.613c1.963-1.962,18.428,1.629,28.025,3.925a.9.9,0,0,1,.667.883v3.3a.942.942,0,0,1-.314.687.9.9,0,0,1-.628.334Zm-22.039-6.123h.177l20.96,4.141V177.03c-11.579-2.826-24.178-5.161-25.689-4.259a3.925,3.925,0,0,0-.608,3.69,2.1,2.1,0,0,0,1.688,1.472c1.963.2,2.591-2.787,2.591-2.826a.863.863,0,0,1,.373-.569A.824.824,0,0,1,203.945,174.42Z" transform="translate(133.848 122.22)" fill="#231f20"/>
      <path id="Path_2640" data-name="Path 2640" d="M124.36,327.5H109.19L128.226,180.06h27.161Z" transform="translate(49.505 131.084)" fill="#fff"/>
      <path id="Path_2641" data-name="Path 2641" d="M124.8,328.849h-15.17a.9.9,0,0,1-.687-.314,1.021,1.021,0,0,1-.216-.707l19.056-147.443a.883.883,0,0,1,.883-.785h27.161a.844.844,0,0,1,.687.334.883.883,0,0,1,.2.746L125.687,328.122A.922.922,0,0,1,124.8,328.849Zm-14.169-1.806h13.443l30.654-145.638H129.455Z" transform="translate(49.061 130.641)" fill="#231f20"/>
      <path id="Path_2642" data-name="Path 2642" d="M290.387,327.5h15.19L286.521,180.06H259.36Z" transform="translate(194.044 131.084)" fill="#fff"/>
      <path id="Path_2643" data-name="Path 2643" d="M306.016,328.849h-15.19a.883.883,0,0,1-.863-.726L258.916,180.679a.942.942,0,0,1,.2-.746.844.844,0,0,1,.687-.334H286.96a.883.883,0,0,1,.883.785L306.9,327.828a.864.864,0,0,1-.216.707.9.9,0,0,1-.667.314Zm-14.464-1.806H305l-18.82-145.637H260.9Z" transform="translate(193.605 130.641)" fill="#231f20"/>
      <rect id="Rectangle_2514" data-name="Rectangle 2514" width="62.054" height="11.147" transform="translate(418.825 376.573)" fill="#fff"/>
      <path id="Path_2644" data-name="Path 2644" d="M304.257,225.893H242.183a.922.922,0,0,1-.9-.9V213.843a.922.922,0,0,1,.9-.9h62.074a.9.9,0,0,1,.883.9V224.99a.9.9,0,0,1-.883.9Zm-61.171-1.806h60.269v-9.342H243.086Z" transform="translate(176.642 162.731)" fill="#231f20"/>
      <path id="Path_2645" data-name="Path 2645" d="M261,327.5h15.17L257.131,180.06H229.97Z" transform="translate(165.756 131.084)" fill="#fff"/>
      <path id="Path_2646" data-name="Path 2646" d="M276.608,328.849h-15.17a.9.9,0,0,1-.883-.726L229.528,180.679a.942.942,0,0,1,.177-.746.9.9,0,0,1,.706-.334h27.161a.883.883,0,0,1,.883.785L277.57,327.828a1.02,1.02,0,0,1-.216.706.9.9,0,0,1-.746.314Zm-14.444-1.806h13.443l-18.8-145.638h-25.3Z" transform="translate(165.315 130.641)" fill="#231f20"/>
      <rect id="Rectangle_2515" data-name="Rectangle 2515" width="62.054" height="11.147" transform="translate(181.794 387.721) rotate(180)" fill="#fff"/>
      <path id="Path_2647" data-name="Path 2647" d="M151.916,225.893H89.763a.9.9,0,0,1-.883-.9V213.843a.9.9,0,0,1,.883-.9h62.153a.9.9,0,0,1,.883.9V224.99a.9.9,0,0,1-.883.9Zm-61.171-1.806h60.19v-9.342H90.666Z" transform="translate(29.956 162.731)" fill="#231f20"/>
      <path id="Path_2648" data-name="Path 2648" d="M94.98,327.5H79.79L98.846,180.06h27.161Z" transform="translate(21.207 131.084)" fill="#fff"/>
      <path id="Path_2649" data-name="Path 2649" d="M95.417,328.849H80.228a.9.9,0,0,1-.667-.314.863.863,0,0,1-.216-.707L98.3,180.385a.9.9,0,0,1,.9-.785h27.161a.844.844,0,0,1,.687.334.942.942,0,0,1,.2.746L96.34,328.122a.883.883,0,0,1-.922.726Zm-14.169-1.806H94.691l30.654-145.638H100.069Z" transform="translate(20.77 130.641)" fill="#231f20"/>
      <rect id="Rectangle_2516" data-name="Rectangle 2516" width="168.599" height="123.422" transform="translate(285.826 275.249) rotate(180)" fill="#fff"/>
      <path id="Path_2650" data-name="Path 2650" d="M257.161,223.628H88.483a.883.883,0,0,1-.883-.9V99.3a.883.883,0,0,1,.883-.883H257.161a.9.9,0,0,1,.9.883V222.725a.9.9,0,0,1-.9.9ZM89.445,221.842H256.258V100.167H89.445Z" transform="translate(28.724 52.505)" fill="#231f20"/>
      <path id="Path_2651" data-name="Path 2651" d="M152.825,135.42v51.692H125.86Z" transform="translate(65.55 88.117)" fill="#231f20"/>
      <path id="Path_2652" data-name="Path 2652" d="M153.258,188.451H126.293a.863.863,0,0,1-.765-.432.883.883,0,0,1,0-.883l26.945-51.712a.9.9,0,0,1,1.688.432v51.692a.883.883,0,0,1-.9.9Zm-25.513-1.786h24.61v-47.1Z" transform="translate(65.116 87.681)" fill="#231f20"/>
      <path id="Path_2653" data-name="Path 2653" d="M131.225,135.42h34.834l-19.1,74.183h35.031a2.08,2.08,0,0,1,0,4.161H114.877A2.767,2.767,0,0,1,112.11,211V209.6Z" transform="translate(52.315 88.117)" fill="#fff"/>
      <path id="Path_2654" data-name="Path 2654" d="M182.441,215.089H115.323a3.67,3.67,0,0,1-3.67-3.65v-1.393a.979.979,0,0,1,0-.235l19.115-74.183a.883.883,0,0,1,.864-.667h34.874a.844.844,0,0,1,.706.353.883.883,0,0,1,.177.765l-18.82,73.064h33.873a2.983,2.983,0,1,1,0,5.888Zm-68.982-4.926v1.276a1.962,1.962,0,0,0,1.963,1.864h67.118a1.178,1.178,0,1,0,0-2.355H147.41a.883.883,0,0,1-.707-.353.942.942,0,0,1-.177-.785l18.8-73.064h-32.97Z" transform="translate(51.869 87.674)" fill="#231f20"/>
      <rect id="Rectangle_2517" data-name="Rectangle 2517" width="2.296" height="7.202" rx="0.58" transform="translate(275.13 267.811) rotate(180)" fill="#231f20"/>
      <path id="Path_2655" data-name="Path 2655" d="M168.9,162.81a1.962,1.962,0,0,1-1.963-1.962v-4.906a2.041,2.041,0,1,1,4.082,0v4.906a1.962,1.962,0,0,1-2.119,1.962Zm0-7.2a.255.255,0,0,0-.255.255v4.906c0,.275.51.275.51,0v-4.906A.255.255,0,0,0,168.9,155.607Z" transform="translate(105.09 105.904)" fill="#231f20"/>
      <rect id="Rectangle_2518" data-name="Rectangle 2518" width="2.296" height="7.202" rx="0.58" transform="translate(269.164 267.811) rotate(180)" fill="#231f20"/>
      <path id="Path_2656" data-name="Path 2656" d="M165.853,162.81a1.962,1.962,0,0,1-1.962-1.962v-4.906a2.041,2.041,0,1,1,4.082,0v4.906a1.962,1.962,0,0,1-2.12,1.962Zm0-7.2a.255.255,0,0,0-.255.255v4.906c0,.275.51.275.51,0v-4.906A.255.255,0,0,0,165.853,155.607Z" transform="translate(102.154 105.904)" fill="#231f20"/>
      <rect id="Rectangle_2519" data-name="Rectangle 2519" width="2.296" height="7.202" rx="0.58" transform="translate(263.159 267.811) rotate(180)" fill="#231f20"/>
      <path id="Path_2657" data-name="Path 2657" d="M162.793,162.815a1.962,1.962,0,0,1-1.962-1.962v-4.906a2.051,2.051,0,1,1,4.1,0v4.906a1.962,1.962,0,0,1-2.139,1.962Zm0-7.2a.235.235,0,0,0-.235.255v4.906c0,.275.491.275.491,0v-4.906A.255.255,0,0,0,162.793,155.612Z" transform="translate(99.209 105.9)" fill="#231f20"/>
      <rect id="Rectangle_2520" data-name="Rectangle 2520" width="2.296" height="7.202" rx="0.58" transform="translate(257.154 267.811) rotate(180)" fill="#231f20"/>
      <path id="Path_2658" data-name="Path 2658" d="M159.743,162.81a1.962,1.962,0,0,1-1.962-1.962v-4.906a2.041,2.041,0,1,1,4.082,0v4.906a1.962,1.962,0,0,1-2.12,1.962Zm0-7.2a.235.235,0,0,0-.235.255v4.906c0,.275.491.275.491,0v-4.906A.255.255,0,0,0,159.743,155.607Z" transform="translate(96.273 105.904)" fill="#231f20"/>
      <rect id="Rectangle_2521" data-name="Rectangle 2521" width="2.296" height="7.202" rx="0.58" transform="translate(251.168 267.811) rotate(180)" fill="#231f20"/>
      <path id="Path_2659" data-name="Path 2659" d="M156.693,162.81a1.962,1.962,0,0,1-1.963-1.962v-4.906a2.041,2.041,0,1,1,4.082,0v4.906a1.963,1.963,0,0,1-2.12,1.962Zm0-7.2a.255.255,0,0,0-.255.255v4.906c0,.275.51.275.51,0v-4.906A.255.255,0,0,0,156.693,155.607Z" transform="translate(93.337 105.904)" fill="#231f20"/>
      <rect id="Rectangle_2522" data-name="Rectangle 2522" width="2.296" height="7.202" rx="0.58" transform="translate(245.183 267.811) rotate(180)" fill="#231f20"/>
      <path id="Path_2660" data-name="Path 2660" d="M153.642,162.81a1.962,1.962,0,0,1-1.962-1.962v-4.906a2.041,2.041,0,0,1,4.082,0v4.906a1.963,1.963,0,0,1-2.12,1.962Zm0-7.2a.255.255,0,0,0-.255.255v4.906c0,.275.491.275.491,0v-4.906a.235.235,0,0,0-.236-.255Z" transform="translate(90.402 105.904)" fill="#231f20"/>
      <rect id="Rectangle_2523" data-name="Rectangle 2523" width="410.458" height="15.151" transform="translate(98.23 301.881)" fill="#fff"/>
      <path id="Path_2661" data-name="Path 2661" d="M489.261,191.836H78.823a.9.9,0,0,1-.9-.9V175.783a.883.883,0,0,1,.9-.9H489.261a.883.883,0,0,1,.9.9v15.151A.9.9,0,0,1,489.261,191.836ZM79.706,190.031H488.378V176.666H79.706Z" transform="translate(19.407 126.098)" fill="#231f20"/>
      <circle id="Ellipse_702" data-name="Ellipse 702" cx="35.541" cy="35.541" r="35.541" transform="translate(152.179 55.017)" fill="#fff"/>
      <path id="Path_2662" data-name="Path 2662" d="M141.912,122.094a36.522,36.522,0,1,1,36.522-36.522A36.522,36.522,0,0,1,141.912,122.094Zm0-71.082a34.56,34.56,0,1,0,34.56,34.56A34.56,34.56,0,0,0,141.912,51.013Z" transform="translate(45.847 4.986)" fill="#242a39"/>
      <path id="Path_2663" data-name="Path 2663" d="M124.481,80.567a1.531,1.531,0,0,1-.412,0,.981.981,0,0,1-.569-.9V56.251a.981.981,0,0,1,.981-.981,1,1,0,0,1,.981.981v21.1l9.165-8.439a.981.981,0,1,1,1.334,1.433L125.09,80.253a1,1,0,0,1-.608.314Z" transform="translate(63.278 10.973)" fill="#242a39"/>
    </g>
  </g>
</svg>
