<svg xmlns="http://www.w3.org/2000/svg" width="319.3" height="261.409" viewBox="0 0 319.3 261.409">
  <g id="workwithus-mob" transform="translate(-97.327 -43.87)">
    <rect id="Rectangle_2511" data-name="Rectangle 2511" width="190.717" height="137.048" transform="translate(203.754 44.486)" fill="#fff"/>
    <path id="Path_2578" data-name="Path 2578" d="M355.166,182.15H164.436a.616.616,0,0,1-.616-.616V44.486a.616.616,0,0,1,.616-.616h190.73a.616.616,0,0,1,.616.616V181.534A.616.616,0,0,1,355.166,182.15Zm-190.114-1.232h189.5V45.1h-189.5Z" transform="translate(39.318 0)" fill="#d1d3d4"/>
    <path id="Path_2579" data-name="Path 2579" d="M213.636,180.389a.628.628,0,0,1-.616-.616V44.486a.616.616,0,0,1,1.232,0V179.773A.616.616,0,0,1,213.636,180.389Z" transform="translate(50.722 0)" fill="#d1d3d4"/>
    <path id="Path_2580" data-name="Path 2580" d="M270.116,180.389a.616.616,0,0,1-.616-.616V44.486a.616.616,0,1,1,1.232,0V179.773A.616.616,0,0,1,270.116,180.389Z" transform="translate(63.813 0)" fill="#d1d3d4"/>
    <path id="Path_2581" data-name="Path 2581" d="M355.166,50.112H164.436a.628.628,0,0,1-.616-.616.616.616,0,0,1,.616-.616h190.73a.616.616,0,1,1,0,1.232Z" transform="translate(39.318 1.161)" fill="#d1d3d4"/>
    <path id="Path_2582" data-name="Path 2582" d="M355.166,56.232H164.436a.616.616,0,1,1,0-1.232h190.73a.616.616,0,1,1,0,1.232Z" transform="translate(39.318 2.58)" fill="#d1d3d4"/>
    <path id="Path_2583" data-name="Path 2583" d="M355.166,62.292H164.436a.616.616,0,0,1-.616-.616.628.628,0,0,1,.616-.616h190.73a.616.616,0,1,1,0,1.232Z" transform="translate(39.318 3.984)" fill="#d1d3d4"/>
    <path id="Path_2584" data-name="Path 2584" d="M355.166,68.392H164.436a.628.628,0,0,1-.616-.616.616.616,0,0,1,.616-.616h190.73a.616.616,0,1,1,0,1.232Z" transform="translate(39.318 5.398)" fill="#d1d3d4"/>
    <path id="Path_2585" data-name="Path 2585" d="M355.166,151.232H164.436a.616.616,0,0,1-.616-.616.628.628,0,0,1,.616-.616h190.73a.616.616,0,1,1,0,1.232Z" transform="translate(39.318 24.599)" fill="#d1d3d4"/>
    <path id="Path_2586" data-name="Path 2586" d="M323.958,207.877a10.568,10.568,0,0,0-1.232-5.74,40.345,40.345,0,0,1-2.574-3.621c-1.1-2.34-.333-5.075-.591-7.637a9.472,9.472,0,0,0-2.673-5.679c-1.343-1.355-3.067-2.279-4.336-3.7-2.094-2.316-2.7-5.568-3.892-8.45a21.088,21.088,0,0,0-8.376-9.854c2.291,4.595-2.919,10.433-.554,14.991.739,1.453,2.168,2.464,2.722,4.04,1.318,3.7-3.092,7.7-1.675,11.357.7,1.835,2.661,2.895,3.572,4.632,1.232,2.34.271,5.186.369,7.822.135,3.7,2.353,6.91,4.989,9.435,1.638,1.564,3.474,2.932,5.247,4.348,2.119,1.7,3.018,3.486,4.927.764a23.4,23.4,0,0,0,4.077-12.712Z" transform="translate(70.673 27.659)" fill="#231f20"/>
    <path id="Path_2587" data-name="Path 2587" d="M321.343,208.964c-.69-2.821-1.17-5.876,0-8.536,1.306-3.018,4.545-5.137,4.927-8.4.246-2.131-.838-4.287-.419-6.393s2.156-3.548,3.572-5.1a21.335,21.335,0,0,0,5.506-13.045,32.629,32.629,0,0,1,5.247,8.623,11.185,11.185,0,0,1-.764,9.793,8.426,8.426,0,0,0-1.33,2.168c-.641,2.082,1.133,4.016,2.057,5.986a6.886,6.886,0,0,1-.653,7.07c-1.86,2.328-5.457,3.227-6.368,6.06a14.029,14.029,0,0,0-.32,3.215,9.423,9.423,0,0,1-6.787,8.093c-2.2.542-2.168-.333-2.562-2.193C322.9,213.867,321.935,211.452,321.343,208.964Z" transform="translate(75.665 28.653)" fill="#231f20"/>
    <path id="Path_2588" data-name="Path 2588" d="M317.2,190.107c-1.564-5.42-2.193-11.086-3.843-16.469a91.543,91.543,0,0,0-5.137-12.318l6.726,2.833c2.156.912,4.5,1.983,5.506,4.09,1.774,3.7-1.4,8.376.456,12a29.816,29.816,0,0,0,2.661,3.338c1.971,2.784,1.675,6.6.591,9.854-.468,1.38-2.464,8.622-4.324,6.578-.739-.8-.8-3.782-1.1-4.927C318.259,193.457,317.68,191.794,317.2,190.107Z" transform="translate(72.788 27.223)" fill="#231f20"/>
    <path id="Path_2589" data-name="Path 2589" d="M319.51,250.783c-1.33-8.857-5.531-40.082-5.58-40.4l1.232-.16c0,.32,4.237,31.521,5.568,40.378Z" transform="translate(74.111 38.558)" fill="#231f20"/>
    <path id="Path_2590" data-name="Path 2590" d="M320.032,260H318.8c.074-10.519,4.471-50.737,7-53.509l.912.838C324.774,209.434,320.118,248.321,320.032,260Z" transform="translate(75.24 37.693)" fill="#231f20"/>
    <path id="Path_2591" data-name="Path 2591" d="M322.607,261.661l-1.232-.062c1-22.665-3.806-70.3-3.855-70.766l1.232-.123C318.8,191.178,323.617,238.9,322.607,261.661Z" transform="translate(74.943 34.035)" fill="#231f20"/>
    <path id="Path_2592" data-name="Path 2592" d="M309.14,222.54h25.03l-1.8,28.417c-.3,4.927-3.942,8.721-8.339,8.721h-4.841c-4.385,0-8.031-3.806-8.339-8.721Z" transform="translate(73.001 41.413)" fill="#fff"/>
    <path id="Path_2593" data-name="Path 2593" d="M324.188,260.439h-4.841c-4.705,0-8.622-4.1-8.967-9.325L308.63,222.7a.641.641,0,0,1,.172-.48.628.628,0,0,1,.456-.2h25.03a.628.628,0,0,1,.628.677l-1.749,28.417C332.847,256.338,328.905,260.439,324.188,260.439Zm-14.252-37.151,1.712,27.74c.283,4.57,3.7,8.142,7.7,8.142h4.841c4.04,0,7.391-3.572,7.711-8.142l1.712-27.74Z" transform="translate(72.882 41.293)" fill="#231f20"/>
    <path id="Path_2594" data-name="Path 2594" d="M139.669,172.393c-1.232,2.525.641,4.755,5.321,4.755H157.8c1.909,0,6.689-5.7,4.3-8.622S140.914,169.88,139.669,172.393Z" transform="translate(33.634 28.665)" fill="#231f20"/>
    <path id="Path_2595" data-name="Path 2595" d="M157.915,177.87H145.1c-2.858,0-4.927-.8-5.839-2.266a3.363,3.363,0,0,1,0-3.375c1.022-2.069,9.854-4.336,15.447-4.927,4.361-.493,7.058-.16,7.994,1s1.059,3.03.111,5.038S159.467,177.87,157.915,177.87Zm.234-9.608a30.32,30.32,0,0,0-3.326.222c-6.627.751-13.895,3.092-14.486,4.287a2.2,2.2,0,0,0,0,2.18c.665,1.072,2.464,1.688,4.792,1.688h12.811c.764,0,2.759-1.737,3.769-3.88.419-.9,1-2.574,0-3.7-.308-.456-1.429-.85-3.56-.85Z" transform="translate(33.521 28.558)" fill="#231f20"/>
    <path id="Path_2596" data-name="Path 2596" d="M173.374,162.81a57.006,57.006,0,0,1-12.219,1.6c-2.993,0-5.7-.887-8.622-.345a18.354,18.354,0,0,0-7.994,3.56c-.32.259-.665.616-.554,1.01a.862.862,0,0,0,.468.505c1.232.628,2.464-.135,3.6-.443a14.783,14.783,0,0,1,3.609-.493,11.566,11.566,0,0,1,7.255,2.02,1.6,1.6,0,0,1,.677.838,1.232,1.232,0,0,1-.394,1.072,3.584,3.584,0,0,1-1.035.591l-3.917,1.7c-.209.086-.468.271-.382.493s.172.172.283.222c3.88,1.417,7.994-1.232,11.7-2.032a80.071,80.071,0,0,1,12.318-1.774,11.333,11.333,0,0,1-1.293-8.425" transform="translate(34.715 27.569)" fill="#fff"/>
    <path id="Path_2597" data-name="Path 2597" d="M156.652,176.224a7.527,7.527,0,0,1-2.624-.443.985.985,0,0,1-.628-.554c-.148-.382,0-.912.69-1.232l3.917-1.7a2.907,2.907,0,0,0,.862-.48.653.653,0,0,0,.234-.542c0-.185-.271-.37-.456-.505a11.086,11.086,0,0,0-6.91-1.909,13.93,13.93,0,0,0-3.474.468,5.935,5.935,0,0,0-.751.246,3.942,3.942,0,0,1-3.264.148,1.429,1.429,0,0,1-.739-.838c-.16-.554.1-1.1.751-1.6a16.986,16.986,0,0,1,13.821-3.609,30.059,30.059,0,0,0,3.2.271,57.146,57.146,0,0,0,12.1-1.6.559.559,0,1,1,.222,1.1,58.819,58.819,0,0,1-12.318,1.626,31.88,31.88,0,0,1-3.326-.271,17.442,17.442,0,0,0-5.247-.086,17.824,17.824,0,0,0-7.748,3.449c-.333.271-.357.419-.357.419h0s0,.062.2.148a2.944,2.944,0,0,0,2.34-.209l.825-.271a15.632,15.632,0,0,1,3.7-.517,12.158,12.158,0,0,1,7.6,2.131,2.069,2.069,0,0,1,.887,1.158,1.712,1.712,0,0,1-.554,1.614,4.041,4.041,0,0,1-1.232.7l-3.511,1.527c2.464.628,4.989-.271,7.452-1.146a29.979,29.979,0,0,1,3.4-1.059,77.506,77.506,0,0,1,11.529-1.725,11.8,11.8,0,0,1-.924-8.068.554.554,0,0,1,.678-.419.567.567,0,0,1,.407.677,10.753,10.753,0,0,0,1.232,8.019.53.53,0,0,1,0,.542.567.567,0,0,1-.468.308,77.433,77.433,0,0,0-12.232,1.761,28.1,28.1,0,0,0-3.264,1.022,19.08,19.08,0,0,1-6.011,1.454Z" transform="translate(34.599 27.458)" fill="#231f20"/>
    <rect id="Rectangle_2512" data-name="Rectangle 2512" width="14.424" height="11.603" transform="translate(262.214 235.671)" fill="#fff"/>
    <path id="Path_2598" data-name="Path 2598" d="M226.309,211.844H211.884a.554.554,0,0,1-.554-.567V199.687a.554.554,0,0,1,.554-.567h14.424a.567.567,0,0,1,.567.567v11.6a.567.567,0,0,1-.567.554Zm-13.858-1.121H225.7V200.2H212.451Z" transform="translate(50.33 35.985)" fill="#231f20"/>
    <rect id="Rectangle_2513" data-name="Rectangle 2513" width="8.783" height="51.944" transform="translate(265.035 247.164)" fill="#231f20"/>
    <path id="Path_2599" data-name="Path 2599" d="M222.969,261.574h-8.783a.616.616,0,0,1-.616-.616V209.026a.616.616,0,0,1,.616-.616h8.783a.616.616,0,0,1,.616.616v51.932A.616.616,0,0,1,222.969,261.574Zm-8.167-1.232h7.551v-50.7H214.8Z" transform="translate(50.849 38.138)" fill="#231f20"/>
    <path id="Path_2600" data-name="Path 2600" d="M249.576,255.049a88.689,88.689,0,0,0-52.536,0Z" transform="translate(47.018 48.026)" fill="#231f20"/>
    <path id="Path_2601" data-name="Path 2601" d="M249.7,255.782H197.115a.6.6,0,0,1-.6-.517.616.616,0,0,1,.419-.69,89.4,89.4,0,0,1,52.967,0,.628.628,0,0,1,.419.69.616.616,0,0,1-.616.517Zm-48.163-1.232h43.79A88.689,88.689,0,0,0,201.537,254.55Z" transform="translate(46.893 47.908)" fill="#231f20"/>
    <path id="Path_2602" data-name="Path 2602" d="M154.3,243.5a7.28,7.28,0,0,1-2.993,3.449c-1.651.751-21.162,5.075-20.854,7.871s2.316,3.4,7.5,3.6c6.947.259,29.095-1.614,29.095-1.614V245Z" transform="translate(31.582 46.271)" fill="#fff"/>
    <path id="Path_2603" data-name="Path 2603" d="M139.624,259.118h-1.589c-5.272-.209-7.686-.85-8.044-4.114-.234-2.168,5.925-4.25,17.381-7.391,1.848-.493,3.437-.924,3.806-1.1a6.836,6.836,0,0,0,2.7-3.116.554.554,0,0,1,.6-.369l12.749,1.49a.567.567,0,0,1,.493.567v11.8a.554.554,0,0,1-.517.554C166.366,257.542,147.741,259.118,139.624,259.118Zm15.126-14.892a7.588,7.588,0,0,1-3.116,3.363c-.419.185-1.651.53-3.979,1.158-11.086,2.993-16.654,5.05-16.543,6.159.246,2.254,1.675,2.895,6.96,3.092,6.257.246,25.153-1.293,28.528-1.564v-10.79Z" transform="translate(31.475 46.161)" fill="#231f20"/>
    <path id="Path_2604" data-name="Path 2604" d="M196.377,245.791s-21.064,7.231-21.963,8.623.7,2.981,6.307,3.486,29.563-.8,29.563-.8.3-6.5-1.232-9.854S196.377,245.791,196.377,245.791Z" transform="translate(41.719 46.678)" fill="#fff"/>
    <path id="Path_2605" data-name="Path 2605" d="M184.83,258.67a36.513,36.513,0,0,1-4.053-.123c-3.843-.345-6.159-1.232-6.873-2.574a1.712,1.712,0,0,1,.148-1.774c.936-1.441,17.245-7.132,22.246-8.844h.1c1.232-.185,11.714-1.761,13.34,1.823,1.54,3.387,1.232,9.793,1.232,10.064a.567.567,0,0,1-.542.53C209.638,257.8,193.428,258.67,184.83,258.67Zm11.788-12.232c-9.854,3.4-20.842,7.489-21.642,8.389a.64.64,0,0,0-.062.665c.345.7,2.094,1.589,5.962,1.934,5.038.443,25.473-.591,29-.776,0-1.577,0-6.418-1.158-9.029-.961-2.119-7.908-1.848-12.1-1.183Z" transform="translate(41.613 46.585)" fill="#231f20"/>
    <path id="Path_2606" data-name="Path 2606" d="M282.685,127.06H223.879s-4.4,52.647-7.206,64.989-14.19,15.939-22.591,15.73-30.006-2.574-30.795,0,1.4,7.588,10.593,9.99,65.063,2.008,65.063,2.008,19.548-6.159,30.351-19.61S285.69,139.747,282.685,127.06Z" transform="translate(39.16 19.282)" fill="#fff"/>
    <path id="Path_2607" data-name="Path 2607" d="M229.688,220.487c-16.358,0-48.9-.234-55.849-2.057s-9.411-4.853-10.347-6.529a5.506,5.506,0,0,1-.653-4.163c.616-2.008,7.132-1.909,22.468-.9,3.424.222,6.652.431,8.894.493,8.93.209,19.4-3.7,22.037-15.311,2.759-12.158,7.144-64.373,7.181-64.9a.579.579,0,0,1,.567-.517H282.79a.554.554,0,0,1,.542.443c3.018,12.724-2.365,59.742-13.55,73.6-10.79,13.414-30.437,19.709-30.635,19.782a.369.369,0,0,1-.16,0C238.483,220.462,234.911,220.487,229.688,220.487Zm-59.766-13.229c-3.277,0-5.715.209-6.011.813a4.373,4.373,0,0,0,.567,3.277c.85,1.527,3.227,4.324,9.645,6,8.857,2.316,62.316,2,64.817,1.983,1.367-.443,19.783-6.664,30.006-19.388,10.606-13.192,16.013-59.335,13.389-72.207H224.5c-.468,5.494-4.545,52.967-7.169,64.546-1.823,8.044-8.869,16.494-23.17,16.173-2.254,0-5.494-.271-8.93-.493C181,207.676,174.6,207.257,169.922,207.257Z" transform="translate(39.055 19.176)" fill="#231f20"/>
    <path id="Path_2608" data-name="Path 2608" d="M250.759,203.964s17.183-42.952,15.373-64.127-15.668-22.48-20.472-22.776-30.3-3.7-39.6,7.7-6.873,66.295-6.873,66.295Z" transform="translate(47.448 16.802)" fill="#5775ff"/>
    <path id="Path_2609" data-name="Path 2609" d="M202.336,180.056s-18.267-3.043-26.077,3.855-27.789,75.065-27.789,75.065,4.2,6.6,15.3,3.3l45.009-71.715S212.055,179.809,202.336,180.056Z" transform="translate(35.76 31.411)" fill="#231f20"/>
    <path id="Path_2610" data-name="Path 2610" d="M157.973,263.928c-6.935,0-9.768-4.287-9.854-4.508a.616.616,0,0,1-.074-.505c.825-2.8,20.127-68.4,27.974-75.348s25.178-4.225,26.52-4c2.8-.062,4.927.751,6.159,2.464,2.464,3.289.912,8.623.85,8.869a.419.419,0,0,1-.074.148l-45,71.7a.739.739,0,0,1-.345.271A21.557,21.557,0,0,1,157.973,263.928ZM149.252,259c.825,1.084,4.927,5.568,14.227,2.882l44.837-71.444c.172-.628,1.306-5.1-.665-7.7-1.035-1.343-2.784-2.008-5.2-1.934h-.111c-.185,0-18.083-2.919-25.572,3.7s-26.089,69.67-27.543,74.474Z" transform="translate(35.656 31.287)" fill="#231f20"/>
    <path id="Path_2611" data-name="Path 2611" d="M254.563,190.608s-33.6-14.708-43.8-16.2c0,0-18.908-3.609-26.41,10.2s10.064,77.7,10.064,77.7a19.709,19.709,0,0,0,13.648,2.4l5.851-62.378S255.794,205.3,254.563,190.608Z" transform="translate(43.644 30.159)" fill="#231f20"/>
    <path id="Path_2612" data-name="Path 2612" d="M204.562,265.785a20,20,0,0,1-10.347-2.845.616.616,0,0,1-.246-.357c-.727-2.611-17.541-64.3-10.014-78.157,7.637-14.042,26.865-10.544,27.1-10.519,10.138,1.49,42.558,15.644,43.938,16.247a.616.616,0,0,1,.37.517,7.3,7.3,0,0,1-2.242,5.95c-7.871,7.97-34.12,6.787-38.567,6.528l-5.7,61.737a.6.6,0,0,1-.493.542,19.425,19.425,0,0,1-3.794.357Zm-9.472-3.7a19.326,19.326,0,0,0,12.54,2.279l5.715-61.922a.641.641,0,0,1,.665-.554c.3,0,30.166,2,38.185-6.159A6.159,6.159,0,0,0,254.1,191.1c-3.6-1.552-33.849-14.609-43.3-16.013-.222,0-18.588-3.35-25.781,9.854-7.058,13.082,8.918,72.848,10.064,77.085Z" transform="translate(43.536 30.047)" fill="#231f20"/>
    <path id="Path_2613" data-name="Path 2613" d="M215.13,123.18s-6.886,13.229-10.951,20.029-12.86,16.555-12.86,16.555-31.2,11.086-31.4,11.69,2.956,11.086,2.956,11.086,32.741-2.353,38.185-4.927,16.4-15.163,16.4-15.163Z" transform="translate(38.412 18.383)" fill="#5775ff"/>
    <path id="Path_2614" data-name="Path 2614" d="M239.511,88.574a4.816,4.816,0,0,0-3.24-1.343,2.242,2.242,0,0,0-2.156,2.34A10.938,10.938,0,0,0,225.21,85.1a25.436,25.436,0,0,0-10.039,2.23,69.605,69.605,0,0,1-9.731,3.523,19.709,19.709,0,0,0,7.588,12.823,39.3,39.3,0,0,0,6.159,3.535l4.471,2.242c4.57,2.291,10.827,4.262,15.816,1.8,4.361-2.143,5.161-9.854,4.582-14.018a13.8,13.8,0,0,0-4.545-8.659Z" transform="translate(48.965 9.556)" fill="#fff"/>
    <path id="Path_2615" data-name="Path 2615" d="M234.332,113.128a25.387,25.387,0,0,1-10.877-3.006l-4.471-2.242a38.96,38.96,0,0,1-6.159-3.6,20.374,20.374,0,0,1-7.834-13.229.628.628,0,0,1,.468-.69,47.314,47.314,0,0,0,7.391-2.587c.739-.308,1.478-.616,2.217-.9A26.545,26.545,0,0,1,225.352,84.6a11.887,11.887,0,0,1,8.622,3.7,1.55,1.55,0,0,1,.234-.345,3.079,3.079,0,0,1,2.2-1.232,5.247,5.247,0,0,1,3.7,1.478h0a14.239,14.239,0,0,1,4.718,9.041c.665,4.755-.419,12.441-4.927,14.658a12.318,12.318,0,0,1-5.568,1.232Zm-28.1-21.692a19.08,19.08,0,0,0,7.28,11.862,39.541,39.541,0,0,0,6.011,3.486l4.484,2.23c4.274,2.143,10.4,4.2,15.262,1.8,3.9-1.922,4.841-9.115,4.237-13.377a13.069,13.069,0,0,0-4.287-8.265h0a4.139,4.139,0,0,0-2.8-1.232,1.946,1.946,0,0,0-1.33.714,1.146,1.146,0,0,0-.271.9A.616.616,0,0,1,233.7,90a10.359,10.359,0,0,0-8.413-4.188A25.215,25.215,0,0,0,215.5,88c-.739.283-1.466.591-2.193.887A52.967,52.967,0,0,1,206.235,91.436Z" transform="translate(48.859 9.441)" fill="#231f20"/>
    <path id="Path_2616" data-name="Path 2616" d="M217.87,120.776v11.456a8.4,8.4,0,0,0,10.187,4.4c7.489-1.909,8.4-7.292,8.4-7.292l-.333-21.2s-5.6-2.907-4.114-15.028a37.188,37.188,0,0,1-19.5,2.944s-3.252,13.168-2.266,18.982S217.87,120.776,217.87,120.776Z" transform="translate(50.035 11.413)" fill="#fff"/>
    <path id="Path_2617" data-name="Path 2617" d="M225.467,137.731a9.041,9.041,0,0,1-8.056-5.137.8.8,0,0,1,0-.234V121.434c-1.761-.16-6.762-1.072-7.625-6.221-.985-5.876,2.156-18.686,2.291-19.228a.6.6,0,0,1,.665-.456,36.954,36.954,0,0,0,19.142-2.882.6.6,0,0,1,.641,0,.641.641,0,0,1,.259.579c-1.417,11.48,3.7,14.375,3.782,14.412a.6.6,0,0,1,.333.53l.333,21.2c0,.357-1.084,5.913-8.869,7.9a11.2,11.2,0,0,1-2.895.468Zm-6.873-5.506c.394.813,2.981,5.568,9.411,3.929,6.984-1.774,7.92-6.59,7.957-6.8l-.345-20.743c-1.232-.825-5.161-4.348-4.225-14.363A38.481,38.481,0,0,1,213.1,96.86c-.579,2.464-2.981,13.229-2.143,18.193.875,5.235,6.775,5.235,7.021,5.235a.48.48,0,0,1,.443.185.616.616,0,0,1,.172.431Z" transform="translate(49.928 11.285)" fill="#231f20"/>
    <path id="Path_2618" data-name="Path 2618" d="M227.64,105.86a4.927,4.927,0,0,1,1.675-2.648,8.783,8.783,0,0,1,2.611-1.355,3.572,3.572,0,0,1,1.589-.3,2.932,2.932,0,0,1,1.072.37,3.843,3.843,0,0,1,1.835,1.885,4.656,4.656,0,0,1,.123,2.143,9.151,9.151,0,0,1-.554,2.291,5.962,5.962,0,0,1-7.846,3.2" transform="translate(54.11 13.371)" fill="#fff"/>
    <path id="Path_2619" data-name="Path 2619" d="M230.579,112.657a6.529,6.529,0,0,1-2.587-.53.616.616,0,1,1,.493-1.121,5.334,5.334,0,0,0,7.034-2.87,8.473,8.473,0,0,0,.505-2.131,4.089,4.089,0,0,0-.086-1.86,3.264,3.264,0,0,0-1.564-1.552,2.316,2.316,0,0,0-.85-.308,3.351,3.351,0,0,0-1.306.271,8.29,8.29,0,0,0-2.464,1.232,4.249,4.249,0,0,0-1.429,2.3.631.631,0,1,1-1.232-.271,5.481,5.481,0,0,1,1.848-2.981,9.128,9.128,0,0,1,2.8-1.466,4.1,4.1,0,0,1,1.86-.333,3.547,3.547,0,0,1,1.232.443,4.336,4.336,0,0,1,2.119,2.2,5.026,5.026,0,0,1,.16,2.464,9.166,9.166,0,0,1-.591,2.464,6.578,6.578,0,0,1-3.585,3.572,6.677,6.677,0,0,1-2.353.468Z" transform="translate(53.98 13.25)" fill="#231f20"/>
    <path id="Path_2620" data-name="Path 2620" d="M219.7,101.41s-4.077,5.777-3.166,6.824,3.548.431,3.548.431" transform="translate(51.505 13.337)" fill="#fff"/>
    <path id="Path_2621" data-name="Path 2621" d="M218.6,109.632a3.141,3.141,0,0,1-2.464-.825c-1.022-1.232,1.133-4.767,3.116-7.588a.616.616,0,0,1,.862-.148.628.628,0,0,1,.148.862c-1.885,2.673-3.375,5.518-3.178,6.159.48.53,2.168.357,2.919.185a.631.631,0,1,1,.271,1.232,8.978,8.978,0,0,1-1.675.123Z" transform="translate(51.384 13.232)" fill="#231f20"/>
    <ellipse id="Ellipse_700" data-name="Ellipse 700" cx="0.973" cy="1.367" rx="0.973" ry="1.367" transform="translate(274.911 113.124) rotate(-3.53)" fill="#231f20"/>
    <ellipse id="Ellipse_701" data-name="Ellipse 701" cx="1.367" cy="0.973" rx="1.367" ry="0.973" transform="translate(265.468 115.364) rotate(-76.4)" fill="#231f20"/>
    <path id="Path_2622" data-name="Path 2622" d="M221.283,113.547a15.52,15.52,0,0,1-8.869-2.969.619.619,0,1,1,.764-.973s6.233,4.767,13.217,1.577a.6.6,0,0,1,.813.308.616.616,0,0,1-.308.813A13.451,13.451,0,0,1,221.283,113.547Z" transform="translate(50.526 15.206)" fill="#231f20"/>
    <path id="Path_2623" data-name="Path 2623" d="M214.049,109.424a7.371,7.371,0,1,1,7.268-8.647h0a7.391,7.391,0,0,1-5.986,8.536,7.613,7.613,0,0,1-1.281.111Zm0-13.55a6.282,6.282,0,0,0-1.072.086,6.258,6.258,0,1,0,1.072-.074Z" transform="translate(49.262 11.778)" fill="#231f20"/>
    <path id="Path_2624" data-name="Path 2624" d="M225.569,108.981a7.391,7.391,0,1,1,1.232-.111A7.391,7.391,0,0,1,225.569,108.981Zm0-13.55a6.39,6.39,0,0,0-1.072.086,6.14,6.14,0,1,0,7.107,5h0a6.159,6.159,0,0,0-6.036-5.075Z" transform="translate(51.907 11.666)" fill="#231f20"/>
    <path id="Path_2625" data-name="Path 2625" d="M216.4,115.711s7.132,1.651,11.332-.751c0,0-4.644,9.608-11.332,8.622Z" transform="translate(51.505 16.478)" fill="#231f20"/>
    <path id="Path_2626" data-name="Path 2626" d="M217.514,124.363a8.157,8.157,0,0,1-1.084-.074.628.628,0,0,1-.53-.616v-7.846a.6.6,0,0,1,.234-.48.678.678,0,0,1,.53-.123s6.935,1.564,10.877-.677a.616.616,0,0,1,.862.8C228.206,115.728,223.956,124.363,217.514,124.363Zm-.382-1.232c4.311.246,7.736-4.274,9.275-6.75a21.051,21.051,0,0,1-9.275.209Z" transform="translate(51.389 16.363)" fill="#231f20"/>
    <path id="Path_2627" data-name="Path 2627" d="M217.18,211.708s2.624,7.477,9.226,8.081,30.413-.579,38.185-23.108c9.177-26.742,12.01-65.1,8.4-68.4s-5.8.3-5.8,8.622c0,6.319-4.41,38.653-7.194,52.511C255.883,209.626,226.2,213.839,217.18,211.708Z" transform="translate(51.686 19.283)" fill="#fff"/>
    <path id="Path_2628" data-name="Path 2628" d="M229.481,220.585a21.6,21.6,0,0,1-3.03-.135c-6.873-.628-9.583-8.13-9.694-8.438a.554.554,0,0,1,.111-.567.53.53,0,0,1,.542-.172c6.159,1.454,20.719-.1,30.992-6.7,6.159-3.929,9.854-9.041,11.086-15.2,2.759-13.7,7.194-46.02,7.194-52.4,0-4.04.517-9.078,2.981-10.162,1.121-.493,2.377-.1,3.7,1.158,3.979,3.7.948,42.2-8.241,68.98C258.723,215.781,240.468,220.585,229.481,220.585Zm-11.259-8.007c.936,1.959,3.56,6.319,8.339,6.75.283,0,28.972,2.34,37.569-22.726,9.214-26.828,11.8-64.829,8.549-67.81-1.01-.924-1.872-1.232-2.538-.961-1.453.641-2.316,4.053-2.316,9.14,0,6.418-4.447,38.887-7.206,52.622-1.306,6.467-5.21,11.825-11.616,15.927C239.027,211.925,225.046,213.687,218.222,212.578Z" transform="translate(51.58 19.176)" fill="#231f20"/>
    <path id="Path_2629" data-name="Path 2629" d="M254.521,121.145c5.814,1.035,29.415,55.578,21.335,61.811-12.6,9.719-56.465-.111-56.465-.111l3.572-16.912s28.208.776,28.6-5.013-16.4-32.544-14.178-36.6S254.521,121.145,254.521,121.145Z" transform="translate(52.198 17.893)" fill="#5775ff"/>
    <path id="Path_2630" data-name="Path 2630" d="M185.137,216.36a.628.628,0,0,1-.567-.382c-5.925-14.239,1.232-35.2,1.54-36.091a.616.616,0,1,1,1.158.406c-.074.209-7.3,21.408-1.564,35.217a.6.6,0,0,1-.333.8.715.715,0,0,1-.234.049Z" transform="translate(43.585 31.419)" fill="#fff"/>
    <path id="Path_2631" data-name="Path 2631" d="M239.5,187.265h-.111l-13.7-2.353a.616.616,0,0,1-.505-.591l-.443-16.407a.616.616,0,0,1,.554-.628l24.636-2.537-10.84-37.385a.64.64,0,1,1,1.232-.345L251.408,165.1a.628.628,0,0,1-.086.517.591.591,0,0,1-.443.271l-24.833,2.562.419,15.323,13.192,2.266a.628.628,0,0,1,.505.714.6.6,0,0,1-.665.505Z" transform="translate(53.438 19.164)" fill="#231f20"/>
    <path id="Path_2632" data-name="Path 2632" d="M233.217,162.449a64.3,64.3,0,0,1-14.018-.677,42.583,42.583,0,0,0-10.482-1.232,39.614,39.614,0,0,0-13.55,3.079,1.158,1.158,0,0,0-.456.308c-.406.579.579,1.146,1.232,1.158a18.477,18.477,0,0,0,5.506-.69,52.964,52.964,0,0,0-12.478,6.627c-.431.308-.912.813-.7,1.306s1.109.406,1.688.148l10.076-4.619a25.215,25.215,0,0,0-7.157,4.348c-.308.271-.628.628-.542,1.022.148.677,1.146.542,1.774.234a59.445,59.445,0,0,0,8.758-5.346l-6.233,4.767c-.074.505.468.936.973.961a2.821,2.821,0,0,0,1.441-.505l6.935-4.016-4.324,3.042c-.678.468-1.454,1.232-1.121,2s1.724.628,2.611.222a52.8,52.8,0,0,1,11.148-3.424,17.247,17.247,0,0,1,4.126-.838,35.725,35.725,0,0,1,6.331,1.38c3.141.7,6.27,1.429,9.411,2.156" transform="translate(44.973 27.042)" fill="#fff"/>
    <path id="Path_2633" data-name="Path 2633" d="M201.81,175.65a2.044,2.044,0,0,1-.764-.135,1.49,1.49,0,0,1-.838-.8,1.577,1.577,0,0,1,0-1.158l-.665.382a3.239,3.239,0,0,1-1.737.579,1.663,1.663,0,0,1-1.232-.579,1.367,1.367,0,0,1-.32-.739c-.567.308-1.133.6-1.712.887a2.463,2.463,0,0,1-1.959.172,1.133,1.133,0,0,1-.616-.8,1.441,1.441,0,0,1,.456-1.232l-2.045.936a2.464,2.464,0,0,1-1.774.2,1.232,1.232,0,0,1-.665-.628c-.283-.653,0-1.367.9-1.983a52.754,52.754,0,0,1,8.364-4.927h-1.1a2.217,2.217,0,0,1-1.811-.973,1.022,1.022,0,0,1,.086-1.072,1.577,1.577,0,0,1,.69-.505,39.934,39.934,0,0,1,13.71-3.129,37.152,37.152,0,0,1,9.325.973l1.232.246a64.643,64.643,0,0,0,13.907.665.579.579,0,0,1,.579.542.567.567,0,0,1-.542.591,66.321,66.321,0,0,1-14.153-.7l-1.232-.234a36.548,36.548,0,0,0-9.066-.961,38.864,38.864,0,0,0-13.316,3.043.848.848,0,0,0-.209.123,2.045,2.045,0,0,0,.838.271,17.849,17.849,0,0,0,5.346-.677.567.567,0,0,1,.69.357.591.591,0,0,1-.345.714,52.276,52.276,0,0,0-12.318,6.553c-.431.308-.542.554-.517.616a1.232,1.232,0,0,0,.924-.136l7.81-3.572c.751-.382,1.515-.739,2.316-1.059a.567.567,0,0,1,.431,1.035l-2.254,1.035a24.463,24.463,0,0,0-4.767,3.24c-.394.333-.37.468-.37.468a1.318,1.318,0,0,0,.985-.148,58.3,58.3,0,0,0,8.623-5.3.567.567,0,0,1,.677.9l-5.95,4.558a.567.567,0,0,0,.37.16,2.082,2.082,0,0,0,1.133-.431l6.947-4a.542.542,0,0,1,.751.185.567.567,0,0,1-.148.764l-4.336,3.03c-.554.394-1.1.948-.924,1.318a.32.32,0,0,0,.209.209,2.55,2.55,0,0,0,1.663-.283,53.077,53.077,0,0,1,11.259-3.461c.443-.1.887-.222,1.33-.345a9.5,9.5,0,0,1,2.932-.505,19.708,19.708,0,0,1,4.508.9c.653.172,1.306.357,1.922.493,3.141.714,6.282,1.429,9.411,2.168a.554.554,0,0,1,.419.677.579.579,0,0,1-.677.419c-3.129-.739-6.27-1.454-9.4-2.168-.641-.135-1.306-.32-1.971-.505a18.969,18.969,0,0,0-4.25-.85,8.734,8.734,0,0,0-2.587.456c-.468.135-.936.259-1.417.357a51.735,51.735,0,0,0-11.024,3.4A4.633,4.633,0,0,1,201.81,175.65Z" transform="translate(44.884 26.948)" fill="#231f20"/>
    <path id="Path_2634" data-name="Path 2634" d="M211.4,128.73s-5.161,21.064-9.854,36.03" transform="translate(48.063 19.669)" fill="#fff"/>
    <path id="Path_2635" data-name="Path 2635" d="M201.7,165.427h-.172a.554.554,0,0,1-.37-.7c4.595-14.781,9.743-35.8,9.854-36.005a.559.559,0,0,1,1.084.271c0,.209-5.21,21.248-9.854,36.067A.567.567,0,0,1,201.7,165.427Z" transform="translate(47.965 19.569)" fill="#231f20"/>
    <path id="Path_2636" data-name="Path 2636" d="M207.309,175.767H161.733a3.338,3.338,0,0,1,.813-4.4h43.839Z" transform="translate(38.719 29.553)" fill="#fff"/>
    <path id="Path_2637" data-name="Path 2637" d="M207.42,176.428H161.844a.542.542,0,0,1-.48-.271,3.843,3.843,0,0,1,.924-5.137.579.579,0,0,1,.345-.111h43.839a.554.554,0,0,1,.554.443l.887,4.385a.53.53,0,0,1-.111.468A.567.567,0,0,1,207.42,176.428Zm-45.207-1.121H206.73l-.665-3.264H162.879a2.685,2.685,0,0,0-.665,3.264Z" transform="translate(38.608 29.446)" fill="#231f20"/>
    <path id="Path_2638" data-name="Path 2638" d="M215.024,174.2s-15.816-3.892-17.06-2.648-.825,4.053,1,4.225,2.23-2.242,2.23-2.242l13.833,2.735Z" transform="translate(47.067 29.539)" fill="#fff"/>
    <path id="Path_2639" data-name="Path 2639" d="M215.125,176.935h-.111l-13.3-2.636a2.685,2.685,0,0,1-2.7,2.143,2.353,2.353,0,0,1-1.971-1.712,3.437,3.437,0,0,1,.665-3.523c1.232-1.232,11.566,1.022,17.59,2.464a.567.567,0,0,1,.419.554v2.069a.591.591,0,0,1-.2.431.567.567,0,0,1-.394.209Zm-13.833-3.843h.111l13.155,2.6v-.961c-7.268-1.774-15.176-3.24-16.124-2.673a2.463,2.463,0,0,0-.382,2.316,1.318,1.318,0,0,0,1.059.924c1.232.123,1.626-1.749,1.626-1.774a.542.542,0,0,1,.234-.357A.517.517,0,0,1,201.292,173.091Z" transform="translate(46.966 29.433)" fill="#231f20"/>
    <path id="Path_2640" data-name="Path 2640" d="M118.712,272.6H109.19l11.948-92.544h17.048Z" transform="translate(26.655 31.567)" fill="#fff"/>
    <path id="Path_2641" data-name="Path 2641" d="M118.819,273.277H109.3a.567.567,0,0,1-.431-.2.64.64,0,0,1-.135-.443l11.961-92.544a.554.554,0,0,1,.554-.493h17.048a.53.53,0,0,1,.431.209.554.554,0,0,1,.123.468l-19.475,92.544A.579.579,0,0,1,118.819,273.277Zm-8.893-1.133h8.438l19.24-91.411H121.738Z" transform="translate(26.548 31.46)" fill="#231f20"/>
    <path id="Path_2642" data-name="Path 2642" d="M278.835,272.6h9.534L276.408,180.06H259.36Z" transform="translate(61.463 31.567)" fill="#fff"/>
    <path id="Path_2643" data-name="Path 2643" d="M288.474,273.277H278.94a.554.554,0,0,1-.542-.456l-19.487-92.544a.591.591,0,0,1,.123-.468.53.53,0,0,1,.431-.209h17.048a.554.554,0,0,1,.554.493l11.961,92.544a.542.542,0,0,1-.135.443.567.567,0,0,1-.419.2Zm-9.078-1.133h8.438l-11.813-91.411H260.156Z" transform="translate(61.357 31.46)" fill="#231f20"/>
    <rect id="Rectangle_2514" data-name="Rectangle 2514" width="38.949" height="6.997" transform="translate(299.118 252.695)" fill="#fff"/>
    <path id="Path_2644" data-name="Path 2644" d="M280.808,221.07H241.847a.579.579,0,0,1-.567-.567v-7a.579.579,0,0,1,.567-.567h38.961a.567.567,0,0,1,.554.567v7a.567.567,0,0,1-.554.567Zm-38.395-1.133h37.828v-5.863H242.413Z" transform="translate(57.272 39.188)" fill="#231f20"/>
    <path id="Path_2645" data-name="Path 2645" d="M249.445,272.6h9.522L247.018,180.06H229.97Z" transform="translate(54.65 31.567)" fill="#fff"/>
    <path id="Path_2646" data-name="Path 2646" d="M259.072,273.277h-9.522a.567.567,0,0,1-.554-.456l-19.475-92.544a.591.591,0,0,1,.111-.468.567.567,0,0,1,.443-.209h17.048a.554.554,0,0,1,.554.493l12,92.544a.64.64,0,0,1-.136.443.567.567,0,0,1-.468.2Zm-9.066-1.133h8.438l-11.8-91.411H230.766Z" transform="translate(54.544 31.46)" fill="#231f20"/>
    <rect id="Rectangle_2515" data-name="Rectangle 2515" width="38.949" height="6.997" transform="translate(150.343 259.691) rotate(180)" fill="#fff"/>
    <path id="Path_2647" data-name="Path 2647" d="M128.445,221.07H89.434a.567.567,0,0,1-.554-.567v-7a.567.567,0,0,1,.554-.567h39.011a.567.567,0,0,1,.554.567v7a.567.567,0,0,1-.554.567ZM90.05,219.937h37.779v-5.863H90Z" transform="translate(21.948 39.188)" fill="#231f20"/>
    <path id="Path_2648" data-name="Path 2648" d="M89.324,272.6H79.79L91.751,180.06H108.8Z" transform="translate(19.841 31.567)" fill="#fff"/>
    <path id="Path_2649" data-name="Path 2649" d="M89.429,273.277H79.9a.567.567,0,0,1-.419-.2.542.542,0,0,1-.135-.443l11.9-92.544a.567.567,0,0,1,.567-.493h17.048a.53.53,0,0,1,.431.209.591.591,0,0,1,.123.468l-19.4,92.544a.554.554,0,0,1-.579.456Zm-8.893-1.133h8.438l19.241-91.411H92.349Z" transform="translate(19.735 31.46)" fill="#231f20"/>
    <rect id="Rectangle_2516" data-name="Rectangle 2516" width="105.823" height="77.467" transform="translate(215.64 189.098) rotate(180)" fill="#fff"/>
    <path id="Path_2650" data-name="Path 2650" d="M194.026,177.008H88.154a.554.554,0,0,1-.554-.567V98.974a.554.554,0,0,1,.554-.554H194.026a.567.567,0,0,1,.567.554v77.467a.567.567,0,0,1-.567.567ZM88.758,175.887h104.7V99.516H88.758Z" transform="translate(21.651 12.644)" fill="#231f20"/>
    <path id="Path_2651" data-name="Path 2651" d="M142.785,135.42v32.445H125.86Z" transform="translate(30.519 21.22)" fill="#231f20"/>
    <path id="Path_2652" data-name="Path 2652" d="M142.889,168.537H125.964a.542.542,0,0,1-.48-.271.554.554,0,0,1,0-.554L142.4,135.254a.567.567,0,0,1,1.059.271V167.97a.554.554,0,0,1-.567.567Zm-16.013-1.121h15.447V137.853Z" transform="translate(30.415 21.115)" fill="#231f20"/>
    <path id="Path_2653" data-name="Path 2653" d="M124.108,135.42h21.864l-11.985,46.562h21.987a1.306,1.306,0,0,1,0,2.611H113.847a1.737,1.737,0,0,1-1.737-1.737v-.875Z" transform="translate(27.332 21.22)" fill="#fff"/>
    <path id="Path_2654" data-name="Path 2654" d="M156.081,185.254H113.954a2.3,2.3,0,0,1-2.3-2.291v-.875a.614.614,0,0,1,0-.148l12-46.561a.554.554,0,0,1,.542-.419h21.889a.53.53,0,0,1,.443.222.554.554,0,0,1,.111.48l-11.813,45.859h21.261a1.872,1.872,0,1,1,0,3.7Zm-43.3-3.092v.8a1.232,1.232,0,0,0,1.232,1.17h42.127a.739.739,0,1,0,0-1.478H134.094a.554.554,0,0,1-.443-.222.591.591,0,0,1-.111-.493l11.8-45.859H124.646Z" transform="translate(27.225 21.113)" fill="#231f20"/>
    <rect id="Rectangle_2517" data-name="Rectangle 2517" width="1.441" height="4.521" rx="0.58" transform="translate(208.927 184.429) rotate(180)" fill="#231f20"/>
    <path id="Path_2655" data-name="Path 2655" d="M168.172,159.492a1.232,1.232,0,0,1-1.232-1.232v-3.079a1.281,1.281,0,1,1,2.562,0v3.079a1.232,1.232,0,0,1-1.33,1.232Zm0-4.521a.16.16,0,0,0-.16.16v3.079c0,.172.32.172.32,0v-3.079A.16.16,0,0,0,168.172,154.972Z" transform="translate(40.041 25.503)" fill="#231f20"/>
    <rect id="Rectangle_2518" data-name="Rectangle 2518" width="1.441" height="4.521" rx="0.58" transform="translate(205.182 184.429) rotate(180)" fill="#231f20"/>
    <path id="Path_2656" data-name="Path 2656" d="M165.122,159.492a1.232,1.232,0,0,1-1.232-1.232v-3.079a1.281,1.281,0,1,1,2.562,0v3.079a1.232,1.232,0,0,1-1.33,1.232Zm0-4.521a.16.16,0,0,0-.16.16v3.079c0,.172.32.172.32,0v-3.079A.16.16,0,0,0,165.122,154.972Z" transform="translate(39.334 25.503)" fill="#231f20"/>
    <rect id="Rectangle_2519" data-name="Rectangle 2519" width="1.441" height="4.521" rx="0.58" transform="translate(201.413 184.429) rotate(180)" fill="#231f20"/>
    <path id="Path_2657" data-name="Path 2657" d="M162.062,159.493a1.232,1.232,0,0,1-1.232-1.232v-3.079a1.287,1.287,0,1,1,2.574,0v3.079a1.232,1.232,0,0,1-1.343,1.232Zm0-4.521a.148.148,0,0,0-.148.16v3.079c0,.172.308.172.308,0v-3.079A.16.16,0,0,0,162.062,154.973Z" transform="translate(38.625 25.502)" fill="#231f20"/>
    <rect id="Rectangle_2520" data-name="Rectangle 2520" width="1.441" height="4.521" rx="0.58" transform="translate(197.644 184.429) rotate(180)" fill="#231f20"/>
    <path id="Path_2658" data-name="Path 2658" d="M159.012,159.492a1.232,1.232,0,0,1-1.232-1.232v-3.079a1.281,1.281,0,1,1,2.562,0v3.079a1.232,1.232,0,0,1-1.33,1.232Zm0-4.521a.148.148,0,0,0-.148.16v3.079c0,.172.308.172.308,0v-3.079A.16.16,0,0,0,159.012,154.972Z" transform="translate(37.918 25.503)" fill="#231f20"/>
    <rect id="Rectangle_2521" data-name="Rectangle 2521" width="1.441" height="4.521" rx="0.58" transform="translate(193.887 184.429) rotate(180)" fill="#231f20"/>
    <path id="Path_2659" data-name="Path 2659" d="M155.962,159.492a1.232,1.232,0,0,1-1.232-1.232v-3.079a1.281,1.281,0,1,1,2.562,0v3.079a1.232,1.232,0,0,1-1.33,1.232Zm0-4.521a.16.16,0,0,0-.16.16v3.079c0,.172.32.172.32,0v-3.079A.16.16,0,0,0,155.962,154.972Z" transform="translate(37.211 25.503)" fill="#231f20"/>
    <rect id="Rectangle_2522" data-name="Rectangle 2522" width="1.441" height="4.521" rx="0.58" transform="translate(190.13 184.429) rotate(180)" fill="#231f20"/>
    <path id="Path_2660" data-name="Path 2660" d="M152.912,159.492a1.232,1.232,0,0,1-1.232-1.232v-3.079a1.281,1.281,0,0,1,2.562,0v3.079a1.232,1.232,0,0,1-1.33,1.232Zm0-4.521a.16.16,0,0,0-.16.16v3.079c0,.172.308.172.308,0v-3.079a.148.148,0,0,0-.148-.16Z" transform="translate(36.504 25.503)" fill="#231f20"/>
    <rect id="Rectangle_2523" data-name="Rectangle 2523" width="257.628" height="9.509" transform="translate(97.894 205.813)" fill="#fff"/>
    <path id="Path_2661" data-name="Path 2661" d="M336.1,185.523H78.487a.567.567,0,0,1-.567-.567v-9.509a.554.554,0,0,1,.567-.567H336.1a.554.554,0,0,1,.567.567v9.509A.567.567,0,0,1,336.1,185.523ZM79.041,184.389H335.548V176H79.041Z" transform="translate(19.407 30.366)" fill="#231f20"/>
    <circle id="Ellipse_702" data-name="Ellipse 702" cx="22.308" cy="22.308" r="22.308" transform="translate(131.756 50.867)" fill="#fff"/>
    <path id="Path_2662" data-name="Path 2662" d="M128.314,94.9a22.924,22.924,0,1,1,22.924-22.924A22.924,22.924,0,0,1,128.314,94.9Zm0-44.615a21.692,21.692,0,1,0,21.692,21.692A21.692,21.692,0,0,0,128.314,50.282Z" transform="translate(25.774 1.201)" fill="#242a39"/>
    <path id="Path_2663" data-name="Path 2663" d="M124.116,71.148a.96.96,0,0,1-.259,0,.616.616,0,0,1-.357-.567v-14.7a.616.616,0,0,1,.616-.616.628.628,0,0,1,.616.616V69.128l5.752-5.3a.616.616,0,1,1,.838.9L124.5,70.951a.628.628,0,0,1-.382.2Z" transform="translate(29.972 2.642)" fill="#242a39"/>
  </g>
</svg>
